M48
;Layer_Color=9474304
;FILE_FORMAT=2:4
INCH,TZ
;TYPE=PLATED
T01F00S00C0.0118
T03F00S00C0.1220
;TYPE=NON_PLATED
T04F00S00C0.0256
T05F00S00C0.0433
T06F00S00C0.0630
T07F00S00C0.1181
%
T01
X1755Y3622
X2402Y4449
X3740Y4055
X4449Y4449
X5433Y2835
X6665Y1445
X7913Y591
X7441Y3543
X8386Y3819
X11850Y2913
X10903Y7045
X8937Y6929
Y6339
Y5748
Y5157
Y7559
Y8110
X7756Y8189
X7874Y7165
X7296Y6496
X6654Y6732
Y5551
X6339Y9921
X7838Y9629
X8346Y11063
X8031Y12074
X10315Y12060
Y11063
X9843Y11535
X11063Y10709
X12402Y10472
X12953
X13504Y10472
X14449Y11024
X14843
X15236
X11850Y9409
X10512Y9134
X10276Y8819
X9843Y9134
X4803Y9331
X4567Y9921
X5018Y10297
X4567Y11063
X3583Y10551
X3610Y9895
X3740Y9330
X3362Y8568
X3391Y8122
X3867Y7323
X3740Y5630
X5079Y6063
Y8543
X2572Y8766
X2323Y9055
X1890Y8780
X2205Y7930
T03
X1496Y1142
X25315
Y11339
X1496
T04
X2565Y7130
Y9406
T05
X10463Y2313
T06
X10463Y10187
T07
X26063Y6250
M30
