%FSTAX25Y25*%
%MOIN*%
%SFA1B1*%

%IPPOS*%
%ADD9500C,0.008000*%
%ADD9501C,0.021660*%
%ADD9502C,0.029920*%
%ADD9503C,0.030000*%
%ADD9504C,0.050000*%
%ADD9505C,0.060000*%
%ADD9506C,0.064960*%
%ADD9507C,0.068000*%
%ADD9508C,0.070870*%
%ADD9509C,0.118110*%
%ADD9510C,0.125000*%
%ADD9511C,0.035430*%
%ADD9512C,0.065980*%
%ADD9513C,0.118110*%
%LNgrandmaster-roundholes-1*%
%LPD*%
G54D9500*
X09633Y0564D03*
X09594Y05686D03*
X0888285Y0583251D03*
X08852Y05824D03*
X08822Y05792D03*
X08783Y0579D03*
X087657Y0582263D03*
X08734Y05827D03*
X08727Y05947D03*
X08694Y05952D03*
X08692Y05985D03*
X08658D03*
X08622Y05978D03*
X08588Y05979D03*
X08601Y05938D03*
X08505Y05941D03*
X08469D03*
X08405D03*
X08302Y05938D03*
X08303Y06097D03*
X08401Y06093D03*
X08499Y06094D03*
X08597Y06095D03*
X08656Y06096D03*
X08715Y06097D03*
X08774Y06098D03*
X08833Y06099D03*
X08892D03*
X0882941Y0599141D03*
X088Y05978D03*
X0876532Y0598081D03*
X0873525Y0599177D03*
X08924Y05957D03*
X08616Y05817D03*
X08582D03*
X08655Y05401D03*
X08695Y054D03*
X0881Y05399D03*
X08845D03*
X0897Y05398D03*
X0901Y054D03*
X08922Y05287D03*
X08898D03*
X0887205Y0525689D03*
X0894587Y0525591D03*
X090876Y0524705D03*
X0878937Y0525591D03*
X0876Y0529D03*
X08736D03*
X08595Y05288D03*
X08566Y05289D03*
X0853622Y0524878D03*
X0862703Y0525184D03*
X0843701Y0525D03*
X08422Y05285D03*
X08398D03*
X083Y0525D03*
X0814173Y0525984D03*
Y0529134D03*
X0810236D03*
Y0525984D03*
X0806693D03*
Y0529134D03*
X08025Y0525D03*
X079063Y052487D03*
X0786221Y0525984D03*
X0784252D03*
X0782283D03*
Y0529134D03*
X0784252D03*
X0786221D03*
X08345Y05434D03*
X08369D03*
X0846Y05402D03*
X08502Y05401D03*
X07788Y05359D03*
X07247Y05946D03*
X06995Y0591D03*
X06645Y05794D03*
X06646Y06032D03*
X06645Y06318D03*
X06644Y06555D03*
X06645Y06843D03*
Y07077D03*
Y07369D03*
X0664412Y0759783D03*
X07011Y07485D03*
X07252Y07486D03*
X07239Y07004D03*
X07Y0696D03*
X06999Y06434D03*
X07233Y06476D03*
X07662Y06501D03*
X07709D03*
X0771Y0654D03*
X07705Y06599D03*
X07661D03*
Y06698D03*
X07712D03*
X07709Y06796D03*
X07662D03*
X07666Y06895D03*
X07712Y06894D03*
Y06993D03*
X07665D03*
X0755836Y0707164D03*
X0761Y07125D03*
X07745Y0713D03*
X07707Y06403D03*
X07662D03*
X07556Y06323D03*
X07782Y06301D03*
X07995Y0634D03*
X08019Y063656D03*
X0805Y0639D03*
X08074Y064156D03*
X08197Y06302D03*
X08265Y0651D03*
X08437Y06441D03*
X08493Y0632D03*
X08685Y06485D03*
X0871Y06595D03*
X08634Y0662D03*
X08657Y06644D03*
X08595Y06738D03*
X08617Y06774D03*
X0857Y06794D03*
X0854Y06759D03*
X08375Y06945D03*
X084Y06971D03*
X0829Y0692D03*
X08321Y07219D03*
X08244Y07283D03*
X084Y07287D03*
Y07318D03*
X08441Y07286D03*
X08466Y07295D03*
X0849Y0724D03*
X0857Y07285D03*
X08572Y07312D03*
X08636Y07278D03*
X08656Y07295D03*
X08693Y07293D03*
X08717Y07297D03*
X08676Y07315D03*
X08794Y07311D03*
X08862Y07301D03*
X08832Y07267D03*
X08933Y0729D03*
X08976Y07291D03*
X08911Y07432D03*
X08885Y07435D03*
X08939Y0746D03*
X08949Y07625D03*
X08872Y0757D03*
X08812Y07605D03*
X08774Y07572D03*
X08676D03*
X08577Y07573D03*
X08615Y07465D03*
X0859Y0744D03*
X08566Y07416D03*
X08479Y07417D03*
X08466Y0746D03*
X08516Y07467D03*
X08395Y07416D03*
X084Y07583D03*
X0841935Y07625D03*
X08485Y07665D03*
Y077D03*
X08406Y07796D03*
X08314Y0759D03*
X082219Y075881D03*
X082425Y076175D03*
X0826219Y0746781D03*
X08137Y07757D03*
X07875Y07075D03*
X0787009Y0681574D03*
X07884Y06697D03*
X0781294Y0667794D03*
X0788746Y0652046D03*
X08885Y06565D03*
X0891Y0654D03*
X09215Y0666528D03*
X09243Y06665D03*
X0918742Y06718D03*
X09268Y06809D03*
X0931933Y0683D03*
X09289Y06975D03*
X09333Y07267D03*
X08774Y07433D03*
X0937Y0639D03*
Y0634D03*
X09395Y0636726D03*
X0939744Y0641526D03*
X09397Y06465D03*
X09404Y06577D03*
X09401Y0671759D03*
X0940462Y06809D03*
X09383Y06875D03*
X0942941Y0687488D03*
X09545Y06895D03*
Y06845D03*
Y06945D03*
Y06995D03*
X09562Y07037D03*
Y07062D03*
X0971Y07D03*
Y06925D03*
Y0677D03*
X09709Y06717D03*
X09715Y06679D03*
X0976402Y0667004D03*
X09794Y06695D03*
X09795Y06844D03*
X09935Y0682D03*
X10055Y068D03*
X10125Y06755D03*
X10122Y0669D03*
X10125Y06655D03*
X1014146Y0662756D03*
X1017Y06605D03*
X10025Y0655D03*
X09985Y06555D03*
X0996Y06556D03*
X09915Y0654D03*
X09885Y0657D03*
X09855Y06515D03*
X09825Y06485D03*
X09723Y06422D03*
X0954Y06417D03*
Y06445D03*
X09585Y06518D03*
X09581Y06666D03*
X0958Y06715D03*
X09987D03*
X09959Y06675D03*
X10055Y06515D03*
X1003Y0741D03*
X10055Y07726D03*
X09951Y07728D03*
X10225Y07729D03*
X1033D03*
X1049382Y0779382D03*
X09614Y07591D03*
X0957Y0759D03*
X09489Y07345D03*
X11568Y07218D03*
X11625Y0724D03*
X12039Y07175D03*
X11995Y07438D03*
X12265Y07395D03*
X12275Y07505D03*
X12388D03*
X12389Y07457D03*
X12387Y0756D03*
X12388Y07614D03*
X12389Y07661D03*
X12415Y07185D03*
X12386Y07115D03*
X12598Y0718D03*
X1269Y06885D03*
X12676Y06832D03*
X12592Y06781D03*
X12593Y06726D03*
Y06676D03*
Y06616D03*
X12539Y06535D03*
X12619Y06376D03*
X12835Y06665D03*
X13042Y06961D03*
X1294Y07099D03*
X12617Y08036D03*
X126378Y0813386D03*
X12639Y08345D03*
X125Y0846D03*
X1247Y0843D03*
X1243773Y084D03*
X124Y08375D03*
X1234491Y0833508D03*
X12325Y0827D03*
X1227257Y0823D03*
X1229957Y08203D03*
X1233Y08155D03*
X12295Y08125D03*
X1243Y08195D03*
X12467Y08235D03*
X12435Y08295D03*
X12447Y08013D03*
X123622Y0791339D03*
X1224409D03*
X12285Y08705D03*
X11985Y08556D03*
X11724Y0856D03*
X11667Y0855D03*
X11265Y08515D03*
X1125716Y0909284D03*
X10901Y09207D03*
X1074487Y0911987D03*
X10378Y0921D03*
X10185Y08888D03*
X10076Y08896D03*
X1003Y08788D03*
X1004Y08669D03*
X1012Y0852D03*
X10245Y0878D03*
X09821Y08766D03*
X0982Y0881D03*
X0969Y0884D03*
Y08755D03*
X0953Y0881D03*
X09522Y08664D03*
X09415Y0864D03*
X09427Y08461D03*
X0946Y0846D03*
X09385Y08451D03*
X0952Y08485D03*
X09613Y0849D03*
X09644Y08297D03*
X09735Y08265D03*
Y08346D03*
X09797Y08239D03*
X0979Y08205D03*
X0982Y0818D03*
X09845Y08155D03*
X09871Y08113D03*
X0993Y08125D03*
X10059Y08139D03*
X10105D03*
X10143D03*
X10199D03*
X10263D03*
X10324D03*
X10422D03*
X10468D03*
X1085Y08D03*
X1066Y0861D03*
X09768Y09027D03*
X09495Y0909D03*
X09386Y09226D03*
X09482Y08301D03*
X0953302Y0832298D03*
X09592Y08142D03*
X09482Y08107D03*
X0957Y07947D03*
X09592Y07896D03*
X09708Y08076D03*
X09359Y08054D03*
X09335Y08D03*
X09361Y07892D03*
X09188Y07974D03*
X0907Y07985D03*
X09023Y07972D03*
X09009Y07901D03*
X0909Y07916D03*
X08907Y07907D03*
X08875Y07903D03*
X08807Y07907D03*
X08753Y07906D03*
X08714Y07924D03*
X08622Y0788D03*
X08464Y07984D03*
X08495Y08086D03*
X08414Y08127D03*
X0841Y08198D03*
X08404Y08299D03*
X0832Y08365D03*
X0825Y08265D03*
X08196Y08204D03*
X08225Y0851D03*
X08245Y0854D03*
X0838Y08485D03*
X08425Y0855D03*
X0857Y0849D03*
X08665Y08505D03*
X08715Y08525D03*
X08765Y0857D03*
X0879Y0862D03*
X0867Y08665D03*
X08715Y08733D03*
X0871257Y0879001D03*
X08851Y08791D03*
X0898354Y08755D03*
X09005Y08835D03*
X0921Y0881D03*
X0926Y08792D03*
X09265Y0861D03*
X0923Y086D03*
X09349Y08452D03*
X09293Y08348D03*
X09321Y08305D03*
X09365Y08277D03*
X09243Y08297D03*
X09221Y08239D03*
X09188Y08218D03*
X0903536Y0821364D03*
X09048Y08159D03*
X0891732Y0814961D03*
X0888976D03*
X0885827D03*
X0883071D03*
Y0811811D03*
X0885827D03*
X0888976D03*
X0891732D03*
Y081811D03*
X0888976D03*
Y082126D03*
X0891732D03*
X0885827D03*
X0883071D03*
Y081811D03*
X0885827D03*
X08716Y08164D03*
X08717Y08329D03*
X08625Y0841D03*
X08581Y08292D03*
X08582Y08204D03*
X08887Y08382D03*
X08961Y08415D03*
X08975Y0805D03*
X08879Y09225D03*
X08561Y09287D03*
X08281Y09221D03*
X08235Y09021D03*
X08075Y089D03*
X0805Y08875D03*
X0802Y0884D03*
X07995Y0882D03*
X0813Y08742D03*
X08249Y08745D03*
X0813Y08615D03*
X07875Y08605D03*
X0784Y08705D03*
X07894Y09022D03*
X0774Y09114D03*
X0777Y0916D03*
X07682Y09083D03*
X07576Y09129D03*
X07548Y09233D03*
X07717Y0933D03*
X07779Y09331D03*
X07285Y0926D03*
X07431Y08561D03*
X0754Y08625D03*
X07565Y086D03*
X07745Y08665D03*
X0745Y08151D03*
G54D9501*
X081933Y0596253D03*
X089807D03*
X0768699Y0631377D03*
Y0710117D03*
X0819329Y0744247D03*
X0898069D03*
X095619Y0710113D03*
Y0631373D03*
G54D9502*
X084125Y0808615D03*
Y0824363D03*
X084075Y0844937D03*
Y0860685D03*
G54D9503*
X0803Y09056D03*
Y09156D03*
Y09256D03*
X07429Y09264D03*
Y09164D03*
Y09064D03*
G54D9504*
X1156831Y0589456D03*
X0996988D03*
Y0749298D03*
X1005256Y0759928D03*
X1017067D03*
X1028878D03*
X1156831Y0749298D03*
Y0669377D03*
G54D9505*
X0619Y0591D03*
Y06435D03*
Y0696D03*
Y07485D03*
G54D9506*
X117122Y0896D03*
Y091411D03*
G54D9507*
X0629Y0581D03*
Y0601D03*
X0609D03*
Y0581D03*
Y06335D03*
Y06535D03*
Y0686D03*
Y0706D03*
Y07385D03*
Y07585D03*
X0629D03*
Y07385D03*
Y0706D03*
Y0686D03*
Y06535D03*
Y06335D03*
G54D9508*
X1255965Y0859346D03*
X12725D03*
X1289035D03*
Y0881D03*
X12725D03*
X1255965D03*
G54D9509*
X096081Y0592023D03*
X076431D03*
X076421Y0749023D03*
X096081D03*
G54D9510*
X13206Y05701D03*
X06285Y05373D03*
X13206Y09168D03*
X06294Y09156D03*
G54D9511*
X09775Y0913D03*
X0994823D03*
G54D9512*
X08985Y0909004D03*
X09285D03*
G54D9513*
X1255965Y090974D03*
X1289035D03*
M02*