%FSTAX25Y25*%
%MOIN*%
%SFA1B1*%

%IPPOS*%
%ADD77R,1.354330X0.230320*%
%ADD78R,0.314960X0.135830*%
%ADD79R,0.047370X0.045400*%
%ADD80R,0.036350X0.047370*%
%ADD81R,0.072960X0.059180*%
%ADD82R,0.025720X0.062330*%
%ADD83R,0.063910X0.069020*%
%ADD84R,0.078870X0.082800*%
%ADD85R,0.047370X0.082800*%
%ADD86R,0.027690X0.098550*%
%ADD87R,0.086740X0.106420*%
%ADD88R,0.094610X0.049340*%
%ADD89R,0.049340X0.047370*%
%ADD90R,0.027690X0.043430*%
%ADD91O,0.065090X0.025720*%
%ADD92R,0.085560X0.030440*%
%ADD93R,0.033590X0.049340*%
%ADD94R,0.059180X0.082800*%
%ADD95R,0.047370X0.098550*%
%ADD96R,0.047370X0.078870*%
%ADD97R,0.061150X0.035560*%
%ADD98R,0.035560X0.053280*%
%ADD99R,0.049340X0.053280*%
%ADD100R,0.058000X0.208000*%
%ADD101R,0.065090X0.045400*%
%ADD102R,0.031620X0.033590*%
%ADD103R,0.143830X0.143830*%
%ADD104O,0.016520X0.032270*%
%ADD105O,0.032270X0.016520*%
%ADD106R,0.036000X0.173000*%
%ADD107R,0.036000X0.134000*%
%ADD108R,0.039500X0.074930*%
%ADD109R,0.078870X0.017840*%
%ADD110R,0.017840X0.030640*%
%ADD111R,0.034580X0.017840*%
%ADD112R,0.046580X0.042250*%
%ADD113R,0.220600X0.122170*%
%ADD114R,0.208790X0.330840*%
%ADD115R,0.104460X0.132020*%
%ADD116R,0.041470X0.047370*%
%ADD117R,0.065090X0.053280*%
%ADD118R,0.045400X0.047370*%
%ADD119R,0.033200X0.034770*%
%ADD120R,0.061150X0.074930*%
%ADD121R,0.017840X0.069020*%
%ADD122R,0.069020X0.017840*%
%ADD123R,0.074930X0.061150*%
%ADD124R,0.053280X0.065090*%
%ADD125R,0.034770X0.033200*%
%ADD126R,0.047370X0.041470*%
%ADD127R,0.047370X0.036350*%
%ADD128R,0.033590X0.031620*%
%ADD129R,0.090870X0.052090*%
%ADD130C,0.258000*%
%ADD131C,0.039500*%
%ADD132C,0.073980*%
%ADD133C,0.008000*%
%ADD134C,0.083000*%
%ADD135C,0.106420*%
%ADD136O,0.204850X0.106420*%
%ADD137O,0.185170X0.096580*%
%ADD138O,0.096580X0.185170*%
%ADD139C,0.128000*%
%ADD140C,0.120000*%
%ADD141C,0.029660*%
%ADD142R,0.008000X0.008000*%
%ADD143C,0.063000*%
%ADD144R,0.063000X0.063000*%
%ADD145C,0.058000*%
%ADD146C,0.024000*%
%LNgrandmaster-1*%
%LPD*%
G54D77*
X0843701Y0511516D03*
G54D78*
X074602Y0524997D03*
G54D79*
X128335Y071D03*
X128965D03*
X121465Y07175D03*
X120835D03*
X091215Y0825D03*
X090585D03*
X077175Y09277D03*
X076545D03*
G54D80*
X1208016Y0856D03*
X1202584D03*
X0952217Y07801D03*
X0946784D03*
X1015784Y0852D03*
X1021216D03*
X1283284Y0682D03*
X1288717D03*
X1271784D03*
X1277217D03*
X1230284Y07455D03*
X1235717D03*
X1010283Y08705D03*
X1015716D03*
X1069716Y0921D03*
X1064283D03*
X1125716D03*
X1120284D03*
X1069716Y09125D03*
X1064283D03*
X1120284Y0913D03*
X1125716D03*
G54D81*
X0818985Y09279D03*
X084556D03*
G54D82*
X0827154Y0917428D03*
X0829713D03*
X0832272D03*
X0834832D03*
X0837391D03*
G54D83*
X0842115Y0917762D03*
X082243D03*
G54D84*
X08368Y09279D03*
G54D85*
X082617Y09279D03*
G54D86*
X0979862Y0902764D03*
X0983012D03*
X0986161D03*
X0989311D03*
X0992461D03*
G54D87*
X0968642Y0924811D03*
Y0903158D03*
X1003681D03*
Y0924811D03*
G54D88*
X06645Y0585193D03*
Y0596807D03*
Y0701807D03*
Y0690193D03*
Y0754307D03*
Y0742693D03*
Y0637693D03*
Y0649307D03*
G54D89*
X0658496Y0591D03*
Y0696D03*
Y07485D03*
Y06435D03*
G54D90*
X0948559Y0875429D03*
X0943441D03*
X0946Y0866571D03*
X0885059Y0875429D03*
X0879941D03*
X08825Y0866571D03*
X0873559Y0875429D03*
X0868441D03*
X0871Y0866571D03*
X0926059Y0875429D03*
X0920941D03*
X09235Y0866571D03*
G54D91*
X0762172Y092035D03*
Y091785D03*
Y091535D03*
Y091285D03*
Y091035D03*
Y090785D03*
Y090535D03*
Y090285D03*
X0783628Y092035D03*
Y091785D03*
Y091535D03*
Y091285D03*
Y091035D03*
Y090785D03*
Y090535D03*
Y090285D03*
X0976272Y088625D03*
Y088375D03*
Y088125D03*
Y087875D03*
Y087625D03*
Y087375D03*
Y087125D03*
Y086875D03*
X0997728Y088625D03*
Y088375D03*
Y088125D03*
Y087875D03*
Y087625D03*
Y087375D03*
Y087125D03*
Y086875D03*
G54D92*
X1214756Y07245D03*
Y07295D03*
Y07345D03*
Y07395D03*
X1234244D03*
Y07345D03*
Y07295D03*
Y07245D03*
X1282244Y07035D03*
Y06985D03*
Y06935D03*
Y06885D03*
X1262756D03*
Y06935D03*
Y06985D03*
Y07035D03*
G54D93*
X1218815Y08705D03*
X1233185D03*
X1187815D03*
X1202185D03*
X1219315Y0857D03*
X1233685D03*
G54D94*
X1271673Y0829799D03*
X1293327D03*
Y0817201D03*
X1271673D03*
G54D95*
X0955949Y0838929D03*
G54D96*
X0938232Y0839913D03*
X0950043Y0821016D03*
X0932327D03*
Y0839913D03*
X0955949Y0821016D03*
X0950043Y0839913D03*
X0944138D03*
X0938232Y0821016D03*
X0944138D03*
G54D97*
X0951535Y0799962D03*
Y0795238D03*
X0943465D03*
Y0799962D03*
G54D98*
X09475Y0805572D03*
Y0789628D03*
G54D99*
X0952126Y0789628D03*
Y0805572D03*
X0942874Y0789628D03*
Y0805572D03*
G54D100*
X08935Y08955D03*
Y0922508D03*
X09035Y08955D03*
Y0922508D03*
X09135Y08955D03*
Y0922508D03*
X09235Y08955D03*
Y0922508D03*
X09335Y08955D03*
Y0922508D03*
G54D101*
X0934Y0874937D03*
Y0867063D03*
X08935Y0874937D03*
Y0867063D03*
X09035Y0874937D03*
Y0867063D03*
X09135Y0874937D03*
Y0867063D03*
G54D102*
X08755Y0797673D03*
Y0794327D03*
X08455Y0556248D03*
Y0559594D03*
X0905Y0556248D03*
Y0559594D03*
X0889Y0797673D03*
Y0794327D03*
X08845Y0797673D03*
Y0794327D03*
X088Y0797673D03*
Y0794327D03*
X08925Y0834827D03*
Y0838173D03*
X08965Y0834827D03*
Y0838173D03*
G54D103*
X08875Y08165D03*
G54D104*
X088061Y0826933D03*
X0882579D03*
X0884547D03*
X0886516D03*
X0888484D03*
X0890453D03*
X0892421D03*
X089439D03*
Y0806067D03*
X0892421D03*
X0890453D03*
X0888484D03*
X0886516D03*
X0884547D03*
X0882579D03*
X088061D03*
G54D105*
X0897933Y082339D03*
Y0821421D03*
Y0819453D03*
Y0817484D03*
Y0815516D03*
Y0813547D03*
Y0811579D03*
Y080961D03*
X0877067D03*
Y0811579D03*
Y0813547D03*
Y0815516D03*
Y0817484D03*
Y0819453D03*
Y0821421D03*
Y082339D03*
G54D106*
X0908661Y0514173D03*
X0786614D03*
X0782677D03*
X077874D03*
X0806299D03*
X0849606D03*
X0892913D03*
X0888976D03*
X0877165D03*
X0873228D03*
X0861417D03*
X085748D03*
X0841732D03*
X0837795D03*
X0814173D03*
X0810236D03*
X0829921D03*
X0900787D03*
X0794488D03*
X0798425D03*
X081811D03*
X089685D03*
X0885039D03*
X0869291D03*
X0865354D03*
X0802362D03*
X0790551D03*
X0881102D03*
X0833858D03*
X0845669D03*
X0853543D03*
G54D107*
X0904724Y0516123D03*
G54D108*
X1108193Y0921D03*
X1094807D03*
X1055693D03*
X1042307D03*
G54D109*
X1005906Y0678356D03*
X0990158D03*
X1005906Y0676356D03*
X0990158D03*
X1005906Y0674356D03*
X0990158D03*
X1005906Y0672356D03*
X0990158D03*
X1005906Y0670356D03*
X0990158D03*
X1005906Y0668356D03*
X0990158D03*
X1005906Y0666356D03*
X0990158D03*
X1005906Y0664356D03*
X0990158D03*
X1005906Y0662356D03*
X0990158D03*
Y0660356D03*
X1005906D03*
G54D110*
X1246953Y0815396D03*
X1245D03*
X1243016D03*
X1241047D03*
Y0833604D03*
X1243016D03*
X1244984D03*
X1246953D03*
G54D111*
X1250152Y0815642D03*
X1237848D03*
Y081761D03*
Y0819579D03*
Y0821547D03*
Y0823516D03*
Y0825484D03*
Y0827453D03*
Y0829421D03*
Y083139D03*
Y0833358D03*
X1250152D03*
Y083139D03*
Y0829421D03*
Y0827453D03*
Y0825484D03*
Y0823516D03*
Y0821547D03*
Y081761D03*
Y0819579D03*
G54D112*
X1014Y0784618D03*
Y0779382D03*
X09205Y0803882D03*
Y0809118D03*
X10425Y0784618D03*
Y0779382D03*
G54D113*
X1267Y0780594D03*
Y0742406D03*
X1231Y0646406D03*
Y0684594D03*
G54D114*
X1085Y082D03*
Y0879745D03*
G54D115*
X0692279Y0591D03*
X071472D03*
Y0696D03*
X0692279D03*
X071472Y07485D03*
X0692279D03*
Y06435D03*
X071472D03*
G54D116*
X0724Y0920146D03*
Y0925854D03*
X0958Y0891354D03*
Y0885646D03*
Y0873146D03*
Y0878854D03*
X06635Y0925854D03*
Y0920146D03*
X0683667Y0925854D03*
Y0920146D03*
X0703833D03*
Y0925854D03*
G54D117*
X1033Y0785543D03*
Y0778457D03*
X12325Y0718543D03*
Y0711457D03*
X1265Y0709957D03*
Y0717043D03*
X1224409Y0775984D03*
Y0783071D03*
X123622Y0775984D03*
Y0783071D03*
X10095Y0884543D03*
Y0877457D03*
X082Y0864957D03*
Y0872043D03*
X0863Y0861043D03*
Y0853957D03*
X09684Y0812157D03*
Y0819243D03*
X09125Y0802457D03*
Y0809543D03*
X08965Y0799543D03*
Y0792457D03*
X10055Y0785543D03*
Y0778457D03*
X0995Y0785543D03*
Y0778457D03*
X10225Y0785543D03*
Y0778457D03*
G54D118*
X1003Y080965D03*
Y080335D03*
X1246Y073065D03*
Y072435D03*
X1251Y070215D03*
Y069585D03*
X10185Y088415D03*
Y087785D03*
X09679Y083335D03*
Y082705D03*
X09045Y080335D03*
Y080965D03*
X12595Y083315D03*
Y082685D03*
Y081335D03*
Y081965D03*
G54D119*
X101Y0808193D03*
Y0804807D03*
X1293Y0692693D03*
Y0689307D03*
X12055Y0738193D03*
Y0734807D03*
X12575Y0807693D03*
Y0804307D03*
X0813Y0866807D03*
Y0870193D03*
X08715Y0859693D03*
Y0856307D03*
X0976Y0820507D03*
Y0823893D03*
X10445Y0808193D03*
Y0804807D03*
X10385Y0808193D03*
Y0804807D03*
X10325Y0808193D03*
Y0804807D03*
X10265Y0808193D03*
Y0804807D03*
X1021Y0808193D03*
Y0804807D03*
X10155Y0808193D03*
Y0804807D03*
G54D120*
X0901514Y0744247D03*
X0901515Y0596253D03*
X0815885D03*
X0815884Y0744247D03*
G54D121*
X0820314Y0604225D03*
Y0588281D03*
X0830157D03*
X0839999D03*
X0849842D03*
X0859684D03*
X086559D03*
X0871495D03*
X0877401D03*
X0883306D03*
X0889212D03*
X0830157Y0604225D03*
X0839999D03*
X0849842D03*
X0859684D03*
X086559D03*
X0871495D03*
X0877401D03*
X0883306D03*
X0889212D03*
X0895117Y0588281D03*
Y0604225D03*
X0897086D03*
Y0588281D03*
X0893149Y0604225D03*
Y0588281D03*
X089118Y0604225D03*
Y0588281D03*
X0887243Y0604225D03*
X0885275D03*
X085181D03*
X0853779D03*
X0832125D03*
X0834094D03*
X0822283D03*
X0824251D03*
X082622D03*
X0828188D03*
X0843936D03*
X0847873D03*
X0845905D03*
X0841968D03*
X0838031D03*
X0836062D03*
X0855747D03*
X082622Y0588281D03*
X0824251D03*
X0845905D03*
X0843936D03*
X0855747D03*
X0853779D03*
X085181D03*
X0847873D03*
X0838031D03*
X0828188D03*
X0832125D03*
X0834094D03*
X0836062D03*
X0841968D03*
X0822283D03*
X0863621Y0604225D03*
X0861653D03*
X0869527Y0588281D03*
X0867558D03*
X0881338D03*
X0879369D03*
X0875432Y0604225D03*
X0873464D03*
X0861653Y0588281D03*
X0863621D03*
X0857716Y0604225D03*
Y0588281D03*
X0869527Y0604225D03*
X0867558D03*
X0875432Y0588281D03*
X0873464D03*
X0887243D03*
X0885275D03*
X0881338Y0604225D03*
X0879369D03*
X0832124Y0752219D03*
X0830156D03*
X0826219Y0736275D03*
X0832124D03*
X0830156D03*
X082425D03*
X0895116Y0752219D03*
X0893148D03*
X0885274D03*
X0883305D03*
X0891179D03*
X0889211D03*
X0875431D03*
X0873463D03*
X0881337D03*
X0879368D03*
X0865589D03*
X086362D03*
X0871494D03*
X0869526D03*
X0855746D03*
X0861652D03*
X0853778D03*
X0859683D03*
X0845904D03*
X0843935D03*
X0851809D03*
X0849841D03*
X0836061D03*
X0834093D03*
X0841967D03*
X0839998D03*
X0826219D03*
X082425D03*
X0820313Y0736275D03*
X0822282D03*
Y0752219D03*
X0820313D03*
X0836061Y0736275D03*
X0834093D03*
X0841967D03*
X0839998D03*
X0845904D03*
X0843935D03*
X0851809D03*
X0849841D03*
X0855746D03*
X0853778D03*
X0861652D03*
X0859683D03*
X0865589D03*
X086362D03*
X0871494D03*
X0869526D03*
X0875431D03*
X0873463D03*
X0881337D03*
X0879368D03*
X0885274D03*
X0883305D03*
X0891179D03*
X0889211D03*
X0895116D03*
X0893148D03*
X0828187D03*
X083803D03*
X0847872D03*
X0857715D03*
X0867557D03*
X08774D03*
X0887242D03*
X0828187Y0752219D03*
X083803D03*
X0847872D03*
X0857715D03*
X0867557D03*
X08774D03*
X0887242D03*
X0897085Y0736275D03*
Y0752219D03*
G54D122*
X0760727Y0707164D03*
X0776671Y0654015D03*
Y0707164D03*
Y0709133D03*
X0760727D03*
Y069929D03*
Y0689448D03*
Y0679605D03*
Y0669763D03*
Y065992D03*
Y0650078D03*
Y0640235D03*
X0776671Y069929D03*
Y0689448D03*
Y0679605D03*
Y0669763D03*
Y065992D03*
Y0650078D03*
Y0640235D03*
Y0705196D03*
X0760727D03*
X0776671Y0652046D03*
X0760727Y0665826D03*
Y0671731D03*
X0776671Y0648109D03*
X0760727Y0632361D03*
X0776671Y0642204D03*
Y0632361D03*
Y0638267D03*
X0760727Y0677637D03*
Y0663857D03*
Y063433D03*
X0776671Y0636298D03*
X0760727Y0675668D03*
Y0642204D03*
Y0648109D03*
Y0638267D03*
Y0667794D03*
Y06737D03*
Y0661889D03*
Y0655983D03*
Y0654015D03*
Y0644172D03*
Y0657952D03*
X0776671Y063433D03*
X0760727Y0636298D03*
X0776671Y0644172D03*
X0760727Y0683542D03*
Y0681574D03*
Y0646141D03*
Y0652046D03*
X0776671Y0657952D03*
Y0655983D03*
X0760727Y0695353D03*
X0776671Y0671731D03*
Y0675668D03*
X0760727Y0701259D03*
X0776671Y0665826D03*
Y0681574D03*
Y0685511D03*
Y0693385D03*
X0760727Y0697322D03*
Y0687479D03*
X0776671Y0667794D03*
Y0646141D03*
Y0697322D03*
Y0701259D03*
X0760727Y0703227D03*
Y0691416D03*
Y0685511D03*
Y0693385D03*
X0776671Y0677637D03*
Y06737D03*
Y0695353D03*
Y0683542D03*
Y0691416D03*
Y0703227D03*
Y0687479D03*
Y0661889D03*
Y0663857D03*
X0964162Y0703223D03*
Y0705192D03*
Y070716D03*
Y0709129D03*
X0948218Y0703223D03*
Y0705192D03*
Y070716D03*
Y0709129D03*
Y0644168D03*
Y0659916D03*
Y0657948D03*
X0964162Y0654011D03*
X0948218Y0675664D03*
Y0673696D03*
X0964162Y0632357D03*
X0948218D03*
X0964162Y0634326D03*
Y0636294D03*
Y0638263D03*
Y0640231D03*
Y0644168D03*
Y0646137D03*
Y0648105D03*
Y0650074D03*
X0948218Y0654011D03*
X0964162Y0659916D03*
X0948218Y0695349D03*
X0964162Y06422D03*
Y0652042D03*
Y0661885D03*
Y0671727D03*
Y068157D03*
Y0691412D03*
Y0701255D03*
X0948218Y06422D03*
Y0652042D03*
Y0661885D03*
Y0671727D03*
Y068157D03*
Y0691412D03*
Y0701255D03*
Y0655979D03*
Y0693381D03*
X0964162Y0663853D03*
Y066779D03*
Y0655979D03*
Y0657948D03*
Y0665822D03*
Y0675664D03*
Y0673696D03*
X0948218Y0669759D03*
Y0665822D03*
Y066779D03*
Y0663853D03*
X0964162Y0669759D03*
X0948218Y0697318D03*
Y0699286D03*
X0964162Y0697318D03*
Y0699286D03*
Y0695349D03*
Y0683538D03*
Y0685507D03*
Y0677633D03*
Y0679601D03*
X0948218Y0636294D03*
Y0634326D03*
X0964162Y0693381D03*
Y0689444D03*
Y0687475D03*
X0948218Y0683538D03*
Y0687475D03*
Y0685507D03*
Y0689444D03*
Y0679601D03*
Y0650074D03*
Y0677633D03*
Y0648105D03*
Y0646137D03*
Y0638263D03*
Y0640231D03*
G54D123*
X0768699Y0713562D03*
Y0627932D03*
X095619Y0627928D03*
Y0713558D03*
G54D124*
X1181043Y0852D03*
X1173957D03*
X1269043Y06425D03*
X1261957D03*
X1269043Y06535D03*
X1261957D03*
X1250043Y08075D03*
X1242957D03*
X0964957Y0573D03*
X0972043D03*
X0917043Y0817D03*
X0909957D03*
X0786343Y0928D03*
X0779257D03*
X1019957Y0825D03*
X1027043D03*
G54D125*
X1166693Y0852D03*
X1163307D03*
X1235193Y0766D03*
X1231807D03*
X1235193Y07505D03*
X1231807D03*
X1235193Y0756D03*
X1231807D03*
X1235193Y07615D03*
X1231807D03*
X1263307Y06615D03*
X1266693D03*
X1263307Y06675D03*
X1266693D03*
X1263307Y06725D03*
X1266693D03*
X1263307Y0678D03*
X1266693D03*
X0967307Y0564D03*
X0970693D03*
G54D126*
X1029146Y0852D03*
X1034854D03*
G54D127*
X1274Y0709283D03*
Y0714716D03*
X12225Y0713283D03*
Y0718716D03*
X13Y0694216D03*
Y0688784D03*
X11995Y0734283D03*
Y0739716D03*
X08137Y0768317D03*
Y0762884D03*
X0662913Y0909717D03*
Y0904284D03*
X0683079D03*
Y0909717D03*
X0703246Y0904284D03*
Y0909717D03*
X0723413Y0904284D03*
Y0909717D03*
X12113Y0743784D03*
Y0749217D03*
X07924Y0913317D03*
Y0907883D03*
G54D128*
X0965827Y08865D03*
X0969173D03*
X0965827Y0879D03*
X0969173D03*
G54D129*
X08495Y0864622D03*
Y0848874D03*
Y0856748D03*
Y0841D03*
X0832Y0864622D03*
Y0856748D03*
Y0848874D03*
Y0841D03*
G54D130*
X06285Y05373D03*
X13206Y05701D03*
X06294Y09156D03*
X13206Y09168D03*
G54D131*
X09775Y0913D03*
X0994823D03*
G54D132*
X08985Y0909004D03*
X09285D03*
G54D133*
X084125Y0824363D03*
Y0808615D03*
X084075Y0844937D03*
Y0860685D03*
G54D134*
X1028878Y0759928D03*
X1017067D03*
X1005256D03*
X0996988Y0589456D03*
Y0749298D03*
X1156831D03*
Y0669377D03*
Y0589456D03*
G54D135*
X117122Y0896D03*
Y091411D03*
X1255965Y0881D03*
Y0859346D03*
X12725Y0881D03*
Y0859346D03*
X1289035D03*
Y0881D03*
G54D136*
X1211Y0882378D03*
G54D137*
X1211Y0906D03*
G54D138*
X1192496Y0894189D03*
G54D139*
X0609Y0601D03*
Y0581D03*
X0629D03*
Y0601D03*
X0609Y07585D03*
Y07385D03*
X0629D03*
Y07585D03*
X0609Y0706D03*
Y0686D03*
X0629D03*
Y0706D03*
X0609Y06535D03*
Y06335D03*
X0629D03*
Y06535D03*
G54D140*
X0619Y0591D03*
Y07485D03*
Y0696D03*
Y06435D03*
G54D141*
X0898069Y0744247D03*
X089807Y0596253D03*
X081933D03*
X0768699Y0710117D03*
Y0631377D03*
X0819329Y0744247D03*
X095619Y0631373D03*
Y0710113D03*
G54D142*
X096081Y0592023D03*
X076421Y0749023D03*
X076431Y0592023D03*
X096081Y0749023D03*
G54D143*
X0803Y09156D03*
Y09056D03*
X07429Y09164D03*
Y09064D03*
G54D144*
X0803Y09256D03*
X07429Y09264D03*
G54D145*
X1255965Y090974D03*
X1289035D03*
G54D146*
X090876Y0524705D03*
X0894587Y0525591D03*
X0853622Y0524878D03*
X0843701Y0525D03*
X08422Y05285D03*
X08398D03*
X0806693Y0525984D03*
Y0529134D03*
X0810236D03*
X0814173D03*
X0810236Y0525984D03*
X0814173D03*
X079063Y052487D03*
X0782283Y0525984D03*
X0784252D03*
X0786221D03*
X0782283Y0529134D03*
X0784252D03*
X0786221D03*
X0876Y0529D03*
X08736D03*
X08898Y05287D03*
X08025Y0525D03*
X08595Y05288D03*
X0862703Y0525184D03*
X0788746Y0652046D03*
X0878937Y0525591D03*
X083Y0525D03*
X08566Y05289D03*
X08922Y05287D03*
X0887205Y0525689D03*
X07788Y05359D03*
X0891732Y0814961D03*
X0885827D03*
X0883071D03*
X0888976D03*
X0891732Y0811811D03*
X0885827D03*
X0883071D03*
X0888976D03*
X0891732Y081811D03*
X0885827D03*
X0883071D03*
X0888976D03*
Y082126D03*
X0883071D03*
X0885827D03*
X0891732D03*
X1224409Y0791339D03*
X126378Y0813386D03*
X1125716Y0909284D03*
X1033Y07729D03*
X1049382Y0779382D03*
X082219Y075881D03*
X082425Y076175D03*
X0826219Y0746781D03*
X09562Y07062D03*
X0931933Y0683D03*
X0940462Y06809D03*
X0942941Y0687488D03*
X0996Y06556D03*
X0781294Y0667794D03*
X0787009Y0681574D03*
X0755836Y0707164D03*
X11985Y08556D03*
X09592Y08142D03*
Y07896D03*
X08975Y0805D03*
X0907Y07985D03*
X1004Y08669D03*
X0982Y0881D03*
X07779Y09331D03*
X09581Y06666D03*
X08321Y07219D03*
X11568Y07218D03*
X08774Y07572D03*
X07712Y06993D03*
X08693Y07293D03*
X08685Y06485D03*
X10055Y06515D03*
X08887Y08382D03*
X0838Y08485D03*
X08375Y06945D03*
X09795Y06844D03*
X08505Y05941D03*
X08656Y06096D03*
X09821Y08766D03*
X12325Y0827D03*
X09735Y08265D03*
X0976402Y0667004D03*
X08314Y0759D03*
X07662Y06796D03*
X08774Y06098D03*
X09386Y09226D03*
X10263Y08139D03*
X0971Y07D03*
X09401Y0671759D03*
X0849Y0724D03*
X11625D03*
X08615Y07465D03*
X08617Y06774D03*
X10055Y068D03*
X07705Y06599D03*
X1085Y08D03*
X12295Y08125D03*
X0993D03*
X09915Y0654D03*
X08716Y08164D03*
X08717Y08329D03*
X09048Y08159D03*
X0813Y08742D03*
X0918742Y06718D03*
X09188Y07974D03*
X08414Y08127D03*
X08479Y07417D03*
X08401Y06093D03*
X1012Y0852D03*
X08485Y07665D03*
X0903536Y0821364D03*
X10199Y08139D03*
X09585Y06518D03*
X08676Y07572D03*
X07662Y06403D03*
X08137Y07757D03*
X10125Y06755D03*
X08595Y06738D03*
X0859Y0744D03*
X12617Y08036D03*
X10143Y08139D03*
X08694Y05952D03*
X08245Y0854D03*
X0829Y0692D03*
X09545Y06895D03*
X10055Y07726D03*
X08485Y077D03*
X08715Y08525D03*
X08302Y05938D03*
X08862Y07301D03*
X07666Y06895D03*
X08845Y05399D03*
X0881D03*
X0888285Y0583251D03*
X08852Y05824D03*
X07239Y07004D03*
X0971Y06925D03*
X09404Y06577D03*
X0857Y07285D03*
Y06794D03*
X09935Y0682D03*
X07712Y06698D03*
X08807Y07907D03*
X08907D03*
X10122Y0669D03*
X08303Y06097D03*
X10059Y08139D03*
X08665Y08505D03*
X10225Y07729D03*
X08714Y07924D03*
X08395Y07416D03*
X09723Y06422D03*
X08577Y07573D03*
X07662Y06501D03*
X09545Y06995D03*
X08961Y08415D03*
X12447Y08013D03*
X07682Y09083D03*
X09633Y0564D03*
X0825Y08265D03*
X09365Y08277D03*
X09359Y08054D03*
X08774Y07433D03*
X07665Y06993D03*
X1003Y08788D03*
X12467Y08235D03*
X10324Y08139D03*
X10468D03*
X09545Y06845D03*
X09397Y06465D03*
X08566Y07416D03*
X1003Y0741D03*
X07707Y06403D03*
X07709Y06796D03*
X07548Y09233D03*
X09188Y08218D03*
X07717Y0933D03*
X08244Y07283D03*
X08924Y05957D03*
X0971Y0677D03*
X0854Y06759D03*
X08625Y0841D03*
X08466Y0746D03*
X07661Y06599D03*
X08892Y06099D03*
X09545Y06945D03*
X09268Y06809D03*
X09265Y0861D03*
X1066D03*
X09959Y06675D03*
X09951Y07728D03*
X08601Y05938D03*
X1227257Y0823D03*
X09797Y08239D03*
X09794Y06695D03*
X08464Y07984D03*
X08676Y07315D03*
X08597Y06095D03*
X07252Y07486D03*
X09709Y06717D03*
X0954Y06417D03*
X08872Y0757D03*
X07709Y06501D03*
X07712Y06894D03*
X08875Y07903D03*
X09987Y06715D03*
X08404Y08299D03*
X10105Y08139D03*
X12639Y08345D03*
X0832Y08365D03*
X08622Y0788D03*
X08879Y09225D03*
X09361Y07892D03*
X084Y07583D03*
X07661Y06698D03*
X08833Y06099D03*
X08753Y07906D03*
X08249Y08745D03*
X08406Y07796D03*
X08572Y07312D03*
X08499Y06094D03*
X0774Y09114D03*
X08561Y09287D03*
X0745Y08151D03*
X07431Y08561D03*
X07576Y09129D03*
X07894Y09022D03*
X08235Y09021D03*
X08281Y09221D03*
X09871Y08113D03*
X09482Y08107D03*
X08812Y07605D03*
X09614Y07591D03*
X09613Y0849D03*
X09482Y08301D03*
X0953302Y0832298D03*
X09335Y08D03*
X09735Y08346D03*
X09644Y08297D03*
X09385Y08451D03*
X09427Y08461D03*
X09349Y08452D03*
X09708Y08076D03*
X08425Y0855D03*
X0857Y0849D03*
X07884Y06697D03*
X09215Y0666528D03*
X0879Y0862D03*
X0958Y06715D03*
X0901Y054D03*
X11724Y0856D03*
X11667Y0855D03*
X08405Y05941D03*
X09594Y05686D03*
X08469Y05941D03*
X08715Y06097D03*
X12619Y06376D03*
X12539Y06535D03*
X12593Y06616D03*
Y06676D03*
Y06726D03*
X12592Y06781D03*
X12676Y06832D03*
X1269Y06885D03*
X13042Y06961D03*
X1294Y07099D03*
X12598Y0718D03*
X12386Y07115D03*
X12039Y07175D03*
X11995Y07438D03*
X12265Y07395D03*
X12389Y07457D03*
X12388Y07505D03*
X12387Y0756D03*
X12388Y07614D03*
X12389Y07661D03*
X123622Y0791339D03*
X10901Y09207D03*
X10378Y0921D03*
X09768Y09027D03*
X10076Y08896D03*
X10185Y08888D03*
X10422Y08139D03*
X09321Y08305D03*
X0909Y07916D03*
X09023Y07972D03*
X09009Y07901D03*
X08851Y08791D03*
X08715Y08733D03*
X09522Y08664D03*
X0926Y08792D03*
X07233Y06476D03*
X07247Y05946D03*
X06645Y05794D03*
X06646Y06032D03*
X06645Y06318D03*
X06644Y06555D03*
X06645Y06843D03*
Y07077D03*
Y07369D03*
X0664412Y0759783D03*
X08717Y07297D03*
X08622Y05978D03*
X08933Y0729D03*
X08734Y05827D03*
X08783Y0579D03*
X08656Y07295D03*
X08658Y05985D03*
X09885Y0657D03*
X084Y07318D03*
X07556Y06323D03*
X08582Y05817D03*
X08794Y07311D03*
X08976Y07291D03*
X08466Y07295D03*
X087657Y0582263D03*
X08822Y05792D03*
X08727Y05947D03*
X09855Y06515D03*
X09395Y0636726D03*
X09289Y06975D03*
X07875Y07075D03*
X09383Y06875D03*
X08692Y05985D03*
X0873525Y0599177D03*
X08911Y07432D03*
X08949Y07625D03*
X08636Y07278D03*
X084Y07287D03*
X088Y05978D03*
X0937Y0639D03*
X08441Y07286D03*
X09243Y06665D03*
X0954Y06445D03*
X08939Y0746D03*
X0761Y07125D03*
X08588Y05979D03*
X0937Y0634D03*
X0771Y0654D03*
X08616Y05817D03*
X09825Y06485D03*
X08885Y07435D03*
X07745Y0713D03*
X0882941Y0599141D03*
X07782Y06301D03*
X0939744Y0641526D03*
X08832Y07267D03*
X0957Y07947D03*
X09221Y08239D03*
X09243Y08297D03*
X08197Y06302D03*
X08196Y08204D03*
X08495Y08086D03*
X08493Y0632D03*
X0841Y08198D03*
X08581Y08292D03*
X08582Y08204D03*
X08516Y07467D03*
X09333Y07267D03*
X09489Y07345D03*
X0841935Y07625D03*
X06995Y0591D03*
X08437Y06441D03*
X06999Y06434D03*
X084Y06971D03*
X07Y0696D03*
X07011Y07485D03*
X08634Y0662D03*
X08657Y06644D03*
X08345Y05434D03*
X08369D03*
X0876532Y0598081D03*
X0897Y05398D03*
X08695Y054D03*
X08655Y05401D03*
X0846Y05402D03*
X08502Y05401D03*
X0957Y0759D03*
X07875Y08605D03*
X07745Y08665D03*
X09415Y0864D03*
X0754Y08625D03*
X0923Y086D03*
X07565D03*
X0953Y0881D03*
X0921D03*
X0871257Y0879001D03*
X0813Y08615D03*
X08075Y089D03*
X08074Y064156D03*
X0805Y0639D03*
Y08875D03*
X0802Y0884D03*
X08019Y063656D03*
X07285Y0926D03*
X07995Y0882D03*
Y0634D03*
X08225Y0851D03*
X0952Y08485D03*
X11265Y08515D03*
X12275Y07505D03*
X0867Y08665D03*
X08765Y0857D03*
X09562Y07037D03*
X0898354Y08755D03*
X0969D03*
X09005Y08835D03*
X0969Y0884D03*
X10245Y0878D03*
X08885Y06565D03*
X0891Y0654D03*
X09985Y06555D03*
X08265Y0651D03*
X10025Y0655D03*
X0871Y06595D03*
X1017Y06605D03*
X1014146Y0662756D03*
X10125Y06655D03*
X09715Y06679D03*
X12835Y06665D03*
X12415Y07185D03*
X1229957Y08203D03*
X1233Y08155D03*
X1074487Y0911987D03*
X0777Y0916D03*
X09495Y0909D03*
X09845Y08155D03*
X0982Y0818D03*
X0979Y08205D03*
X1243Y08195D03*
X1234491Y0833508D03*
X12435Y08295D03*
X09293Y08348D03*
X124Y08375D03*
X1243773Y084D03*
X1247Y0843D03*
X125Y0846D03*
X0946D03*
X0784Y08705D03*
X12285D03*
M02*