<svg id="Layer_1" data-name="Layer 1" xmlns="http://www.w3.org/2000/svg" viewBox="0 0 315.01 128.12"><defs><style>.cls-1{fill:#5f6062}</style></defs><path class="cls-1" d="M789.51 239.86c0-6.9 2.5-10.6 9.74-10.6h14.22c7.16 0 9.75 3.7 9.75 10.6v12.76c0 6.89-2.5 10.6-9.75 10.6h-14.22c-7.24 0-9.74-3.71-9.74-10.6zm22.24 15.61c2 0 3.45-.44 3.45-2.67v-13.11c0-2.24-1.46-2.67-3.45-2.67h-10.68c-2 0-3.45.43-3.45 2.67v13.11c0 2.23 1.46 2.67 3.45 2.67zM837 230.9a1.73 1.73 0 011.81-1.64h21.72c7.25 0 9.74 3.7 9.74 10.6 0 6.64-2.84 10.26-9.74 10.26H845v11.29a1.8 1.8 0 01-1.72 1.81h-4.57a1.8 1.8 0 01-1.72-1.81zm21.55 11.46c2.07 0 3.7-.34 3.7-2.67s-1.55-2.67-3.53-2.67H845v5.34zm23.14-11.46a1.74 1.74 0 011.81-1.64h27.25a1.73 1.73 0 011.81 1.64v4.39a1.81 1.81 0 01-1.81 1.73h-21v5.34h13.54a1.81 1.81 0 011.81 1.72v4.4a1.73 1.73 0 01-1.81 1.64h-13.58v5.35h20.95a1.81 1.81 0 011.82 1.72v4.39a1.74 1.74 0 01-1.82 1.64h-27.24a1.81 1.81 0 01-1.73-1.81zm44.08 0a1.73 1.73 0 011.8-1.64h22.17c7.24 0 9.74 3.7 9.74 10.6v21.55a1.82 1.82 0 01-1.81 1.81h-4.48a1.75 1.75 0 01-1.73-1.81v-21.72c0-2.24-1.55-2.67-3.45-2.67h-14.22v24.39a1.81 1.81 0 01-1.73 1.81h-4.57a1.8 1.8 0 01-1.72-1.81z" transform="translate(-644.47 -185.94)"/><path d="M106.25 65.03v-1.85l-1.62 1.75V60.8h-1.22v4.11l-1.6-1.73v1.85l2.22 2.4 2.22-2.4zM93.21 94.59l1.31-1.31-2.38.08 2.92-2.91-.87-.87-2.9 2.9.08-2.36-1.31 1.32-.12 3.27 3.27-.12zm-30.13 11.67h1.86l-1.75-1.62h4.13v-1.23h-4.11l1.73-1.6h-1.86l-2.39 2.23 2.39 2.22zM33.53 93.21l1.31 1.31-.09-2.38 2.92 2.92.86-.87-2.89-2.9 2.35.08-1.31-1.31-3.27-.12.12 3.27zM21.86 63.09v1.85l1.62-1.75v4.13h1.23v-4.1l1.6 1.72v-1.85l-2.23-2.4-2.22 2.4zm13.05-29.56l-1.32 1.31 2.39-.08-2.92 2.91.87.87 2.9-2.9-.09 2.36 1.31-1.32.12-3.27-3.26.12zm30.12-11.67h-1.85l1.75 1.63H60.8v1.22h4.1l-1.72 1.6h1.85l2.4-2.22-2.4-2.23zm29.56 13.05l-1.32-1.31.09 2.38-2.92-2.92-.86.87 2.9 2.9-2.36-.08 1.32 1.31 3.27.12-.12-3.27zm10.48 19.17l-.48-1.79-1.12 2.11-1.06-3.99-1.19.32 1.07 3.97-2-1.26.48 1.79 2.77 1.75 1.53-2.9zM100.12 86l.92-1.6-2.28.7 2.07-3.57-1.06-.61-2.06 3.55-.52-2.3-.93 1.61.73 3.19 3.13-.97zm-26.08 19.07l1.79-.47-2.11-1.12 3.99-1.07-.32-1.18-3.97 1.06 1.26-2-1.79.48-1.74 2.78 2.89 1.52zm-31.93-4.95l1.61.92-.7-2.27 3.57 2.06.61-1.06-3.55-2.05 2.3-.53-1.61-.93-3.19.73.96 3.13zM23.04 74.04l.48 1.79 1.12-2.11 1.06 3.99 1.19-.32-1.06-3.96 1.99 1.25-.48-1.79-2.77-1.74-1.53 2.89zM28 42.12l-.93 1.61 2.28-.71-2.06 3.58 1.06.6 2.05-3.54.53 2.29.92-1.61-.72-3.19-3.13.97zm26.08-19.07l-1.8.48 2.11 1.11-3.98 1.07.32 1.18 3.96-1.06-1.25 2 1.79-.48 1.74-2.77-2.89-1.53zM86 28l-1.61-.93.71 2.29-3.58-2.07-.6 1.06 3.54 2.06-2.29.52 1.6.93 3.19-.73L86 28zm15.09 15.8l-.93-1.6-.53 2.32-2.06-3.57-1.06.61 2.05 3.56-2.25-.69.92 1.6 3.13.97.73-3.2zm3.48 32.13l.48-1.8-2.02 1.27 1.06-3.98-1.18-.32-1.06 3.96-1.11-2.08-.47 1.8 1.53 2.88 2.77-1.73zm-20.26 25.16l1.61-.93-2.33-.52 3.58-2.07-.61-1.05L83 98.56l.69-2.25-1.6.93-.97 3.12 3.19.73zm-32.12 3.49l1.79.47-1.26-2.02 3.98 1.07.32-1.18-3.96-1.07 2.08-1.1-1.79-.48-2.9 1.53 1.74 2.78zM27.02 84.32l.93 1.6.53-2.32 2.06 3.57 1.07-.61-2.06-3.55 2.26.69-.93-1.61-3.13-.96-.73 3.19zM23.55 52.2l-.48 1.79 2.02-1.27-1.07 3.99 1.18.31 1.07-3.96 1.1 2.08.47-1.79-1.52-2.89-2.77 1.74zM43.8 27.03l-1.6.93 2.32.53-3.57 2.06.61 1.06 3.55-2.05-.69 2.26 1.61-.93.96-3.13-3.19-.73zm77.9 40.46h2.81l-2.65-2.46h6.25v-1.85h-6.22l2.62-2.44h-2.81l-3.64 3.37 3.64 3.38zm-19.31 39.75l1.99 1.99-.13-3.62 4.42 4.43 1.31-1.31-4.4-4.4 3.57.13-1.99-1.99-4.96-.18.19 4.95zm-41.76 14.45v2.82l2.46-2.65v6.26h1.85v-6.23l2.44 2.62v-2.82L64 118.06l-3.37 3.63zm-39.75-19.3l-1.99 1.99 3.61-.13-4.42 4.42 1.31 1.31 4.4-4.4-.13 3.57 1.99-1.98.18-4.97-4.95.19zM6.42 60.63H3.6l2.65 2.46H0v1.85h6.22L3.6 67.38h2.82L10.05 64l-3.63-3.37zm19.31-39.75l-1.99-1.99.13 3.61-4.42-4.42-1.31 1.31 4.4 4.4-3.58-.13 1.99 1.99 4.96.18-.18-4.95zM67.49 6.42V3.61l-2.46 2.65V0h-1.86v6.23l-2.43-2.62v2.81l3.38 3.63 3.37-3.63zm39.75 19.31l1.99-2-3.61.14 4.42-4.42-1.32-1.31-4.4 4.4.13-3.58-1.98 1.99-.18 4.96 4.95-.18zm13.38 26.72l2.72-.72-3.19-1.69 6.03-1.63-.48-1.78-6.01 1.61 1.9-3.03-2.71.73-2.64 4.2 4.38 2.31zm-8.36 43.4l2.44 1.41-1.06-3.46 5.41 3.13.92-1.61-5.38-3.11 3.48-.8-2.44-1.41-4.83 1.11 1.46 4.74zm-36.6 24.77l.73 2.72 1.69-3.19 1.62 6.04 1.79-.48-1.61-6.02 3.03 1.9-.72-2.71-4.21-2.64-2.32 4.38zm-43.39-8.36l-1.41 2.43 3.45-1.06-3.12 5.42 1.6.93 3.12-5.39.8 3.48 1.4-2.43-1.1-4.84-4.74 1.46zM7.49 75.66l-2.71.73 3.19 1.69-6.04 1.62.48 1.79 6.02-1.61-1.91 3.03 2.72-.72 2.64-4.21-4.39-2.32zm8.36-43.39l-2.43-1.41 1.06 3.45-5.41-3.12-.93 1.61 5.39 3.11-3.48.8 2.43 1.41 4.83-1.11-1.46-4.74zm36.6-24.78l-.73-2.71-1.69 3.19-1.61-6.04-1.8.49 1.61 6.01-3.03-1.9.73 2.71 4.2 2.64 2.32-4.39zm43.4 8.37l1.41-2.44-3.46 1.07 3.13-5.42-1.61-.93-3.11 5.39-.8-3.49L90 12.48l1.11 4.84 4.74-1.46zm19.84 22.35l2.44-1.41-3.52-.8 5.41-3.13-.93-1.61-5.39 3.12 1.05-3.42-2.44 1.4-1.45 4.74 4.83 1.11zm3.15 44.08l2.72.73-1.92-3.06 6.04 1.61.48-1.79-6.01-1.61 3.16-1.67-2.72-.73-4.38 2.32 2.63 4.2zm-28.93 33.4l1.4 2.44.81-3.53 3.13 5.42 1.6-.93-3.11-5.39 3.42 1.05-1.41-2.44-4.74-1.45-1.1 4.83zm-44.08 3.15l-.73 2.72 3.06-1.91-1.62 6.03 1.79.48 1.61-6.01 1.68 3.16.73-2.71-2.33-4.39-4.19 2.63zm-33.4-28.93l-2.44 1.41 3.52.81-5.41 3.12.92 1.6 5.39-3.11-1.05 3.41 2.44-1.39 1.46-4.75-4.83-1.1zM9.27 45.82l-2.72-.72 1.92 3.06-6.03-1.62-.48 1.8 6.01 1.61-3.17 1.67 2.72.73 4.38-2.32-2.63-4.21zm28.94-33.39L36.8 9.99l-.81 3.52-3.12-5.41-1.61.93 3.12 5.39-3.43-1.05 1.41 2.43 4.74 1.46 1.11-4.83zm44.08-3.16l.73-2.71-3.06 1.92 1.62-6.05-1.8-.47-1.61 6.01-1.68-3.16-.72 2.71 2.32 4.39 4.2-2.64zm13.15 48.92l-1.47.19 1.56 1.11-3.28.43.13.97 3.26-.43-1.21 1.45 1.48-.19 1.67-2.01-2.14-1.52zm14.23-1.23l.3 2.29 1.72-2.43.68 5.12 1.52-.2-.67-5.09 2.27 1.88-.3-2.3-3.16-2.61-2.36 3.34zM90.4 82.1l-1.18-.91.32 1.89-2.62-2.01-.6.78 2.61 2-1.88.18 1.18.9 2.61-.25-.44-2.58zm10.93 9.19l-1.41 1.83 2.94-.49-3.14 4.09 1.21.93 3.13-4.07.28 2.94 1.41-1.84-.39-4.07-4.03.68zm-31.4 4.16l-.2-1.48-1.1 1.56-.43-3.28-.97.13.43 3.26-1.46-1.2.2 1.47 2.01 1.66 1.52-2.12zm1.23 14.22l-2.3.3 2.44 1.72-5.12.68.2 1.51 5.09-.66-1.88 2.27 2.3-.31 2.61-3.14-3.34-2.37zM46.02 90.4l.9-1.18-1.88.33 2.01-2.62-.78-.6-2 2.61-.18-1.88-.9 1.17.25 2.61 2.58-.44zm-9.19 10.94l-1.84-1.42.5 2.94-4.09-3.14-.93 1.22 4.07 3.12-2.94.28 1.84 1.41 4.08-.38-.69-4.03zm-4.15-31.4l1.47-.2-1.56-1.1 3.27-.44-.13-.97-3.25.43 1.2-1.45-1.47.19-1.67 2.02 2.14 1.52zm-14.23 1.23l-.3-2.3-1.73 2.43-.68-5.11-1.51.2.67 5.08-2.27-1.88.3 2.3 3.15 2.62 2.37-3.34zm19.26-25.15l1.18.9-.32-1.87 2.62 2 .6-.78-2.61-2 1.88-.17-1.18-.9-2.6.24.43 2.58zm-10.93-9.19l1.42-1.84-2.95.51 3.14-4.1-1.21-.92-3.12 4.07-.28-2.95-1.41 1.85.38 4.07 4.03-.69zm31.4-4.15l.2 1.47 1.1-1.56.44 3.27.97-.12-.43-3.26 1.45 1.2-.19-1.47-2.02-1.66-1.52 2.13zm-1.23-14.23l2.3-.3-2.43-1.73 5.11-.67-.2-1.51-5.08.66 1.88-2.27-2.3.31-2.61 3.14 3.33 2.37zM82.1 37.72l-.91 1.18 1.88-.32-2 2.61.77.6 2.01-2.6.17 1.87.9-1.18-.24-2.6-2.58.44zm9.19-10.93l1.83 1.41-.5-2.94 4.1 3.14.92-1.21-4.07-3.13 2.95-.28-1.85-1.4-4.07.37.69 4.04zm1.56 23.48l-1.37.56 1.79.66-3.05 1.27.37.91 3.04-1.26-.79 1.72 1.37-.57 1.1-2.38-2.46-.91zm13.43-4.87l.88 2.14 1.04-2.8 1.97 4.76 1.41-.58-1.96-4.74 2.68 1.22-.88-2.14-3.72-1.7-1.42 3.84zM94.17 74.67l-1.37-.57.79 1.73-3.05-1.26-.37.91 3.04 1.25-1.77.66 1.37.57 2.46-.91-1.1-2.38zm12.94 6.04l-.89 2.14 2.71-1.24-1.97 4.77 1.41.58 1.96-4.74 1.03 2.76.89-2.13-1.42-3.84-3.72 1.7zM77.85 92.86l-.57-1.38-.66 1.79-1.26-3.05-.91.38 1.26 3.03-1.72-.78.57 1.37 2.38 1.09.91-2.45zm4.87 13.42l-2.14.88 2.8 1.04-4.77 1.97.58 1.42 4.75-1.97-1.23 2.69 2.14-.89 1.71-3.72-3.84-1.42zM53.45 94.17l.57-1.37-1.74.8 1.27-3.05-.91-.37-1.26 3.03-.65-1.77-.57 1.37.91 2.45 2.38-1.09zm-6.05 12.94l-2.13-.89 1.24 2.72-4.77-1.98-.58 1.42 4.74 1.96-2.77 1.02 2.14.89 3.84-1.42-1.71-3.72zM35.26 77.85l1.38-.57-1.79-.66 3.04-1.26-.37-.91-3.03 1.26.78-1.71-1.37.56-1.09 2.38 2.45.91zm-13.42 4.88l-.89-2.15-1.03 2.8-1.98-4.77-1.41.59 1.96 4.74-2.68-1.23.89 2.15 3.72 1.7 1.42-3.83zm12.1-29.28l1.38.57-.8-1.73 3.05 1.26.37-.91-3.03-1.25 1.77-.66-1.37-.57-2.45.91 1.08 2.38zm-12.93-6.04l.88-2.15-2.71 1.25 1.98-4.77-1.41-.58-1.97 4.74-1.03-2.76-.88 2.14 1.42 3.83 3.72-1.7zm29.25-12.15l.57 1.38.67-1.79 1.26 3.05.9-.38-1.25-3.03 1.71.78-.57-1.36-2.37-1.1-.92 2.45zm-4.87-13.41l2.14-.89-2.79-1.04 4.76-1.97-.58-1.41-4.74 1.96 1.22-2.69-2.14.89-1.71 3.72 3.84 1.43zm29.27 12.1l-.56 1.37 1.73-.8-1.26 3.05.9.38 1.26-3.04.66 1.77.56-1.37-.9-2.45-2.39 1.09zm6.05-12.94l2.14.89-1.24-2.71 4.76 1.97.59-1.41-4.74-1.96 2.76-1.04-2.14-.88-3.83 1.42 1.7 3.72zm7.59 22.27l-1.18.91 1.91.18-2.63 2.01.6.78 2.61-2.01-.32 1.86 1.18-.9.44-2.58-2.61-.25zM100 35.1l1.42 1.84.27-2.96 3.14 4.08 1.22-.92-3.13-4.07 2.91.48-1.41-1.83-4.03-.69-.39 4.07zm-4.11 31.41l-1.47-.19 1.22 1.47-3.28-.44-.13.98 3.26.43-1.53 1.09 1.47.19 2.13-1.51-1.67-2.02zM109.95 69l-.3 2.3 2.3-1.9-.68 5.11 1.52.2.67-5.09 1.71 2.41.3-2.3-2.37-3.34-3.15 2.61zM84.83 88.31l-.9-1.18-.18 1.9-2.01-2.62-.78.59 2.01 2.61-1.87-.31.91 1.17 2.58.44.24-2.6zm8.18 11.7l-1.83 1.41 2.96.28-4.09 3.14.93 1.21 4.07-3.12-.49 2.9 1.84-1.41.69-4.03-4.08-.38zm-31.4-4.12l.19-1.47-1.47 1.22.43-3.27-.97-.13-.43 3.26-1.09-1.54-.2 1.47 1.52 2.13 2.02-1.67zm-2.5 14.06l-2.29-.3 1.9 2.29-5.12-.66-.19 1.51 5.08.67-2.4 1.71 2.3.3 3.34-2.36-2.62-3.16zm-19.3-25.11l1.18-.91-1.9-.17 2.62-2.02-.6-.77-2.6 2 .31-1.86-1.17.9-.44 2.58 2.6.25zm-11.7 8.18l-1.41-1.84-.28 2.97-3.14-4.1-1.21.94 3.12 4.07-2.91-.5 1.42 1.84 4.03.69.38-4.07zm4.11-31.41l1.48.19-1.22-1.47 3.27.43.13-.96-3.26-.43 1.54-1.1-1.47-.19-2.13 1.51 1.66 2.02zm-14.05-2.49l.3-2.3-2.3 1.91.67-5.12-1.51-.2-.67 5.09-1.72-2.41-.29 2.3 2.36 3.34 3.16-2.61zm25.11-19.3l.91 1.17.17-1.9 2.01 2.62.78-.6-2-2.6 1.86.31-.9-1.17-2.58-.44-.25 2.61zM35.1 28.11l1.84-1.4-2.97-.28 4.09-3.14-.93-1.21-4.07 3.11.49-2.91-1.83 1.42-.7 4.03 4.08.38zm31.41 4.12l-.2 1.47 1.47-1.22-.43 3.27.98.13.42-3.25 1.1 1.53.19-1.47-1.51-2.13-2.02 1.67zM69 18.17l2.3.3-1.9-2.29 5.11.66.19-1.51-5.08-.67 2.4-1.71-2.29-.3-3.34 2.37L69 18.17zm6.92 5.38l-1.79-.48 1.27 2.02-3.99-1.07-.31 1.19 3.96 1.06-2.09 1.11 1.8.48 2.89-1.54-1.74-2.77z" fill="#8dc141"/><path class="cls-1" d="M795.53 288.14c-4 0-6-2.56-6-7.43 0-5.14 2.39-7.38 6.11-7.38a7.42 7.42 0 013.37.72 5 5 0 01-.36 1.11 6.11 6.11 0 00-3-.75c-3.22 0-4.78 1.69-4.78 6.39 0 4.21 1.41 6.26 4.7 6.26a6.18 6.18 0 003.4-.94 6.57 6.57 0 01.36 1.11 7.43 7.43 0 01-3.8.91zm10.57 0c-2.73 0-4.48-1.64-4.48-5.78 0-3.76 1.86-5.79 4.57-5.79s4.53 1.52 4.53 5.79c0 4.01-1.99 5.78-4.62 5.78zm.09-10.52c-1.84 0-3.35.89-3.35 4.74 0 3.69 1.26 4.74 3.28 4.74s3.38-1 3.38-4.74-1.33-4.74-3.31-4.74zm20.91 10.31v-8.13a1.93 1.93 0 00-2.14-2.14 4.27 4.27 0 00-3 1.17v9.1h-1.13v-8.13a2 2 0 00-2.2-2.14 4.54 4.54 0 00-2.93 1.13v9.14h-1.13v-11.08a5.85 5.85 0 011.13-.11v1.09h.07a4.12 4.12 0 013-1.26 2.78 2.78 0 012.73 1.56 5.17 5.17 0 013.61-1.56c1.65 0 3.1.73 3.1 3.31v8.05zm9.2.21a6.31 6.31 0 01-2.35-.47v4.66h-1.13v-15.48a5.93 5.93 0 011.13-.11v1h.05a4.91 4.91 0 013.31-1.17c2.24 0 3.88 1.47 3.88 5.45.02 4.35-1.81 6.12-4.89 6.12zm.75-10.5a5.27 5.27 0 00-3.1 1.07v7.88a6.08 6.08 0 002.44.51c2.37 0 3.61-1.28 3.61-4.91s-1.13-4.55-2.95-4.55zm14.52 10.29v-1h-.06a6.11 6.11 0 01-3.55 1.17c-1.64 0-3-.72-3-3.28v-8a6.12 6.12 0 011.14-.11v8.18c0 1.26.55 2.14 2 2.14a6.08 6.08 0 003.44-1.07v-9.14a6 6 0 011.14-.11v11.19zm8.99.21c-2 0-2.73-1.06-2.73-3.28v-7.12h-1.39v-1h1.39v-2.47a3.91 3.91 0 011.13-.22v2.69h2.76a7.28 7.28 0 01-.09 1H859V285c0 1.58.39 2.1 1.56 2.1a4.4 4.4 0 001.65-.35 3.75 3.75 0 01.19 1.07 4.32 4.32 0 01-1.84.32zm12.05-5.83h-6.92v.13c0 3.08.88 4.64 3.65 4.64a5.26 5.26 0 002.71-.73 4.88 4.88 0 01.37 1 6.24 6.24 0 01-3.14.76c-3.16 0-4.78-1.79-4.78-5.63 0-4.3 1.9-5.94 4.31-5.94s3.84 1.41 3.84 4.19c0 .5-.02 1.07-.04 1.58zm-6.9-.89h5.81v-.73c0-2.28-1.09-3.16-2.77-3.16s-2.93 1.11-3.04 3.89zm18.52.66h-2.31v5.85h-1.19v-14.24a23.13 23.13 0 013.59-.3c2.47 0 4.76 1.13 4.76 4.31 0 3.01-2.31 4.38-4.85 4.38zm.11-7.69c-.52 0-1.39.07-2.42.17v6.49H884c2.25 0 3.85-.89 3.85-3.35s-1.68-3.31-3.51-3.31zm13.22 3.46a3.78 3.78 0 00-.94-.11c-.75 0-1.56.11-2.78 1.54v8.65h-1.13v-11.08a5.78 5.78 0 011.13-.11v1.41h.06c1.35-1.45 2.18-1.58 2.87-1.58a3.15 3.15 0 01.91.11 8 8 0 01-.12 1.17zm6.75 10.29c-2.74 0-4.49-1.64-4.49-5.78 0-3.76 1.86-5.79 4.57-5.79s4.53 1.52 4.53 5.79c0 4.01-1.99 5.78-4.61 5.78zm.08-10.52c-1.84 0-3.35.89-3.35 4.74 0 3.69 1.26 4.74 3.29 4.74s3.37-1 3.37-4.74-1.32-4.74-3.31-4.74zm6.41 14.92a3.79 3.79 0 01-.19-1.09c1.6-.12 2.15-1 2.15-2.45v-12.22h1.13V289a3.23 3.23 0 01-3.09 3.54zm2.52-18.21a.71.71 0 01-.73-.79.74.74 0 111.48 0 .71.71 0 01-.75.79zm12.51 7.98h-6.92v.13c0 3.08.88 4.64 3.66 4.64a5.32 5.32 0 002.71-.73 4.35 4.35 0 01.36 1 6.24 6.24 0 01-3.14.76c-3.16 0-4.78-1.79-4.78-5.63 0-4.3 1.9-5.94 4.31-5.94s3.85 1.41 3.85 4.19c0 .5-.03 1.07-.05 1.58zm-6.89-.89h5.8a6.11 6.11 0 000-.73c0-2.28-1.09-3.16-2.78-3.16s-2.96 1.11-3.02 3.89zm14.54 6.72c-3.2 0-4.74-1.92-4.74-5.59 0-4.31 2-6 4.5-6a8.3 8.3 0 012.82.49 3.86 3.86 0 01-.23 1.09 6.46 6.46 0 00-2.56-.51c-2 0-3.31 1.09-3.31 4.48 0 3.87 1.17 5 3.5 5a5.09 5.09 0 002.65-.69 4.26 4.26 0 01.29 1.05 6.2 6.2 0 01-2.92.68zm9.52 0c-2.05 0-2.73-1.06-2.73-3.28v-7.12h-1.39v-1h1.39v-2.47a3.78 3.78 0 011.13-.22v2.69h2.76a7.28 7.28 0 01-.09 1h-2.67V285c0 1.58.39 2.1 1.56 2.1a4.31 4.31 0 001.64-.35 3.44 3.44 0 01.2 1.07 4.32 4.32 0 01-1.8.32zm7.46-10.26a4.24 4.24 0 01.37-1.78 4.42 4.42 0 011-1.42 4.46 4.46 0 013.17-1.29 4.53 4.53 0 014.15 2.68 4.33 4.33 0 01.36 1.76 4.4 4.4 0 01-.36 1.79 4.45 4.45 0 01-1 1.42 4.53 4.53 0 01-1.43.95 4.65 4.65 0 01-1.74.34 4.57 4.57 0 01-1.74-.34 4.45 4.45 0 01-2.4-2.35 4.11 4.11 0 01-.38-1.76zm.73 0a3.72 3.72 0 00.29 1.5 3.85 3.85 0 00.81 1.2 4.09 4.09 0 001.2.81 3.92 3.92 0 003 0 3.71 3.71 0 001.2-.82 3.58 3.58 0 00.81-1.21 3.87 3.87 0 00.3-1.53 3.79 3.79 0 00-.3-1.5 3.74 3.74 0 00-2-2 3.65 3.65 0 00-1.5-.33 3.83 3.83 0 00-1.48.29 4.09 4.09 0 00-1.2.81 3.78 3.78 0 00-.81 1.21 3.86 3.86 0 00-.32 1.57zm2.11-2.58h1.9a2.24 2.24 0 011.38.35 1.37 1.37 0 01.45 1.14 1.25 1.25 0 01-.4 1 1.76 1.76 0 01-1 .39l1.49 2.28h-.78l-1.34-2.2h-1v2.22h-.72zm.72 2.31h1.41a1.49 1.49 0 00.45-.1.71.71 0 00.31-.26.81.81 0 00.11-.48.77.77 0 00-.1-.42.72.72 0 00-.27-.25 1.12 1.12 0 00-.38-.11H954z" transform="translate(-644.47 -185.94)"/></svg>