G04*
G04 #@! TF.GenerationSoftware,Altium Limited,Altium Designer,23.6.0 (18)*
G04*
G04 Layer_Physical_Order=3*
G04 Layer_Color=16440176*
%FSLAX44Y44*%
%MOMM*%
G71*
G04*
G04 #@! TF.SameCoordinates,AD488519-FD06-4120-8DA1-5AB69FE218D1*
G04*
G04*
G04 #@! TF.FilePolarity,Positive*
G04*
G01*
G75*
%ADD147C,1.5240*%
%ADD148C,0.4000*%
%ADD149C,0.5000*%
%ADD150C,2.3749*%
%ADD151C,0.9906*%
%ADD152O,1.1000X2.2000*%
%ADD153O,1.3000X2.6000*%
%ADD154O,1.8000X3.3000*%
%ADD155O,3.8000X2.0000*%
%ADD156C,0.9000*%
%ADD157C,0.3500*%
%ADD158C,0.3500*%
%ADD159C,0.3000*%
%ADD160C,5.0800*%
G36*
X542000Y1135000D02*
X640620D01*
Y100063D01*
X640711Y99844D01*
X640247Y90393D01*
X638826Y80816D01*
X636474Y71424D01*
X633212Y62309D01*
X629072Y53556D01*
X624095Y45252D01*
X618327Y37475D01*
X611825Y30301D01*
X604652Y23800D01*
X596875Y18032D01*
X588571Y13055D01*
X579818Y8915D01*
X570703Y5653D01*
X561311Y3301D01*
X551734Y1880D01*
X542283Y1416D01*
X542063Y1507D01*
X100063D01*
X99844Y1416D01*
X90393Y1880D01*
X80816Y3301D01*
X71424Y5653D01*
X62309Y8915D01*
X53556Y13055D01*
X45252Y18032D01*
X37475Y23800D01*
X30301Y30301D01*
X23800Y37475D01*
X18032Y45252D01*
X13055Y53556D01*
X8915Y62309D01*
X5653Y71424D01*
X3301Y80816D01*
X1880Y90393D01*
X1416Y99844D01*
X1507Y100063D01*
Y1215000D01*
X180000D01*
Y1313620D01*
X542000D01*
Y1135000D01*
D02*
G37*
%LPC*%
G36*
X415601Y1288470D02*
X414399D01*
X413289Y1288010D01*
X412440Y1287161D01*
X411980Y1286051D01*
Y1284849D01*
X412440Y1283739D01*
X413289Y1282890D01*
X414399Y1282430D01*
X415601D01*
X416711Y1282890D01*
X417560Y1283739D01*
X418020Y1284849D01*
Y1286051D01*
X417560Y1287161D01*
X416711Y1288010D01*
X415601Y1288470D01*
D02*
G37*
G36*
X317715Y1253114D02*
X316514D01*
X315404Y1252654D01*
X314554Y1251805D01*
X314095Y1250695D01*
Y1249493D01*
X314554Y1248383D01*
X315404Y1247534D01*
X316514Y1247074D01*
X317715D01*
X318825Y1247534D01*
X319675Y1248383D01*
X320135Y1249493D01*
Y1250695D01*
X319675Y1251805D01*
X318825Y1252654D01*
X317715Y1253114D01*
D02*
G37*
G36*
X516601Y1251020D02*
X515399D01*
X514289Y1250560D01*
X513440Y1249711D01*
X512980Y1248601D01*
Y1247399D01*
X513440Y1246289D01*
X514289Y1245440D01*
X515399Y1244980D01*
X516601D01*
X517711Y1245440D01*
X518560Y1246289D01*
X519020Y1247399D01*
Y1248601D01*
X518560Y1249711D01*
X517711Y1250560D01*
X516601Y1251020D01*
D02*
G37*
G36*
X504601Y1242520D02*
X503399D01*
X502289Y1242060D01*
X501440Y1241211D01*
X500980Y1240101D01*
X500978Y1240100D01*
X499710Y1239849D01*
X499560Y1240211D01*
X498711Y1241060D01*
X497601Y1241520D01*
X496399D01*
X495289Y1241060D01*
X494440Y1240211D01*
X493980Y1239101D01*
Y1237899D01*
X494440Y1236789D01*
X495289Y1235940D01*
X496399Y1235480D01*
X497601D01*
X498711Y1235940D01*
X499560Y1236789D01*
X500020Y1237899D01*
X500022Y1237900D01*
X501290Y1238151D01*
X501440Y1237789D01*
X502289Y1236940D01*
X503399Y1236480D01*
X504601D01*
X505711Y1236940D01*
X506560Y1237789D01*
X507020Y1238899D01*
Y1240101D01*
X506560Y1241211D01*
X505711Y1242060D01*
X504601Y1242520D01*
D02*
G37*
G36*
X415801Y1234670D02*
X414599D01*
X413489Y1234210D01*
X412640Y1233361D01*
X412180Y1232251D01*
Y1231049D01*
X412640Y1229939D01*
X413489Y1229090D01*
X414599Y1228630D01*
X415801D01*
X416911Y1229090D01*
X417760Y1229939D01*
X418220Y1231049D01*
Y1232251D01*
X417760Y1233361D01*
X416911Y1234210D01*
X415801Y1234670D01*
D02*
G37*
G36*
X237101Y1220020D02*
X235899D01*
X234789Y1219560D01*
X233940Y1218711D01*
X233480Y1217601D01*
Y1216399D01*
X233940Y1215289D01*
X234789Y1214440D01*
X235899Y1213980D01*
X237101D01*
X238211Y1214440D01*
X239060Y1215289D01*
X239520Y1216399D01*
Y1217601D01*
X239060Y1218711D01*
X238211Y1219560D01*
X237101Y1220020D01*
D02*
G37*
G36*
X241101Y1212020D02*
X239899D01*
X238789Y1211560D01*
X237940Y1210711D01*
X237480Y1209601D01*
Y1208399D01*
X237940Y1207289D01*
X238789Y1206440D01*
X239899Y1205980D01*
X241101D01*
X242211Y1206440D01*
X243060Y1207289D01*
X243520Y1208399D01*
Y1209601D01*
X243060Y1210711D01*
X242211Y1211560D01*
X241101Y1212020D01*
D02*
G37*
G36*
X214101Y1211020D02*
X212899D01*
X211789Y1210560D01*
X210940Y1209711D01*
X210480Y1208601D01*
Y1207399D01*
X210940Y1206289D01*
X211789Y1205440D01*
X212899Y1204980D01*
X214101D01*
X215211Y1205440D01*
X216060Y1206289D01*
X216520Y1207399D01*
Y1208601D01*
X216060Y1209711D01*
X215211Y1210560D01*
X214101Y1211020D01*
D02*
G37*
G36*
X310601Y1199020D02*
X309399D01*
X308289Y1198560D01*
X307440Y1197711D01*
X306980Y1196601D01*
Y1195399D01*
X307440Y1194289D01*
X308289Y1193440D01*
X309399Y1192980D01*
X310601D01*
X311711Y1193440D01*
X312560Y1194289D01*
X313020Y1195399D01*
Y1196601D01*
X312560Y1197711D01*
X311711Y1198560D01*
X310601Y1199020D01*
D02*
G37*
G36*
X86101Y1196020D02*
X84899D01*
X83789Y1195560D01*
X82940Y1194711D01*
X82480Y1193601D01*
Y1192399D01*
X82940Y1191289D01*
X83789Y1190440D01*
X84899Y1189980D01*
X86101D01*
X87211Y1190440D01*
X88060Y1191289D01*
X88520Y1192399D01*
Y1193601D01*
X88060Y1194711D01*
X87211Y1195560D01*
X86101Y1196020D01*
D02*
G37*
G36*
X77101Y1188520D02*
X75899D01*
X74789Y1188060D01*
X73940Y1187211D01*
X73480Y1186101D01*
Y1184899D01*
X73940Y1183789D01*
X74789Y1182940D01*
X75899Y1182480D01*
X77101D01*
X78211Y1182940D01*
X79060Y1183789D01*
X79520Y1184899D01*
Y1186101D01*
X79060Y1187211D01*
X78211Y1188060D01*
X77101Y1188520D01*
D02*
G37*
G36*
X323601Y1187020D02*
X322399D01*
X321289Y1186560D01*
X320440Y1185711D01*
X319980Y1184601D01*
Y1183399D01*
X320440Y1182289D01*
X321289Y1181440D01*
X322399Y1180980D01*
X323601D01*
X324711Y1181440D01*
X325560Y1182289D01*
X326020Y1183399D01*
Y1184601D01*
X325560Y1185711D01*
X324711Y1186560D01*
X323601Y1187020D01*
D02*
G37*
G36*
X84887Y1160306D02*
X83685D01*
X82575Y1159846D01*
X81726Y1158997D01*
X81266Y1157887D01*
Y1156685D01*
X81726Y1155575D01*
X82575Y1154726D01*
X83685Y1154266D01*
X84887D01*
X85997Y1154726D01*
X86846Y1155575D01*
X87306Y1156685D01*
Y1157887D01*
X86846Y1158997D01*
X85997Y1159846D01*
X84887Y1160306D01*
D02*
G37*
G36*
X251301Y1151820D02*
X250099D01*
X248989Y1151360D01*
X248140Y1150511D01*
X247680Y1149401D01*
Y1148199D01*
X248140Y1147089D01*
X248989Y1146240D01*
X250099Y1145780D01*
X251301D01*
X252411Y1146240D01*
X253260Y1147089D01*
X253720Y1148199D01*
Y1149401D01*
X253260Y1150511D01*
X252411Y1151360D01*
X251301Y1151820D01*
D02*
G37*
G36*
X241601Y1151020D02*
X240399D01*
X239289Y1150560D01*
X238440Y1149711D01*
X237980Y1148601D01*
Y1147399D01*
X238440Y1146289D01*
X239289Y1145440D01*
X240399Y1144980D01*
X241601D01*
X242711Y1145440D01*
X243560Y1146289D01*
X244020Y1147399D01*
Y1148601D01*
X243560Y1149711D01*
X242711Y1150560D01*
X241601Y1151020D01*
D02*
G37*
G36*
X84601Y1141520D02*
X83399D01*
X82289Y1141060D01*
X81440Y1140211D01*
X80980Y1139101D01*
Y1137899D01*
X81440Y1136789D01*
X82289Y1135940D01*
X83399Y1135480D01*
X84601D01*
X85711Y1135940D01*
X86560Y1136789D01*
X87020Y1137899D01*
Y1139101D01*
X86560Y1140211D01*
X85711Y1141060D01*
X84601Y1141520D01*
D02*
G37*
G36*
X433101Y1128020D02*
X431899D01*
X430789Y1127560D01*
X430000Y1126771D01*
X429211Y1127560D01*
X428101Y1128020D01*
X426899D01*
X425789Y1127560D01*
X425000Y1126771D01*
X424211Y1127560D01*
X423101Y1128020D01*
X421899D01*
X420789Y1127560D01*
X419940Y1126711D01*
X419480Y1125601D01*
Y1124399D01*
X419940Y1123289D01*
X420149Y1123080D01*
X420670Y1122250D01*
X420149Y1121420D01*
X419940Y1121211D01*
X419480Y1120101D01*
Y1118899D01*
X419940Y1117789D01*
X420789Y1116940D01*
X421899Y1116480D01*
X423101D01*
X424211Y1116940D01*
X425000Y1117729D01*
X425789Y1116940D01*
X426899Y1116480D01*
X428101D01*
X429211Y1116940D01*
X430000Y1117729D01*
X430789Y1116940D01*
X431899Y1116480D01*
X433101D01*
X434211Y1116940D01*
X435060Y1117789D01*
X435520Y1118899D01*
Y1120101D01*
X435060Y1121211D01*
X434851Y1121420D01*
X434330Y1122250D01*
X434851Y1123080D01*
X435060Y1123289D01*
X435520Y1124399D01*
Y1125601D01*
X435060Y1126711D01*
X434211Y1127560D01*
X433101Y1128020D01*
D02*
G37*
G36*
X318401D02*
X317199D01*
X316089Y1127560D01*
X315240Y1126711D01*
X314780Y1125601D01*
Y1124399D01*
X315240Y1123289D01*
X316089Y1122440D01*
X317199Y1121980D01*
X318401D01*
X319511Y1122440D01*
X320360Y1123289D01*
X320820Y1124399D01*
Y1125601D01*
X320360Y1126711D01*
X319511Y1127560D01*
X318401Y1128020D01*
D02*
G37*
G36*
X38601Y1121520D02*
X37399D01*
X36289Y1121060D01*
X35440Y1120211D01*
X34980Y1119101D01*
Y1117899D01*
X35440Y1116789D01*
X36289Y1115940D01*
X37399Y1115480D01*
X38601D01*
X39711Y1115940D01*
X40560Y1116789D01*
X41020Y1117899D01*
Y1119101D01*
X40560Y1120211D01*
X39711Y1121060D01*
X38601Y1121520D01*
D02*
G37*
G36*
X84101Y1115555D02*
X82899D01*
X81789Y1115095D01*
X80940Y1114246D01*
X80480Y1113136D01*
Y1111934D01*
X80940Y1110824D01*
X81789Y1109975D01*
X82899Y1109515D01*
X84101D01*
X85211Y1109975D01*
X86060Y1110824D01*
X86520Y1111934D01*
Y1113136D01*
X86060Y1114246D01*
X85211Y1115095D01*
X84101Y1115555D01*
D02*
G37*
G36*
X235601Y1111520D02*
X234399D01*
X233289Y1111060D01*
X232440Y1110211D01*
X231980Y1109101D01*
Y1107899D01*
X232440Y1106789D01*
X233289Y1105940D01*
X234399Y1105480D01*
X235601D01*
X236711Y1105940D01*
X237560Y1106789D01*
X238020Y1107899D01*
Y1109101D01*
X237560Y1110211D01*
X236711Y1111060D01*
X235601Y1111520D01*
D02*
G37*
G36*
X221601Y1110020D02*
X220399D01*
X219289Y1109560D01*
X218440Y1108711D01*
X217980Y1107601D01*
Y1106399D01*
X218440Y1105289D01*
X219289Y1104440D01*
X220399Y1103980D01*
X221601D01*
X222711Y1104440D01*
X223560Y1105289D01*
X224020Y1106399D01*
Y1107601D01*
X223560Y1108711D01*
X222711Y1109560D01*
X221601Y1110020D01*
D02*
G37*
G36*
X243101Y1107520D02*
X241899D01*
X240789Y1107060D01*
X239940Y1106211D01*
X239480Y1105101D01*
Y1103899D01*
X239940Y1102789D01*
X240789Y1101940D01*
X241899Y1101480D01*
X243101D01*
X244211Y1101940D01*
X245060Y1102789D01*
X245520Y1103899D01*
Y1105101D01*
X245060Y1106211D01*
X244211Y1107060D01*
X243101Y1107520D01*
D02*
G37*
G36*
X93601Y1105520D02*
X92399D01*
X91289Y1105060D01*
X90440Y1104211D01*
X89980Y1103101D01*
Y1101899D01*
X90440Y1100789D01*
X91289Y1099940D01*
X92399Y1099480D01*
X93601D01*
X94711Y1099940D01*
X95560Y1100789D01*
X96020Y1101899D01*
Y1103101D01*
X95560Y1104211D01*
X94711Y1105060D01*
X93601Y1105520D01*
D02*
G37*
G36*
X432601Y1103020D02*
X431399D01*
X430289Y1102560D01*
X429440Y1101711D01*
X428980Y1100601D01*
Y1099399D01*
X429440Y1098289D01*
X430289Y1097440D01*
X431399Y1096980D01*
X432601D01*
X433711Y1097440D01*
X434560Y1098289D01*
X435020Y1099399D01*
Y1100601D01*
X434560Y1101711D01*
X433711Y1102560D01*
X432601Y1103020D01*
D02*
G37*
G36*
X429953Y1094354D02*
X428751D01*
X427641Y1093895D01*
X426792Y1093045D01*
X426332Y1091935D01*
Y1090734D01*
X426792Y1089624D01*
X427641Y1088774D01*
X428751Y1088314D01*
X429953D01*
X431063Y1088774D01*
X431912Y1089624D01*
X432372Y1090734D01*
Y1091935D01*
X431912Y1093045D01*
X431063Y1093895D01*
X429953Y1094354D01*
D02*
G37*
G36*
X462601Y1090734D02*
X461399D01*
X460289Y1090274D01*
X459440Y1089425D01*
X458980Y1088315D01*
Y1087113D01*
X459440Y1086003D01*
X460289Y1085154D01*
X461399Y1084694D01*
X461804D01*
X462140Y1084188D01*
X462442Y1083424D01*
X462061Y1082505D01*
Y1081304D01*
X462521Y1080194D01*
X463370Y1079344D01*
X464480Y1078884D01*
X465682D01*
X466792Y1079344D01*
X467641Y1080194D01*
X468101Y1081304D01*
Y1082505D01*
X467641Y1083615D01*
X466792Y1084465D01*
X465682Y1084924D01*
X465277D01*
X464941Y1085431D01*
X464639Y1086194D01*
X465020Y1087113D01*
Y1088315D01*
X464560Y1089425D01*
X463711Y1090274D01*
X462601Y1090734D01*
D02*
G37*
G36*
X75141Y1078520D02*
X73939D01*
X72829Y1078060D01*
X71980Y1077211D01*
X71693Y1076519D01*
X70347D01*
X70060Y1077211D01*
X69211Y1078060D01*
X68101Y1078520D01*
X66899D01*
X65789Y1078060D01*
X64940Y1077211D01*
X64480Y1076101D01*
Y1074899D01*
X64940Y1073789D01*
X65789Y1072940D01*
X66899Y1072480D01*
X68101D01*
X69211Y1072940D01*
X70060Y1073789D01*
X70347Y1074481D01*
X71693D01*
X71980Y1073789D01*
X72829Y1072940D01*
X73939Y1072480D01*
X75141D01*
X76251Y1072940D01*
X77100Y1073789D01*
X77560Y1074899D01*
Y1076101D01*
X77100Y1077211D01*
X76251Y1078060D01*
X75141Y1078520D01*
D02*
G37*
G36*
X93601D02*
X92399D01*
X91289Y1078060D01*
X90440Y1077211D01*
X90093Y1076372D01*
X89754Y1076025D01*
X88710Y1075675D01*
X88101Y1075928D01*
X86899D01*
X85789Y1075468D01*
X85292Y1074970D01*
X84399Y1074794D01*
X83728Y1075012D01*
X83172Y1075569D01*
X82062Y1076029D01*
X80860D01*
X79750Y1075569D01*
X78901Y1074720D01*
X78441Y1073610D01*
Y1072408D01*
X78901Y1071298D01*
X79750Y1070449D01*
X80860Y1069989D01*
X82062D01*
X83172Y1070449D01*
X83669Y1070946D01*
X84562Y1071122D01*
X85232Y1070904D01*
X85789Y1070347D01*
X86899Y1069887D01*
X88101D01*
X89211Y1070347D01*
X90060Y1071197D01*
X90407Y1072035D01*
X90746Y1072383D01*
X91790Y1072732D01*
X92399Y1072480D01*
X93601D01*
X94711Y1072940D01*
X95560Y1073789D01*
X96020Y1074899D01*
Y1076101D01*
X95560Y1077211D01*
X94711Y1078060D01*
X93601Y1078520D01*
D02*
G37*
G36*
X105165Y1081584D02*
X103963D01*
X102853Y1081124D01*
X102004Y1080275D01*
X101544Y1079165D01*
Y1077963D01*
X102004Y1076853D01*
X102853Y1076004D01*
X103963Y1075544D01*
X105165D01*
X106275Y1076004D01*
X107124Y1076853D01*
X107584Y1077963D01*
Y1079165D01*
X107124Y1080275D01*
X106275Y1081124D01*
X105165Y1081584D01*
D02*
G37*
G36*
X563101Y1079520D02*
X561899D01*
X560789Y1079060D01*
X559940Y1078211D01*
X559480Y1077101D01*
Y1075899D01*
X559940Y1074789D01*
X560789Y1073940D01*
X561899Y1073480D01*
X563101D01*
X564211Y1073940D01*
X565060Y1074789D01*
X565520Y1075899D01*
Y1077101D01*
X565060Y1078211D01*
X564211Y1079060D01*
X563101Y1079520D01*
D02*
G37*
G36*
X174601Y1078520D02*
X173399D01*
X172289Y1078060D01*
X171440Y1077211D01*
X170980Y1076101D01*
Y1074899D01*
X171440Y1073789D01*
X172289Y1072940D01*
X173399Y1072480D01*
X174601D01*
X175711Y1072940D01*
X176560Y1073789D01*
X177020Y1074899D01*
Y1076101D01*
X176560Y1077211D01*
X175711Y1078060D01*
X174601Y1078520D01*
D02*
G37*
G36*
X318601Y1075020D02*
X317399D01*
X316289Y1074560D01*
X315440Y1073711D01*
X314980Y1072601D01*
Y1071399D01*
X315440Y1070289D01*
X316289Y1069440D01*
X317399Y1068980D01*
X318601D01*
X319711Y1069440D01*
X320560Y1070289D01*
X321020Y1071399D01*
Y1072601D01*
X320560Y1073711D01*
X319711Y1074560D01*
X318601Y1075020D01*
D02*
G37*
G36*
X468601Y1074493D02*
X467399D01*
X466289Y1074033D01*
X465440Y1073184D01*
X464980Y1072074D01*
Y1070872D01*
X465440Y1069762D01*
X466289Y1068913D01*
X467399Y1068453D01*
X468601D01*
X469711Y1068913D01*
X470560Y1069762D01*
X471020Y1070872D01*
Y1072074D01*
X470560Y1073184D01*
X469711Y1074033D01*
X468601Y1074493D01*
D02*
G37*
G36*
X418253Y1070367D02*
X417052D01*
X415942Y1069908D01*
X415092Y1069058D01*
X414633Y1067948D01*
Y1066747D01*
X415092Y1065637D01*
X415942Y1064787D01*
X417052Y1064327D01*
X418253D01*
X419363Y1064787D01*
X420213Y1065637D01*
X420673Y1066747D01*
Y1067948D01*
X420213Y1069058D01*
X419363Y1069908D01*
X418253Y1070367D01*
D02*
G37*
G36*
X558601Y1067520D02*
X557399D01*
X556289Y1067060D01*
X555440Y1066211D01*
X554980Y1065101D01*
Y1063899D01*
X555440Y1062789D01*
X556289Y1061940D01*
X557399Y1061480D01*
X558601D01*
X559711Y1061940D01*
X560560Y1062789D01*
X561020Y1063899D01*
Y1065101D01*
X560560Y1066211D01*
X559711Y1067060D01*
X558601Y1067520D01*
D02*
G37*
G36*
X430101Y1063020D02*
X428899D01*
X427789Y1062560D01*
X426940Y1061711D01*
X426769Y1061298D01*
X425307Y1060964D01*
X425211Y1061060D01*
X424101Y1061520D01*
X422899D01*
X421789Y1061060D01*
X420940Y1060211D01*
X420480Y1059101D01*
Y1057899D01*
X420940Y1056789D01*
X421789Y1055940D01*
X422899Y1055480D01*
X424101D01*
X425211Y1055940D01*
X426060Y1056789D01*
X426231Y1057202D01*
X427693Y1057536D01*
X427789Y1057440D01*
X428899Y1056980D01*
X430101D01*
X431211Y1057440D01*
X432060Y1058289D01*
X432520Y1059399D01*
Y1060601D01*
X432060Y1061711D01*
X431211Y1062560D01*
X430101Y1063020D01*
D02*
G37*
G36*
X540601Y1063020D02*
X539399D01*
X538289Y1062560D01*
X537440Y1061711D01*
X536980Y1060601D01*
Y1059399D01*
X537440Y1058289D01*
X538289Y1057440D01*
X539399Y1056980D01*
X540601D01*
X541711Y1057440D01*
X542560Y1058289D01*
X543020Y1059399D01*
Y1060601D01*
X542560Y1061711D01*
X541711Y1062560D01*
X540601Y1063020D01*
D02*
G37*
G36*
X513601Y1062020D02*
X512399D01*
X511289Y1061560D01*
X510440Y1060711D01*
X509980Y1059601D01*
Y1058399D01*
X510440Y1057289D01*
X511289Y1056440D01*
X512399Y1055980D01*
X513601D01*
X514711Y1056440D01*
X515560Y1057289D01*
X516020Y1058399D01*
Y1059601D01*
X515560Y1060711D01*
X514711Y1061560D01*
X513601Y1062020D01*
D02*
G37*
G36*
X97182Y1060832D02*
X95981D01*
X94871Y1060373D01*
X94021Y1059523D01*
X93561Y1058413D01*
Y1057212D01*
X94021Y1056102D01*
X94871Y1055252D01*
X95981Y1054792D01*
X97182D01*
X98292Y1055252D01*
X99142Y1056102D01*
X99601Y1057212D01*
Y1058413D01*
X99142Y1059523D01*
X98292Y1060373D01*
X97182Y1060832D01*
D02*
G37*
G36*
X81601Y1060020D02*
X80399D01*
X79289Y1059560D01*
X78440Y1058711D01*
X77980Y1057601D01*
Y1056399D01*
X78440Y1055289D01*
X79289Y1054440D01*
X80399Y1053980D01*
X81601D01*
X82711Y1054440D01*
X83560Y1055289D01*
X84020Y1056399D01*
Y1057601D01*
X83560Y1058711D01*
X82711Y1059560D01*
X81601Y1060020D01*
D02*
G37*
G36*
X453152Y1059694D02*
X451951D01*
X450841Y1059234D01*
X449991Y1058384D01*
X449531Y1057274D01*
Y1056073D01*
X449991Y1054963D01*
X450841Y1054113D01*
X451951Y1053654D01*
X453152D01*
X454262Y1054113D01*
X455112Y1054963D01*
X455571Y1056073D01*
Y1057274D01*
X455112Y1058384D01*
X454262Y1059234D01*
X453152Y1059694D01*
D02*
G37*
G36*
X105601Y1058996D02*
X104399D01*
X103289Y1058536D01*
X102440Y1057687D01*
X101980Y1056577D01*
Y1055375D01*
X102440Y1054265D01*
X103289Y1053416D01*
X104399Y1052956D01*
X105601D01*
X106711Y1053416D01*
X107560Y1054265D01*
X108020Y1055375D01*
Y1056577D01*
X107560Y1057687D01*
X106711Y1058536D01*
X105601Y1058996D01*
D02*
G37*
G36*
X137101Y1056020D02*
X135899D01*
X134789Y1055560D01*
X133940Y1054711D01*
X133480Y1053601D01*
Y1052399D01*
X133940Y1051289D01*
X134789Y1050440D01*
X135899Y1049980D01*
X137101D01*
X138211Y1050440D01*
X139060Y1051289D01*
X139520Y1052399D01*
Y1053601D01*
X139060Y1054711D01*
X138211Y1055560D01*
X137101Y1056020D01*
D02*
G37*
G36*
X418751Y1053870D02*
X417549D01*
X416439Y1053410D01*
X415590Y1052561D01*
X415130Y1051451D01*
Y1050249D01*
X415590Y1049139D01*
X416439Y1048290D01*
X417549Y1047830D01*
X418751D01*
X419861Y1048290D01*
X420710Y1049139D01*
X421170Y1050249D01*
Y1051451D01*
X420710Y1052561D01*
X419861Y1053410D01*
X418751Y1053870D01*
D02*
G37*
G36*
X182601Y1052520D02*
X181399D01*
X180289Y1052060D01*
X179440Y1051211D01*
X178980Y1050101D01*
Y1048899D01*
X179440Y1047789D01*
X180289Y1046940D01*
X181399Y1046480D01*
X182601D01*
X183711Y1046940D01*
X184560Y1047789D01*
X185020Y1048899D01*
Y1050101D01*
X184560Y1051211D01*
X183711Y1052060D01*
X182601Y1052520D01*
D02*
G37*
G36*
X429280Y1045841D02*
X428078D01*
X426968Y1045381D01*
X426119Y1044532D01*
X425659Y1043422D01*
Y1042220D01*
X426119Y1041110D01*
X426968Y1040261D01*
X428078Y1039801D01*
X429280D01*
X430390Y1040261D01*
X431239Y1041110D01*
X431699Y1042220D01*
Y1043422D01*
X431239Y1044532D01*
X430390Y1045381D01*
X429280Y1045841D01*
D02*
G37*
G36*
X550071Y1038050D02*
X548869D01*
X547759Y1037590D01*
X546910Y1036741D01*
X546450Y1035631D01*
Y1034429D01*
X546910Y1033319D01*
X547759Y1032470D01*
X548869Y1032010D01*
X550071D01*
X551181Y1032470D01*
X552030Y1033319D01*
X552490Y1034429D01*
Y1035631D01*
X552030Y1036741D01*
X551181Y1037590D01*
X550071Y1038050D01*
D02*
G37*
G36*
X163755Y1032964D02*
X162554D01*
X161444Y1032505D01*
X160594Y1031655D01*
X160134Y1030545D01*
Y1029344D01*
X160594Y1028234D01*
X161444Y1027384D01*
X162554Y1026924D01*
X163755D01*
X164865Y1027384D01*
X165715Y1028234D01*
X166174Y1029344D01*
Y1030545D01*
X165715Y1031655D01*
X164865Y1032505D01*
X163755Y1032964D01*
D02*
G37*
G36*
X497101Y1031520D02*
X495899D01*
X494789Y1031060D01*
X493940Y1030211D01*
X493480Y1029101D01*
Y1027899D01*
X493940Y1026789D01*
X494789Y1025940D01*
X495899Y1025480D01*
X497101D01*
X498211Y1025940D01*
X499060Y1026789D01*
X499520Y1027899D01*
Y1029101D01*
X499060Y1030211D01*
X498211Y1031060D01*
X497101Y1031520D01*
D02*
G37*
G36*
X251601Y1027020D02*
X250399D01*
X249289Y1026560D01*
X248440Y1025711D01*
X247980Y1024601D01*
Y1023399D01*
X248440Y1022289D01*
X249289Y1021440D01*
X250399Y1020980D01*
X251601D01*
X252711Y1021440D01*
X253560Y1022289D01*
X254020Y1023399D01*
Y1024601D01*
X253560Y1025711D01*
X252711Y1026560D01*
X251601Y1027020D01*
D02*
G37*
G36*
X512601Y1026444D02*
X511399D01*
X510289Y1025984D01*
X509440Y1025135D01*
X508980Y1024025D01*
Y1022823D01*
X509440Y1021713D01*
X510289Y1020864D01*
X511399Y1020404D01*
X512601D01*
X513711Y1020864D01*
X514560Y1021713D01*
X515020Y1022823D01*
Y1024025D01*
X514560Y1025135D01*
X513711Y1025984D01*
X512601Y1026444D01*
D02*
G37*
G36*
X497521Y1021963D02*
X496320D01*
X495210Y1021504D01*
X494360Y1020654D01*
X493900Y1019544D01*
Y1018343D01*
X494360Y1017233D01*
X495210Y1016383D01*
X496320Y1015923D01*
X497521D01*
X498631Y1016383D01*
X499481Y1017233D01*
X499940Y1018343D01*
Y1019544D01*
X499481Y1020654D01*
X498631Y1021504D01*
X497521Y1021963D01*
D02*
G37*
G36*
X512601Y1019020D02*
X511399D01*
X510289Y1018560D01*
X509440Y1017711D01*
X508980Y1016601D01*
Y1015399D01*
X509440Y1014289D01*
X510289Y1013440D01*
X511399Y1012980D01*
X512601D01*
X513711Y1013440D01*
X514560Y1014289D01*
X515020Y1015399D01*
Y1016601D01*
X514560Y1017711D01*
X513711Y1018560D01*
X512601Y1019020D01*
D02*
G37*
G36*
X148601Y1014020D02*
X147399D01*
X146289Y1013560D01*
X145440Y1012711D01*
X144980Y1011601D01*
Y1010399D01*
X145440Y1009289D01*
X146289Y1008440D01*
X147399Y1007980D01*
X148601D01*
X149711Y1008440D01*
X150560Y1009289D01*
X151020Y1010399D01*
Y1011601D01*
X150560Y1012711D01*
X149711Y1013560D01*
X148601Y1014020D01*
D02*
G37*
G36*
X494851Y1013094D02*
X493649D01*
X492539Y1012634D01*
X491690Y1011785D01*
X491230Y1010675D01*
Y1009473D01*
X491690Y1008363D01*
X492539Y1007514D01*
X493010Y1007319D01*
X493132Y1006768D01*
X493126Y1005897D01*
X492440Y1005211D01*
X491980Y1004101D01*
Y1002899D01*
X492440Y1001789D01*
X493289Y1000940D01*
X494399Y1000480D01*
X495601D01*
X496711Y1000940D01*
X497560Y1001789D01*
X498020Y1002899D01*
Y1004101D01*
X497560Y1005211D01*
X496711Y1006060D01*
X496240Y1006255D01*
X496118Y1006807D01*
X496124Y1007678D01*
X496810Y1008363D01*
X497270Y1009473D01*
Y1010675D01*
X496810Y1011785D01*
X495961Y1012634D01*
X494851Y1013094D01*
D02*
G37*
G36*
X486601Y1006520D02*
X485399D01*
X484289Y1006060D01*
X483440Y1005211D01*
X482980Y1004101D01*
Y1002899D01*
X483440Y1001789D01*
X484289Y1000940D01*
X485399Y1000480D01*
X486601D01*
X487711Y1000940D01*
X488560Y1001789D01*
X489020Y1002899D01*
Y1004101D01*
X488560Y1005211D01*
X487711Y1006060D01*
X486601Y1006520D01*
D02*
G37*
G36*
X476601D02*
X475399D01*
X474289Y1006060D01*
X473440Y1005211D01*
X472980Y1004101D01*
Y1002899D01*
X473440Y1001789D01*
X474289Y1000940D01*
X475399Y1000480D01*
X476601D01*
X477711Y1000940D01*
X478560Y1001789D01*
X479020Y1002899D01*
Y1004101D01*
X478560Y1005211D01*
X477711Y1006060D01*
X476601Y1006520D01*
D02*
G37*
G36*
X468101D02*
X466899D01*
X465789Y1006060D01*
X464940Y1005211D01*
X464480Y1004101D01*
Y1002899D01*
X464940Y1001789D01*
X465789Y1000940D01*
X466899Y1000480D01*
X468101D01*
X469211Y1000940D01*
X470060Y1001789D01*
X470520Y1002899D01*
Y1004101D01*
X470060Y1005211D01*
X469211Y1006060D01*
X468101Y1006520D01*
D02*
G37*
G36*
X290126Y1006495D02*
X288924D01*
X287814Y1006035D01*
X286965Y1005186D01*
X286505Y1004076D01*
Y1002874D01*
X286965Y1001764D01*
X287814Y1000915D01*
X288924Y1000455D01*
X290126D01*
X291236Y1000915D01*
X292085Y1001764D01*
X292545Y1002874D01*
Y1004076D01*
X292085Y1005186D01*
X291236Y1006035D01*
X290126Y1006495D01*
D02*
G37*
G36*
X443601Y1011810D02*
X442399D01*
X441289Y1011350D01*
X440440Y1010501D01*
X439980Y1009391D01*
Y1008189D01*
X440440Y1007079D01*
X440960Y1006559D01*
X441157Y1005749D01*
X440949Y1004996D01*
X440413Y1004461D01*
X439954Y1003351D01*
Y1002149D01*
X440413Y1001039D01*
X441263Y1000190D01*
X442373Y999730D01*
X443574D01*
X444684Y1000190D01*
X445534Y1001039D01*
X445993Y1002149D01*
Y1003351D01*
X445534Y1004461D01*
X445014Y1004981D01*
X444817Y1005791D01*
X445025Y1006544D01*
X445560Y1007079D01*
X446020Y1008189D01*
Y1009391D01*
X445560Y1010501D01*
X444711Y1011350D01*
X443601Y1011810D01*
D02*
G37*
G36*
X81601Y1005520D02*
X80399D01*
X79289Y1005060D01*
X78440Y1004211D01*
X77980Y1003101D01*
Y1001899D01*
X78440Y1000789D01*
X79289Y999940D01*
X80399Y999480D01*
X81601D01*
X82711Y999940D01*
X83560Y1000789D01*
X84020Y1001899D01*
Y1003101D01*
X83560Y1004211D01*
X82711Y1005060D01*
X81601Y1005520D01*
D02*
G37*
G36*
X564601Y999520D02*
X563399D01*
X562289Y999060D01*
X561440Y998211D01*
X560980Y997101D01*
Y995899D01*
X561440Y994789D01*
X562289Y993940D01*
X563399Y993480D01*
X564601D01*
X565711Y993940D01*
X566560Y994789D01*
X567020Y995899D01*
Y997101D01*
X566560Y998211D01*
X565711Y999060D01*
X564601Y999520D01*
D02*
G37*
G36*
X435101Y998520D02*
X433899D01*
X432789Y998060D01*
X431940Y997211D01*
X431480Y996101D01*
Y994899D01*
X431940Y993789D01*
X432789Y992940D01*
X433899Y992480D01*
X435101D01*
X436211Y992940D01*
X437060Y993789D01*
X437520Y994899D01*
Y996101D01*
X437060Y997211D01*
X436211Y998060D01*
X435101Y998520D01*
D02*
G37*
G36*
X56601D02*
X55399D01*
X54289Y998060D01*
X53440Y997211D01*
X52980Y996101D01*
Y994899D01*
X53440Y993789D01*
X54289Y992940D01*
X55399Y992480D01*
X56601D01*
X57711Y992940D01*
X58560Y993789D01*
X59020Y994899D01*
Y996101D01*
X58560Y997211D01*
X57711Y998060D01*
X56601Y998520D01*
D02*
G37*
G36*
X546677Y1004520D02*
X545475D01*
X544365Y1004060D01*
X543516Y1003211D01*
X543056Y1002101D01*
Y1000899D01*
X543516Y999789D01*
X544365Y998940D01*
X545475Y998480D01*
X546677D01*
X547262Y998723D01*
X547759Y997560D01*
X546910Y996711D01*
X546450Y995601D01*
Y994399D01*
X546910Y993289D01*
X547759Y992440D01*
X548869Y991980D01*
X550071D01*
X551181Y992440D01*
X552030Y993289D01*
X552490Y994399D01*
Y995601D01*
X552030Y996711D01*
X551181Y997560D01*
X550071Y998020D01*
X548869D01*
X548284Y997777D01*
X547787Y998940D01*
X548636Y999789D01*
X549096Y1000899D01*
Y1002101D01*
X548636Y1003211D01*
X547787Y1004060D01*
X546677Y1004520D01*
D02*
G37*
G36*
X31676Y997595D02*
X30474D01*
X29364Y997135D01*
X28515Y996286D01*
X28055Y995176D01*
Y993974D01*
X28515Y992864D01*
X29364Y992015D01*
X30474Y991555D01*
X31676D01*
X32786Y992015D01*
X33635Y992864D01*
X34095Y993974D01*
Y995176D01*
X33635Y996286D01*
X32786Y997135D01*
X31676Y997595D01*
D02*
G37*
G36*
X439358Y991020D02*
X438157D01*
X437047Y990560D01*
X436197Y989711D01*
X435737Y988601D01*
Y987399D01*
X436197Y986289D01*
X437047Y985440D01*
X438157Y984980D01*
X439358D01*
X440468Y985440D01*
X441318Y986289D01*
X441777Y987399D01*
Y988601D01*
X441318Y989711D01*
X440468Y990560D01*
X439358Y991020D01*
D02*
G37*
G36*
X401786Y989020D02*
X400584D01*
X399474Y988560D01*
X398625Y987711D01*
X398165Y986601D01*
Y985399D01*
X398625Y984289D01*
X399474Y983440D01*
X400584Y982980D01*
X401786D01*
X402896Y983440D01*
X403745Y984289D01*
X404205Y985399D01*
Y986601D01*
X403745Y987711D01*
X402896Y988560D01*
X401786Y989020D01*
D02*
G37*
G36*
X564601Y986520D02*
X563399D01*
X562289Y986060D01*
X561440Y985211D01*
X560980Y984101D01*
Y982899D01*
X561440Y981789D01*
X562289Y980940D01*
X563399Y980480D01*
X564601D01*
X565711Y980940D01*
X566560Y981789D01*
X567020Y982899D01*
Y984101D01*
X566560Y985211D01*
X565711Y986060D01*
X564601Y986520D01*
D02*
G37*
G36*
X538101Y984520D02*
X536899D01*
X535789Y984060D01*
X534940Y983211D01*
X534480Y982101D01*
Y980899D01*
X534940Y979789D01*
X535789Y978940D01*
X536899Y978480D01*
X538101D01*
X539211Y978940D01*
X540060Y979789D01*
X540520Y980899D01*
Y982101D01*
X540060Y983211D01*
X539211Y984060D01*
X538101Y984520D01*
D02*
G37*
G36*
X367601Y984020D02*
X366399D01*
X365289Y983560D01*
X364440Y982711D01*
X363980Y981601D01*
Y980399D01*
X364440Y979289D01*
X365289Y978440D01*
X366399Y977980D01*
X367601D01*
X368711Y978440D01*
X369560Y979289D01*
X370020Y980399D01*
Y981601D01*
X369560Y982711D01*
X368711Y983560D01*
X367601Y984020D01*
D02*
G37*
G36*
X216601Y978020D02*
X215399D01*
X214289Y977560D01*
X213440Y976711D01*
X212980Y975601D01*
Y974399D01*
X213440Y973289D01*
X214289Y972440D01*
X215399Y971980D01*
X216601D01*
X217711Y972440D01*
X218560Y973289D01*
X219020Y974399D01*
Y975601D01*
X218560Y976711D01*
X217711Y977560D01*
X216601Y978020D01*
D02*
G37*
G36*
X61455Y977464D02*
X60254D01*
X59144Y977004D01*
X58294Y976154D01*
X57834Y975044D01*
Y973843D01*
X58294Y972733D01*
X59144Y971883D01*
X60254Y971424D01*
X61455D01*
X62565Y971883D01*
X63415Y972733D01*
X63874Y973843D01*
Y975044D01*
X63415Y976154D01*
X62565Y977004D01*
X61455Y977464D01*
D02*
G37*
G36*
X25101Y970520D02*
X23899D01*
X22789Y970060D01*
X22580Y969851D01*
X21750Y969330D01*
X20920Y969851D01*
X20711Y970060D01*
X19601Y970520D01*
X18399D01*
X17289Y970060D01*
X16790Y969561D01*
X16000Y969336D01*
X15210Y969561D01*
X14711Y970060D01*
X13601Y970520D01*
X12399D01*
X11289Y970060D01*
X10440Y969211D01*
X9980Y968101D01*
Y966899D01*
X10440Y965789D01*
X11229Y965000D01*
X10440Y964211D01*
X9980Y963101D01*
Y961899D01*
X10440Y960789D01*
X11229Y960000D01*
X10440Y959211D01*
X9980Y958101D01*
Y956899D01*
X10440Y955789D01*
X11229Y955000D01*
X10440Y954211D01*
X9980Y953101D01*
Y951899D01*
X10440Y950789D01*
X11289Y949940D01*
X12399Y949480D01*
X13601D01*
X14711Y949940D01*
X15210Y950439D01*
X16000Y950664D01*
X16790Y950439D01*
X17289Y949940D01*
X18399Y949480D01*
X19601D01*
X20711Y949940D01*
X20920Y950149D01*
X21750Y950670D01*
X22580Y950149D01*
X22789Y949940D01*
X23899Y949480D01*
X25101D01*
X26211Y949940D01*
X27060Y950789D01*
X27520Y951899D01*
Y953101D01*
X27060Y954211D01*
X26271Y955000D01*
X27060Y955789D01*
X27520Y956899D01*
Y958101D01*
X27060Y959211D01*
X26271Y960000D01*
X27060Y960789D01*
X27520Y961899D01*
Y963101D01*
X27060Y964211D01*
X26271Y965000D01*
X27060Y965789D01*
X27520Y966899D01*
Y968101D01*
X27060Y969211D01*
X26211Y970060D01*
X25101Y970520D01*
D02*
G37*
G36*
X505601Y965520D02*
X504399D01*
X503289Y965060D01*
X502440Y964211D01*
X502367Y964035D01*
X501560Y963946D01*
X500967Y963975D01*
X500203Y964739D01*
X499093Y965199D01*
X497892D01*
X496782Y964739D01*
X495932Y963890D01*
X495793Y963553D01*
X495322Y963422D01*
X494359Y963411D01*
X493711Y964060D01*
X492601Y964520D01*
X491399D01*
X490289Y964060D01*
X489440Y963211D01*
X488980Y962101D01*
Y960899D01*
X489440Y959789D01*
X490289Y958940D01*
X491399Y958480D01*
X492601D01*
X493711Y958940D01*
X494560Y959789D01*
X494700Y960126D01*
X495171Y960257D01*
X496133Y960267D01*
X496782Y959619D01*
X497892Y959159D01*
X499093D01*
X500203Y959619D01*
X501053Y960468D01*
X501125Y960644D01*
X501933Y960733D01*
X502525Y960704D01*
X503289Y959940D01*
X504399Y959480D01*
X505601D01*
X506711Y959940D01*
X507560Y960789D01*
X508020Y961899D01*
Y963101D01*
X507560Y964211D01*
X506711Y965060D01*
X505601Y965520D01*
D02*
G37*
G36*
X168101Y968020D02*
X166899D01*
X165789Y967560D01*
X164940Y966711D01*
X164480Y965601D01*
Y964399D01*
X164940Y963289D01*
X165789Y962440D01*
X166899Y961980D01*
X168101D01*
X169211Y962440D01*
X170060Y963289D01*
X170520Y964399D01*
Y965601D01*
X170060Y966711D01*
X169211Y967560D01*
X168101Y968020D01*
D02*
G37*
G36*
X442495Y966410D02*
X441294D01*
X440184Y965950D01*
X439334Y965101D01*
X438874Y963991D01*
Y962789D01*
X439334Y961679D01*
X440184Y960830D01*
X441294Y960370D01*
X442495D01*
X443605Y960830D01*
X444455Y961679D01*
X444914Y962789D01*
Y963991D01*
X444455Y965101D01*
X443605Y965950D01*
X442495Y966410D01*
D02*
G37*
G36*
X538601Y966020D02*
X537399D01*
X536289Y965560D01*
X535440Y964711D01*
X534980Y963601D01*
Y962399D01*
X535440Y961289D01*
X536289Y960440D01*
X537399Y959980D01*
X538601D01*
X539711Y960440D01*
X540560Y961289D01*
X541020Y962399D01*
Y963601D01*
X540560Y964711D01*
X539711Y965560D01*
X538601Y966020D01*
D02*
G37*
G36*
X307101Y971020D02*
X305899D01*
X304789Y970560D01*
X303940Y969711D01*
X303480Y968601D01*
Y967399D01*
X303940Y966289D01*
X304729Y965500D01*
X303940Y964711D01*
X303480Y963601D01*
Y962399D01*
X303940Y961289D01*
X304789Y960440D01*
X305899Y959980D01*
X307101D01*
X308211Y960440D01*
X309060Y961289D01*
X309520Y962399D01*
Y963601D01*
X309060Y964711D01*
X308271Y965500D01*
X309060Y966289D01*
X309520Y967399D01*
Y968601D01*
X309060Y969711D01*
X308211Y970560D01*
X307101Y971020D01*
D02*
G37*
G36*
X259101Y963520D02*
X257899D01*
X256789Y963060D01*
X255940Y962211D01*
X255480Y961101D01*
Y959899D01*
X255940Y958789D01*
X256789Y957940D01*
X257899Y957480D01*
X259101D01*
X260211Y957940D01*
X261060Y958789D01*
X261520Y959899D01*
Y961101D01*
X261060Y962211D01*
X260211Y963060D01*
X259101Y963520D01*
D02*
G37*
G36*
X367601Y959020D02*
X366399D01*
X365289Y958560D01*
X364440Y957711D01*
X363980Y956601D01*
Y955399D01*
X364440Y954289D01*
X365289Y953440D01*
X366399Y952980D01*
X367601D01*
X368711Y953440D01*
X369560Y954289D01*
X370020Y955399D01*
Y956601D01*
X369560Y957711D01*
X368711Y958560D01*
X367601Y959020D01*
D02*
G37*
G36*
X398601Y958020D02*
X397399D01*
X396289Y957560D01*
X395440Y956711D01*
X394980Y955601D01*
Y954399D01*
X395440Y953289D01*
X396289Y952440D01*
X397399Y951980D01*
X398601D01*
X399711Y952440D01*
X400560Y953289D01*
X401020Y954399D01*
Y955601D01*
X400560Y956711D01*
X399711Y957560D01*
X398601Y958020D01*
D02*
G37*
G36*
X521101Y954520D02*
X519899D01*
X518789Y954060D01*
X517940Y953211D01*
X517480Y952101D01*
Y950899D01*
X517940Y949789D01*
X518789Y948940D01*
X519899Y948480D01*
X521101D01*
X522211Y948940D01*
X523060Y949789D01*
X523520Y950899D01*
Y952101D01*
X523060Y953211D01*
X522211Y954060D01*
X521101Y954520D01*
D02*
G37*
G36*
X423601Y956020D02*
X422399D01*
X421289Y955560D01*
X420440Y954711D01*
X419980Y953601D01*
Y952399D01*
X420440Y951289D01*
X421289Y950440D01*
X422399Y949980D01*
X423601D01*
X423753Y950043D01*
X424173Y949678D01*
X424598Y949019D01*
X424227Y948122D01*
Y946921D01*
X424687Y945811D01*
X425536Y944961D01*
X426646Y944501D01*
X427848D01*
X428958Y944961D01*
X429320Y945324D01*
X430627Y945301D01*
X430830Y945174D01*
X431555Y944450D01*
X432665Y943990D01*
X433866D01*
X434976Y944450D01*
X435426Y944900D01*
X436480Y945018D01*
X436986Y944800D01*
X437589Y944197D01*
X438699Y943738D01*
X439901D01*
X441011Y944197D01*
X441860Y945047D01*
X442320Y946157D01*
Y947358D01*
X441860Y948468D01*
X441306Y949022D01*
X441089Y949704D01*
X441268Y950586D01*
X441769Y951086D01*
X442229Y952196D01*
Y953398D01*
X441769Y954508D01*
X440919Y955357D01*
X439809Y955817D01*
X438608D01*
X437498Y955357D01*
X436648Y954508D01*
X436189Y953398D01*
Y952196D01*
X436648Y951086D01*
X437202Y950532D01*
X437364Y950024D01*
X436751Y948824D01*
X436085Y948750D01*
X435579Y948967D01*
X434976Y949570D01*
X433866Y950030D01*
X432665D01*
X431555Y949570D01*
X431192Y949208D01*
X429885Y949231D01*
X429682Y949357D01*
X428958Y950082D01*
X427848Y950542D01*
X426646D01*
X426494Y950479D01*
X426074Y950843D01*
X425649Y951503D01*
X426020Y952399D01*
Y953601D01*
X425560Y954711D01*
X424711Y955560D01*
X423601Y956020D01*
D02*
G37*
G36*
X167601Y948020D02*
X166399D01*
X165289Y947560D01*
X164440Y946711D01*
X163980Y945601D01*
Y944399D01*
X164440Y943289D01*
X165289Y942440D01*
X166399Y941980D01*
X167601D01*
X168711Y942440D01*
X169560Y943289D01*
X170020Y944399D01*
Y945601D01*
X169560Y946711D01*
X168711Y947560D01*
X167601Y948020D01*
D02*
G37*
G36*
X544601Y947520D02*
X543399D01*
X542289Y947060D01*
X541440Y946211D01*
X540980Y945101D01*
Y943899D01*
X541440Y942789D01*
X542289Y941940D01*
X543399Y941480D01*
X544601D01*
X545711Y941940D01*
X546560Y942789D01*
X547020Y943899D01*
Y945101D01*
X546560Y946211D01*
X545711Y947060D01*
X544601Y947520D01*
D02*
G37*
G36*
X430601Y934020D02*
X429399D01*
X428289Y933560D01*
X427762Y933033D01*
X426980Y932830D01*
X426198Y933033D01*
X425671Y933560D01*
X424561Y934020D01*
X423359D01*
X422249Y933560D01*
X421400Y932711D01*
X420940Y931601D01*
Y930399D01*
X421400Y929289D01*
X422249Y928440D01*
X423359Y927980D01*
X424561D01*
X425671Y928440D01*
X426198Y928968D01*
X426980Y929170D01*
X427762Y928968D01*
X428289Y928440D01*
X429399Y927980D01*
X430601D01*
X431711Y928440D01*
X432560Y929289D01*
X433020Y930399D01*
Y931601D01*
X432560Y932711D01*
X431711Y933560D01*
X430601Y934020D01*
D02*
G37*
G36*
X336101Y933020D02*
X334899D01*
X333789Y932560D01*
X332940Y931711D01*
X332480Y930601D01*
Y929399D01*
X332940Y928289D01*
X333789Y927440D01*
X334899Y926980D01*
X336101D01*
X337211Y927440D01*
X338060Y928289D01*
X338520Y929399D01*
Y930601D01*
X338060Y931711D01*
X337211Y932560D01*
X336101Y933020D01*
D02*
G37*
G36*
X211601D02*
X210399D01*
X209289Y932560D01*
X208440Y931711D01*
X207980Y930601D01*
Y929399D01*
X208440Y928289D01*
X209289Y927440D01*
X210399Y926980D01*
X211601D01*
X212711Y927440D01*
X213560Y928289D01*
X214020Y929399D01*
Y930601D01*
X213560Y931711D01*
X212711Y932560D01*
X211601Y933020D01*
D02*
G37*
G36*
X193101Y932520D02*
X191899D01*
X190789Y932060D01*
X189940Y931211D01*
X189480Y930101D01*
Y928899D01*
X189940Y927789D01*
X190789Y926940D01*
X191899Y926480D01*
X193101D01*
X194211Y926940D01*
X195060Y927789D01*
X195520Y928899D01*
Y930101D01*
X195060Y931211D01*
X194211Y932060D01*
X193101Y932520D01*
D02*
G37*
G36*
X550071Y933520D02*
X548869D01*
X547759Y933060D01*
X546910Y932211D01*
X546450Y931101D01*
Y929899D01*
X546910Y928789D01*
X547759Y927940D01*
X548869Y927480D01*
X550071D01*
X550906Y927826D01*
X551780Y927236D01*
X551980Y927001D01*
Y925899D01*
X552440Y924789D01*
X553289Y923940D01*
X554399Y923480D01*
X555601D01*
X556711Y923940D01*
X557560Y924789D01*
X558020Y925899D01*
Y927101D01*
X557560Y928211D01*
X556711Y929060D01*
X555601Y929520D01*
X554399D01*
X553564Y929174D01*
X552690Y929764D01*
X552490Y929999D01*
Y931101D01*
X552030Y932211D01*
X551181Y933060D01*
X550071Y933520D01*
D02*
G37*
G36*
X217101Y925020D02*
X215899D01*
X214789Y924560D01*
X213940Y923711D01*
X213480Y922601D01*
Y921399D01*
X213940Y920289D01*
X214789Y919440D01*
X215899Y918980D01*
X217101D01*
X218211Y919440D01*
X219060Y920289D01*
X219520Y921399D01*
Y922601D01*
X219060Y923711D01*
X218211Y924560D01*
X217101Y925020D01*
D02*
G37*
G36*
X564601Y924020D02*
X563399D01*
X562289Y923560D01*
X561440Y922711D01*
X560980Y921601D01*
Y920399D01*
X561440Y919289D01*
X562289Y918440D01*
X563399Y917980D01*
X564601D01*
X565711Y918440D01*
X566560Y919289D01*
X567020Y920399D01*
Y921601D01*
X566560Y922711D01*
X565711Y923560D01*
X564601Y924020D01*
D02*
G37*
G36*
X38601D02*
X37399D01*
X36289Y923560D01*
X35440Y922711D01*
X34980Y921601D01*
Y920399D01*
X35440Y919289D01*
X36289Y918440D01*
X37399Y917980D01*
X38601D01*
X39711Y918440D01*
X40560Y919289D01*
X41020Y920399D01*
Y921601D01*
X40560Y922711D01*
X39711Y923560D01*
X38601Y924020D01*
D02*
G37*
G36*
X154101Y915020D02*
X152899D01*
X151789Y914560D01*
X150940Y913711D01*
X150480Y912601D01*
Y911399D01*
X150940Y910289D01*
X151789Y909440D01*
X152899Y908980D01*
X154101D01*
X155211Y909440D01*
X156060Y910289D01*
X156520Y911399D01*
Y912601D01*
X156060Y913711D01*
X155211Y914560D01*
X154101Y915020D01*
D02*
G37*
G36*
X26101Y914520D02*
X24899D01*
X23789Y914060D01*
X22940Y913211D01*
X22480Y912101D01*
Y910899D01*
X22940Y909789D01*
X23789Y908940D01*
X24899Y908480D01*
X26101D01*
X27211Y908940D01*
X28060Y909789D01*
X28520Y910899D01*
Y912101D01*
X28060Y913211D01*
X27211Y914060D01*
X26101Y914520D01*
D02*
G37*
G36*
X329888Y916623D02*
X327412D01*
X325125Y915676D01*
X323374Y913925D01*
X322427Y911638D01*
Y909162D01*
X323374Y906875D01*
X325125Y905124D01*
X327412Y904177D01*
X329888D01*
X332175Y905124D01*
X333926Y906875D01*
X334873Y909162D01*
Y911638D01*
X333926Y913925D01*
X332175Y915676D01*
X329888Y916623D01*
D02*
G37*
G36*
X217588D02*
X215112D01*
X212825Y915676D01*
X211074Y913925D01*
X210127Y911638D01*
Y909162D01*
X211074Y906875D01*
X212825Y905124D01*
X215112Y904177D01*
X217588D01*
X219875Y905124D01*
X221626Y906875D01*
X222573Y909162D01*
Y911638D01*
X221626Y913925D01*
X219875Y915676D01*
X217588Y916623D01*
D02*
G37*
G36*
X424601Y908520D02*
X423399D01*
X422289Y908060D01*
X421440Y907211D01*
X420980Y906101D01*
Y904899D01*
X421440Y903789D01*
X422289Y902940D01*
X423399Y902480D01*
X424601D01*
X425711Y902940D01*
X426560Y903789D01*
X427020Y904899D01*
Y906101D01*
X426560Y907211D01*
X425711Y908060D01*
X424601Y908520D01*
D02*
G37*
G36*
X452101Y908378D02*
X450899D01*
X449789Y907918D01*
X448940Y907069D01*
X448480Y905959D01*
Y904757D01*
X448940Y903647D01*
X449789Y902798D01*
X450899Y902338D01*
X452101D01*
X453211Y902798D01*
X454060Y903647D01*
X454520Y904757D01*
Y905959D01*
X454060Y907069D01*
X453211Y907918D01*
X452101Y908378D01*
D02*
G37*
G36*
X355780Y923544D02*
X352319D01*
X348976Y922649D01*
X345979Y920918D01*
X343532Y918471D01*
X341801Y915474D01*
X340905Y912131D01*
Y908670D01*
X341801Y905326D01*
X343532Y902329D01*
X345979Y899882D01*
X348976Y898151D01*
X352319Y897255D01*
X355780D01*
X359124Y898151D01*
X362121Y899882D01*
X364568Y902329D01*
X366299Y905326D01*
X367195Y908670D01*
Y912131D01*
X366299Y915474D01*
X364568Y918471D01*
X362121Y920918D01*
X359124Y922649D01*
X355780Y923544D01*
D02*
G37*
G36*
X304981D02*
X301520D01*
X298176Y922649D01*
X295179Y920918D01*
X292732Y918471D01*
X291001Y915474D01*
X290105Y912131D01*
Y908670D01*
X291001Y905326D01*
X292732Y902329D01*
X295179Y899882D01*
X298176Y898151D01*
X301520Y897255D01*
X304981D01*
X308324Y898151D01*
X311321Y899882D01*
X313768Y902329D01*
X315499Y905326D01*
X316395Y908670D01*
Y912131D01*
X315499Y915474D01*
X313768Y918471D01*
X311321Y920918D01*
X308324Y922649D01*
X304981Y923544D01*
D02*
G37*
G36*
X243480D02*
X240019D01*
X236676Y922649D01*
X233679Y920918D01*
X231232Y918471D01*
X229501Y915474D01*
X228605Y912131D01*
Y908670D01*
X229501Y905326D01*
X231232Y902329D01*
X233679Y899882D01*
X236676Y898151D01*
X240019Y897255D01*
X243480D01*
X246824Y898151D01*
X249821Y899882D01*
X252268Y902329D01*
X253999Y905326D01*
X254895Y908670D01*
Y912131D01*
X253999Y915474D01*
X252268Y918471D01*
X249821Y920918D01*
X246824Y922649D01*
X243480Y923544D01*
D02*
G37*
G36*
X192680D02*
X189219D01*
X185876Y922649D01*
X182879Y920918D01*
X180432Y918471D01*
X178701Y915474D01*
X177806Y912131D01*
Y908670D01*
X178701Y905326D01*
X180432Y902329D01*
X182879Y899882D01*
X185876Y898151D01*
X189219Y897255D01*
X192680D01*
X196024Y898151D01*
X199021Y899882D01*
X201468Y902329D01*
X203199Y905326D01*
X204095Y908670D01*
Y912131D01*
X203199Y915474D01*
X201468Y918471D01*
X199021Y920918D01*
X196024Y922649D01*
X192680Y923544D01*
D02*
G37*
G36*
X521601Y902020D02*
X520399D01*
X519289Y901560D01*
X518440Y900711D01*
X517980Y899601D01*
Y898399D01*
X518440Y897289D01*
X519289Y896440D01*
X520399Y895980D01*
X521601D01*
X522711Y896440D01*
X523560Y897289D01*
X524020Y898399D01*
Y899601D01*
X523560Y900711D01*
X522711Y901560D01*
X521601Y902020D01*
D02*
G37*
G36*
X429418Y901010D02*
X428217D01*
X427107Y900550D01*
X426257Y899701D01*
X425797Y898591D01*
Y897389D01*
X426257Y896279D01*
X427107Y895430D01*
X428217Y894970D01*
X429418D01*
X430528Y895430D01*
X431378Y896279D01*
X431837Y897389D01*
Y898591D01*
X431378Y899701D01*
X430528Y900550D01*
X429418Y901010D01*
D02*
G37*
G36*
X461101Y898020D02*
X459899D01*
X458789Y897560D01*
X457940Y896711D01*
X457480Y895601D01*
Y894399D01*
X457940Y893289D01*
X458789Y892440D01*
X459899Y891980D01*
X461101D01*
X462211Y892440D01*
X463060Y893289D01*
X463520Y894399D01*
Y895601D01*
X463060Y896711D01*
X462211Y897560D01*
X461101Y898020D01*
D02*
G37*
G36*
X401601Y897520D02*
X400399D01*
X399289Y897060D01*
X398440Y896211D01*
X397980Y895101D01*
Y893899D01*
X398440Y892789D01*
X399289Y891940D01*
X400399Y891480D01*
X401601D01*
X402711Y891940D01*
X403560Y892789D01*
X404020Y893899D01*
Y895101D01*
X403560Y896211D01*
X402711Y897060D01*
X401601Y897520D01*
D02*
G37*
G36*
X171101Y896520D02*
X169899D01*
X168789Y896060D01*
X167940Y895211D01*
X167480Y894101D01*
Y892899D01*
X167940Y891789D01*
X168789Y890940D01*
X169899Y890480D01*
X171101D01*
X172211Y890940D01*
X173060Y891789D01*
X173520Y892899D01*
Y894101D01*
X173060Y895211D01*
X172211Y896060D01*
X171101Y896520D01*
D02*
G37*
G36*
X154601Y896020D02*
X153399D01*
X152289Y895560D01*
X151440Y894711D01*
X150980Y893601D01*
Y892399D01*
X151440Y891289D01*
X152289Y890440D01*
X153399Y889980D01*
X154601D01*
X155711Y890440D01*
X156560Y891289D01*
X157020Y892399D01*
Y893601D01*
X156560Y894711D01*
X155711Y895560D01*
X154601Y896020D01*
D02*
G37*
G36*
X434601Y895520D02*
X433399D01*
X432289Y895060D01*
X431440Y894211D01*
X430980Y893101D01*
Y891899D01*
X431440Y890789D01*
X432289Y889940D01*
X433399Y889480D01*
X434601D01*
X435711Y889940D01*
X436560Y890789D01*
X437020Y891899D01*
Y893101D01*
X436560Y894211D01*
X435711Y895060D01*
X434601Y895520D01*
D02*
G37*
G36*
X200601Y888520D02*
X199399D01*
X198289Y888060D01*
X197440Y887211D01*
X196980Y886101D01*
Y884899D01*
X197440Y883789D01*
X198289Y882940D01*
X199399Y882480D01*
X200601D01*
X201711Y882940D01*
X202560Y883789D01*
X203020Y884899D01*
Y886101D01*
X202560Y887211D01*
X201711Y888060D01*
X200601Y888520D01*
D02*
G37*
G36*
X315601Y888020D02*
X314399D01*
X313289Y887560D01*
X312440Y886711D01*
X311980Y885601D01*
Y884399D01*
X312440Y883289D01*
X313289Y882440D01*
X314399Y881980D01*
X315601D01*
X316711Y882440D01*
X317560Y883289D01*
X318020Y884399D01*
Y885601D01*
X317560Y886711D01*
X316711Y887560D01*
X315601Y888020D01*
D02*
G37*
G36*
X432101Y887520D02*
X430899D01*
X429789Y887060D01*
X428940Y886211D01*
X428480Y885101D01*
Y883899D01*
X428940Y882789D01*
X429789Y881940D01*
X430899Y881480D01*
X432101D01*
X433211Y881940D01*
X434060Y882789D01*
X434520Y883899D01*
Y885101D01*
X434060Y886211D01*
X433211Y887060D01*
X432101Y887520D01*
D02*
G37*
G36*
X229873Y881825D02*
X228671D01*
X227561Y881365D01*
X226712Y880516D01*
X226252Y879406D01*
Y878204D01*
X226712Y877094D01*
X227561Y876245D01*
X228671Y875785D01*
X229873D01*
X230983Y876245D01*
X231832Y877094D01*
X232292Y878204D01*
Y879406D01*
X231832Y880516D01*
X230983Y881365D01*
X229873Y881825D01*
D02*
G37*
G36*
X398601Y880020D02*
X397399D01*
X396289Y879560D01*
X395440Y878711D01*
X394980Y877601D01*
Y876399D01*
X395440Y875289D01*
X396289Y874440D01*
X397399Y873980D01*
X398601D01*
X399711Y874440D01*
X400560Y875289D01*
X401020Y876399D01*
Y877601D01*
X400560Y878711D01*
X399711Y879560D01*
X398601Y880020D01*
D02*
G37*
G36*
X342601Y874520D02*
X341399D01*
X340289Y874060D01*
X339440Y873211D01*
X338980Y872101D01*
Y870899D01*
X339440Y869789D01*
X340289Y868940D01*
X341399Y868480D01*
X342601D01*
X343711Y868940D01*
X344560Y869789D01*
X345020Y870899D01*
Y872101D01*
X344560Y873211D01*
X343711Y874060D01*
X342601Y874520D01*
D02*
G37*
G36*
X400498Y871902D02*
X399296D01*
X398186Y871442D01*
X397337Y870593D01*
X396877Y869483D01*
Y868281D01*
X397337Y867171D01*
X398186Y866322D01*
X399296Y865862D01*
X400498D01*
X401608Y866322D01*
X402457Y867171D01*
X402917Y868281D01*
Y869483D01*
X402457Y870593D01*
X401608Y871442D01*
X400498Y871902D01*
D02*
G37*
G36*
X316101Y868520D02*
X314899D01*
X313789Y868060D01*
X312940Y867211D01*
X312480Y866101D01*
Y864899D01*
X312829Y864056D01*
X311753Y863336D01*
X311321Y863768D01*
X308324Y865499D01*
X304981Y866395D01*
X301520D01*
X298176Y865499D01*
X295179Y863768D01*
X292732Y861321D01*
X291001Y858324D01*
X290105Y854980D01*
Y851519D01*
X291001Y848176D01*
X292732Y845179D01*
X295179Y842732D01*
X298176Y841001D01*
X301520Y840106D01*
X304981D01*
X308324Y841001D01*
X311321Y842732D01*
X313768Y845179D01*
X315499Y848176D01*
X316395Y851519D01*
Y854980D01*
X315499Y858324D01*
X313768Y861321D01*
X313336Y861753D01*
X314056Y862829D01*
X314899Y862480D01*
X316101D01*
X317211Y862940D01*
X318060Y863789D01*
X318520Y864899D01*
Y866101D01*
X318060Y867211D01*
X317211Y868060D01*
X316101Y868520D01*
D02*
G37*
G36*
X453532Y855452D02*
X452331D01*
X451221Y854992D01*
X450371Y854142D01*
X449911Y853032D01*
Y851831D01*
X450371Y850721D01*
X451221Y849871D01*
X452331Y849411D01*
X453532D01*
X454642Y849871D01*
X455492Y850721D01*
X455951Y851831D01*
Y853032D01*
X455492Y854142D01*
X454642Y854992D01*
X453532Y855452D01*
D02*
G37*
G36*
X433601Y855020D02*
X432399D01*
X431289Y854560D01*
X430440Y853711D01*
X429980Y852601D01*
Y851399D01*
X430440Y850289D01*
X431289Y849440D01*
X432399Y848980D01*
X433601D01*
X434711Y849440D01*
X435560Y850289D01*
X436020Y851399D01*
Y852601D01*
X435560Y853711D01*
X434711Y854560D01*
X433601Y855020D01*
D02*
G37*
G36*
X485601Y854520D02*
X484399D01*
X483289Y854060D01*
X482440Y853211D01*
X481980Y852101D01*
Y850899D01*
X482440Y849789D01*
X483289Y848940D01*
X484399Y848480D01*
X485601D01*
X486711Y848940D01*
X487560Y849789D01*
X488020Y850899D01*
Y852101D01*
X487560Y853211D01*
X486711Y854060D01*
X485601Y854520D01*
D02*
G37*
G36*
X544601Y852520D02*
X543399D01*
X542289Y852060D01*
X541440Y851211D01*
X540980Y850101D01*
Y848899D01*
X541440Y847789D01*
X542289Y846940D01*
X543399Y846480D01*
X544601D01*
X545711Y846940D01*
X546560Y847789D01*
X547020Y848899D01*
Y850101D01*
X546560Y851211D01*
X545711Y852060D01*
X544601Y852520D01*
D02*
G37*
G36*
X534101D02*
X532899D01*
X531789Y852060D01*
X530940Y851211D01*
X530480Y850101D01*
Y848899D01*
X530940Y847789D01*
X531789Y846940D01*
X532899Y846480D01*
X534101D01*
X535211Y846940D01*
X536060Y847789D01*
X536520Y848899D01*
Y850101D01*
X536060Y851211D01*
X535211Y852060D01*
X534101Y852520D01*
D02*
G37*
G36*
X522601D02*
X521399D01*
X520289Y852060D01*
X519440Y851211D01*
X518980Y850101D01*
Y848899D01*
X519440Y847789D01*
X520289Y846940D01*
X521399Y846480D01*
X522601D01*
X523711Y846940D01*
X524560Y847789D01*
X525020Y848899D01*
Y850101D01*
X524560Y851211D01*
X523711Y852060D01*
X522601Y852520D01*
D02*
G37*
G36*
X512101Y852020D02*
X510899D01*
X509789Y851560D01*
X508940Y850711D01*
X508480Y849601D01*
Y848399D01*
X508940Y847289D01*
X509789Y846440D01*
X510899Y845980D01*
X512101D01*
X513211Y846440D01*
X514060Y847289D01*
X514520Y848399D01*
Y849601D01*
X514060Y850711D01*
X513211Y851560D01*
X512101Y852020D01*
D02*
G37*
G36*
X465161Y849020D02*
X463959D01*
X462849Y848560D01*
X462000Y847711D01*
X461540Y846601D01*
Y845399D01*
X462000Y844289D01*
X462849Y843440D01*
X463959Y842980D01*
X465161D01*
X466271Y843440D01*
X467120Y844289D01*
X467580Y845399D01*
Y846601D01*
X467120Y847711D01*
X466271Y848560D01*
X465161Y849020D01*
D02*
G37*
G36*
X355780Y866395D02*
X352319D01*
X348976Y865499D01*
X345979Y863768D01*
X343532Y861321D01*
X341801Y858324D01*
X340905Y854980D01*
Y851519D01*
X341801Y848176D01*
X343532Y845179D01*
X345979Y842732D01*
X348976Y841001D01*
X352319Y840106D01*
X355780D01*
X359124Y841001D01*
X362121Y842732D01*
X364568Y845179D01*
X366299Y848176D01*
X367195Y851519D01*
Y854980D01*
X366299Y858324D01*
X364568Y861321D01*
X362121Y863768D01*
X359124Y865499D01*
X355780Y866395D01*
D02*
G37*
G36*
X243480D02*
X240019D01*
X236676Y865499D01*
X233679Y863768D01*
X231232Y861321D01*
X229501Y858324D01*
X228605Y854980D01*
Y851519D01*
X229501Y848176D01*
X231232Y845179D01*
X233679Y842732D01*
X236676Y841001D01*
X240019Y840106D01*
X243480D01*
X246824Y841001D01*
X249821Y842732D01*
X252268Y845179D01*
X253999Y848176D01*
X254895Y851519D01*
Y854980D01*
X253999Y858324D01*
X252268Y861321D01*
X249821Y863768D01*
X246824Y865499D01*
X243480Y866395D01*
D02*
G37*
G36*
X192680D02*
X189219D01*
X185876Y865499D01*
X182879Y863768D01*
X180432Y861321D01*
X178701Y858324D01*
X177806Y854980D01*
Y851519D01*
X178701Y848176D01*
X180432Y845179D01*
X182879Y842732D01*
X185876Y841001D01*
X189219Y840106D01*
X192680D01*
X196024Y841001D01*
X199021Y842732D01*
X201468Y845179D01*
X203199Y848176D01*
X204095Y851519D01*
Y854980D01*
X203199Y858324D01*
X201468Y861321D01*
X199021Y863768D01*
X196024Y865499D01*
X192680Y866395D01*
D02*
G37*
G36*
X518361Y841260D02*
X517159D01*
X516049Y840800D01*
X515200Y839951D01*
X514740Y838841D01*
Y837639D01*
X515200Y836529D01*
X516049Y835680D01*
X517159Y835220D01*
X518361D01*
X519471Y835680D01*
X520320Y836529D01*
X520780Y837639D01*
Y838841D01*
X520320Y839951D01*
X519471Y840800D01*
X518361Y841260D01*
D02*
G37*
G36*
X340038Y840423D02*
X337562D01*
X335275Y839476D01*
X333524Y837725D01*
X332577Y835438D01*
Y832962D01*
X333524Y830675D01*
X335275Y828924D01*
X337562Y827977D01*
X340038D01*
X342325Y828924D01*
X344076Y830675D01*
X345023Y832962D01*
Y835438D01*
X344076Y837725D01*
X342325Y839476D01*
X340038Y840423D01*
D02*
G37*
G36*
X319738D02*
X317262D01*
X314975Y839476D01*
X313224Y837725D01*
X312277Y835438D01*
Y832962D01*
X313224Y830675D01*
X314975Y828924D01*
X317262Y827977D01*
X319738D01*
X322025Y828924D01*
X323776Y830675D01*
X324723Y832962D01*
Y835438D01*
X323776Y837725D01*
X322025Y839476D01*
X319738Y840423D01*
D02*
G37*
G36*
X227738D02*
X225262D01*
X222975Y839476D01*
X221224Y837725D01*
X220277Y835438D01*
Y832962D01*
X221224Y830675D01*
X222975Y828924D01*
X225262Y827977D01*
X227738D01*
X230025Y828924D01*
X231776Y830675D01*
X232723Y832962D01*
Y835438D01*
X231776Y837725D01*
X230025Y839476D01*
X227738Y840423D01*
D02*
G37*
G36*
X207438D02*
X204962D01*
X202675Y839476D01*
X200924Y837725D01*
X199977Y835438D01*
Y832962D01*
X200924Y830675D01*
X202675Y828924D01*
X204962Y827977D01*
X207438D01*
X209725Y828924D01*
X211476Y830675D01*
X212423Y832962D01*
Y835438D01*
X211476Y837725D01*
X209725Y839476D01*
X207438Y840423D01*
D02*
G37*
G36*
X422601Y833569D02*
X421399D01*
X420289Y833109D01*
X419440Y832260D01*
X418980Y831150D01*
Y829948D01*
X419440Y828838D01*
X420289Y827989D01*
X421399Y827529D01*
X422601D01*
X423711Y827989D01*
X424560Y828838D01*
X425020Y829948D01*
Y831150D01*
X424560Y832260D01*
X423711Y833109D01*
X422601Y833569D01*
D02*
G37*
G36*
X500601Y833520D02*
X499399D01*
X498289Y833060D01*
X497440Y832211D01*
X496980Y831101D01*
Y829899D01*
X497440Y828789D01*
X498289Y827940D01*
X499399Y827480D01*
X500601D01*
X501711Y827940D01*
X502560Y828789D01*
X503020Y829899D01*
Y831101D01*
X502560Y832211D01*
X501711Y833060D01*
X500601Y833520D01*
D02*
G37*
G36*
X216601Y828520D02*
X215399D01*
X214289Y828060D01*
X213440Y827211D01*
X212980Y826101D01*
Y824899D01*
X213440Y823789D01*
X214289Y822940D01*
X215399Y822480D01*
X216601D01*
X217711Y822940D01*
X218560Y823789D01*
X219020Y824899D01*
Y826101D01*
X218560Y827211D01*
X217711Y828060D01*
X216601Y828520D01*
D02*
G37*
G36*
X568601Y820020D02*
X567399D01*
X566289Y819560D01*
X565440Y818711D01*
X564980Y817601D01*
Y816399D01*
X565440Y815289D01*
X566289Y814440D01*
X567399Y813980D01*
X568601D01*
X569711Y814440D01*
X570560Y815289D01*
X571020Y816399D01*
Y817601D01*
X570560Y818711D01*
X569711Y819560D01*
X568601Y820020D01*
D02*
G37*
G36*
X421601Y816020D02*
X420399D01*
X419289Y815560D01*
X418440Y814711D01*
X417980Y813601D01*
Y812399D01*
X418440Y811289D01*
X419289Y810440D01*
X420399Y809980D01*
X421601D01*
X422711Y810440D01*
X423560Y811289D01*
X424020Y812399D01*
Y813601D01*
X423560Y814711D01*
X422711Y815560D01*
X421601Y816020D01*
D02*
G37*
G36*
X506601Y808520D02*
X505399D01*
X504289Y808060D01*
X503440Y807211D01*
X502980Y806101D01*
Y804899D01*
X503440Y803789D01*
X504289Y802940D01*
X505399Y802480D01*
X506601D01*
X507711Y802940D01*
X508560Y803789D01*
X509020Y804899D01*
Y806101D01*
X508560Y807211D01*
X507711Y808060D01*
X506601Y808520D01*
D02*
G37*
G36*
X568459Y800385D02*
X567257D01*
X566147Y799926D01*
X565298Y799076D01*
X564838Y797966D01*
Y796765D01*
X565298Y795655D01*
X566147Y794805D01*
X567257Y794345D01*
X568459D01*
X569569Y794805D01*
X570418Y795655D01*
X570878Y796765D01*
Y797966D01*
X570418Y799076D01*
X569569Y799926D01*
X568459Y800385D01*
D02*
G37*
G36*
X305601Y793020D02*
X304399D01*
X303289Y792560D01*
X302440Y791711D01*
X301980Y790601D01*
Y789399D01*
X302440Y788289D01*
X303289Y787440D01*
X304399Y786980D01*
X305601D01*
X306711Y787440D01*
X307560Y788289D01*
X308020Y789399D01*
Y790601D01*
X307560Y791711D01*
X306711Y792560D01*
X305601Y793020D01*
D02*
G37*
G36*
X344101Y792520D02*
X342899D01*
X341789Y792060D01*
X340940Y791211D01*
X340480Y790101D01*
Y788899D01*
X340940Y787789D01*
X341789Y786940D01*
X342899Y786480D01*
X344101D01*
X345211Y786940D01*
X346060Y787789D01*
X346520Y788899D01*
Y790101D01*
X346060Y791211D01*
X345211Y792060D01*
X344101Y792520D01*
D02*
G37*
G36*
X501775Y786057D02*
X500574D01*
X499464Y785597D01*
X498614Y784748D01*
X498154Y783638D01*
Y782437D01*
X498614Y781327D01*
X499464Y780477D01*
X500574Y780017D01*
X501775D01*
X502885Y780477D01*
X503734Y781327D01*
X504194Y782437D01*
Y783638D01*
X503734Y784748D01*
X502885Y785597D01*
X501775Y786057D01*
D02*
G37*
G36*
X140038Y784660D02*
X139970D01*
Y775770D01*
X148860D01*
Y775838D01*
X148168Y778422D01*
X146830Y780738D01*
X144938Y782630D01*
X142622Y783968D01*
X140038Y784660D01*
D02*
G37*
G36*
X137430D02*
X137362D01*
X134778Y783968D01*
X132462Y782630D01*
X130570Y780738D01*
X129232Y778422D01*
X128540Y775838D01*
Y775770D01*
X137430D01*
Y784660D01*
D02*
G37*
G36*
X454601Y779020D02*
X453399D01*
X452289Y778560D01*
X451440Y777711D01*
X450980Y776601D01*
Y775399D01*
X451440Y774289D01*
X452289Y773440D01*
X453399Y772980D01*
X454601D01*
X455711Y773440D01*
X456560Y774289D01*
X457020Y775399D01*
Y776601D01*
X456560Y777711D01*
X455711Y778560D01*
X454601Y779020D01*
D02*
G37*
G36*
X396601Y772520D02*
X395399D01*
X394289Y772060D01*
X393440Y771211D01*
X392980Y770101D01*
Y768899D01*
X393440Y767789D01*
X394289Y766940D01*
X395399Y766480D01*
X396601D01*
X397711Y766940D01*
X398560Y767789D01*
X399020Y768899D01*
Y770101D01*
X398560Y771211D01*
X397711Y772060D01*
X396601Y772520D01*
D02*
G37*
G36*
X216070Y783390D02*
X213730D01*
X211469Y782784D01*
X209441Y781614D01*
X207786Y779959D01*
X206616Y777931D01*
X206010Y775670D01*
Y773330D01*
X206616Y771069D01*
X207786Y769041D01*
X209441Y767386D01*
X211469Y766216D01*
X213730Y765610D01*
X216070D01*
X218331Y766216D01*
X220359Y767386D01*
X222014Y769041D01*
X223184Y771069D01*
X223790Y773330D01*
Y775670D01*
X223184Y777931D01*
X222014Y779959D01*
X220359Y781614D01*
X218331Y782784D01*
X216070Y783390D01*
D02*
G37*
G36*
X190670D02*
X188330D01*
X186069Y782784D01*
X184041Y781614D01*
X182386Y779959D01*
X181216Y777931D01*
X180610Y775670D01*
Y773330D01*
X181216Y771069D01*
X182386Y769041D01*
X184041Y767386D01*
X186069Y766216D01*
X188330Y765610D01*
X190670D01*
X192931Y766216D01*
X194959Y767386D01*
X196614Y769041D01*
X197784Y771069D01*
X198390Y773330D01*
Y775670D01*
X197784Y777931D01*
X196614Y779959D01*
X194959Y781614D01*
X192931Y782784D01*
X190670Y783390D01*
D02*
G37*
G36*
X165270D02*
X162930D01*
X160669Y782784D01*
X158641Y781614D01*
X156986Y779959D01*
X155816Y777931D01*
X155210Y775670D01*
Y773330D01*
X155816Y771069D01*
X156986Y769041D01*
X158641Y767386D01*
X160669Y766216D01*
X162930Y765610D01*
X165270D01*
X167531Y766216D01*
X169559Y767386D01*
X171214Y769041D01*
X172384Y771069D01*
X172990Y773330D01*
Y775670D01*
X172384Y777931D01*
X171214Y779959D01*
X169559Y781614D01*
X167531Y782784D01*
X165270Y783390D01*
D02*
G37*
G36*
X148860Y773230D02*
X139970D01*
Y764340D01*
X140038D01*
X142622Y765032D01*
X144938Y766370D01*
X146830Y768262D01*
X148168Y770578D01*
X148860Y773162D01*
Y773230D01*
D02*
G37*
G36*
X137430D02*
X128540D01*
Y773162D01*
X129232Y770578D01*
X130570Y768262D01*
X132462Y766370D01*
X134778Y765032D01*
X137362Y764340D01*
X137430D01*
Y773230D01*
D02*
G37*
G36*
X507601Y770150D02*
X506399D01*
X505289Y769690D01*
X504440Y768841D01*
X503980Y767731D01*
Y766529D01*
X504440Y765419D01*
X505289Y764570D01*
X506399Y764110D01*
X507601D01*
X508711Y764570D01*
X509560Y765419D01*
X510020Y766529D01*
Y767731D01*
X509560Y768841D01*
X508711Y769690D01*
X507601Y770150D01*
D02*
G37*
G36*
X493981Y748139D02*
X492780D01*
X491670Y747680D01*
X490820Y746830D01*
X490360Y745720D01*
Y744519D01*
X490820Y743409D01*
X491670Y742559D01*
X492780Y742100D01*
X493981D01*
X495091Y742559D01*
X495941Y743409D01*
X496400Y744519D01*
Y745720D01*
X495941Y746830D01*
X495091Y747680D01*
X493981Y748139D01*
D02*
G37*
G36*
X461526Y747595D02*
X460324D01*
X459214Y747135D01*
X458365Y746286D01*
X457905Y745176D01*
Y743974D01*
X458365Y742864D01*
X459214Y742015D01*
X460324Y741555D01*
X461526D01*
X462636Y742015D01*
X463485Y742864D01*
X463945Y743974D01*
Y745176D01*
X463485Y746286D01*
X462636Y747135D01*
X461526Y747595D01*
D02*
G37*
G36*
X501101Y744520D02*
X499899D01*
X498789Y744060D01*
X497940Y743211D01*
X497480Y742101D01*
Y740899D01*
X497940Y739789D01*
X498789Y738940D01*
X499899Y738480D01*
X501101D01*
X502211Y738940D01*
X503060Y739789D01*
X503520Y740899D01*
Y742101D01*
X503060Y743211D01*
X502211Y744060D01*
X501101Y744520D01*
D02*
G37*
G36*
X581601Y743020D02*
X580399D01*
X579289Y742560D01*
X578440Y741711D01*
X577980Y740601D01*
Y739399D01*
X578440Y738289D01*
X579289Y737440D01*
X580399Y736980D01*
X581601D01*
X582711Y737440D01*
X583560Y738289D01*
X584020Y739399D01*
Y740601D01*
X583560Y741711D01*
X582711Y742560D01*
X581601Y743020D01*
D02*
G37*
G36*
X477101Y742520D02*
X475899D01*
X474789Y742060D01*
X473940Y741211D01*
X473480Y740101D01*
Y738899D01*
X473940Y737789D01*
X474789Y736940D01*
X475899Y736480D01*
X477101D01*
X478211Y736940D01*
X479060Y737789D01*
X479520Y738899D01*
Y740101D01*
X479060Y741211D01*
X478211Y742060D01*
X477101Y742520D01*
D02*
G37*
G36*
X266599Y788170D02*
X262401D01*
X258255Y787513D01*
X254262Y786216D01*
X250522Y784310D01*
X247126Y781843D01*
X244157Y778874D01*
X241690Y775478D01*
X239784Y771738D01*
X238487Y767745D01*
X237830Y763599D01*
Y759401D01*
X238487Y755255D01*
X239784Y751262D01*
X241690Y747522D01*
X244157Y744126D01*
X247126Y741157D01*
X250522Y738690D01*
X254262Y736784D01*
X258255Y735487D01*
X262401Y734830D01*
X266599D01*
X270745Y735487D01*
X274738Y736784D01*
X278478Y738690D01*
X281874Y741157D01*
X284843Y744126D01*
X287310Y747522D01*
X289216Y751262D01*
X290513Y755255D01*
X291170Y759401D01*
Y763599D01*
X290513Y767745D01*
X289216Y771738D01*
X287310Y775478D01*
X284843Y778874D01*
X281874Y781843D01*
X278478Y784310D01*
X274738Y786216D01*
X270745Y787513D01*
X266599Y788170D01*
D02*
G37*
G36*
X408101Y736520D02*
X406899D01*
X405789Y736060D01*
X404940Y735211D01*
X404480Y734101D01*
Y732899D01*
X404940Y731789D01*
X405789Y730940D01*
X406899Y730480D01*
X408101D01*
X409211Y730940D01*
X410060Y731789D01*
X410520Y732899D01*
Y734101D01*
X410060Y735211D01*
X409211Y736060D01*
X408101Y736520D01*
D02*
G37*
G36*
X446537Y733715D02*
X445335D01*
X444226Y733255D01*
X443376Y732405D01*
X442916Y731295D01*
Y730094D01*
X443376Y728984D01*
X444226Y728134D01*
X445335Y727674D01*
X446537D01*
X447647Y728134D01*
X448496Y728984D01*
X448956Y730094D01*
Y731295D01*
X448496Y732405D01*
X447647Y733255D01*
X446537Y733715D01*
D02*
G37*
G36*
X474101Y732520D02*
X472899D01*
X471789Y732060D01*
X470940Y731211D01*
X470480Y730101D01*
Y728899D01*
X470940Y727789D01*
X471789Y726940D01*
X472899Y726480D01*
X474101D01*
X475211Y726940D01*
X476060Y727789D01*
X476520Y728899D01*
Y730101D01*
X476060Y731211D01*
X475211Y732060D01*
X474101Y732520D01*
D02*
G37*
G36*
X411101Y724520D02*
X409899D01*
X408789Y724060D01*
X407940Y723211D01*
X407480Y722101D01*
Y720899D01*
X407940Y719789D01*
X408789Y718940D01*
X409899Y718480D01*
X411101D01*
X412211Y718940D01*
X413060Y719789D01*
X413520Y720899D01*
Y722101D01*
X413060Y723211D01*
X412211Y724060D01*
X411101Y724520D01*
D02*
G37*
G36*
X443101Y723520D02*
X441899D01*
X440789Y723060D01*
X439940Y722211D01*
X439480Y721101D01*
Y719899D01*
X439940Y718789D01*
X440789Y717940D01*
X441899Y717480D01*
X443101D01*
X444211Y717940D01*
X445060Y718789D01*
X445520Y719899D01*
Y721101D01*
X445060Y722211D01*
X444211Y723060D01*
X443101Y723520D01*
D02*
G37*
G36*
X343601Y715020D02*
X342399D01*
X341289Y714560D01*
X340440Y713711D01*
X339980Y712601D01*
Y711399D01*
X340440Y710289D01*
X341289Y709440D01*
X342399Y708980D01*
X343601D01*
X344711Y709440D01*
X345560Y710289D01*
X346020Y711399D01*
Y712601D01*
X345560Y713711D01*
X344711Y714560D01*
X343601Y715020D01*
D02*
G37*
G36*
X443101Y712520D02*
X441899D01*
X440789Y712060D01*
X439940Y711211D01*
X439480Y710101D01*
Y708899D01*
X439940Y707789D01*
X440789Y706940D01*
X441899Y706480D01*
X443101D01*
X444211Y706940D01*
X445060Y707789D01*
X445520Y708899D01*
Y710101D01*
X445060Y711211D01*
X444211Y712060D01*
X443101Y712520D01*
D02*
G37*
G36*
X341101Y704520D02*
X339899D01*
X338789Y704060D01*
X337940Y703211D01*
X337480Y702101D01*
Y700899D01*
X337940Y699789D01*
X338789Y698940D01*
X339899Y698480D01*
X341101D01*
X342211Y698940D01*
X343060Y699789D01*
X343520Y700899D01*
Y702101D01*
X343060Y703211D01*
X342211Y704060D01*
X341101Y704520D01*
D02*
G37*
G36*
X512601Y702520D02*
X511399D01*
X510289Y702060D01*
X509440Y701211D01*
X508980Y700101D01*
Y698899D01*
X509440Y697789D01*
X510289Y696940D01*
X511399Y696480D01*
X512601D01*
X513711Y696940D01*
X514560Y697789D01*
X515020Y698899D01*
Y700101D01*
X514560Y701211D01*
X513711Y702060D01*
X512601Y702520D01*
D02*
G37*
G36*
X454601Y692520D02*
X453399D01*
X452289Y692060D01*
X451440Y691211D01*
X450980Y690101D01*
Y688899D01*
X451440Y687789D01*
X452289Y686940D01*
X453399Y686480D01*
X454601D01*
X455711Y686940D01*
X456560Y687789D01*
X457020Y688899D01*
Y690101D01*
X456560Y691211D01*
X455711Y692060D01*
X454601Y692520D01*
D02*
G37*
G36*
X437101Y672020D02*
X435899D01*
X434789Y671560D01*
X433940Y670711D01*
X433480Y669601D01*
Y668399D01*
X433940Y667289D01*
X434789Y666440D01*
X435899Y665980D01*
X437101D01*
X438211Y666440D01*
X439060Y667289D01*
X439520Y668399D01*
Y669601D01*
X439060Y670711D01*
X438211Y671560D01*
X437101Y672020D01*
D02*
G37*
G36*
X530601Y622520D02*
X529399D01*
X528289Y622060D01*
X527440Y621211D01*
X526980Y620101D01*
Y618899D01*
X527440Y617789D01*
X528289Y616940D01*
X529399Y616480D01*
X530601D01*
X531711Y616940D01*
X532560Y617789D01*
X533020Y618899D01*
Y620101D01*
X532560Y621211D01*
X531711Y622060D01*
X530601Y622520D01*
D02*
G37*
G36*
X541601Y622020D02*
X540399D01*
X539289Y621560D01*
X538440Y620711D01*
X537980Y619601D01*
Y618399D01*
X538440Y617289D01*
X539289Y616440D01*
X540399Y615980D01*
X541601D01*
X542711Y616440D01*
X543560Y617289D01*
X544020Y618399D01*
Y619601D01*
X543560Y620711D01*
X542711Y621560D01*
X541601Y622020D01*
D02*
G37*
G36*
X176599Y661170D02*
X172401D01*
X168255Y660513D01*
X164262Y659216D01*
X160522Y657310D01*
X157126Y654843D01*
X154157Y651874D01*
X151690Y648478D01*
X149784Y644738D01*
X148487Y640745D01*
X147830Y636599D01*
Y632401D01*
X148487Y628255D01*
X149784Y624262D01*
X151690Y620522D01*
X154157Y617126D01*
X157126Y614157D01*
X160522Y611690D01*
X164262Y609784D01*
X168255Y608487D01*
X172401Y607830D01*
X176599D01*
X180745Y608487D01*
X184738Y609784D01*
X188478Y611690D01*
X191874Y614157D01*
X194843Y617126D01*
X197310Y620522D01*
X199216Y624262D01*
X200513Y628255D01*
X201170Y632401D01*
Y636599D01*
X200513Y640745D01*
X199216Y644738D01*
X197310Y648478D01*
X194843Y651874D01*
X191874Y654843D01*
X188478Y657310D01*
X184738Y659216D01*
X180745Y660513D01*
X176599Y661170D01*
D02*
G37*
G36*
X410599Y661170D02*
X406401D01*
X402255Y660513D01*
X398262Y659216D01*
X394522Y657310D01*
X391126Y654843D01*
X388157Y651874D01*
X385690Y648478D01*
X383784Y644738D01*
X382487Y640745D01*
X381830Y636599D01*
Y632401D01*
X382487Y628255D01*
X383784Y624262D01*
X385690Y620522D01*
X388157Y617126D01*
X391126Y614157D01*
X394522Y611690D01*
X398262Y609784D01*
X402255Y608487D01*
X406401Y607830D01*
X410599D01*
X414745Y608487D01*
X418738Y609784D01*
X422478Y611690D01*
X425874Y614157D01*
X428843Y617126D01*
X431310Y620522D01*
X433216Y624262D01*
X434513Y628255D01*
X435170Y632401D01*
Y636599D01*
X434513Y640745D01*
X433216Y644738D01*
X431310Y648478D01*
X428843Y651874D01*
X425874Y654843D01*
X422478Y657310D01*
X418738Y659216D01*
X414745Y660513D01*
X410599Y661170D01*
D02*
G37*
G36*
X524601Y603520D02*
X523399D01*
X522289Y603060D01*
X521440Y602211D01*
X520980Y601101D01*
Y599899D01*
X521440Y598789D01*
X522289Y597940D01*
X523399Y597480D01*
X524601D01*
X525711Y597940D01*
X526560Y598789D01*
X527020Y599899D01*
Y601101D01*
X526560Y602211D01*
X525711Y603060D01*
X524601Y603520D01*
D02*
G37*
G36*
X491601D02*
X490399D01*
X489289Y603060D01*
X488440Y602211D01*
X487980Y601101D01*
Y599899D01*
X488440Y598789D01*
X489289Y597940D01*
X490399Y597480D01*
X491601D01*
X492711Y597940D01*
X493560Y598789D01*
X494020Y599899D01*
Y601101D01*
X493560Y602211D01*
X492711Y603060D01*
X491601Y603520D01*
D02*
G37*
G36*
X343578Y588173D02*
X342376D01*
X341266Y587713D01*
X340417Y586864D01*
X339957Y585754D01*
Y584552D01*
X340417Y583442D01*
X341266Y582593D01*
X342376Y582133D01*
X343578D01*
X344688Y582593D01*
X345537Y583442D01*
X345997Y584552D01*
Y585754D01*
X345537Y586864D01*
X344688Y587713D01*
X343578Y588173D01*
D02*
G37*
G36*
X617648Y591270D02*
X615352D01*
X613232Y590392D01*
X611608Y588768D01*
X610730Y586648D01*
Y584352D01*
X611608Y582232D01*
X613232Y580608D01*
X615352Y579730D01*
X617648D01*
X619768Y580608D01*
X621391Y582232D01*
X622270Y584352D01*
Y586648D01*
X621391Y588768D01*
X619768Y590392D01*
X617648Y591270D01*
D02*
G37*
G36*
X343601Y580150D02*
X342399D01*
X341289Y579690D01*
X340440Y578841D01*
X339980Y577731D01*
Y576529D01*
X340440Y575419D01*
X341289Y574570D01*
X342399Y574110D01*
X343601D01*
X344711Y574570D01*
X345560Y575419D01*
X346020Y576529D01*
Y577731D01*
X345560Y578841D01*
X344711Y579690D01*
X343601Y580150D01*
D02*
G37*
G36*
X341676Y571020D02*
X340474D01*
X339364Y570560D01*
X338515Y569711D01*
X338055Y568601D01*
Y567399D01*
X338515Y566289D01*
X339364Y565440D01*
X340474Y564980D01*
X341676D01*
X342786Y565440D01*
X343635Y566289D01*
X344095Y567399D01*
Y568601D01*
X343635Y569711D01*
X342786Y570560D01*
X341676Y571020D01*
D02*
G37*
G36*
X343101Y558020D02*
X341899D01*
X340789Y557560D01*
X339940Y556711D01*
X339480Y555601D01*
Y554399D01*
X339940Y553289D01*
X340789Y552440D01*
X341899Y551980D01*
X343101D01*
X344211Y552440D01*
X345060Y553289D01*
X345520Y554399D01*
Y555601D01*
X345060Y556711D01*
X344211Y557560D01*
X343101Y558020D01*
D02*
G37*
G36*
X617648Y561270D02*
X615352D01*
X613232Y560392D01*
X611608Y558768D01*
X610730Y556648D01*
Y554352D01*
X611608Y552232D01*
X613232Y550608D01*
X615352Y549730D01*
X617648D01*
X619768Y550608D01*
X621391Y552232D01*
X622270Y554352D01*
Y556648D01*
X621391Y558768D01*
X619768Y560392D01*
X617648Y561270D01*
D02*
G37*
G36*
X491970Y563890D02*
X489630D01*
X487369Y563284D01*
X485341Y562114D01*
X483686Y560459D01*
X482516Y558431D01*
X481910Y556170D01*
Y553830D01*
X482516Y551569D01*
X483686Y549541D01*
X485341Y547886D01*
X487369Y546716D01*
X489630Y546110D01*
X491970D01*
X494231Y546716D01*
X496259Y547886D01*
X497914Y549541D01*
X499084Y551569D01*
X499690Y553830D01*
Y556170D01*
X499084Y558431D01*
X497914Y560459D01*
X496259Y562114D01*
X494231Y563284D01*
X491970Y563890D01*
D02*
G37*
G36*
X466570D02*
X464230D01*
X461969Y563284D01*
X459941Y562114D01*
X458286Y560459D01*
X457116Y558431D01*
X456510Y556170D01*
Y553830D01*
X457116Y551569D01*
X458286Y549541D01*
X459941Y547886D01*
X461969Y546716D01*
X464230Y546110D01*
X466570D01*
X468831Y546716D01*
X470859Y547886D01*
X472514Y549541D01*
X473684Y551569D01*
X474290Y553830D01*
Y556170D01*
X473684Y558431D01*
X472514Y560459D01*
X470859Y562114D01*
X468831Y563284D01*
X466570Y563890D01*
D02*
G37*
G36*
X441170D02*
X438830D01*
X436569Y563284D01*
X434541Y562114D01*
X432886Y560459D01*
X431716Y558431D01*
X431110Y556170D01*
Y553830D01*
X431716Y551569D01*
X432886Y549541D01*
X434541Y547886D01*
X436569Y546716D01*
X438830Y546110D01*
X441170D01*
X443431Y546716D01*
X445459Y547886D01*
X447114Y549541D01*
X448284Y551569D01*
X448890Y553830D01*
Y556170D01*
X448284Y558431D01*
X447114Y560459D01*
X445459Y562114D01*
X443431Y563284D01*
X441170Y563890D01*
D02*
G37*
G36*
X415770D02*
X413430D01*
X411169Y563284D01*
X409141Y562114D01*
X407486Y560459D01*
X406316Y558431D01*
X405710Y556170D01*
Y553830D01*
X406316Y551569D01*
X407486Y549541D01*
X409141Y547886D01*
X411169Y546716D01*
X413430Y546110D01*
X415770D01*
X418031Y546716D01*
X420059Y547886D01*
X421714Y549541D01*
X422884Y551569D01*
X423490Y553830D01*
Y556170D01*
X422884Y558431D01*
X421714Y560459D01*
X420059Y562114D01*
X418031Y563284D01*
X415770Y563890D01*
D02*
G37*
G36*
X390370D02*
X388030D01*
X385769Y563284D01*
X383741Y562114D01*
X382086Y560459D01*
X380916Y558431D01*
X380310Y556170D01*
Y553830D01*
X380916Y551569D01*
X382086Y549541D01*
X383741Y547886D01*
X385769Y546716D01*
X388030Y546110D01*
X390370D01*
X392631Y546716D01*
X394659Y547886D01*
X396314Y549541D01*
X397484Y551569D01*
X398090Y553830D01*
Y556170D01*
X397484Y558431D01*
X396314Y560459D01*
X394659Y562114D01*
X392631Y563284D01*
X390370Y563890D01*
D02*
G37*
G36*
X313101Y551150D02*
X311899D01*
X310789Y550690D01*
X309940Y549841D01*
X309480Y548731D01*
Y547529D01*
X309940Y546419D01*
X310789Y545570D01*
X311899Y545110D01*
X313101D01*
X314211Y545570D01*
X315060Y546419D01*
X315520Y547529D01*
Y548731D01*
X315060Y549841D01*
X314211Y550690D01*
X313101Y551150D01*
D02*
G37*
G36*
X344101Y549650D02*
X342899D01*
X341789Y549190D01*
X340940Y548341D01*
X340480Y547231D01*
Y546029D01*
X340940Y544919D01*
X341789Y544070D01*
X342899Y543610D01*
X344101D01*
X345211Y544070D01*
X346060Y544919D01*
X346520Y546029D01*
Y547231D01*
X346060Y548341D01*
X345211Y549190D01*
X344101Y549650D01*
D02*
G37*
G36*
X492138Y539760D02*
X492070D01*
Y530870D01*
X500960D01*
Y530938D01*
X500268Y533522D01*
X498930Y535838D01*
X497038Y537730D01*
X494722Y539068D01*
X492138Y539760D01*
D02*
G37*
G36*
X489530D02*
X489462D01*
X486878Y539068D01*
X484562Y537730D01*
X482670Y535838D01*
X481332Y533522D01*
X480640Y530938D01*
Y530870D01*
X489530D01*
Y539760D01*
D02*
G37*
G36*
X466570Y538490D02*
X464230D01*
X461969Y537884D01*
X459941Y536714D01*
X458286Y535059D01*
X457116Y533031D01*
X456510Y530770D01*
Y528430D01*
X457116Y526169D01*
X458286Y524141D01*
X459941Y522486D01*
X461969Y521316D01*
X464230Y520710D01*
X466570D01*
X468831Y521316D01*
X470859Y522486D01*
X472514Y524141D01*
X473684Y526169D01*
X474290Y528430D01*
Y530770D01*
X473684Y533031D01*
X472514Y535059D01*
X470859Y536714D01*
X468831Y537884D01*
X466570Y538490D01*
D02*
G37*
G36*
X441170D02*
X438830D01*
X436569Y537884D01*
X434541Y536714D01*
X432886Y535059D01*
X431716Y533031D01*
X431110Y530770D01*
Y528430D01*
X431716Y526169D01*
X432886Y524141D01*
X434541Y522486D01*
X436569Y521316D01*
X438830Y520710D01*
X441170D01*
X443431Y521316D01*
X445459Y522486D01*
X447114Y524141D01*
X448284Y526169D01*
X448890Y528430D01*
Y530770D01*
X448284Y533031D01*
X447114Y535059D01*
X445459Y536714D01*
X443431Y537884D01*
X441170Y538490D01*
D02*
G37*
G36*
X415770D02*
X413430D01*
X411169Y537884D01*
X409141Y536714D01*
X407486Y535059D01*
X406316Y533031D01*
X405710Y530770D01*
Y528430D01*
X406316Y526169D01*
X407486Y524141D01*
X409141Y522486D01*
X411169Y521316D01*
X413430Y520710D01*
X415770D01*
X418031Y521316D01*
X420059Y522486D01*
X421714Y524141D01*
X422884Y526169D01*
X423490Y528430D01*
Y530770D01*
X422884Y533031D01*
X421714Y535059D01*
X420059Y536714D01*
X418031Y537884D01*
X415770Y538490D01*
D02*
G37*
G36*
X390370D02*
X388030D01*
X385769Y537884D01*
X383741Y536714D01*
X382086Y535059D01*
X380916Y533031D01*
X380310Y530770D01*
Y528430D01*
X380916Y526169D01*
X382086Y524141D01*
X383741Y522486D01*
X385769Y521316D01*
X388030Y520710D01*
X390370D01*
X392631Y521316D01*
X394659Y522486D01*
X396314Y524141D01*
X397484Y526169D01*
X398090Y528430D01*
Y530770D01*
X397484Y533031D01*
X396314Y535059D01*
X394659Y536714D01*
X392631Y537884D01*
X390370Y538490D01*
D02*
G37*
G36*
X500960Y528330D02*
X492070D01*
Y519440D01*
X492138D01*
X494722Y520132D01*
X497038Y521470D01*
X498930Y523362D01*
X500268Y525678D01*
X500960Y528262D01*
Y528330D01*
D02*
G37*
G36*
X489530D02*
X480640D01*
Y528262D01*
X481332Y525678D01*
X482670Y523362D01*
X484562Y521470D01*
X486878Y520132D01*
X489462Y519440D01*
X489530D01*
Y528330D01*
D02*
G37*
G36*
X541170Y534690D02*
X538830D01*
X536569Y534084D01*
X534541Y532914D01*
X532886Y531259D01*
X531716Y529231D01*
X531110Y526970D01*
Y524630D01*
X531716Y522369D01*
X532886Y520341D01*
X534541Y518686D01*
X536569Y517516D01*
X538830Y516910D01*
X541170D01*
X543431Y517516D01*
X545459Y518686D01*
X547114Y520341D01*
X548284Y522369D01*
X548890Y524630D01*
Y526970D01*
X548284Y529231D01*
X547114Y531259D01*
X545459Y532914D01*
X543431Y534084D01*
X541170Y534690D01*
D02*
G37*
G36*
X466001Y512965D02*
X464799D01*
X463689Y512505D01*
X462840Y511656D01*
X462380Y510546D01*
Y509344D01*
X462840Y508234D01*
X463689Y507385D01*
X464799Y506925D01*
X466001D01*
X467111Y507385D01*
X467960Y508234D01*
X468420Y509344D01*
Y510546D01*
X467960Y511656D01*
X467111Y512505D01*
X466001Y512965D01*
D02*
G37*
G36*
X477911Y510298D02*
X476710D01*
X475600Y509838D01*
X474750Y508989D01*
X474290Y507879D01*
Y506677D01*
X474750Y505567D01*
X475600Y504718D01*
X476710Y504258D01*
X477911D01*
X479021Y504718D01*
X479870Y505567D01*
X480330Y506677D01*
Y507879D01*
X479870Y508989D01*
X479021Y509838D01*
X477911Y510298D01*
D02*
G37*
G36*
X500101Y509786D02*
X498899D01*
X497789Y509326D01*
X496940Y508477D01*
X496480Y507367D01*
Y506165D01*
X496940Y505055D01*
X497789Y504206D01*
X498899Y503746D01*
X500101D01*
X501211Y504206D01*
X502060Y505055D01*
X502520Y506165D01*
Y507367D01*
X502060Y508477D01*
X501211Y509326D01*
X500101Y509786D01*
D02*
G37*
G36*
X508101Y508520D02*
X506899D01*
X505789Y508060D01*
X504940Y507211D01*
X504480Y506101D01*
Y504899D01*
X504940Y503789D01*
X505789Y502940D01*
X506899Y502480D01*
X508101D01*
X509211Y502940D01*
X510060Y503789D01*
X510520Y504899D01*
Y506101D01*
X510060Y507211D01*
X509211Y508060D01*
X508101Y508520D01*
D02*
G37*
G36*
X312601Y498020D02*
X311399D01*
X310289Y497560D01*
X309440Y496711D01*
X308980Y495601D01*
Y494399D01*
X309440Y493289D01*
X310289Y492440D01*
X311399Y491980D01*
X312601D01*
X313711Y492440D01*
X314560Y493289D01*
X315020Y494399D01*
Y495601D01*
X314560Y496711D01*
X313711Y497560D01*
X312601Y498020D01*
D02*
G37*
G36*
X541170Y509290D02*
X538830D01*
X536569Y508684D01*
X534541Y507514D01*
X532886Y505859D01*
X531716Y503831D01*
X531110Y501570D01*
Y499230D01*
X531716Y496969D01*
X532886Y494941D01*
X534541Y493286D01*
X536569Y492116D01*
X538830Y491510D01*
X541170D01*
X543431Y492116D01*
X545459Y493286D01*
X547114Y494941D01*
X548284Y496969D01*
X548890Y499230D01*
Y501570D01*
X548284Y503831D01*
X547114Y505859D01*
X545459Y507514D01*
X543431Y508684D01*
X541170Y509290D01*
D02*
G37*
G36*
X485101Y493020D02*
X483899D01*
X482789Y492560D01*
X481940Y491711D01*
X481480Y490601D01*
Y489399D01*
X481940Y488289D01*
X482789Y487440D01*
X483899Y486980D01*
X485101D01*
X486211Y487440D01*
X487060Y488289D01*
X487520Y489399D01*
Y490601D01*
X487060Y491711D01*
X486211Y492560D01*
X485101Y493020D01*
D02*
G37*
G36*
X447101D02*
X445899D01*
X444789Y492560D01*
X443940Y491711D01*
X443480Y490601D01*
Y489399D01*
X443940Y488289D01*
X444789Y487440D01*
X445899Y486980D01*
X447101D01*
X448211Y487440D01*
X449060Y488289D01*
X449520Y489399D01*
Y490601D01*
X449060Y491711D01*
X448211Y492560D01*
X447101Y493020D01*
D02*
G37*
G36*
X407101D02*
X405899D01*
X404789Y492560D01*
X403940Y491711D01*
X403480Y490601D01*
Y489399D01*
X403940Y488289D01*
X404789Y487440D01*
X405899Y486980D01*
X407101D01*
X408211Y487440D01*
X409060Y488289D01*
X409520Y489399D01*
Y490601D01*
X409060Y491711D01*
X408211Y492560D01*
X407101Y493020D01*
D02*
G37*
G36*
X325118Y490020D02*
X323916D01*
X322806Y489560D01*
X321957Y488711D01*
X321497Y487601D01*
Y486399D01*
X321957Y485289D01*
X322806Y484440D01*
X323916Y483980D01*
X325118D01*
X326227Y484440D01*
X327077Y485289D01*
X327537Y486399D01*
Y487601D01*
X327077Y488711D01*
X326227Y489560D01*
X325118Y490020D01*
D02*
G37*
G36*
X338468Y493655D02*
X337266D01*
X336156Y493195D01*
X335307Y492346D01*
X334847Y491236D01*
Y490034D01*
X335307Y488924D01*
X336038Y488193D01*
X336035Y487458D01*
X335907Y486804D01*
X335319Y486560D01*
X334470Y485711D01*
X334010Y484601D01*
Y483399D01*
X334470Y482289D01*
X335319Y481440D01*
X336429Y480980D01*
X337631D01*
X338741Y481440D01*
X339590Y482289D01*
X340050Y483399D01*
Y484601D01*
X339590Y485711D01*
X338859Y486442D01*
X338862Y487177D01*
X338990Y487831D01*
X339578Y488075D01*
X340427Y488924D01*
X340887Y490034D01*
Y491236D01*
X340427Y492346D01*
X339578Y493195D01*
X338468Y493655D01*
D02*
G37*
G36*
X581601Y473520D02*
X580399D01*
X579289Y473060D01*
X578440Y472211D01*
X577980Y471101D01*
Y469899D01*
X578440Y468789D01*
X579289Y467940D01*
X580399Y467480D01*
X581601D01*
X582711Y467940D01*
X583560Y468789D01*
X584020Y469899D01*
Y471101D01*
X583560Y472211D01*
X582711Y473060D01*
X581601Y473520D01*
D02*
G37*
G36*
X541170Y483890D02*
X538830D01*
X536569Y483284D01*
X534541Y482114D01*
X532886Y480459D01*
X531716Y478431D01*
X531110Y476170D01*
Y473830D01*
X531716Y471569D01*
X532886Y469541D01*
X534541Y467886D01*
X536569Y466716D01*
X538830Y466110D01*
X541170D01*
X543431Y466716D01*
X545459Y467886D01*
X547114Y469541D01*
X548284Y471569D01*
X548890Y473830D01*
Y476170D01*
X548284Y478431D01*
X547114Y480459D01*
X545459Y482114D01*
X543431Y483284D01*
X541170Y483890D01*
D02*
G37*
G36*
X565958Y462853D02*
X564757D01*
X563647Y462393D01*
X562797Y461544D01*
X562338Y460434D01*
Y459232D01*
X562797Y458123D01*
X563647Y457273D01*
X564757Y456813D01*
X565958D01*
X567068Y457273D01*
X567918Y458123D01*
X568378Y459232D01*
Y460434D01*
X567918Y461544D01*
X567068Y462393D01*
X565958Y462853D01*
D02*
G37*
G36*
X630601Y458520D02*
X629399D01*
X628289Y458060D01*
X627440Y457211D01*
X626980Y456101D01*
Y454899D01*
X627440Y453789D01*
X628289Y452940D01*
X629399Y452480D01*
X630601D01*
X631711Y452940D01*
X632560Y453789D01*
X633020Y454899D01*
Y456101D01*
X632560Y457211D01*
X631711Y458060D01*
X630601Y458520D01*
D02*
G37*
G36*
X541338Y459760D02*
X541270D01*
Y450870D01*
X550160D01*
Y450938D01*
X549468Y453522D01*
X548130Y455838D01*
X546238Y457730D01*
X543922Y459068D01*
X541338Y459760D01*
D02*
G37*
G36*
X538730D02*
X538662D01*
X536078Y459068D01*
X533762Y457730D01*
X531870Y455838D01*
X530532Y453522D01*
X529840Y450938D01*
Y450870D01*
X538730D01*
Y459760D01*
D02*
G37*
G36*
X580601Y452520D02*
X579399D01*
X578289Y452060D01*
X577440Y451211D01*
X576980Y450101D01*
Y448899D01*
X577440Y447789D01*
X578289Y446940D01*
X579399Y446480D01*
X580601D01*
X581711Y446940D01*
X582560Y447789D01*
X583020Y448899D01*
Y450101D01*
X582560Y451211D01*
X581711Y452060D01*
X580601Y452520D01*
D02*
G37*
G36*
X550160Y448330D02*
X541270D01*
Y439440D01*
X541338D01*
X543922Y440132D01*
X546238Y441470D01*
X548130Y443362D01*
X549468Y445678D01*
X550160Y448262D01*
Y448330D01*
D02*
G37*
G36*
X538730D02*
X529840D01*
Y448262D01*
X530532Y445678D01*
X531870Y443362D01*
X533762Y441470D01*
X536078Y440132D01*
X538662Y439440D01*
X538730D01*
Y448330D01*
D02*
G37*
G36*
X425480Y438322D02*
X424278D01*
X423168Y437863D01*
X422319Y437013D01*
X421859Y435903D01*
Y434702D01*
X422319Y433592D01*
X423168Y432742D01*
X424278Y432282D01*
X425480D01*
X426590Y432742D01*
X427439Y433592D01*
X427899Y434702D01*
Y435903D01*
X427439Y437013D01*
X426590Y437863D01*
X425480Y438322D01*
D02*
G37*
G36*
X312601Y424020D02*
X311399D01*
X310289Y423560D01*
X309440Y422711D01*
X308980Y421601D01*
Y420399D01*
X309440Y419289D01*
X310289Y418440D01*
X311399Y417980D01*
X312601D01*
X313711Y418440D01*
X314560Y419289D01*
X315020Y420399D01*
Y421601D01*
X314560Y422711D01*
X313711Y423560D01*
X312601Y424020D01*
D02*
G37*
G36*
X275784Y423836D02*
X274583D01*
X273473Y423377D01*
X272624Y422527D01*
X272164Y421417D01*
Y420216D01*
X272624Y419106D01*
X273473Y418256D01*
X274583Y417796D01*
X275784D01*
X276894Y418256D01*
X277744Y419106D01*
X278204Y420216D01*
Y421417D01*
X277744Y422527D01*
X276894Y423377D01*
X275784Y423836D01*
D02*
G37*
G36*
X623854Y423043D02*
X622653D01*
X621543Y422583D01*
X620693Y421733D01*
X620233Y420623D01*
Y419422D01*
X620693Y418312D01*
X621543Y417463D01*
X622653Y417003D01*
X623854D01*
X624964Y417463D01*
X625813Y418312D01*
X626273Y419422D01*
Y420623D01*
X625813Y421733D01*
X624964Y422583D01*
X623854Y423043D01*
D02*
G37*
G36*
X340101Y416520D02*
X338899D01*
X337789Y416060D01*
X336940Y415211D01*
X336480Y414101D01*
Y412899D01*
X336940Y411789D01*
X337789Y410940D01*
X338899Y410480D01*
X340101D01*
X341211Y410940D01*
X342060Y411789D01*
X342520Y412899D01*
Y414101D01*
X342060Y415211D01*
X341211Y416060D01*
X340101Y416520D01*
D02*
G37*
G36*
X321101D02*
X319899D01*
X318789Y416060D01*
X317940Y415211D01*
X317480Y414101D01*
Y412899D01*
X317940Y411789D01*
X318789Y410940D01*
X319899Y410480D01*
X321101D01*
X322211Y410940D01*
X323060Y411789D01*
X323520Y412899D01*
Y414101D01*
X323060Y415211D01*
X322211Y416060D01*
X321101Y416520D01*
D02*
G37*
G36*
X282422D02*
X281220D01*
X280110Y416060D01*
X279261Y415211D01*
X278801Y414101D01*
Y412899D01*
X279261Y411789D01*
X280110Y410940D01*
X281220Y410480D01*
X282422D01*
X283532Y410940D01*
X284381Y411789D01*
X284841Y412899D01*
Y414101D01*
X284381Y415211D01*
X283532Y416060D01*
X282422Y416520D01*
D02*
G37*
G36*
X422101Y398520D02*
X420899D01*
X419789Y398060D01*
X418940Y397211D01*
X418480Y396101D01*
Y394899D01*
X418940Y393789D01*
X419789Y392940D01*
X420899Y392480D01*
X422101D01*
X423211Y392940D01*
X424060Y393789D01*
X424520Y394899D01*
Y396101D01*
X424060Y397211D01*
X423211Y398060D01*
X422101Y398520D01*
D02*
G37*
G36*
X507601Y397520D02*
X506399D01*
X505289Y397060D01*
X504440Y396211D01*
X503980Y395101D01*
Y393899D01*
X504440Y392789D01*
X505289Y391940D01*
X506399Y391480D01*
X507601D01*
X508711Y391940D01*
X509560Y392789D01*
X510020Y393899D01*
Y395101D01*
X509560Y396211D01*
X508711Y397060D01*
X507601Y397520D01*
D02*
G37*
G36*
X339101Y393520D02*
X337899D01*
X336789Y393060D01*
X335940Y392211D01*
X335480Y391101D01*
Y389899D01*
X335940Y388789D01*
X336789Y387940D01*
X337899Y387480D01*
X339101D01*
X340211Y387940D01*
X341060Y388789D01*
X341520Y389899D01*
Y391101D01*
X341060Y392211D01*
X340211Y393060D01*
X339101Y393520D01*
D02*
G37*
G36*
X321101Y393020D02*
X319899D01*
X318789Y392560D01*
X317940Y391711D01*
X317480Y390601D01*
Y389399D01*
X317940Y388289D01*
X318789Y387440D01*
X319899Y386980D01*
X321101D01*
X322211Y387440D01*
X323060Y388289D01*
X323520Y389399D01*
Y390601D01*
X323060Y391711D01*
X322211Y392560D01*
X321101Y393020D01*
D02*
G37*
G36*
X262601Y392020D02*
X261399D01*
X260289Y391560D01*
X259440Y390711D01*
X258980Y389601D01*
Y388399D01*
X259440Y387289D01*
X260289Y386440D01*
X261399Y385980D01*
X262601D01*
X263711Y386440D01*
X264560Y387289D01*
X265020Y388399D01*
Y389601D01*
X264560Y390711D01*
X263711Y391560D01*
X262601Y392020D01*
D02*
G37*
G36*
X415101Y391944D02*
X413899D01*
X412789Y391484D01*
X411940Y390635D01*
X411480Y389525D01*
Y388323D01*
X411940Y387213D01*
X412789Y386364D01*
X413899Y385904D01*
X415101D01*
X416211Y386364D01*
X417060Y387213D01*
X417520Y388323D01*
Y389525D01*
X417060Y390635D01*
X416211Y391484D01*
X415101Y391944D01*
D02*
G37*
G36*
X226368Y391787D02*
X225167D01*
X224057Y391328D01*
X223207Y390478D01*
X222747Y389368D01*
Y388167D01*
X223207Y387057D01*
X224057Y386207D01*
X225167Y385747D01*
X226368D01*
X227478Y386207D01*
X228328Y387057D01*
X228787Y388167D01*
Y389368D01*
X228328Y390478D01*
X227478Y391328D01*
X226368Y391787D01*
D02*
G37*
G36*
X404601Y387520D02*
X403399D01*
X402289Y387060D01*
X401440Y386211D01*
X400980Y385101D01*
Y383899D01*
X401440Y382789D01*
X402289Y381940D01*
X403399Y381480D01*
X404601D01*
X405711Y381940D01*
X406560Y382789D01*
X407020Y383899D01*
Y385101D01*
X406560Y386211D01*
X405711Y387060D01*
X404601Y387520D01*
D02*
G37*
G36*
X558601Y386020D02*
X557399D01*
X556289Y385560D01*
X555440Y384711D01*
X554980Y383601D01*
Y382399D01*
X555440Y381289D01*
X556289Y380440D01*
X557399Y379980D01*
X558601D01*
X559711Y380440D01*
X560560Y381289D01*
X561020Y382399D01*
Y383601D01*
X560560Y384711D01*
X559711Y385560D01*
X558601Y386020D01*
D02*
G37*
G36*
X275333Y383753D02*
X274132D01*
X273022Y383293D01*
X272172Y382443D01*
X271712Y381333D01*
Y380132D01*
X272172Y379022D01*
X273022Y378172D01*
X274132Y377713D01*
X275333D01*
X276443Y378172D01*
X277293Y379022D01*
X277752Y380132D01*
Y381333D01*
X277293Y382443D01*
X276443Y383293D01*
X275333Y383753D01*
D02*
G37*
G36*
X235601Y377020D02*
X234399D01*
X233289Y376560D01*
X232440Y375711D01*
X231980Y374601D01*
Y373399D01*
X232440Y372289D01*
X233289Y371440D01*
X234399Y370980D01*
X235601D01*
X236711Y371440D01*
X237560Y372289D01*
X238020Y373399D01*
Y374601D01*
X237560Y375711D01*
X236711Y376560D01*
X235601Y377020D01*
D02*
G37*
G36*
X563101Y374850D02*
X561899D01*
X560789Y374390D01*
X559940Y373541D01*
X559480Y372431D01*
Y371229D01*
X559940Y370119D01*
X560789Y369270D01*
X561899Y368810D01*
X563101D01*
X564211Y369270D01*
X565060Y370119D01*
X565520Y371229D01*
Y372431D01*
X565060Y373541D01*
X564211Y374390D01*
X563101Y374850D01*
D02*
G37*
G36*
X318676Y378560D02*
X317474D01*
X316364Y378100D01*
X315515Y377251D01*
X315055Y376141D01*
Y374939D01*
X315515Y373829D01*
X316042Y373302D01*
X316245Y372520D01*
X316042Y371738D01*
X315515Y371211D01*
X315055Y370101D01*
Y368899D01*
X315515Y367789D01*
X316364Y366940D01*
X317474Y366480D01*
X318676D01*
X319786Y366940D01*
X320635Y367789D01*
X321095Y368899D01*
Y370101D01*
X320635Y371211D01*
X320107Y371738D01*
X319905Y372520D01*
X320107Y373302D01*
X320635Y373829D01*
X321095Y374939D01*
Y376141D01*
X320635Y377251D01*
X319786Y378100D01*
X318676Y378560D01*
D02*
G37*
G36*
X341262Y381836D02*
X340060D01*
X338950Y381377D01*
X338101Y380527D01*
X337641Y379417D01*
Y378216D01*
X338101Y377106D01*
X338416Y376790D01*
X338411Y376409D01*
X338039Y375371D01*
X337289Y375060D01*
X336440Y374211D01*
X335980Y373101D01*
Y371899D01*
X336440Y370789D01*
X337289Y369940D01*
X337735Y369755D01*
X338196Y368484D01*
X338160Y368309D01*
X337754Y367327D01*
Y366126D01*
X338214Y365016D01*
X339063Y364166D01*
X340173Y363706D01*
X341374D01*
X342484Y364166D01*
X343334Y365016D01*
X343794Y366126D01*
Y367327D01*
X343334Y368437D01*
X342484Y369286D01*
X342038Y369471D01*
X341577Y370742D01*
X341613Y370917D01*
X342020Y371899D01*
Y373101D01*
X341560Y374211D01*
X341245Y374526D01*
X341250Y374907D01*
X341622Y375945D01*
X342372Y376256D01*
X343221Y377106D01*
X343681Y378216D01*
Y379417D01*
X343221Y380527D01*
X342372Y381377D01*
X341262Y381836D01*
D02*
G37*
G36*
X506601Y362520D02*
X505399D01*
X504289Y362060D01*
X503440Y361211D01*
X502980Y360101D01*
Y358899D01*
X503440Y357789D01*
X504289Y356940D01*
X505399Y356480D01*
X506601D01*
X507711Y356940D01*
X508560Y357789D01*
X509020Y358899D01*
Y360101D01*
X508560Y361211D01*
X507711Y362060D01*
X506601Y362520D01*
D02*
G37*
G36*
X563301Y362720D02*
X562099D01*
X560989Y362260D01*
X560140Y361411D01*
X559680Y360301D01*
Y359099D01*
X560140Y357989D01*
X560989Y357140D01*
X562099Y356680D01*
X563301D01*
X564411Y357140D01*
X564807Y357536D01*
X566236Y357280D01*
X566440Y356789D01*
X567289Y355940D01*
X568399Y355480D01*
X569601D01*
X570711Y355940D01*
X571560Y356789D01*
X572020Y357899D01*
Y359101D01*
X571560Y360211D01*
X570711Y361060D01*
X569601Y361520D01*
X568399D01*
X567289Y361060D01*
X566893Y360664D01*
X565463Y360920D01*
X565260Y361411D01*
X564411Y362260D01*
X563301Y362720D01*
D02*
G37*
G36*
X517101Y361020D02*
X515899D01*
X514789Y360560D01*
X513940Y359711D01*
X513480Y358601D01*
Y357399D01*
X513940Y356289D01*
X514789Y355440D01*
X515899Y354980D01*
X517101D01*
X518211Y355440D01*
X519060Y356289D01*
X519520Y357399D01*
Y358601D01*
X519060Y359711D01*
X518211Y360560D01*
X517101Y361020D01*
D02*
G37*
G36*
X490784Y357336D02*
X489583D01*
X488473Y356877D01*
X487623Y356027D01*
X487164Y354917D01*
Y353716D01*
X487623Y352606D01*
X488473Y351756D01*
X489583Y351296D01*
X490784D01*
X491894Y351756D01*
X492744Y352606D01*
X493204Y353716D01*
Y354917D01*
X492744Y356027D01*
X491894Y356877D01*
X490784Y357336D01*
D02*
G37*
G36*
X318101Y348020D02*
X316899D01*
X315789Y347560D01*
X314940Y346711D01*
X314480Y345601D01*
Y344399D01*
X314940Y343289D01*
X315789Y342440D01*
X316899Y341980D01*
X318101D01*
X319211Y342440D01*
X320060Y343289D01*
X320520Y344399D01*
Y345601D01*
X320060Y346711D01*
X319211Y347560D01*
X318101Y348020D01*
D02*
G37*
G36*
X465101Y323520D02*
X463899D01*
X462789Y323060D01*
X461940Y322211D01*
X461480Y321101D01*
Y319899D01*
X461940Y318789D01*
X462789Y317940D01*
X463899Y317480D01*
X465101D01*
X466211Y317940D01*
X467060Y318789D01*
X467520Y319899D01*
Y321101D01*
X467060Y322211D01*
X466211Y323060D01*
X465101Y323520D01*
D02*
G37*
G36*
X335704Y320176D02*
X334502D01*
X333392Y319716D01*
X332543Y318867D01*
X332083Y317757D01*
Y316555D01*
X332543Y315445D01*
X333392Y314596D01*
X334502Y314136D01*
X335704D01*
X336814Y314596D01*
X337663Y315445D01*
X338123Y316555D01*
Y317757D01*
X337663Y318867D01*
X336814Y319716D01*
X335704Y320176D01*
D02*
G37*
G36*
X326101Y319520D02*
X324899D01*
X323789Y319060D01*
X322940Y318211D01*
X322480Y317101D01*
Y315899D01*
X322940Y314789D01*
X323789Y313940D01*
X324899Y313480D01*
X326101D01*
X327211Y313940D01*
X328060Y314789D01*
X328520Y315899D01*
Y317101D01*
X328060Y318211D01*
X327211Y319060D01*
X326101Y319520D01*
D02*
G37*
G36*
X318101Y319020D02*
X316899D01*
X315789Y318560D01*
X314940Y317711D01*
X314480Y316601D01*
Y315399D01*
X314940Y314289D01*
X315789Y313440D01*
X316899Y312980D01*
X318101D01*
X319211Y313440D01*
X320060Y314289D01*
X320520Y315399D01*
Y316601D01*
X320060Y317711D01*
X319211Y318560D01*
X318101Y319020D01*
D02*
G37*
G36*
X310601Y318020D02*
X309399D01*
X308289Y317560D01*
X307440Y316711D01*
X306980Y315601D01*
Y314399D01*
X307440Y313289D01*
X308289Y312440D01*
X309399Y311980D01*
X310601D01*
X311711Y312440D01*
X312560Y313289D01*
X313020Y314399D01*
Y315601D01*
X312560Y316711D01*
X311711Y317560D01*
X310601Y318020D01*
D02*
G37*
G36*
X229099Y364170D02*
X224901D01*
X220755Y363513D01*
X216762Y362216D01*
X213022Y360310D01*
X209626Y357843D01*
X206657Y354874D01*
X204190Y351478D01*
X202284Y347738D01*
X200987Y343745D01*
X200330Y339599D01*
Y335401D01*
X200987Y331255D01*
X202284Y327262D01*
X204190Y323522D01*
X206657Y320126D01*
X209626Y317157D01*
X213022Y314690D01*
X216762Y312784D01*
X220755Y311487D01*
X224901Y310830D01*
X229099D01*
X233245Y311487D01*
X237238Y312784D01*
X240978Y314690D01*
X244374Y317157D01*
X247343Y320126D01*
X249810Y323522D01*
X251716Y327262D01*
X253013Y331255D01*
X253670Y335401D01*
Y339599D01*
X253013Y343745D01*
X251716Y347738D01*
X249810Y351478D01*
X247343Y354874D01*
X244374Y357843D01*
X240978Y360310D01*
X237238Y362216D01*
X233245Y363513D01*
X229099Y364170D01*
D02*
G37*
G36*
X443101Y310020D02*
X441899D01*
X440789Y309560D01*
X439940Y308711D01*
X439480Y307601D01*
Y306399D01*
X439940Y305289D01*
X440789Y304440D01*
X441899Y303980D01*
X443101D01*
X444211Y304440D01*
X445060Y305289D01*
X445520Y306399D01*
Y307601D01*
X445060Y308711D01*
X444211Y309560D01*
X443101Y310020D01*
D02*
G37*
G36*
X630601Y303020D02*
X629399D01*
X628289Y302560D01*
X627440Y301711D01*
X626980Y300601D01*
Y299399D01*
X627440Y298289D01*
X628289Y297440D01*
X629399Y296980D01*
X630601D01*
X631711Y297440D01*
X632560Y298289D01*
X633020Y299399D01*
Y300601D01*
X632560Y301711D01*
X631711Y302560D01*
X630601Y303020D01*
D02*
G37*
G36*
X620601D02*
X619399D01*
X618289Y302560D01*
X617440Y301711D01*
X616980Y300601D01*
Y299399D01*
X617440Y298289D01*
X618289Y297440D01*
X619399Y296980D01*
X620601D01*
X621711Y297440D01*
X622560Y298289D01*
X623020Y299399D01*
Y300601D01*
X622560Y301711D01*
X621711Y302560D01*
X620601Y303020D01*
D02*
G37*
G36*
X610601D02*
X609399D01*
X608289Y302560D01*
X607440Y301711D01*
X606980Y300601D01*
Y299399D01*
X607440Y298289D01*
X608289Y297440D01*
X609399Y296980D01*
X610601D01*
X611711Y297440D01*
X612560Y298289D01*
X613020Y299399D01*
Y300601D01*
X612560Y301711D01*
X611711Y302560D01*
X610601Y303020D01*
D02*
G37*
G36*
X554601Y301520D02*
X553399D01*
X552289Y301060D01*
X551440Y300211D01*
X550980Y299101D01*
Y297899D01*
X551440Y296789D01*
X552289Y295940D01*
X553399Y295480D01*
X554601D01*
X555711Y295940D01*
X556560Y296789D01*
X557020Y297899D01*
Y299101D01*
X556560Y300211D01*
X555711Y301060D01*
X554601Y301520D01*
D02*
G37*
G36*
X405101Y291345D02*
X403899D01*
X402789Y290885D01*
X401940Y290036D01*
X401480Y288926D01*
Y287724D01*
X401940Y286614D01*
X402789Y285765D01*
X403899Y285305D01*
X405101D01*
X406211Y285765D01*
X407060Y286614D01*
X407520Y287724D01*
Y288926D01*
X407060Y290036D01*
X406211Y290885D01*
X405101Y291345D01*
D02*
G37*
G36*
X390601Y290020D02*
X389399D01*
X388289Y289560D01*
X387440Y288711D01*
X386980Y287601D01*
Y286399D01*
X387440Y285289D01*
X388289Y284440D01*
X389399Y283980D01*
X390601D01*
X391711Y284440D01*
X392560Y285289D01*
X393020Y286399D01*
Y287601D01*
X392560Y288711D01*
X391711Y289560D01*
X390601Y290020D01*
D02*
G37*
G36*
X409601Y285020D02*
X408399D01*
X407289Y284560D01*
X406440Y283711D01*
X405980Y282601D01*
Y281399D01*
X406440Y280289D01*
X407289Y279440D01*
X408399Y278980D01*
X409601D01*
X410711Y279440D01*
X411560Y280289D01*
X412020Y281399D01*
Y282601D01*
X411560Y283711D01*
X410711Y284560D01*
X409601Y285020D01*
D02*
G37*
G36*
X396601Y284520D02*
X395399D01*
X394289Y284060D01*
X393440Y283211D01*
X392980Y282101D01*
Y280899D01*
X393440Y279789D01*
X394289Y278940D01*
X395399Y278480D01*
X396601D01*
X397711Y278940D01*
X398560Y279789D01*
X399020Y280899D01*
Y282101D01*
X398560Y283211D01*
X397711Y284060D01*
X396601Y284520D01*
D02*
G37*
G36*
X365601Y277020D02*
X364399D01*
X363289Y276560D01*
X362790Y276061D01*
X362000Y275836D01*
X361210Y276061D01*
X360711Y276560D01*
X359601Y277020D01*
X358399D01*
X357289Y276560D01*
X357080Y276351D01*
X356250Y275830D01*
X355420Y276351D01*
X355211Y276560D01*
X354101Y277020D01*
X352899D01*
X351789Y276560D01*
X350940Y275711D01*
X350480Y274601D01*
Y273399D01*
X350940Y272289D01*
X351729Y271500D01*
X350940Y270711D01*
X350480Y269601D01*
Y268399D01*
X350940Y267289D01*
X351729Y266500D01*
X350940Y265711D01*
X350480Y264601D01*
Y263399D01*
X350940Y262289D01*
X351729Y261500D01*
X350949Y260720D01*
X350489Y259610D01*
Y258408D01*
X350949Y257299D01*
X351799Y256449D01*
X352908Y255989D01*
X354110D01*
X355220Y256449D01*
X355420Y256649D01*
X356260Y257176D01*
X357080Y256649D01*
X357289Y256440D01*
X358399Y255980D01*
X359601D01*
X360711Y256440D01*
X361210Y256939D01*
X362000Y257164D01*
X362790Y256939D01*
X363289Y256440D01*
X364399Y255980D01*
X365601D01*
X366711Y256440D01*
X367560Y257289D01*
X368020Y258399D01*
Y259601D01*
X367560Y260711D01*
X366771Y261500D01*
X367560Y262289D01*
X368020Y263399D01*
Y264601D01*
X367560Y265711D01*
X366771Y266500D01*
X367560Y267289D01*
X368020Y268399D01*
Y269601D01*
X367560Y270711D01*
X366771Y271500D01*
X367560Y272289D01*
X368020Y273399D01*
Y274601D01*
X367560Y275711D01*
X366711Y276560D01*
X365601Y277020D01*
D02*
G37*
G36*
X416101Y267520D02*
X414899D01*
X413789Y267060D01*
X412940Y266211D01*
X412480Y265101D01*
Y263899D01*
X412940Y262789D01*
X413789Y261940D01*
X414899Y261480D01*
X416101D01*
X417211Y261940D01*
X418060Y262789D01*
X418520Y263899D01*
Y265101D01*
X418060Y266211D01*
X417211Y267060D01*
X416101Y267520D01*
D02*
G37*
G36*
X412601Y237520D02*
X411399D01*
X410289Y237060D01*
X409440Y236211D01*
X408980Y235101D01*
Y233899D01*
X409440Y232789D01*
X410289Y231940D01*
X411399Y231480D01*
X412601D01*
X413711Y231940D01*
X414560Y232789D01*
X415020Y233899D01*
Y235101D01*
X414560Y236211D01*
X413711Y237060D01*
X412601Y237520D01*
D02*
G37*
G36*
X434101Y233520D02*
X432899D01*
X431789Y233060D01*
X430940Y232211D01*
X430480Y231101D01*
Y229899D01*
X430940Y228789D01*
X431789Y227940D01*
X432899Y227480D01*
X434101D01*
X435211Y227940D01*
X436060Y228789D01*
X436520Y229899D01*
Y231101D01*
X436060Y232211D01*
X435211Y233060D01*
X434101Y233520D01*
D02*
G37*
G36*
X382793Y231863D02*
X381592D01*
X380482Y231403D01*
X379632Y230553D01*
X379173Y229443D01*
Y228242D01*
X379632Y227132D01*
X380482Y226282D01*
X381592Y225823D01*
X382793D01*
X383903Y226282D01*
X384753Y227132D01*
X385213Y228242D01*
Y229443D01*
X384753Y230553D01*
X383903Y231403D01*
X382793Y231863D01*
D02*
G37*
G36*
X197601Y222020D02*
X196399D01*
X195289Y221560D01*
X195080Y221351D01*
X194250Y220830D01*
X193420Y221351D01*
X193211Y221560D01*
X192101Y222020D01*
X190899D01*
X189789Y221560D01*
X189290Y221061D01*
X188500Y220836D01*
X187710Y221061D01*
X187211Y221560D01*
X186101Y222020D01*
X184899D01*
X183789Y221560D01*
X182940Y220711D01*
X182480Y219601D01*
Y218399D01*
X182940Y217289D01*
X183729Y216500D01*
X182940Y215711D01*
X182480Y214601D01*
Y213399D01*
X182940Y212289D01*
X183729Y211500D01*
X182940Y210711D01*
X182480Y209601D01*
Y208399D01*
X182940Y207289D01*
X183729Y206500D01*
X182940Y205711D01*
X182480Y204601D01*
Y203399D01*
X182940Y202289D01*
X183789Y201440D01*
X184899Y200980D01*
X186101D01*
X187211Y201440D01*
X187710Y201939D01*
X188500Y202164D01*
X189290Y201939D01*
X189789Y201440D01*
X190899Y200980D01*
X192101D01*
X193211Y201440D01*
X193420Y201649D01*
X194250Y202170D01*
X195080Y201649D01*
X195289Y201440D01*
X196399Y200980D01*
X197601D01*
X198711Y201440D01*
X199560Y202289D01*
X200020Y203399D01*
Y204601D01*
X199560Y205711D01*
X198771Y206500D01*
X199560Y207289D01*
X200020Y208399D01*
Y209601D01*
X199560Y210711D01*
X198771Y211500D01*
X199560Y212289D01*
X200020Y213399D01*
Y214601D01*
X199560Y215711D01*
X198771Y216500D01*
X199560Y217289D01*
X200020Y218399D01*
Y219601D01*
X199560Y220711D01*
X198711Y221560D01*
X197601Y222020D01*
D02*
G37*
G36*
X425423Y222997D02*
X424222D01*
X423112Y222538D01*
X422262Y221688D01*
X421803Y220578D01*
Y219377D01*
X422262Y218267D01*
X423112Y217417D01*
X424222Y216957D01*
X425423D01*
X426533Y217417D01*
X427383Y218267D01*
X427843Y219377D01*
Y220578D01*
X427383Y221688D01*
X426533Y222538D01*
X425423Y222997D01*
D02*
G37*
G36*
X261601Y221020D02*
X260399D01*
X259289Y220560D01*
X258440Y219711D01*
X257980Y218601D01*
Y217399D01*
X258440Y216289D01*
X259289Y215440D01*
X260399Y214980D01*
X261601D01*
X262711Y215440D01*
X263560Y216289D01*
X264020Y217399D01*
Y218601D01*
X263560Y219711D01*
X262711Y220560D01*
X261601Y221020D01*
D02*
G37*
G36*
X235601Y180520D02*
X234399D01*
X233289Y180060D01*
X232500Y179271D01*
X231711Y180060D01*
X230601Y180520D01*
X229399D01*
X228289Y180060D01*
X228080Y179851D01*
X227250Y179330D01*
X226420Y179851D01*
X226211Y180060D01*
X225101Y180520D01*
X223899D01*
X222789Y180060D01*
X221940Y179211D01*
X221480Y178101D01*
Y176899D01*
X221940Y175789D01*
X222149Y175580D01*
X222670Y174750D01*
X222149Y173920D01*
X221940Y173711D01*
X221480Y172601D01*
Y171399D01*
X221940Y170289D01*
X222149Y170080D01*
X222670Y169250D01*
X222149Y168420D01*
X221940Y168211D01*
X221480Y167101D01*
Y165899D01*
X221940Y164789D01*
X222789Y163940D01*
X223899Y163480D01*
X225101D01*
X226211Y163940D01*
X226420Y164149D01*
X227250Y164670D01*
X228080Y164149D01*
X228289Y163940D01*
X229399Y163480D01*
X230601D01*
X231711Y163940D01*
X232500Y164729D01*
X233289Y163940D01*
X234399Y163480D01*
X235601D01*
X236711Y163940D01*
X237560Y164789D01*
X238020Y165899D01*
Y167101D01*
X237560Y168211D01*
X237351Y168420D01*
X236830Y169250D01*
X237351Y170080D01*
X237560Y170289D01*
X238020Y171399D01*
Y172601D01*
X237560Y173711D01*
X237351Y173920D01*
X236830Y174750D01*
X237351Y175580D01*
X237560Y175789D01*
X238020Y176899D01*
Y178101D01*
X237560Y179211D01*
X236711Y180060D01*
X235601Y180520D01*
D02*
G37*
G36*
X280101Y181520D02*
X278899D01*
X277789Y181060D01*
X276940Y180211D01*
X276480Y179101D01*
Y177899D01*
X276940Y176789D01*
X277789Y175940D01*
X278899Y175480D01*
X280101D01*
X281211Y175940D01*
X282060Y176789D01*
X282520Y177899D01*
Y179101D01*
X282060Y180211D01*
X281211Y181060D01*
X280101Y181520D01*
D02*
G37*
G36*
X280211Y163032D02*
X279010D01*
X277900Y162572D01*
X277050Y161722D01*
X276590Y160612D01*
Y159411D01*
X277050Y158301D01*
X277900Y157451D01*
X279010Y156992D01*
X280211D01*
X281321Y157451D01*
X282171Y158301D01*
X282630Y159411D01*
Y160612D01*
X282171Y161722D01*
X281321Y162572D01*
X280211Y163032D01*
D02*
G37*
G36*
X432101Y157650D02*
X430899D01*
X429789Y157190D01*
X428940Y156341D01*
X428480Y155231D01*
Y154029D01*
X428940Y152919D01*
X429789Y152070D01*
X430899Y151610D01*
X432101D01*
X433211Y152070D01*
X434060Y152919D01*
X434520Y154029D01*
Y155231D01*
X434060Y156341D01*
X433211Y157190D01*
X432101Y157650D01*
D02*
G37*
G36*
X377601Y148520D02*
X376399D01*
X375289Y148060D01*
X374440Y147211D01*
X373980Y146101D01*
Y144899D01*
X374440Y143789D01*
X375289Y142940D01*
X376399Y142480D01*
X377601D01*
X378711Y142940D01*
X379560Y143789D01*
X380020Y144899D01*
Y146101D01*
X379560Y147211D01*
X378711Y148060D01*
X377601Y148520D01*
D02*
G37*
G36*
X386493Y141128D02*
X385291D01*
X384181Y140668D01*
X383332Y139819D01*
X382872Y138709D01*
Y137507D01*
X383332Y136397D01*
X384181Y135548D01*
X385291Y135088D01*
X386493D01*
X387603Y135548D01*
X388452Y136397D01*
X388912Y137507D01*
Y138709D01*
X388452Y139819D01*
X387603Y140668D01*
X386493Y141128D01*
D02*
G37*
G36*
X154000Y151367D02*
X136000D01*
X133058Y150980D01*
X130316Y149844D01*
X127962Y148038D01*
X126156Y145684D01*
X125020Y142942D01*
X124633Y140000D01*
X125020Y137058D01*
X126156Y134316D01*
X127962Y131962D01*
X130316Y130156D01*
X133058Y129020D01*
X136000Y128633D01*
X154000D01*
X156942Y129020D01*
X159684Y130156D01*
X162038Y131962D01*
X163844Y134316D01*
X164980Y137058D01*
X165367Y140000D01*
X164980Y142942D01*
X163844Y145684D01*
X162038Y148038D01*
X159684Y149844D01*
X156942Y150980D01*
X154000Y151367D01*
D02*
G37*
G36*
X230601Y133020D02*
X229399D01*
X228289Y132560D01*
X227440Y131711D01*
X226980Y130601D01*
Y129399D01*
X227440Y128289D01*
X228289Y127440D01*
X229399Y126980D01*
X230601D01*
X231711Y127440D01*
X232560Y128289D01*
X233020Y129399D01*
Y130601D01*
X232560Y131711D01*
X231711Y132560D01*
X230601Y133020D01*
D02*
G37*
G36*
X220601D02*
X219399D01*
X218289Y132560D01*
X217440Y131711D01*
X216980Y130601D01*
Y129399D01*
X217440Y128289D01*
X218289Y127440D01*
X219399Y126980D01*
X220601D01*
X221711Y127440D01*
X222560Y128289D01*
X223020Y129399D01*
Y130601D01*
X222560Y131711D01*
X221711Y132560D01*
X220601Y133020D01*
D02*
G37*
G36*
X210601D02*
X209399D01*
X208289Y132560D01*
X207440Y131711D01*
X206980Y130601D01*
Y129399D01*
X207440Y128289D01*
X208289Y127440D01*
X209399Y126980D01*
X210601D01*
X211711Y127440D01*
X212560Y128289D01*
X213020Y129399D01*
Y130601D01*
X212560Y131711D01*
X211711Y132560D01*
X210601Y133020D01*
D02*
G37*
G36*
X486601Y127520D02*
X485399D01*
X484289Y127060D01*
X483440Y126211D01*
X482980Y125101D01*
Y123899D01*
X483440Y122789D01*
X484289Y121940D01*
X485399Y121480D01*
X486601D01*
X487711Y121940D01*
X488560Y122789D01*
X489020Y123899D01*
Y125101D01*
X488560Y126211D01*
X487711Y127060D01*
X486601Y127520D01*
D02*
G37*
G36*
X614101Y127020D02*
X612899D01*
X611789Y126560D01*
X610940Y125711D01*
X610480Y124601D01*
Y123399D01*
X610940Y122289D01*
X611789Y121440D01*
X612899Y120980D01*
X614101D01*
X615211Y121440D01*
X616060Y122289D01*
X616520Y123399D01*
Y124601D01*
X616060Y125711D01*
X615211Y126560D01*
X614101Y127020D01*
D02*
G37*
G36*
X600601D02*
X599399D01*
X598289Y126560D01*
X597440Y125711D01*
X596980Y124601D01*
Y123399D01*
X597440Y122289D01*
X598289Y121440D01*
X599399Y120980D01*
X600601D01*
X601711Y121440D01*
X602560Y122289D01*
X603020Y123399D01*
Y124601D01*
X602560Y125711D01*
X601711Y126560D01*
X600601Y127020D01*
D02*
G37*
G36*
X538101Y124841D02*
X536899D01*
X535789Y124381D01*
X534940Y123532D01*
X534480Y122422D01*
Y121220D01*
X534940Y120110D01*
X535789Y119261D01*
X536899Y118801D01*
X538101D01*
X539211Y119261D01*
X540060Y120110D01*
X540520Y121220D01*
Y122422D01*
X540060Y123532D01*
X539211Y124381D01*
X538101Y124841D01*
D02*
G37*
G36*
X230601Y123020D02*
X229399D01*
X228289Y122560D01*
X227440Y121711D01*
X226980Y120601D01*
Y119399D01*
X227440Y118289D01*
X228289Y117440D01*
X229399Y116980D01*
X230601D01*
X231711Y117440D01*
X232560Y118289D01*
X233020Y119399D01*
Y120601D01*
X232560Y121711D01*
X231711Y122560D01*
X230601Y123020D01*
D02*
G37*
G36*
X220601D02*
X219399D01*
X218289Y122560D01*
X217440Y121711D01*
X216980Y120601D01*
Y119399D01*
X217440Y118289D01*
X218289Y117440D01*
X219399Y116980D01*
X220601D01*
X221711Y117440D01*
X222560Y118289D01*
X223020Y119399D01*
Y120601D01*
X222560Y121711D01*
X221711Y122560D01*
X220601Y123020D01*
D02*
G37*
G36*
X210601D02*
X209399D01*
X208289Y122560D01*
X207440Y121711D01*
X206980Y120601D01*
Y119399D01*
X207440Y118289D01*
X208289Y117440D01*
X209399Y116980D01*
X210601D01*
X211711Y117440D01*
X212560Y118289D01*
X213020Y119399D01*
Y120601D01*
X212560Y121711D01*
X211711Y122560D01*
X210601Y123020D01*
D02*
G37*
G36*
X240601Y113020D02*
X239399D01*
X238289Y112560D01*
X237440Y111711D01*
X236980Y110601D01*
Y109399D01*
X237440Y108289D01*
X238289Y107440D01*
X239399Y106980D01*
X240601D01*
X241711Y107440D01*
X242560Y108289D01*
X243020Y109399D01*
Y110601D01*
X242560Y111711D01*
X241711Y112560D01*
X240601Y113020D01*
D02*
G37*
G36*
X230601D02*
X229399D01*
X228289Y112560D01*
X227440Y111711D01*
X226980Y110601D01*
Y109399D01*
X227440Y108289D01*
X228289Y107440D01*
X229399Y106980D01*
X230601D01*
X231711Y107440D01*
X232560Y108289D01*
X233020Y109399D01*
Y110601D01*
X232560Y111711D01*
X231711Y112560D01*
X230601Y113020D01*
D02*
G37*
G36*
X220601D02*
X219399D01*
X218289Y112560D01*
X217440Y111711D01*
X216980Y110601D01*
Y109399D01*
X217440Y108289D01*
X218289Y107440D01*
X219399Y106980D01*
X220601D01*
X221711Y107440D01*
X222560Y108289D01*
X223020Y109399D01*
Y110601D01*
X222560Y111711D01*
X221711Y112560D01*
X220601Y113020D01*
D02*
G37*
G36*
X280101Y106520D02*
X278899D01*
X277789Y106060D01*
X277000Y105271D01*
X276211Y106060D01*
X275101Y106520D01*
X273899D01*
X272789Y106060D01*
X271940Y105211D01*
X271480Y104101D01*
Y102899D01*
X271940Y101789D01*
X272729Y101000D01*
X271940Y100211D01*
X271480Y99101D01*
Y97899D01*
X271940Y96789D01*
X272729Y96000D01*
X271940Y95211D01*
X271480Y94101D01*
Y92899D01*
X271940Y91789D01*
X272729Y91000D01*
X271940Y90211D01*
X271480Y89101D01*
Y87899D01*
X271940Y86789D01*
X272789Y85940D01*
X273899Y85480D01*
X275101D01*
X276211Y85940D01*
X277000Y86729D01*
X277789Y85940D01*
X278899Y85480D01*
X280101D01*
X281211Y85940D01*
X282060Y86789D01*
X282520Y87899D01*
Y89101D01*
X282060Y90211D01*
X281271Y91000D01*
X282060Y91789D01*
X282520Y92899D01*
Y94101D01*
X282060Y95211D01*
X281271Y96000D01*
X282060Y96789D01*
X282520Y97899D01*
Y99101D01*
X282060Y100211D01*
X281271Y101000D01*
X282060Y101789D01*
X282520Y102899D01*
Y104101D01*
X282060Y105211D01*
X281211Y106060D01*
X280101Y106520D01*
D02*
G37*
G36*
X311101Y107520D02*
X309899D01*
X308789Y107060D01*
X307940Y106211D01*
X307480Y105101D01*
Y103899D01*
X307940Y102789D01*
X308789Y101940D01*
X309899Y101480D01*
X311101D01*
X312211Y101940D01*
X313060Y102789D01*
X313520Y103899D01*
Y105101D01*
X313060Y106211D01*
X312211Y107060D01*
X311101Y107520D01*
D02*
G37*
G36*
X191500Y132859D02*
X188819Y132506D01*
X186321Y131471D01*
X184175Y129825D01*
X182529Y127679D01*
X181494Y125181D01*
X181141Y122500D01*
Y107500D01*
X181494Y104819D01*
X182529Y102321D01*
X184175Y100175D01*
X186321Y98529D01*
X188819Y97494D01*
X191500Y97141D01*
X194181Y97494D01*
X196679Y98529D01*
X198825Y100175D01*
X200471Y102321D01*
X201506Y104819D01*
X201859Y107500D01*
Y122500D01*
X201506Y125181D01*
X200471Y127679D01*
X198825Y129825D01*
X196679Y131471D01*
X194181Y132506D01*
X191500Y132859D01*
D02*
G37*
G36*
X240601Y103020D02*
X239399D01*
X238289Y102560D01*
X237440Y101711D01*
X236980Y100601D01*
Y99399D01*
X237440Y98289D01*
X238289Y97440D01*
X239399Y96980D01*
X240601D01*
X241711Y97440D01*
X242560Y98289D01*
X243020Y99399D01*
Y100601D01*
X242560Y101711D01*
X241711Y102560D01*
X240601Y103020D01*
D02*
G37*
G36*
X230601D02*
X229399D01*
X228289Y102560D01*
X227440Y101711D01*
X226980Y100601D01*
Y99399D01*
X227440Y98289D01*
X228289Y97440D01*
X229399Y96980D01*
X230601D01*
X231711Y97440D01*
X232560Y98289D01*
X233020Y99399D01*
Y100601D01*
X232560Y101711D01*
X231711Y102560D01*
X230601Y103020D01*
D02*
G37*
G36*
X411269Y104080D02*
X410067D01*
X408957Y103620D01*
X408108Y102771D01*
X407648Y101661D01*
Y100459D01*
X407925Y99790D01*
X407478Y98709D01*
X407217Y98444D01*
X406289Y98060D01*
X405440Y97211D01*
X404980Y96101D01*
Y94899D01*
X405440Y93789D01*
X406289Y92940D01*
X407399Y92480D01*
X408601D01*
X409711Y92940D01*
X410560Y93789D01*
X411020Y94899D01*
Y96101D01*
X410743Y96770D01*
X411190Y97851D01*
X411451Y98116D01*
X412379Y98500D01*
X413228Y99349D01*
X413688Y100459D01*
Y101661D01*
X413228Y102771D01*
X412379Y103620D01*
X411269Y104080D01*
D02*
G37*
G36*
X240601Y93020D02*
X239399D01*
X238289Y92560D01*
X237440Y91711D01*
X236980Y90601D01*
Y89399D01*
X237440Y88289D01*
X238289Y87440D01*
X239399Y86980D01*
X240601D01*
X241711Y87440D01*
X242560Y88289D01*
X243020Y89399D01*
Y90601D01*
X242560Y91711D01*
X241711Y92560D01*
X240601Y93020D01*
D02*
G37*
G36*
X310928Y92448D02*
X309727D01*
X308617Y91988D01*
X307767Y91139D01*
X307308Y90029D01*
Y88828D01*
X307767Y87718D01*
X308617Y86868D01*
X309727Y86408D01*
X310928D01*
X312038Y86868D01*
X312888Y87718D01*
X313348Y88828D01*
Y90029D01*
X312888Y91139D01*
X312038Y91988D01*
X310928Y92448D01*
D02*
G37*
G36*
X248166Y91141D02*
X246964D01*
X245854Y90681D01*
X245005Y89831D01*
X244545Y88721D01*
Y87520D01*
X245005Y86410D01*
X245854Y85561D01*
X246964Y85101D01*
X248166D01*
X249276Y85561D01*
X250125Y86410D01*
X250585Y87520D01*
Y88721D01*
X250125Y89831D01*
X249276Y90681D01*
X248166Y91141D01*
D02*
G37*
G36*
X371101Y88520D02*
X369899D01*
X368789Y88060D01*
X367940Y87211D01*
X367480Y86101D01*
Y84899D01*
X367940Y83789D01*
X368789Y82940D01*
X369899Y82480D01*
X371101D01*
X372211Y82940D01*
X373060Y83789D01*
X373520Y84899D01*
Y86101D01*
X373060Y87211D01*
X372211Y88060D01*
X371101Y88520D01*
D02*
G37*
G36*
X154000Y92648D02*
X146270D01*
Y81270D01*
X166481D01*
X166217Y83274D01*
X164954Y86324D01*
X162944Y88944D01*
X160324Y90954D01*
X157274Y92217D01*
X154000Y92648D01*
D02*
G37*
G36*
X143730D02*
X136000D01*
X132726Y92217D01*
X129676Y90954D01*
X127056Y88944D01*
X125046Y86324D01*
X123783Y83274D01*
X123519Y81270D01*
X143730D01*
Y92648D01*
D02*
G37*
G36*
X257402Y83603D02*
X256300D01*
X255282Y83181D01*
X254503Y82402D01*
X254081Y81383D01*
Y80281D01*
X254503Y79263D01*
X255282Y78484D01*
X256300Y78063D01*
X257402D01*
X258420Y78484D01*
X259199Y79263D01*
X259621Y80281D01*
Y81383D01*
X259199Y82402D01*
X258420Y83181D01*
X257402Y83603D01*
D02*
G37*
G36*
X270101Y77020D02*
X268899D01*
X267789Y76560D01*
X266940Y75711D01*
X266533Y74728D01*
X266121Y74541D01*
X265210Y74391D01*
X264541Y75060D01*
X263431Y75520D01*
X262229D01*
X261119Y75060D01*
X260270Y74211D01*
X259810Y73101D01*
Y71899D01*
X260270Y70789D01*
X261119Y69940D01*
X262229Y69480D01*
X263431D01*
X264541Y69940D01*
X265390Y70789D01*
X265797Y71772D01*
X266209Y71959D01*
X267120Y72109D01*
X267789Y71440D01*
X268899Y70980D01*
X270101D01*
X271211Y71440D01*
X272060Y72289D01*
X272520Y73399D01*
Y74601D01*
X272060Y75711D01*
X271211Y76560D01*
X270101Y77020D01*
D02*
G37*
G36*
X240676Y77063D02*
X239474D01*
X238364Y76603D01*
X237515Y75753D01*
X237055Y74643D01*
Y73442D01*
X237515Y72332D01*
X238364Y71482D01*
X239474Y71023D01*
X240676D01*
X241786Y71482D01*
X242635Y72332D01*
X243095Y73442D01*
Y74643D01*
X242635Y75753D01*
X241786Y76603D01*
X240676Y77063D01*
D02*
G37*
G36*
X522101Y76520D02*
X520899D01*
X519789Y76060D01*
X518940Y75211D01*
X518480Y74101D01*
Y72899D01*
X518940Y71789D01*
X519789Y70940D01*
X520899Y70480D01*
X522101D01*
X523211Y70940D01*
X524060Y71789D01*
X524520Y72899D01*
Y74101D01*
X524060Y75211D01*
X523211Y76060D01*
X522101Y76520D01*
D02*
G37*
G36*
X252001Y75720D02*
X250898D01*
X249880Y75298D01*
X249101Y74519D01*
X248680Y73501D01*
Y72399D01*
X249101Y71381D01*
X249880Y70602D01*
X250898Y70180D01*
X252001D01*
X253019Y70602D01*
X253798Y71381D01*
X254219Y72399D01*
Y73501D01*
X253798Y74519D01*
X253019Y75298D01*
X252001Y75720D01*
D02*
G37*
G36*
X507101Y75520D02*
X505899D01*
X504789Y75060D01*
X503940Y74211D01*
X503480Y73101D01*
Y71899D01*
X503940Y70789D01*
X504789Y69940D01*
X505899Y69480D01*
X507101D01*
X508211Y69940D01*
X509060Y70789D01*
X509520Y71899D01*
Y73101D01*
X509060Y74211D01*
X508211Y75060D01*
X507101Y75520D01*
D02*
G37*
G36*
X166481Y78730D02*
X146270D01*
Y67352D01*
X154000D01*
X157274Y67783D01*
X160324Y69046D01*
X162944Y71056D01*
X164954Y73676D01*
X166217Y76726D01*
X166481Y78730D01*
D02*
G37*
G36*
X143730D02*
X123519D01*
X123783Y76726D01*
X125046Y73676D01*
X127056Y71056D01*
X129676Y69046D01*
X132726Y67783D01*
X136000Y67352D01*
X143730D01*
Y78730D01*
D02*
G37*
G36*
X539831Y93545D02*
X536370D01*
X533026Y92649D01*
X530029Y90918D01*
X527582Y88471D01*
X525851Y85474D01*
X524955Y82130D01*
Y78670D01*
X525851Y75326D01*
X527582Y72329D01*
X530029Y69882D01*
X533026Y68151D01*
X536370Y67256D01*
X539831D01*
X543174Y68151D01*
X546171Y69882D01*
X548618Y72329D01*
X550349Y75326D01*
X551245Y78670D01*
Y82130D01*
X550349Y85474D01*
X548618Y88471D01*
X546171Y90918D01*
X543174Y92649D01*
X539831Y93545D01*
D02*
G37*
G36*
X482681D02*
X479220D01*
X475876Y92649D01*
X472879Y90918D01*
X470432Y88471D01*
X468701Y85474D01*
X467805Y82130D01*
Y78670D01*
X468701Y75326D01*
X470432Y72329D01*
X472879Y69882D01*
X475876Y68151D01*
X479220Y67256D01*
X482681D01*
X486024Y68151D01*
X489021Y69882D01*
X491468Y72329D01*
X493199Y75326D01*
X494095Y78670D01*
Y82130D01*
X493199Y85474D01*
X491468Y88471D01*
X489021Y90918D01*
X486024Y92649D01*
X482681Y93545D01*
D02*
G37*
G36*
X298200Y88178D02*
X296433Y87946D01*
X294786Y87264D01*
X293372Y86178D01*
X292286Y84764D01*
X291604Y83117D01*
X291372Y81350D01*
Y70350D01*
X291604Y68583D01*
X292286Y66936D01*
X293372Y65522D01*
X294786Y64436D01*
X296433Y63754D01*
X298200Y63522D01*
X299967Y63754D01*
X301614Y64436D01*
X303028Y65522D01*
X304114Y66936D01*
X304796Y68583D01*
X305028Y70350D01*
Y81350D01*
X304796Y83117D01*
X304114Y84764D01*
X303028Y86178D01*
X301614Y87264D01*
X299967Y87946D01*
X298200Y88178D01*
D02*
G37*
G36*
X211800D02*
X210033Y87946D01*
X208386Y87264D01*
X206972Y86178D01*
X205886Y84764D01*
X205204Y83117D01*
X204972Y81350D01*
Y70350D01*
X205204Y68583D01*
X205886Y66936D01*
X206972Y65522D01*
X208386Y64436D01*
X210033Y63754D01*
X211800Y63522D01*
X213567Y63754D01*
X215214Y64436D01*
X216628Y65522D01*
X217714Y66936D01*
X218396Y68583D01*
X218628Y70350D01*
Y81350D01*
X218396Y83117D01*
X217714Y84764D01*
X216628Y86178D01*
X215214Y87264D01*
X213567Y87946D01*
X211800Y88178D01*
D02*
G37*
G36*
X463138Y71373D02*
X460662D01*
X458375Y70426D01*
X456624Y68675D01*
X455677Y66388D01*
Y63912D01*
X456624Y61625D01*
X458375Y59874D01*
X460662Y58927D01*
X463138D01*
X465425Y59874D01*
X467176Y61625D01*
X468123Y63912D01*
Y66388D01*
X467176Y68675D01*
X465425Y70426D01*
X463138Y71373D01*
D02*
G37*
G36*
X452601Y57020D02*
X451399D01*
X450289Y56560D01*
X449440Y55711D01*
X448980Y54601D01*
Y53399D01*
X449440Y52289D01*
X450289Y51440D01*
X451399Y50980D01*
X452601D01*
X453711Y51440D01*
X454560Y52289D01*
X455020Y53399D01*
Y54601D01*
X454560Y55711D01*
X453711Y56560D01*
X452601Y57020D01*
D02*
G37*
G36*
X539338Y61223D02*
X536862D01*
X534575Y60276D01*
X532824Y58525D01*
X531877Y56238D01*
Y53762D01*
X532824Y51475D01*
X534575Y49724D01*
X536862Y48777D01*
X539338D01*
X541625Y49724D01*
X543376Y51475D01*
X544323Y53762D01*
Y56238D01*
X543376Y58525D01*
X541625Y60276D01*
X539338Y61223D01*
D02*
G37*
G36*
X463138Y51073D02*
X460662D01*
X458375Y50126D01*
X456624Y48375D01*
X455677Y46088D01*
Y43612D01*
X456624Y41325D01*
X458375Y39574D01*
X460662Y38627D01*
X463138D01*
X465425Y39574D01*
X467176Y41325D01*
X468123Y43612D01*
Y46088D01*
X467176Y48375D01*
X465425Y50126D01*
X463138Y51073D01*
D02*
G37*
G36*
X500101Y44020D02*
X498899D01*
X497789Y43560D01*
X496940Y42711D01*
X496480Y41601D01*
Y40399D01*
X496940Y39289D01*
X497789Y38440D01*
X498899Y37980D01*
X500101D01*
X501211Y38440D01*
X502060Y39289D01*
X502520Y40399D01*
Y41601D01*
X502060Y42711D01*
X501211Y43560D01*
X500101Y44020D01*
D02*
G37*
G36*
X290000Y62425D02*
X219992D01*
X219020Y62022D01*
X218617Y61050D01*
Y34715D01*
X217347Y34284D01*
X217342Y34292D01*
X215718Y35537D01*
X213828Y36320D01*
X211800Y36587D01*
X209772Y36320D01*
X207882Y35537D01*
X206258Y34292D01*
X205013Y32668D01*
X204230Y30778D01*
X203963Y28750D01*
Y15750D01*
X204230Y13722D01*
X205013Y11831D01*
X206258Y10208D01*
X207882Y8963D01*
X209772Y8180D01*
X211800Y7913D01*
X213828Y8180D01*
X215718Y8963D01*
X217342Y10208D01*
X217347Y10216D01*
X218617Y9785D01*
Y4541D01*
X219020Y3569D01*
X219992Y3167D01*
X290000D01*
X290972Y3569D01*
X291375Y4541D01*
Y9795D01*
X292645Y10226D01*
X292658Y10208D01*
X294282Y8963D01*
X296172Y8180D01*
X298200Y7913D01*
X300228Y8180D01*
X302118Y8963D01*
X303742Y10208D01*
X304987Y11831D01*
X305770Y13722D01*
X306037Y15750D01*
Y28750D01*
X305770Y30778D01*
X304987Y32668D01*
X303742Y34292D01*
X302118Y35537D01*
X300228Y36320D01*
X298200Y36587D01*
X296172Y36320D01*
X294282Y35537D01*
X292658Y34292D01*
X292645Y34274D01*
X291375Y34705D01*
Y61050D01*
X290972Y62022D01*
X290000Y62425D01*
D02*
G37*
G36*
X539831Y42744D02*
X536370D01*
X533026Y41849D01*
X530029Y40118D01*
X527582Y37671D01*
X525851Y34674D01*
X524955Y31330D01*
Y27870D01*
X525851Y24526D01*
X527582Y21529D01*
X530029Y19082D01*
X533026Y17351D01*
X536370Y16456D01*
X539831D01*
X543174Y17351D01*
X546171Y19082D01*
X548618Y21529D01*
X550349Y24526D01*
X551245Y27870D01*
Y31330D01*
X550349Y34674D01*
X548618Y37671D01*
X546171Y40118D01*
X543174Y41849D01*
X539831Y42744D01*
D02*
G37*
G36*
X482681D02*
X479220D01*
X475876Y41849D01*
X472879Y40118D01*
X470432Y37671D01*
X468701Y34674D01*
X467805Y31330D01*
Y27870D01*
X468701Y24526D01*
X470432Y21529D01*
X472879Y19082D01*
X475876Y17351D01*
X479220Y16456D01*
X482681D01*
X486024Y17351D01*
X489021Y19082D01*
X491468Y21529D01*
X493199Y24526D01*
X494095Y27870D01*
Y31330D01*
X493199Y34674D01*
X491468Y37671D01*
X489021Y40118D01*
X486024Y41849D01*
X482681Y42744D01*
D02*
G37*
%LPD*%
D147*
X540000Y525800D02*
D03*
Y500400D02*
D03*
Y475000D02*
D03*
Y449600D02*
D03*
X389200Y555000D02*
D03*
X414600D02*
D03*
X440000D02*
D03*
X465400D02*
D03*
X490800D02*
D03*
X389200Y529600D02*
D03*
X414600D02*
D03*
X440000D02*
D03*
X465400D02*
D03*
X490800D02*
D03*
X138700Y774500D02*
D03*
X164100D02*
D03*
X189500D02*
D03*
X214900D02*
D03*
D148*
X556000Y214000D02*
D03*
Y228000D02*
D03*
Y200000D02*
D03*
X542000Y228000D02*
D03*
Y214000D02*
D03*
Y200000D02*
D03*
X563000Y221000D02*
D03*
Y207000D02*
D03*
X549000Y221000D02*
D03*
Y207000D02*
D03*
X535000Y221000D02*
D03*
Y207000D02*
D03*
D149*
X470000Y1037500D02*
D03*
Y1022500D02*
D03*
X485000D02*
D03*
X477500Y1030000D02*
D03*
Y1015000D02*
D03*
X462500D02*
D03*
X455000Y1022500D02*
D03*
Y1037500D02*
D03*
X462500Y1030000D02*
D03*
Y1045000D02*
D03*
X477500D02*
D03*
X485000Y1037500D02*
D03*
X95000Y1037500D02*
D03*
Y1022500D02*
D03*
X110000D02*
D03*
X102500Y1030000D02*
D03*
Y1015000D02*
D03*
X87500D02*
D03*
X80000Y1022500D02*
D03*
Y1037500D02*
D03*
X87500Y1030000D02*
D03*
Y1045000D02*
D03*
X102500D02*
D03*
X110000Y1037500D02*
D03*
X221000Y84500D02*
D03*
X290112Y94113D02*
D03*
X301236Y96152D02*
D03*
X295500Y98500D02*
D03*
X13453Y267500D02*
D03*
Y252500D02*
D03*
Y237500D02*
D03*
Y222500D02*
D03*
X125000Y219000D02*
D03*
X234500Y157500D02*
D03*
X244000D02*
D03*
X155500Y270500D02*
D03*
X218500Y95500D02*
D03*
X223000Y91000D02*
D03*
X207000Y93500D02*
D03*
X213500Y100000D02*
D03*
Y90500D02*
D03*
X25000Y111500D02*
D03*
Y126500D02*
D03*
Y141500D02*
D03*
Y156500D02*
D03*
D150*
X190950Y853250D02*
D03*
Y910400D02*
D03*
X241750Y853250D02*
D03*
Y910400D02*
D03*
X303250Y853250D02*
D03*
Y910400D02*
D03*
X354050Y853250D02*
D03*
Y910400D02*
D03*
X480950Y80400D02*
D03*
X538100D02*
D03*
X480950Y29600D02*
D03*
X538100D02*
D03*
D151*
X206200Y834200D02*
D03*
X226500D02*
D03*
X216350Y910400D02*
D03*
X318500Y834200D02*
D03*
X338800D02*
D03*
X328650Y910400D02*
D03*
X461900Y65150D02*
D03*
Y44850D02*
D03*
X538100Y55000D02*
D03*
D152*
X211800Y75850D02*
D03*
X298200D02*
D03*
D153*
X211800Y22250D02*
D03*
X298200D02*
D03*
D154*
X191500Y115000D02*
D03*
D155*
X145000Y80000D02*
D03*
Y140000D02*
D03*
D156*
X616500Y555500D02*
D03*
Y585500D02*
D03*
D157*
X485500Y1203500D02*
D03*
X340500Y1206000D02*
D03*
X357000Y1205500D02*
D03*
X340500Y1215000D02*
D03*
X330000Y1206110D02*
D03*
X349500Y1233500D02*
D03*
X295500Y1220500D02*
D03*
X302911Y1199963D02*
D03*
X319500Y1215000D02*
D03*
Y1206110D02*
D03*
X330000Y1215000D02*
D03*
X340500Y1223890D02*
D03*
X330000D02*
D03*
X319500D02*
D03*
X284000Y1247500D02*
D03*
X317115Y1250094D02*
D03*
X310000Y1196000D02*
D03*
X323000Y1184000D02*
D03*
X320000Y1164890D02*
D03*
X317800Y1125000D02*
D03*
X340300Y1250000D02*
D03*
X306000Y1247500D02*
D03*
X313500Y1176000D02*
D03*
X303500Y1165500D02*
D03*
X415200Y1231650D02*
D03*
X358498Y1153432D02*
D03*
X395700Y1258150D02*
D03*
X318000Y1072000D02*
D03*
X85500Y1193000D02*
D03*
X60500Y1075500D02*
D03*
X63035Y1105000D02*
D03*
X67500Y1075500D02*
D03*
X74540D02*
D03*
X164500Y1070818D02*
D03*
Y1080668D02*
D03*
X174000Y1075500D02*
D03*
X76500Y1185500D02*
D03*
X105000Y1055976D02*
D03*
X96581Y1057812D02*
D03*
X93000Y1075500D02*
D03*
X136500Y1053000D02*
D03*
X434000Y121500D02*
D03*
X410668Y101060D02*
D03*
X408000Y95500D02*
D03*
X499500Y41000D02*
D03*
X521500Y73500D02*
D03*
X506500Y72500D02*
D03*
X502500Y68000D02*
D03*
X452000Y54000D02*
D03*
X530000Y619500D02*
D03*
X454000Y689500D02*
D03*
X407500Y733500D02*
D03*
X473500Y729500D02*
D03*
X445936Y730695D02*
D03*
X442500Y720500D02*
D03*
X410500Y721500D02*
D03*
X442500Y709500D02*
D03*
X340500Y701500D02*
D03*
X343000Y712000D02*
D03*
X524000Y600500D02*
D03*
X499500Y506766D02*
D03*
X460925Y744575D02*
D03*
X493381Y745119D02*
D03*
X489000Y749500D02*
D03*
X500500Y741500D02*
D03*
X499000Y751350D02*
D03*
X476500Y739500D02*
D03*
X567858Y797365D02*
D03*
X568000Y817000D02*
D03*
X564000Y983500D02*
D03*
Y996500D02*
D03*
X581000Y740000D02*
D03*
X452551Y1056674D02*
D03*
X513000Y1059000D02*
D03*
X468000Y1071473D02*
D03*
X479500Y56000D02*
D03*
X562500Y1076500D02*
D03*
X564000Y921000D02*
D03*
X568000Y623000D02*
D03*
X491000Y600500D02*
D03*
X507500Y505500D02*
D03*
X565358Y459833D02*
D03*
X581000Y470500D02*
D03*
X580000Y449500D02*
D03*
X584000Y476500D02*
D03*
X541000Y619000D02*
D03*
X537679Y835000D02*
D03*
X242500Y1104500D02*
D03*
X235000Y1108500D02*
D03*
X415000Y1285450D02*
D03*
X123001Y1200501D02*
D03*
X128003D02*
D03*
X229800Y1214786D02*
D03*
X236500Y1217000D02*
D03*
X240500Y1209000D02*
D03*
X250700Y1148800D02*
D03*
X237001Y1180999D02*
D03*
X241000Y1148000D02*
D03*
X83500Y1112535D02*
D03*
X221000Y1107000D02*
D03*
X13500Y1103500D02*
D03*
X13000Y967500D02*
D03*
X497000Y1238500D02*
D03*
X498500Y1203501D02*
D03*
X504000Y1239500D02*
D03*
X289525Y1003475D02*
D03*
X516000Y1248000D02*
D03*
X377000Y1134500D02*
D03*
X383847Y1078653D02*
D03*
X213500Y1208000D02*
D03*
X230501Y1180999D02*
D03*
X237001Y1174500D02*
D03*
X498500Y1216501D02*
D03*
X492000D02*
D03*
X485500D02*
D03*
Y1210003D02*
D03*
X492000D02*
D03*
X498500D02*
D03*
X492000Y1203501D02*
D03*
X224001Y1180999D02*
D03*
Y1174500D02*
D03*
X230501D02*
D03*
X224001Y1167999D02*
D03*
X230501D02*
D03*
X237001D02*
D03*
X84000Y1138500D02*
D03*
X84286Y1157286D02*
D03*
X85000Y1181000D02*
D03*
X92500Y1175001D02*
D03*
X124500Y1168500D02*
D03*
X118000D02*
D03*
X111500D02*
D03*
X124500Y1175001D02*
D03*
X118000D02*
D03*
X111500D02*
D03*
Y1181500D02*
D03*
X118000D02*
D03*
X124500D02*
D03*
X100498Y1158237D02*
D03*
Y1193001D02*
D03*
X143500Y1168500D02*
D03*
Y1162500D02*
D03*
X144500Y1182500D02*
D03*
Y1187500D02*
D03*
X350350Y1135850D02*
D03*
X389950Y1258150D02*
D03*
X303000Y1114500D02*
D03*
X421000Y813000D02*
D03*
X400325Y1110860D02*
D03*
X422500Y1119500D02*
D03*
X427500Y1125000D02*
D03*
X422500D02*
D03*
X341000Y1147110D02*
D03*
X330500D02*
D03*
X359350Y1139700D02*
D03*
X320000Y1156000D02*
D03*
Y1147110D02*
D03*
X330500Y1156000D02*
D03*
Y1164890D02*
D03*
X341000D02*
D03*
Y1156000D02*
D03*
X477000Y799500D02*
D03*
Y808390D02*
D03*
Y817280D02*
D03*
X466500D02*
D03*
Y808390D02*
D03*
Y799500D02*
D03*
X456000D02*
D03*
X490850Y785030D02*
D03*
X456000Y808390D02*
D03*
Y817280D02*
D03*
X337030Y484000D02*
D03*
X477310Y507278D02*
D03*
X337867Y490635D02*
D03*
X324517Y487000D02*
D03*
X505500Y483500D02*
D03*
X484500Y490000D02*
D03*
X465400Y509945D02*
D03*
X446500Y490000D02*
D03*
X406500D02*
D03*
X279500Y178500D02*
D03*
X279610Y160012D02*
D03*
X290000Y183000D02*
D03*
X279500Y103500D02*
D03*
X164500Y1038462D02*
D03*
X425000Y867000D02*
D03*
X198500Y190000D02*
D03*
X193500D02*
D03*
X188500D02*
D03*
X228000Y221000D02*
D03*
X222500D02*
D03*
X228000Y216000D02*
D03*
X222500D02*
D03*
Y211000D02*
D03*
X228000D02*
D03*
Y241000D02*
D03*
X222500D02*
D03*
X228000Y236000D02*
D03*
X222500D02*
D03*
Y226000D02*
D03*
X228000D02*
D03*
X222500Y231000D02*
D03*
X228000D02*
D03*
X274500Y103500D02*
D03*
X279500Y98500D02*
D03*
X274500D02*
D03*
Y93500D02*
D03*
X442974Y1002750D02*
D03*
X443000Y1008790D02*
D03*
X434500Y995500D02*
D03*
X216500Y922000D02*
D03*
X279500Y88500D02*
D03*
X81461Y1073009D02*
D03*
X247565Y88121D02*
D03*
X325500Y316500D02*
D03*
X335103Y317156D02*
D03*
X338500Y390500D02*
D03*
X318075Y369500D02*
D03*
Y375540D02*
D03*
X377500Y117000D02*
D03*
X378000Y92076D02*
D03*
X379000Y97000D02*
D03*
X106000Y1119500D02*
D03*
X401500Y1057000D02*
D03*
Y1052000D02*
D03*
X303000Y1153476D02*
D03*
X340774Y366726D02*
D03*
X339000Y372500D02*
D03*
X340661Y378816D02*
D03*
X320500Y390000D02*
D03*
Y413500D02*
D03*
X341075Y568000D02*
D03*
X342500Y555000D02*
D03*
X343500Y789500D02*
D03*
X343000Y577130D02*
D03*
X343500Y546630D02*
D03*
X339500Y413500D02*
D03*
X342977Y585153D02*
D03*
X510000Y593500D02*
D03*
X486000Y124500D02*
D03*
X385892Y138108D02*
D03*
X314000Y187000D02*
D03*
X321750Y196250D02*
D03*
X309000Y221500D02*
D03*
X281821Y413500D02*
D03*
X600000Y124000D02*
D03*
X537500Y121821D02*
D03*
X613500Y124000D02*
D03*
X274732Y380732D02*
D03*
X406500Y119500D02*
D03*
X377000Y145500D02*
D03*
X587200Y355500D02*
D03*
X404000Y384500D02*
D03*
X490184Y354316D02*
D03*
X275184Y420816D02*
D03*
X312000Y421000D02*
D03*
X485182Y341819D02*
D03*
X442500Y307000D02*
D03*
X464500Y320500D02*
D03*
X536500Y354300D02*
D03*
X507000Y394500D02*
D03*
X457250Y385500D02*
D03*
X493500Y390000D02*
D03*
X488000Y319000D02*
D03*
X569000Y358500D02*
D03*
X562700Y359700D02*
D03*
X562500Y371830D02*
D03*
X506000Y359500D02*
D03*
X514816Y443790D02*
D03*
X610500Y511000D02*
D03*
X424300Y483200D02*
D03*
X464500Y483000D02*
D03*
X414500Y388924D02*
D03*
X235000Y374000D02*
D03*
X262000Y389000D02*
D03*
X261000Y218000D02*
D03*
X513000Y40000D02*
D03*
X404500Y288325D02*
D03*
X409000Y282000D02*
D03*
X424879Y435302D02*
D03*
X390000Y287000D02*
D03*
X396000Y281500D02*
D03*
X225767Y388768D02*
D03*
X558000Y383000D02*
D03*
X317500Y345000D02*
D03*
X312500Y548130D02*
D03*
X412000Y234500D02*
D03*
X415500Y264500D02*
D03*
X416678Y280500D02*
D03*
X424823Y219977D02*
D03*
X415500Y250000D02*
D03*
X433500Y230500D02*
D03*
X382192Y228843D02*
D03*
X474500Y438300D02*
D03*
X421500Y395500D02*
D03*
X516500Y358000D02*
D03*
X312000Y495000D02*
D03*
X431500Y154630D02*
D03*
X528500Y739130D02*
D03*
X507000Y767130D02*
D03*
X528500Y793500D02*
D03*
X527500Y778500D02*
D03*
X523320Y825000D02*
D03*
Y804500D02*
D03*
X522000Y849500D02*
D03*
X517760Y838240D02*
D03*
X501174Y783037D02*
D03*
X506000Y805500D02*
D03*
X500000Y830500D02*
D03*
X442500Y836060D02*
D03*
X490850D02*
D03*
X399418Y824940D02*
D03*
X546703Y783000D02*
D03*
X464560Y846000D02*
D03*
X398000Y877000D02*
D03*
X227935Y885500D02*
D03*
X399897Y868882D02*
D03*
X305000Y790000D02*
D03*
X549470Y930500D02*
D03*
X555000Y926500D02*
D03*
X544000Y944500D02*
D03*
X549470Y995000D02*
D03*
Y1009000D02*
D03*
X546076Y1001500D02*
D03*
X527601Y995399D02*
D03*
X530066Y1008525D02*
D03*
X530924Y974000D02*
D03*
X538000Y963000D02*
D03*
X537500Y981500D02*
D03*
X540000Y1060000D02*
D03*
X546676Y1054624D02*
D03*
X549470Y1035030D02*
D03*
X558000Y1064500D02*
D03*
X512000Y1023424D02*
D03*
X335500Y930000D02*
D03*
X344249Y948500D02*
D03*
X281000Y969249D02*
D03*
X367000Y956000D02*
D03*
X454000Y776000D02*
D03*
Y866130D02*
D03*
X486000Y860630D02*
D03*
X484500Y890500D02*
D03*
X401043Y1083505D02*
D03*
X432000Y1100000D02*
D03*
X452000Y1095500D02*
D03*
X446500D02*
D03*
X440500D02*
D03*
X396000Y769500D02*
D03*
X511500Y849000D02*
D03*
X406000Y808500D02*
D03*
X445000Y655000D02*
D03*
X460500Y626000D02*
D03*
Y635000D02*
D03*
Y645000D02*
D03*
Y654500D02*
D03*
X616500Y471000D02*
D03*
X424000Y905500D02*
D03*
X451500Y905358D02*
D03*
X431500Y884500D02*
D03*
X428817Y897990D02*
D03*
X401000Y894500D02*
D03*
X434000Y892500D02*
D03*
X460500Y895000D02*
D03*
X398000Y955000D02*
D03*
X441894Y963390D02*
D03*
X431536Y963063D02*
D03*
X423000Y953000D02*
D03*
X433265Y947010D02*
D03*
X315500Y865500D02*
D03*
X317157Y876000D02*
D03*
X328000Y852500D02*
D03*
X554000Y298500D02*
D03*
X578000Y39000D02*
D03*
X501000Y319000D02*
D03*
X429500Y1060000D02*
D03*
X462000Y1087714D02*
D03*
X465081Y1081904D02*
D03*
X427247Y947522D02*
D03*
X439300Y946758D02*
D03*
X430000Y931000D02*
D03*
X428679Y1042821D02*
D03*
X439209Y952797D02*
D03*
X423960Y931000D02*
D03*
X492000Y961500D02*
D03*
X495000Y1003500D02*
D03*
X520500Y951500D02*
D03*
X505000Y962500D02*
D03*
X498492Y962179D02*
D03*
X494250Y1010074D02*
D03*
X521000Y899000D02*
D03*
X496920Y1018943D02*
D03*
X423500Y1058500D02*
D03*
X512000Y1016000D02*
D03*
X496500Y1028500D02*
D03*
X342000Y871500D02*
D03*
X315000Y885000D02*
D03*
X342000Y885500D02*
D03*
X486000Y1003500D02*
D03*
X524500Y360000D02*
D03*
X545000Y382500D02*
D03*
X353509Y259009D02*
D03*
X317500Y316000D02*
D03*
X310000Y315000D02*
D03*
X250000Y976000D02*
D03*
X266000Y1033500D02*
D03*
X266500Y1043000D02*
D03*
X401185Y986000D02*
D03*
X438758Y988000D02*
D03*
X417653Y1067347D02*
D03*
X509847Y1085153D02*
D03*
Y1120153D02*
D03*
X383847Y1092153D02*
D03*
X533500Y849500D02*
D03*
X544000D02*
D03*
X629000Y91500D02*
D03*
X623500D02*
D03*
Y97000D02*
D03*
X629000D02*
D03*
X623500Y86000D02*
D03*
X629070Y86022D02*
D03*
X622000Y327000D02*
D03*
X616000D02*
D03*
X610000D02*
D03*
X434500Y438300D02*
D03*
X482750Y385500D02*
D03*
X445000Y387000D02*
D03*
X78500Y44500D02*
D03*
X91500D02*
D03*
X85000D02*
D03*
X335000Y36000D02*
D03*
X314500Y38000D02*
D03*
X310328Y89428D02*
D03*
X240075Y74043D02*
D03*
X262830Y72500D02*
D03*
X265000Y144000D02*
D03*
X476000Y1003500D02*
D03*
X467500D02*
D03*
X423486Y1092014D02*
D03*
X429352Y1091334D02*
D03*
X367000Y981000D02*
D03*
X401348Y1008152D02*
D03*
X189500Y1093500D02*
D03*
X216000Y975000D02*
D03*
X211000Y930000D02*
D03*
X192500Y929500D02*
D03*
X38000Y921000D02*
D03*
X31075Y994575D02*
D03*
X36000Y1095000D02*
D03*
X41000D02*
D03*
X38000Y1118500D02*
D03*
X215500Y851500D02*
D03*
X229272Y878805D02*
D03*
X201500Y877500D02*
D03*
X170500Y893500D02*
D03*
X25500Y911500D02*
D03*
X153500Y912000D02*
D03*
X154000Y893000D02*
D03*
X200000Y885500D02*
D03*
X216000Y825500D02*
D03*
X165535Y975000D02*
D03*
X199000Y980500D02*
D03*
X172500Y1006500D02*
D03*
X117500Y881000D02*
D03*
X167000Y945000D02*
D03*
X167500Y965000D02*
D03*
Y955500D02*
D03*
X148000Y1011000D02*
D03*
X167800Y165000D02*
D03*
X300000Y183000D02*
D03*
X381500Y172000D02*
D03*
X60854Y974444D02*
D03*
X56000Y995500D02*
D03*
X63301Y922377D02*
D03*
X70000Y954000D02*
D03*
X413500Y844500D02*
D03*
X422000Y830549D02*
D03*
X379500Y793500D02*
D03*
X380500Y778500D02*
D03*
X444000Y749500D02*
D03*
X434000D02*
D03*
X411581Y750026D02*
D03*
X442500Y785000D02*
D03*
X469000Y750000D02*
D03*
X452932Y852431D02*
D03*
X129500Y1093000D02*
D03*
X108500Y1102500D02*
D03*
X163154Y1029944D02*
D03*
X81000Y1057000D02*
D03*
X87500Y1072907D02*
D03*
X104564Y1078564D02*
D03*
X81000Y1002500D02*
D03*
X182000Y1049500D02*
D03*
X274500Y88500D02*
D03*
X240000Y90000D02*
D03*
X93000Y1102500D02*
D03*
X46000Y1095000D02*
D03*
X303000Y1143500D02*
D03*
Y1148500D02*
D03*
X19000Y1003000D02*
D03*
X45000Y1065000D02*
D03*
X19000Y1066000D02*
D03*
X24500Y967500D02*
D03*
X251000Y1024000D02*
D03*
X258500Y960500D02*
D03*
X306500Y968000D02*
D03*
Y963000D02*
D03*
X432500Y1119500D02*
D03*
Y1125000D02*
D03*
X427500Y1119500D02*
D03*
X512000Y699500D02*
D03*
X436500Y669000D02*
D03*
X418150Y1050850D02*
D03*
X623253Y420023D02*
D03*
X630000Y455500D02*
D03*
X485000Y851500D02*
D03*
X433000Y852000D02*
D03*
X620000Y300000D02*
D03*
X610000D02*
D03*
X630000D02*
D03*
X365000Y274000D02*
D03*
X353500D02*
D03*
X359000D02*
D03*
X370500Y85500D02*
D03*
X365000Y269000D02*
D03*
Y264000D02*
D03*
Y259000D02*
D03*
X353500Y269000D02*
D03*
X359000D02*
D03*
Y264000D02*
D03*
X353500D02*
D03*
X359000Y259000D02*
D03*
X19000Y967500D02*
D03*
X24500Y962500D02*
D03*
X19000D02*
D03*
Y952500D02*
D03*
X24500D02*
D03*
X19000Y957500D02*
D03*
X24500D02*
D03*
X13000Y962500D02*
D03*
Y957500D02*
D03*
Y952500D02*
D03*
X235000Y177500D02*
D03*
X224500Y172000D02*
D03*
Y177500D02*
D03*
X230000D02*
D03*
X235000Y172000D02*
D03*
Y166500D02*
D03*
X230000Y172000D02*
D03*
Y166500D02*
D03*
X224500D02*
D03*
X185500Y204000D02*
D03*
Y209000D02*
D03*
Y214000D02*
D03*
Y219000D02*
D03*
X197000Y209000D02*
D03*
X191500D02*
D03*
X197000Y204000D02*
D03*
X191500D02*
D03*
Y214000D02*
D03*
X197000D02*
D03*
X191500Y219000D02*
D03*
X197000D02*
D03*
X269500Y74000D02*
D03*
X279500Y93500D02*
D03*
X310500Y104500D02*
D03*
X240000Y100000D02*
D03*
Y110000D02*
D03*
X230000Y100000D02*
D03*
Y110000D02*
D03*
X220000D02*
D03*
X230000Y120000D02*
D03*
X220000D02*
D03*
X210000Y130000D02*
D03*
X220000D02*
D03*
X230000D02*
D03*
X210000Y120000D02*
D03*
D158*
X395358Y1204843D02*
D03*
X408058Y1217542D02*
D03*
X393700Y1219200D02*
D03*
X381000Y1206500D02*
D03*
X368300D02*
D03*
X381000Y1231900D02*
D03*
X635000Y1054100D02*
D03*
Y1041400D02*
D03*
Y1028700D02*
D03*
Y1003300D02*
D03*
Y977900D02*
D03*
Y952500D02*
D03*
Y939800D02*
D03*
Y927100D02*
D03*
Y838200D02*
D03*
Y825500D02*
D03*
Y812800D02*
D03*
Y723900D02*
D03*
Y711200D02*
D03*
Y698500D02*
D03*
Y673100D02*
D03*
Y647700D02*
D03*
Y622300D02*
D03*
Y609600D02*
D03*
Y596900D02*
D03*
Y584200D02*
D03*
Y571500D02*
D03*
Y558800D02*
D03*
Y546100D02*
D03*
Y533400D02*
D03*
Y520700D02*
D03*
Y508000D02*
D03*
Y495300D02*
D03*
Y482600D02*
D03*
Y469900D02*
D03*
Y241300D02*
D03*
Y228600D02*
D03*
Y215900D02*
D03*
Y203200D02*
D03*
Y190500D02*
D03*
Y177800D02*
D03*
Y165100D02*
D03*
Y152400D02*
D03*
Y139700D02*
D03*
Y127000D02*
D03*
Y114300D02*
D03*
Y101600D02*
D03*
Y88900D02*
D03*
X622300Y1054100D02*
D03*
Y1041400D02*
D03*
Y1028700D02*
D03*
Y1003300D02*
D03*
Y977900D02*
D03*
Y952500D02*
D03*
Y939800D02*
D03*
Y927100D02*
D03*
Y838200D02*
D03*
Y825500D02*
D03*
Y812800D02*
D03*
Y723900D02*
D03*
Y711200D02*
D03*
Y698500D02*
D03*
Y673100D02*
D03*
Y647700D02*
D03*
Y622300D02*
D03*
Y482600D02*
D03*
Y469900D02*
D03*
Y431800D02*
D03*
Y406400D02*
D03*
Y393700D02*
D03*
Y381000D02*
D03*
Y241300D02*
D03*
Y228600D02*
D03*
Y215900D02*
D03*
Y203200D02*
D03*
Y190500D02*
D03*
Y177800D02*
D03*
Y165100D02*
D03*
Y152400D02*
D03*
Y139700D02*
D03*
Y127000D02*
D03*
Y76200D02*
D03*
Y63500D02*
D03*
Y50800D02*
D03*
X609600Y1054100D02*
D03*
Y1041400D02*
D03*
Y1028700D02*
D03*
Y1003300D02*
D03*
Y977900D02*
D03*
Y952500D02*
D03*
Y939800D02*
D03*
Y927100D02*
D03*
Y838200D02*
D03*
Y825500D02*
D03*
Y812800D02*
D03*
Y723900D02*
D03*
Y711200D02*
D03*
Y698500D02*
D03*
Y673100D02*
D03*
Y647700D02*
D03*
Y622300D02*
D03*
Y571500D02*
D03*
Y520700D02*
D03*
Y495300D02*
D03*
Y482600D02*
D03*
Y469900D02*
D03*
Y431800D02*
D03*
Y381000D02*
D03*
Y241300D02*
D03*
Y228600D02*
D03*
Y215900D02*
D03*
Y203200D02*
D03*
Y190500D02*
D03*
Y177800D02*
D03*
Y165100D02*
D03*
Y152400D02*
D03*
Y139700D02*
D03*
Y88900D02*
D03*
Y76200D02*
D03*
Y63500D02*
D03*
Y50800D02*
D03*
Y38100D02*
D03*
X596900Y1054100D02*
D03*
Y1041400D02*
D03*
Y1028700D02*
D03*
Y1003300D02*
D03*
Y977900D02*
D03*
Y952500D02*
D03*
Y939800D02*
D03*
Y927100D02*
D03*
Y838200D02*
D03*
Y825500D02*
D03*
Y812800D02*
D03*
Y723900D02*
D03*
Y711200D02*
D03*
Y698500D02*
D03*
Y673100D02*
D03*
Y558800D02*
D03*
Y533400D02*
D03*
Y520700D02*
D03*
Y508000D02*
D03*
Y495300D02*
D03*
Y406400D02*
D03*
Y393700D02*
D03*
Y381000D02*
D03*
Y355600D02*
D03*
Y241300D02*
D03*
Y228600D02*
D03*
Y215900D02*
D03*
Y203200D02*
D03*
Y190500D02*
D03*
Y177800D02*
D03*
Y165100D02*
D03*
Y152400D02*
D03*
Y139700D02*
D03*
Y88900D02*
D03*
Y76200D02*
D03*
Y50800D02*
D03*
Y38100D02*
D03*
Y25400D02*
D03*
X584200Y1130300D02*
D03*
Y1117600D02*
D03*
Y1104900D02*
D03*
Y1079500D02*
D03*
Y1066800D02*
D03*
Y1054100D02*
D03*
Y1041400D02*
D03*
Y1028700D02*
D03*
Y1016000D02*
D03*
Y1003300D02*
D03*
Y977900D02*
D03*
Y965200D02*
D03*
Y952500D02*
D03*
Y939800D02*
D03*
Y927100D02*
D03*
Y723900D02*
D03*
Y711200D02*
D03*
Y698500D02*
D03*
Y685800D02*
D03*
Y571500D02*
D03*
Y533400D02*
D03*
Y520700D02*
D03*
Y508000D02*
D03*
Y495300D02*
D03*
Y457200D02*
D03*
Y381000D02*
D03*
Y342900D02*
D03*
Y241300D02*
D03*
Y228600D02*
D03*
Y215900D02*
D03*
Y203200D02*
D03*
Y190500D02*
D03*
Y177800D02*
D03*
Y165100D02*
D03*
Y152400D02*
D03*
Y139700D02*
D03*
Y63500D02*
D03*
Y50800D02*
D03*
Y25400D02*
D03*
X571500Y1130300D02*
D03*
Y1117600D02*
D03*
Y1104900D02*
D03*
Y1092200D02*
D03*
Y901700D02*
D03*
Y889000D02*
D03*
Y393700D02*
D03*
Y381000D02*
D03*
Y241300D02*
D03*
Y228600D02*
D03*
Y215900D02*
D03*
Y203200D02*
D03*
Y190500D02*
D03*
Y177800D02*
D03*
Y165100D02*
D03*
Y152400D02*
D03*
Y139700D02*
D03*
Y50800D02*
D03*
Y38100D02*
D03*
Y25400D02*
D03*
Y12700D02*
D03*
X558800Y1130300D02*
D03*
Y1117600D02*
D03*
Y1104900D02*
D03*
Y1092200D02*
D03*
Y241300D02*
D03*
Y190500D02*
D03*
Y177800D02*
D03*
Y165100D02*
D03*
Y152400D02*
D03*
Y139700D02*
D03*
Y88900D02*
D03*
Y76200D02*
D03*
Y63500D02*
D03*
Y50800D02*
D03*
Y38100D02*
D03*
Y25400D02*
D03*
Y12700D02*
D03*
X546100Y1130300D02*
D03*
Y1117600D02*
D03*
Y1104900D02*
D03*
Y1092200D02*
D03*
Y914400D02*
D03*
Y889000D02*
D03*
Y876300D02*
D03*
Y863600D02*
D03*
Y419100D02*
D03*
Y406400D02*
D03*
Y241300D02*
D03*
Y190500D02*
D03*
Y177800D02*
D03*
Y165100D02*
D03*
Y152400D02*
D03*
Y139700D02*
D03*
Y63500D02*
D03*
Y50800D02*
D03*
Y12700D02*
D03*
X533400Y1308100D02*
D03*
Y1295400D02*
D03*
Y1282700D02*
D03*
Y1270000D02*
D03*
Y1257300D02*
D03*
Y1244600D02*
D03*
Y1231900D02*
D03*
Y1193800D02*
D03*
Y1181100D02*
D03*
Y1168400D02*
D03*
Y1155700D02*
D03*
Y1143000D02*
D03*
Y1130300D02*
D03*
Y1117600D02*
D03*
Y1104900D02*
D03*
Y1092200D02*
D03*
Y1028700D02*
D03*
Y901700D02*
D03*
Y889000D02*
D03*
Y876300D02*
D03*
Y419100D02*
D03*
Y406400D02*
D03*
Y393700D02*
D03*
Y342900D02*
D03*
Y241300D02*
D03*
Y190500D02*
D03*
Y177800D02*
D03*
Y165100D02*
D03*
Y152400D02*
D03*
Y139700D02*
D03*
Y63500D02*
D03*
Y12700D02*
D03*
X520700Y1257300D02*
D03*
Y1155700D02*
D03*
Y1143000D02*
D03*
Y1130300D02*
D03*
Y1117600D02*
D03*
Y1104900D02*
D03*
Y1092200D02*
D03*
Y889000D02*
D03*
Y647700D02*
D03*
Y520700D02*
D03*
Y419100D02*
D03*
Y406400D02*
D03*
Y393700D02*
D03*
Y381000D02*
D03*
Y304800D02*
D03*
Y241300D02*
D03*
Y228600D02*
D03*
Y215900D02*
D03*
Y203200D02*
D03*
Y190500D02*
D03*
Y177800D02*
D03*
Y165100D02*
D03*
Y152400D02*
D03*
Y139700D02*
D03*
Y25400D02*
D03*
Y12700D02*
D03*
X508000Y1308100D02*
D03*
Y1295400D02*
D03*
Y1282700D02*
D03*
Y1270000D02*
D03*
Y1257300D02*
D03*
Y1143000D02*
D03*
Y1130300D02*
D03*
Y1104900D02*
D03*
Y1092200D02*
D03*
Y711200D02*
D03*
Y685800D02*
D03*
Y673100D02*
D03*
Y647700D02*
D03*
Y571500D02*
D03*
Y241300D02*
D03*
Y228600D02*
D03*
Y215900D02*
D03*
Y203200D02*
D03*
Y190500D02*
D03*
Y177800D02*
D03*
Y165100D02*
D03*
Y152400D02*
D03*
Y139700D02*
D03*
Y38100D02*
D03*
Y12700D02*
D03*
X495300Y1257300D02*
D03*
Y1041400D02*
D03*
Y838200D02*
D03*
Y723900D02*
D03*
Y711200D02*
D03*
Y685800D02*
D03*
Y660400D02*
D03*
Y635000D02*
D03*
Y622300D02*
D03*
Y571500D02*
D03*
Y317500D02*
D03*
Y304800D02*
D03*
Y241300D02*
D03*
Y228600D02*
D03*
Y215900D02*
D03*
Y203200D02*
D03*
Y190500D02*
D03*
Y177800D02*
D03*
Y165100D02*
D03*
Y152400D02*
D03*
Y139700D02*
D03*
Y88900D02*
D03*
X482600Y1117600D02*
D03*
Y1104900D02*
D03*
Y1092200D02*
D03*
Y927100D02*
D03*
Y723900D02*
D03*
Y711200D02*
D03*
Y609600D02*
D03*
Y571500D02*
D03*
Y482600D02*
D03*
Y469900D02*
D03*
Y444500D02*
D03*
Y419100D02*
D03*
Y368300D02*
D03*
Y241300D02*
D03*
Y228600D02*
D03*
Y215900D02*
D03*
Y203200D02*
D03*
Y190500D02*
D03*
Y177800D02*
D03*
Y165100D02*
D03*
Y152400D02*
D03*
Y139700D02*
D03*
X469900Y1257300D02*
D03*
Y1193800D02*
D03*
Y711200D02*
D03*
Y609600D02*
D03*
Y584200D02*
D03*
Y571500D02*
D03*
Y482600D02*
D03*
Y457200D02*
D03*
Y393700D02*
D03*
Y368300D02*
D03*
Y355600D02*
D03*
Y241300D02*
D03*
Y228600D02*
D03*
Y215900D02*
D03*
Y203200D02*
D03*
Y190500D02*
D03*
Y177800D02*
D03*
Y165100D02*
D03*
Y152400D02*
D03*
Y139700D02*
D03*
Y127000D02*
D03*
X457200Y1308100D02*
D03*
Y1295400D02*
D03*
Y1282700D02*
D03*
Y1270000D02*
D03*
Y1257300D02*
D03*
Y1244600D02*
D03*
Y1231900D02*
D03*
Y1168400D02*
D03*
Y762000D02*
D03*
Y660400D02*
D03*
Y622300D02*
D03*
Y584200D02*
D03*
Y571500D02*
D03*
Y546100D02*
D03*
Y508000D02*
D03*
Y368300D02*
D03*
Y355600D02*
D03*
Y342900D02*
D03*
X444500Y1308100D02*
D03*
Y1295400D02*
D03*
Y1282700D02*
D03*
Y1270000D02*
D03*
Y1257300D02*
D03*
Y1168400D02*
D03*
Y685800D02*
D03*
Y609600D02*
D03*
Y584200D02*
D03*
Y508000D02*
D03*
Y482600D02*
D03*
Y469900D02*
D03*
Y444500D02*
D03*
Y431800D02*
D03*
Y419100D02*
D03*
Y368300D02*
D03*
Y355600D02*
D03*
Y114300D02*
D03*
Y63500D02*
D03*
Y50800D02*
D03*
X431800Y1308100D02*
D03*
Y1295400D02*
D03*
Y1282700D02*
D03*
Y1270000D02*
D03*
Y1193800D02*
D03*
Y1181100D02*
D03*
Y1143000D02*
D03*
Y1066800D02*
D03*
Y914400D02*
D03*
Y838200D02*
D03*
Y609600D02*
D03*
Y571500D02*
D03*
Y546100D02*
D03*
Y482600D02*
D03*
Y368300D02*
D03*
Y317500D02*
D03*
Y203200D02*
D03*
Y165100D02*
D03*
Y114300D02*
D03*
Y63500D02*
D03*
Y25400D02*
D03*
X419100Y1308100D02*
D03*
Y1295400D02*
D03*
Y1206500D02*
D03*
Y1193800D02*
D03*
Y1181100D02*
D03*
Y1168400D02*
D03*
Y762000D02*
D03*
Y749300D02*
D03*
Y711200D02*
D03*
Y685800D02*
D03*
Y508000D02*
D03*
Y406400D02*
D03*
Y330200D02*
D03*
Y317500D02*
D03*
Y177800D02*
D03*
Y165100D02*
D03*
Y114300D02*
D03*
Y38100D02*
D03*
Y12700D02*
D03*
X406400Y1308100D02*
D03*
Y1295400D02*
D03*
Y1282700D02*
D03*
Y1270000D02*
D03*
Y1231900D02*
D03*
Y1193800D02*
D03*
Y1181100D02*
D03*
Y1168400D02*
D03*
Y838200D02*
D03*
Y749300D02*
D03*
Y685800D02*
D03*
Y571500D02*
D03*
Y508000D02*
D03*
Y482600D02*
D03*
Y469900D02*
D03*
Y444500D02*
D03*
Y431800D02*
D03*
Y419100D02*
D03*
Y406400D02*
D03*
Y190500D02*
D03*
Y177800D02*
D03*
Y165100D02*
D03*
Y127000D02*
D03*
Y50800D02*
D03*
Y25400D02*
D03*
Y12700D02*
D03*
X393700Y1308100D02*
D03*
Y1295400D02*
D03*
Y1282700D02*
D03*
Y1181100D02*
D03*
Y1168400D02*
D03*
Y1143000D02*
D03*
Y1104900D02*
D03*
Y762000D02*
D03*
Y749300D02*
D03*
Y736600D02*
D03*
Y723900D02*
D03*
Y685800D02*
D03*
Y660400D02*
D03*
Y609600D02*
D03*
Y508000D02*
D03*
Y482600D02*
D03*
Y469900D02*
D03*
Y444500D02*
D03*
Y431800D02*
D03*
Y419100D02*
D03*
Y241300D02*
D03*
Y203200D02*
D03*
Y190500D02*
D03*
Y177800D02*
D03*
Y165100D02*
D03*
Y63500D02*
D03*
Y38100D02*
D03*
Y25400D02*
D03*
Y12700D02*
D03*
X381000Y1308100D02*
D03*
Y1295400D02*
D03*
Y1282700D02*
D03*
Y1257300D02*
D03*
Y1181100D02*
D03*
Y1168400D02*
D03*
Y990600D02*
D03*
Y787400D02*
D03*
Y762000D02*
D03*
Y749300D02*
D03*
Y736600D02*
D03*
Y723900D02*
D03*
Y685800D02*
D03*
Y660400D02*
D03*
Y647700D02*
D03*
Y622300D02*
D03*
Y609600D02*
D03*
Y546100D02*
D03*
Y520700D02*
D03*
Y508000D02*
D03*
Y482600D02*
D03*
Y469900D02*
D03*
Y444500D02*
D03*
Y431800D02*
D03*
Y419100D02*
D03*
Y406400D02*
D03*
Y368300D02*
D03*
Y355600D02*
D03*
Y342900D02*
D03*
Y317500D02*
D03*
Y304800D02*
D03*
Y203200D02*
D03*
Y50800D02*
D03*
Y38100D02*
D03*
Y25400D02*
D03*
Y12700D02*
D03*
X368300Y1308100D02*
D03*
Y1295400D02*
D03*
Y1282700D02*
D03*
Y1257300D02*
D03*
Y1244600D02*
D03*
Y1231900D02*
D03*
Y1181100D02*
D03*
Y1168400D02*
D03*
Y1130300D02*
D03*
Y1117600D02*
D03*
Y1066800D02*
D03*
Y927100D02*
D03*
Y901700D02*
D03*
Y889000D02*
D03*
Y63500D02*
D03*
Y50800D02*
D03*
Y38100D02*
D03*
Y25400D02*
D03*
Y12700D02*
D03*
X355600Y1308100D02*
D03*
Y1295400D02*
D03*
Y1282700D02*
D03*
Y1257300D02*
D03*
Y1244600D02*
D03*
Y1231900D02*
D03*
Y1181100D02*
D03*
Y1130300D02*
D03*
Y1117600D02*
D03*
Y1104900D02*
D03*
Y1079500D02*
D03*
Y1054100D02*
D03*
Y1041400D02*
D03*
Y1028700D02*
D03*
Y1016000D02*
D03*
Y1003300D02*
D03*
Y990600D02*
D03*
Y927100D02*
D03*
Y889000D02*
D03*
Y127000D02*
D03*
Y101600D02*
D03*
Y76200D02*
D03*
Y63500D02*
D03*
Y50800D02*
D03*
Y38100D02*
D03*
Y25400D02*
D03*
Y12700D02*
D03*
X342900Y1308100D02*
D03*
Y1295400D02*
D03*
Y1282700D02*
D03*
Y1257300D02*
D03*
Y1244600D02*
D03*
Y1117600D02*
D03*
Y1104900D02*
D03*
Y1079500D02*
D03*
Y1066800D02*
D03*
Y1041400D02*
D03*
Y1028700D02*
D03*
Y1016000D02*
D03*
Y1003300D02*
D03*
Y990600D02*
D03*
Y977900D02*
D03*
Y774700D02*
D03*
Y762000D02*
D03*
Y749300D02*
D03*
Y736600D02*
D03*
Y723900D02*
D03*
Y685800D02*
D03*
Y673100D02*
D03*
Y660400D02*
D03*
Y647700D02*
D03*
Y635000D02*
D03*
Y622300D02*
D03*
Y609600D02*
D03*
Y596900D02*
D03*
Y203200D02*
D03*
Y139700D02*
D03*
Y114300D02*
D03*
Y88900D02*
D03*
Y76200D02*
D03*
Y63500D02*
D03*
Y50800D02*
D03*
Y38100D02*
D03*
Y12700D02*
D03*
X330200Y1308100D02*
D03*
Y1295400D02*
D03*
Y1282700D02*
D03*
Y1257300D02*
D03*
Y1117600D02*
D03*
Y1104900D02*
D03*
Y1079500D02*
D03*
Y1066800D02*
D03*
Y1054100D02*
D03*
Y1028700D02*
D03*
Y1016000D02*
D03*
Y1003300D02*
D03*
Y990600D02*
D03*
Y977900D02*
D03*
Y939800D02*
D03*
Y825500D02*
D03*
Y203200D02*
D03*
Y190500D02*
D03*
Y152400D02*
D03*
Y127000D02*
D03*
Y76200D02*
D03*
Y63500D02*
D03*
Y50800D02*
D03*
Y38100D02*
D03*
Y12700D02*
D03*
X317500Y1308100D02*
D03*
Y1295400D02*
D03*
Y1282700D02*
D03*
Y1257300D02*
D03*
Y1054100D02*
D03*
Y1041400D02*
D03*
Y1016000D02*
D03*
Y1003300D02*
D03*
Y952500D02*
D03*
Y812800D02*
D03*
Y635000D02*
D03*
Y622300D02*
D03*
Y609600D02*
D03*
Y596900D02*
D03*
Y584200D02*
D03*
Y571500D02*
D03*
Y520700D02*
D03*
Y508000D02*
D03*
Y444500D02*
D03*
Y431800D02*
D03*
Y165100D02*
D03*
Y139700D02*
D03*
Y114300D02*
D03*
Y76200D02*
D03*
Y63500D02*
D03*
Y50800D02*
D03*
Y12700D02*
D03*
X304800Y1308100D02*
D03*
Y1295400D02*
D03*
Y1282700D02*
D03*
Y1257300D02*
D03*
Y1231900D02*
D03*
Y1193800D02*
D03*
Y1130300D02*
D03*
Y1104900D02*
D03*
Y1079500D02*
D03*
Y1066800D02*
D03*
Y1041400D02*
D03*
Y1028700D02*
D03*
Y876300D02*
D03*
Y774700D02*
D03*
Y762000D02*
D03*
Y749300D02*
D03*
Y736600D02*
D03*
Y723900D02*
D03*
Y711200D02*
D03*
Y698500D02*
D03*
Y685800D02*
D03*
Y647700D02*
D03*
Y635000D02*
D03*
Y622300D02*
D03*
Y609600D02*
D03*
Y596900D02*
D03*
Y584200D02*
D03*
Y571500D02*
D03*
Y558800D02*
D03*
Y546100D02*
D03*
Y215900D02*
D03*
Y177800D02*
D03*
Y152400D02*
D03*
Y127000D02*
D03*
Y114300D02*
D03*
Y63500D02*
D03*
Y50800D02*
D03*
Y38100D02*
D03*
X292100Y1308100D02*
D03*
Y1295400D02*
D03*
Y1282700D02*
D03*
Y1257300D02*
D03*
Y1231900D02*
D03*
Y1143000D02*
D03*
Y1130300D02*
D03*
Y990600D02*
D03*
Y952500D02*
D03*
Y939800D02*
D03*
Y876300D02*
D03*
Y812800D02*
D03*
Y800100D02*
D03*
Y787400D02*
D03*
Y774700D02*
D03*
Y749300D02*
D03*
Y736600D02*
D03*
Y723900D02*
D03*
Y711200D02*
D03*
Y698500D02*
D03*
Y685800D02*
D03*
Y673100D02*
D03*
Y165100D02*
D03*
Y139700D02*
D03*
X279400Y1308100D02*
D03*
Y1295400D02*
D03*
Y1282700D02*
D03*
Y1244600D02*
D03*
Y1104900D02*
D03*
Y1079500D02*
D03*
Y1066800D02*
D03*
Y1041400D02*
D03*
Y1028700D02*
D03*
Y990600D02*
D03*
Y977900D02*
D03*
Y952500D02*
D03*
Y939800D02*
D03*
Y927100D02*
D03*
Y825500D02*
D03*
Y812800D02*
D03*
Y800100D02*
D03*
Y787400D02*
D03*
Y736600D02*
D03*
Y723900D02*
D03*
Y711200D02*
D03*
Y698500D02*
D03*
Y330200D02*
D03*
Y317500D02*
D03*
Y215900D02*
D03*
Y203200D02*
D03*
X266700Y1308100D02*
D03*
Y1295400D02*
D03*
Y1282700D02*
D03*
Y1270000D02*
D03*
Y1117600D02*
D03*
Y1104900D02*
D03*
Y1079500D02*
D03*
Y1066800D02*
D03*
Y1028700D02*
D03*
Y990600D02*
D03*
Y952500D02*
D03*
Y939800D02*
D03*
Y927100D02*
D03*
Y914400D02*
D03*
Y901700D02*
D03*
Y889000D02*
D03*
Y876300D02*
D03*
Y863600D02*
D03*
Y838200D02*
D03*
Y825500D02*
D03*
Y812800D02*
D03*
Y800100D02*
D03*
Y723900D02*
D03*
Y711200D02*
D03*
Y393700D02*
D03*
Y342900D02*
D03*
Y317500D02*
D03*
Y304800D02*
D03*
Y292100D02*
D03*
Y228600D02*
D03*
Y215900D02*
D03*
Y203200D02*
D03*
Y190500D02*
D03*
X254000Y1308100D02*
D03*
Y1295400D02*
D03*
Y1282700D02*
D03*
Y1270000D02*
D03*
Y1257300D02*
D03*
Y1244600D02*
D03*
Y1231900D02*
D03*
Y1219200D02*
D03*
Y952500D02*
D03*
Y939800D02*
D03*
Y927100D02*
D03*
Y889000D02*
D03*
Y876300D02*
D03*
Y838200D02*
D03*
Y825500D02*
D03*
Y812800D02*
D03*
Y800100D02*
D03*
Y723900D02*
D03*
Y698500D02*
D03*
Y685800D02*
D03*
Y673100D02*
D03*
Y660400D02*
D03*
Y647700D02*
D03*
Y635000D02*
D03*
Y622300D02*
D03*
Y609600D02*
D03*
Y596900D02*
D03*
Y584200D02*
D03*
Y571500D02*
D03*
Y558800D02*
D03*
Y546100D02*
D03*
Y533400D02*
D03*
Y520700D02*
D03*
Y508000D02*
D03*
Y495300D02*
D03*
Y482600D02*
D03*
Y469900D02*
D03*
Y457200D02*
D03*
Y444500D02*
D03*
Y431800D02*
D03*
Y419100D02*
D03*
Y406400D02*
D03*
Y355600D02*
D03*
Y317500D02*
D03*
Y304800D02*
D03*
Y292100D02*
D03*
Y177800D02*
D03*
Y165100D02*
D03*
Y152400D02*
D03*
X241300Y1308100D02*
D03*
Y1295400D02*
D03*
Y1282700D02*
D03*
Y1270000D02*
D03*
Y1257300D02*
D03*
Y1244600D02*
D03*
Y1231900D02*
D03*
Y1079500D02*
D03*
Y1066800D02*
D03*
Y1028700D02*
D03*
Y1016000D02*
D03*
Y965200D02*
D03*
Y939800D02*
D03*
Y927100D02*
D03*
Y889000D02*
D03*
Y825500D02*
D03*
Y812800D02*
D03*
Y800100D02*
D03*
Y787400D02*
D03*
Y736600D02*
D03*
Y711200D02*
D03*
Y698500D02*
D03*
Y685800D02*
D03*
Y673100D02*
D03*
Y660400D02*
D03*
Y647700D02*
D03*
Y635000D02*
D03*
Y622300D02*
D03*
Y609600D02*
D03*
Y596900D02*
D03*
Y584200D02*
D03*
Y571500D02*
D03*
Y558800D02*
D03*
Y546100D02*
D03*
Y533400D02*
D03*
Y520700D02*
D03*
Y508000D02*
D03*
Y495300D02*
D03*
Y482600D02*
D03*
Y469900D02*
D03*
Y457200D02*
D03*
Y444500D02*
D03*
Y431800D02*
D03*
Y419100D02*
D03*
Y406400D02*
D03*
Y368300D02*
D03*
Y304800D02*
D03*
Y292100D02*
D03*
Y241300D02*
D03*
Y228600D02*
D03*
Y215900D02*
D03*
Y203200D02*
D03*
Y190500D02*
D03*
Y177800D02*
D03*
Y165100D02*
D03*
Y127000D02*
D03*
X228600Y1308100D02*
D03*
Y1295400D02*
D03*
Y1282700D02*
D03*
Y1270000D02*
D03*
Y1257300D02*
D03*
Y1244600D02*
D03*
Y1231900D02*
D03*
Y1066800D02*
D03*
Y990600D02*
D03*
Y965200D02*
D03*
Y939800D02*
D03*
Y825500D02*
D03*
Y812800D02*
D03*
Y800100D02*
D03*
Y787400D02*
D03*
Y774700D02*
D03*
Y762000D02*
D03*
Y749300D02*
D03*
Y723900D02*
D03*
Y711200D02*
D03*
Y698500D02*
D03*
Y685800D02*
D03*
Y673100D02*
D03*
Y660400D02*
D03*
Y647700D02*
D03*
Y635000D02*
D03*
Y622300D02*
D03*
Y609600D02*
D03*
Y596900D02*
D03*
Y584200D02*
D03*
Y571500D02*
D03*
Y558800D02*
D03*
Y546100D02*
D03*
Y533400D02*
D03*
Y520700D02*
D03*
Y508000D02*
D03*
Y495300D02*
D03*
Y482600D02*
D03*
Y469900D02*
D03*
Y457200D02*
D03*
Y444500D02*
D03*
Y431800D02*
D03*
Y419100D02*
D03*
Y381000D02*
D03*
Y368300D02*
D03*
Y304800D02*
D03*
Y203200D02*
D03*
Y190500D02*
D03*
Y88900D02*
D03*
X215900Y1308100D02*
D03*
Y1295400D02*
D03*
Y1282700D02*
D03*
Y1270000D02*
D03*
Y1257300D02*
D03*
Y1244600D02*
D03*
Y1231900D02*
D03*
Y1219200D02*
D03*
Y1130300D02*
D03*
Y1066800D02*
D03*
Y990600D02*
D03*
Y876300D02*
D03*
Y812800D02*
D03*
Y800100D02*
D03*
Y787400D02*
D03*
Y736600D02*
D03*
Y723900D02*
D03*
Y711200D02*
D03*
Y698500D02*
D03*
Y685800D02*
D03*
Y673100D02*
D03*
Y660400D02*
D03*
Y647700D02*
D03*
Y635000D02*
D03*
Y622300D02*
D03*
Y609600D02*
D03*
Y596900D02*
D03*
Y584200D02*
D03*
Y571500D02*
D03*
Y558800D02*
D03*
Y546100D02*
D03*
Y533400D02*
D03*
Y520700D02*
D03*
Y508000D02*
D03*
Y495300D02*
D03*
Y482600D02*
D03*
Y469900D02*
D03*
Y457200D02*
D03*
Y444500D02*
D03*
Y431800D02*
D03*
Y381000D02*
D03*
Y368300D02*
D03*
X203200Y1308100D02*
D03*
Y1295400D02*
D03*
Y1282700D02*
D03*
Y1270000D02*
D03*
Y1257300D02*
D03*
Y1244600D02*
D03*
Y1231900D02*
D03*
Y1219200D02*
D03*
Y1206500D02*
D03*
Y1193800D02*
D03*
Y1155700D02*
D03*
Y1130300D02*
D03*
Y1117600D02*
D03*
Y1066800D02*
D03*
Y812800D02*
D03*
Y800100D02*
D03*
Y787400D02*
D03*
Y774700D02*
D03*
Y749300D02*
D03*
Y736600D02*
D03*
Y723900D02*
D03*
Y711200D02*
D03*
Y698500D02*
D03*
Y685800D02*
D03*
Y673100D02*
D03*
Y660400D02*
D03*
Y647700D02*
D03*
Y635000D02*
D03*
Y622300D02*
D03*
Y609600D02*
D03*
Y596900D02*
D03*
Y584200D02*
D03*
Y571500D02*
D03*
Y558800D02*
D03*
Y546100D02*
D03*
Y533400D02*
D03*
Y520700D02*
D03*
Y508000D02*
D03*
Y495300D02*
D03*
Y482600D02*
D03*
Y469900D02*
D03*
Y457200D02*
D03*
Y444500D02*
D03*
Y393700D02*
D03*
Y381000D02*
D03*
Y368300D02*
D03*
Y355600D02*
D03*
Y254000D02*
D03*
Y88900D02*
D03*
Y63500D02*
D03*
Y50800D02*
D03*
Y38100D02*
D03*
X190500Y1308100D02*
D03*
Y1295400D02*
D03*
Y1282700D02*
D03*
Y1270000D02*
D03*
Y1257300D02*
D03*
Y1244600D02*
D03*
Y1231900D02*
D03*
Y1219200D02*
D03*
Y1206500D02*
D03*
Y1193800D02*
D03*
Y1155700D02*
D03*
Y1130300D02*
D03*
Y1117600D02*
D03*
Y1066800D02*
D03*
Y812800D02*
D03*
Y800100D02*
D03*
Y787400D02*
D03*
Y762000D02*
D03*
Y749300D02*
D03*
Y736600D02*
D03*
Y723900D02*
D03*
Y711200D02*
D03*
Y698500D02*
D03*
Y685800D02*
D03*
Y673100D02*
D03*
Y660400D02*
D03*
Y609600D02*
D03*
Y596900D02*
D03*
Y584200D02*
D03*
Y571500D02*
D03*
Y558800D02*
D03*
Y546100D02*
D03*
Y533400D02*
D03*
Y520700D02*
D03*
Y508000D02*
D03*
Y495300D02*
D03*
Y482600D02*
D03*
Y469900D02*
D03*
Y457200D02*
D03*
Y406400D02*
D03*
Y393700D02*
D03*
Y381000D02*
D03*
Y368300D02*
D03*
Y355600D02*
D03*
Y342900D02*
D03*
Y88900D02*
D03*
Y76200D02*
D03*
Y63500D02*
D03*
Y50800D02*
D03*
Y38100D02*
D03*
Y25400D02*
D03*
Y12700D02*
D03*
X177800Y1206500D02*
D03*
Y1193800D02*
D03*
Y1155700D02*
D03*
Y1117600D02*
D03*
Y990600D02*
D03*
Y825500D02*
D03*
Y812800D02*
D03*
Y800100D02*
D03*
Y787400D02*
D03*
Y774700D02*
D03*
Y762000D02*
D03*
Y749300D02*
D03*
Y736600D02*
D03*
Y723900D02*
D03*
Y711200D02*
D03*
Y698500D02*
D03*
Y685800D02*
D03*
Y673100D02*
D03*
Y596900D02*
D03*
Y584200D02*
D03*
Y571500D02*
D03*
Y558800D02*
D03*
Y546100D02*
D03*
Y533400D02*
D03*
Y520700D02*
D03*
Y508000D02*
D03*
Y495300D02*
D03*
Y482600D02*
D03*
Y469900D02*
D03*
Y419100D02*
D03*
Y406400D02*
D03*
Y393700D02*
D03*
Y381000D02*
D03*
Y368300D02*
D03*
Y355600D02*
D03*
Y88900D02*
D03*
Y76200D02*
D03*
Y63500D02*
D03*
Y50800D02*
D03*
Y38100D02*
D03*
Y25400D02*
D03*
Y12700D02*
D03*
X165100Y1206500D02*
D03*
Y1193800D02*
D03*
Y1155700D02*
D03*
Y1117600D02*
D03*
Y1003300D02*
D03*
Y876300D02*
D03*
Y863600D02*
D03*
Y850900D02*
D03*
Y838200D02*
D03*
Y825500D02*
D03*
Y812800D02*
D03*
Y800100D02*
D03*
Y787400D02*
D03*
Y762000D02*
D03*
Y749300D02*
D03*
Y736600D02*
D03*
Y723900D02*
D03*
Y711200D02*
D03*
Y698500D02*
D03*
Y685800D02*
D03*
Y673100D02*
D03*
Y596900D02*
D03*
Y584200D02*
D03*
Y571500D02*
D03*
Y558800D02*
D03*
Y546100D02*
D03*
Y533400D02*
D03*
Y520700D02*
D03*
Y508000D02*
D03*
Y495300D02*
D03*
Y482600D02*
D03*
Y431800D02*
D03*
Y419100D02*
D03*
Y406400D02*
D03*
Y393700D02*
D03*
Y368300D02*
D03*
Y190500D02*
D03*
Y63500D02*
D03*
Y50800D02*
D03*
Y38100D02*
D03*
Y25400D02*
D03*
Y12700D02*
D03*
X152400Y1206500D02*
D03*
Y1193800D02*
D03*
Y1155700D02*
D03*
Y1143000D02*
D03*
Y1117600D02*
D03*
Y990600D02*
D03*
Y927100D02*
D03*
Y876300D02*
D03*
Y863600D02*
D03*
Y850900D02*
D03*
Y838200D02*
D03*
Y825500D02*
D03*
Y812800D02*
D03*
Y800100D02*
D03*
Y774700D02*
D03*
Y762000D02*
D03*
Y749300D02*
D03*
Y736600D02*
D03*
Y723900D02*
D03*
Y711200D02*
D03*
Y698500D02*
D03*
Y685800D02*
D03*
Y673100D02*
D03*
Y660400D02*
D03*
Y609600D02*
D03*
Y596900D02*
D03*
Y584200D02*
D03*
Y571500D02*
D03*
Y558800D02*
D03*
Y546100D02*
D03*
Y533400D02*
D03*
Y520700D02*
D03*
Y508000D02*
D03*
Y495300D02*
D03*
Y444500D02*
D03*
Y431800D02*
D03*
Y419100D02*
D03*
Y406400D02*
D03*
Y190500D02*
D03*
Y177800D02*
D03*
Y63500D02*
D03*
Y50800D02*
D03*
Y38100D02*
D03*
Y25400D02*
D03*
Y12700D02*
D03*
X139700Y1206500D02*
D03*
Y1193800D02*
D03*
Y1155700D02*
D03*
Y1143000D02*
D03*
Y825500D02*
D03*
Y812800D02*
D03*
Y787400D02*
D03*
Y762000D02*
D03*
Y749300D02*
D03*
Y736600D02*
D03*
Y723900D02*
D03*
Y711200D02*
D03*
Y698500D02*
D03*
Y685800D02*
D03*
Y673100D02*
D03*
Y660400D02*
D03*
Y647700D02*
D03*
Y635000D02*
D03*
Y622300D02*
D03*
Y609600D02*
D03*
Y596900D02*
D03*
Y584200D02*
D03*
Y571500D02*
D03*
Y558800D02*
D03*
Y546100D02*
D03*
Y533400D02*
D03*
Y520700D02*
D03*
Y508000D02*
D03*
Y457200D02*
D03*
Y444500D02*
D03*
Y431800D02*
D03*
Y419100D02*
D03*
Y304800D02*
D03*
Y190500D02*
D03*
Y177800D02*
D03*
Y165100D02*
D03*
Y63500D02*
D03*
Y50800D02*
D03*
Y38100D02*
D03*
Y25400D02*
D03*
Y12700D02*
D03*
X127000Y1206500D02*
D03*
Y469900D02*
D03*
Y457200D02*
D03*
Y444500D02*
D03*
Y431800D02*
D03*
Y304800D02*
D03*
Y177800D02*
D03*
Y165100D02*
D03*
Y63500D02*
D03*
Y50800D02*
D03*
Y38100D02*
D03*
Y25400D02*
D03*
Y12700D02*
D03*
X114300Y1003300D02*
D03*
Y482600D02*
D03*
Y469900D02*
D03*
Y457200D02*
D03*
Y444500D02*
D03*
Y304800D02*
D03*
Y241300D02*
D03*
Y228600D02*
D03*
Y215900D02*
D03*
Y203200D02*
D03*
Y165100D02*
D03*
Y88900D02*
D03*
Y76200D02*
D03*
Y63500D02*
D03*
Y50800D02*
D03*
Y38100D02*
D03*
Y25400D02*
D03*
Y12700D02*
D03*
X101600Y1130300D02*
D03*
Y1003300D02*
D03*
Y901700D02*
D03*
Y342900D02*
D03*
Y304800D02*
D03*
Y190500D02*
D03*
Y76200D02*
D03*
Y63500D02*
D03*
Y50800D02*
D03*
Y38100D02*
D03*
Y25400D02*
D03*
Y12700D02*
D03*
X88900Y1206500D02*
D03*
Y1003300D02*
D03*
Y927100D02*
D03*
Y355600D02*
D03*
Y342900D02*
D03*
Y304800D02*
D03*
Y190500D02*
D03*
Y177800D02*
D03*
Y127000D02*
D03*
Y114300D02*
D03*
Y38100D02*
D03*
Y25400D02*
D03*
Y12700D02*
D03*
X76200Y1206500D02*
D03*
Y927100D02*
D03*
Y368300D02*
D03*
Y355600D02*
D03*
Y342900D02*
D03*
Y304800D02*
D03*
Y38100D02*
D03*
Y25400D02*
D03*
Y12700D02*
D03*
X63500Y1206500D02*
D03*
Y1193800D02*
D03*
Y901700D02*
D03*
Y889000D02*
D03*
Y431800D02*
D03*
Y419100D02*
D03*
Y406400D02*
D03*
Y393700D02*
D03*
Y381000D02*
D03*
Y368300D02*
D03*
Y355600D02*
D03*
Y342900D02*
D03*
Y304800D02*
D03*
Y190500D02*
D03*
Y177800D02*
D03*
Y165100D02*
D03*
Y101600D02*
D03*
Y76200D02*
D03*
Y63500D02*
D03*
Y50800D02*
D03*
Y38100D02*
D03*
Y25400D02*
D03*
Y12700D02*
D03*
X50800Y1206500D02*
D03*
Y1193800D02*
D03*
Y1143000D02*
D03*
Y1066800D02*
D03*
Y190500D02*
D03*
Y177800D02*
D03*
Y165100D02*
D03*
Y101600D02*
D03*
Y76200D02*
D03*
Y63500D02*
D03*
Y50800D02*
D03*
Y38100D02*
D03*
Y25400D02*
D03*
X38100Y1041400D02*
D03*
Y1016000D02*
D03*
Y1003300D02*
D03*
Y952500D02*
D03*
Y939800D02*
D03*
Y927100D02*
D03*
Y901700D02*
D03*
Y889000D02*
D03*
Y190500D02*
D03*
Y177800D02*
D03*
Y165100D02*
D03*
Y101600D02*
D03*
Y88900D02*
D03*
Y76200D02*
D03*
Y63500D02*
D03*
Y50800D02*
D03*
Y38100D02*
D03*
X25400Y1092200D02*
D03*
Y838200D02*
D03*
Y825500D02*
D03*
Y812800D02*
D03*
Y800100D02*
D03*
Y787400D02*
D03*
Y774700D02*
D03*
Y762000D02*
D03*
Y749300D02*
D03*
Y736600D02*
D03*
Y723900D02*
D03*
Y711200D02*
D03*
Y698500D02*
D03*
Y685800D02*
D03*
Y673100D02*
D03*
Y660400D02*
D03*
Y647700D02*
D03*
Y635000D02*
D03*
Y622300D02*
D03*
Y609600D02*
D03*
Y596900D02*
D03*
Y584200D02*
D03*
Y571500D02*
D03*
Y558800D02*
D03*
Y546100D02*
D03*
Y533400D02*
D03*
Y520700D02*
D03*
Y508000D02*
D03*
Y495300D02*
D03*
Y482600D02*
D03*
Y469900D02*
D03*
Y457200D02*
D03*
Y444500D02*
D03*
Y431800D02*
D03*
Y419100D02*
D03*
Y406400D02*
D03*
Y393700D02*
D03*
Y381000D02*
D03*
Y368300D02*
D03*
Y355600D02*
D03*
Y342900D02*
D03*
Y330200D02*
D03*
Y317500D02*
D03*
Y279400D02*
D03*
Y228600D02*
D03*
Y215900D02*
D03*
Y203200D02*
D03*
Y190500D02*
D03*
Y177800D02*
D03*
Y165100D02*
D03*
Y101600D02*
D03*
Y88900D02*
D03*
Y76200D02*
D03*
Y63500D02*
D03*
Y50800D02*
D03*
X12700Y850900D02*
D03*
Y838200D02*
D03*
Y825500D02*
D03*
Y812800D02*
D03*
Y800100D02*
D03*
Y787400D02*
D03*
Y774700D02*
D03*
Y762000D02*
D03*
Y749300D02*
D03*
Y736600D02*
D03*
Y723900D02*
D03*
Y711200D02*
D03*
Y698500D02*
D03*
Y685800D02*
D03*
Y673100D02*
D03*
Y660400D02*
D03*
Y647700D02*
D03*
Y635000D02*
D03*
Y622300D02*
D03*
Y609600D02*
D03*
Y596900D02*
D03*
Y584200D02*
D03*
Y571500D02*
D03*
Y558800D02*
D03*
Y546100D02*
D03*
Y533400D02*
D03*
Y520700D02*
D03*
Y508000D02*
D03*
Y495300D02*
D03*
Y482600D02*
D03*
Y469900D02*
D03*
Y457200D02*
D03*
Y444500D02*
D03*
Y431800D02*
D03*
Y419100D02*
D03*
Y406400D02*
D03*
Y393700D02*
D03*
Y381000D02*
D03*
Y368300D02*
D03*
Y355600D02*
D03*
Y342900D02*
D03*
Y330200D02*
D03*
Y317500D02*
D03*
Y279400D02*
D03*
Y228600D02*
D03*
Y215900D02*
D03*
Y203200D02*
D03*
Y190500D02*
D03*
Y177800D02*
D03*
Y165100D02*
D03*
Y152400D02*
D03*
Y139700D02*
D03*
Y127000D02*
D03*
Y114300D02*
D03*
Y101600D02*
D03*
Y88900D02*
D03*
Y76200D02*
D03*
Y63500D02*
D03*
D159*
X383671Y1221503D02*
D03*
X371754Y1216111D02*
D03*
X365795Y1213416D02*
D03*
X359836Y1210720D02*
D03*
X387377Y1153586D02*
D03*
X393917D02*
D03*
X400457D02*
D03*
X420077D02*
D03*
X439336Y1150553D02*
D03*
X445163Y1147584D02*
D03*
X460469Y1138153D02*
D03*
X467003Y1137881D02*
D03*
X473512Y1137243D02*
D03*
X478282Y1132769D02*
D03*
X482907Y1128144D02*
D03*
X487531Y1123520D02*
D03*
X488881Y1117121D02*
D03*
X490286Y1110733D02*
D03*
X487881Y1104651D02*
D03*
Y1098111D02*
D03*
X488160Y1091578D02*
D03*
X488881Y1085077D02*
D03*
X490576Y1078761D02*
D03*
X500914Y1075321D02*
D03*
X502119Y1094747D02*
D03*
X502053Y1101287D02*
D03*
X501959Y1107826D02*
D03*
X502500Y1113000D02*
D03*
X499933Y1126814D02*
D03*
X494498Y1130451D02*
D03*
X489874Y1135076D02*
D03*
X463168Y1152119D02*
D03*
X456628D02*
D03*
X432836Y1162555D02*
D03*
X413260Y1163414D02*
D03*
X406720D02*
D03*
X400180D02*
D03*
X393640D02*
D03*
X387100D02*
D03*
X380560D02*
D03*
X374020D02*
D03*
X367480D02*
D03*
X360940D02*
D03*
X221986Y1150695D02*
D03*
X215564Y1149458D02*
D03*
X209142Y1148222D02*
D03*
X202720Y1146985D02*
D03*
X196298Y1145748D02*
D03*
X189876Y1144511D02*
D03*
X183454Y1143274D02*
D03*
X177032Y1142037D02*
D03*
X170610Y1140800D02*
D03*
X164188Y1139563D02*
D03*
X157766Y1138326D02*
D03*
X151344Y1137089D02*
D03*
X144922Y1135852D02*
D03*
X138500Y1134615D02*
D03*
X132424Y1137035D02*
D03*
X111000Y1133000D02*
D03*
X113907Y1126867D02*
D03*
X113881Y1120327D02*
D03*
X115302Y1113944D02*
D03*
X112951Y1101269D02*
D03*
X112881Y1094729D02*
D03*
X113936Y1088275D02*
D03*
X127119Y1097881D02*
D03*
X136405Y1124203D02*
D03*
X142827Y1125440D02*
D03*
X149249Y1126677D02*
D03*
X155671Y1127914D02*
D03*
X162093Y1129151D02*
D03*
X168515Y1130388D02*
D03*
X174937Y1131625D02*
D03*
X181359Y1132862D02*
D03*
X187780Y1134099D02*
D03*
X194202Y1135336D02*
D03*
X200624Y1136573D02*
D03*
X207046Y1137810D02*
D03*
X213468Y1139047D02*
D03*
X219890Y1140284D02*
D03*
X226292Y1141618D02*
D03*
X37756Y1184119D02*
D03*
X31216D02*
D03*
X24676D02*
D03*
X18136D02*
D03*
X11596D02*
D03*
X5057Y1184051D02*
D03*
X10435Y1165881D02*
D03*
X16975D02*
D03*
X23515D02*
D03*
X30055D02*
D03*
X36595D02*
D03*
X43129Y1165610D02*
D03*
X48140Y1161407D02*
D03*
X53126Y1157175D02*
D03*
X58161Y1153001D02*
D03*
X94132Y1140086D02*
D03*
X100672D02*
D03*
X106903Y1138099D02*
D03*
X113439Y1137889D02*
D03*
X119979Y1137881D02*
D03*
X125866Y1140729D02*
D03*
X126119Y1147264D02*
D03*
X109725Y1152119D02*
D03*
X103568Y1149914D02*
D03*
X97029D02*
D03*
X90489D02*
D03*
X56395Y1167309D02*
D03*
X51385Y1171512D02*
D03*
X49519Y1177780D02*
D03*
X46976Y1183805D02*
D03*
X174880Y1181825D02*
D03*
X168347Y1182119D02*
D03*
X162189Y1179915D02*
D03*
X155649D02*
D03*
X149109D02*
D03*
X147853Y1170088D02*
D03*
X154393D02*
D03*
X160933D02*
D03*
X167148Y1168050D02*
D03*
X173687Y1167938D02*
D03*
X180226Y1167881D02*
D03*
X186383Y1170086D02*
D03*
X192923D02*
D03*
X199463D02*
D03*
X206003D02*
D03*
X202917Y1179914D02*
D03*
X196377D02*
D03*
X189837D02*
D03*
X183576Y1181806D02*
D03*
X101086Y1212121D02*
D03*
X98881Y1205964D02*
D03*
X99817Y1199492D02*
D03*
X121119Y1206679D02*
D03*
X117379Y1212044D02*
D03*
X110914Y1213032D02*
D03*
X486034Y1308551D02*
D03*
X485881Y1302013D02*
D03*
Y1295473D02*
D03*
Y1288933D02*
D03*
Y1282393D02*
D03*
Y1275853D02*
D03*
X485577Y1269320D02*
D03*
X482448Y1263577D02*
D03*
X479319Y1257834D02*
D03*
X476190Y1252091D02*
D03*
X473061Y1246348D02*
D03*
X469932Y1240605D02*
D03*
X466803Y1234863D02*
D03*
X463674Y1229120D02*
D03*
X460545Y1223377D02*
D03*
X454746Y1220353D02*
D03*
X452881Y1214084D02*
D03*
Y1207544D02*
D03*
X466027Y1200259D02*
D03*
X473274Y1226200D02*
D03*
X479532Y1237685D02*
D03*
X482662Y1243428D02*
D03*
X485790Y1249171D02*
D03*
X488920Y1254914D02*
D03*
X492049Y1260657D02*
D03*
X497858Y1263661D02*
D03*
X503830Y1266327D02*
D03*
X504119Y1272860D02*
D03*
Y1279400D02*
D03*
Y1285940D02*
D03*
Y1292480D02*
D03*
Y1299020D02*
D03*
Y1305560D02*
D03*
X295545Y1212709D02*
D03*
X290810Y1208197D02*
D03*
X287315Y1202669D02*
D03*
X285425Y1196408D02*
D03*
X285086Y1189877D02*
D03*
Y1183337D02*
D03*
Y1176797D02*
D03*
X294914Y1180923D02*
D03*
Y1187463D02*
D03*
X295069Y1194001D02*
D03*
X297146Y1200202D02*
D03*
X534568Y1217119D02*
D03*
X528028D02*
D03*
X522822Y1202916D02*
D03*
X529360Y1203072D02*
D03*
X535897Y1202881D02*
D03*
X542060Y1205069D02*
D03*
X299500Y1275000D02*
D03*
X293698Y1273574D02*
D03*
X287482Y1271543D02*
D03*
X281633Y1268617D02*
D03*
X276278Y1264862D02*
D03*
X271536Y1260358D02*
D03*
X267509Y1255205D02*
D03*
X264284Y1249516D02*
D03*
X261933Y1243413D02*
D03*
X260504Y1237031D02*
D03*
X260073Y1230505D02*
D03*
X260086Y1223965D02*
D03*
Y1217425D02*
D03*
X267184Y1168881D02*
D03*
X272119Y1173172D02*
D03*
X271859Y1179707D02*
D03*
X272119Y1186242D02*
D03*
X269914Y1192399D02*
D03*
Y1198939D02*
D03*
Y1205479D02*
D03*
Y1212019D02*
D03*
Y1218559D02*
D03*
Y1225099D02*
D03*
X269944Y1231639D02*
D03*
X270776Y1238125D02*
D03*
X272788Y1244348D02*
D03*
X275910Y1250095D02*
D03*
X280054Y1255155D02*
D03*
X285157Y1259244D02*
D03*
X290926Y1262326D02*
D03*
X297163Y1264293D02*
D03*
X303655Y1265079D02*
D03*
X310196Y1265086D02*
D03*
X316735D02*
D03*
X323275D02*
D03*
X329815D02*
D03*
X336355D02*
D03*
X342895D02*
D03*
X349435D02*
D03*
X355975D02*
D03*
X362515D02*
D03*
X369055D02*
D03*
X375595D02*
D03*
X382135D02*
D03*
X388675D02*
D03*
X395090Y1263811D02*
D03*
X392494Y1251538D02*
D03*
X388832Y1246119D02*
D03*
X383081Y1243006D02*
D03*
X382907Y1236468D02*
D03*
X377712Y1218807D02*
D03*
X397119Y1231867D02*
D03*
Y1238407D02*
D03*
X399730Y1244403D02*
D03*
X428091Y1250929D02*
D03*
X432582Y1246175D02*
D03*
X434498Y1239922D02*
D03*
X434586Y1233382D02*
D03*
Y1226842D02*
D03*
Y1220302D02*
D03*
Y1213762D02*
D03*
X434583Y1207222D02*
D03*
X435296Y1200721D02*
D03*
X437110Y1194438D02*
D03*
X439972Y1188557D02*
D03*
X448474Y1178682D02*
D03*
X453864Y1174977D02*
D03*
X459808Y1172249D02*
D03*
X466131Y1170577D02*
D03*
X472652Y1170086D02*
D03*
X478809Y1167881D02*
D03*
X485344Y1168131D02*
D03*
X491880Y1167881D02*
D03*
X496119Y1172861D02*
D03*
X496183Y1179400D02*
D03*
X496239Y1185940D02*
D03*
X481374Y1182119D02*
D03*
X474979Y1180750D02*
D03*
X468462Y1180203D02*
D03*
X462152Y1181922D02*
D03*
X456368Y1184976D02*
D03*
X445389Y1200803D02*
D03*
X444443Y1207274D02*
D03*
X444414Y1213814D02*
D03*
Y1220354D02*
D03*
Y1226894D02*
D03*
Y1233434D02*
D03*
X444373Y1239974D02*
D03*
X443187Y1246405D02*
D03*
X440376Y1252310D02*
D03*
X436022Y1257190D02*
D03*
X430546Y1260767D02*
D03*
X424308Y1262729D02*
D03*
X396101Y1274375D02*
D03*
X389583Y1274914D02*
D03*
X383043D02*
D03*
X376503D02*
D03*
X369963D02*
D03*
X363423D02*
D03*
X356883D02*
D03*
X350343D02*
D03*
X343803D02*
D03*
X337263D02*
D03*
X330723D02*
D03*
X324183D02*
D03*
X317643D02*
D03*
X311103D02*
D03*
X306000Y1275000D02*
D03*
X256851Y80833D02*
D03*
X251450Y72950D02*
D03*
D160*
X174500Y634500D02*
D03*
X264500Y761500D02*
D03*
X408500Y634500D02*
D03*
X227000Y337500D02*
D03*
M02*
