G04*
G04 #@! TF.GenerationSoftware,Altium Limited,Altium Designer,23.6.0 (18)*
G04*
G04 Layer_Color=8388736*
%FSLAX44Y44*%
%MOMM*%
G71*
G04*
G04 #@! TF.SameCoordinates,AD488519-FD06-4120-8DA1-5AB69FE218D1*
G04*
G04*
G04 #@! TF.FilePolarity,Negative*
G04*
G01*
G75*
%ADD25R,0.3100X0.6000*%
%ADD26R,0.6000X0.3100*%
%ADD27R,2.0500X2.0500*%
%ADD28R,2.0500X2.0500*%
%ADD35C,1.0000*%
%ADD36R,0.4064X0.6096*%
%ADD74R,0.6760X0.6160*%
%ADD75R,0.6260X0.6260*%
G04:AMPARAMS|DCode=76|XSize=0.836mm|YSize=0.336mm|CornerRadius=0.0705mm|HoleSize=0mm|Usage=FLASHONLY|Rotation=90.000|XOffset=0mm|YOffset=0mm|HoleType=Round|Shape=RoundedRectangle|*
%AMROUNDEDRECTD76*
21,1,0.8360,0.1950,0,0,90.0*
21,1,0.6950,0.3360,0,0,90.0*
1,1,0.1410,0.0975,0.3475*
1,1,0.1410,0.0975,-0.3475*
1,1,0.1410,-0.0975,-0.3475*
1,1,0.1410,-0.0975,0.3475*
%
%ADD76ROUNDEDRECTD76*%
G04:AMPARAMS|DCode=77|XSize=0.836mm|YSize=0.336mm|CornerRadius=0.0705mm|HoleSize=0mm|Usage=FLASHONLY|Rotation=0.000|XOffset=0mm|YOffset=0mm|HoleType=Round|Shape=RoundedRectangle|*
%AMROUNDEDRECTD77*
21,1,0.8360,0.1950,0,0,0.0*
21,1,0.6950,0.3360,0,0,0.0*
1,1,0.1410,0.3475,-0.0975*
1,1,0.1410,-0.3475,-0.0975*
1,1,0.1410,-0.3475,0.0975*
1,1,0.1410,0.3475,0.0975*
%
%ADD77ROUNDEDRECTD77*%
%ADD78R,2.8760X2.8760*%
%ADD79R,4.0760X1.0760*%
%ADD80R,0.6260X0.6260*%
%ADD81R,0.6160X0.6760*%
%ADD82R,1.0760X4.0760*%
%ADD83R,0.4760X1.8760*%
G04:AMPARAMS|DCode=84|XSize=0.736mm|YSize=0.396mm|CornerRadius=0.078mm|HoleSize=0mm|Usage=FLASHONLY|Rotation=0.000|XOffset=0mm|YOffset=0mm|HoleType=Round|Shape=RoundedRectangle|*
%AMROUNDEDRECTD84*
21,1,0.7360,0.2400,0,0,0.0*
21,1,0.5800,0.3960,0,0,0.0*
1,1,0.1560,0.2900,-0.1200*
1,1,0.1560,-0.2900,-0.1200*
1,1,0.1560,-0.2900,0.1200*
1,1,0.1560,0.2900,0.1200*
%
%ADD84ROUNDEDRECTD84*%
%ADD85R,0.9760X0.9760*%
%ADD86R,0.9760X1.5760*%
%ADD87R,1.5760X0.9760*%
%ADD88R,0.4060X0.2260*%
%ADD89R,1.8760X0.4760*%
%ADD90R,0.7500X0.3200*%
%ADD91R,0.3200X0.7500*%
%ADD92R,4.1760X4.1760*%
%ADD93C,0.8634*%
%ADD94R,1.0760X1.0460*%
%ADD95R,1.8760X1.0760*%
%ADD96R,1.0760X1.8760*%
%ADD97R,1.4758X1.2759*%
%ADD98R,2.8660X1.9810*%
%ADD99R,1.3260X0.9260*%
%ADD100R,0.7260X1.3260*%
G04:AMPARAMS|DCode=101|XSize=0.376mm|YSize=0.876mm|CornerRadius=0.0875mm|HoleSize=0mm|Usage=FLASHONLY|Rotation=0.000|XOffset=0mm|YOffset=0mm|HoleType=Round|Shape=RoundedRectangle|*
%AMROUNDEDRECTD101*
21,1,0.3760,0.7010,0,0,0.0*
21,1,0.2010,0.8760,0,0,0.0*
1,1,0.1750,0.1005,-0.3505*
1,1,0.1750,-0.1005,-0.3505*
1,1,0.1750,-0.1005,0.3505*
1,1,0.1750,0.1005,0.3505*
%
%ADD101ROUNDEDRECTD101*%
G04:AMPARAMS|DCode=102|XSize=1.176mm|YSize=0.676mm|CornerRadius=0.113mm|HoleSize=0mm|Usage=FLASHONLY|Rotation=90.000|XOffset=0mm|YOffset=0mm|HoleType=Round|Shape=RoundedRectangle|*
%AMROUNDEDRECTD102*
21,1,1.1760,0.4500,0,0,90.0*
21,1,0.9500,0.6760,0,0,90.0*
1,1,0.2260,0.2250,0.4750*
1,1,0.2260,0.2250,-0.4750*
1,1,0.2260,-0.2250,-0.4750*
1,1,0.2260,-0.2250,0.4750*
%
%ADD102ROUNDEDRECTD102*%
%ADD103R,0.5660X0.7760*%
%ADD104R,0.7760X0.5660*%
G04:AMPARAMS|DCode=105|XSize=1.266mm|YSize=0.476mm|CornerRadius=0.088mm|HoleSize=0mm|Usage=FLASHONLY|Rotation=270.000|XOffset=0mm|YOffset=0mm|HoleType=Round|Shape=RoundedRectangle|*
%AMROUNDEDRECTD105*
21,1,1.2660,0.3000,0,0,270.0*
21,1,1.0900,0.4760,0,0,270.0*
1,1,0.1760,-0.1500,-0.5450*
1,1,0.1760,-0.1500,0.5450*
1,1,0.1760,0.1500,0.5450*
1,1,0.1760,0.1500,-0.5450*
%
%ADD105ROUNDEDRECTD105*%
%ADD106R,0.3760X0.7760*%
%ADD107R,1.0760X0.7760*%
G04:AMPARAMS|DCode=108|XSize=1.686mm|YSize=0.656mm|CornerRadius=0.1105mm|HoleSize=0mm|Usage=FLASHONLY|Rotation=90.000|XOffset=0mm|YOffset=0mm|HoleType=Round|Shape=RoundedRectangle|*
%AMROUNDEDRECTD108*
21,1,1.6860,0.4350,0,0,90.0*
21,1,1.4650,0.6560,0,0,90.0*
1,1,0.2210,0.2175,0.7325*
1,1,0.2210,0.2175,-0.7325*
1,1,0.2210,-0.2175,-0.7325*
1,1,0.2210,-0.2175,0.7325*
%
%ADD108ROUNDEDRECTD108*%
%ADD109R,3.6760X3.6760*%
%ADD110R,0.3360X0.9360*%
%ADD111R,0.9360X0.3360*%
G04:AMPARAMS|DCode=112|XSize=1.266mm|YSize=0.666mm|CornerRadius=0.1118mm|HoleSize=0mm|Usage=FLASHONLY|Rotation=90.000|XOffset=0mm|YOffset=0mm|HoleType=Round|Shape=RoundedRectangle|*
%AMROUNDEDRECTD112*
21,1,1.2660,0.4425,0,0,90.0*
21,1,1.0425,0.6660,0,0,90.0*
1,1,0.2235,0.2213,0.5213*
1,1,0.2235,0.2213,-0.5213*
1,1,0.2235,-0.2213,-0.5213*
1,1,0.2235,-0.2213,0.5213*
%
%ADD112ROUNDEDRECTD112*%
%ADD113R,1.4160X1.8760*%
%ADD114R,1.8760X1.4160*%
%ADD115R,0.6260X0.6460*%
%ADD116R,0.6460X0.6260*%
%ADD117R,1.5760X0.9760*%
%ADD118R,0.6760X0.6160*%
%ADD119R,0.8760X1.0760*%
%ADD120R,1.5760X0.7760*%
%ADD121R,0.7364X2.1080*%
%ADD122R,1.4760X1.7260*%
%ADD123R,0.3760X1.6760*%
%ADD124C,1.6000*%
%ADD125C,2.4509*%
%ADD126C,1.0666*%
%ADD127O,1.1760X2.2760*%
%ADD128O,1.3760X2.6760*%
%ADD129O,1.8760X3.3760*%
%ADD130O,3.8760X2.0760*%
%ADD131C,0.9760*%
%ADD132C,0.3760*%
%ADD133C,5.1560*%
G36*
X406700Y1261900D02*
X407200Y1259900D01*
Y1256400D01*
X406700Y1254400D01*
Y1251400D01*
X404700D01*
Y1255650D01*
X403200Y1257150D01*
X398950D01*
Y1259150D01*
X403200D01*
X404700Y1260650D01*
Y1264900D01*
X406700D01*
Y1261900D01*
D02*
G37*
D25*
X107998Y1158237D02*
D03*
X112999D02*
D03*
X118000D02*
D03*
X123001D02*
D03*
X128003D02*
D03*
X107998Y1193001D02*
D03*
X112999D02*
D03*
X118000D02*
D03*
X123001D02*
D03*
X128003D02*
D03*
X220499Y1192500D02*
D03*
X225500D02*
D03*
X230501D02*
D03*
X235502D02*
D03*
X240504D02*
D03*
X220499Y1156500D02*
D03*
X225500D02*
D03*
X230501D02*
D03*
X235502D02*
D03*
X240504D02*
D03*
X502002Y1192002D02*
D03*
X497001D02*
D03*
X492000D02*
D03*
X486999D02*
D03*
X481997D02*
D03*
X502002Y1228002D02*
D03*
X497001D02*
D03*
X492000D02*
D03*
X486999D02*
D03*
X481997D02*
D03*
D26*
X136000Y1185004D02*
D03*
Y1180003D02*
D03*
Y1175001D02*
D03*
Y1170000D02*
D03*
Y1164999D02*
D03*
X100000Y1185004D02*
D03*
Y1180003D02*
D03*
Y1175001D02*
D03*
Y1170000D02*
D03*
Y1164999D02*
D03*
X248501Y1164498D02*
D03*
Y1169499D02*
D03*
Y1174500D02*
D03*
Y1179501D02*
D03*
Y1184502D02*
D03*
X213737Y1164498D02*
D03*
Y1169499D02*
D03*
Y1174500D02*
D03*
Y1179501D02*
D03*
Y1184502D02*
D03*
X475236Y1220005D02*
D03*
Y1215004D02*
D03*
Y1210003D02*
D03*
Y1205001D02*
D03*
Y1200000D02*
D03*
X510000Y1220005D02*
D03*
Y1215004D02*
D03*
Y1210003D02*
D03*
Y1205001D02*
D03*
Y1200000D02*
D03*
D27*
X118000Y1175001D02*
D03*
D28*
X230501Y1174500D02*
D03*
X492000Y1210003D02*
D03*
D35*
X290000Y120000D02*
D03*
X72000Y180000D02*
D03*
X180000Y260000D02*
D03*
X55000Y85000D02*
D03*
X335000Y25000D02*
D03*
X585500Y39000D02*
D03*
X616750Y490750D02*
D03*
X220000Y1005000D02*
D03*
X200000D02*
D03*
X535000Y945000D02*
D03*
Y925000D02*
D03*
X575000Y60000D02*
D03*
X595000D02*
D03*
D36*
X47453Y111500D02*
D03*
X37547D02*
D03*
Y126500D02*
D03*
X47453D02*
D03*
Y141500D02*
D03*
X37547D02*
D03*
Y156500D02*
D03*
X47453D02*
D03*
D74*
X265000Y1175700D02*
D03*
Y1184300D02*
D03*
X300000Y1247300D02*
D03*
Y1238700D02*
D03*
X290000Y1247300D02*
D03*
Y1238700D02*
D03*
X390000Y1239300D02*
D03*
Y1230700D02*
D03*
X290000Y1169300D02*
D03*
Y1160700D02*
D03*
X85000Y1174300D02*
D03*
Y1165700D02*
D03*
X460000Y1205700D02*
D03*
Y1214300D02*
D03*
X45000Y1059300D02*
D03*
Y1050700D02*
D03*
X53000Y1094800D02*
D03*
Y1086200D02*
D03*
X63000Y1094800D02*
D03*
Y1086200D02*
D03*
X73000Y1094800D02*
D03*
Y1086200D02*
D03*
X105000Y1094300D02*
D03*
Y1085700D02*
D03*
X13941Y1110200D02*
D03*
Y1118800D02*
D03*
X437500Y970700D02*
D03*
Y979300D02*
D03*
X427500Y970700D02*
D03*
Y979300D02*
D03*
X460000Y1105700D02*
D03*
Y1114300D02*
D03*
X450000Y1105700D02*
D03*
Y1114300D02*
D03*
X440000Y1105700D02*
D03*
Y1114300D02*
D03*
X410000Y1084300D02*
D03*
Y1075700D02*
D03*
X616500Y464300D02*
D03*
Y455700D02*
D03*
X545000Y374300D02*
D03*
Y365700D02*
D03*
Y354300D02*
D03*
Y345700D02*
D03*
X525000Y354300D02*
D03*
Y345700D02*
D03*
X367000Y1139700D02*
D03*
Y1148300D02*
D03*
X377000Y1139700D02*
D03*
Y1148300D02*
D03*
X290000Y190700D02*
D03*
Y199300D02*
D03*
X444000Y756700D02*
D03*
Y765300D02*
D03*
X479000Y860300D02*
D03*
Y851700D02*
D03*
X439000Y860300D02*
D03*
Y851700D02*
D03*
X445000Y660700D02*
D03*
Y669300D02*
D03*
X459000Y860300D02*
D03*
Y851700D02*
D03*
X479000Y765300D02*
D03*
Y756700D02*
D03*
X489000Y765300D02*
D03*
Y756700D02*
D03*
X180000Y190700D02*
D03*
Y199300D02*
D03*
X495000Y395700D02*
D03*
Y404300D02*
D03*
X630000Y319300D02*
D03*
Y310700D02*
D03*
X620000Y319300D02*
D03*
Y310700D02*
D03*
X610000Y319300D02*
D03*
Y310700D02*
D03*
X70000Y960700D02*
D03*
Y969300D02*
D03*
X63500Y929200D02*
D03*
Y937800D02*
D03*
X381500Y186800D02*
D03*
Y178200D02*
D03*
X321500Y186800D02*
D03*
Y178200D02*
D03*
X310000Y199300D02*
D03*
Y190700D02*
D03*
X300000Y199300D02*
D03*
Y190700D02*
D03*
X65000Y1110700D02*
D03*
Y1119300D02*
D03*
X415000Y1109300D02*
D03*
Y1100700D02*
D03*
X445000Y395700D02*
D03*
Y404300D02*
D03*
X250000Y969300D02*
D03*
Y960700D02*
D03*
X290000D02*
D03*
Y969300D02*
D03*
D75*
X334500Y1250000D02*
D03*
X325500D02*
D03*
X318000Y1114500D02*
D03*
X309000D02*
D03*
X150500Y945000D02*
D03*
X159500D02*
D03*
X150500Y965000D02*
D03*
X159500D02*
D03*
X184500Y1030000D02*
D03*
X175500D02*
D03*
X159500Y955000D02*
D03*
X150500D02*
D03*
X145500Y1030000D02*
D03*
X154500D02*
D03*
X165500Y1050000D02*
D03*
X174500D02*
D03*
X54500Y1075000D02*
D03*
X45500D02*
D03*
X154500Y1040000D02*
D03*
X145500D02*
D03*
X174500Y1060000D02*
D03*
X165500D02*
D03*
X529500Y1020000D02*
D03*
X520500D02*
D03*
X521000Y962000D02*
D03*
X530000D02*
D03*
X521000Y982000D02*
D03*
X530000D02*
D03*
X530000Y972000D02*
D03*
X521000D02*
D03*
X530000Y992000D02*
D03*
X521000D02*
D03*
X540500Y1040000D02*
D03*
X549500D02*
D03*
X434500Y1075000D02*
D03*
X425500D02*
D03*
X540500Y1030000D02*
D03*
X549500D02*
D03*
X549500Y1050000D02*
D03*
X540500D02*
D03*
X395000Y127000D02*
D03*
X386000D02*
D03*
X429500Y270000D02*
D03*
X420500D02*
D03*
X424500Y130000D02*
D03*
X415500D02*
D03*
X386000Y97000D02*
D03*
X395000D02*
D03*
X386000Y117000D02*
D03*
X395000D02*
D03*
X420500Y250000D02*
D03*
X429500D02*
D03*
X420500Y280000D02*
D03*
X429500D02*
D03*
X415500Y120000D02*
D03*
X424500D02*
D03*
X470500Y685000D02*
D03*
X479500D02*
D03*
X544000Y725000D02*
D03*
X535000D02*
D03*
X396000Y818500D02*
D03*
X387000D02*
D03*
X396000Y808500D02*
D03*
X387000D02*
D03*
X524500Y735000D02*
D03*
X515500D02*
D03*
X421000Y793500D02*
D03*
X412000D02*
D03*
X626000Y510500D02*
D03*
X617000D02*
D03*
X421000Y783500D02*
D03*
X412000D02*
D03*
X537000Y818500D02*
D03*
X546000D02*
D03*
X537000Y808500D02*
D03*
X546000D02*
D03*
X396000Y833500D02*
D03*
X387000D02*
D03*
X387000Y793500D02*
D03*
X396000D02*
D03*
X387000Y778500D02*
D03*
X396000D02*
D03*
X537000Y828500D02*
D03*
X546000D02*
D03*
X521000Y793500D02*
D03*
X512000D02*
D03*
X521000Y778500D02*
D03*
X512000D02*
D03*
X329500Y90000D02*
D03*
X320500D02*
D03*
X329500Y105000D02*
D03*
X320500D02*
D03*
X145500Y280000D02*
D03*
X154500D02*
D03*
X175500Y175000D02*
D03*
X184500D02*
D03*
X184500Y165000D02*
D03*
X175500D02*
D03*
X72000Y111500D02*
D03*
X63000D02*
D03*
X72000Y126500D02*
D03*
X63000D02*
D03*
X72000Y141500D02*
D03*
X63000D02*
D03*
X72000Y156500D02*
D03*
X63000D02*
D03*
X159500Y975000D02*
D03*
X150500D02*
D03*
X425500Y1085000D02*
D03*
X434500D02*
D03*
X549500Y1020000D02*
D03*
X540500D02*
D03*
X395000Y107000D02*
D03*
X386000D02*
D03*
X395000Y77000D02*
D03*
X386000D02*
D03*
X386000Y87000D02*
D03*
X395000D02*
D03*
X429500Y260000D02*
D03*
X420500D02*
D03*
X419500Y1010000D02*
D03*
X410500D02*
D03*
X419500Y1000000D02*
D03*
X410500D02*
D03*
X429500Y300000D02*
D03*
X420500D02*
D03*
X429500Y290000D02*
D03*
X420500D02*
D03*
X535500Y305000D02*
D03*
X544500D02*
D03*
D76*
X317500Y1195150D02*
D03*
X322500D02*
D03*
X327500D02*
D03*
X332500D02*
D03*
X337500D02*
D03*
X342500D02*
D03*
Y1234850D02*
D03*
X337500D02*
D03*
X332500D02*
D03*
X327500D02*
D03*
X322500D02*
D03*
X317500D02*
D03*
X343000Y1175850D02*
D03*
X338000D02*
D03*
X333000D02*
D03*
X328000D02*
D03*
X323000D02*
D03*
X318000D02*
D03*
Y1136150D02*
D03*
X323000D02*
D03*
X328000D02*
D03*
X333000D02*
D03*
X338000D02*
D03*
X343000D02*
D03*
D77*
X310150Y1227500D02*
D03*
Y1222500D02*
D03*
Y1217500D02*
D03*
Y1212500D02*
D03*
Y1207500D02*
D03*
Y1202500D02*
D03*
X349850D02*
D03*
Y1207500D02*
D03*
Y1212500D02*
D03*
Y1217500D02*
D03*
Y1222500D02*
D03*
Y1227500D02*
D03*
X350350Y1143500D02*
D03*
Y1148500D02*
D03*
Y1153500D02*
D03*
Y1158500D02*
D03*
Y1163500D02*
D03*
Y1168500D02*
D03*
X310650D02*
D03*
Y1163500D02*
D03*
Y1158500D02*
D03*
Y1153500D02*
D03*
Y1148500D02*
D03*
Y1143500D02*
D03*
D78*
X330000Y1215000D02*
D03*
X330500Y1156000D02*
D03*
D79*
X615000Y1100500D02*
D03*
Y1126000D02*
D03*
Y1075000D02*
D03*
Y634500D02*
D03*
Y685500D02*
D03*
Y660000D02*
D03*
X25400Y1200500D02*
D03*
Y1149500D02*
D03*
Y1175000D02*
D03*
X615000Y744500D02*
D03*
Y795500D02*
D03*
Y770000D02*
D03*
Y855000D02*
D03*
Y906000D02*
D03*
Y880500D02*
D03*
Y964500D02*
D03*
Y1015500D02*
D03*
Y990000D02*
D03*
D80*
X465000Y729500D02*
D03*
Y720500D02*
D03*
X455000Y729500D02*
D03*
Y720500D02*
D03*
X420000Y729500D02*
D03*
Y720500D02*
D03*
X430000Y729500D02*
D03*
Y720500D02*
D03*
X35000Y1075500D02*
D03*
Y1084500D02*
D03*
X90000Y1110500D02*
D03*
Y1119500D02*
D03*
X100000Y1119500D02*
D03*
Y1110500D02*
D03*
X455000Y1075500D02*
D03*
Y1084500D02*
D03*
X445000Y1084500D02*
D03*
Y1075500D02*
D03*
X571500Y440500D02*
D03*
Y449500D02*
D03*
Y479500D02*
D03*
Y470500D02*
D03*
X530000Y609500D02*
D03*
Y600500D02*
D03*
X540000Y609500D02*
D03*
Y600500D02*
D03*
X425000Y875500D02*
D03*
Y884500D02*
D03*
X499000Y756500D02*
D03*
Y765500D02*
D03*
X469000Y756500D02*
D03*
Y765500D02*
D03*
X434000Y756500D02*
D03*
Y765500D02*
D03*
X555000Y690500D02*
D03*
Y699500D02*
D03*
X520000Y690500D02*
D03*
Y699500D02*
D03*
X500000Y609500D02*
D03*
Y600500D02*
D03*
X411500Y759000D02*
D03*
Y768000D02*
D03*
X546500Y789000D02*
D03*
Y798000D02*
D03*
X565000Y699500D02*
D03*
Y690500D02*
D03*
X530000Y699500D02*
D03*
Y690500D02*
D03*
X510000Y600500D02*
D03*
Y609500D02*
D03*
X165000Y279500D02*
D03*
Y270500D02*
D03*
X315000Y29500D02*
D03*
Y20500D02*
D03*
X75000Y1119500D02*
D03*
Y1110500D02*
D03*
X47000Y1026250D02*
D03*
Y1035250D02*
D03*
X40000Y969500D02*
D03*
Y960500D02*
D03*
X50000Y969500D02*
D03*
Y960500D02*
D03*
X81000Y960000D02*
D03*
Y969000D02*
D03*
X91000Y960000D02*
D03*
Y969000D02*
D03*
X101000Y960000D02*
D03*
Y969000D02*
D03*
X111000Y960000D02*
D03*
Y969000D02*
D03*
X121000Y960000D02*
D03*
Y969000D02*
D03*
X425000Y1100500D02*
D03*
Y1109500D02*
D03*
X409000Y1023500D02*
D03*
Y1032500D02*
D03*
X450000Y970500D02*
D03*
Y979500D02*
D03*
X460000Y970500D02*
D03*
Y979500D02*
D03*
X470000Y970500D02*
D03*
Y979500D02*
D03*
X480000Y970500D02*
D03*
Y979500D02*
D03*
X490000Y970500D02*
D03*
Y979500D02*
D03*
X590000Y80500D02*
D03*
Y89500D02*
D03*
X470000Y329500D02*
D03*
Y320500D02*
D03*
X430000Y404500D02*
D03*
Y395500D02*
D03*
D81*
X119300Y1145000D02*
D03*
X110700D02*
D03*
X406400Y1241150D02*
D03*
X415000D02*
D03*
X406400Y1276150D02*
D03*
X415000D02*
D03*
X456400Y1145000D02*
D03*
X465000D02*
D03*
X229800Y1207500D02*
D03*
X221200D02*
D03*
X129300Y1130000D02*
D03*
X120700D02*
D03*
X179300Y1175000D02*
D03*
X170700D02*
D03*
X114300Y1205000D02*
D03*
X105700D02*
D03*
X524300Y1240000D02*
D03*
X515700D02*
D03*
X489300Y1175000D02*
D03*
X480700D02*
D03*
X534300Y1210000D02*
D03*
X525700D02*
D03*
X164300Y1010000D02*
D03*
X155700D02*
D03*
X154300Y1080000D02*
D03*
X145700D02*
D03*
X154300Y1070000D02*
D03*
X145700D02*
D03*
X154300Y1060000D02*
D03*
X145700D02*
D03*
X19200Y1058750D02*
D03*
X27800D02*
D03*
X19200Y1008750D02*
D03*
X27800D02*
D03*
X529300Y1010000D02*
D03*
X520700D02*
D03*
X409700Y1043000D02*
D03*
X418300D02*
D03*
X529300Y1070000D02*
D03*
X520700D02*
D03*
X529300Y1060000D02*
D03*
X520700D02*
D03*
X460700Y1095000D02*
D03*
X469300D02*
D03*
X529300Y1050000D02*
D03*
X520700D02*
D03*
X394300Y1055000D02*
D03*
X385700D02*
D03*
X394300Y1005000D02*
D03*
X385700D02*
D03*
X490700Y345000D02*
D03*
X499300D02*
D03*
X129300Y1085000D02*
D03*
X120700D02*
D03*
X129300Y1120000D02*
D03*
X120700D02*
D03*
X504300Y1085000D02*
D03*
X495700D02*
D03*
X504300Y1120000D02*
D03*
X495700D02*
D03*
X259300Y1043500D02*
D03*
X250700D02*
D03*
X259300Y1033500D02*
D03*
X250700D02*
D03*
X412200Y808500D02*
D03*
X420800D02*
D03*
X413200Y837500D02*
D03*
X421800D02*
D03*
X470700Y655000D02*
D03*
X479300D02*
D03*
X470700Y645000D02*
D03*
X479300D02*
D03*
X470700Y635000D02*
D03*
X479300D02*
D03*
X470700Y625000D02*
D03*
X479300D02*
D03*
X520800Y808500D02*
D03*
X512200D02*
D03*
X519300Y830000D02*
D03*
X510700D02*
D03*
X515700Y725000D02*
D03*
X524300D02*
D03*
X26000Y237500D02*
D03*
X34600D02*
D03*
X26000Y222500D02*
D03*
X34600D02*
D03*
X110700Y285000D02*
D03*
X119300D02*
D03*
X135700Y215000D02*
D03*
X144300D02*
D03*
X26000Y267500D02*
D03*
X34600D02*
D03*
X26000Y252500D02*
D03*
X34600D02*
D03*
X214300Y215000D02*
D03*
X205700D02*
D03*
X504300Y490000D02*
D03*
X495700D02*
D03*
X424300D02*
D03*
X415700D02*
D03*
X464300D02*
D03*
X455700D02*
D03*
X590700Y420000D02*
D03*
X599300D02*
D03*
D82*
X520500Y1287780D02*
D03*
X469500D02*
D03*
X495000D02*
D03*
D83*
X75000Y1265000D02*
D03*
X106000D02*
D03*
D84*
X202650Y182500D02*
D03*
Y187500D02*
D03*
Y177500D02*
D03*
Y172500D02*
D03*
X217350D02*
D03*
Y177500D02*
D03*
Y182500D02*
D03*
Y187500D02*
D03*
D85*
X549000Y214000D02*
D03*
Y228000D02*
D03*
Y200000D02*
D03*
X535000Y228000D02*
D03*
Y214000D02*
D03*
Y200000D02*
D03*
X563000Y228000D02*
D03*
Y214000D02*
D03*
Y200000D02*
D03*
D86*
X626200Y286500D02*
D03*
X613500D02*
D03*
X600800D02*
D03*
X588100D02*
D03*
X575400D02*
D03*
X562700D02*
D03*
X550000D02*
D03*
X537300D02*
D03*
X524600D02*
D03*
X511900D02*
D03*
X499200D02*
D03*
X486500D02*
D03*
X473800D02*
D03*
X461100D02*
D03*
Y111500D02*
D03*
X473800D02*
D03*
X486500D02*
D03*
X499200D02*
D03*
X511900D02*
D03*
X524600D02*
D03*
X537300D02*
D03*
X550000D02*
D03*
X562700D02*
D03*
X575400D02*
D03*
X588100D02*
D03*
X600800D02*
D03*
X613500D02*
D03*
X626200D02*
D03*
X611500Y404500D02*
D03*
X578500D02*
D03*
Y355500D02*
D03*
X611500D02*
D03*
D87*
X448600Y268850D02*
D03*
Y256150D02*
D03*
Y243450D02*
D03*
Y230750D02*
D03*
Y218050D02*
D03*
Y205350D02*
D03*
Y192650D02*
D03*
Y179950D02*
D03*
Y167250D02*
D03*
Y154550D02*
D03*
Y141850D02*
D03*
Y129150D02*
D03*
D88*
X410550Y1261650D02*
D03*
Y1258150D02*
D03*
Y1254650D02*
D03*
X400850D02*
D03*
Y1261650D02*
D03*
D89*
X592000Y1209500D02*
D03*
Y1240500D02*
D03*
D90*
X435750Y1056000D02*
D03*
Y1052000D02*
D03*
Y1048000D02*
D03*
Y1044000D02*
D03*
Y1040000D02*
D03*
Y1036000D02*
D03*
Y1032000D02*
D03*
Y1028000D02*
D03*
Y1024000D02*
D03*
Y1020000D02*
D03*
Y1016000D02*
D03*
Y1012000D02*
D03*
Y1008000D02*
D03*
Y1004000D02*
D03*
X504250D02*
D03*
Y1008000D02*
D03*
Y1012000D02*
D03*
Y1016000D02*
D03*
Y1020000D02*
D03*
Y1024000D02*
D03*
Y1028000D02*
D03*
Y1032000D02*
D03*
Y1036000D02*
D03*
Y1040000D02*
D03*
Y1044000D02*
D03*
Y1048000D02*
D03*
Y1052000D02*
D03*
Y1056000D02*
D03*
X60750Y1056000D02*
D03*
Y1052000D02*
D03*
Y1048000D02*
D03*
Y1044000D02*
D03*
Y1040000D02*
D03*
Y1036000D02*
D03*
Y1032000D02*
D03*
Y1028000D02*
D03*
Y1024000D02*
D03*
Y1020000D02*
D03*
Y1016000D02*
D03*
Y1012000D02*
D03*
Y1008000D02*
D03*
Y1004000D02*
D03*
X129250D02*
D03*
Y1008000D02*
D03*
Y1012000D02*
D03*
Y1016000D02*
D03*
Y1020000D02*
D03*
Y1024000D02*
D03*
Y1028000D02*
D03*
Y1032000D02*
D03*
Y1036000D02*
D03*
Y1040000D02*
D03*
Y1044000D02*
D03*
Y1048000D02*
D03*
Y1052000D02*
D03*
Y1056000D02*
D03*
D91*
X496000Y1064250D02*
D03*
X492000D02*
D03*
X488000D02*
D03*
X484000D02*
D03*
X480000D02*
D03*
X476000D02*
D03*
X472000D02*
D03*
X468000D02*
D03*
X464000D02*
D03*
X460000D02*
D03*
X456000D02*
D03*
X452000D02*
D03*
X448000D02*
D03*
X444000D02*
D03*
Y995750D02*
D03*
X448000D02*
D03*
X452000D02*
D03*
X456000D02*
D03*
X460000D02*
D03*
X464000D02*
D03*
X468000D02*
D03*
X472000D02*
D03*
X476000D02*
D03*
X480000D02*
D03*
X484000D02*
D03*
X488000D02*
D03*
X492000D02*
D03*
X496000D02*
D03*
X121000Y1064250D02*
D03*
X117000D02*
D03*
X113000D02*
D03*
X109000D02*
D03*
X105000D02*
D03*
X101000D02*
D03*
X97000D02*
D03*
X93000D02*
D03*
X89000D02*
D03*
X85000D02*
D03*
X81000D02*
D03*
X77000D02*
D03*
X73000D02*
D03*
X69000D02*
D03*
Y995750D02*
D03*
X73000D02*
D03*
X77000D02*
D03*
X81000D02*
D03*
X85000D02*
D03*
X89000D02*
D03*
X93000D02*
D03*
X97000D02*
D03*
X101000D02*
D03*
X105000D02*
D03*
X109000D02*
D03*
X113000D02*
D03*
X117000D02*
D03*
X121000D02*
D03*
D92*
X470000Y1030000D02*
D03*
X95000Y1030000D02*
D03*
D93*
X222700Y897700D02*
D03*
Y885000D02*
D03*
Y872300D02*
D03*
Y859600D02*
D03*
Y846900D02*
D03*
X210000D02*
D03*
Y859600D02*
D03*
Y872300D02*
D03*
Y885000D02*
D03*
Y897700D02*
D03*
X335000D02*
D03*
Y885000D02*
D03*
Y872300D02*
D03*
Y859600D02*
D03*
Y846900D02*
D03*
X322300D02*
D03*
Y859600D02*
D03*
Y872300D02*
D03*
Y885000D02*
D03*
Y897700D02*
D03*
X525400Y48650D02*
D03*
X512700D02*
D03*
X500000D02*
D03*
X487300D02*
D03*
X474600D02*
D03*
Y61350D02*
D03*
X487300D02*
D03*
X500000D02*
D03*
X512700D02*
D03*
X525400D02*
D03*
D94*
X462650Y670000D02*
D03*
X477350D02*
D03*
D95*
X23500Y1023750D02*
D03*
Y1043750D02*
D03*
X390000Y1020000D02*
D03*
Y1040000D02*
D03*
D96*
X530000Y325000D02*
D03*
X550000D02*
D03*
D97*
X362501Y191000D02*
D03*
X340501D02*
D03*
X362501Y174000D02*
D03*
X340499D02*
D03*
D98*
X85500Y270755D02*
D03*
Y222245D02*
D03*
D99*
X506250Y637300D02*
D03*
X563750D02*
D03*
Y662700D02*
D03*
X506250D02*
D03*
D100*
X522300Y631250D02*
D03*
X535000D02*
D03*
X547700D02*
D03*
Y668750D02*
D03*
X535000D02*
D03*
X522300D02*
D03*
D101*
X604000Y476000D02*
D03*
X599000D02*
D03*
X594000D02*
D03*
X589000D02*
D03*
X604000Y444000D02*
D03*
X599000D02*
D03*
X594000D02*
D03*
X589000D02*
D03*
D102*
X495500Y447000D02*
D03*
X505000D02*
D03*
X514500D02*
D03*
Y473000D02*
D03*
X495500D02*
D03*
X415500Y447000D02*
D03*
X425000D02*
D03*
X434500D02*
D03*
Y473000D02*
D03*
X415500D02*
D03*
X455500Y447000D02*
D03*
X465000D02*
D03*
X474500D02*
D03*
Y473000D02*
D03*
X455500D02*
D03*
D103*
X94530Y1090000D02*
D03*
X85470D02*
D03*
D104*
X474000Y1106470D02*
D03*
Y1115530D02*
D03*
D105*
X271500Y134600D02*
D03*
X265000D02*
D03*
X258500D02*
D03*
Y115400D02*
D03*
X265000D02*
D03*
X271500D02*
D03*
D106*
X225000Y79950D02*
D03*
X230000D02*
D03*
X235000D02*
D03*
X240000D02*
D03*
X245000D02*
D03*
X250000D02*
D03*
X260000D02*
D03*
X265000D02*
D03*
X270000D02*
D03*
X275000D02*
D03*
X280000D02*
D03*
X285000D02*
D03*
X277500Y66950D02*
D03*
X272500D02*
D03*
X267500D02*
D03*
X262500D02*
D03*
X257500D02*
D03*
X252500D02*
D03*
X247500D02*
D03*
X242500D02*
D03*
X237500D02*
D03*
X232500D02*
D03*
D107*
X286000D02*
D03*
X224000D02*
D03*
D108*
X79450Y939550D02*
D03*
X92150D02*
D03*
X104850D02*
D03*
X117550D02*
D03*
Y867450D02*
D03*
X104850D02*
D03*
X92150D02*
D03*
X79450D02*
D03*
X445950Y951050D02*
D03*
X458650D02*
D03*
X471350D02*
D03*
X484050D02*
D03*
Y878950D02*
D03*
X471350D02*
D03*
X458650D02*
D03*
X445950D02*
D03*
D109*
X466500Y808500D02*
D03*
D110*
X449000Y832850D02*
D03*
X454000D02*
D03*
X459000D02*
D03*
X464000D02*
D03*
X469000D02*
D03*
X474000D02*
D03*
X479000D02*
D03*
X484000D02*
D03*
Y784150D02*
D03*
X479000D02*
D03*
X474000D02*
D03*
X469000D02*
D03*
X464000D02*
D03*
X459000D02*
D03*
X454000D02*
D03*
X449000D02*
D03*
D111*
X490850Y826000D02*
D03*
Y821000D02*
D03*
Y816000D02*
D03*
Y811000D02*
D03*
Y806000D02*
D03*
Y801000D02*
D03*
Y796000D02*
D03*
Y791000D02*
D03*
X442150D02*
D03*
Y796000D02*
D03*
Y801000D02*
D03*
Y806000D02*
D03*
Y811000D02*
D03*
Y816000D02*
D03*
Y821000D02*
D03*
Y826000D02*
D03*
D112*
X124500Y262650D02*
D03*
X134000D02*
D03*
X143500D02*
D03*
Y237350D02*
D03*
X134000D02*
D03*
X124500D02*
D03*
D113*
X239300Y145000D02*
D03*
X210700D02*
D03*
D114*
X85000Y55700D02*
D03*
Y84300D02*
D03*
D115*
X26191Y1120300D02*
D03*
X51691D02*
D03*
Y1108700D02*
D03*
X26191D02*
D03*
X482250Y330800D02*
D03*
X507750D02*
D03*
Y319200D02*
D03*
X482250D02*
D03*
X457250Y405800D02*
D03*
X482750D02*
D03*
Y394200D02*
D03*
X457250D02*
D03*
D116*
X395800Y1097750D02*
D03*
Y1072250D02*
D03*
X384200D02*
D03*
Y1097750D02*
D03*
D117*
X234500Y948500D02*
D03*
Y981500D02*
D03*
X185500D02*
D03*
Y948500D02*
D03*
X305500Y981500D02*
D03*
Y948500D02*
D03*
X354500D02*
D03*
Y981500D02*
D03*
D118*
X120000Y1104320D02*
D03*
Y1095680D02*
D03*
X495000Y1104320D02*
D03*
Y1095680D02*
D03*
D119*
X606850Y534000D02*
D03*
Y607000D02*
D03*
X626150D02*
D03*
Y534000D02*
D03*
D120*
X599000Y578000D02*
D03*
Y548000D02*
D03*
Y593000D02*
D03*
D121*
X364450Y295734D02*
D03*
X351750D02*
D03*
X339050D02*
D03*
X326350D02*
D03*
X313650D02*
D03*
X300950D02*
D03*
X288250D02*
D03*
X275550D02*
D03*
X364450Y234266D02*
D03*
X351750D02*
D03*
X339050D02*
D03*
X326350D02*
D03*
X313650D02*
D03*
X300950D02*
D03*
X288250D02*
D03*
X275550D02*
D03*
D122*
X17000Y295000D02*
D03*
X43000D02*
D03*
X208000Y235000D02*
D03*
X182000D02*
D03*
D123*
X234500Y1093500D02*
D03*
X228000D02*
D03*
X221500D02*
D03*
X215000D02*
D03*
X208500D02*
D03*
X202000D02*
D03*
X195500D02*
D03*
X234500Y1036500D02*
D03*
X228000D02*
D03*
X221500D02*
D03*
X215000D02*
D03*
X208500D02*
D03*
X202000D02*
D03*
X195500D02*
D03*
D124*
X540000Y525800D02*
D03*
Y500400D02*
D03*
Y475000D02*
D03*
Y449600D02*
D03*
X389200Y555000D02*
D03*
X414600D02*
D03*
X440000D02*
D03*
X465400D02*
D03*
X490800D02*
D03*
X389200Y529600D02*
D03*
X414600D02*
D03*
X440000D02*
D03*
X465400D02*
D03*
X490800D02*
D03*
X138700Y774500D02*
D03*
X164100D02*
D03*
X189500D02*
D03*
X214900D02*
D03*
D125*
X190950Y853250D02*
D03*
Y910400D02*
D03*
X241750Y853250D02*
D03*
Y910400D02*
D03*
X303250Y853250D02*
D03*
Y910400D02*
D03*
X354050Y853250D02*
D03*
Y910400D02*
D03*
X480950Y80400D02*
D03*
X538100D02*
D03*
X480950Y29600D02*
D03*
X538100D02*
D03*
D126*
X206200Y834200D02*
D03*
X226500D02*
D03*
X216350Y910400D02*
D03*
X318500Y834200D02*
D03*
X338800D02*
D03*
X328650Y910400D02*
D03*
X461900Y65150D02*
D03*
Y44850D02*
D03*
X538100Y55000D02*
D03*
D127*
X211800Y75850D02*
D03*
X298200D02*
D03*
D128*
X211800Y22250D02*
D03*
X298200D02*
D03*
D129*
X191500Y115000D02*
D03*
D130*
X145000Y80000D02*
D03*
Y140000D02*
D03*
D131*
X616500Y555500D02*
D03*
Y585500D02*
D03*
D132*
X383671Y1221503D02*
D03*
X371754Y1216111D02*
D03*
X365795Y1213416D02*
D03*
X359836Y1210720D02*
D03*
X387377Y1153586D02*
D03*
X393917D02*
D03*
X400457D02*
D03*
X420077D02*
D03*
X439336Y1150553D02*
D03*
X445163Y1147584D02*
D03*
X460469Y1138153D02*
D03*
X467003Y1137881D02*
D03*
X473512Y1137243D02*
D03*
X478282Y1132769D02*
D03*
X482907Y1128144D02*
D03*
X487531Y1123520D02*
D03*
X488881Y1117121D02*
D03*
X490286Y1110733D02*
D03*
X487881Y1104651D02*
D03*
Y1098111D02*
D03*
X488160Y1091578D02*
D03*
X488881Y1085077D02*
D03*
X490576Y1078761D02*
D03*
X500914Y1075321D02*
D03*
X502119Y1094747D02*
D03*
X502053Y1101287D02*
D03*
X501959Y1107826D02*
D03*
X502500Y1113000D02*
D03*
X499933Y1126814D02*
D03*
X494498Y1130451D02*
D03*
X489874Y1135076D02*
D03*
X463168Y1152119D02*
D03*
X456628D02*
D03*
X432836Y1162555D02*
D03*
X413260Y1163414D02*
D03*
X406720D02*
D03*
X400180D02*
D03*
X393640D02*
D03*
X387100D02*
D03*
X380560D02*
D03*
X374020D02*
D03*
X367480D02*
D03*
X360940D02*
D03*
X221986Y1150695D02*
D03*
X215564Y1149458D02*
D03*
X209142Y1148222D02*
D03*
X202720Y1146985D02*
D03*
X196298Y1145748D02*
D03*
X189876Y1144511D02*
D03*
X183454Y1143274D02*
D03*
X177032Y1142037D02*
D03*
X170610Y1140800D02*
D03*
X164188Y1139563D02*
D03*
X157766Y1138326D02*
D03*
X151344Y1137089D02*
D03*
X144922Y1135852D02*
D03*
X138500Y1134615D02*
D03*
X132424Y1137035D02*
D03*
X111000Y1133000D02*
D03*
X113907Y1126867D02*
D03*
X113881Y1120327D02*
D03*
X115302Y1113944D02*
D03*
X112951Y1101269D02*
D03*
X112881Y1094729D02*
D03*
X113936Y1088275D02*
D03*
X127119Y1097881D02*
D03*
X136405Y1124203D02*
D03*
X142827Y1125440D02*
D03*
X149249Y1126677D02*
D03*
X155671Y1127914D02*
D03*
X162093Y1129151D02*
D03*
X168515Y1130388D02*
D03*
X174937Y1131625D02*
D03*
X181359Y1132862D02*
D03*
X187780Y1134099D02*
D03*
X194202Y1135336D02*
D03*
X200624Y1136573D02*
D03*
X207046Y1137810D02*
D03*
X213468Y1139047D02*
D03*
X219890Y1140284D02*
D03*
X226292Y1141618D02*
D03*
X37756Y1184119D02*
D03*
X31216D02*
D03*
X24676D02*
D03*
X18136D02*
D03*
X11596D02*
D03*
X5057Y1184051D02*
D03*
X10435Y1165881D02*
D03*
X16975D02*
D03*
X23515D02*
D03*
X30055D02*
D03*
X36595D02*
D03*
X43129Y1165610D02*
D03*
X48140Y1161407D02*
D03*
X53126Y1157175D02*
D03*
X58161Y1153001D02*
D03*
X94132Y1140086D02*
D03*
X100672D02*
D03*
X106903Y1138099D02*
D03*
X113439Y1137889D02*
D03*
X119979Y1137881D02*
D03*
X125866Y1140729D02*
D03*
X126119Y1147264D02*
D03*
X109725Y1152119D02*
D03*
X103568Y1149914D02*
D03*
X97029D02*
D03*
X90489D02*
D03*
X56395Y1167309D02*
D03*
X51385Y1171512D02*
D03*
X49519Y1177780D02*
D03*
X46976Y1183805D02*
D03*
X174880Y1181825D02*
D03*
X168347Y1182119D02*
D03*
X162189Y1179915D02*
D03*
X155649D02*
D03*
X149109D02*
D03*
X147853Y1170088D02*
D03*
X154393D02*
D03*
X160933D02*
D03*
X167148Y1168050D02*
D03*
X173687Y1167938D02*
D03*
X180226Y1167881D02*
D03*
X186383Y1170086D02*
D03*
X192923D02*
D03*
X199463D02*
D03*
X206003D02*
D03*
X202917Y1179914D02*
D03*
X196377D02*
D03*
X189837D02*
D03*
X183576Y1181806D02*
D03*
X101086Y1212121D02*
D03*
X98881Y1205964D02*
D03*
X99817Y1199492D02*
D03*
X121119Y1206679D02*
D03*
X117379Y1212044D02*
D03*
X110914Y1213032D02*
D03*
X486034Y1308551D02*
D03*
X485881Y1302013D02*
D03*
Y1295473D02*
D03*
Y1288933D02*
D03*
Y1282393D02*
D03*
Y1275853D02*
D03*
X485577Y1269320D02*
D03*
X482448Y1263577D02*
D03*
X479319Y1257834D02*
D03*
X476190Y1252091D02*
D03*
X473061Y1246348D02*
D03*
X469932Y1240605D02*
D03*
X466803Y1234863D02*
D03*
X463674Y1229120D02*
D03*
X460545Y1223377D02*
D03*
X454746Y1220353D02*
D03*
X452881Y1214084D02*
D03*
Y1207544D02*
D03*
X466027Y1200259D02*
D03*
X473274Y1226200D02*
D03*
X479532Y1237685D02*
D03*
X482662Y1243428D02*
D03*
X485790Y1249171D02*
D03*
X488920Y1254914D02*
D03*
X492049Y1260657D02*
D03*
X497858Y1263661D02*
D03*
X503830Y1266327D02*
D03*
X504119Y1272860D02*
D03*
Y1279400D02*
D03*
Y1285940D02*
D03*
Y1292480D02*
D03*
Y1299020D02*
D03*
Y1305560D02*
D03*
X295545Y1212709D02*
D03*
X290810Y1208197D02*
D03*
X287315Y1202669D02*
D03*
X285425Y1196408D02*
D03*
X285086Y1189877D02*
D03*
Y1183337D02*
D03*
Y1176797D02*
D03*
X294914Y1180923D02*
D03*
Y1187463D02*
D03*
X295069Y1194001D02*
D03*
X297146Y1200202D02*
D03*
X534568Y1217119D02*
D03*
X528028D02*
D03*
X522822Y1202916D02*
D03*
X529360Y1203072D02*
D03*
X535897Y1202881D02*
D03*
X542060Y1205069D02*
D03*
X299500Y1275000D02*
D03*
X293698Y1273574D02*
D03*
X287482Y1271543D02*
D03*
X281633Y1268617D02*
D03*
X276278Y1264862D02*
D03*
X271536Y1260358D02*
D03*
X267509Y1255205D02*
D03*
X264284Y1249516D02*
D03*
X261933Y1243413D02*
D03*
X260504Y1237031D02*
D03*
X260073Y1230505D02*
D03*
X260086Y1223965D02*
D03*
Y1217425D02*
D03*
X267184Y1168881D02*
D03*
X272119Y1173172D02*
D03*
X271859Y1179707D02*
D03*
X272119Y1186242D02*
D03*
X269914Y1192399D02*
D03*
Y1198939D02*
D03*
Y1205479D02*
D03*
Y1212019D02*
D03*
Y1218559D02*
D03*
Y1225099D02*
D03*
X269944Y1231639D02*
D03*
X270776Y1238125D02*
D03*
X272788Y1244348D02*
D03*
X275910Y1250095D02*
D03*
X280054Y1255155D02*
D03*
X285157Y1259244D02*
D03*
X290926Y1262326D02*
D03*
X297163Y1264293D02*
D03*
X303655Y1265079D02*
D03*
X310196Y1265086D02*
D03*
X316735D02*
D03*
X323275D02*
D03*
X329815D02*
D03*
X336355D02*
D03*
X342895D02*
D03*
X349435D02*
D03*
X355975D02*
D03*
X362515D02*
D03*
X369055D02*
D03*
X375595D02*
D03*
X382135D02*
D03*
X388675D02*
D03*
X395090Y1263811D02*
D03*
X392494Y1251538D02*
D03*
X388832Y1246119D02*
D03*
X383081Y1243006D02*
D03*
X382907Y1236468D02*
D03*
X377712Y1218807D02*
D03*
X397119Y1231867D02*
D03*
Y1238407D02*
D03*
X399730Y1244403D02*
D03*
X428091Y1250929D02*
D03*
X432582Y1246175D02*
D03*
X434498Y1239922D02*
D03*
X434586Y1233382D02*
D03*
Y1226842D02*
D03*
Y1220302D02*
D03*
Y1213762D02*
D03*
X434583Y1207222D02*
D03*
X435296Y1200721D02*
D03*
X437110Y1194438D02*
D03*
X439972Y1188557D02*
D03*
X448474Y1178682D02*
D03*
X453864Y1174977D02*
D03*
X459808Y1172249D02*
D03*
X466131Y1170577D02*
D03*
X472652Y1170086D02*
D03*
X478809Y1167881D02*
D03*
X485344Y1168131D02*
D03*
X491880Y1167881D02*
D03*
X496119Y1172861D02*
D03*
X496183Y1179400D02*
D03*
X496239Y1185940D02*
D03*
X481374Y1182119D02*
D03*
X474979Y1180750D02*
D03*
X468462Y1180203D02*
D03*
X462152Y1181922D02*
D03*
X456368Y1184976D02*
D03*
X445389Y1200803D02*
D03*
X444443Y1207274D02*
D03*
X444414Y1213814D02*
D03*
Y1220354D02*
D03*
Y1226894D02*
D03*
Y1233434D02*
D03*
X444373Y1239974D02*
D03*
X443187Y1246405D02*
D03*
X440376Y1252310D02*
D03*
X436022Y1257190D02*
D03*
X430546Y1260767D02*
D03*
X424308Y1262729D02*
D03*
X396101Y1274375D02*
D03*
X389583Y1274914D02*
D03*
X383043D02*
D03*
X376503D02*
D03*
X369963D02*
D03*
X363423D02*
D03*
X356883D02*
D03*
X350343D02*
D03*
X343803D02*
D03*
X337263D02*
D03*
X330723D02*
D03*
X324183D02*
D03*
X317643D02*
D03*
X311103D02*
D03*
X306000Y1275000D02*
D03*
D133*
X174500Y634500D02*
D03*
X264500Y761500D02*
D03*
X408500Y634500D02*
D03*
X227000Y337500D02*
D03*
M02*
