G04*
G04 #@! TF.GenerationSoftware,Altium Limited,Altium Designer,23.0.1 (38)*
G04*
G04 Layer_Color=16711935*
%FSLAX44Y44*%
%MOMM*%
G71*
G04*
G04 #@! TF.SameCoordinates,77CF4A85-A4DF-4617-8075-9ADA2F4333ED*
G04*
G04*
G04 #@! TF.FilePolarity,Negative*
G04*
G01*
G75*
%ADD79R,4.0760X1.0760*%
%ADD82R,1.0760X4.0760*%
%ADD124C,1.6000*%
%ADD125C,2.4509*%
%ADD126C,1.0666*%
%ADD127O,1.1760X2.2760*%
%ADD128O,1.3760X2.6760*%
%ADD129O,1.8760X3.3760*%
%ADD130O,3.8760X2.0760*%
%ADD131C,0.9760*%
%ADD132C,0.3760*%
%ADD133C,5.1560*%
D79*
X615000Y1126000D02*
D03*
Y1075000D02*
D03*
Y634500D02*
D03*
Y685500D02*
D03*
X25400Y1200500D02*
D03*
Y1149500D02*
D03*
X615000Y744500D02*
D03*
Y795500D02*
D03*
Y855000D02*
D03*
Y906000D02*
D03*
Y964500D02*
D03*
Y1015500D02*
D03*
D82*
X520500Y1287780D02*
D03*
X469500D02*
D03*
D124*
X540000Y525800D02*
D03*
Y500400D02*
D03*
Y475000D02*
D03*
Y449600D02*
D03*
X389200Y555000D02*
D03*
X414600D02*
D03*
X440000D02*
D03*
X465400D02*
D03*
X490800D02*
D03*
X389200Y529600D02*
D03*
X414600D02*
D03*
X440000D02*
D03*
X465400D02*
D03*
X490800D02*
D03*
X138700Y774500D02*
D03*
X164100D02*
D03*
X189500D02*
D03*
X214900D02*
D03*
D125*
X190950Y853250D02*
D03*
Y910400D02*
D03*
X241750Y853250D02*
D03*
Y910400D02*
D03*
X303250Y853250D02*
D03*
Y910400D02*
D03*
X354050Y853250D02*
D03*
Y910400D02*
D03*
X480950Y80400D02*
D03*
X538100D02*
D03*
X480950Y29600D02*
D03*
X538100D02*
D03*
D126*
X206200Y834200D02*
D03*
X226500D02*
D03*
X216350Y910400D02*
D03*
X318500Y834200D02*
D03*
X338800D02*
D03*
X328650Y910400D02*
D03*
X461900Y65150D02*
D03*
Y44850D02*
D03*
X538100Y55000D02*
D03*
D127*
X211800Y75850D02*
D03*
X298200D02*
D03*
D128*
X211800Y22250D02*
D03*
X298200D02*
D03*
D129*
X191500Y115000D02*
D03*
D130*
X145000Y80000D02*
D03*
Y140000D02*
D03*
D131*
X616500Y555500D02*
D03*
Y585500D02*
D03*
D132*
X383671Y1221503D02*
D03*
X371754Y1216111D02*
D03*
X365795Y1213416D02*
D03*
X359836Y1210720D02*
D03*
X387377Y1153586D02*
D03*
X393917D02*
D03*
X400457D02*
D03*
X420077D02*
D03*
X439336Y1150553D02*
D03*
X445163Y1147584D02*
D03*
X460469Y1138153D02*
D03*
X467003Y1137881D02*
D03*
X473512Y1137243D02*
D03*
X478282Y1132769D02*
D03*
X482907Y1128144D02*
D03*
X487531Y1123520D02*
D03*
X488881Y1117121D02*
D03*
X490286Y1110733D02*
D03*
X487881Y1104651D02*
D03*
Y1098111D02*
D03*
X488160Y1091578D02*
D03*
X488881Y1085077D02*
D03*
X490576Y1078761D02*
D03*
X500914Y1075321D02*
D03*
X502119Y1094747D02*
D03*
X502053Y1101287D02*
D03*
X501959Y1107826D02*
D03*
X502500Y1113000D02*
D03*
X499933Y1126814D02*
D03*
X494498Y1130451D02*
D03*
X489874Y1135076D02*
D03*
X463168Y1152119D02*
D03*
X456628D02*
D03*
X432836Y1162555D02*
D03*
X413260Y1163414D02*
D03*
X406720D02*
D03*
X400180D02*
D03*
X393640D02*
D03*
X387100D02*
D03*
X380560D02*
D03*
X374020D02*
D03*
X367480D02*
D03*
X360940D02*
D03*
X221986Y1150695D02*
D03*
X215564Y1149458D02*
D03*
X209142Y1148222D02*
D03*
X202720Y1146985D02*
D03*
X196298Y1145748D02*
D03*
X189876Y1144511D02*
D03*
X183454Y1143274D02*
D03*
X177032Y1142037D02*
D03*
X170610Y1140800D02*
D03*
X164188Y1139563D02*
D03*
X157766Y1138326D02*
D03*
X151344Y1137089D02*
D03*
X144922Y1135852D02*
D03*
X138500Y1134615D02*
D03*
X132424Y1137035D02*
D03*
X111000Y1133000D02*
D03*
X113907Y1126867D02*
D03*
X113881Y1120327D02*
D03*
X115302Y1113944D02*
D03*
X112951Y1101269D02*
D03*
X112881Y1094729D02*
D03*
X113936Y1088275D02*
D03*
X127119Y1097881D02*
D03*
X136405Y1124203D02*
D03*
X142827Y1125440D02*
D03*
X149249Y1126677D02*
D03*
X155671Y1127914D02*
D03*
X162093Y1129151D02*
D03*
X168515Y1130388D02*
D03*
X174937Y1131625D02*
D03*
X181359Y1132862D02*
D03*
X187780Y1134099D02*
D03*
X194202Y1135336D02*
D03*
X200624Y1136573D02*
D03*
X207046Y1137810D02*
D03*
X213468Y1139047D02*
D03*
X219890Y1140284D02*
D03*
X226292Y1141618D02*
D03*
X37756Y1184119D02*
D03*
X31216D02*
D03*
X24676D02*
D03*
X18136D02*
D03*
X11596D02*
D03*
X5057Y1184051D02*
D03*
X10435Y1165881D02*
D03*
X16975D02*
D03*
X23515D02*
D03*
X30055D02*
D03*
X36595D02*
D03*
X43129Y1165610D02*
D03*
X48140Y1161407D02*
D03*
X53126Y1157175D02*
D03*
X58161Y1153001D02*
D03*
X94132Y1140086D02*
D03*
X100672D02*
D03*
X106903Y1138099D02*
D03*
X113439Y1137889D02*
D03*
X119979Y1137881D02*
D03*
X125866Y1140729D02*
D03*
X126119Y1147264D02*
D03*
X109725Y1152119D02*
D03*
X103568Y1149914D02*
D03*
X97029D02*
D03*
X90489D02*
D03*
X56395Y1167309D02*
D03*
X51385Y1171512D02*
D03*
X49519Y1177780D02*
D03*
X46976Y1183805D02*
D03*
X174880Y1181825D02*
D03*
X168347Y1182119D02*
D03*
X162189Y1179915D02*
D03*
X155649D02*
D03*
X149109D02*
D03*
X147853Y1170088D02*
D03*
X154393D02*
D03*
X160933D02*
D03*
X167148Y1168050D02*
D03*
X173687Y1167938D02*
D03*
X180226Y1167881D02*
D03*
X186383Y1170086D02*
D03*
X192923D02*
D03*
X199463D02*
D03*
X206003D02*
D03*
X202917Y1179914D02*
D03*
X196377D02*
D03*
X189837D02*
D03*
X183576Y1181806D02*
D03*
X101086Y1212121D02*
D03*
X98881Y1205964D02*
D03*
X99817Y1199492D02*
D03*
X121119Y1206679D02*
D03*
X117379Y1212044D02*
D03*
X110914Y1213032D02*
D03*
X486034Y1308551D02*
D03*
X485881Y1302013D02*
D03*
Y1295473D02*
D03*
Y1288933D02*
D03*
Y1282393D02*
D03*
Y1275853D02*
D03*
X485577Y1269320D02*
D03*
X482448Y1263577D02*
D03*
X479319Y1257834D02*
D03*
X476190Y1252091D02*
D03*
X473061Y1246348D02*
D03*
X469932Y1240605D02*
D03*
X466803Y1234863D02*
D03*
X463674Y1229120D02*
D03*
X460545Y1223377D02*
D03*
X454746Y1220353D02*
D03*
X452881Y1214084D02*
D03*
Y1207544D02*
D03*
X466027Y1200259D02*
D03*
X473274Y1226200D02*
D03*
X479532Y1237685D02*
D03*
X482662Y1243428D02*
D03*
X485790Y1249171D02*
D03*
X488920Y1254914D02*
D03*
X492049Y1260657D02*
D03*
X497858Y1263661D02*
D03*
X503830Y1266327D02*
D03*
X504119Y1272860D02*
D03*
Y1279400D02*
D03*
Y1285940D02*
D03*
Y1292480D02*
D03*
Y1299020D02*
D03*
Y1305560D02*
D03*
X295545Y1212709D02*
D03*
X290810Y1208197D02*
D03*
X287315Y1202669D02*
D03*
X285425Y1196408D02*
D03*
X285086Y1189877D02*
D03*
Y1183337D02*
D03*
Y1176797D02*
D03*
X294914Y1180923D02*
D03*
Y1187463D02*
D03*
X295069Y1194001D02*
D03*
X297146Y1200202D02*
D03*
X534568Y1217119D02*
D03*
X528028D02*
D03*
X522822Y1202916D02*
D03*
X529360Y1203072D02*
D03*
X535897Y1202881D02*
D03*
X542060Y1205069D02*
D03*
X299500Y1275000D02*
D03*
X293698Y1273574D02*
D03*
X287482Y1271543D02*
D03*
X281633Y1268617D02*
D03*
X276278Y1264862D02*
D03*
X271536Y1260358D02*
D03*
X267509Y1255205D02*
D03*
X264284Y1249516D02*
D03*
X261933Y1243413D02*
D03*
X260504Y1237031D02*
D03*
X260073Y1230505D02*
D03*
X260086Y1223965D02*
D03*
Y1217425D02*
D03*
X267184Y1168881D02*
D03*
X272119Y1173172D02*
D03*
X271859Y1179707D02*
D03*
X272119Y1186242D02*
D03*
X269914Y1192399D02*
D03*
Y1198939D02*
D03*
Y1205479D02*
D03*
Y1212019D02*
D03*
Y1218559D02*
D03*
Y1225099D02*
D03*
X269944Y1231639D02*
D03*
X270776Y1238125D02*
D03*
X272788Y1244348D02*
D03*
X275910Y1250095D02*
D03*
X280054Y1255155D02*
D03*
X285157Y1259244D02*
D03*
X290926Y1262326D02*
D03*
X297163Y1264293D02*
D03*
X303655Y1265079D02*
D03*
X310196Y1265086D02*
D03*
X316735D02*
D03*
X323275D02*
D03*
X329815D02*
D03*
X336355D02*
D03*
X342895D02*
D03*
X349435D02*
D03*
X355975D02*
D03*
X362515D02*
D03*
X369055D02*
D03*
X375595D02*
D03*
X382135D02*
D03*
X388675D02*
D03*
X395090Y1263811D02*
D03*
X392494Y1251538D02*
D03*
X388832Y1246119D02*
D03*
X383081Y1243006D02*
D03*
X382907Y1236468D02*
D03*
X377712Y1218807D02*
D03*
X397119Y1231867D02*
D03*
Y1238407D02*
D03*
X399730Y1244403D02*
D03*
X428091Y1250929D02*
D03*
X432582Y1246175D02*
D03*
X434498Y1239922D02*
D03*
X434586Y1233382D02*
D03*
Y1226842D02*
D03*
Y1220302D02*
D03*
Y1213762D02*
D03*
X434583Y1207222D02*
D03*
X435296Y1200721D02*
D03*
X437110Y1194438D02*
D03*
X439972Y1188557D02*
D03*
X448474Y1178682D02*
D03*
X453864Y1174977D02*
D03*
X459808Y1172249D02*
D03*
X466131Y1170577D02*
D03*
X472652Y1170086D02*
D03*
X478809Y1167881D02*
D03*
X485344Y1168131D02*
D03*
X491880Y1167881D02*
D03*
X496119Y1172861D02*
D03*
X496183Y1179400D02*
D03*
X496239Y1185940D02*
D03*
X481374Y1182119D02*
D03*
X474979Y1180750D02*
D03*
X468462Y1180203D02*
D03*
X462152Y1181922D02*
D03*
X456368Y1184976D02*
D03*
X445389Y1200803D02*
D03*
X444443Y1207274D02*
D03*
X444414Y1213814D02*
D03*
Y1220354D02*
D03*
Y1226894D02*
D03*
Y1233434D02*
D03*
X444373Y1239974D02*
D03*
X443187Y1246405D02*
D03*
X440376Y1252310D02*
D03*
X436022Y1257190D02*
D03*
X430546Y1260767D02*
D03*
X424308Y1262729D02*
D03*
X396101Y1274375D02*
D03*
X389583Y1274914D02*
D03*
X383043D02*
D03*
X376503D02*
D03*
X369963D02*
D03*
X363423D02*
D03*
X356883D02*
D03*
X350343D02*
D03*
X343803D02*
D03*
X337263D02*
D03*
X330723D02*
D03*
X324183D02*
D03*
X317643D02*
D03*
X311103D02*
D03*
X306000Y1275000D02*
D03*
D133*
X174500Y634500D02*
D03*
X264500Y761500D02*
D03*
X408500Y634500D02*
D03*
X227000Y337500D02*
D03*
M02*
