G04*
G04 #@! TF.GenerationSoftware,Altium Limited,Altium Designer,23.0.1 (38)*
G04*
G04 Layer_Color=32896*
%FSLAX44Y44*%
%MOMM*%
G71*
G04*
G04 #@! TF.SameCoordinates,77CF4A85-A4DF-4617-8075-9ADA2F4333ED*
G04*
G04*
G04 #@! TF.FilePolarity,Positive*
G04*
G01*
G75*
G36*
X101250Y456432D02*
X18750D01*
Y845569D01*
X101250D01*
Y456432D01*
D02*
G37*
G36*
X74320Y325966D02*
X51449D01*
Y335479D01*
X49128D01*
X49177Y335486D01*
X49247Y335493D01*
X49332Y335507D01*
X49430Y335521D01*
X49536Y335550D01*
X49655Y335578D01*
X49782Y335627D01*
X49916Y335676D01*
X50057Y335746D01*
X50197Y335824D01*
X50338Y335915D01*
X50479Y336028D01*
X50619Y336155D01*
X50753Y336295D01*
X50760Y336302D01*
X50781Y336330D01*
X50816Y336380D01*
X50858Y336443D01*
X50915Y336535D01*
X50971Y336633D01*
X51034Y336760D01*
X51098Y336900D01*
X51168Y337055D01*
X51231Y337238D01*
X51288Y337428D01*
X51337Y337646D01*
X51386Y337878D01*
X51421Y338132D01*
X51442Y338399D01*
X51449Y338686D01*
Y338751D01*
X51442Y338828D01*
Y338927D01*
X51428Y339046D01*
X51421Y339187D01*
X51400Y339342D01*
X51379Y339511D01*
X51344Y339694D01*
X51309Y339877D01*
X51260Y340066D01*
X51203Y340263D01*
X51133Y340446D01*
X51055Y340636D01*
X50971Y340812D01*
X50866Y340974D01*
X50858Y340981D01*
X50837Y341009D01*
X50802Y341051D01*
X50760Y341108D01*
X50697Y341178D01*
X50626Y341255D01*
X50542Y341333D01*
X50451Y341424D01*
X50338Y341516D01*
X50218Y341607D01*
X50092Y341699D01*
X49951Y341790D01*
X49796Y341868D01*
X49634Y341945D01*
X49458Y342008D01*
X49275Y342065D01*
D01*
X48987Y340193D01*
X48994D01*
X49008Y340186D01*
X49036Y340179D01*
X49078Y340172D01*
X49121Y340158D01*
X49177Y340137D01*
X49297Y340088D01*
X49430Y340024D01*
X49571Y339947D01*
X49698Y339841D01*
X49817Y339715D01*
Y339708D01*
X49831Y339701D01*
X49845Y339679D01*
X49859Y339644D01*
X49881Y339609D01*
X49909Y339567D01*
X49930Y339511D01*
X49958Y339447D01*
X49986Y339377D01*
X50007Y339300D01*
X50035Y339215D01*
X50057Y339124D01*
X50071Y339025D01*
X50085Y338920D01*
X50099Y338807D01*
Y338617D01*
X50092Y338568D01*
Y338504D01*
X50085Y338441D01*
X50078Y338364D01*
X50064Y338279D01*
X50035Y338103D01*
X49986Y337921D01*
X49923Y337752D01*
X49881Y337667D01*
X49838Y337597D01*
X49831Y337583D01*
X49803Y337555D01*
X49761Y337519D01*
X49705Y337470D01*
X49634Y337428D01*
X49550Y337386D01*
X49451Y337358D01*
X49339Y337351D01*
X49332D01*
X49304D01*
X49261Y337358D01*
X49212Y337365D01*
X49163Y337386D01*
X49100Y337407D01*
X49043Y337442D01*
X48987Y337484D01*
X48980Y337491D01*
X48966Y337513D01*
X48938Y337555D01*
X48903Y337618D01*
X48867Y337695D01*
X48825Y337808D01*
X48804Y337871D01*
X48783Y337942D01*
X48762Y338026D01*
X48741Y338111D01*
Y338118D01*
X48734Y338139D01*
X48727Y338167D01*
X48720Y338209D01*
X48706Y338258D01*
X48692Y338322D01*
X48677Y338392D01*
X48656Y338469D01*
X48635Y338561D01*
X48614Y338652D01*
X48558Y338856D01*
X48502Y339081D01*
X48438Y339314D01*
X48375Y339560D01*
X48298Y339799D01*
X48227Y340038D01*
X48150Y340271D01*
X48065Y340482D01*
X47988Y340679D01*
X47953Y340763D01*
X47910Y340840D01*
X47868Y340911D01*
X47833Y340974D01*
X47826Y340981D01*
X47805Y341009D01*
X47777Y341051D01*
X47728Y341101D01*
X47671Y341164D01*
X47601Y341234D01*
X47516Y341312D01*
X47418Y341389D01*
X47312Y341467D01*
X47193Y341544D01*
X47066Y341614D01*
X46919Y341678D01*
X46771Y341727D01*
X46602Y341769D01*
X46426Y341797D01*
X46243Y341804D01*
X46229D01*
X46201D01*
X46152Y341797D01*
X46088Y341790D01*
X46011Y341783D01*
X45919Y341769D01*
X45821Y341741D01*
X45708Y341713D01*
X45589Y341678D01*
X45462Y341628D01*
X45335Y341572D01*
X45209Y341502D01*
X45075Y341417D01*
X44949Y341326D01*
X44822Y341213D01*
X44702Y341087D01*
X44695Y341080D01*
X44674Y341051D01*
X44646Y341009D01*
X44604Y340946D01*
X44555Y340869D01*
X44505Y340777D01*
X44449Y340664D01*
X44386Y340531D01*
X44329Y340383D01*
X44273Y340221D01*
X44224Y340038D01*
X44174Y339834D01*
X44132Y339616D01*
X44104Y339377D01*
X44083Y339117D01*
X44076Y338842D01*
Y342065D01*
D01*
D01*
Y335479D01*
D01*
Y338702D01*
X44083Y338603D01*
X44090Y338483D01*
X44104Y338350D01*
X44118Y338195D01*
X44132Y338026D01*
X44160Y337857D01*
X44196Y337681D01*
X44231Y337498D01*
X44280Y337323D01*
X44329Y337147D01*
X44400Y336985D01*
X44470Y336830D01*
X44555Y336689D01*
X44562Y336682D01*
X44576Y336661D01*
X44604Y336619D01*
X44639Y336577D01*
X44695Y336520D01*
X44752Y336450D01*
X44822Y336380D01*
X44906Y336302D01*
X44998Y336225D01*
X45103Y336141D01*
X45216Y336063D01*
X45342Y335986D01*
X45476Y335908D01*
X45624Y335838D01*
X45779Y335775D01*
X45948Y335718D01*
X46271Y337477D01*
X46264D01*
X46250Y337484D01*
X46229Y337491D01*
X46201Y337498D01*
X46130Y337534D01*
X46039Y337576D01*
X45940Y337639D01*
X45835Y337710D01*
X45736Y337801D01*
X45645Y337914D01*
X45638Y337928D01*
X45624Y337949D01*
X45610Y337970D01*
X45596Y338005D01*
X45575Y338040D01*
X45532Y338139D01*
X45490Y338265D01*
X45455Y338420D01*
X45427Y338603D01*
X45420Y338807D01*
Y338927D01*
X45427Y338990D01*
X45434Y339060D01*
Y339131D01*
X45448Y339215D01*
X45469Y339391D01*
X45511Y339567D01*
X45561Y339729D01*
X45596Y339799D01*
X45631Y339862D01*
X45638Y339869D01*
X45659Y339898D01*
X45687Y339926D01*
X45729Y339968D01*
X45786Y340003D01*
X45849Y340038D01*
X45926Y340066D01*
X46011Y340074D01*
X46018D01*
X46046D01*
X46081Y340066D01*
X46123Y340052D01*
X46180Y340031D01*
X46236Y339996D01*
X46292Y339954D01*
X46349Y339891D01*
X46356Y339877D01*
X46370Y339855D01*
X46384Y339827D01*
X46398Y339785D01*
X46426Y339729D01*
X46454Y339665D01*
X46482Y339581D01*
X46518Y339476D01*
X46553Y339356D01*
X46602Y339215D01*
X46644Y339053D01*
X46693Y338863D01*
X46750Y338652D01*
X46806Y338420D01*
X46841Y338286D01*
X46869Y338153D01*
Y338146D01*
X46876Y338139D01*
Y338118D01*
X46883Y338089D01*
X46904Y338012D01*
X46933Y337914D01*
X46961Y337787D01*
X47003Y337646D01*
X47045Y337498D01*
X47101Y337330D01*
X47221Y336992D01*
X47291Y336816D01*
X47362Y336647D01*
X47439Y336478D01*
X47524Y336330D01*
X47608Y336190D01*
X47699Y336070D01*
X47706Y336063D01*
X47721Y336042D01*
X47749Y336014D01*
X47791Y335979D01*
X47840Y335929D01*
X47903Y335880D01*
X47974Y335831D01*
X48058Y335775D01*
X48157Y335718D01*
X48255Y335669D01*
X48368Y335613D01*
X48495Y335571D01*
X48628Y335535D01*
X48769Y335507D01*
X48924Y335486D01*
X49085Y335479D01*
X51449D01*
Y325966D01*
X39603D01*
Y325966D01*
X18680D01*
Y451000D01*
X39603D01*
Y451000D01*
X51449D01*
Y418227D01*
D01*
Y451000D01*
X74320D01*
Y325966D01*
D02*
G37*
%LPC*%
G36*
X60285Y445920D02*
D01*
X60074Y444070D01*
X60081D01*
X60109D01*
X60151Y444063D01*
X60208D01*
X60278Y444056D01*
X60363Y444049D01*
X60447Y444041D01*
X60538Y444027D01*
X60735Y443999D01*
X60932Y443957D01*
X61024Y443929D01*
X61115Y443901D01*
X61193Y443866D01*
X61263Y443830D01*
X61270Y443823D01*
X61284Y443816D01*
X61312Y443795D01*
X61347Y443767D01*
X61383Y443732D01*
X61425Y443697D01*
X61474Y443647D01*
X61523Y443584D01*
X61573Y443521D01*
X61622Y443451D01*
X61664Y443373D01*
X61699Y443282D01*
X61734Y443190D01*
X61763Y443085D01*
X61777Y442979D01*
X61784Y442859D01*
Y442796D01*
X61777Y442754D01*
X61770Y442698D01*
X61763Y442634D01*
X61734Y442501D01*
X61692Y442346D01*
X61629Y442191D01*
X61587Y442121D01*
X61530Y442050D01*
X61474Y441987D01*
X61411Y441931D01*
X61404D01*
X61390Y441917D01*
X61369Y441903D01*
X61333Y441889D01*
X61291Y441867D01*
X61228Y441846D01*
X61158Y441818D01*
X61073Y441790D01*
X60982Y441769D01*
X60869Y441741D01*
X60742Y441720D01*
X60595Y441699D01*
X60440Y441684D01*
X60264Y441670D01*
X60067Y441656D01*
X59856D01*
X53559D01*
Y445920D01*
D01*
Y439693D01*
X63465D01*
D01*
X59926D01*
X60032Y439700D01*
X60144Y439707D01*
X60278Y439715D01*
X60412Y439721D01*
X60560Y439729D01*
X60714Y439750D01*
X61024Y439785D01*
X61172Y439813D01*
X61319Y439841D01*
X61460Y439876D01*
X61587Y439911D01*
X61594D01*
X61622Y439926D01*
X61671Y439940D01*
X61727Y439968D01*
X61798Y440003D01*
X61882Y440038D01*
X61974Y440087D01*
X62079Y440144D01*
X62185Y440214D01*
X62297Y440284D01*
X62410Y440369D01*
X62523Y440467D01*
X62635Y440573D01*
X62748Y440686D01*
X62853Y440812D01*
X62952Y440946D01*
X62959Y440953D01*
X62973Y440981D01*
X63001Y441023D01*
X63029Y441079D01*
X63071Y441157D01*
X63113Y441248D01*
X63163Y441354D01*
X63205Y441474D01*
X63254Y441607D01*
X63303Y441755D01*
X63346Y441917D01*
X63388Y442093D01*
X63416Y442283D01*
X63444Y442487D01*
X63458Y442698D01*
X63465Y442923D01*
Y442986D01*
X63458Y443064D01*
X63451Y443162D01*
X63437Y443282D01*
X63423Y443422D01*
X63395Y443577D01*
X63367Y443739D01*
X63325Y443915D01*
X63268Y444098D01*
X63205Y444281D01*
X63128Y444471D01*
X63036Y444654D01*
X62931Y444829D01*
X62804Y444991D01*
X62663Y445146D01*
X62656Y445153D01*
X62628Y445181D01*
X62579Y445216D01*
X62516Y445266D01*
X62424Y445322D01*
X62326Y445392D01*
X62206Y445463D01*
X62065Y445533D01*
X61903Y445603D01*
X61727Y445674D01*
X61530Y445737D01*
X61319Y445801D01*
X61087Y445850D01*
X60841Y445885D01*
X60574Y445913D01*
X60285Y445920D01*
D02*
G37*
G36*
X39427D02*
X29689D01*
Y438701D01*
X31336D01*
Y443957D01*
X33496D01*
Y439067D01*
X35142D01*
Y443957D01*
X37780D01*
Y438518D01*
X29689D01*
X39427D01*
Y445920D01*
D02*
G37*
G36*
X51288D02*
D01*
X41550Y442142D01*
Y440052D01*
X51288Y436154D01*
X41550D01*
X51288D01*
Y445920D01*
D02*
G37*
G36*
X63458Y437653D02*
D01*
Y435381D01*
X63451Y435430D01*
Y435493D01*
X63444Y435563D01*
X63430Y435648D01*
X63416Y435739D01*
X63381Y435936D01*
X63325Y436147D01*
X63247Y436372D01*
X63205Y436485D01*
X63149Y436591D01*
X63142Y436598D01*
X63135Y436612D01*
X63113Y436647D01*
X63092Y436682D01*
X63057Y436731D01*
X63022Y436781D01*
X62923Y436900D01*
X62797Y437034D01*
X62649Y437175D01*
X62473Y437301D01*
X62382Y437357D01*
X62276Y437407D01*
X62269D01*
X62248Y437414D01*
X62220Y437428D01*
X62171Y437442D01*
X62114Y437463D01*
X62044Y437484D01*
X61960Y437505D01*
X61868Y437526D01*
X61763Y437555D01*
X61643Y437576D01*
X61516Y437597D01*
X61376Y437611D01*
X61221Y437632D01*
X61059Y437639D01*
X60890Y437653D01*
X56240D01*
Y435788D01*
X59483D01*
X59490D01*
X59497D01*
X59518D01*
X59546D01*
X59624D01*
X59722D01*
X59835D01*
X59969Y435782D01*
X60116D01*
X60264Y435774D01*
X60581Y435767D01*
X60735Y435753D01*
X60876Y435746D01*
X61010Y435732D01*
X61129Y435725D01*
X61228Y435704D01*
X61305Y435690D01*
X61312D01*
X61319Y435683D01*
X61362Y435669D01*
X61425Y435641D01*
X61495Y435606D01*
X61587Y435549D01*
X61671Y435486D01*
X61763Y435409D01*
X61840Y435317D01*
X61847Y435303D01*
X61868Y435268D01*
X61903Y435205D01*
X61932Y435127D01*
X61967Y435029D01*
X62002Y434909D01*
X62023Y434768D01*
X62030Y434621D01*
Y434571D01*
X62023Y434536D01*
Y434501D01*
X62016Y434452D01*
X61995Y434332D01*
X61967Y434198D01*
X61917Y434058D01*
X61854Y433910D01*
X61770Y433762D01*
Y433755D01*
X61756Y433748D01*
X61741Y433727D01*
X61720Y433699D01*
X61664Y433636D01*
X61594Y433551D01*
X61495Y433467D01*
X61390Y433382D01*
X61263Y433305D01*
X61122Y433242D01*
X61115D01*
X61101Y433234D01*
X61073Y433228D01*
X61038Y433220D01*
X60989Y433206D01*
X60918Y433199D01*
X60841Y433185D01*
X60735Y433171D01*
X60623Y433157D01*
X60489Y433143D01*
X60334Y433136D01*
X60151Y433122D01*
X59954Y433115D01*
X59736Y433108D01*
X59490Y433101D01*
X59216D01*
X56240D01*
Y431236D01*
X63458D01*
Y437653D01*
D02*
G37*
G36*
X44076Y433762D02*
Y433671D01*
D01*
Y433762D01*
D02*
G37*
G36*
Y433657D02*
Y433474D01*
D01*
Y433657D01*
D02*
G37*
G36*
Y433467D02*
Y433340D01*
D01*
Y433467D01*
D02*
G37*
G36*
Y433340D02*
Y433319D01*
D01*
Y433340D01*
D02*
G37*
G36*
Y433319D02*
Y432988D01*
D01*
Y433319D01*
D02*
G37*
G36*
Y432988D02*
Y432812D01*
D01*
Y432988D01*
D02*
G37*
G36*
Y432805D02*
Y432615D01*
D01*
Y432805D01*
D02*
G37*
G36*
Y432559D02*
Y432531D01*
D01*
Y432559D01*
D02*
G37*
G36*
Y432489D02*
Y432355D01*
D01*
Y432489D01*
D02*
G37*
G36*
Y432341D02*
Y432299D01*
D01*
Y432341D01*
D02*
G37*
G36*
Y432285D02*
Y431947D01*
D01*
Y432285D01*
D02*
G37*
G36*
X36261Y437351D02*
X36078Y435437D01*
X36092D01*
X36120Y435430D01*
X36169Y435416D01*
X36233Y435402D01*
X36317Y435381D01*
X36408Y435352D01*
X36507Y435324D01*
X36612Y435289D01*
X36845Y435191D01*
X36964Y435134D01*
X37084Y435071D01*
X37196Y435000D01*
X37302Y434923D01*
X37401Y434832D01*
X37492Y434740D01*
X37499Y434733D01*
X37513Y434712D01*
X37534Y434684D01*
X37562Y434642D01*
X37597Y434593D01*
X37633Y434522D01*
X37675Y434452D01*
X37717Y434360D01*
X37759Y434269D01*
X37801Y434156D01*
X37837Y434044D01*
X37872Y433917D01*
X37900Y433776D01*
X37921Y433629D01*
X37935Y433474D01*
X37942Y433312D01*
Y433220D01*
X37935Y433157D01*
X37928Y433080D01*
X37921Y432988D01*
X37907Y432883D01*
X37893Y432777D01*
X37844Y432545D01*
X37808Y432425D01*
X37773Y432306D01*
X37724Y432193D01*
X37675Y432081D01*
X37611Y431975D01*
X37541Y431884D01*
X37534Y431877D01*
X37520Y431863D01*
X37499Y431842D01*
X37471Y431806D01*
X37429Y431771D01*
X37386Y431729D01*
X37330Y431687D01*
X37274Y431637D01*
X37133Y431553D01*
X36978Y431476D01*
X36887Y431440D01*
X36802Y431419D01*
X36704Y431405D01*
X36605Y431398D01*
X36598D01*
X36591D01*
X36549D01*
X36486Y431405D01*
X36401Y431426D01*
X36310Y431447D01*
X36211Y431483D01*
X36113Y431532D01*
X36021Y431602D01*
X36007Y431609D01*
X35979Y431645D01*
X35937Y431694D01*
X35874Y431764D01*
X35810Y431863D01*
X35733Y431989D01*
X35663Y432137D01*
X35627Y432221D01*
X35592Y432313D01*
Y432320D01*
X35585Y432327D01*
X35578Y432355D01*
X35571Y432383D01*
X35557Y432433D01*
X35536Y432489D01*
X35515Y432559D01*
X35494Y432636D01*
X35466Y432735D01*
X35438Y432848D01*
X35402Y432974D01*
X35360Y433122D01*
X35318Y433284D01*
X35276Y433467D01*
X35226Y433671D01*
X35170Y433889D01*
Y433896D01*
X35163Y433910D01*
Y433931D01*
X35149Y433959D01*
X35142Y433994D01*
X35128Y434037D01*
X35100Y434142D01*
X35065Y434276D01*
X35015Y434424D01*
X34959Y434585D01*
X34903Y434754D01*
X34832Y434937D01*
X34762Y435120D01*
X34685Y435310D01*
X34600Y435486D01*
X34509Y435662D01*
X34410Y435824D01*
X34312Y435971D01*
X34206Y436105D01*
X34199Y436112D01*
X34171Y436140D01*
X34122Y436190D01*
X34065Y436246D01*
X33988Y436309D01*
X33890Y436387D01*
X33784Y436471D01*
X33657Y436548D01*
X33524Y436633D01*
X33376Y436717D01*
X33214Y436795D01*
X33045Y436858D01*
X32862Y436914D01*
X32665Y436964D01*
X32461Y436992D01*
X32250Y436999D01*
X32243D01*
X32215D01*
X32180D01*
X32124Y436992D01*
X32060Y436985D01*
X31983Y436978D01*
X31891Y436964D01*
X31793Y436949D01*
X31694Y436921D01*
X31582Y436900D01*
X31469Y436865D01*
X31350Y436823D01*
X31223Y436773D01*
X31103Y436717D01*
X30977Y436654D01*
X30857Y436584D01*
X30850Y436576D01*
X30829Y436562D01*
X30794Y436541D01*
X30752Y436506D01*
X30695Y436464D01*
X30632Y436408D01*
X30569Y436344D01*
X30491Y436274D01*
X30414Y436190D01*
X30329Y436098D01*
X30252Y436000D01*
X30168Y435894D01*
X30090Y435774D01*
X30013Y435648D01*
X29936Y435514D01*
X29872Y435366D01*
X29865Y435359D01*
X29858Y435331D01*
X29837Y435282D01*
X29816Y435226D01*
X29795Y435148D01*
X29760Y435057D01*
X29731Y434951D01*
X29696Y434832D01*
X29668Y434698D01*
X29633Y434550D01*
X29605Y434395D01*
X29584Y434227D01*
X29555Y434044D01*
X29541Y433854D01*
X29534Y433657D01*
X29527Y433453D01*
Y433326D01*
X29534Y433277D01*
Y433220D01*
X29541Y433150D01*
X29548Y432995D01*
X29570Y432819D01*
X29598Y432630D01*
X29626Y432418D01*
X29668Y432200D01*
X29724Y431975D01*
X29788Y431743D01*
X29865Y431511D01*
X29964Y431293D01*
X30069Y431075D01*
X30196Y430877D01*
X30336Y430695D01*
X30344Y430681D01*
X30372Y430652D01*
X30421Y430610D01*
X30484Y430547D01*
X30562Y430476D01*
X30660Y430399D01*
X30773Y430315D01*
X30906Y430223D01*
X31047Y430132D01*
X31209Y430047D01*
X31385Y429963D01*
X31575Y429893D01*
X31779Y429822D01*
X31997Y429773D01*
X32229Y429738D01*
X32475Y429717D01*
X32560Y431680D01*
X32553D01*
X32525Y431687D01*
X32490Y431694D01*
X32440Y431708D01*
X32377Y431722D01*
X32306Y431743D01*
X32229Y431764D01*
X32145Y431792D01*
X31969Y431870D01*
X31793Y431961D01*
X31624Y432081D01*
X31547Y432144D01*
X31483Y432221D01*
X31476Y432228D01*
X31469Y432243D01*
X31455Y432264D01*
X31434Y432299D01*
X31406Y432341D01*
X31378Y432397D01*
X31350Y432461D01*
X31314Y432531D01*
X31286Y432615D01*
X31258Y432707D01*
X31230Y432812D01*
X31202Y432925D01*
X31181Y433045D01*
X31167Y433171D01*
X31153Y433319D01*
Y433551D01*
X31160Y433607D01*
X31167Y433678D01*
X31174Y433762D01*
X31181Y433854D01*
X31195Y433959D01*
X31237Y434170D01*
X31300Y434395D01*
X31343Y434508D01*
X31392Y434614D01*
X31448Y434712D01*
X31511Y434811D01*
X31518Y434825D01*
X31554Y434860D01*
X31603Y434909D01*
X31673Y434965D01*
X31758Y435022D01*
X31856Y435071D01*
X31976Y435106D01*
X32039Y435113D01*
X32109Y435120D01*
X32117D01*
X32124D01*
X32166Y435113D01*
X32229Y435106D01*
X32314Y435085D01*
X32405Y435050D01*
X32503Y435000D01*
X32602Y434930D01*
X32701Y434832D01*
Y434825D01*
X32715Y434811D01*
X32729Y434790D01*
X32757Y434747D01*
X32785Y434698D01*
X32820Y434635D01*
X32855Y434557D01*
X32898Y434466D01*
X32947Y434353D01*
X32996Y434227D01*
X33052Y434079D01*
X33109Y433910D01*
X33172Y433720D01*
X33228Y433516D01*
X33292Y433277D01*
X33355Y433023D01*
Y433016D01*
X33362Y433009D01*
Y432988D01*
X33369Y432960D01*
X33390Y432890D01*
X33411Y432791D01*
X33446Y432672D01*
X33482Y432531D01*
X33524Y432383D01*
X33566Y432221D01*
X33622Y432052D01*
X33672Y431877D01*
X33791Y431525D01*
X33854Y431356D01*
X33925Y431194D01*
X33988Y431039D01*
X34058Y430906D01*
X34065Y430899D01*
X34072Y430877D01*
X34094Y430842D01*
X34122Y430793D01*
X34164Y430737D01*
X34206Y430667D01*
X34255Y430596D01*
X34319Y430512D01*
X34382Y430427D01*
X34460Y430343D01*
X34537Y430251D01*
X34628Y430160D01*
X34825Y429984D01*
X34938Y429907D01*
X35050Y429829D01*
X35057Y429822D01*
X35079Y429815D01*
X35114Y429794D01*
X35163Y429766D01*
X35226Y429738D01*
X35297Y429703D01*
X35381Y429667D01*
X35480Y429632D01*
X35585Y429597D01*
X35705Y429562D01*
X35831Y429527D01*
X35965Y429498D01*
X36113Y429470D01*
X36268Y429449D01*
X36430Y429442D01*
X36598Y429435D01*
X29527D01*
X39603D01*
D01*
X36683D01*
X36739Y429442D01*
X36816Y429449D01*
X36901Y429463D01*
X36999Y429477D01*
X37105Y429492D01*
X37225Y429520D01*
X37351Y429548D01*
X37478Y429590D01*
X37611Y429632D01*
X37752Y429688D01*
X37893Y429752D01*
X38027Y429822D01*
X38167Y429907D01*
X38174Y429914D01*
X38196Y429928D01*
X38238Y429956D01*
X38287Y429991D01*
X38343Y430040D01*
X38414Y430097D01*
X38491Y430167D01*
X38575Y430244D01*
X38660Y430336D01*
X38751Y430434D01*
X38843Y430540D01*
X38927Y430659D01*
X39019Y430786D01*
X39103Y430920D01*
X39181Y431068D01*
X39251Y431222D01*
X39258Y431229D01*
X39265Y431258D01*
X39286Y431307D01*
X39307Y431377D01*
X39335Y431455D01*
X39363Y431553D01*
X39392Y431673D01*
X39427Y431799D01*
X39462Y431947D01*
X39490Y432109D01*
X39518Y432285D01*
X39546Y432468D01*
X39567Y432665D01*
X39589Y432876D01*
X39596Y433101D01*
X39603Y433332D01*
Y433460D01*
X39596Y433509D01*
Y433572D01*
X39589Y433636D01*
X39574Y433790D01*
X39560Y433973D01*
X39532Y434170D01*
X39497Y434381D01*
X39448Y434607D01*
X39392Y434839D01*
X39328Y435078D01*
X39244Y435310D01*
X39145Y435542D01*
X39033Y435767D01*
X38899Y435979D01*
X38751Y436175D01*
X38744Y436190D01*
X38709Y436218D01*
X38660Y436267D01*
X38589Y436330D01*
X38505Y436408D01*
X38393Y436499D01*
X38266Y436591D01*
X38118Y436689D01*
X37956Y436795D01*
X37766Y436893D01*
X37562Y436992D01*
X37344Y437083D01*
X37098Y437175D01*
X36838Y437245D01*
X36556Y437308D01*
X36261Y437351D01*
D02*
G37*
G36*
X51288Y435205D02*
X44076D01*
Y433776D01*
D01*
Y435205D01*
X44231D01*
Y433474D01*
X45237D01*
X45230Y433467D01*
X45209Y433453D01*
X45167Y433432D01*
X45124Y433396D01*
X45068Y433361D01*
X44998Y433312D01*
X44850Y433206D01*
X44695Y433087D01*
X44540Y432953D01*
X44470Y432883D01*
X44407Y432812D01*
X44350Y432742D01*
X44301Y432679D01*
Y432672D01*
X44294Y432665D01*
X44280Y432644D01*
X44266Y432615D01*
X44231Y432538D01*
X44189Y432439D01*
X44146Y432320D01*
X44111Y432186D01*
X44083Y432031D01*
X44076Y431870D01*
Y431806D01*
X44083Y431757D01*
X44090Y431701D01*
X44097Y431637D01*
X44104Y431560D01*
X44118Y431476D01*
X44160Y431286D01*
X44224Y431075D01*
X44266Y430969D01*
X44315Y430856D01*
X44372Y430744D01*
X44435Y430631D01*
X46060Y431215D01*
X46053Y431222D01*
X46046Y431236D01*
X46032Y431264D01*
X46011Y431293D01*
X45990Y431335D01*
X45962Y431384D01*
X45905Y431504D01*
X45849Y431637D01*
X45800Y431785D01*
X45765Y431940D01*
X45751Y432017D01*
Y432158D01*
X45765Y432235D01*
X45779Y432327D01*
X45807Y432433D01*
X45842Y432545D01*
X45898Y432658D01*
X45969Y432763D01*
X45976Y432777D01*
X46011Y432805D01*
X46067Y432855D01*
X46145Y432918D01*
X46257Y432981D01*
X46321Y433016D01*
X46391Y433052D01*
X46468Y433087D01*
X46553Y433122D01*
X46651Y433157D01*
X46750Y433185D01*
X46757D01*
X46778Y433192D01*
X46813Y433199D01*
X46862Y433206D01*
X46933Y433220D01*
X47024Y433234D01*
X47130Y433249D01*
X47256Y433263D01*
X47404Y433277D01*
X47573Y433291D01*
X47770Y433305D01*
X47981Y433319D01*
X48227Y433326D01*
X48495Y433333D01*
X48790Y433340D01*
X48945D01*
X49114D01*
X51288D01*
Y435205D01*
D02*
G37*
G36*
X44076Y431680D02*
Y430631D01*
D01*
Y431680D01*
D02*
G37*
G36*
X63296Y429301D02*
X53559D01*
Y427437D01*
X63296D01*
Y429301D01*
D02*
G37*
G36*
Y425523D02*
X56240D01*
Y423659D01*
X55283D01*
Y425523D01*
X53559D01*
Y423659D01*
X63296D01*
Y425523D01*
D02*
G37*
G36*
X39427Y427782D02*
X29689D01*
Y424348D01*
X29696Y424201D01*
Y424039D01*
X29703Y423863D01*
X29710Y423673D01*
X29724Y423279D01*
X29739Y423082D01*
X29753Y422892D01*
X29767Y422716D01*
X29788Y422554D01*
X29809Y422413D01*
X29823Y422357D01*
X29837Y422301D01*
Y422294D01*
X29851Y422266D01*
X29865Y422216D01*
X29879Y422160D01*
X29907Y422090D01*
X29943Y422005D01*
X29985Y421914D01*
X30041Y421808D01*
X30097Y421703D01*
X30168Y421590D01*
X30245Y421478D01*
X30329Y421358D01*
X30428Y421239D01*
X30541Y421119D01*
X30660Y421006D01*
X30794Y420901D01*
X30801Y420894D01*
X30829Y420873D01*
X30871Y420844D01*
X30928Y420809D01*
X30998Y420767D01*
X31089Y420718D01*
X31188Y420669D01*
X31307Y420612D01*
X31434Y420563D01*
X31575Y420514D01*
X31730Y420465D01*
X31899Y420422D01*
X32081Y420380D01*
X32271Y420352D01*
X32475Y420338D01*
X32687Y420331D01*
X29689D01*
X39427D01*
Y427782D01*
D02*
G37*
G36*
X63458Y422238D02*
D01*
Y419944D01*
X63451Y420000D01*
Y420078D01*
X63437Y420169D01*
X63430Y420275D01*
X63409Y420387D01*
X63381Y420521D01*
X63353Y420654D01*
X63310Y420795D01*
X63268Y420936D01*
X63212Y421077D01*
X63142Y421217D01*
X63064Y421358D01*
X62973Y421492D01*
X62867Y421611D01*
X62860Y421618D01*
X62839Y421640D01*
X62804Y421668D01*
X62762Y421710D01*
X62705Y421759D01*
X62635Y421808D01*
X62551Y421865D01*
X62459Y421921D01*
X62354Y421984D01*
X62241Y422041D01*
X62122Y422090D01*
X61988Y422139D01*
X61847Y422181D01*
X61699Y422209D01*
X61537Y422231D01*
X61376Y422238D01*
X63458D01*
X56085D01*
X61319D01*
X61277Y422231D01*
X61221D01*
X61165Y422224D01*
X61094Y422216D01*
X61017Y422202D01*
X60855Y422167D01*
X60672Y422118D01*
X60489Y422048D01*
X60313Y421956D01*
X60306Y421949D01*
X60292Y421942D01*
X60271Y421928D01*
X60236Y421900D01*
X60151Y421837D01*
X60046Y421745D01*
X59933Y421632D01*
X59814Y421499D01*
X59694Y421337D01*
X59596Y421154D01*
Y421147D01*
X59581Y421133D01*
X59567Y421098D01*
X59553Y421056D01*
X59532Y421006D01*
X59504Y420943D01*
X59476Y420866D01*
X59448Y420774D01*
X59413Y420676D01*
X59377Y420563D01*
X59342Y420443D01*
X59307Y420310D01*
X59265Y420169D01*
X59230Y420014D01*
X59195Y419845D01*
X59159Y419669D01*
Y419655D01*
X59145Y419613D01*
X59138Y419543D01*
X59117Y419458D01*
X59096Y419353D01*
X59068Y419226D01*
X59040Y419093D01*
X59012Y418952D01*
X58934Y418649D01*
X58857Y418354D01*
X58822Y418213D01*
X58780Y418079D01*
X58737Y417960D01*
X58695Y417854D01*
X58512D01*
X58505D01*
X58491D01*
X58463D01*
X58428Y417861D01*
X58378D01*
X58329Y417868D01*
X58217Y417890D01*
X58090Y417918D01*
X57963Y417967D01*
X57844Y418030D01*
X57794Y418072D01*
X57745Y418122D01*
X57738Y418136D01*
X57724Y418150D01*
X57710Y418178D01*
X57689Y418206D01*
X57675Y418248D01*
X57654Y418290D01*
X57626Y418347D01*
X57604Y418410D01*
X57583Y418488D01*
X57569Y418565D01*
X57548Y418656D01*
X57534Y418762D01*
X57520Y418875D01*
X57513Y418994D01*
Y419212D01*
X57520Y419254D01*
Y419304D01*
X57534Y419409D01*
X57562Y419536D01*
X57597Y419669D01*
X57647Y419796D01*
X57710Y419909D01*
X57717Y419923D01*
X57745Y419951D01*
X57801Y420007D01*
X57872Y420064D01*
X57963Y420134D01*
X58083Y420211D01*
X58231Y420282D01*
X58400Y420352D01*
X58097Y422048D01*
X58083Y422041D01*
X58055Y422034D01*
X57998Y422020D01*
X57928Y421991D01*
X57844Y421963D01*
X57745Y421921D01*
X57640Y421872D01*
X57527Y421823D01*
X57400Y421759D01*
X57281Y421682D01*
X57154Y421604D01*
X57028Y421513D01*
X56908Y421421D01*
X56788Y421309D01*
X56683Y421196D01*
X56584Y421070D01*
X56577Y421063D01*
X56563Y421035D01*
X56535Y420992D01*
X56507Y420936D01*
X56472Y420866D01*
X56430Y420774D01*
X56380Y420669D01*
X56331Y420542D01*
X56289Y420408D01*
X56240Y420253D01*
X56197Y420078D01*
X56162Y419895D01*
X56134Y419691D01*
X56106Y419473D01*
X56092Y419240D01*
X56085Y418987D01*
Y418867D01*
X56092Y418783D01*
Y418677D01*
X56099Y418558D01*
X56106Y418424D01*
X56120Y418284D01*
X56134Y418136D01*
X56155Y417981D01*
X56211Y417671D01*
X56240Y417524D01*
X56282Y417376D01*
X56331Y417242D01*
X56380Y417123D01*
Y417116D01*
X56394Y417094D01*
X56408Y417066D01*
X56437Y417024D01*
X56465Y416975D01*
X56500Y416918D01*
X56584Y416785D01*
X56697Y416644D01*
X56824Y416503D01*
X56971Y416370D01*
X57049Y416313D01*
X57133Y416264D01*
X57140D01*
X57154Y416250D01*
X57182Y416243D01*
X57224Y416222D01*
X57274Y416208D01*
X57344Y416187D01*
X57422Y416159D01*
X57513Y416138D01*
X57619Y416116D01*
X57745Y416088D01*
X57879Y416067D01*
X58034Y416053D01*
X58203Y416032D01*
X58386Y416025D01*
X58590Y416011D01*
X58808D01*
X60982Y416039D01*
X60989D01*
X61024D01*
X61073D01*
X61136D01*
X61214D01*
X61298Y416032D01*
X61397D01*
X61502Y416025D01*
X61727Y416018D01*
X61953Y416004D01*
X62065Y415997D01*
X62171Y415983D01*
X62262Y415969D01*
X62354Y415955D01*
X62361D01*
X62375Y415948D01*
X62396D01*
X62431Y415933D01*
X62473Y415927D01*
X62523Y415912D01*
X62635Y415877D01*
X62776Y415835D01*
X62938Y415772D01*
X63113Y415701D01*
X63296Y415617D01*
D01*
Y417460D01*
X63289D01*
X63261Y417474D01*
X63219Y417488D01*
X63156Y417509D01*
X63078Y417538D01*
X62987Y417573D01*
X62874Y417608D01*
X62748Y417643D01*
X62741D01*
X62719Y417650D01*
X62691Y417657D01*
X62656Y417671D01*
X62586Y417692D01*
X62558Y417700D01*
X62530Y417706D01*
X62537Y417714D01*
X62551Y417728D01*
X62572Y417756D01*
X62607Y417791D01*
X62642Y417833D01*
X62691Y417890D01*
X62741Y417946D01*
X62790Y418016D01*
X62902Y418164D01*
X63022Y418340D01*
X63128Y418530D01*
X63226Y418734D01*
Y418741D01*
X63233Y418755D01*
X63247Y418790D01*
X63261Y418825D01*
X63282Y418881D01*
X63296Y418938D01*
X63318Y419008D01*
X63339Y419078D01*
X63367Y419163D01*
X63388Y419254D01*
X63423Y419451D01*
X63451Y419669D01*
X63458Y419895D01*
Y415617D01*
D01*
Y422238D01*
D02*
G37*
G36*
X51288Y429970D02*
X44076D01*
Y419599D01*
D01*
Y421837D01*
X44083Y421780D01*
Y421717D01*
X44090Y421640D01*
X44104Y421548D01*
X44118Y421457D01*
X44153Y421253D01*
X44210Y421027D01*
X44287Y420809D01*
X44336Y420704D01*
X44393Y420598D01*
Y420591D01*
X44407Y420577D01*
X44428Y420549D01*
X44449Y420507D01*
X44484Y420465D01*
X44526Y420415D01*
X44576Y420359D01*
X44625Y420296D01*
X44688Y420232D01*
X44759Y420169D01*
X44836Y420099D01*
X44920Y420035D01*
X45005Y419972D01*
X45103Y419909D01*
X45321Y419796D01*
X45328D01*
X45342Y419789D01*
X45371Y419775D01*
X45406Y419768D01*
X45455Y419747D01*
X45518Y419733D01*
X45589Y419719D01*
X45673Y419698D01*
X45772Y419677D01*
X45877Y419663D01*
X45997Y419641D01*
X46130Y419627D01*
X46271Y419620D01*
X46433Y419606D01*
X46602Y419599D01*
X51288D01*
Y421464D01*
X47263D01*
X47249D01*
X47214D01*
X47165D01*
X47094D01*
X47010Y421471D01*
X46919D01*
X46813Y421478D01*
X46700Y421485D01*
X46468Y421513D01*
X46250Y421548D01*
X46145Y421569D01*
X46053Y421597D01*
X45969Y421626D01*
X45905Y421661D01*
X45898D01*
X45891Y421675D01*
X45870Y421689D01*
X45842Y421710D01*
X45779Y421773D01*
X45701Y421858D01*
X45631Y421970D01*
X45568Y422104D01*
X45539Y422181D01*
X45518Y422266D01*
X45511Y422357D01*
X45504Y422456D01*
Y422519D01*
X45518Y422596D01*
X45532Y422695D01*
X45561Y422808D01*
X45603Y422934D01*
X45666Y423061D01*
X45743Y423195D01*
Y423201D01*
X45758Y423209D01*
X45786Y423251D01*
X45842Y423314D01*
X45919Y423384D01*
X46018Y423469D01*
X46137Y423553D01*
X46285Y423631D01*
X46447Y423694D01*
X46454D01*
X46468Y423701D01*
X46496Y423708D01*
X46532Y423715D01*
X46588Y423729D01*
X46644Y423743D01*
X46722Y423757D01*
X46806Y423764D01*
X46897Y423778D01*
X47010Y423792D01*
X47123Y423807D01*
X47256Y423821D01*
X47404Y423828D01*
X47559Y423835D01*
X47721Y423842D01*
X47903D01*
X51288D01*
Y425706D01*
X47425D01*
X47411D01*
X47383D01*
X47327D01*
X47256D01*
X47179D01*
X47087Y425713D01*
X46982D01*
X46876Y425720D01*
X46651Y425734D01*
X46433Y425748D01*
X46335Y425762D01*
X46243Y425777D01*
X46166Y425791D01*
X46102Y425812D01*
X46095D01*
X46088Y425819D01*
X46053Y425833D01*
X45997Y425854D01*
X45933Y425889D01*
X45856Y425931D01*
X45786Y425981D01*
X45715Y426044D01*
X45652Y426121D01*
X45645Y426128D01*
X45631Y426157D01*
X45603Y426206D01*
X45575Y426269D01*
X45554Y426347D01*
X45525Y426445D01*
X45511Y426558D01*
X45504Y426684D01*
Y426755D01*
X45511Y426797D01*
X45518Y426839D01*
X45532Y426945D01*
X45561Y427064D01*
X45603Y427198D01*
X45666Y427332D01*
X45743Y427465D01*
Y427472D01*
X45758Y427479D01*
X45786Y427522D01*
X45842Y427585D01*
X45912Y427655D01*
X46011Y427740D01*
X46123Y427817D01*
X46257Y427894D01*
X46412Y427958D01*
X46419D01*
X46433Y427965D01*
X46461Y427972D01*
X46496Y427979D01*
X46546Y427993D01*
X46602Y428007D01*
X46672Y428021D01*
X46757Y428028D01*
X46855Y428042D01*
X46961Y428056D01*
X47080Y428070D01*
X47207Y428084D01*
X47355Y428091D01*
X47509Y428098D01*
X47685Y428105D01*
X47868D01*
X51288D01*
Y429970D01*
D02*
G37*
G36*
X49367Y418227D02*
X44076D01*
X49311D01*
X49268Y418220D01*
X49212D01*
X49156Y418213D01*
X49085Y418206D01*
X49008Y418192D01*
X48846Y418157D01*
X48663Y418108D01*
X48480Y418037D01*
X48305Y417946D01*
X48298Y417939D01*
X48283Y417932D01*
X48262Y417918D01*
X48227Y417890D01*
X48143Y417826D01*
X48037Y417735D01*
X47925Y417622D01*
X47805Y417488D01*
X47685Y417327D01*
X47587Y417144D01*
Y417137D01*
X47573Y417123D01*
X47559Y417087D01*
X47545Y417045D01*
X47524Y416996D01*
X47495Y416933D01*
X47467Y416855D01*
X47439Y416764D01*
X47404Y416665D01*
X47369Y416553D01*
X47334Y416433D01*
X47298Y416299D01*
X47256Y416159D01*
X47221Y416004D01*
X47186Y415835D01*
X47151Y415659D01*
Y415645D01*
X47137Y415603D01*
X47130Y415532D01*
X47108Y415448D01*
X47087Y415342D01*
X47059Y415216D01*
X47031Y415082D01*
X47003Y414941D01*
X46926Y414639D01*
X46848Y414343D01*
X46813Y414203D01*
X46771Y414069D01*
X46729Y413949D01*
X46686Y413844D01*
X46503D01*
X46496D01*
X46482D01*
X46454D01*
X46419Y413851D01*
X46370D01*
X46321Y413858D01*
X46208Y413879D01*
X46081Y413907D01*
X45955Y413956D01*
X45835Y414020D01*
X45786Y414062D01*
X45736Y414111D01*
X45729Y414125D01*
X45715Y414139D01*
X45701Y414168D01*
X45680Y414196D01*
X45666Y414238D01*
X45645Y414280D01*
X45617Y414336D01*
X45596Y414400D01*
X45575Y414477D01*
X45561Y414554D01*
X45539Y414646D01*
X45525Y414752D01*
X45511Y414864D01*
X45504Y414984D01*
Y415202D01*
X45511Y415244D01*
Y415293D01*
X45525Y415399D01*
X45554Y415525D01*
X45589Y415659D01*
X45638Y415786D01*
X45701Y415898D01*
X45708Y415912D01*
X45736Y415941D01*
X45793Y415997D01*
X45863Y416053D01*
X45955Y416124D01*
X46074Y416201D01*
X46222Y416271D01*
X46391Y416342D01*
X46088Y418037D01*
X46074Y418030D01*
X46046Y418023D01*
X45990Y418009D01*
X45919Y417981D01*
X45835Y417953D01*
X45736Y417911D01*
X45631Y417861D01*
X45518Y417812D01*
X45392Y417749D01*
X45272Y417671D01*
X45146Y417594D01*
X45019Y417503D01*
X44899Y417411D01*
X44780Y417299D01*
X44674Y417186D01*
X44576Y417059D01*
X44569Y417052D01*
X44555Y417024D01*
X44526Y416982D01*
X44498Y416926D01*
X44463Y416855D01*
X44421Y416764D01*
X44372Y416658D01*
X44322Y416532D01*
X44280Y416398D01*
X44231Y416243D01*
X44189Y416067D01*
X44153Y415884D01*
X44125Y415680D01*
X44097Y415462D01*
X44083Y415230D01*
X44076Y414977D01*
Y414857D01*
X44083Y414773D01*
Y414667D01*
X44090Y414548D01*
X44097Y414414D01*
X44111Y414273D01*
X44125Y414125D01*
X44146Y413970D01*
X44203Y413661D01*
X44231Y413513D01*
X44273Y413365D01*
X44322Y413232D01*
X44372Y413112D01*
Y413105D01*
X44386Y413084D01*
X44400Y413056D01*
X44428Y413014D01*
X44456Y412964D01*
X44491Y412908D01*
X44576Y412774D01*
X44688Y412634D01*
X44815Y412493D01*
X44963Y412359D01*
X45040Y412303D01*
X45124Y412254D01*
X45131D01*
X45146Y412240D01*
X45174Y412233D01*
X45216Y412212D01*
X45265Y412197D01*
X45335Y412176D01*
X45413Y412148D01*
X45504Y412127D01*
X45610Y412106D01*
X45736Y412078D01*
X45870Y412057D01*
X46025Y412043D01*
X46194Y412022D01*
X46377Y412015D01*
X46581Y412001D01*
X46799D01*
X48973Y412029D01*
X48980D01*
X49015D01*
X49064D01*
X49128D01*
X49205D01*
X49290Y412022D01*
X49388D01*
X49494Y412015D01*
X49719Y412007D01*
X49944Y411993D01*
X50057Y411986D01*
X50162Y411972D01*
X50254Y411958D01*
X50345Y411944D01*
X50352D01*
X50366Y411937D01*
X50387D01*
X50422Y411923D01*
X50465Y411916D01*
X50514Y411902D01*
X50626Y411867D01*
X50767Y411825D01*
X50929Y411761D01*
X51105Y411691D01*
X51288Y411606D01*
D01*
Y413450D01*
X51281D01*
X51253Y413464D01*
X51210Y413478D01*
X51147Y413499D01*
X51070Y413527D01*
X50978Y413562D01*
X50866Y413598D01*
X50739Y413633D01*
X50732D01*
X50711Y413640D01*
X50683Y413647D01*
X50648Y413661D01*
X50577Y413682D01*
X50549Y413689D01*
X50521Y413696D01*
X50528Y413703D01*
X50542Y413717D01*
X50563Y413745D01*
X50598Y413781D01*
X50633Y413823D01*
X50683Y413879D01*
X50732Y413935D01*
X50781Y414006D01*
X50894Y414154D01*
X51013Y414329D01*
X51119Y414519D01*
X51217Y414723D01*
Y414730D01*
X51224Y414744D01*
X51238Y414780D01*
X51253Y414815D01*
X51274Y414871D01*
X51288Y414927D01*
X51309Y414998D01*
X51330Y415068D01*
X51358Y415153D01*
X51379Y415244D01*
X51414Y415441D01*
X51442Y415659D01*
X51449Y415883D01*
Y415934D01*
X51442Y415990D01*
Y416067D01*
X51428Y416159D01*
X51421Y416264D01*
X51400Y416377D01*
X51372Y416510D01*
X51344Y416644D01*
X51302Y416785D01*
X51260Y416926D01*
X51203Y417066D01*
X51133Y417207D01*
X51055Y417348D01*
X50964Y417481D01*
X50858Y417601D01*
X50851Y417608D01*
X50830Y417629D01*
X50795Y417657D01*
X50753Y417700D01*
X50697Y417749D01*
X50626Y417798D01*
X50542Y417854D01*
X50451Y417911D01*
X50345Y417974D01*
X50232Y418030D01*
X50113Y418079D01*
X49979Y418129D01*
X49838Y418171D01*
X49691Y418199D01*
X49529Y418220D01*
X49367Y418227D01*
D02*
G37*
G36*
X39427Y415877D02*
D01*
Y413562D01*
X29689Y415877D01*
Y413865D01*
X36380Y412402D01*
X29689Y410629D01*
Y408286D01*
X36493Y406583D01*
X29689Y405091D01*
Y403107D01*
X39427Y405471D01*
Y403107D01*
X29689D01*
X39427D01*
Y415877D01*
D02*
G37*
G36*
X63296Y414203D02*
X56240D01*
Y412472D01*
X57281D01*
X57267Y412458D01*
X57232Y412430D01*
X57168Y412380D01*
X57091Y412303D01*
X57006Y412212D01*
X56901Y412106D01*
X56795Y411979D01*
X56683Y411832D01*
X56570Y411677D01*
X56465Y411501D01*
X56359Y411304D01*
X56275Y411100D01*
X56197Y410882D01*
X56134Y410650D01*
X56099Y410403D01*
X56085Y410143D01*
Y414203D01*
D01*
Y407765D01*
X63296D01*
Y409629D01*
X59701D01*
X59687D01*
X59652D01*
X59596D01*
X59518D01*
X59427Y409636D01*
X59321D01*
X59209D01*
X59089Y409644D01*
X58843Y409658D01*
X58716Y409672D01*
X58597Y409686D01*
X58484Y409700D01*
X58386Y409714D01*
X58294Y409735D01*
X58224Y409756D01*
X58217D01*
X58210Y409763D01*
X58167Y409777D01*
X58104Y409805D01*
X58034Y409847D01*
X57949Y409904D01*
X57858Y409967D01*
X57780Y410052D01*
X57703Y410143D01*
X57696Y410157D01*
X57675Y410192D01*
X57640Y410249D01*
X57604Y410326D01*
X57576Y410417D01*
X57541Y410530D01*
X57520Y410657D01*
X57513Y410790D01*
Y410840D01*
X57520Y410875D01*
Y410917D01*
X57527Y410966D01*
X57548Y411086D01*
X57576Y411219D01*
X57626Y411367D01*
X57689Y411522D01*
X57780Y411670D01*
Y411677D01*
X57794Y411684D01*
X57808Y411705D01*
X57830Y411733D01*
X57886Y411796D01*
X57970Y411881D01*
X58069Y411965D01*
X58196Y412057D01*
X58336Y412134D01*
X58491Y412197D01*
X58498D01*
X58512Y412205D01*
X58540Y412212D01*
X58575Y412219D01*
X58625Y412233D01*
X58688Y412240D01*
X58765Y412254D01*
X58857Y412268D01*
X58962Y412282D01*
X59075Y412296D01*
X59209Y412303D01*
X59356Y412317D01*
X59518Y412324D01*
X59701Y412331D01*
X59898Y412338D01*
X60109D01*
X63296D01*
Y414203D01*
D02*
G37*
G36*
X51288Y410192D02*
X44076D01*
Y403755D01*
D01*
Y406027D01*
X44083Y405971D01*
X44090Y405908D01*
X44097Y405837D01*
X44104Y405760D01*
X44132Y405584D01*
X44167Y405394D01*
X44224Y405204D01*
X44301Y405007D01*
Y405000D01*
X44308Y404986D01*
X44322Y404958D01*
X44343Y404922D01*
X44365Y404880D01*
X44393Y404831D01*
X44456Y404718D01*
X44540Y404592D01*
X44639Y404465D01*
X44744Y404338D01*
X44871Y404233D01*
X44878D01*
X44885Y404219D01*
X44906Y404205D01*
X44934Y404191D01*
X45005Y404142D01*
X45096Y404085D01*
X45216Y404022D01*
X45342Y403966D01*
X45490Y403909D01*
X45652Y403860D01*
X45659D01*
X45673Y403853D01*
X45694D01*
X45729Y403846D01*
X45779Y403832D01*
X45835Y403825D01*
X45898Y403818D01*
X45976Y403804D01*
X46060Y403797D01*
X46152Y403790D01*
X46257Y403776D01*
X46370Y403769D01*
X46489Y403762D01*
X46623D01*
X46764Y403755D01*
X44076D01*
X51288D01*
Y405619D01*
X47692D01*
X47678D01*
X47643D01*
X47587D01*
X47509D01*
X47418Y405626D01*
X47312D01*
X47200D01*
X47080Y405633D01*
X46834Y405647D01*
X46707Y405661D01*
X46588Y405675D01*
X46475Y405689D01*
X46377Y405704D01*
X46285Y405725D01*
X46215Y405746D01*
X46208D01*
X46201Y405753D01*
X46159Y405767D01*
X46095Y405795D01*
X46025Y405837D01*
X45940Y405893D01*
X45849Y405957D01*
X45772Y406041D01*
X45694Y406133D01*
X45687Y406147D01*
X45666Y406182D01*
X45631Y406238D01*
X45596Y406316D01*
X45568Y406407D01*
X45532Y406520D01*
X45511Y406646D01*
X45504Y406780D01*
Y406829D01*
X45511Y406864D01*
Y406907D01*
X45518Y406956D01*
X45539Y407075D01*
X45568Y407209D01*
X45617Y407357D01*
X45680Y407512D01*
X45772Y407659D01*
Y407666D01*
X45786Y407673D01*
X45800Y407695D01*
X45821Y407723D01*
X45877Y407786D01*
X45962Y407870D01*
X46060Y407955D01*
X46187Y408046D01*
X46328Y408124D01*
X46482Y408187D01*
X46489D01*
X46503Y408194D01*
X46532Y408201D01*
X46567Y408208D01*
X46616Y408222D01*
X46679Y408229D01*
X46757Y408243D01*
X46848Y408257D01*
X46954Y408271D01*
X47066Y408286D01*
X47200Y408293D01*
X47348Y408307D01*
X47509Y408314D01*
X47692Y408321D01*
X47889Y408328D01*
X48101D01*
X51288D01*
Y410192D01*
D02*
G37*
G36*
X51449Y411606D02*
D01*
Y402284D01*
D01*
Y411606D01*
D02*
G37*
G36*
X63472Y401538D02*
Y401503D01*
D01*
Y401538D01*
D02*
G37*
G36*
Y400877D02*
Y400771D01*
D01*
Y400877D01*
D02*
G37*
G36*
Y400631D02*
Y400610D01*
D01*
Y400631D01*
D02*
G37*
G36*
Y400553D02*
Y400539D01*
D01*
Y400553D01*
D02*
G37*
G36*
Y400539D02*
Y400518D01*
D01*
Y400539D01*
D02*
G37*
G36*
X39427Y402115D02*
X29689D01*
Y400251D01*
X31413D01*
Y402115D01*
X32370D01*
Y400251D01*
X39427D01*
Y402115D01*
D02*
G37*
G36*
X63472Y399969D02*
Y399962D01*
D01*
Y399969D01*
D02*
G37*
G36*
Y399941D02*
Y399927D01*
D01*
Y399941D01*
D02*
G37*
G36*
Y399913D02*
Y399871D01*
D01*
Y399913D01*
D02*
G37*
G36*
Y399814D02*
Y399786D01*
D01*
Y399814D01*
D02*
G37*
G36*
Y399737D02*
Y399695D01*
D01*
Y399737D01*
D02*
G37*
G36*
Y399610D02*
Y399589D01*
D01*
Y399610D01*
D02*
G37*
G36*
Y399399D02*
D01*
D01*
D01*
D02*
G37*
G36*
Y398858D02*
Y398837D01*
D01*
Y398858D01*
D02*
G37*
G36*
Y398738D02*
Y398703D01*
D01*
Y398738D01*
D02*
G37*
G36*
X47742Y402284D02*
X47622D01*
X47573Y402277D01*
X47509D01*
X47446Y402270D01*
X47298Y402256D01*
X47123Y402242D01*
X46933Y402214D01*
X46729Y402178D01*
X46510Y402136D01*
X46285Y402080D01*
X46060Y402010D01*
X45835Y401932D01*
X45610Y401834D01*
X45399Y401721D01*
X45195Y401595D01*
X45012Y401447D01*
X44998Y401440D01*
X44970Y401405D01*
X44927Y401362D01*
X44864Y401292D01*
X44794Y401215D01*
X44716Y401109D01*
X44632Y400997D01*
X44540Y400863D01*
X44456Y400715D01*
X44372Y400553D01*
X44294Y400377D01*
X44224Y400187D01*
X44160Y399983D01*
X44118Y399772D01*
X44083Y399547D01*
X44076Y399308D01*
Y399259D01*
X44083Y399195D01*
X44090Y399111D01*
X44104Y399005D01*
X44125Y398886D01*
X44160Y398752D01*
X44196Y398611D01*
X44252Y398450D01*
X44315Y398288D01*
X44393Y398119D01*
X44491Y397943D01*
X44604Y397767D01*
X44737Y397598D01*
X44885Y397429D01*
X45061Y397261D01*
X41550D01*
Y402284D01*
D01*
D01*
Y395396D01*
X51288D01*
Y397127D01*
X50254D01*
X50261Y397134D01*
X50282Y397148D01*
X50310Y397169D01*
X50352Y397204D01*
X50401Y397246D01*
X50458Y397296D01*
X50521Y397352D01*
X50591Y397415D01*
X50739Y397570D01*
X50887Y397746D01*
X51027Y397943D01*
X51098Y398041D01*
X51154Y398154D01*
Y398161D01*
X51168Y398182D01*
X51182Y398210D01*
X51203Y398252D01*
X51224Y398309D01*
X51245Y398372D01*
X51274Y398442D01*
X51302Y398520D01*
X51358Y398696D01*
X51400Y398900D01*
X51435Y399111D01*
X51449Y399336D01*
Y399393D01*
X51442Y399456D01*
X51435Y399540D01*
X51421Y399646D01*
X51400Y399765D01*
X51365Y399906D01*
X51330Y400054D01*
X51274Y400209D01*
X51210Y400377D01*
X51133Y400553D01*
X51034Y400729D01*
X50922Y400905D01*
X50795Y401081D01*
X50640Y401250D01*
X50472Y401419D01*
X50458Y401426D01*
X50429Y401454D01*
X50366Y401496D01*
X50289Y401552D01*
X50190Y401616D01*
X50071Y401693D01*
X49930Y401770D01*
X49761Y401848D01*
X49578Y401932D01*
X49374Y402010D01*
X49149Y402080D01*
X48910Y402150D01*
X48642Y402207D01*
X48361Y402249D01*
X48058Y402277D01*
X47742Y402284D01*
D02*
G37*
G36*
X39427Y399266D02*
D01*
Y396951D01*
X29689Y399266D01*
Y397253D01*
X36380Y395790D01*
X29689Y394017D01*
Y391674D01*
X36493Y389971D01*
X29689Y388480D01*
Y386496D01*
X39427Y388860D01*
Y386496D01*
X29689D01*
X39427D01*
Y399266D01*
D02*
G37*
G36*
X60130Y402580D02*
D01*
X59947Y400666D01*
X59962D01*
X59990Y400659D01*
X60039Y400645D01*
X60102Y400631D01*
X60187Y400610D01*
X60278Y400581D01*
X60377Y400553D01*
X60482Y400518D01*
X60714Y400420D01*
X60834Y400363D01*
X60953Y400300D01*
X61066Y400230D01*
X61172Y400152D01*
X61270Y400061D01*
X61362Y399969D01*
X61369Y399962D01*
X61383Y399941D01*
X61404Y399913D01*
X61432Y399871D01*
X61467Y399822D01*
X61502Y399751D01*
X61544Y399681D01*
X61587Y399589D01*
X61629Y399498D01*
X61671Y399385D01*
X61706Y399273D01*
X61741Y399146D01*
X61770Y399005D01*
X61791Y398858D01*
X61805Y398703D01*
X61812Y398541D01*
Y398450D01*
X61805Y398386D01*
X61798Y398309D01*
X61791Y398217D01*
X61777Y398112D01*
X61763Y398006D01*
X61713Y397774D01*
X61678Y397654D01*
X61643Y397535D01*
X61594Y397422D01*
X61544Y397310D01*
X61481Y397204D01*
X61411Y397113D01*
X61404Y397106D01*
X61390Y397092D01*
X61369Y397071D01*
X61340Y397035D01*
X61298Y397000D01*
X61256Y396958D01*
X61200Y396916D01*
X61143Y396866D01*
X61003Y396782D01*
X60848Y396705D01*
X60757Y396670D01*
X60672Y396648D01*
X60574Y396634D01*
X60475Y396627D01*
X60468D01*
X60461D01*
X60419D01*
X60356Y396634D01*
X60271Y396655D01*
X60180Y396676D01*
X60081Y396712D01*
X59983Y396761D01*
X59891Y396831D01*
X59877Y396838D01*
X59849Y396874D01*
X59807Y396923D01*
X59743Y396993D01*
X59680Y397092D01*
X59603Y397218D01*
X59532Y397366D01*
X59497Y397450D01*
X59462Y397542D01*
Y397549D01*
X59455Y397556D01*
X59448Y397584D01*
X59441Y397612D01*
X59427Y397662D01*
X59406Y397718D01*
X59384Y397788D01*
X59363Y397866D01*
X59335Y397964D01*
X59307Y398077D01*
X59272Y398203D01*
X59230Y398351D01*
X59187Y398513D01*
X59145Y398696D01*
X59096Y398900D01*
X59040Y399118D01*
Y399125D01*
X59033Y399139D01*
Y399160D01*
X59019Y399188D01*
X59012Y399224D01*
X58998Y399266D01*
X58969Y399371D01*
X58934Y399505D01*
X58885Y399653D01*
X58829Y399814D01*
X58772Y399983D01*
X58702Y400166D01*
X58632Y400349D01*
X58554Y400539D01*
X58470Y400715D01*
X58378Y400891D01*
X58280Y401053D01*
X58181Y401200D01*
X58076Y401334D01*
X58069Y401341D01*
X58041Y401369D01*
X57991Y401419D01*
X57935Y401475D01*
X57858Y401538D01*
X57759Y401616D01*
X57654Y401700D01*
X57527Y401777D01*
X57393Y401862D01*
X57246Y401946D01*
X57084Y402024D01*
X56915Y402087D01*
X56732Y402143D01*
X56535Y402193D01*
X56331Y402221D01*
X56120Y402228D01*
X56113D01*
X56085D01*
X56050D01*
X55993Y402221D01*
X55930Y402214D01*
X55853Y402207D01*
X55761Y402193D01*
X55663Y402178D01*
X55564Y402150D01*
X55451Y402129D01*
X55339Y402094D01*
X55219Y402052D01*
X55093Y402003D01*
X54973Y401946D01*
X54846Y401883D01*
X54727Y401813D01*
X54720Y401806D01*
X54699Y401792D01*
X54664Y401770D01*
X54621Y401735D01*
X54565Y401693D01*
X54502Y401637D01*
X54438Y401573D01*
X54361Y401503D01*
X54284Y401419D01*
X54199Y401327D01*
X54122Y401229D01*
X54037Y401123D01*
X53960Y401003D01*
X53882Y400877D01*
X53805Y400743D01*
X53742Y400596D01*
X53735Y400588D01*
X53728Y400560D01*
X53707Y400511D01*
X53685Y400455D01*
X53664Y400377D01*
X53629Y400286D01*
X53601Y400180D01*
X53566Y400061D01*
X53538Y399927D01*
X53503Y399779D01*
X53474Y399624D01*
X53453Y399456D01*
X53425Y399273D01*
X53411Y399083D01*
X53404Y398886D01*
X53397Y398682D01*
Y402580D01*
D01*
Y398555D01*
X53404Y398506D01*
Y398450D01*
X53411Y398379D01*
X53418Y398224D01*
X53439Y398049D01*
X53467Y397859D01*
X53496Y397648D01*
X53538Y397429D01*
X53594Y397204D01*
X53657Y396972D01*
X53735Y396740D01*
X53833Y396522D01*
X53939Y396304D01*
X54065Y396107D01*
X54206Y395924D01*
X54213Y395910D01*
X54241Y395882D01*
X54291Y395839D01*
X54354Y395776D01*
X54431Y395706D01*
X54530Y395628D01*
X54642Y395544D01*
X54776Y395452D01*
X54917Y395361D01*
X55079Y395276D01*
X55255Y395192D01*
X55444Y395122D01*
X55648Y395051D01*
X55867Y395002D01*
X56099Y394967D01*
X56345Y394946D01*
X56430Y396909D01*
X56423D01*
X56394Y396916D01*
X56359Y396923D01*
X56310Y396937D01*
X56247Y396951D01*
X56176Y396972D01*
X56099Y396993D01*
X56014Y397021D01*
X55838Y397099D01*
X55663Y397190D01*
X55494Y397310D01*
X55416Y397373D01*
X55353Y397450D01*
X55346Y397458D01*
X55339Y397472D01*
X55325Y397493D01*
X55304Y397528D01*
X55276Y397570D01*
X55248Y397626D01*
X55219Y397690D01*
X55184Y397760D01*
X55156Y397845D01*
X55128Y397936D01*
X55100Y398041D01*
X55072Y398154D01*
X55051Y398274D01*
X55036Y398400D01*
X55022Y398548D01*
Y398780D01*
X55029Y398837D01*
X55036Y398907D01*
X55044Y398991D01*
X55051Y399083D01*
X55065Y399188D01*
X55107Y399399D01*
X55170Y399624D01*
X55212Y399737D01*
X55262Y399843D01*
X55318Y399941D01*
X55381Y400040D01*
X55388Y400054D01*
X55423Y400089D01*
X55473Y400138D01*
X55543Y400194D01*
X55627Y400251D01*
X55726Y400300D01*
X55845Y400335D01*
X55909Y400342D01*
X55979Y400349D01*
X55986D01*
X55993D01*
X56035Y400342D01*
X56099Y400335D01*
X56183Y400314D01*
X56275Y400279D01*
X56373Y400230D01*
X56472Y400159D01*
X56570Y400061D01*
Y400054D01*
X56584Y400040D01*
X56598Y400019D01*
X56627Y399976D01*
X56655Y399927D01*
X56690Y399864D01*
X56725Y399786D01*
X56767Y399695D01*
X56817Y399582D01*
X56866Y399456D01*
X56922Y399308D01*
X56978Y399139D01*
X57042Y398949D01*
X57098Y398745D01*
X57161Y398506D01*
X57224Y398252D01*
Y398246D01*
X57232Y398238D01*
Y398217D01*
X57239Y398189D01*
X57260Y398119D01*
X57281Y398020D01*
X57316Y397901D01*
X57351Y397760D01*
X57393Y397612D01*
X57436Y397450D01*
X57492Y397282D01*
X57541Y397106D01*
X57661Y396754D01*
X57724Y396585D01*
X57794Y396423D01*
X57858Y396268D01*
X57928Y396135D01*
X57935Y396128D01*
X57942Y396107D01*
X57963Y396071D01*
X57991Y396022D01*
X58034Y395966D01*
X58076Y395896D01*
X58125Y395825D01*
X58189Y395741D01*
X58252Y395656D01*
X58329Y395572D01*
X58407Y395480D01*
X58498Y395389D01*
X58695Y395213D01*
X58808Y395136D01*
X58920Y395058D01*
X58927Y395051D01*
X58948Y395044D01*
X58983Y395023D01*
X59033Y394995D01*
X59096Y394967D01*
X59166Y394932D01*
X59251Y394897D01*
X59349Y394861D01*
X59455Y394826D01*
X59574Y394791D01*
X59701Y394756D01*
X59835Y394728D01*
X59983Y394700D01*
X60137Y394678D01*
X60299Y394671D01*
X60468Y394664D01*
X53397D01*
D01*
X63472D01*
Y398689D01*
X63465Y398738D01*
Y398801D01*
X63458Y398865D01*
X63444Y399019D01*
X63430Y399202D01*
X63402Y399399D01*
X63367Y399610D01*
X63318Y399836D01*
X63261Y400068D01*
X63198Y400307D01*
X63113Y400539D01*
X63015Y400771D01*
X62902Y400997D01*
X62769Y401208D01*
X62621Y401405D01*
X62614Y401419D01*
X62579Y401447D01*
X62530Y401496D01*
X62459Y401559D01*
X62375Y401637D01*
X62262Y401728D01*
X62136Y401820D01*
X61988Y401918D01*
X61826Y402024D01*
X61636Y402122D01*
X61432Y402221D01*
X61214Y402312D01*
X60968Y402404D01*
X60707Y402474D01*
X60426Y402537D01*
X60130Y402580D01*
D02*
G37*
G36*
X51449Y395396D02*
D01*
Y393989D01*
D01*
Y395396D01*
D02*
G37*
G36*
X57724Y393799D02*
X56240D01*
Y392940D01*
X54839D01*
X53742Y391076D01*
Y393799D01*
D01*
Y389648D01*
X63458D01*
D01*
X53742D01*
Y391076D01*
X56240D01*
Y389803D01*
X57724D01*
Y391076D01*
X60574D01*
X60581D01*
X60609D01*
X60651D01*
X60714D01*
X60778D01*
X60855D01*
X61024Y391069D01*
X61200D01*
X61284Y391062D01*
X61369D01*
X61439Y391055D01*
X61502D01*
X61552Y391048D01*
X61587Y391041D01*
X61594D01*
X61608Y391034D01*
X61636Y391020D01*
X61671Y391006D01*
X61706Y390985D01*
X61741Y390956D01*
X61784Y390921D01*
X61819Y390879D01*
X61826Y390872D01*
X61833Y390858D01*
X61847Y390830D01*
X61861Y390788D01*
X61882Y390745D01*
X61896Y390689D01*
X61903Y390626D01*
X61910Y390562D01*
Y390513D01*
X61903Y390457D01*
X61889Y390372D01*
X61868Y390267D01*
X61833Y390133D01*
X61791Y389986D01*
X61734Y389810D01*
X63184Y389648D01*
Y389655D01*
X63198Y389676D01*
X63212Y389711D01*
X63226Y389760D01*
X63247Y389824D01*
X63268Y389901D01*
X63296Y389986D01*
X63318Y390077D01*
X63346Y390182D01*
X63374Y390295D01*
X63395Y390415D01*
X63416Y390548D01*
X63444Y390823D01*
X63458Y391125D01*
Y391210D01*
X63451Y391252D01*
Y391301D01*
X63437Y391428D01*
X63416Y391568D01*
X63388Y391716D01*
X63346Y391878D01*
X63289Y392033D01*
Y392040D01*
X63282Y392047D01*
X63275Y392068D01*
X63261Y392096D01*
X63219Y392167D01*
X63170Y392258D01*
X63106Y392356D01*
X63036Y392448D01*
X62952Y392547D01*
X62853Y392624D01*
X62839Y392631D01*
X62804Y392652D01*
X62741Y392687D01*
X62663Y392729D01*
X62558Y392772D01*
X62431Y392814D01*
X62283Y392856D01*
X62122Y392884D01*
X62114D01*
X62107D01*
X62086Y392891D01*
X62058D01*
X62016Y392898D01*
X61967D01*
X61903Y392905D01*
X61833Y392912D01*
X61756Y392919D01*
X61657D01*
X61552Y392926D01*
X61432Y392934D01*
X61298D01*
X61143Y392940D01*
X60982D01*
X60806D01*
X57724D01*
Y393799D01*
D02*
G37*
G36*
X47664Y393989D02*
X47573D01*
X47502Y393982D01*
X47425Y393975D01*
X47327Y393968D01*
X47214Y393954D01*
X47094Y393933D01*
X46961Y393904D01*
X46820Y393876D01*
X46672Y393841D01*
X46518Y393799D01*
X46356Y393743D01*
X46194Y393679D01*
X46032Y393609D01*
X45870Y393531D01*
X45863Y393525D01*
X45835Y393510D01*
X45786Y393482D01*
X45729Y393447D01*
X45652Y393398D01*
X45568Y393342D01*
X45476Y393278D01*
X45378Y393201D01*
X45272Y393109D01*
X45160Y393011D01*
X45054Y392905D01*
X44941Y392793D01*
X44836Y392666D01*
X44730Y392532D01*
X44632Y392392D01*
X44540Y392237D01*
X44533Y392230D01*
X44519Y392202D01*
X44498Y392152D01*
X44470Y392089D01*
X44435Y392012D01*
X44393Y391913D01*
X44350Y391808D01*
X44308Y391688D01*
X44266Y391554D01*
X44224Y391407D01*
X44182Y391252D01*
X44146Y391090D01*
X44118Y390914D01*
X44097Y390738D01*
X44083Y390548D01*
X44076Y390358D01*
Y393989D01*
D01*
D01*
Y386707D01*
D01*
Y390288D01*
X44083Y390246D01*
Y390204D01*
X44090Y390091D01*
X44104Y389957D01*
X44132Y389795D01*
X44160Y389620D01*
X44203Y389430D01*
X44259Y389226D01*
X44329Y389015D01*
X44414Y388796D01*
X44512Y388571D01*
X44632Y388353D01*
X44773Y388142D01*
X44934Y387931D01*
X45117Y387734D01*
X45131Y387720D01*
X45167Y387692D01*
X45223Y387635D01*
X45307Y387572D01*
X45406Y387495D01*
X45532Y387410D01*
X45673Y387319D01*
X45835Y387220D01*
X46018Y387122D01*
X46215Y387030D01*
X46433Y386946D01*
X46665Y386869D01*
X46919Y386798D01*
X47179Y386749D01*
X47460Y386721D01*
X47749Y386707D01*
X51449D01*
Y360801D01*
X44076D01*
Y354180D01*
D01*
Y357431D01*
X44083Y357346D01*
Y357241D01*
X44090Y357121D01*
X44097Y356988D01*
X44111Y356847D01*
X44125Y356699D01*
X44146Y356544D01*
X44203Y356235D01*
X44231Y356087D01*
X44273Y355939D01*
X44322Y355806D01*
X44372Y355686D01*
Y355679D01*
X44386Y355658D01*
X44400Y355630D01*
X44428Y355588D01*
X44456Y355538D01*
X44491Y355482D01*
X44576Y355348D01*
X44688Y355207D01*
X44815Y355067D01*
X44963Y354933D01*
X45040Y354877D01*
X45124Y354828D01*
X45131D01*
X45146Y354813D01*
X45174Y354807D01*
X45216Y354785D01*
X45265Y354771D01*
X45335Y354750D01*
X45413Y354722D01*
X45504Y354701D01*
X45610Y354680D01*
X45736Y354652D01*
X45870Y354631D01*
X46025Y354617D01*
X46194Y354595D01*
X46377Y354588D01*
X46581Y354574D01*
X46799D01*
X48973Y354602D01*
X48980D01*
X49015D01*
X49064D01*
X49128D01*
X49205D01*
X49290Y354595D01*
X49388D01*
X49494Y354588D01*
X49719Y354581D01*
X49944Y354567D01*
X50057Y354560D01*
X50162Y354546D01*
X50254Y354532D01*
X50345Y354518D01*
X50352D01*
X50366Y354511D01*
X50387D01*
X50422Y354497D01*
X50465Y354490D01*
X50514Y354476D01*
X50626Y354441D01*
X50767Y354398D01*
X50929Y354335D01*
X51105Y354265D01*
X51288Y354180D01*
X44076D01*
X51449D01*
Y349516D01*
D01*
Y354180D01*
X51288D01*
Y356024D01*
X51281D01*
X51253Y356038D01*
X51210Y356052D01*
X51147Y356073D01*
X51070Y356101D01*
X50978Y356136D01*
X50866Y356171D01*
X50739Y356207D01*
X50732D01*
X50711Y356214D01*
X50683Y356221D01*
X50648Y356235D01*
X50577Y356256D01*
X50549Y356263D01*
X50521Y356270D01*
X50528Y356277D01*
X50542Y356291D01*
X50563Y356319D01*
X50598Y356354D01*
X50633Y356397D01*
X50683Y356453D01*
X50732Y356509D01*
X50781Y356580D01*
X50894Y356727D01*
X51013Y356903D01*
X51119Y357093D01*
X51217Y357297D01*
Y357304D01*
X51224Y357318D01*
X51238Y357353D01*
X51253Y357389D01*
X51274Y357445D01*
X51288Y357501D01*
X51309Y357571D01*
X51330Y357642D01*
X51358Y357726D01*
X51379Y357818D01*
X51414Y358015D01*
X51442Y358233D01*
X51449Y358457D01*
Y358507D01*
X51442Y358564D01*
Y358641D01*
X51428Y358732D01*
X51421Y358838D01*
X51400Y358951D01*
X51372Y359084D01*
X51344Y359218D01*
X51302Y359359D01*
X51260Y359499D01*
X51203Y359640D01*
X51133Y359781D01*
X51055Y359921D01*
X50964Y360055D01*
X50858Y360175D01*
X50851Y360182D01*
X50830Y360203D01*
X50795Y360231D01*
X50753Y360273D01*
X50697Y360322D01*
X50626Y360372D01*
X50542Y360428D01*
X50451Y360484D01*
X50345Y360548D01*
X50232Y360604D01*
X50113Y360653D01*
X49979Y360703D01*
X49838Y360745D01*
X49691Y360773D01*
X49529Y360794D01*
X49367Y360801D01*
X51449D01*
Y386707D01*
X47819D01*
X47854Y386714D01*
X47903D01*
X48016Y386721D01*
X48150Y386735D01*
X48312Y386763D01*
X48488Y386791D01*
X48677Y386833D01*
X48882Y386890D01*
X49100Y386960D01*
X49318Y387044D01*
X49543Y387143D01*
X49761Y387263D01*
X49986Y387396D01*
X50197Y387558D01*
X50401Y387741D01*
X50415Y387755D01*
X50443Y387790D01*
X50500Y387847D01*
X50563Y387924D01*
X50648Y388030D01*
X50732Y388149D01*
X50830Y388290D01*
X50922Y388452D01*
X51020Y388635D01*
X51119Y388832D01*
X51203Y389043D01*
X51288Y389275D01*
X51351Y389521D01*
X51407Y389781D01*
X51435Y390056D01*
X51449Y390344D01*
Y390443D01*
X51442Y390506D01*
X51435Y390598D01*
X51428Y390696D01*
X51414Y390816D01*
X51393Y390942D01*
X51372Y391076D01*
X51344Y391224D01*
X51309Y391379D01*
X51267Y391533D01*
X51217Y391695D01*
X51154Y391864D01*
X51091Y392026D01*
X51013Y392195D01*
X51006Y392202D01*
X50992Y392230D01*
X50964Y392279D01*
X50929Y392342D01*
X50887Y392413D01*
X50830Y392497D01*
X50767Y392589D01*
X50690Y392694D01*
X50605Y392800D01*
X50507Y392905D01*
X50401Y393018D01*
X50289Y393130D01*
X50162Y393236D01*
X50028Y393342D01*
X49888Y393440D01*
X49733Y393531D01*
X49726Y393539D01*
X49691Y393553D01*
X49648Y393574D01*
X49578Y393602D01*
X49501Y393637D01*
X49402Y393679D01*
X49282Y393714D01*
X49156Y393757D01*
X49008Y393806D01*
X48853Y393841D01*
X48685Y393883D01*
X48502Y393918D01*
X48305Y393947D01*
X48101Y393968D01*
X47889Y393982D01*
X47664Y393989D01*
D02*
G37*
G36*
X39427Y385504D02*
X29689D01*
Y383639D01*
X31413D01*
Y385504D01*
X32370D01*
Y383639D01*
X39427D01*
Y385504D01*
D02*
G37*
G36*
X60285Y385462D02*
D01*
X60074Y383611D01*
X60081D01*
X60109D01*
X60151Y383604D01*
X60208D01*
X60278Y383597D01*
X60363Y383590D01*
X60447Y383583D01*
X60538Y383569D01*
X60735Y383541D01*
X60932Y383498D01*
X61024Y383470D01*
X61115Y383442D01*
X61193Y383407D01*
X61263Y383372D01*
X61270Y383365D01*
X61284Y383358D01*
X61312Y383337D01*
X61347Y383308D01*
X61383Y383273D01*
X61425Y383238D01*
X61474Y383189D01*
X61523Y383126D01*
X61573Y383062D01*
X61622Y382992D01*
X61664Y382915D01*
X61699Y382823D01*
X61734Y382732D01*
X61763Y382626D01*
X61777Y382520D01*
X61784Y382401D01*
Y382338D01*
X61777Y382295D01*
X61770Y382239D01*
X61763Y382176D01*
X61734Y382042D01*
X61692Y381887D01*
X61629Y381732D01*
X61587Y381662D01*
X61530Y381592D01*
X61474Y381528D01*
X61411Y381472D01*
X61404D01*
X61390Y381458D01*
X61369Y381444D01*
X61333Y381430D01*
X61291Y381409D01*
X61228Y381388D01*
X61158Y381360D01*
X61073Y381331D01*
X60982Y381310D01*
X60869Y381282D01*
X60742Y381261D01*
X60595Y381240D01*
X60440Y381226D01*
X60264Y381212D01*
X60067Y381198D01*
X59856D01*
X53559D01*
Y385462D01*
D01*
Y379235D01*
X63465D01*
D01*
X59926D01*
X60032Y379242D01*
X60144Y379249D01*
X60278Y379256D01*
X60412Y379263D01*
X60560Y379270D01*
X60714Y379291D01*
X61024Y379326D01*
X61172Y379354D01*
X61319Y379383D01*
X61460Y379418D01*
X61587Y379453D01*
X61594D01*
X61622Y379467D01*
X61671Y379481D01*
X61727Y379509D01*
X61798Y379544D01*
X61882Y379580D01*
X61974Y379629D01*
X62079Y379685D01*
X62185Y379755D01*
X62297Y379826D01*
X62410Y379910D01*
X62523Y380009D01*
X62635Y380114D01*
X62748Y380227D01*
X62853Y380354D01*
X62952Y380487D01*
X62959Y380494D01*
X62973Y380522D01*
X63001Y380564D01*
X63029Y380621D01*
X63071Y380698D01*
X63113Y380790D01*
X63163Y380895D01*
X63205Y381015D01*
X63254Y381148D01*
X63303Y381296D01*
X63346Y381458D01*
X63388Y381634D01*
X63416Y381824D01*
X63444Y382028D01*
X63458Y382239D01*
X63465Y382464D01*
Y382528D01*
X63458Y382605D01*
X63451Y382703D01*
X63437Y382823D01*
X63423Y382964D01*
X63395Y383119D01*
X63367Y383280D01*
X63325Y383456D01*
X63268Y383639D01*
X63205Y383822D01*
X63128Y384012D01*
X63036Y384195D01*
X62931Y384371D01*
X62804Y384533D01*
X62663Y384688D01*
X62656Y384695D01*
X62628Y384723D01*
X62579Y384758D01*
X62516Y384807D01*
X62424Y384863D01*
X62326Y384934D01*
X62206Y385004D01*
X62065Y385075D01*
X61903Y385145D01*
X61727Y385215D01*
X61530Y385279D01*
X61319Y385342D01*
X61087Y385391D01*
X60841Y385426D01*
X60574Y385454D01*
X60285Y385462D01*
D02*
G37*
G36*
X39427Y378925D02*
D01*
Y375449D01*
X29689Y378925D01*
Y376800D01*
X36894Y374331D01*
X29689Y371953D01*
Y369863D01*
X39427Y373332D01*
Y369863D01*
X29689D01*
X39427D01*
Y378925D01*
D02*
G37*
G36*
X63458Y377645D02*
D01*
Y375351D01*
X63451Y375407D01*
Y375485D01*
X63437Y375576D01*
X63430Y375682D01*
X63409Y375794D01*
X63381Y375928D01*
X63353Y376062D01*
X63310Y376202D01*
X63268Y376343D01*
X63212Y376484D01*
X63142Y376624D01*
X63064Y376765D01*
X62973Y376899D01*
X62867Y377019D01*
X62860Y377025D01*
X62839Y377047D01*
X62804Y377075D01*
X62762Y377117D01*
X62705Y377166D01*
X62635Y377215D01*
X62551Y377272D01*
X62459Y377328D01*
X62354Y377391D01*
X62241Y377448D01*
X62122Y377497D01*
X61988Y377546D01*
X61847Y377588D01*
X61699Y377617D01*
X61537Y377638D01*
X61376Y377645D01*
X61319D01*
X61277Y377638D01*
X61221D01*
X61165Y377631D01*
X61094Y377624D01*
X61017Y377609D01*
X60855Y377574D01*
X60672Y377525D01*
X60489Y377455D01*
X60313Y377363D01*
X60306Y377356D01*
X60292Y377349D01*
X60271Y377335D01*
X60236Y377307D01*
X60151Y377244D01*
X60046Y377152D01*
X59933Y377040D01*
X59814Y376906D01*
X59694Y376744D01*
X59596Y376561D01*
Y376554D01*
X59581Y376540D01*
X59567Y376505D01*
X59553Y376463D01*
X59532Y376413D01*
X59504Y376350D01*
X59476Y376273D01*
X59448Y376181D01*
X59413Y376083D01*
X59377Y375970D01*
X59342Y375851D01*
X59307Y375717D01*
X59265Y375576D01*
X59230Y375421D01*
X59195Y375252D01*
X59159Y375077D01*
Y375062D01*
X59145Y375020D01*
X59138Y374950D01*
X59117Y374865D01*
X59096Y374760D01*
X59068Y374633D01*
X59040Y374500D01*
X59012Y374359D01*
X58934Y374056D01*
X58857Y373761D01*
X58822Y373620D01*
X58780Y373487D01*
X58737Y373367D01*
X58695Y373261D01*
X58512D01*
X58505D01*
X58491D01*
X58463D01*
X58428Y373268D01*
X58378D01*
X58329Y373275D01*
X58217Y373297D01*
X58090Y373325D01*
X57963Y373374D01*
X57844Y373437D01*
X57794Y373479D01*
X57745Y373529D01*
X57738Y373543D01*
X57724Y373557D01*
X57710Y373585D01*
X57689Y373613D01*
X57675Y373655D01*
X57654Y373698D01*
X57626Y373754D01*
X57604Y373817D01*
X57583Y373895D01*
X57569Y373972D01*
X57548Y374063D01*
X57534Y374169D01*
X57520Y374282D01*
X57513Y374401D01*
Y374619D01*
X57520Y374661D01*
Y374711D01*
X57534Y374816D01*
X57562Y374943D01*
X57597Y375077D01*
X57647Y375203D01*
X57710Y375316D01*
X57717Y375330D01*
X57745Y375358D01*
X57801Y375414D01*
X57872Y375471D01*
X57963Y375541D01*
X58083Y375618D01*
X58231Y375689D01*
X58400Y375759D01*
X58097Y377455D01*
X58083Y377448D01*
X58055Y377441D01*
X57998Y377427D01*
X57928Y377398D01*
X57844Y377370D01*
X57745Y377328D01*
X57640Y377279D01*
X57527Y377230D01*
X57400Y377166D01*
X57281Y377089D01*
X57154Y377011D01*
X57028Y376920D01*
X56908Y376828D01*
X56788Y376716D01*
X56683Y376603D01*
X56584Y376477D01*
X56577Y376470D01*
X56563Y376442D01*
X56535Y376399D01*
X56507Y376343D01*
X56472Y376273D01*
X56430Y376181D01*
X56380Y376076D01*
X56331Y375949D01*
X56289Y375815D01*
X56240Y375661D01*
X56197Y375485D01*
X56162Y375302D01*
X56134Y375098D01*
X56106Y374880D01*
X56092Y374647D01*
X56085Y374394D01*
Y374274D01*
X56092Y374190D01*
Y374085D01*
X56099Y373965D01*
X56106Y373831D01*
X56120Y373691D01*
X56134Y373543D01*
X56155Y373388D01*
X56211Y373078D01*
X56240Y372931D01*
X56282Y372783D01*
X56331Y372649D01*
X56380Y372530D01*
Y372523D01*
X56394Y372501D01*
X56408Y372473D01*
X56437Y372431D01*
X56465Y372382D01*
X56500Y372326D01*
X56584Y372192D01*
X56697Y372051D01*
X56824Y371911D01*
X56971Y371777D01*
X57049Y371721D01*
X57133Y371671D01*
X57140D01*
X57154Y371657D01*
X57182Y371650D01*
X57224Y371629D01*
X57274Y371615D01*
X57344Y371594D01*
X57422Y371566D01*
X57513Y371545D01*
X57619Y371524D01*
X57745Y371495D01*
X57879Y371474D01*
X58034Y371460D01*
X58203Y371439D01*
X58386Y371432D01*
X58590Y371418D01*
X58808D01*
X60982Y371446D01*
X60989D01*
X61024D01*
X61073D01*
X61136D01*
X61214D01*
X61298Y371439D01*
X61397D01*
X61502Y371432D01*
X61727Y371425D01*
X61953Y371411D01*
X62065Y371404D01*
X62171Y371390D01*
X62262Y371376D01*
X62354Y371362D01*
X62361D01*
X62375Y371355D01*
X62396D01*
X62431Y371341D01*
X62473Y371334D01*
X62523Y371320D01*
X62635Y371284D01*
X62776Y371242D01*
X62938Y371179D01*
X63113Y371108D01*
X63296Y371024D01*
X56085D01*
D01*
X63458D01*
Y377645D01*
D02*
G37*
G36*
X51288Y381451D02*
X41550D01*
Y374000D01*
D01*
Y378018D01*
X41557Y377870D01*
Y377708D01*
X41564Y377532D01*
X41571Y377342D01*
X41585Y376948D01*
X41599Y376751D01*
X41613Y376561D01*
X41628Y376385D01*
X41649Y376223D01*
X41670Y376083D01*
X41684Y376026D01*
X41698Y375970D01*
Y375963D01*
X41712Y375935D01*
X41726Y375886D01*
X41740Y375829D01*
X41768Y375759D01*
X41803Y375675D01*
X41846Y375583D01*
X41902Y375478D01*
X41958Y375372D01*
X42029Y375260D01*
X42106Y375147D01*
X42190Y375027D01*
X42289Y374908D01*
X42401Y374788D01*
X42521Y374676D01*
X42655Y374570D01*
X42662Y374563D01*
X42690Y374542D01*
X42732Y374514D01*
X42789Y374479D01*
X42859Y374436D01*
X42950Y374387D01*
X43049Y374338D01*
X43168Y374282D01*
X43295Y374232D01*
X43436Y374183D01*
X43591Y374134D01*
X43759Y374092D01*
X43942Y374049D01*
X44132Y374021D01*
X44336Y374007D01*
X44547Y374000D01*
X51288D01*
X44632D01*
X44695Y374007D01*
X44773D01*
X44864Y374014D01*
X44963Y374028D01*
X45075Y374042D01*
X45188Y374056D01*
X45314Y374077D01*
X45568Y374141D01*
X45821Y374218D01*
X45940Y374274D01*
X46060Y374331D01*
X46067Y374338D01*
X46088Y374345D01*
X46116Y374366D01*
X46159Y374387D01*
X46208Y374422D01*
X46271Y374458D01*
X46405Y374556D01*
X46560Y374676D01*
X46722Y374816D01*
X46876Y374978D01*
X47017Y375154D01*
X47024Y375161D01*
X47031Y375175D01*
X47052Y375203D01*
X47073Y375238D01*
X47101Y375288D01*
X47137Y375337D01*
X47172Y375400D01*
X47207Y375471D01*
X47284Y375625D01*
X47362Y375794D01*
X47432Y375977D01*
X47481Y376174D01*
Y376181D01*
X47488Y376209D01*
X47495Y376245D01*
X47502Y376308D01*
X47509Y376378D01*
X47524Y376470D01*
X47538Y376568D01*
X47545Y376695D01*
X47559Y376828D01*
X47573Y376976D01*
X47587Y377145D01*
X47594Y377328D01*
X47601Y377525D01*
X47608Y377736D01*
X47615Y377968D01*
Y379488D01*
X51288D01*
Y381451D01*
D02*
G37*
G36*
X44547Y374000D02*
X41550D01*
X44547D01*
D01*
D02*
G37*
G36*
X51288Y372396D02*
X41550D01*
Y370532D01*
X43274D01*
Y372396D01*
X44231D01*
Y370532D01*
X51288D01*
Y372396D01*
D02*
G37*
G36*
X39427Y368780D02*
D01*
Y366366D01*
X32398D01*
X32412Y366380D01*
X32440Y366415D01*
X32490Y366472D01*
X32553Y366549D01*
X32630Y366648D01*
X32722Y366767D01*
X32827Y366901D01*
X32933Y367056D01*
X33045Y367225D01*
X33165Y367408D01*
X33284Y367605D01*
X33397Y367816D01*
X33510Y368041D01*
X33622Y368280D01*
X33721Y368526D01*
X33812Y368780D01*
X39427D01*
X32117D01*
Y368773D01*
X32102Y368744D01*
X32088Y368709D01*
X32067Y368653D01*
X32039Y368583D01*
X32011Y368505D01*
X31969Y368414D01*
X31920Y368308D01*
X31856Y368196D01*
X31793Y368076D01*
X31723Y367942D01*
X31638Y367809D01*
X31547Y367661D01*
X31448Y367513D01*
X31336Y367358D01*
X31216Y367197D01*
X31209Y367189D01*
X31188Y367161D01*
X31146Y367112D01*
X31096Y367056D01*
X31033Y366985D01*
X30956Y366908D01*
X30871Y366824D01*
X30773Y366725D01*
X30660Y366634D01*
X30541Y366535D01*
X30414Y366437D01*
X30273Y366338D01*
X30133Y366247D01*
X29978Y366162D01*
X29816Y366085D01*
X29654Y366021D01*
Y364502D01*
X39427D01*
Y368780D01*
D02*
G37*
G36*
X63296Y369729D02*
X56240D01*
Y368013D01*
X57203D01*
X57189Y367999D01*
X57154Y367971D01*
X57098Y367921D01*
X57028Y367851D01*
X56943Y367759D01*
X56852Y367654D01*
X56746Y367534D01*
X56641Y367393D01*
X56542Y367239D01*
X56437Y367070D01*
X56345Y366894D01*
X56261Y366697D01*
X56190Y366493D01*
X56134Y366275D01*
X56099Y366050D01*
X56085Y365817D01*
Y369729D01*
D01*
Y359359D01*
X63296D01*
Y361223D01*
X59272D01*
X59258D01*
X59223D01*
X59173D01*
X59103D01*
X59019Y361230D01*
X58927D01*
X58822Y361237D01*
X58709Y361244D01*
X58477Y361272D01*
X58259Y361308D01*
X58153Y361329D01*
X58062Y361357D01*
X57977Y361385D01*
X57914Y361420D01*
X57907D01*
X57900Y361434D01*
X57879Y361448D01*
X57851Y361469D01*
X57787Y361533D01*
X57710Y361617D01*
X57640Y361730D01*
X57576Y361863D01*
X57548Y361941D01*
X57527Y362025D01*
X57520Y362117D01*
X57513Y362215D01*
Y362279D01*
X57527Y362356D01*
X57541Y362454D01*
X57569Y362567D01*
X57611Y362694D01*
X57675Y362820D01*
X57752Y362954D01*
Y362961D01*
X57766Y362968D01*
X57794Y363010D01*
X57851Y363074D01*
X57928Y363144D01*
X58027Y363228D01*
X58146Y363313D01*
X58294Y363390D01*
X58456Y363453D01*
X58463D01*
X58477Y363461D01*
X58505Y363467D01*
X58540Y363475D01*
X58597Y363489D01*
X58653Y363503D01*
X58730Y363517D01*
X58815Y363524D01*
X58906Y363538D01*
X59019Y363552D01*
X59131Y363566D01*
X59265Y363580D01*
X59413Y363587D01*
X59567Y363594D01*
X59729Y363601D01*
X59912D01*
X63296D01*
Y365466D01*
X59434D01*
X59420D01*
X59392D01*
X59335D01*
X59265D01*
X59187D01*
X59096Y365473D01*
X58991D01*
X58885Y365480D01*
X58660Y365494D01*
X58442Y365508D01*
X58343Y365522D01*
X58252Y365536D01*
X58174Y365550D01*
X58111Y365571D01*
X58104D01*
X58097Y365578D01*
X58062Y365592D01*
X58005Y365614D01*
X57942Y365649D01*
X57865Y365691D01*
X57794Y365740D01*
X57724Y365803D01*
X57661Y365881D01*
X57654Y365888D01*
X57640Y365916D01*
X57611Y365965D01*
X57583Y366029D01*
X57562Y366106D01*
X57534Y366204D01*
X57520Y366317D01*
X57513Y366444D01*
Y366514D01*
X57520Y366556D01*
X57527Y366599D01*
X57541Y366704D01*
X57569Y366824D01*
X57611Y366957D01*
X57675Y367091D01*
X57752Y367225D01*
Y367232D01*
X57766Y367239D01*
X57794Y367281D01*
X57851Y367344D01*
X57921Y367415D01*
X58020Y367499D01*
X58132Y367576D01*
X58266Y367654D01*
X58421Y367717D01*
X58428D01*
X58442Y367724D01*
X58470Y367731D01*
X58505Y367738D01*
X58554Y367752D01*
X58611Y367766D01*
X58681Y367780D01*
X58765Y367788D01*
X58864Y367802D01*
X58969Y367816D01*
X59089Y367830D01*
X59216Y367844D01*
X59363Y367851D01*
X59518Y367858D01*
X59694Y367865D01*
X59877D01*
X63296D01*
Y369729D01*
D02*
G37*
G36*
X51288Y368639D02*
X44076D01*
Y362201D01*
D01*
Y364474D01*
X44083Y364417D01*
X44090Y364354D01*
X44097Y364284D01*
X44104Y364206D01*
X44132Y364030D01*
X44167Y363840D01*
X44224Y363651D01*
X44301Y363453D01*
Y363446D01*
X44308Y363432D01*
X44322Y363404D01*
X44343Y363369D01*
X44365Y363327D01*
X44393Y363278D01*
X44456Y363165D01*
X44540Y363038D01*
X44639Y362912D01*
X44744Y362785D01*
X44871Y362679D01*
X44878D01*
X44885Y362665D01*
X44906Y362651D01*
X44934Y362637D01*
X45005Y362588D01*
X45096Y362532D01*
X45216Y362468D01*
X45342Y362412D01*
X45490Y362356D01*
X45652Y362307D01*
X45659D01*
X45673Y362300D01*
X45694D01*
X45729Y362293D01*
X45779Y362279D01*
X45835Y362271D01*
X45898Y362264D01*
X45976Y362250D01*
X46060Y362243D01*
X46152Y362236D01*
X46257Y362222D01*
X46370Y362215D01*
X46489Y362208D01*
X46623D01*
X46764Y362201D01*
X44076D01*
X51288D01*
Y364066D01*
X47692D01*
X47678D01*
X47643D01*
X47587D01*
X47509D01*
X47418Y364073D01*
X47312D01*
X47200D01*
X47080Y364080D01*
X46834Y364094D01*
X46707Y364108D01*
X46588Y364122D01*
X46475Y364136D01*
X46377Y364150D01*
X46285Y364171D01*
X46215Y364192D01*
X46208D01*
X46201Y364199D01*
X46159Y364213D01*
X46095Y364241D01*
X46025Y364284D01*
X45940Y364340D01*
X45849Y364403D01*
X45772Y364488D01*
X45694Y364579D01*
X45687Y364593D01*
X45666Y364628D01*
X45631Y364685D01*
X45596Y364762D01*
X45568Y364854D01*
X45532Y364966D01*
X45511Y365093D01*
X45504Y365227D01*
Y365276D01*
X45511Y365311D01*
Y365353D01*
X45518Y365402D01*
X45539Y365522D01*
X45568Y365656D01*
X45617Y365803D01*
X45680Y365958D01*
X45772Y366106D01*
Y366113D01*
X45786Y366120D01*
X45800Y366141D01*
X45821Y366169D01*
X45877Y366233D01*
X45962Y366317D01*
X46060Y366401D01*
X46187Y366493D01*
X46328Y366570D01*
X46482Y366634D01*
X46489D01*
X46503Y366641D01*
X46532Y366648D01*
X46567Y366655D01*
X46616Y366669D01*
X46679Y366676D01*
X46757Y366690D01*
X46848Y366704D01*
X46954Y366718D01*
X47066Y366732D01*
X47200Y366739D01*
X47348Y366753D01*
X47509Y366760D01*
X47692Y366767D01*
X47889Y366774D01*
X48101D01*
X51288D01*
Y368639D01*
D02*
G37*
G36*
X63458Y358043D02*
D01*
Y354701D01*
X63451Y354750D01*
Y354799D01*
X63444Y354856D01*
X63437Y354926D01*
X63423Y355081D01*
X63395Y355250D01*
X63360Y355447D01*
X63310Y355658D01*
X63247Y355876D01*
X63163Y356101D01*
X63071Y356326D01*
X62952Y356551D01*
X62818Y356769D01*
X62656Y356973D01*
X62473Y357170D01*
X62262Y357346D01*
X62248Y357353D01*
X62220Y357374D01*
X62164Y357410D01*
X62086Y357452D01*
X61995Y357508D01*
X61882Y357565D01*
X61749Y357628D01*
X61594Y357691D01*
X61425Y357761D01*
X61242Y357825D01*
X61045Y357881D01*
X60827Y357930D01*
X60602Y357980D01*
X60356Y358015D01*
X60095Y358036D01*
X59828Y358043D01*
X59750D01*
X59708Y358036D01*
X59659D01*
X59603D01*
X59539Y358029D01*
X59392Y358015D01*
X59223Y357994D01*
X59033Y357966D01*
X58829Y357930D01*
X58611Y357881D01*
X58386Y357818D01*
X58160Y357747D01*
X57928Y357656D01*
X57703Y357550D01*
X57485Y357431D01*
X57281Y357290D01*
X57084Y357128D01*
X57070Y357114D01*
X57042Y357086D01*
X56992Y357037D01*
X56929Y356967D01*
X56852Y356875D01*
X56767Y356762D01*
X56676Y356636D01*
X56584Y356495D01*
X56493Y356333D01*
X56401Y356157D01*
X56317Y355967D01*
X56240Y355763D01*
X56176Y355545D01*
X56127Y355313D01*
X56099Y355067D01*
X56085Y354807D01*
Y354736D01*
X56092Y354701D01*
Y354659D01*
X56099Y354546D01*
X56113Y354412D01*
X56141Y354265D01*
X56169Y354089D01*
X56211Y353906D01*
X56268Y353716D01*
X56338Y353512D01*
X56423Y353308D01*
X56521Y353097D01*
X56641Y352893D01*
X56781Y352696D01*
X56943Y352506D01*
X57126Y352330D01*
X57140Y352323D01*
X57175Y352288D01*
X57239Y352245D01*
X57323Y352189D01*
X57436Y352119D01*
X57569Y352041D01*
X57731Y351964D01*
X57914Y351880D01*
X58125Y351795D01*
X58364Y351711D01*
X58625Y351640D01*
X58913Y351570D01*
X59223Y351521D01*
X59560Y351479D01*
X59926Y351457D01*
X60313Y351450D01*
X56085D01*
D01*
X63458D01*
Y358043D01*
D02*
G37*
G36*
X51288Y352745D02*
X41550D01*
Y350881D01*
X51288D01*
Y352745D01*
D02*
G37*
G36*
X61284Y350592D02*
D01*
X60996Y348721D01*
X61003D01*
X61017Y348713D01*
X61045Y348706D01*
X61087Y348699D01*
X61129Y348685D01*
X61186Y348664D01*
X61305Y348615D01*
X61439Y348552D01*
X61580Y348474D01*
X61706Y348369D01*
X61826Y348242D01*
Y348235D01*
X61840Y348228D01*
X61854Y348207D01*
X61868Y348172D01*
X61889Y348136D01*
X61917Y348094D01*
X61939Y348038D01*
X61967Y347975D01*
X61995Y347904D01*
X62016Y347827D01*
X62044Y347743D01*
X62065Y347651D01*
X62079Y347553D01*
X62093Y347447D01*
X62107Y347335D01*
Y347145D01*
X62100Y347095D01*
Y347032D01*
X62093Y346969D01*
X62086Y346891D01*
X62072Y346807D01*
X62044Y346631D01*
X61995Y346448D01*
X61932Y346279D01*
X61889Y346195D01*
X61847Y346124D01*
X61840Y346110D01*
X61812Y346082D01*
X61770Y346047D01*
X61713Y345998D01*
X61643Y345955D01*
X61559Y345913D01*
X61460Y345885D01*
X61347Y345878D01*
X61340D01*
X61312D01*
X61270Y345885D01*
X61221Y345892D01*
X61172Y345913D01*
X61108Y345934D01*
X61052Y345970D01*
X60996Y346012D01*
X60989Y346019D01*
X60975Y346040D01*
X60946Y346082D01*
X60911Y346145D01*
X60876Y346223D01*
X60834Y346335D01*
X60813Y346399D01*
X60792Y346469D01*
X60771Y346553D01*
X60750Y346638D01*
Y346645D01*
X60742Y346666D01*
X60735Y346694D01*
X60728Y346736D01*
X60714Y346786D01*
X60700Y346849D01*
X60686Y346919D01*
X60665Y346997D01*
X60644Y347088D01*
X60623Y347180D01*
X60567Y347384D01*
X60510Y347609D01*
X60447Y347841D01*
X60384Y348087D01*
X60306Y348326D01*
X60236Y348566D01*
X60159Y348798D01*
X60074Y349009D01*
X59997Y349206D01*
X59962Y349290D01*
X59919Y349368D01*
X59877Y349438D01*
X59842Y349501D01*
X59835Y349509D01*
X59814Y349537D01*
X59786Y349579D01*
X59736Y349628D01*
X59680Y349692D01*
X59610Y349762D01*
X59525Y349839D01*
X59427Y349917D01*
X59321Y349994D01*
X59202Y350071D01*
X59075Y350142D01*
X58927Y350205D01*
X58780Y350254D01*
X58611Y350297D01*
X58435Y350325D01*
X58252Y350332D01*
X58238D01*
X58210D01*
X58160Y350325D01*
X58097Y350318D01*
X58020Y350311D01*
X57928Y350297D01*
X57830Y350268D01*
X57717Y350240D01*
X57597Y350205D01*
X57471Y350156D01*
X57344Y350099D01*
X57217Y350029D01*
X57084Y349945D01*
X56957Y349853D01*
X56831Y349741D01*
X56711Y349614D01*
X56704Y349607D01*
X56683Y349579D01*
X56655Y349537D01*
X56612Y349473D01*
X56563Y349396D01*
X56514Y349305D01*
X56458Y349192D01*
X56394Y349058D01*
X56338Y348910D01*
X56282Y348749D01*
X56233Y348566D01*
X56183Y348362D01*
X56141Y348144D01*
X56113Y347904D01*
X56092Y347644D01*
X56085Y347370D01*
Y350592D01*
D01*
Y344007D01*
X63458D01*
D01*
X61136D01*
X61186Y344014D01*
X61256Y344021D01*
X61340Y344035D01*
X61439Y344049D01*
X61544Y344077D01*
X61664Y344105D01*
X61791Y344154D01*
X61925Y344203D01*
X62065Y344274D01*
X62206Y344351D01*
X62347Y344443D01*
X62487Y344555D01*
X62628Y344682D01*
X62762Y344823D01*
X62769Y344830D01*
X62790Y344858D01*
X62825Y344907D01*
X62867Y344970D01*
X62923Y345062D01*
X62980Y345160D01*
X63043Y345287D01*
X63106Y345428D01*
X63177Y345583D01*
X63240Y345765D01*
X63296Y345955D01*
X63346Y346174D01*
X63395Y346406D01*
X63430Y346659D01*
X63451Y346926D01*
X63458Y347215D01*
Y347278D01*
X63451Y347356D01*
Y347454D01*
X63437Y347574D01*
X63430Y347714D01*
X63409Y347869D01*
X63388Y348038D01*
X63353Y348221D01*
X63318Y348404D01*
X63268Y348594D01*
X63212Y348791D01*
X63142Y348974D01*
X63064Y349164D01*
X62980Y349340D01*
X62874Y349501D01*
X62867Y349509D01*
X62846Y349537D01*
X62811Y349579D01*
X62769Y349635D01*
X62705Y349706D01*
X62635Y349783D01*
X62551Y349860D01*
X62459Y349952D01*
X62347Y350043D01*
X62227Y350135D01*
X62100Y350226D01*
X61960Y350318D01*
X61805Y350395D01*
X61643Y350472D01*
X61467Y350536D01*
X61284Y350592D01*
D02*
G37*
G36*
X47819Y349516D02*
X47742D01*
X47699Y349509D01*
X47650D01*
X47594D01*
X47531Y349501D01*
X47383Y349487D01*
X47214Y349466D01*
X47024Y349438D01*
X46820Y349403D01*
X46602Y349354D01*
X46377Y349290D01*
X46152Y349220D01*
X45919Y349129D01*
X45694Y349023D01*
X45476Y348903D01*
X45272Y348763D01*
X45075Y348601D01*
X45061Y348587D01*
X45033Y348559D01*
X44984Y348509D01*
X44920Y348439D01*
X44843Y348348D01*
X44759Y348235D01*
X44667Y348108D01*
X44576Y347968D01*
X44484Y347806D01*
X44393Y347630D01*
X44308Y347440D01*
X44231Y347236D01*
X44167Y347018D01*
X44118Y346786D01*
X44090Y346539D01*
X44076Y346279D01*
Y346209D01*
X44083Y346174D01*
Y346131D01*
X44090Y346019D01*
X44104Y345885D01*
X44132Y345737D01*
X44160Y345561D01*
X44203Y345378D01*
X44259Y345188D01*
X44329Y344985D01*
X44414Y344781D01*
X44512Y344569D01*
X44632Y344365D01*
X44773Y344168D01*
X44934Y343978D01*
X45117Y343802D01*
X45131Y343796D01*
X45167Y343760D01*
X45230Y343718D01*
X45314Y343662D01*
X45427Y343591D01*
X45561Y343514D01*
X45722Y343437D01*
X45905Y343352D01*
X46116Y343268D01*
X46356Y343183D01*
X46616Y343113D01*
X46904Y343043D01*
X47214Y342993D01*
X47552Y342951D01*
X47918Y342930D01*
X48305Y342923D01*
D01*
Y347602D01*
X48312D01*
X48340D01*
X48382Y347595D01*
X48438D01*
X48509Y347588D01*
X48593Y347574D01*
X48677Y347560D01*
X48776Y347538D01*
X48987Y347489D01*
X49093Y347454D01*
X49198Y347412D01*
X49304Y347356D01*
X49409Y347299D01*
X49508Y347236D01*
X49599Y347159D01*
X49606Y347151D01*
X49620Y347137D01*
X49641Y347116D01*
X49669Y347081D01*
X49705Y347039D01*
X49747Y346983D01*
X49782Y346926D01*
X49824Y346856D01*
X49873Y346786D01*
X49909Y346701D01*
X49986Y346518D01*
X50014Y346413D01*
X50035Y346307D01*
X50049Y346195D01*
X50057Y346075D01*
Y346033D01*
X50049Y345998D01*
X50042Y345920D01*
X50028Y345815D01*
X50000Y345702D01*
X49958Y345575D01*
X49902Y345456D01*
X49824Y345336D01*
Y345329D01*
X49810Y345322D01*
X49775Y345287D01*
X49719Y345231D01*
X49634Y345167D01*
X49529Y345090D01*
X49395Y345013D01*
X49240Y344942D01*
X49050Y344879D01*
X49360Y343022D01*
X49374Y343028D01*
X49402Y343036D01*
X49458Y343057D01*
X49529Y343092D01*
X49613Y343127D01*
X49712Y343176D01*
X49824Y343233D01*
X49937Y343303D01*
X50064Y343373D01*
X50190Y343458D01*
X50324Y343556D01*
X50451Y343655D01*
X50577Y343767D01*
X50704Y343887D01*
X50816Y344021D01*
X50922Y344161D01*
X50929Y344168D01*
X50943Y344197D01*
X50971Y344239D01*
X51006Y344302D01*
X51041Y344379D01*
X51091Y344464D01*
X51133Y344576D01*
X51182Y344696D01*
X51231Y344830D01*
X51281Y344970D01*
X51330Y345132D01*
X51365Y345301D01*
X51400Y345484D01*
X51428Y345681D01*
X51442Y345885D01*
X51449Y346095D01*
Y346174D01*
X51442Y346223D01*
Y346272D01*
X51435Y346328D01*
X51428Y346399D01*
X51414Y346553D01*
X51386Y346722D01*
X51351Y346919D01*
X51302Y347130D01*
X51238Y347349D01*
X51154Y347574D01*
X51063Y347799D01*
X50943Y348024D01*
X50809Y348242D01*
X50648Y348446D01*
X50465Y348643D01*
X50254Y348819D01*
X50239Y348826D01*
X50211Y348847D01*
X50155Y348882D01*
X50078Y348924D01*
X49986Y348981D01*
X49873Y349037D01*
X49740Y349100D01*
X49585Y349164D01*
X49416Y349234D01*
X49233Y349297D01*
X49036Y349354D01*
X48818Y349403D01*
X48593Y349452D01*
X48347Y349487D01*
X48086Y349509D01*
X47819Y349516D01*
D02*
G37*
G36*
X51449Y342923D02*
D01*
D01*
X48888D01*
X51449D01*
Y342065D01*
D01*
Y342923D01*
D02*
G37*
G36*
X49085Y335479D02*
X44076D01*
X49085D01*
D01*
D02*
G37*
%LPD*%
G36*
X47432Y439771D02*
X43823Y441122D01*
X47432Y442437D01*
Y439771D01*
D02*
G37*
G36*
X51288Y438293D02*
X49078Y439138D01*
Y443035D01*
X51288Y443838D01*
Y438293D01*
D02*
G37*
G36*
X63458Y431236D02*
X63296D01*
Y432967D01*
X62241D01*
X62248Y432974D01*
X62269Y432988D01*
X62297Y433009D01*
X62333Y433037D01*
X62382Y433073D01*
X62438Y433122D01*
X62501Y433178D01*
X62565Y433242D01*
X62635Y433312D01*
X62712Y433389D01*
X62860Y433558D01*
X63001Y433762D01*
X63135Y433987D01*
Y433994D01*
X63149Y434016D01*
X63163Y434051D01*
X63184Y434093D01*
X63212Y434156D01*
X63240Y434220D01*
X63268Y434297D01*
X63296Y434388D01*
X63325Y434480D01*
X63353Y434585D01*
X63409Y434811D01*
X63444Y435050D01*
X63451Y435183D01*
X63458Y435310D01*
Y431236D01*
D02*
G37*
G36*
X34108Y424559D02*
X34101Y424468D01*
Y424362D01*
X34094Y424243D01*
X34087Y424123D01*
X34072Y423863D01*
X34044Y423610D01*
X34030Y423490D01*
X34009Y423377D01*
X33988Y423286D01*
X33960Y423201D01*
Y423195D01*
X33953Y423180D01*
X33946Y423166D01*
X33932Y423138D01*
X33897Y423068D01*
X33840Y422976D01*
X33777Y422878D01*
X33693Y422772D01*
X33594Y422674D01*
X33482Y422582D01*
X33475D01*
X33467Y422575D01*
X33446Y422561D01*
X33425Y422547D01*
X33355Y422512D01*
X33263Y422470D01*
X33151Y422428D01*
X33024Y422392D01*
X32876Y422364D01*
X32722Y422357D01*
X32715D01*
X32701D01*
X32672D01*
X32630Y422364D01*
X32588D01*
X32532Y422371D01*
X32412Y422399D01*
X32271Y422435D01*
X32124Y422491D01*
X31976Y422568D01*
X31906Y422617D01*
X31842Y422674D01*
X31835D01*
X31828Y422688D01*
X31786Y422730D01*
X31730Y422793D01*
X31652Y422885D01*
X31582Y423004D01*
X31511Y423138D01*
X31448Y423293D01*
X31406Y423462D01*
Y423476D01*
X31399Y423504D01*
X31392Y423532D01*
Y423574D01*
X31385Y423631D01*
X31378Y423694D01*
X31371Y423771D01*
X31364Y423863D01*
X31357Y423961D01*
X31350Y424074D01*
Y424208D01*
X31343Y424348D01*
X31336Y424510D01*
Y425819D01*
X34108D01*
Y424559D01*
D02*
G37*
G36*
X39427Y420331D02*
X32771D01*
X32834Y420338D01*
X32912D01*
X33003Y420345D01*
X33102Y420359D01*
X33214Y420373D01*
X33327Y420387D01*
X33453Y420408D01*
X33707Y420472D01*
X33960Y420549D01*
X34080Y420605D01*
X34199Y420662D01*
X34206Y420669D01*
X34227Y420676D01*
X34255Y420697D01*
X34298Y420718D01*
X34347Y420753D01*
X34410Y420788D01*
X34544Y420887D01*
X34699Y421006D01*
X34860Y421147D01*
X35015Y421309D01*
X35156Y421485D01*
X35163Y421492D01*
X35170Y421506D01*
X35191Y421534D01*
X35212Y421569D01*
X35240Y421618D01*
X35276Y421668D01*
X35311Y421731D01*
X35346Y421801D01*
X35423Y421956D01*
X35501Y422125D01*
X35571Y422308D01*
X35620Y422505D01*
Y422512D01*
X35627Y422540D01*
X35635Y422575D01*
X35642Y422639D01*
X35649Y422709D01*
X35663Y422800D01*
X35677Y422899D01*
X35684Y423026D01*
X35698Y423159D01*
X35712Y423307D01*
X35726Y423476D01*
X35733Y423659D01*
X35740Y423856D01*
X35747Y424067D01*
X35754Y424299D01*
Y425819D01*
X39427D01*
Y420331D01*
D02*
G37*
G36*
X61249Y420366D02*
X61326Y420359D01*
X61418Y420338D01*
X61523Y420303D01*
X61636Y420253D01*
X61749Y420183D01*
X61861Y420085D01*
X61875Y420071D01*
X61903Y420028D01*
X61953Y419965D01*
X62002Y419881D01*
X62051Y419775D01*
X62100Y419648D01*
X62129Y419501D01*
X62143Y419339D01*
Y419290D01*
X62136Y419254D01*
Y419205D01*
X62122Y419156D01*
X62100Y419029D01*
X62058Y418881D01*
X62002Y418720D01*
X61917Y418551D01*
X61868Y418459D01*
X61812Y418375D01*
Y418368D01*
X61798Y418361D01*
X61770Y418319D01*
X61713Y418262D01*
X61643Y418192D01*
X61552Y418115D01*
X61446Y418044D01*
X61326Y417981D01*
X61200Y417932D01*
X61186Y417925D01*
X61150Y417918D01*
X61122Y417911D01*
X61087Y417904D01*
X61045Y417896D01*
X60996Y417890D01*
X60939Y417882D01*
X60869Y417875D01*
X60799D01*
X60714Y417868D01*
X60623Y417861D01*
X60517Y417854D01*
X60405D01*
X60285D01*
X59912D01*
Y417861D01*
X59919Y417868D01*
X59926Y417890D01*
X59933Y417925D01*
X59947Y417960D01*
X59962Y418009D01*
X59976Y418065D01*
X59990Y418136D01*
X60011Y418213D01*
X60032Y418298D01*
X60060Y418389D01*
X60081Y418494D01*
X60109Y418607D01*
X60137Y418727D01*
X60173Y418860D01*
X60201Y419001D01*
Y419008D01*
X60208Y419036D01*
X60215Y419072D01*
X60229Y419128D01*
X60243Y419191D01*
X60264Y419261D01*
X60306Y419416D01*
X60356Y419585D01*
X60405Y419754D01*
X60440Y419831D01*
X60468Y419902D01*
X60496Y419965D01*
X60524Y420014D01*
Y420021D01*
X60538Y420028D01*
X60574Y420071D01*
X60630Y420127D01*
X60707Y420190D01*
X60799Y420261D01*
X60911Y420317D01*
X61045Y420359D01*
X61115Y420366D01*
X61186Y420373D01*
X61193D01*
X61200D01*
X61221D01*
X61249Y420366D01*
D02*
G37*
G36*
X44231Y428253D02*
X45195D01*
X45181Y428239D01*
X45146Y428211D01*
X45089Y428162D01*
X45019Y428091D01*
X44934Y428000D01*
X44843Y427894D01*
X44737Y427775D01*
X44632Y427634D01*
X44533Y427479D01*
X44428Y427310D01*
X44336Y427135D01*
X44252Y426937D01*
X44182Y426734D01*
X44125Y426515D01*
X44090Y426290D01*
X44076Y426058D01*
Y429970D01*
X44231D01*
Y428253D01*
D02*
G37*
G36*
X44083Y425946D02*
Y425889D01*
X44090Y425819D01*
X44097Y425741D01*
X44111Y425657D01*
X44146Y425474D01*
X44196Y425277D01*
X44266Y425080D01*
X44358Y424883D01*
Y424876D01*
X44372Y424862D01*
X44386Y424834D01*
X44407Y424799D01*
X44442Y424756D01*
X44477Y424707D01*
X44569Y424595D01*
X44688Y424461D01*
X44829Y424327D01*
X45005Y424193D01*
X45202Y424067D01*
X45195Y424060D01*
X45174Y424046D01*
X45146Y424018D01*
X45110Y423983D01*
X45061Y423940D01*
X45012Y423891D01*
X44949Y423835D01*
X44885Y423764D01*
X44752Y423617D01*
X44611Y423448D01*
X44477Y423265D01*
X44358Y423068D01*
Y423061D01*
X44343Y423040D01*
X44329Y423012D01*
X44315Y422976D01*
X44294Y422920D01*
X44266Y422864D01*
X44245Y422793D01*
X44217Y422723D01*
X44189Y422639D01*
X44167Y422547D01*
X44118Y422350D01*
X44090Y422139D01*
X44076Y421914D01*
Y425995D01*
X44083Y425946D01*
D02*
G37*
G36*
X49240Y416356D02*
X49318Y416349D01*
X49409Y416328D01*
X49515Y416292D01*
X49627Y416243D01*
X49740Y416173D01*
X49852Y416074D01*
X49866Y416060D01*
X49895Y416018D01*
X49944Y415955D01*
X49993Y415870D01*
X50042Y415765D01*
X50092Y415638D01*
X50120Y415490D01*
X50134Y415328D01*
Y415279D01*
X50127Y415244D01*
Y415195D01*
X50113Y415145D01*
X50092Y415019D01*
X50049Y414871D01*
X49993Y414709D01*
X49909Y414540D01*
X49859Y414449D01*
X49803Y414365D01*
Y414357D01*
X49789Y414351D01*
X49761Y414308D01*
X49705Y414252D01*
X49634Y414182D01*
X49543Y414104D01*
X49437Y414034D01*
X49318Y413970D01*
X49191Y413921D01*
X49177Y413914D01*
X49142Y413907D01*
X49114Y413900D01*
X49078Y413893D01*
X49036Y413886D01*
X48987Y413879D01*
X48931Y413872D01*
X48860Y413865D01*
X48790D01*
X48706Y413858D01*
X48614Y413851D01*
X48509Y413844D01*
X48396D01*
X48276D01*
X47903D01*
Y413851D01*
X47910Y413858D01*
X47918Y413879D01*
X47925Y413914D01*
X47939Y413949D01*
X47953Y413999D01*
X47967Y414055D01*
X47981Y414125D01*
X48002Y414203D01*
X48023Y414287D01*
X48051Y414379D01*
X48072Y414484D01*
X48101Y414597D01*
X48129Y414716D01*
X48164Y414850D01*
X48192Y414991D01*
Y414998D01*
X48199Y415026D01*
X48206Y415061D01*
X48220Y415117D01*
X48234Y415181D01*
X48255Y415251D01*
X48298Y415406D01*
X48347Y415575D01*
X48396Y415743D01*
X48431Y415821D01*
X48459Y415891D01*
X48488Y415955D01*
X48516Y416004D01*
Y416011D01*
X48530Y416018D01*
X48565Y416060D01*
X48621Y416116D01*
X48699Y416180D01*
X48790Y416250D01*
X48903Y416306D01*
X49036Y416349D01*
X49107Y416356D01*
X49177Y416363D01*
X49184D01*
X49191D01*
X49212D01*
X49240Y416356D01*
D02*
G37*
G36*
X39427Y407561D02*
X32152Y409496D01*
X39427Y411424D01*
Y407561D01*
D02*
G37*
G36*
X56092Y409981D02*
X56099Y409918D01*
X56106Y409847D01*
X56113Y409770D01*
X56141Y409594D01*
X56176Y409404D01*
X56233Y409214D01*
X56310Y409017D01*
Y409010D01*
X56317Y408996D01*
X56331Y408968D01*
X56352Y408933D01*
X56373Y408891D01*
X56401Y408841D01*
X56465Y408729D01*
X56549Y408602D01*
X56648Y408476D01*
X56753Y408349D01*
X56880Y408243D01*
X56887D01*
X56894Y408229D01*
X56915Y408215D01*
X56943Y408201D01*
X57014Y408152D01*
X57105Y408096D01*
X57224Y408032D01*
X57351Y407976D01*
X57499Y407920D01*
X57661Y407870D01*
X57668D01*
X57682Y407863D01*
X57703D01*
X57738Y407856D01*
X57787Y407842D01*
X57844Y407835D01*
X57907Y407828D01*
X57984Y407814D01*
X58069Y407807D01*
X58160Y407800D01*
X58266Y407786D01*
X58378Y407779D01*
X58498Y407772D01*
X58632D01*
X58772Y407765D01*
X56085D01*
Y410037D01*
X56092Y409981D01*
D02*
G37*
G36*
X44231Y408461D02*
X45272D01*
X45258Y408447D01*
X45223Y408419D01*
X45160Y408370D01*
X45082Y408293D01*
X44998Y408201D01*
X44892Y408096D01*
X44787Y407969D01*
X44674Y407821D01*
X44562Y407666D01*
X44456Y407491D01*
X44350Y407294D01*
X44266Y407090D01*
X44189Y406871D01*
X44125Y406639D01*
X44090Y406393D01*
X44076Y406133D01*
Y410192D01*
X44231D01*
Y408461D01*
D02*
G37*
G36*
X47798Y400363D02*
X47889D01*
X47995Y400356D01*
X48115Y400342D01*
X48241Y400328D01*
X48509Y400293D01*
X48776Y400237D01*
X48910Y400201D01*
X49029Y400159D01*
X49142Y400117D01*
X49247Y400061D01*
X49254Y400054D01*
X49275Y400040D01*
X49311Y400011D01*
X49360Y399976D01*
X49416Y399934D01*
X49479Y399878D01*
X49543Y399808D01*
X49606Y399737D01*
X49676Y399653D01*
X49740Y399554D01*
X49803Y399449D01*
X49859Y399336D01*
X49902Y399216D01*
X49944Y399090D01*
X49965Y398949D01*
X49972Y398801D01*
Y398773D01*
X49965Y398738D01*
Y398696D01*
X49958Y398639D01*
X49944Y398576D01*
X49930Y398506D01*
X49902Y398421D01*
X49873Y398344D01*
X49838Y398252D01*
X49796Y398161D01*
X49740Y398070D01*
X49684Y397978D01*
X49606Y397887D01*
X49529Y397795D01*
X49430Y397711D01*
X49423Y397704D01*
X49402Y397690D01*
X49374Y397669D01*
X49325Y397640D01*
X49268Y397605D01*
X49198Y397563D01*
X49114Y397528D01*
X49022Y397479D01*
X48910Y397436D01*
X48790Y397401D01*
X48656Y397359D01*
X48509Y397324D01*
X48347Y397296D01*
X48171Y397275D01*
X47988Y397261D01*
X47791Y397253D01*
X47784D01*
X47777D01*
X47735D01*
X47678D01*
X47594Y397261D01*
X47495Y397267D01*
X47376Y397275D01*
X47249Y397289D01*
X47116Y397310D01*
X46827Y397359D01*
X46679Y397394D01*
X46539Y397443D01*
X46398Y397493D01*
X46264Y397549D01*
X46145Y397619D01*
X46039Y397697D01*
X46032Y397704D01*
X46018Y397718D01*
X45990Y397739D01*
X45955Y397774D01*
X45912Y397816D01*
X45870Y397873D01*
X45821Y397929D01*
X45772Y397999D01*
X45722Y398077D01*
X45673Y398161D01*
X45631Y398252D01*
X45589Y398351D01*
X45554Y398457D01*
X45525Y398569D01*
X45511Y398689D01*
X45504Y398815D01*
Y398879D01*
X45511Y398928D01*
X45518Y398984D01*
X45532Y399048D01*
X45546Y399125D01*
X45568Y399202D01*
X45596Y399287D01*
X45638Y399378D01*
X45680Y399470D01*
X45729Y399561D01*
X45793Y399660D01*
X45863Y399751D01*
X45948Y399843D01*
X46039Y399927D01*
X46046Y399934D01*
X46060Y399948D01*
X46095Y399969D01*
X46137Y399997D01*
X46194Y400033D01*
X46264Y400068D01*
X46342Y400110D01*
X46433Y400145D01*
X46539Y400187D01*
X46658Y400230D01*
X46785Y400265D01*
X46926Y400300D01*
X47080Y400328D01*
X47249Y400349D01*
X47425Y400363D01*
X47615Y400370D01*
X47629D01*
X47664D01*
X47721D01*
X47798Y400363D01*
D02*
G37*
G36*
X39427Y390949D02*
X32152Y392884D01*
X39427Y394812D01*
Y390949D01*
D02*
G37*
G36*
X63472Y394664D02*
X60553D01*
X60609Y394671D01*
X60686Y394678D01*
X60771Y394692D01*
X60869Y394706D01*
X60975Y394721D01*
X61094Y394749D01*
X61221Y394777D01*
X61347Y394819D01*
X61481Y394861D01*
X61622Y394918D01*
X61763Y394981D01*
X61896Y395051D01*
X62037Y395136D01*
X62044Y395143D01*
X62065Y395157D01*
X62107Y395185D01*
X62157Y395220D01*
X62213Y395269D01*
X62283Y395326D01*
X62361Y395396D01*
X62445Y395473D01*
X62530Y395565D01*
X62621Y395663D01*
X62712Y395769D01*
X62797Y395888D01*
X62888Y396015D01*
X62973Y396149D01*
X63050Y396297D01*
X63120Y396451D01*
X63128Y396458D01*
X63135Y396487D01*
X63156Y396536D01*
X63177Y396606D01*
X63205Y396684D01*
X63233Y396782D01*
X63261Y396902D01*
X63296Y397028D01*
X63332Y397176D01*
X63360Y397338D01*
X63388Y397514D01*
X63416Y397697D01*
X63437Y397894D01*
X63458Y398105D01*
X63465Y398330D01*
X63472Y398562D01*
Y394664D01*
D02*
G37*
G36*
X47939Y392068D02*
X48023Y392061D01*
X48129Y392047D01*
X48241Y392033D01*
X48361Y392012D01*
X48488Y391991D01*
X48621Y391955D01*
X48755Y391913D01*
X48889Y391864D01*
X49015Y391808D01*
X49142Y391744D01*
X49261Y391667D01*
X49374Y391583D01*
X49381Y391576D01*
X49395Y391562D01*
X49423Y391533D01*
X49458Y391491D01*
X49501Y391442D01*
X49550Y391386D01*
X49599Y391315D01*
X49648Y391238D01*
X49705Y391153D01*
X49754Y391062D01*
X49803Y390964D01*
X49845Y390851D01*
X49881Y390738D01*
X49909Y390612D01*
X49923Y390485D01*
X49930Y390351D01*
Y390316D01*
X49923Y390281D01*
Y390232D01*
X49916Y390168D01*
X49902Y390091D01*
X49881Y390014D01*
X49859Y389922D01*
X49831Y389831D01*
X49796Y389732D01*
X49747Y389627D01*
X49698Y389528D01*
X49634Y389423D01*
X49557Y389324D01*
X49472Y389219D01*
X49374Y389127D01*
X49367Y389120D01*
X49346Y389106D01*
X49318Y389078D01*
X49268Y389050D01*
X49212Y389015D01*
X49142Y388972D01*
X49057Y388923D01*
X48966Y388874D01*
X48853Y388832D01*
X48734Y388782D01*
X48600Y388740D01*
X48459Y388705D01*
X48298Y388677D01*
X48129Y388649D01*
X47946Y388635D01*
X47756Y388628D01*
X47742D01*
X47706D01*
X47657D01*
X47587Y388635D01*
X47495Y388642D01*
X47397Y388656D01*
X47284Y388670D01*
X47165Y388691D01*
X47038Y388719D01*
X46912Y388747D01*
X46778Y388789D01*
X46644Y388839D01*
X46510Y388895D01*
X46384Y388965D01*
X46271Y389036D01*
X46159Y389127D01*
X46152Y389134D01*
X46137Y389148D01*
X46109Y389176D01*
X46067Y389219D01*
X46025Y389261D01*
X45983Y389324D01*
X45926Y389387D01*
X45877Y389465D01*
X45828Y389549D01*
X45772Y389641D01*
X45729Y389746D01*
X45680Y389852D01*
X45645Y389964D01*
X45617Y390091D01*
X45603Y390218D01*
X45596Y390351D01*
Y390422D01*
X45603Y390471D01*
X45610Y390534D01*
X45624Y390612D01*
X45645Y390689D01*
X45666Y390780D01*
X45694Y390872D01*
X45729Y390970D01*
X45779Y391076D01*
X45835Y391182D01*
X45898Y391280D01*
X45976Y391386D01*
X46060Y391484D01*
X46159Y391583D01*
X46166Y391590D01*
X46187Y391604D01*
X46215Y391625D01*
X46264Y391660D01*
X46321Y391695D01*
X46391Y391737D01*
X46475Y391780D01*
X46567Y391829D01*
X46672Y391871D01*
X46792Y391920D01*
X46926Y391963D01*
X47066Y391998D01*
X47228Y392033D01*
X47390Y392054D01*
X47573Y392068D01*
X47763Y392075D01*
X47777D01*
X47812D01*
X47861D01*
X47939Y392068D01*
D02*
G37*
G36*
X49240Y358929D02*
X49318Y358922D01*
X49409Y358901D01*
X49515Y358866D01*
X49627Y358817D01*
X49740Y358746D01*
X49852Y358648D01*
X49866Y358634D01*
X49895Y358592D01*
X49944Y358528D01*
X49993Y358444D01*
X50042Y358339D01*
X50092Y358212D01*
X50120Y358064D01*
X50134Y357902D01*
Y357853D01*
X50127Y357818D01*
Y357769D01*
X50113Y357719D01*
X50092Y357593D01*
X50049Y357445D01*
X49993Y357283D01*
X49909Y357114D01*
X49859Y357023D01*
X49803Y356938D01*
Y356931D01*
X49789Y356924D01*
X49761Y356882D01*
X49705Y356826D01*
X49634Y356755D01*
X49543Y356678D01*
X49437Y356608D01*
X49318Y356544D01*
X49191Y356495D01*
X49177Y356488D01*
X49142Y356481D01*
X49114Y356474D01*
X49078Y356467D01*
X49036Y356460D01*
X48987Y356453D01*
X48931Y356446D01*
X48860Y356439D01*
X48790D01*
X48706Y356432D01*
X48614Y356425D01*
X48509Y356418D01*
X48396D01*
X48276D01*
X47903D01*
Y356425D01*
X47910Y356432D01*
X47918Y356453D01*
X47925Y356488D01*
X47939Y356523D01*
X47953Y356572D01*
X47967Y356629D01*
X47981Y356699D01*
X48002Y356777D01*
X48023Y356861D01*
X48051Y356952D01*
X48072Y357058D01*
X48101Y357170D01*
X48129Y357290D01*
X48164Y357424D01*
X48192Y357565D01*
Y357571D01*
X48199Y357600D01*
X48206Y357635D01*
X48220Y357691D01*
X48234Y357755D01*
X48255Y357825D01*
X48298Y357980D01*
X48347Y358148D01*
X48396Y358317D01*
X48431Y358395D01*
X48459Y358465D01*
X48488Y358528D01*
X48516Y358578D01*
Y358585D01*
X48530Y358592D01*
X48565Y358634D01*
X48621Y358690D01*
X48699Y358754D01*
X48790Y358824D01*
X48903Y358880D01*
X49036Y358922D01*
X49107Y358929D01*
X49177Y358937D01*
X49184D01*
X49191D01*
X49212D01*
X49240Y358929D01*
D02*
G37*
G36*
X49268Y360794D02*
X49212D01*
X49156Y360787D01*
X49085Y360780D01*
X49008Y360766D01*
X48846Y360731D01*
X48663Y360681D01*
X48480Y360611D01*
X48305Y360519D01*
X48298Y360513D01*
X48283Y360505D01*
X48262Y360491D01*
X48227Y360463D01*
X48143Y360400D01*
X48037Y360308D01*
X47925Y360196D01*
X47805Y360062D01*
X47685Y359900D01*
X47587Y359717D01*
Y359710D01*
X47573Y359696D01*
X47559Y359661D01*
X47545Y359619D01*
X47524Y359570D01*
X47495Y359506D01*
X47467Y359429D01*
X47439Y359338D01*
X47404Y359239D01*
X47369Y359127D01*
X47334Y359007D01*
X47298Y358873D01*
X47256Y358732D01*
X47221Y358578D01*
X47186Y358409D01*
X47151Y358233D01*
Y358219D01*
X47137Y358177D01*
X47130Y358106D01*
X47108Y358022D01*
X47087Y357916D01*
X47059Y357790D01*
X47031Y357656D01*
X47003Y357515D01*
X46926Y357213D01*
X46848Y356917D01*
X46813Y356777D01*
X46771Y356643D01*
X46729Y356523D01*
X46686Y356418D01*
X46503D01*
X46496D01*
X46482D01*
X46454D01*
X46419Y356425D01*
X46370D01*
X46321Y356432D01*
X46208Y356453D01*
X46081Y356481D01*
X45955Y356530D01*
X45835Y356594D01*
X45786Y356636D01*
X45736Y356685D01*
X45729Y356699D01*
X45715Y356713D01*
X45701Y356741D01*
X45680Y356769D01*
X45666Y356812D01*
X45645Y356854D01*
X45617Y356910D01*
X45596Y356973D01*
X45575Y357051D01*
X45561Y357128D01*
X45539Y357220D01*
X45525Y357325D01*
X45511Y357438D01*
X45504Y357557D01*
Y357776D01*
X45511Y357818D01*
Y357867D01*
X45525Y357973D01*
X45554Y358099D01*
X45589Y358233D01*
X45638Y358360D01*
X45701Y358472D01*
X45708Y358486D01*
X45736Y358514D01*
X45793Y358571D01*
X45863Y358627D01*
X45955Y358697D01*
X46074Y358775D01*
X46222Y358845D01*
X46391Y358915D01*
X46088Y360611D01*
X46074Y360604D01*
X46046Y360597D01*
X45990Y360583D01*
X45919Y360555D01*
X45835Y360527D01*
X45736Y360484D01*
X45631Y360435D01*
X45518Y360386D01*
X45392Y360322D01*
X45272Y360245D01*
X45146Y360168D01*
X45019Y360076D01*
X44899Y359985D01*
X44780Y359872D01*
X44674Y359760D01*
X44576Y359633D01*
X44569Y359626D01*
X44555Y359598D01*
X44526Y359556D01*
X44498Y359499D01*
X44463Y359429D01*
X44421Y359338D01*
X44372Y359232D01*
X44322Y359105D01*
X44280Y358972D01*
X44231Y358817D01*
X44189Y358641D01*
X44153Y358458D01*
X44125Y358254D01*
X44097Y358036D01*
X44083Y357804D01*
X44076Y357550D01*
Y360801D01*
X49311D01*
X49268Y360794D01*
D02*
G37*
G36*
X61249Y375773D02*
X61326Y375766D01*
X61418Y375745D01*
X61523Y375710D01*
X61636Y375661D01*
X61749Y375590D01*
X61861Y375492D01*
X61875Y375478D01*
X61903Y375435D01*
X61953Y375372D01*
X62002Y375288D01*
X62051Y375182D01*
X62100Y375056D01*
X62129Y374908D01*
X62143Y374746D01*
Y374697D01*
X62136Y374661D01*
Y374612D01*
X62122Y374563D01*
X62100Y374436D01*
X62058Y374289D01*
X62002Y374127D01*
X61917Y373958D01*
X61868Y373867D01*
X61812Y373782D01*
Y373775D01*
X61798Y373768D01*
X61770Y373726D01*
X61713Y373670D01*
X61643Y373599D01*
X61552Y373522D01*
X61446Y373451D01*
X61326Y373388D01*
X61200Y373339D01*
X61186Y373332D01*
X61150Y373325D01*
X61122Y373318D01*
X61087Y373311D01*
X61045Y373304D01*
X60996Y373297D01*
X60939Y373289D01*
X60869Y373283D01*
X60799D01*
X60714Y373275D01*
X60623Y373268D01*
X60517Y373261D01*
X60405D01*
X60285D01*
X59912D01*
Y373268D01*
X59919Y373275D01*
X59926Y373297D01*
X59933Y373332D01*
X59947Y373367D01*
X59962Y373416D01*
X59976Y373473D01*
X59990Y373543D01*
X60011Y373620D01*
X60032Y373705D01*
X60060Y373796D01*
X60081Y373902D01*
X60109Y374014D01*
X60137Y374134D01*
X60173Y374268D01*
X60201Y374408D01*
Y374415D01*
X60208Y374443D01*
X60215Y374479D01*
X60229Y374535D01*
X60243Y374598D01*
X60264Y374669D01*
X60306Y374823D01*
X60356Y374992D01*
X60405Y375161D01*
X60440Y375238D01*
X60468Y375309D01*
X60496Y375372D01*
X60524Y375421D01*
Y375428D01*
X60538Y375435D01*
X60574Y375478D01*
X60630Y375534D01*
X60707Y375597D01*
X60799Y375668D01*
X60911Y375724D01*
X61045Y375766D01*
X61115Y375773D01*
X61186Y375780D01*
X61193D01*
X61200D01*
X61221D01*
X61249Y375773D01*
D02*
G37*
G36*
X63458Y371024D02*
X63296D01*
Y372867D01*
X63289D01*
X63261Y372881D01*
X63219Y372896D01*
X63156Y372917D01*
X63078Y372945D01*
X62987Y372980D01*
X62874Y373015D01*
X62748Y373050D01*
X62741D01*
X62719Y373057D01*
X62691Y373064D01*
X62656Y373078D01*
X62586Y373100D01*
X62558Y373107D01*
X62530Y373114D01*
X62537Y373121D01*
X62551Y373135D01*
X62572Y373163D01*
X62607Y373198D01*
X62642Y373240D01*
X62691Y373297D01*
X62741Y373353D01*
X62790Y373423D01*
X62902Y373571D01*
X63022Y373747D01*
X63128Y373937D01*
X63226Y374141D01*
Y374148D01*
X63233Y374162D01*
X63247Y374197D01*
X63261Y374232D01*
X63282Y374289D01*
X63296Y374345D01*
X63318Y374415D01*
X63339Y374486D01*
X63367Y374570D01*
X63388Y374661D01*
X63423Y374859D01*
X63451Y375077D01*
X63458Y375302D01*
Y371024D01*
D02*
G37*
G36*
X45969Y378229D02*
X45962Y378137D01*
Y378032D01*
X45955Y377912D01*
X45948Y377792D01*
X45933Y377532D01*
X45905Y377279D01*
X45891Y377159D01*
X45870Y377047D01*
X45849Y376955D01*
X45821Y376871D01*
Y376864D01*
X45814Y376850D01*
X45807Y376836D01*
X45793Y376807D01*
X45758Y376737D01*
X45701Y376646D01*
X45638Y376547D01*
X45554Y376442D01*
X45455Y376343D01*
X45342Y376252D01*
X45335D01*
X45328Y376245D01*
X45307Y376231D01*
X45286Y376216D01*
X45216Y376181D01*
X45124Y376139D01*
X45012Y376097D01*
X44885Y376062D01*
X44737Y376034D01*
X44583Y376026D01*
X44576D01*
X44562D01*
X44533D01*
X44491Y376034D01*
X44449D01*
X44393Y376040D01*
X44273Y376069D01*
X44132Y376104D01*
X43985Y376160D01*
X43837Y376237D01*
X43766Y376287D01*
X43703Y376343D01*
X43696D01*
X43689Y376357D01*
X43647Y376399D01*
X43591Y376463D01*
X43513Y376554D01*
X43443Y376674D01*
X43373Y376807D01*
X43309Y376962D01*
X43267Y377131D01*
Y377145D01*
X43260Y377173D01*
X43253Y377201D01*
Y377244D01*
X43246Y377300D01*
X43239Y377363D01*
X43232Y377441D01*
X43225Y377532D01*
X43218Y377631D01*
X43211Y377743D01*
Y377877D01*
X43204Y378018D01*
X43197Y378179D01*
Y379488D01*
X45969D01*
Y378229D01*
D02*
G37*
G36*
X56092Y365705D02*
Y365649D01*
X56099Y365578D01*
X56106Y365501D01*
X56120Y365416D01*
X56155Y365233D01*
X56204Y365037D01*
X56275Y364840D01*
X56366Y364642D01*
Y364636D01*
X56380Y364621D01*
X56394Y364593D01*
X56415Y364558D01*
X56451Y364516D01*
X56486Y364467D01*
X56577Y364354D01*
X56697Y364220D01*
X56838Y364087D01*
X57014Y363953D01*
X57210Y363826D01*
X57203Y363819D01*
X57182Y363805D01*
X57154Y363777D01*
X57119Y363742D01*
X57070Y363700D01*
X57021Y363651D01*
X56957Y363594D01*
X56894Y363524D01*
X56760Y363376D01*
X56620Y363207D01*
X56486Y363024D01*
X56366Y362827D01*
Y362820D01*
X56352Y362799D01*
X56338Y362771D01*
X56324Y362736D01*
X56303Y362679D01*
X56275Y362623D01*
X56254Y362553D01*
X56226Y362482D01*
X56197Y362398D01*
X56176Y362307D01*
X56127Y362110D01*
X56099Y361899D01*
X56085Y361673D01*
Y365754D01*
X56092Y365705D01*
D02*
G37*
G36*
Y361540D02*
Y361476D01*
X56099Y361399D01*
X56113Y361308D01*
X56127Y361216D01*
X56162Y361012D01*
X56218Y360787D01*
X56296Y360569D01*
X56345Y360463D01*
X56401Y360358D01*
Y360351D01*
X56415Y360337D01*
X56437Y360308D01*
X56458Y360266D01*
X56493Y360224D01*
X56535Y360175D01*
X56584Y360118D01*
X56634Y360055D01*
X56697Y359992D01*
X56767Y359929D01*
X56845Y359858D01*
X56929Y359795D01*
X57014Y359731D01*
X57112Y359668D01*
X57330Y359556D01*
X57337D01*
X57351Y359549D01*
X57379Y359534D01*
X57414Y359528D01*
X57464Y359506D01*
X57527Y359492D01*
X57597Y359478D01*
X57682Y359457D01*
X57780Y359436D01*
X57886Y359422D01*
X58005Y359401D01*
X58139Y359387D01*
X58280Y359380D01*
X58442Y359366D01*
X58611Y359359D01*
X56085D01*
Y361596D01*
X56092Y361540D01*
D02*
G37*
G36*
X44231Y366908D02*
X45272D01*
X45258Y366894D01*
X45223Y366866D01*
X45160Y366817D01*
X45082Y366739D01*
X44998Y366648D01*
X44892Y366542D01*
X44787Y366415D01*
X44674Y366268D01*
X44562Y366113D01*
X44456Y365937D01*
X44350Y365740D01*
X44266Y365536D01*
X44189Y365318D01*
X44125Y365086D01*
X44090Y364840D01*
X44076Y364579D01*
Y368639D01*
X44231D01*
Y366908D01*
D02*
G37*
G36*
X59173Y353301D02*
X59166D01*
X59138D01*
X59096Y353308D01*
X59040D01*
X58969Y353315D01*
X58892Y353329D01*
X58808Y353343D01*
X58716Y353364D01*
X58519Y353413D01*
X58315Y353491D01*
X58210Y353533D01*
X58118Y353589D01*
X58027Y353653D01*
X57942Y353723D01*
X57935Y353730D01*
X57921Y353744D01*
X57900Y353765D01*
X57872Y353793D01*
X57844Y353835D01*
X57808Y353878D01*
X57766Y353934D01*
X57724Y353997D01*
X57647Y354138D01*
X57576Y354300D01*
X57555Y354391D01*
X57534Y354490D01*
X57520Y354588D01*
X57513Y354694D01*
Y354750D01*
X57520Y354792D01*
X57527Y354849D01*
X57534Y354912D01*
X57548Y354975D01*
X57569Y355053D01*
X57626Y355207D01*
X57661Y355292D01*
X57703Y355376D01*
X57752Y355468D01*
X57816Y355545D01*
X57886Y355630D01*
X57963Y355707D01*
X57970Y355714D01*
X57984Y355721D01*
X58013Y355742D01*
X58048Y355770D01*
X58090Y355798D01*
X58146Y355834D01*
X58210Y355869D01*
X58280Y355904D01*
X58364Y355946D01*
X58456Y355981D01*
X58554Y356010D01*
X58660Y356045D01*
X58780Y356066D01*
X58899Y356087D01*
X59033Y356101D01*
X59173D01*
Y353301D01*
D02*
G37*
G36*
X60391Y356122D02*
X60447D01*
X60517Y356115D01*
X60602Y356101D01*
X60686Y356087D01*
X60785Y356066D01*
X60996Y356017D01*
X61101Y355981D01*
X61207Y355939D01*
X61312Y355883D01*
X61418Y355827D01*
X61516Y355763D01*
X61608Y355686D01*
X61615Y355679D01*
X61629Y355665D01*
X61650Y355644D01*
X61678Y355609D01*
X61713Y355566D01*
X61756Y355510D01*
X61791Y355454D01*
X61833Y355383D01*
X61882Y355313D01*
X61917Y355229D01*
X61995Y355046D01*
X62023Y354940D01*
X62044Y354835D01*
X62058Y354722D01*
X62065Y354602D01*
Y354560D01*
X62058Y354525D01*
X62051Y354448D01*
X62037Y354342D01*
X62009Y354230D01*
X61967Y354103D01*
X61910Y353983D01*
X61833Y353864D01*
Y353857D01*
X61819Y353850D01*
X61784Y353814D01*
X61727Y353758D01*
X61643Y353695D01*
X61537Y353617D01*
X61404Y353540D01*
X61249Y353470D01*
X61059Y353406D01*
X61369Y351549D01*
X61383Y351556D01*
X61411Y351563D01*
X61467Y351584D01*
X61537Y351619D01*
X61622Y351654D01*
X61720Y351704D01*
X61833Y351760D01*
X61946Y351830D01*
X62072Y351901D01*
X62199Y351985D01*
X62333Y352084D01*
X62459Y352182D01*
X62586Y352295D01*
X62712Y352414D01*
X62825Y352548D01*
X62931Y352689D01*
X62938Y352696D01*
X62952Y352724D01*
X62980Y352766D01*
X63015Y352829D01*
X63050Y352907D01*
X63099Y352991D01*
X63142Y353104D01*
X63191Y353223D01*
X63240Y353357D01*
X63289Y353498D01*
X63339Y353660D01*
X63374Y353829D01*
X63409Y354011D01*
X63437Y354208D01*
X63451Y354412D01*
X63458Y354623D01*
Y351450D01*
X60313D01*
Y356129D01*
X60320D01*
X60348D01*
X60391Y356122D01*
D02*
G37*
G36*
X58090Y348594D02*
X58132Y348580D01*
X58189Y348559D01*
X58245Y348523D01*
X58301Y348481D01*
X58357Y348418D01*
X58364Y348404D01*
X58378Y348383D01*
X58393Y348355D01*
X58407Y348312D01*
X58435Y348256D01*
X58463Y348193D01*
X58491Y348108D01*
X58526Y348003D01*
X58561Y347883D01*
X58611Y347743D01*
X58653Y347581D01*
X58702Y347391D01*
X58758Y347180D01*
X58815Y346948D01*
X58850Y346814D01*
X58878Y346680D01*
Y346673D01*
X58885Y346666D01*
Y346645D01*
X58892Y346617D01*
X58913Y346539D01*
X58941Y346441D01*
X58969Y346314D01*
X59012Y346174D01*
X59054Y346026D01*
X59110Y345857D01*
X59230Y345519D01*
X59300Y345343D01*
X59370Y345174D01*
X59448Y345006D01*
X59532Y344858D01*
X59617Y344717D01*
X59708Y344598D01*
X59715Y344590D01*
X59729Y344569D01*
X59757Y344541D01*
X59800Y344506D01*
X59849Y344457D01*
X59912Y344408D01*
X59983Y344358D01*
X60067Y344302D01*
X60166Y344246D01*
X60264Y344197D01*
X60377Y344140D01*
X60503Y344098D01*
X60637Y344063D01*
X60778Y344035D01*
X60932Y344014D01*
X61094Y344007D01*
X56085D01*
Y347229D01*
X56092Y347130D01*
X56099Y347011D01*
X56113Y346877D01*
X56127Y346722D01*
X56141Y346553D01*
X56169Y346385D01*
X56204Y346209D01*
X56240Y346026D01*
X56289Y345850D01*
X56338Y345674D01*
X56408Y345512D01*
X56479Y345357D01*
X56563Y345217D01*
X56570Y345210D01*
X56584Y345188D01*
X56612Y345146D01*
X56648Y345104D01*
X56704Y345048D01*
X56760Y344977D01*
X56831Y344907D01*
X56915Y344830D01*
X57006Y344752D01*
X57112Y344668D01*
X57224Y344590D01*
X57351Y344513D01*
X57485Y344436D01*
X57633Y344365D01*
X57787Y344302D01*
X57956Y344246D01*
X58280Y346005D01*
X58273D01*
X58259Y346012D01*
X58238Y346019D01*
X58210Y346026D01*
X58139Y346061D01*
X58048Y346103D01*
X57949Y346166D01*
X57844Y346237D01*
X57745Y346328D01*
X57654Y346441D01*
X57647Y346455D01*
X57633Y346476D01*
X57619Y346497D01*
X57604Y346532D01*
X57583Y346568D01*
X57541Y346666D01*
X57499Y346793D01*
X57464Y346948D01*
X57436Y347130D01*
X57429Y347335D01*
Y347454D01*
X57436Y347517D01*
X57443Y347588D01*
Y347658D01*
X57457Y347743D01*
X57478Y347918D01*
X57520Y348094D01*
X57569Y348256D01*
X57604Y348326D01*
X57640Y348390D01*
X57647Y348397D01*
X57668Y348425D01*
X57696Y348453D01*
X57738Y348495D01*
X57794Y348531D01*
X57858Y348566D01*
X57935Y348594D01*
X58020Y348601D01*
X58027D01*
X58055D01*
X58090Y348594D01*
D02*
G37*
G36*
X47165Y344773D02*
X47158D01*
X47130D01*
X47087Y344781D01*
X47031D01*
X46961Y344787D01*
X46883Y344802D01*
X46799Y344816D01*
X46707Y344837D01*
X46510Y344886D01*
X46306Y344963D01*
X46201Y345006D01*
X46109Y345062D01*
X46018Y345125D01*
X45933Y345196D01*
X45926Y345203D01*
X45912Y345217D01*
X45891Y345238D01*
X45863Y345266D01*
X45835Y345308D01*
X45800Y345350D01*
X45758Y345407D01*
X45715Y345470D01*
X45638Y345611D01*
X45568Y345773D01*
X45546Y345864D01*
X45525Y345962D01*
X45511Y346061D01*
X45504Y346166D01*
Y346223D01*
X45511Y346265D01*
X45518Y346321D01*
X45525Y346385D01*
X45539Y346448D01*
X45561Y346525D01*
X45617Y346680D01*
X45652Y346765D01*
X45694Y346849D01*
X45743Y346940D01*
X45807Y347018D01*
X45877Y347102D01*
X45955Y347180D01*
X45962Y347187D01*
X45976Y347194D01*
X46004Y347215D01*
X46039Y347243D01*
X46081Y347271D01*
X46137Y347306D01*
X46201Y347341D01*
X46271Y347377D01*
X46356Y347419D01*
X46447Y347454D01*
X46546Y347482D01*
X46651Y347517D01*
X46771Y347538D01*
X46890Y347560D01*
X47024Y347574D01*
X47165D01*
Y344773D01*
D02*
G37*
M02*
