G04*
G04 #@! TF.GenerationSoftware,Altium Limited,Altium Designer,23.6.0 (18)*
G04*
G04 Layer_Physical_Order=4*
G04 Layer_Color=16711680*
%FSLAX44Y44*%
%MOMM*%
G71*
G04*
G04 #@! TF.SameCoordinates,AD488519-FD06-4120-8DA1-5AB69FE218D1*
G04*
G04*
G04 #@! TF.FilePolarity,Positive*
G04*
G01*
G75*
%ADD13C,0.1270*%
%ADD14C,0.2540*%
%ADD29R,4.0000X1.0000*%
%ADD32R,1.0000X4.0000*%
%ADD134C,0.1468*%
%ADD135C,0.4572*%
%ADD136C,0.1905*%
%ADD142C,0.1778*%
%ADD143C,0.3810*%
%ADD145C,0.1313*%
%ADD147C,1.5240*%
%ADD148C,0.4000*%
%ADD149C,0.5000*%
%ADD150C,2.3749*%
%ADD151C,0.9906*%
%ADD152O,1.1000X2.2000*%
%ADD153O,1.3000X2.6000*%
%ADD154O,1.8000X3.3000*%
%ADD155O,3.8000X2.0000*%
%ADD156C,0.9000*%
%ADD157C,0.3500*%
%ADD158C,0.3500*%
%ADD159C,0.3000*%
%ADD160C,5.0800*%
G36*
X544000Y1313627D02*
Y1135000D01*
X640620D01*
Y100063D01*
X640711Y99844D01*
X640247Y90393D01*
X638826Y80816D01*
X636474Y71424D01*
X633212Y62309D01*
X629072Y53556D01*
X624095Y45252D01*
X618327Y37475D01*
X611825Y30301D01*
X604652Y23800D01*
X596875Y18032D01*
X588571Y13055D01*
X579818Y8915D01*
X570703Y5653D01*
X561311Y3301D01*
X551734Y1880D01*
X542283Y1416D01*
X542063Y1507D01*
X100063D01*
X99844Y1416D01*
X90393Y1880D01*
X80816Y3301D01*
X71424Y5653D01*
X62309Y8915D01*
X53556Y13055D01*
X45252Y18032D01*
X37475Y23800D01*
X30301Y30301D01*
X23800Y37475D01*
X18032Y45252D01*
X13055Y53556D01*
X8915Y62309D01*
X5653Y71424D01*
X3301Y80816D01*
X1880Y90393D01*
X1416Y99844D01*
X1507Y100063D01*
Y1215000D01*
X180000D01*
Y1313620D01*
X542063D01*
X542283Y1313711D01*
X544000Y1313627D01*
D02*
G37*
%LPC*%
G36*
X528040Y1310320D02*
X521770D01*
Y1289050D01*
X528040D01*
Y1310320D01*
D02*
G37*
G36*
X477040D02*
X470770D01*
Y1289050D01*
X477040D01*
Y1310320D01*
D02*
G37*
G36*
X519230D02*
X512960D01*
Y1289050D01*
X519230D01*
Y1310320D01*
D02*
G37*
G36*
X468230D02*
X461960D01*
Y1289050D01*
X468230D01*
Y1310320D01*
D02*
G37*
G36*
X528040Y1286510D02*
X521770D01*
Y1265240D01*
X528040D01*
Y1286510D01*
D02*
G37*
G36*
X519230D02*
X512960D01*
Y1265240D01*
X519230D01*
Y1286510D01*
D02*
G37*
G36*
X477040D02*
X470770D01*
Y1265240D01*
X477040D01*
Y1286510D01*
D02*
G37*
G36*
X468230D02*
X461960D01*
Y1265240D01*
X468230D01*
Y1286510D01*
D02*
G37*
G36*
X415601Y1288470D02*
X414399D01*
X413289Y1288010D01*
X412440Y1287161D01*
X411980Y1286051D01*
Y1284849D01*
X412440Y1283739D01*
X413058Y1283121D01*
Y1259791D01*
X413205Y1259047D01*
X413627Y1258417D01*
X418183Y1253861D01*
Y1234734D01*
X416913Y1234208D01*
X416911Y1234210D01*
X415801Y1234670D01*
X414599D01*
X413489Y1234210D01*
X412640Y1233361D01*
X412180Y1232251D01*
Y1231377D01*
X378745Y1197942D01*
X318000D01*
X317257Y1197794D01*
X316627Y1197373D01*
X314193Y1194940D01*
X313450Y1195231D01*
X313020Y1195563D01*
Y1196601D01*
X312560Y1197711D01*
X312043Y1198228D01*
Y1242154D01*
X316964Y1247074D01*
X317715D01*
X318825Y1247534D01*
X319675Y1248383D01*
X320135Y1249493D01*
Y1250695D01*
X319675Y1251805D01*
X318825Y1252654D01*
X317715Y1253114D01*
X316514D01*
X315404Y1252654D01*
X314554Y1251805D01*
X314095Y1250695D01*
Y1249984D01*
X308555Y1244445D01*
X308112Y1243782D01*
X307957Y1243000D01*
Y1198228D01*
X307440Y1197711D01*
X306980Y1196601D01*
Y1195399D01*
X307440Y1194289D01*
X308289Y1193440D01*
X309399Y1192980D01*
X310437D01*
X310769Y1192550D01*
X311060Y1191807D01*
X285627Y1166373D01*
X285206Y1165743D01*
X285058Y1165000D01*
Y1161304D01*
X235273Y1111520D01*
X234399D01*
X233289Y1111060D01*
X232440Y1110211D01*
X231980Y1109101D01*
Y1107899D01*
X232440Y1106789D01*
X233289Y1105940D01*
X234399Y1105480D01*
X235601D01*
X236711Y1105940D01*
X237560Y1106789D01*
X238020Y1107899D01*
Y1108773D01*
X288373Y1159127D01*
X288794Y1159757D01*
X288942Y1160500D01*
Y1164195D01*
X318804Y1194058D01*
X379550D01*
X380293Y1194205D01*
X380923Y1194627D01*
X414927Y1228630D01*
X415801D01*
X416911Y1229090D01*
X416913Y1229092D01*
X418183Y1228566D01*
Y1223449D01*
X385601Y1190867D01*
X318425D01*
X317682Y1190720D01*
X317052Y1190298D01*
X291404Y1164651D01*
X290983Y1164021D01*
X290835Y1163278D01*
Y1155582D01*
X242773Y1107520D01*
X241899D01*
X240789Y1107060D01*
X239940Y1106211D01*
X239480Y1105101D01*
Y1103899D01*
X239940Y1102789D01*
X240517Y1102212D01*
X240135Y1100953D01*
X240127Y1100942D01*
X152500D01*
X152500Y1100942D01*
X151757Y1100795D01*
X151127Y1100373D01*
X151126Y1100373D01*
X123269Y1072516D01*
X96083D01*
X95557Y1073786D01*
X95560Y1073789D01*
X96020Y1074899D01*
Y1076101D01*
X95560Y1077211D01*
X94942Y1077829D01*
Y1100171D01*
X95560Y1100789D01*
X96020Y1101899D01*
Y1101902D01*
X97290Y1102428D01*
X102622Y1097096D01*
Y1080893D01*
X102004Y1080275D01*
X101544Y1079165D01*
Y1077963D01*
X102004Y1076853D01*
X102853Y1076004D01*
X103963Y1075544D01*
X105165D01*
X106275Y1076004D01*
X107124Y1076853D01*
X107584Y1077963D01*
Y1079165D01*
X107124Y1080275D01*
X106506Y1080893D01*
Y1097901D01*
X106506Y1097901D01*
X106359Y1098644D01*
X105938Y1099274D01*
X105938Y1099274D01*
X91704Y1113508D01*
X91073Y1113929D01*
X90330Y1114077D01*
X86130D01*
X86060Y1114246D01*
X85211Y1115095D01*
X84294Y1115475D01*
X83933Y1116612D01*
X83912Y1116748D01*
X84528Y1117528D01*
X98260D01*
X110162Y1105627D01*
X110792Y1105206D01*
X111535Y1105058D01*
X218671D01*
X219289Y1104440D01*
X220399Y1103980D01*
X221601D01*
X222711Y1104440D01*
X223529Y1105258D01*
X224700D01*
X225443Y1105406D01*
X226073Y1105827D01*
X263873Y1143626D01*
X263873Y1143627D01*
X264294Y1144257D01*
X264442Y1145000D01*
Y1203500D01*
X264294Y1204243D01*
X263873Y1204873D01*
X250373Y1218373D01*
X249743Y1218794D01*
X249000Y1218942D01*
X238829D01*
X238211Y1219560D01*
X237101Y1220020D01*
X235899D01*
X234789Y1219560D01*
X233940Y1218711D01*
X233480Y1217601D01*
Y1216399D01*
X233940Y1215289D01*
X234789Y1214440D01*
X235899Y1213980D01*
X237101D01*
X238211Y1214440D01*
X238829Y1215058D01*
X248195D01*
X260558Y1202695D01*
Y1145805D01*
X223896Y1109142D01*
X223129D01*
X222711Y1109560D01*
X221601Y1110020D01*
X220399D01*
X219289Y1109560D01*
X218671Y1108942D01*
X112339D01*
X100438Y1120844D01*
X99808Y1121265D01*
X99065Y1121413D01*
X83470D01*
X82727Y1121265D01*
X82097Y1120844D01*
X76712Y1115459D01*
X75442Y1115985D01*
Y1139180D01*
X75294Y1139923D01*
X74941Y1140452D01*
Y1181195D01*
X76227Y1182480D01*
X77101D01*
X78211Y1182940D01*
X79060Y1183789D01*
X79520Y1184899D01*
Y1186101D01*
X79060Y1187211D01*
X78211Y1188060D01*
X77101Y1188520D01*
X77101D01*
X76575Y1189790D01*
X77741Y1190957D01*
X83272D01*
X83789Y1190440D01*
X84899Y1189980D01*
X86101D01*
X87211Y1190440D01*
X88060Y1191289D01*
X88520Y1192399D01*
Y1193601D01*
X88060Y1194711D01*
X87211Y1195560D01*
X86101Y1196020D01*
X84899D01*
X83789Y1195560D01*
X83272Y1195043D01*
X76895D01*
X76113Y1194888D01*
X75450Y1194445D01*
X64257Y1183252D01*
X63814Y1182589D01*
X63659Y1181807D01*
Y1124048D01*
X53555Y1113945D01*
X53112Y1113282D01*
X52957Y1112500D01*
Y1073895D01*
X53112Y1073113D01*
X53555Y1072450D01*
X75474Y1050531D01*
X76137Y1050088D01*
X76919Y1049933D01*
X84323D01*
X85105Y1050088D01*
X85768Y1050531D01*
X90617Y1055380D01*
X94743D01*
X94871Y1055252D01*
X95981Y1054792D01*
X97182D01*
X98292Y1055252D01*
X99142Y1056102D01*
X99601Y1057212D01*
Y1058413D01*
X99142Y1059523D01*
X98292Y1060373D01*
X97182Y1060832D01*
X97219Y1061250D01*
X98154Y1062058D01*
X127553D01*
X128297Y1062206D01*
X128927Y1062627D01*
X140101Y1073801D01*
X166919D01*
X167062Y1073706D01*
X167805Y1073558D01*
X167805Y1073558D01*
X171671D01*
X172289Y1072940D01*
X173399Y1072480D01*
X174601D01*
X175711Y1072940D01*
X176560Y1073789D01*
X177020Y1074899D01*
Y1076101D01*
X176560Y1077211D01*
X175711Y1078060D01*
X174601Y1078520D01*
X173399D01*
X172289Y1078060D01*
X171671Y1077442D01*
X168448D01*
X168305Y1077538D01*
X167562Y1077685D01*
X140728D01*
X140202Y1078955D01*
X147546Y1086299D01*
X365741D01*
X366485Y1086447D01*
X367115Y1086868D01*
X435804Y1155558D01*
X491500D01*
X492243Y1155705D01*
X492873Y1156127D01*
X505373Y1168627D01*
X505794Y1169257D01*
X505942Y1170000D01*
Y1237171D01*
X506560Y1237789D01*
X507020Y1238899D01*
Y1240101D01*
X506560Y1241211D01*
X505711Y1242060D01*
X504601Y1242520D01*
X503399D01*
X502289Y1242060D01*
X501440Y1241211D01*
X500980Y1240101D01*
X500978Y1240100D01*
X499710Y1239849D01*
X499560Y1240211D01*
X498711Y1241060D01*
X497601Y1241520D01*
X496399D01*
X495289Y1241060D01*
X494440Y1240211D01*
X493980Y1239101D01*
Y1238227D01*
X356696Y1100942D01*
X244873D01*
X244865Y1100953D01*
X244483Y1102212D01*
X245060Y1102789D01*
X245520Y1103899D01*
Y1104773D01*
X294151Y1153404D01*
X294572Y1154034D01*
X294720Y1154778D01*
Y1162473D01*
X318743Y1186496D01*
X319451Y1186390D01*
X319463Y1186383D01*
X320170Y1185059D01*
X319980Y1184601D01*
Y1183399D01*
X320440Y1182289D01*
X320957Y1181772D01*
Y1175841D01*
X311555Y1166440D01*
X311112Y1165777D01*
X310957Y1164995D01*
Y1141425D01*
X311112Y1140643D01*
X311555Y1139980D01*
X315757Y1135779D01*
Y1127228D01*
X315240Y1126711D01*
X314780Y1125601D01*
Y1124399D01*
X315240Y1123289D01*
X316089Y1122440D01*
X317199Y1121980D01*
X318401D01*
X319511Y1122440D01*
X320360Y1123289D01*
X320820Y1124399D01*
Y1125601D01*
X320360Y1126711D01*
X319843Y1127228D01*
Y1136625D01*
X319688Y1137407D01*
X319245Y1138070D01*
X315043Y1142271D01*
Y1164149D01*
X324445Y1173550D01*
X324888Y1174213D01*
X325043Y1174995D01*
Y1181772D01*
X325560Y1182289D01*
X326020Y1183399D01*
Y1184601D01*
X325560Y1185711D01*
X325558Y1185713D01*
X326084Y1186983D01*
X386405D01*
X387149Y1187131D01*
X387779Y1187552D01*
X421498Y1221271D01*
X421498Y1221271D01*
X421920Y1221902D01*
X422067Y1222645D01*
Y1254666D01*
X422067Y1254666D01*
X421920Y1255409D01*
X421498Y1256039D01*
X416942Y1260595D01*
Y1283121D01*
X417560Y1283739D01*
X418020Y1284849D01*
Y1286051D01*
X417560Y1287161D01*
X416711Y1288010D01*
X415601Y1288470D01*
D02*
G37*
G36*
X241101Y1212020D02*
X239899D01*
X238789Y1211560D01*
X237940Y1210711D01*
X237480Y1209601D01*
Y1208943D01*
X236210Y1208418D01*
X234064Y1210564D01*
X232887Y1211350D01*
X231500Y1211626D01*
X231500Y1211626D01*
X213500D01*
X212113Y1211350D01*
X210936Y1210564D01*
X210150Y1209388D01*
X209874Y1208000D01*
X210150Y1206612D01*
X210936Y1205436D01*
X212113Y1204650D01*
X213500Y1204374D01*
X229998D01*
X247074Y1187298D01*
Y1148800D01*
X247249Y1147922D01*
X246595Y1146726D01*
X246400Y1146549D01*
X245794Y1146464D01*
X244020Y1148238D01*
Y1148601D01*
X243560Y1149711D01*
X242711Y1150560D01*
X241601Y1151020D01*
X240399D01*
X239289Y1150560D01*
X238440Y1149711D01*
X237980Y1148601D01*
Y1147399D01*
X238440Y1146289D01*
X239289Y1145440D01*
X240399Y1144980D01*
X241601D01*
X241730Y1145034D01*
X244263Y1142502D01*
X244893Y1142081D01*
X245636Y1141933D01*
X252740D01*
X253483Y1142081D01*
X254113Y1142502D01*
X256998Y1145387D01*
X256998Y1145387D01*
X257419Y1146017D01*
X257567Y1146760D01*
X257567Y1146760D01*
Y1194875D01*
X257567Y1194875D01*
X257419Y1195618D01*
X256998Y1196248D01*
X256998Y1196248D01*
X247203Y1206044D01*
X247203Y1206044D01*
X244143Y1209103D01*
X243520Y1209520D01*
Y1209601D01*
X243060Y1210711D01*
X242211Y1211560D01*
X241101Y1212020D01*
D02*
G37*
G36*
X47940Y1208040D02*
X26670D01*
Y1201770D01*
X47940D01*
Y1208040D01*
D02*
G37*
G36*
X24130D02*
X2860D01*
Y1201770D01*
X24130D01*
Y1208040D01*
D02*
G37*
G36*
X47940Y1199230D02*
X26670D01*
Y1192960D01*
X47940D01*
Y1199230D01*
D02*
G37*
G36*
X24130D02*
X2860D01*
Y1192960D01*
X24130D01*
Y1199230D01*
D02*
G37*
G36*
X47940Y1157040D02*
X26670D01*
Y1150770D01*
X47940D01*
Y1157040D01*
D02*
G37*
G36*
X24130D02*
X2860D01*
Y1150770D01*
X24130D01*
Y1157040D01*
D02*
G37*
G36*
X516000Y1251626D02*
X514613Y1251350D01*
X513436Y1250564D01*
X512650Y1249388D01*
X512374Y1248000D01*
Y1161858D01*
X499642Y1149126D01*
X453000D01*
X453000Y1149126D01*
X451613Y1148850D01*
X450436Y1148064D01*
X431747Y1129375D01*
X416500D01*
X415528Y1128972D01*
X404028Y1117472D01*
X403625Y1116500D01*
X403625Y1116500D01*
Y1111625D01*
X403625Y1111625D01*
X403625Y1111625D01*
Y1062125D01*
X403625Y1062125D01*
Y989490D01*
X402355Y988784D01*
X401786Y989020D01*
X400584D01*
X399474Y988560D01*
X398625Y987711D01*
X398165Y986601D01*
Y986093D01*
X395273Y983201D01*
X369070D01*
X368711Y983560D01*
X367601Y984020D01*
X366399D01*
X365289Y983560D01*
X364440Y982711D01*
X363980Y981601D01*
Y980399D01*
X364440Y979289D01*
X365289Y978440D01*
X366399Y977980D01*
X367601D01*
X368711Y978440D01*
X369070Y978799D01*
X396185D01*
X397028Y978966D01*
X397742Y979444D01*
X401278Y982980D01*
X401786D01*
X402355Y983216D01*
X403625Y982510D01*
Y972375D01*
X316126D01*
Y989800D01*
X316126Y989800D01*
X315850Y991187D01*
X315064Y992364D01*
X315064Y992364D01*
X289764Y1017663D01*
X288588Y1018449D01*
X287200Y1018725D01*
X287200Y1018725D01*
X261402D01*
X253564Y1026564D01*
X252388Y1027350D01*
X251000Y1027626D01*
X249613Y1027350D01*
X248436Y1026564D01*
X247650Y1025387D01*
X247374Y1024000D01*
X247650Y1022613D01*
X248436Y1021436D01*
X257337Y1012536D01*
X257337Y1012536D01*
X258513Y1011750D01*
X259901Y1011474D01*
X285699D01*
X288802Y1008371D01*
X288276Y1007101D01*
X254332D01*
X252945Y1006825D01*
X251768Y1006039D01*
X251768Y1006039D01*
X220290Y974560D01*
X219020Y975086D01*
Y975601D01*
X218560Y976711D01*
X217711Y977560D01*
X216601Y978020D01*
X215399D01*
X214289Y977560D01*
X213440Y976711D01*
X212980Y975601D01*
Y974727D01*
X157648Y919395D01*
X54551D01*
X51572Y922373D01*
X50942Y922794D01*
X50198Y922942D01*
X40329D01*
X39711Y923560D01*
X38601Y924020D01*
X37399D01*
X36289Y923560D01*
X35440Y922711D01*
X34980Y921601D01*
Y920399D01*
X35440Y919289D01*
X36289Y918440D01*
X37399Y917980D01*
X38601D01*
X39711Y918440D01*
X40329Y919058D01*
X49394D01*
X52373Y916079D01*
X52480Y916007D01*
X52095Y914737D01*
X25500D01*
X24261Y914491D01*
X23211Y913789D01*
X22509Y912739D01*
X22263Y911500D01*
X22509Y910261D01*
X23211Y909211D01*
X24261Y908509D01*
X25500Y908263D01*
X152196D01*
X152722Y906993D01*
X105996Y860266D01*
X104704Y860412D01*
X104472Y860972D01*
X104472Y860972D01*
X95972Y869472D01*
X95000Y869875D01*
X95000Y869875D01*
X79000D01*
X78028Y869472D01*
X78028Y869472D01*
X69028Y860472D01*
X68625Y859500D01*
X68625Y859500D01*
Y387000D01*
X69028Y386028D01*
X69028Y386028D01*
X170125Y284931D01*
Y247000D01*
Y244000D01*
Y209500D01*
X170125Y209500D01*
X170528Y208528D01*
X170625Y208431D01*
Y195500D01*
X171028Y194528D01*
X171028Y194528D01*
X173028Y192528D01*
X174000Y192125D01*
X174000Y192125D01*
X213000D01*
X213972Y192528D01*
X214375Y193500D01*
Y225558D01*
X213972Y226530D01*
X211030Y229472D01*
X210058Y229875D01*
X210058Y229875D01*
X190875D01*
Y246500D01*
Y318000D01*
X190472Y318972D01*
X190472Y318972D01*
X104875Y404569D01*
Y799374D01*
X134098D01*
X155758Y777715D01*
X155210Y775670D01*
Y773330D01*
X155816Y771069D01*
X156986Y769041D01*
X158641Y767386D01*
X160669Y766216D01*
X162930Y765610D01*
X165270D01*
X167531Y766216D01*
X169559Y767386D01*
X171214Y769041D01*
X172384Y771069D01*
X172990Y773330D01*
Y775670D01*
X172384Y777931D01*
X171214Y779959D01*
X169559Y781614D01*
X167531Y782784D01*
X165270Y783390D01*
X162930D01*
X160885Y782842D01*
X138164Y805564D01*
X136987Y806350D01*
X135600Y806626D01*
X135600Y806626D01*
X104875D01*
Y852874D01*
X107357D01*
X107357Y852874D01*
X108745Y853150D01*
X109921Y853936D01*
X149588Y893603D01*
X150763Y893000D01*
X151009Y891761D01*
X151711Y890711D01*
X152761Y890009D01*
X154000Y889763D01*
X170000D01*
X171239Y890009D01*
X172213Y890660D01*
X172523Y890593D01*
X173483Y890108D01*
Y871926D01*
X173346Y871722D01*
X173198Y870978D01*
Y846702D01*
X173346Y845958D01*
X173767Y845328D01*
X195157Y823939D01*
X195787Y823518D01*
X196530Y823370D01*
X196530Y823370D01*
X213859D01*
X214289Y822940D01*
X215399Y822480D01*
X216601D01*
X217711Y822940D01*
X218560Y823789D01*
X219020Y824899D01*
Y826101D01*
X218560Y827211D01*
X217711Y828060D01*
X216601Y828520D01*
X215399D01*
X214289Y828060D01*
X213483Y827254D01*
X209012D01*
X208759Y828524D01*
X209725Y828924D01*
X211476Y830675D01*
X212423Y832962D01*
Y835438D01*
X211476Y837725D01*
X209725Y839476D01*
X207438Y840423D01*
X204962D01*
X202675Y839476D01*
X200924Y837725D01*
X199977Y835438D01*
Y832962D01*
X200924Y830675D01*
X202675Y828924D01*
X203641Y828524D01*
X203388Y827254D01*
X197335D01*
X183931Y840658D01*
X184711Y841674D01*
X185876Y841001D01*
X189219Y840106D01*
X192680D01*
X196024Y841001D01*
X199021Y842732D01*
X201468Y845179D01*
X203199Y848176D01*
X204095Y851519D01*
Y854980D01*
X203199Y858324D01*
X201468Y861321D01*
X199021Y863768D01*
X196024Y865499D01*
X192680Y866395D01*
X189219D01*
X185876Y865499D01*
X182879Y863768D01*
X180432Y861321D01*
X178701Y858324D01*
X178353Y857023D01*
X177083Y857190D01*
Y870315D01*
X177220Y870520D01*
X177367Y871263D01*
Y895540D01*
X177220Y896283D01*
X177083Y896488D01*
Y906460D01*
X178353Y906627D01*
X178701Y905326D01*
X180432Y902329D01*
X182879Y899882D01*
X185876Y898151D01*
X189219Y897255D01*
X192680D01*
X196024Y898151D01*
X197433Y898965D01*
X198324Y898013D01*
X198206Y897835D01*
X198058Y897092D01*
Y887829D01*
X197440Y887211D01*
X196980Y886101D01*
Y884899D01*
X197440Y883789D01*
X198289Y882940D01*
X199399Y882480D01*
X200601D01*
X201711Y882940D01*
X202560Y883789D01*
X203020Y884899D01*
Y886101D01*
X202560Y887211D01*
X201942Y887829D01*
Y896288D01*
X208133Y902478D01*
X208554Y903108D01*
X208702Y903851D01*
Y924675D01*
X211007Y926980D01*
X211601D01*
X212711Y927440D01*
X213560Y928289D01*
X214020Y929399D01*
Y930601D01*
X213560Y931711D01*
X212711Y932560D01*
X211601Y933020D01*
X210399D01*
X209289Y932560D01*
X208440Y931711D01*
X207980Y930601D01*
Y929447D01*
X205386Y926853D01*
X204965Y926223D01*
X204817Y925480D01*
Y914340D01*
X203547Y914173D01*
X203199Y915474D01*
X201468Y918471D01*
X199021Y920918D01*
X196024Y922649D01*
X192680Y923544D01*
X189219D01*
X185876Y922649D01*
X184711Y921976D01*
X183931Y922992D01*
X188070Y927131D01*
X190598D01*
X190789Y926940D01*
X191899Y926480D01*
X193101D01*
X194211Y926940D01*
X195060Y927789D01*
X195520Y928899D01*
Y930101D01*
X195060Y931211D01*
X194211Y932060D01*
X193101Y932520D01*
X191899D01*
X190789Y932060D01*
X189970Y931241D01*
X189130Y931257D01*
X188887Y931271D01*
X188416Y932431D01*
X255834Y999849D01*
X289525D01*
X290912Y1000125D01*
X292089Y1000911D01*
X292875Y1002087D01*
X292943Y1002433D01*
X294321Y1002851D01*
X308874Y988298D01*
Y972375D01*
X305250D01*
X305250Y972375D01*
X304278Y971972D01*
X304278Y971972D01*
X302278Y969972D01*
X301875Y969000D01*
X301875Y969000D01*
Y966298D01*
X260673D01*
X260672Y966298D01*
X259285Y966022D01*
X258109Y965236D01*
X258109Y965236D01*
X255936Y963064D01*
X255150Y961888D01*
X254874Y960500D01*
X255150Y959112D01*
X255936Y957936D01*
X257113Y957150D01*
X258500Y956874D01*
X259888Y957150D01*
X261064Y957936D01*
X262174Y959047D01*
X304259D01*
X304278Y959028D01*
X305250Y958625D01*
X305250Y958625D01*
X331563D01*
X334047Y956142D01*
Y933674D01*
X332936Y932564D01*
X332150Y931387D01*
X331874Y930000D01*
X332150Y928613D01*
X332936Y927436D01*
X334113Y926650D01*
X335500Y926374D01*
X336888Y926650D01*
X338064Y927436D01*
X340236Y929609D01*
X340236Y929609D01*
X341022Y930785D01*
X341298Y932172D01*
X341298Y932173D01*
Y957643D01*
X341298Y957644D01*
X341298Y957644D01*
X342104Y958625D01*
X363558D01*
X363826Y958348D01*
X364293Y957355D01*
X363980Y956601D01*
Y955399D01*
X364440Y954289D01*
X365289Y953440D01*
X366399Y952980D01*
X367601D01*
X368711Y953440D01*
X369070Y953799D01*
X395229D01*
X395440Y953289D01*
X396289Y952440D01*
X397399Y951980D01*
X398601D01*
X399711Y952440D01*
X400560Y953289D01*
X401020Y954399D01*
Y955601D01*
X400560Y956711D01*
X399916Y957355D01*
X400136Y958323D01*
X400305Y958625D01*
X403625D01*
Y897942D01*
X403348Y897674D01*
X402355Y897207D01*
X401601Y897520D01*
X400399D01*
X399289Y897060D01*
X398767Y896538D01*
X358009D01*
X357842Y897808D01*
X359124Y898151D01*
X362121Y899882D01*
X364568Y902329D01*
X366299Y905326D01*
X367195Y908670D01*
Y912131D01*
X366299Y915474D01*
X364568Y918471D01*
X362121Y920918D01*
X359124Y922649D01*
X355780Y923544D01*
X352319D01*
X348976Y922649D01*
X345979Y920918D01*
X343532Y918471D01*
X341801Y915474D01*
X340905Y912131D01*
Y908670D01*
X341801Y905326D01*
X343532Y902329D01*
X345979Y899882D01*
X348976Y898151D01*
X350258Y897808D01*
X350091Y896538D01*
X343512D01*
X342670Y896370D01*
X341956Y895893D01*
X333264Y887201D01*
X317070D01*
X316711Y887560D01*
X315601Y888020D01*
X314399D01*
X313289Y887560D01*
X312440Y886711D01*
X311980Y885601D01*
Y884399D01*
X312440Y883289D01*
X313289Y882440D01*
X314399Y881980D01*
X315601D01*
X316711Y882440D01*
X317070Y882799D01*
X334176D01*
X335018Y882966D01*
X335732Y883444D01*
X344424Y892135D01*
X399094D01*
X399289Y891940D01*
X400399Y891480D01*
X401601D01*
X402355Y891793D01*
X403348Y891326D01*
X403625Y891058D01*
Y871084D01*
X402826Y870748D01*
X402355Y870695D01*
X401608Y871442D01*
X400498Y871902D01*
X399296D01*
X398186Y871442D01*
X397827Y871083D01*
X392272D01*
X391877Y871347D01*
X391035Y871515D01*
X347396D01*
X347388Y871513D01*
X346763Y872684D01*
X348878Y874799D01*
X395930D01*
X396289Y874440D01*
X397399Y873980D01*
X398601D01*
X399711Y874440D01*
X400560Y875289D01*
X401020Y876399D01*
Y877601D01*
X400560Y878711D01*
X399711Y879560D01*
X398601Y880020D01*
X397399D01*
X396289Y879560D01*
X395930Y879201D01*
X347966D01*
X347123Y879034D01*
X346409Y878557D01*
X342373Y874520D01*
X341399D01*
X340289Y874060D01*
X339440Y873211D01*
X338980Y872101D01*
Y870899D01*
X339440Y869789D01*
X340258Y868971D01*
X340252Y868798D01*
X339961Y867701D01*
X317570D01*
X317211Y868060D01*
X316101Y868520D01*
X314899D01*
X313789Y868060D01*
X312940Y867211D01*
X312480Y866101D01*
Y864899D01*
X312829Y864056D01*
X311753Y863336D01*
X311321Y863768D01*
X308324Y865499D01*
X304981Y866395D01*
X301520D01*
X298176Y865499D01*
X295179Y863768D01*
X292732Y861321D01*
X291001Y858324D01*
X290105Y854980D01*
Y851519D01*
X291001Y848176D01*
X292732Y845179D01*
X295179Y842732D01*
X298176Y841001D01*
X301520Y840106D01*
X304981D01*
X308324Y841001D01*
X311321Y842732D01*
X313768Y845179D01*
X315499Y848176D01*
X316395Y851519D01*
Y854980D01*
X315499Y858324D01*
X313768Y861321D01*
X313336Y861753D01*
X314056Y862829D01*
X314899Y862480D01*
X316101D01*
X317211Y862940D01*
X317570Y863299D01*
X343583D01*
X343746Y863331D01*
X344372Y862161D01*
X343532Y861321D01*
X341801Y858324D01*
X340905Y854980D01*
Y851519D01*
X341801Y848176D01*
X343532Y845179D01*
X345979Y842732D01*
X348976Y841001D01*
X352319Y840106D01*
X355780D01*
X359124Y841001D01*
X362121Y842732D01*
X364568Y845179D01*
X366299Y848176D01*
X367195Y851519D01*
Y854980D01*
X366299Y858324D01*
X364568Y861321D01*
X362121Y863768D01*
X359124Y865499D01*
X357842Y865842D01*
X358009Y867112D01*
X390229D01*
X390624Y866848D01*
X391466Y866681D01*
X397827D01*
X398186Y866322D01*
X399173Y865913D01*
X399441Y865339D01*
X399648Y864592D01*
X347528Y812472D01*
X347125Y811500D01*
X347125Y811500D01*
Y791805D01*
X346823Y791636D01*
X345855Y791416D01*
X345211Y792060D01*
X344101Y792520D01*
X342899D01*
X341789Y792060D01*
X341680Y791951D01*
X307320D01*
X306711Y792560D01*
X305601Y793020D01*
X304399D01*
X303289Y792560D01*
X302440Y791711D01*
X301980Y790601D01*
Y789399D01*
X302440Y788289D01*
X303289Y787440D01*
X304399Y786980D01*
X305601D01*
X306711Y787440D01*
X306820Y787549D01*
X341180D01*
X341789Y786940D01*
X342899Y786480D01*
X344101D01*
X345211Y786940D01*
X345855Y787585D01*
X346823Y787364D01*
X347125Y787195D01*
Y739000D01*
X347125Y739000D01*
X347125Y739000D01*
Y713251D01*
X345855Y712998D01*
X345560Y713711D01*
X344711Y714560D01*
X343601Y715020D01*
X342399D01*
X341289Y714560D01*
X340440Y713711D01*
X339980Y712601D01*
Y712093D01*
X285443Y657557D01*
X284966Y656842D01*
X284799Y656000D01*
Y416589D01*
X283532Y416060D01*
X282422Y416520D01*
X281220D01*
X280110Y416060D01*
X279261Y415211D01*
X278801Y414101D01*
Y412899D01*
X279261Y411789D01*
X279410Y411640D01*
Y348863D01*
X259169Y328621D01*
X258607Y327781D01*
X258410Y326790D01*
Y219639D01*
X257980Y218601D01*
Y217399D01*
X258440Y216289D01*
X259289Y215440D01*
X260399Y214980D01*
X261601D01*
X262711Y215440D01*
X263560Y216289D01*
X264020Y217399D01*
Y218601D01*
X263590Y219639D01*
Y325717D01*
X283529Y345656D01*
X284723Y345254D01*
X284799Y345194D01*
Y194091D01*
X283265Y192556D01*
X282787Y191842D01*
X282620Y191000D01*
Y181447D01*
X281350Y180921D01*
X281211Y181060D01*
X280101Y181520D01*
X278899D01*
X277789Y181060D01*
X276940Y180211D01*
X276480Y179101D01*
Y177899D01*
X276940Y176789D01*
X276966Y176764D01*
Y161518D01*
X276590Y160612D01*
Y159411D01*
X277050Y158301D01*
X277900Y157451D01*
X279010Y156992D01*
X280211D01*
X281321Y157451D01*
X282171Y158301D01*
X282630Y159411D01*
Y160612D01*
X282171Y161722D01*
X282145Y161748D01*
Y176994D01*
X282520Y177899D01*
Y178247D01*
X283790Y178773D01*
X352298Y110264D01*
X353012Y109787D01*
X353855Y109620D01*
X375767D01*
X407276Y78111D01*
X407990Y77634D01*
X408833Y77466D01*
X457500D01*
X458342Y77634D01*
X459057Y78111D01*
X468349Y87403D01*
X469365Y86623D01*
X468701Y85474D01*
X467805Y82130D01*
Y78670D01*
X468701Y75326D01*
X470432Y72329D01*
X472879Y69882D01*
X475876Y68151D01*
X479220Y67256D01*
X482681D01*
X486024Y68151D01*
X487169Y68812D01*
X487948Y67796D01*
X483661Y63509D01*
X471011D01*
X470144Y63336D01*
X469409Y62845D01*
X468806Y62242D01*
X467729Y62961D01*
X468123Y63912D01*
Y66388D01*
X467176Y68675D01*
X465425Y70426D01*
X463138Y71373D01*
X460662D01*
X458375Y70426D01*
X456624Y68675D01*
X455677Y66388D01*
Y63912D01*
X456624Y61625D01*
X458375Y59874D01*
X459326Y59481D01*
X459073Y58211D01*
X453945D01*
X453077Y58038D01*
X452342Y57547D01*
X451815Y57020D01*
X451399D01*
X450289Y56560D01*
X449440Y55711D01*
X448980Y54601D01*
Y53399D01*
X449440Y52289D01*
X450289Y51440D01*
X451399Y50980D01*
X452601D01*
X453711Y51440D01*
X454560Y52289D01*
X455020Y53399D01*
Y53678D01*
X465713D01*
X466580Y53851D01*
X467315Y54342D01*
X471950Y58976D01*
X484599D01*
X485467Y59149D01*
X486202Y59640D01*
X501360Y74798D01*
X501851Y75533D01*
X502024Y76400D01*
Y83140D01*
X537685Y118801D01*
X538101D01*
X539211Y119261D01*
X540060Y120110D01*
X540520Y121220D01*
Y122422D01*
X540060Y123532D01*
X540589Y124799D01*
X561589D01*
X563945Y122443D01*
X564659Y121966D01*
X565501Y121799D01*
X597930D01*
X598289Y121440D01*
X599399Y120980D01*
X600601D01*
X601711Y121440D01*
X602560Y122289D01*
X603020Y123399D01*
Y124601D01*
X602560Y125711D01*
X601742Y126529D01*
X601748Y126702D01*
X602039Y127799D01*
X606588D01*
X610480Y123907D01*
Y123399D01*
X610940Y122289D01*
X611789Y121440D01*
X612899Y120980D01*
X614101D01*
X615211Y121440D01*
X616060Y122289D01*
X616520Y123399D01*
Y124601D01*
X616060Y125711D01*
X615211Y126560D01*
X614101Y127020D01*
X613593D01*
X609057Y131557D01*
X608342Y132034D01*
X607500Y132201D01*
X501500D01*
X500658Y132034D01*
X499944Y131557D01*
X456088Y87701D01*
X411588D01*
X408079Y91210D01*
X408601Y92480D01*
X409711Y92940D01*
X410560Y93789D01*
X411020Y94899D01*
Y96101D01*
X410743Y96770D01*
X411190Y97851D01*
X411451Y98116D01*
X412379Y98500D01*
X412673Y98794D01*
X463560D01*
X464427Y98967D01*
X465162Y99458D01*
X481129Y115425D01*
X481620Y116160D01*
X481793Y117027D01*
Y117088D01*
X486185Y121480D01*
X486601D01*
X487711Y121940D01*
X488560Y122789D01*
X489020Y123899D01*
Y125101D01*
X488560Y126211D01*
X487711Y127060D01*
X486601Y127520D01*
X485399D01*
X484289Y127060D01*
X483440Y126211D01*
X482980Y125101D01*
Y124685D01*
X477924Y119629D01*
X477433Y118894D01*
X477261Y118027D01*
Y117965D01*
X462621Y103326D01*
X412673D01*
X412379Y103620D01*
X411269Y104080D01*
X410067D01*
X408957Y103620D01*
X408108Y102771D01*
X407648Y101661D01*
Y101310D01*
X406378Y100784D01*
X394998Y112165D01*
Y119592D01*
X394801Y120583D01*
X394239Y121423D01*
X379590Y136073D01*
Y143861D01*
X380020Y144899D01*
Y146101D01*
X379560Y147211D01*
X378711Y148060D01*
X377601Y148520D01*
X376399D01*
X375289Y148060D01*
X374440Y147211D01*
X373980Y146101D01*
Y144899D01*
X374410Y143861D01*
Y135000D01*
X374607Y134009D01*
X375169Y133169D01*
X389818Y118519D01*
Y111266D01*
X389405Y110953D01*
X388605Y110684D01*
X384880Y114409D01*
Y119145D01*
X384713Y119988D01*
X384236Y120702D01*
X348970Y155967D01*
X348256Y156444D01*
X347414Y156612D01*
X340177D01*
X294701Y202088D01*
Y211081D01*
X295971Y211591D01*
X354489Y153073D01*
X355204Y152596D01*
X356046Y152429D01*
X429430D01*
X429789Y152070D01*
X430899Y151610D01*
X432101D01*
X433211Y152070D01*
X434060Y152919D01*
X434520Y154029D01*
Y155231D01*
X434060Y156341D01*
X433211Y157190D01*
X432101Y157650D01*
X430899D01*
X429789Y157190D01*
X429430Y156831D01*
X356958D01*
X299368Y214421D01*
Y321970D01*
X300638Y322095D01*
X300706Y321757D01*
X301127Y321127D01*
X306980Y315273D01*
Y314399D01*
X307440Y313289D01*
X308058Y312671D01*
Y255000D01*
X308206Y254257D01*
X308627Y253627D01*
X346127Y216127D01*
X346757Y215706D01*
X347500Y215558D01*
X347500Y215558D01*
X384621D01*
X385364Y215706D01*
X385994Y216127D01*
X387080Y217213D01*
X417993D01*
X418736Y217360D01*
X419366Y217781D01*
X419432Y217847D01*
X422682D01*
X423112Y217417D01*
X424222Y216957D01*
X425423D01*
X426533Y217417D01*
X427383Y218267D01*
X427843Y219377D01*
Y220578D01*
X427383Y221688D01*
X426533Y222538D01*
X425423Y222997D01*
X424222D01*
X423112Y222538D01*
X422306Y221732D01*
X418628D01*
X417884Y221584D01*
X417254Y221163D01*
X417188Y221097D01*
X389692D01*
X389307Y222367D01*
X389572Y222544D01*
X394660Y227633D01*
X414040D01*
X414783Y227780D01*
X415413Y228202D01*
X415770Y228558D01*
X431171D01*
X431789Y227940D01*
X432899Y227480D01*
X434101D01*
X435211Y227940D01*
X436060Y228789D01*
X436520Y229899D01*
Y231101D01*
X436060Y232211D01*
X435211Y233060D01*
X434101Y233520D01*
X432899D01*
X431789Y233060D01*
X431171Y232442D01*
X415791D01*
X414938Y233701D01*
X415020Y233899D01*
Y235101D01*
X414560Y236211D01*
X413711Y237060D01*
X412601Y237520D01*
X411399D01*
X410289Y237060D01*
X409671Y236442D01*
X354804D01*
X337045Y254202D01*
Y314827D01*
X337663Y315445D01*
X338123Y316555D01*
Y317429D01*
X345952Y325258D01*
X347125Y324772D01*
Y276500D01*
Y255000D01*
X347528Y254028D01*
X348500Y253625D01*
X369486D01*
X369488Y253626D01*
X369490Y253625D01*
X369822Y253764D01*
X444874Y253372D01*
Y159502D01*
X427106Y141734D01*
X385892D01*
X384505Y141458D01*
X383328Y140672D01*
X382542Y139495D01*
X382266Y138108D01*
X382542Y136721D01*
X383328Y135544D01*
X384505Y134758D01*
X385892Y134482D01*
X428608D01*
X428608Y134482D01*
X429995Y134758D01*
X431172Y135544D01*
X451064Y155436D01*
X451064Y155436D01*
X451850Y156613D01*
X452126Y158000D01*
Y252433D01*
X453026Y253329D01*
X635493Y252375D01*
X635496Y252377D01*
X635500Y252375D01*
X635985Y252576D01*
X636467Y252773D01*
X636469Y252777D01*
X636472Y252778D01*
X636875Y253743D01*
X636873Y253746D01*
X636875Y253750D01*
Y304500D01*
X636472Y305472D01*
X636472Y305472D01*
X633626Y308318D01*
Y420500D01*
X633626Y420500D01*
X633626Y420500D01*
Y448500D01*
X633626Y448500D01*
X633626Y448500D01*
Y455500D01*
X633350Y456888D01*
X632564Y458064D01*
X631387Y458850D01*
X630000Y459126D01*
X597502D01*
X583564Y473064D01*
X582388Y473850D01*
X581000Y474126D01*
X579613Y473850D01*
X578436Y473064D01*
X577971Y472368D01*
X576701Y472753D01*
Y868000D01*
X576534Y868842D01*
X576057Y869557D01*
X552701Y892912D01*
Y893500D01*
X552534Y894342D01*
X552057Y895057D01*
X532556Y914557D01*
X531842Y915034D01*
X531000Y915201D01*
X441588D01*
X439188Y917600D01*
X439814Y918771D01*
X440000Y918734D01*
X561995D01*
X562289Y918440D01*
X563399Y917980D01*
X564601D01*
X565711Y918440D01*
X566560Y919289D01*
X567020Y920399D01*
X568200Y921100D01*
X568290Y921095D01*
X568627Y920592D01*
X579058Y910161D01*
Y742329D01*
X578440Y741711D01*
X577980Y740601D01*
Y739399D01*
X578440Y738289D01*
X579289Y737440D01*
X580399Y736980D01*
X581601D01*
X582711Y737440D01*
X583560Y738289D01*
X584020Y739399D01*
Y740601D01*
X583560Y741711D01*
X582942Y742329D01*
Y910965D01*
X582794Y911708D01*
X582373Y912338D01*
X571942Y922770D01*
Y1075965D01*
X571942Y1075965D01*
X571795Y1076708D01*
X571373Y1077338D01*
X565913Y1082798D01*
X565283Y1083220D01*
X564540Y1083367D01*
X516416D01*
X515672Y1083220D01*
X515042Y1082798D01*
X490860Y1058616D01*
X454880D01*
X454262Y1059234D01*
X453152Y1059694D01*
X451951D01*
X450841Y1059234D01*
X449991Y1058384D01*
X449531Y1057274D01*
Y1056073D01*
X449991Y1054963D01*
X450841Y1054113D01*
X451951Y1053654D01*
X453152D01*
X454262Y1054113D01*
X454880Y1054731D01*
X458111D01*
X458496Y1053461D01*
X458173Y1053245D01*
X457129Y1052201D01*
X440843D01*
X432520Y1060525D01*
Y1060601D01*
X432060Y1061711D01*
X431211Y1062560D01*
X430101Y1063020D01*
X428899D01*
X427789Y1062560D01*
X426940Y1061711D01*
X426769Y1061298D01*
X425307Y1060964D01*
X425211Y1061060D01*
X424101Y1061520D01*
X422899D01*
X421875Y1062205D01*
Y1063500D01*
X421875Y1063500D01*
Y1091332D01*
X421841Y1091413D01*
Y1092614D01*
X421875Y1092695D01*
Y1106058D01*
X450839D01*
X460058Y1096839D01*
Y1090043D01*
X459440Y1089425D01*
X458980Y1088315D01*
Y1087113D01*
X459440Y1086003D01*
X459924Y1085519D01*
X459408Y1084249D01*
X446965D01*
X434201Y1097012D01*
Y1097930D01*
X434560Y1098289D01*
X435020Y1099399D01*
Y1100601D01*
X434560Y1101711D01*
X433711Y1102560D01*
X432601Y1103020D01*
X431399D01*
X430289Y1102560D01*
X429440Y1101711D01*
X428980Y1100601D01*
Y1099399D01*
X429440Y1098289D01*
X429799Y1097930D01*
Y1096100D01*
X429893Y1095624D01*
X429310Y1094616D01*
X429043Y1094354D01*
X428751D01*
X427641Y1093895D01*
X426792Y1093045D01*
X426332Y1091935D01*
Y1090734D01*
X426792Y1089624D01*
X427641Y1088774D01*
X428751Y1088314D01*
X429259D01*
X447630Y1069943D01*
X448344Y1069466D01*
X449186Y1069299D01*
X465903D01*
X466289Y1068913D01*
X467399Y1068453D01*
X468601D01*
X469711Y1068913D01*
X470560Y1069762D01*
X471020Y1070872D01*
Y1072074D01*
X470560Y1073184D01*
X469711Y1074033D01*
X468601Y1074493D01*
X467399D01*
X466289Y1074033D01*
X465957Y1073701D01*
X450098D01*
X445048Y1078751D01*
X445126Y1079068D01*
X445674Y1079921D01*
X446053Y1079846D01*
X462868D01*
X463370Y1079344D01*
X464480Y1078884D01*
X465682D01*
X466792Y1079344D01*
X467641Y1080194D01*
X468101Y1081304D01*
Y1082505D01*
X467641Y1083615D01*
X466792Y1084465D01*
X465682Y1084924D01*
X465277D01*
X464941Y1085431D01*
X464639Y1086194D01*
X465020Y1087113D01*
Y1088315D01*
X464560Y1089425D01*
X463942Y1090043D01*
Y1097644D01*
X463794Y1098387D01*
X463373Y1099017D01*
X453017Y1109373D01*
X452387Y1109794D01*
X451643Y1109942D01*
X422497D01*
X422375Y1110125D01*
X421972Y1111097D01*
X421972D01*
X421875Y1111195D01*
Y1113431D01*
X423569Y1115125D01*
X433500D01*
X433500Y1115125D01*
X434472Y1115528D01*
X434472Y1115528D01*
X437972Y1119028D01*
X438375Y1120000D01*
X438375Y1120000D01*
Y1125747D01*
X454502Y1141874D01*
X501143D01*
X501143Y1141874D01*
X502531Y1142150D01*
X503707Y1142936D01*
X518564Y1157793D01*
X518564Y1157793D01*
X519350Y1158969D01*
X519626Y1160357D01*
X519626Y1160357D01*
Y1248000D01*
X519350Y1249388D01*
X518564Y1250564D01*
X517388Y1251350D01*
X516000Y1251626D01*
D02*
G37*
G36*
X47940Y1148230D02*
X26670D01*
Y1141960D01*
X47940D01*
Y1148230D01*
D02*
G37*
G36*
X24130D02*
X2860D01*
Y1141960D01*
X24130D01*
Y1148230D01*
D02*
G37*
G36*
X84286Y1160912D02*
X82899Y1160636D01*
X81722Y1159850D01*
X81436Y1159564D01*
X80650Y1158388D01*
X80374Y1157000D01*
X80374Y1157000D01*
Y1138500D01*
X80650Y1137113D01*
X81436Y1135936D01*
X82612Y1135150D01*
X84000Y1134874D01*
X85387Y1135150D01*
X86564Y1135936D01*
X87350Y1137113D01*
X87626Y1138500D01*
Y1155883D01*
X87636Y1155899D01*
X87912Y1157286D01*
X87636Y1158673D01*
X86850Y1159850D01*
X85674Y1160636D01*
X84286Y1160912D01*
D02*
G37*
G36*
X637540Y1133540D02*
X616270D01*
Y1127270D01*
X637540D01*
Y1133540D01*
D02*
G37*
G36*
X613730D02*
X592460D01*
Y1127270D01*
X613730D01*
Y1133540D01*
D02*
G37*
G36*
X637540Y1124730D02*
X616270D01*
Y1118460D01*
X637540D01*
Y1124730D01*
D02*
G37*
G36*
X613730D02*
X592460D01*
Y1118460D01*
X613730D01*
Y1124730D01*
D02*
G37*
G36*
X637540Y1082540D02*
X616270D01*
Y1076270D01*
X637540D01*
Y1082540D01*
D02*
G37*
G36*
X613730D02*
X592460D01*
Y1076270D01*
X613730D01*
Y1082540D01*
D02*
G37*
G36*
X637540Y1073730D02*
X616270D01*
Y1067460D01*
X637540D01*
Y1073730D01*
D02*
G37*
G36*
X613730D02*
X592460D01*
Y1067460D01*
X613730D01*
Y1073730D01*
D02*
G37*
G36*
X38601Y1121520D02*
X37399D01*
X36289Y1121060D01*
X35440Y1120211D01*
X34980Y1119101D01*
Y1117899D01*
X35440Y1116789D01*
X36058Y1116171D01*
Y1104770D01*
X29702Y1098413D01*
X29281Y1097783D01*
X29133Y1097040D01*
Y996904D01*
X28515Y996286D01*
X28055Y995176D01*
Y993974D01*
X28191Y993645D01*
X27345Y992375D01*
X10000D01*
X9028Y991972D01*
X9028Y991972D01*
X7028Y989972D01*
X6625Y989000D01*
X6625Y989000D01*
Y948000D01*
X7028Y947028D01*
X8000Y946625D01*
X29000Y946625D01*
X29378Y946782D01*
X29777Y946866D01*
X29850Y946977D01*
X29972Y947028D01*
X30128Y947405D01*
X30351Y947748D01*
X35642Y976125D01*
X57139D01*
X57845Y975069D01*
X57834Y975044D01*
Y973843D01*
X58294Y972733D01*
X59144Y971883D01*
X60254Y971424D01*
X61455D01*
X62565Y971883D01*
X63415Y972733D01*
X63874Y973843D01*
Y975044D01*
X63864Y975069D01*
X64570Y976125D01*
X112796D01*
X146211Y942711D01*
X147261Y942009D01*
X148500Y941763D01*
X167000D01*
X168239Y942009D01*
X169289Y942711D01*
X169991Y943761D01*
X170237Y945000D01*
X169991Y946239D01*
X169289Y947289D01*
X168239Y947991D01*
X167000Y948237D01*
X149841D01*
X137585Y960493D01*
X138111Y961763D01*
X167500D01*
X168739Y962009D01*
X169789Y962711D01*
X170491Y963761D01*
X170737Y965000D01*
X170491Y966239D01*
X169789Y967289D01*
X168739Y967991D01*
X167500Y968237D01*
X138341D01*
X124875Y981703D01*
Y983247D01*
X139064Y997436D01*
X139064Y997436D01*
X139850Y998613D01*
X140126Y1000000D01*
Y1008410D01*
X146361D01*
X147399Y1007980D01*
X148601D01*
X149711Y1008440D01*
X150560Y1009289D01*
X151020Y1010399D01*
Y1011601D01*
X150560Y1012711D01*
X149711Y1013560D01*
X148601Y1014020D01*
X147399D01*
X146361Y1013590D01*
X140126D01*
Y1026319D01*
X163154D01*
X164542Y1026595D01*
X165718Y1027381D01*
X166504Y1028557D01*
X166780Y1029944D01*
X166504Y1031332D01*
X165718Y1032508D01*
X164542Y1033294D01*
X163154Y1033570D01*
X140126D01*
Y1041412D01*
X177538D01*
X177538Y1041412D01*
X178925Y1041688D01*
X180102Y1042474D01*
X184564Y1046936D01*
X185350Y1048112D01*
X185626Y1049500D01*
X185350Y1050888D01*
X184564Y1052064D01*
X183388Y1052850D01*
X182000Y1053126D01*
X180613Y1052850D01*
X179436Y1052064D01*
X176036Y1048663D01*
X140126D01*
Y1053000D01*
X139850Y1054388D01*
X139634Y1054711D01*
X140312Y1055981D01*
X304024D01*
X304806Y1056136D01*
X305469Y1056579D01*
X317870Y1068980D01*
X318601D01*
X319711Y1069440D01*
X320560Y1070289D01*
X321020Y1071399D01*
Y1072601D01*
X320560Y1073711D01*
X319711Y1074560D01*
X318601Y1075020D01*
X317399D01*
X316289Y1074560D01*
X315440Y1073711D01*
X314980Y1072601D01*
Y1071870D01*
X303178Y1060067D01*
X123090D01*
X122308Y1059912D01*
X121645Y1059469D01*
X120195Y1058019D01*
X107228D01*
X106711Y1058536D01*
X105601Y1058996D01*
X104399D01*
X103289Y1058536D01*
X102440Y1057687D01*
X101980Y1056577D01*
Y1055375D01*
X102440Y1054265D01*
X103289Y1053416D01*
X104399Y1052956D01*
X105601D01*
X106711Y1053416D01*
X107228Y1053933D01*
X121041D01*
X121823Y1054088D01*
X122486Y1054531D01*
X123936Y1055981D01*
X132688D01*
X133366Y1054711D01*
X133150Y1054388D01*
X132874Y1053000D01*
Y1045000D01*
X132874Y1045000D01*
X132874Y1045000D01*
Y1029506D01*
X132874Y1029505D01*
X132874Y1029505D01*
Y1011000D01*
Y1001502D01*
X123382Y992009D01*
X122500Y992375D01*
X122500Y992375D01*
X58942D01*
X58416Y993645D01*
X58560Y993789D01*
X59020Y994899D01*
Y995773D01*
X63804Y1000558D01*
X78671D01*
X79289Y999940D01*
X80399Y999480D01*
X81601D01*
X82711Y999940D01*
X83560Y1000789D01*
X84020Y1001899D01*
Y1003101D01*
X83560Y1004211D01*
X82711Y1005060D01*
X81601Y1005520D01*
X80399D01*
X79289Y1005060D01*
X78671Y1004442D01*
X63000D01*
X63000Y1004442D01*
X62257Y1004295D01*
X61627Y1003873D01*
X61627Y1003873D01*
X56273Y998520D01*
X55399D01*
X54289Y998060D01*
X53440Y997211D01*
X52980Y996101D01*
Y994899D01*
X53440Y993789D01*
X53584Y993645D01*
X53058Y992375D01*
X34805D01*
X33958Y993645D01*
X34095Y993974D01*
Y995176D01*
X33635Y996286D01*
X33017Y996904D01*
Y1096236D01*
X39373Y1102591D01*
X39373Y1102592D01*
X39794Y1103222D01*
X39942Y1103965D01*
Y1116171D01*
X40560Y1116789D01*
X41020Y1117899D01*
Y1119101D01*
X40560Y1120211D01*
X39711Y1121060D01*
X38601Y1121520D01*
D02*
G37*
G36*
X637540Y1023040D02*
X616270D01*
Y1016770D01*
X637540D01*
Y1023040D01*
D02*
G37*
G36*
X613730D02*
X592460D01*
Y1016770D01*
X613730D01*
Y1023040D01*
D02*
G37*
G36*
X637540Y1014230D02*
X616270D01*
Y1007960D01*
X637540D01*
Y1014230D01*
D02*
G37*
G36*
X613730D02*
X592460D01*
Y1007960D01*
X613730D01*
Y1014230D01*
D02*
G37*
G36*
X637540Y972040D02*
X616270D01*
Y965770D01*
X637540D01*
Y972040D01*
D02*
G37*
G36*
X613730D02*
X592460D01*
Y965770D01*
X613730D01*
Y972040D01*
D02*
G37*
G36*
X637540Y963230D02*
X616270D01*
Y956960D01*
X637540D01*
Y963230D01*
D02*
G37*
G36*
X613730D02*
X592460D01*
Y956960D01*
X613730D01*
Y963230D01*
D02*
G37*
G36*
X637540Y913540D02*
X616270D01*
Y907270D01*
X637540D01*
Y913540D01*
D02*
G37*
G36*
X613730D02*
X592460D01*
Y907270D01*
X613730D01*
Y913540D01*
D02*
G37*
G36*
X329888Y916623D02*
X327412D01*
X325125Y915676D01*
X323374Y913925D01*
X322427Y911638D01*
Y909162D01*
X323374Y906875D01*
X325125Y905124D01*
X327412Y904177D01*
X329888D01*
X332175Y905124D01*
X333926Y906875D01*
X334873Y909162D01*
Y911638D01*
X333926Y913925D01*
X332175Y915676D01*
X329888Y916623D01*
D02*
G37*
G36*
X637540Y904730D02*
X616270D01*
Y898460D01*
X637540D01*
Y904730D01*
D02*
G37*
G36*
X613730D02*
X592460D01*
Y898460D01*
X613730D01*
Y904730D01*
D02*
G37*
G36*
X304981Y923544D02*
X301520D01*
X298176Y922649D01*
X295179Y920918D01*
X292732Y918471D01*
X291001Y915474D01*
X290105Y912131D01*
Y908670D01*
X291001Y905326D01*
X292732Y902329D01*
X295179Y899882D01*
X298176Y898151D01*
X301520Y897255D01*
X304981D01*
X308324Y898151D01*
X311321Y899882D01*
X313768Y902329D01*
X315499Y905326D01*
X316395Y908670D01*
Y912131D01*
X315499Y915474D01*
X313768Y918471D01*
X311321Y920918D01*
X308324Y922649D01*
X304981Y923544D01*
D02*
G37*
G36*
X243480D02*
X240019D01*
X236676Y922649D01*
X233679Y920918D01*
X231232Y918471D01*
X229501Y915474D01*
X228605Y912131D01*
Y908670D01*
X229501Y905326D01*
X231232Y902329D01*
X233679Y899882D01*
X236676Y898151D01*
X240019Y897255D01*
X243480D01*
X246824Y898151D01*
X249821Y899882D01*
X252268Y902329D01*
X253999Y905326D01*
X254895Y908670D01*
Y912131D01*
X253999Y915474D01*
X252268Y918471D01*
X249821Y920918D01*
X246824Y922649D01*
X243480Y923544D01*
D02*
G37*
G36*
X217101Y925020D02*
X215899D01*
X214789Y924560D01*
X213940Y923711D01*
X213480Y922601D01*
Y921399D01*
X213940Y920289D01*
X214789Y919440D01*
X215899Y918980D01*
X217101D01*
X217296Y919061D01*
X218442Y917915D01*
X218442Y917915D01*
X218482Y917627D01*
X218058Y917151D01*
X217341Y916623D01*
X215112D01*
X212825Y915676D01*
X211074Y913925D01*
X210127Y911638D01*
Y909162D01*
X211074Y906875D01*
X212825Y905124D01*
X215112Y904177D01*
X217588D01*
X219875Y905124D01*
X221626Y906875D01*
X222026Y907841D01*
X223296Y907588D01*
Y900689D01*
X221637Y899030D01*
X221215Y898400D01*
X221068Y897657D01*
Y883460D01*
X221215Y882717D01*
X221637Y882087D01*
X225865Y877858D01*
X226495Y877437D01*
X226576Y877421D01*
X226712Y877094D01*
X227561Y876245D01*
X228671Y875785D01*
X229873D01*
X230983Y876245D01*
X231832Y877094D01*
X232292Y878204D01*
Y879406D01*
X231832Y880516D01*
X230983Y881365D01*
X229873Y881825D01*
X228671D01*
X227767Y881450D01*
X224952Y884265D01*
Y896852D01*
X226611Y898511D01*
X226611Y898511D01*
X227033Y899141D01*
X227180Y899885D01*
X227180Y899885D01*
Y914081D01*
X227033Y914825D01*
X226611Y915455D01*
X221405Y920661D01*
X220775Y921083D01*
X220766Y921084D01*
X219520Y922330D01*
Y922601D01*
X219060Y923711D01*
X218211Y924560D01*
X217101Y925020D01*
D02*
G37*
G36*
X637540Y862540D02*
X616270D01*
Y856270D01*
X637540D01*
Y862540D01*
D02*
G37*
G36*
X613730D02*
X592460D01*
Y856270D01*
X613730D01*
Y862540D01*
D02*
G37*
G36*
X637540Y853730D02*
X616270D01*
Y847460D01*
X637540D01*
Y853730D01*
D02*
G37*
G36*
X613730D02*
X592460D01*
Y847460D01*
X613730D01*
Y853730D01*
D02*
G37*
G36*
X243480Y866395D02*
X240019D01*
X236676Y865499D01*
X233679Y863768D01*
X231232Y861321D01*
X229501Y858324D01*
X228605Y854980D01*
Y851519D01*
X229501Y848176D01*
X231232Y845179D01*
X233679Y842732D01*
X236676Y841001D01*
X240019Y840106D01*
X243480D01*
X246824Y841001D01*
X249821Y842732D01*
X252268Y845179D01*
X253999Y848176D01*
X254895Y851519D01*
Y854980D01*
X253999Y858324D01*
X252268Y861321D01*
X249821Y863768D01*
X246824Y865499D01*
X243480Y866395D01*
D02*
G37*
G36*
X340038Y840423D02*
X337562D01*
X335275Y839476D01*
X333524Y837725D01*
X332577Y835438D01*
Y832962D01*
X333524Y830675D01*
X335275Y828924D01*
X337562Y827977D01*
X340038D01*
X342325Y828924D01*
X344076Y830675D01*
X345023Y832962D01*
Y835438D01*
X344076Y837725D01*
X342325Y839476D01*
X340038Y840423D01*
D02*
G37*
G36*
X319738D02*
X317262D01*
X314975Y839476D01*
X313224Y837725D01*
X312277Y835438D01*
Y832962D01*
X313224Y830675D01*
X314975Y828924D01*
X317262Y827977D01*
X319738D01*
X322025Y828924D01*
X323776Y830675D01*
X324723Y832962D01*
Y835438D01*
X323776Y837725D01*
X322025Y839476D01*
X319738Y840423D01*
D02*
G37*
G36*
X227738D02*
X225262D01*
X222975Y839476D01*
X221224Y837725D01*
X220277Y835438D01*
Y832962D01*
X221224Y830675D01*
X222975Y828924D01*
X225262Y827977D01*
X227738D01*
X230025Y828924D01*
X231776Y830675D01*
X232723Y832962D01*
Y835438D01*
X231776Y837725D01*
X230025Y839476D01*
X227738Y840423D01*
D02*
G37*
G36*
X637540Y803040D02*
X616270D01*
Y796770D01*
X637540D01*
Y803040D01*
D02*
G37*
G36*
X613730D02*
X592460D01*
Y796770D01*
X613730D01*
Y803040D01*
D02*
G37*
G36*
X637540Y794230D02*
X616270D01*
Y787960D01*
X637540D01*
Y794230D01*
D02*
G37*
G36*
X613730D02*
X592460D01*
Y787960D01*
X613730D01*
Y794230D01*
D02*
G37*
G36*
X140038Y784660D02*
X139970D01*
Y775770D01*
X148860D01*
Y775838D01*
X148168Y778422D01*
X146830Y780738D01*
X144938Y782630D01*
X142622Y783968D01*
X140038Y784660D01*
D02*
G37*
G36*
X137430D02*
X137362D01*
X134778Y783968D01*
X132462Y782630D01*
X130570Y780738D01*
X129232Y778422D01*
X128540Y775838D01*
Y775770D01*
X137430D01*
Y784660D01*
D02*
G37*
G36*
X216070Y783390D02*
X213730D01*
X211469Y782784D01*
X209441Y781614D01*
X207786Y779959D01*
X206616Y777931D01*
X206010Y775670D01*
Y773330D01*
X206616Y771069D01*
X207786Y769041D01*
X209441Y767386D01*
X211469Y766216D01*
X213730Y765610D01*
X216070D01*
X218331Y766216D01*
X220359Y767386D01*
X222014Y769041D01*
X223184Y771069D01*
X223790Y773330D01*
Y775670D01*
X223184Y777931D01*
X222014Y779959D01*
X220359Y781614D01*
X218331Y782784D01*
X216070Y783390D01*
D02*
G37*
G36*
X148860Y773230D02*
X139970D01*
Y764340D01*
X140038D01*
X142622Y765032D01*
X144938Y766370D01*
X146830Y768262D01*
X148168Y770578D01*
X148860Y773162D01*
Y773230D01*
D02*
G37*
G36*
X137430D02*
X128540D01*
Y773162D01*
X129232Y770578D01*
X130570Y768262D01*
X132462Y766370D01*
X134778Y765032D01*
X137362Y764340D01*
X137430D01*
Y773230D01*
D02*
G37*
G36*
X637540Y752040D02*
X616270D01*
Y745770D01*
X637540D01*
Y752040D01*
D02*
G37*
G36*
X613730D02*
X592460D01*
Y745770D01*
X613730D01*
Y752040D01*
D02*
G37*
G36*
X637540Y743230D02*
X616270D01*
Y736960D01*
X637540D01*
Y743230D01*
D02*
G37*
G36*
X613730D02*
X592460D01*
Y736960D01*
X613730D01*
Y743230D01*
D02*
G37*
G36*
X266599Y788170D02*
X262401D01*
X258255Y787513D01*
X254262Y786216D01*
X250522Y784310D01*
X247126Y781843D01*
X244157Y778874D01*
X241690Y775478D01*
X239784Y771738D01*
X238487Y767745D01*
X237830Y763599D01*
Y759401D01*
X238487Y755255D01*
X239784Y751262D01*
X241690Y747522D01*
X244157Y744126D01*
X247126Y741157D01*
X250522Y738690D01*
X254262Y736784D01*
X258255Y735487D01*
X262401Y734830D01*
X266599D01*
X270745Y735487D01*
X274738Y736784D01*
X278478Y738690D01*
X281874Y741157D01*
X284843Y744126D01*
X287310Y747522D01*
X289216Y751262D01*
X290513Y755255D01*
X291170Y759401D01*
Y763599D01*
X290513Y767745D01*
X289216Y771738D01*
X287310Y775478D01*
X284843Y778874D01*
X281874Y781843D01*
X278478Y784310D01*
X274738Y786216D01*
X270745Y787513D01*
X266599Y788170D01*
D02*
G37*
G36*
X637540Y693040D02*
X616270D01*
Y686770D01*
X637540D01*
Y693040D01*
D02*
G37*
G36*
X613730D02*
X592460D01*
Y686770D01*
X613730D01*
Y693040D01*
D02*
G37*
G36*
X637540Y684230D02*
X616270D01*
Y677960D01*
X637540D01*
Y684230D01*
D02*
G37*
G36*
X613730D02*
X592460D01*
Y677960D01*
X613730D01*
Y684230D01*
D02*
G37*
G36*
X637540Y642040D02*
X616270D01*
Y635770D01*
X637540D01*
Y642040D01*
D02*
G37*
G36*
X613730D02*
X592460D01*
Y635770D01*
X613730D01*
Y642040D01*
D02*
G37*
G36*
X637540Y633230D02*
X616270D01*
Y626960D01*
X637540D01*
Y633230D01*
D02*
G37*
G36*
X613730D02*
X592460D01*
Y626960D01*
X613730D01*
Y633230D01*
D02*
G37*
G36*
X176599Y661170D02*
X172401D01*
X168255Y660513D01*
X164262Y659216D01*
X160522Y657310D01*
X157126Y654843D01*
X154157Y651874D01*
X151690Y648478D01*
X149784Y644738D01*
X148487Y640745D01*
X147830Y636599D01*
Y632401D01*
X148487Y628255D01*
X149784Y624262D01*
X151690Y620522D01*
X154157Y617126D01*
X157126Y614157D01*
X160522Y611690D01*
X164262Y609784D01*
X168255Y608487D01*
X172401Y607830D01*
X176599D01*
X180745Y608487D01*
X184738Y609784D01*
X188478Y611690D01*
X191874Y614157D01*
X194843Y617126D01*
X197310Y620522D01*
X199216Y624262D01*
X200513Y628255D01*
X201170Y632401D01*
Y636599D01*
X200513Y640745D01*
X199216Y644738D01*
X197310Y648478D01*
X194843Y651874D01*
X191874Y654843D01*
X188478Y657310D01*
X184738Y659216D01*
X180745Y660513D01*
X176599Y661170D01*
D02*
G37*
G36*
X617648Y591270D02*
X615352D01*
X613232Y590392D01*
X611608Y588768D01*
X610730Y586648D01*
Y584352D01*
X611608Y582232D01*
X613232Y580608D01*
X615352Y579730D01*
X617648D01*
X619768Y580608D01*
X621391Y582232D01*
X622270Y584352D01*
Y586648D01*
X621391Y588768D01*
X619768Y590392D01*
X617648Y591270D01*
D02*
G37*
G36*
Y561270D02*
X615352D01*
X613232Y560392D01*
X611608Y558768D01*
X610730Y556648D01*
Y554352D01*
X611608Y552232D01*
X613232Y550608D01*
X615352Y549730D01*
X617648D01*
X619768Y550608D01*
X621391Y552232D01*
X622270Y554352D01*
Y556648D01*
X621391Y558768D01*
X619768Y560392D01*
X617648Y561270D01*
D02*
G37*
G36*
X190670Y783390D02*
X188330D01*
X186069Y782784D01*
X184041Y781614D01*
X182386Y779959D01*
X181216Y777931D01*
X180610Y775670D01*
Y773330D01*
X181216Y771069D01*
X182386Y769041D01*
X184041Y767386D01*
X186069Y766216D01*
X188330Y765610D01*
X190670D01*
X192931Y766216D01*
X193686Y766652D01*
X272594Y687744D01*
Y422456D01*
X272164Y421417D01*
Y420216D01*
X272624Y419106D01*
X273473Y418256D01*
X274583Y417796D01*
X275784D01*
X276894Y418256D01*
X277744Y419106D01*
X278204Y420216D01*
Y421417D01*
X277773Y422456D01*
Y688816D01*
X277576Y689807D01*
X277015Y690648D01*
X197348Y770314D01*
X197784Y771069D01*
X198390Y773330D01*
Y775670D01*
X197784Y777931D01*
X196614Y779959D01*
X194959Y781614D01*
X192931Y782784D01*
X190670Y783390D01*
D02*
G37*
G36*
X262601Y392020D02*
X261399D01*
X260289Y391560D01*
X259671Y390942D01*
X227864D01*
X227478Y391328D01*
X226368Y391787D01*
X225167D01*
X224057Y391328D01*
X223207Y390478D01*
X222747Y389368D01*
Y388167D01*
X223207Y387057D01*
X224057Y386207D01*
X225167Y385747D01*
X226368D01*
X227478Y386207D01*
X228328Y387057D01*
X228328Y387058D01*
X259671D01*
X260289Y386440D01*
X261399Y385980D01*
X262601D01*
X263711Y386440D01*
X264560Y387289D01*
X265020Y388399D01*
Y389601D01*
X264560Y390711D01*
X263711Y391560D01*
X262601Y392020D01*
D02*
G37*
G36*
X275333Y383753D02*
X274132D01*
X273022Y383293D01*
X272495Y382766D01*
X241500D01*
X240633Y382593D01*
X239898Y382102D01*
X234815Y377020D01*
X234399D01*
X233289Y376560D01*
X232440Y375711D01*
X231980Y374601D01*
Y373399D01*
X232440Y372289D01*
X233289Y371440D01*
X234399Y370980D01*
X235601D01*
X236711Y371440D01*
X237560Y372289D01*
X238020Y373399D01*
Y373815D01*
X242439Y378234D01*
X272960D01*
X273022Y378172D01*
X274132Y377713D01*
X275333D01*
X276443Y378172D01*
X277293Y379022D01*
X277752Y380132D01*
Y381333D01*
X277293Y382443D01*
X276443Y383293D01*
X275333Y383753D01*
D02*
G37*
G36*
X229099Y364170D02*
X224901D01*
X220755Y363513D01*
X216762Y362216D01*
X213022Y360310D01*
X209626Y357843D01*
X206657Y354874D01*
X204190Y351478D01*
X202284Y347738D01*
X200987Y343745D01*
X200330Y339599D01*
Y335401D01*
X200987Y331255D01*
X202284Y327262D01*
X204190Y323522D01*
X206657Y320126D01*
X209626Y317157D01*
X213022Y314690D01*
X216762Y312784D01*
X220755Y311487D01*
X224901Y310830D01*
X229099D01*
X233245Y311487D01*
X237238Y312784D01*
X240978Y314690D01*
X244374Y317157D01*
X247343Y320126D01*
X249810Y323522D01*
X251716Y327262D01*
X253013Y331255D01*
X253670Y335401D01*
Y339599D01*
X253013Y343745D01*
X251716Y347738D01*
X249810Y351478D01*
X247343Y354874D01*
X244374Y357843D01*
X240978Y360310D01*
X237238Y362216D01*
X233245Y363513D01*
X229099Y364170D01*
D02*
G37*
G36*
X237500Y180875D02*
X212500D01*
X211528Y180472D01*
X211528Y180472D01*
X184431Y153375D01*
X160952D01*
X160620Y153237D01*
X160262Y153189D01*
X160151Y153042D01*
X159980Y152972D01*
X159843Y152639D01*
X159624Y152353D01*
X159359Y151354D01*
X158328Y150572D01*
X158075Y150511D01*
X156942Y150980D01*
X154000Y151367D01*
X136000D01*
X133058Y150980D01*
X130316Y149844D01*
X127962Y148038D01*
X126156Y145684D01*
X125020Y142942D01*
X124633Y140000D01*
X125020Y137058D01*
X125746Y135306D01*
X125736Y135186D01*
X125661Y134973D01*
X124951Y133906D01*
X124058Y133603D01*
X123820Y133395D01*
X123528Y133274D01*
X123440Y133061D01*
X123267Y132910D01*
X123246Y132594D01*
X123125Y132302D01*
Y97500D01*
X123528Y96528D01*
X124500Y96125D01*
X183600D01*
X183892Y96246D01*
X184208Y96267D01*
X184360Y96440D01*
X184572Y96528D01*
X184693Y96820D01*
X184902Y97058D01*
X185160Y97819D01*
X185774Y98195D01*
X186263Y98385D01*
X186572Y98425D01*
X188819Y97494D01*
X191500Y97141D01*
X194181Y97494D01*
X196679Y98529D01*
X198825Y100175D01*
X200471Y102321D01*
X201506Y104819D01*
X201859Y107500D01*
Y117038D01*
X203032Y117524D01*
X236028Y84528D01*
X236028Y84528D01*
X237125Y83431D01*
Y74813D01*
X237055Y74643D01*
Y73442D01*
X237125Y73272D01*
Y71000D01*
X237528Y70028D01*
X238500Y69625D01*
X243058D01*
Y69000D01*
X243206Y68257D01*
X243627Y67627D01*
X245182Y66071D01*
X244697Y64897D01*
X219203D01*
X218459Y64749D01*
X217829Y64328D01*
X216210Y62710D01*
X215051Y63190D01*
Y64369D01*
X215214Y64436D01*
X216628Y65522D01*
X217714Y66936D01*
X218396Y68583D01*
X218628Y70350D01*
Y81350D01*
X218396Y83117D01*
X217714Y84764D01*
X216628Y86178D01*
X215214Y87264D01*
X213567Y87946D01*
X211800Y88178D01*
X210033Y87946D01*
X208386Y87264D01*
X206972Y86178D01*
X205886Y84764D01*
X205204Y83117D01*
X204972Y81350D01*
Y70350D01*
X205204Y68583D01*
X205886Y66936D01*
X206972Y65522D01*
X208386Y64436D01*
X208563Y64363D01*
Y55552D01*
Y35819D01*
X207882Y35537D01*
X206258Y34292D01*
X205013Y32668D01*
X204230Y30778D01*
X203963Y28750D01*
Y15750D01*
X204230Y13722D01*
X205013Y11831D01*
X206258Y10208D01*
X207882Y8963D01*
X209772Y8180D01*
X211800Y7913D01*
X213828Y8180D01*
X215718Y8963D01*
X217342Y10208D01*
X217347Y10216D01*
X218617Y9785D01*
Y4541D01*
X219020Y3569D01*
X219992Y3167D01*
X290000D01*
X290972Y3569D01*
X291375Y4541D01*
Y9795D01*
X292645Y10226D01*
X292658Y10208D01*
X294282Y8963D01*
X296172Y8180D01*
X298200Y7913D01*
X300228Y8180D01*
X302118Y8963D01*
X303742Y10208D01*
X304987Y11831D01*
X305770Y13722D01*
X306037Y15750D01*
Y28750D01*
X305770Y30778D01*
X304987Y32668D01*
X303742Y34292D01*
X302118Y35537D01*
X301437Y35819D01*
Y55544D01*
Y64363D01*
X301614Y64436D01*
X303028Y65522D01*
X304114Y66936D01*
X304796Y68583D01*
X305028Y70350D01*
Y81350D01*
X304796Y83117D01*
X304114Y84764D01*
X303028Y86178D01*
X302436Y86633D01*
X303013Y87791D01*
X303859Y87557D01*
X304120Y87537D01*
X304377Y87486D01*
X307999D01*
X308617Y86868D01*
X309727Y86408D01*
X310928D01*
X312038Y86868D01*
X312888Y87718D01*
X313348Y88828D01*
Y90029D01*
X312888Y91139D01*
X312038Y91988D01*
X310928Y92448D01*
X309727D01*
X308617Y91988D01*
X307999Y91371D01*
X304642D01*
X301239Y92314D01*
X301252Y92360D01*
X301160Y92398D01*
X300028Y92547D01*
X298200Y92788D01*
X295240Y92398D01*
X292481Y91256D01*
X290112Y89438D01*
X288996Y87983D01*
X288873Y87865D01*
X288050Y86688D01*
X286827Y87031D01*
X286387Y93873D01*
X286444Y93877D01*
X286397Y94113D01*
X286634Y95302D01*
X287229Y96355D01*
X287955Y97399D01*
X293290Y102733D01*
X307996D01*
X308789Y101940D01*
X309899Y101480D01*
X311101D01*
X312211Y101940D01*
X313060Y102789D01*
X313520Y103899D01*
Y105101D01*
X313060Y106211D01*
X312211Y107060D01*
X311101Y107520D01*
X309899D01*
X308789Y107060D01*
X308346Y106617D01*
X292485D01*
X291742Y106469D01*
X291112Y106048D01*
X285046Y99983D01*
X284978Y99882D01*
X284886Y99802D01*
X284645Y99491D01*
X283375Y99927D01*
Y105500D01*
X282972Y106472D01*
X282000Y106875D01*
X257569D01*
X227472Y136972D01*
X226500Y137375D01*
X226500Y137375D01*
X204500D01*
X204063Y138645D01*
X236298Y163769D01*
X236711Y163940D01*
X237394Y164623D01*
X238345Y165364D01*
X238389Y165442D01*
X238472Y165476D01*
X238643Y165890D01*
X238864Y166279D01*
X238840Y166366D01*
X238875Y166448D01*
Y179500D01*
X238472Y180472D01*
X237500Y180875D01*
D02*
G37*
G36*
X154000Y92648D02*
X146270D01*
Y81270D01*
X166481D01*
X166217Y83274D01*
X164954Y86324D01*
X162944Y88944D01*
X160324Y90954D01*
X157274Y92217D01*
X154000Y92648D01*
D02*
G37*
G36*
X143730D02*
X136000D01*
X132726Y92217D01*
X129676Y90954D01*
X127056Y88944D01*
X125046Y86324D01*
X123783Y83274D01*
X123519Y81270D01*
X143730D01*
Y92648D01*
D02*
G37*
G36*
X539831Y93545D02*
X536370D01*
X533026Y92649D01*
X530029Y90918D01*
X527582Y88471D01*
X525851Y85474D01*
X524955Y82130D01*
Y78670D01*
X525682Y75957D01*
X525695Y75908D01*
X524523Y75376D01*
X524461Y75469D01*
X524064Y76064D01*
X522887Y76850D01*
X521500Y77126D01*
X520112Y76850D01*
X518936Y76064D01*
X518150Y74887D01*
X517874Y73500D01*
Y39002D01*
X494638Y15765D01*
X485011D01*
X484844Y17035D01*
X486024Y17351D01*
X489021Y19082D01*
X491468Y21529D01*
X493199Y24526D01*
X494095Y27870D01*
Y31330D01*
X493199Y34674D01*
X491468Y37671D01*
X489021Y40118D01*
X486024Y41849D01*
X482681Y42744D01*
X479220D01*
X475876Y41849D01*
X472879Y40118D01*
X470432Y37671D01*
X468701Y34674D01*
X467805Y31330D01*
Y27870D01*
X468701Y24526D01*
X470432Y21529D01*
X472879Y19082D01*
X475876Y17351D01*
X477056Y17035D01*
X476889Y15765D01*
X467523D01*
X395225Y88064D01*
X394048Y88850D01*
X392661Y89126D01*
X392661Y89126D01*
X370500D01*
X369113Y88850D01*
X367936Y88064D01*
X367150Y86888D01*
X366874Y85500D01*
X367150Y84113D01*
X367936Y82936D01*
X369113Y82150D01*
X370500Y81874D01*
X391159D01*
X463458Y9576D01*
X463458Y9576D01*
X464634Y8790D01*
X466021Y8514D01*
X496139D01*
X496139Y8514D01*
X497527Y8790D01*
X498703Y9576D01*
X524064Y34936D01*
X524064Y34936D01*
X524850Y36112D01*
X525126Y37500D01*
Y73500D01*
X524983Y74217D01*
X524961Y74329D01*
X526166Y74782D01*
X526191Y74738D01*
X527582Y72329D01*
X530029Y69882D01*
X533026Y68151D01*
X536370Y67256D01*
X539831D01*
X543174Y68151D01*
X546171Y69882D01*
X548618Y72329D01*
X550349Y75326D01*
X551245Y78670D01*
Y82130D01*
X550349Y85474D01*
X548618Y88471D01*
X546171Y90918D01*
X543174Y92649D01*
X539831Y93545D01*
D02*
G37*
G36*
X166481Y78730D02*
X146270D01*
Y67352D01*
X154000D01*
X157274Y67783D01*
X160324Y69046D01*
X162944Y71056D01*
X164954Y73676D01*
X166217Y76726D01*
X166481Y78730D01*
D02*
G37*
G36*
X143730D02*
X123519D01*
X123783Y76726D01*
X125046Y73676D01*
X127056Y71056D01*
X129676Y69046D01*
X132726Y67783D01*
X136000Y67352D01*
X143730D01*
Y78730D01*
D02*
G37*
G36*
X539338Y61223D02*
X536862D01*
X534575Y60276D01*
X532824Y58525D01*
X531877Y56238D01*
Y53762D01*
X532824Y51475D01*
X534575Y49724D01*
X536862Y48777D01*
X539338D01*
X541625Y49724D01*
X543376Y51475D01*
X544323Y53762D01*
Y56238D01*
X543376Y58525D01*
X541625Y60276D01*
X539338Y61223D01*
D02*
G37*
G36*
X463138Y51073D02*
X460662D01*
X458375Y50126D01*
X456624Y48375D01*
X455677Y46088D01*
Y43612D01*
X456624Y41325D01*
X458375Y39574D01*
X460662Y38627D01*
X463138D01*
X465425Y39574D01*
X467176Y41325D01*
X468123Y43612D01*
Y46088D01*
X467176Y48375D01*
X465425Y50126D01*
X463138Y51073D01*
D02*
G37*
G36*
X507101Y75520D02*
X505899D01*
X504789Y75060D01*
X503940Y74211D01*
X503480Y73101D01*
Y71899D01*
X503940Y70789D01*
X504789Y69940D01*
X505476Y69655D01*
Y50181D01*
X499315Y44020D01*
X498899D01*
X497789Y43560D01*
X496940Y42711D01*
X496480Y41601D01*
Y40399D01*
X496940Y39289D01*
X497789Y38440D01*
X498899Y37980D01*
X500101D01*
X501211Y38440D01*
X502060Y39289D01*
X502520Y40399D01*
Y40815D01*
X509345Y47640D01*
X509836Y48375D01*
X510009Y49243D01*
Y70826D01*
X509836Y71693D01*
X509520Y72166D01*
Y73101D01*
X509060Y74211D01*
X508211Y75060D01*
X507101Y75520D01*
D02*
G37*
G36*
X539831Y42744D02*
X536370D01*
X533026Y41849D01*
X530029Y40118D01*
X527582Y37671D01*
X525851Y34674D01*
X524955Y31330D01*
Y27870D01*
X525851Y24526D01*
X527582Y21529D01*
X530029Y19082D01*
X533026Y17351D01*
X536370Y16456D01*
X539831D01*
X543174Y17351D01*
X546171Y19082D01*
X548618Y21529D01*
X550349Y24526D01*
X551245Y27870D01*
Y31330D01*
X550349Y34674D01*
X548618Y37671D01*
X546171Y40118D01*
X543174Y41849D01*
X539831Y42744D01*
D02*
G37*
%LPD*%
G36*
X501440Y1237789D02*
X502058Y1237171D01*
Y1170805D01*
X490695Y1159442D01*
X435000D01*
X434257Y1159295D01*
X433627Y1158873D01*
X364937Y1090184D01*
X148226D01*
X147700Y1091454D01*
X153305Y1097058D01*
X357500D01*
X358243Y1097206D01*
X358873Y1097627D01*
X496727Y1235480D01*
X497601D01*
X498711Y1235940D01*
X499560Y1236789D01*
X500020Y1237899D01*
X500022Y1237900D01*
X501290Y1238151D01*
X501440Y1237789D01*
D02*
G37*
G36*
X69928Y1182835D02*
X71057Y1181999D01*
Y1139681D01*
X71205Y1138938D01*
X71558Y1138409D01*
Y1097414D01*
X66127Y1091983D01*
X65705Y1091352D01*
X65558Y1090609D01*
Y1077829D01*
X64940Y1077211D01*
X64480Y1076101D01*
Y1074899D01*
X64940Y1073789D01*
X65789Y1072940D01*
X66899Y1072480D01*
X68101D01*
X69211Y1072940D01*
X70060Y1073789D01*
X70347Y1074481D01*
X71693D01*
X71980Y1073789D01*
X72829Y1072940D01*
X73939Y1072480D01*
X75141D01*
X76251Y1072940D01*
X77100Y1073789D01*
X77560Y1074899D01*
Y1075773D01*
X78948Y1077161D01*
X78948Y1077162D01*
X79369Y1077792D01*
X79517Y1078535D01*
X79517Y1078535D01*
Y1110940D01*
X80787Y1111192D01*
X80940Y1110824D01*
X81789Y1109975D01*
X82899Y1109515D01*
X84101D01*
X85211Y1109975D01*
X85429Y1110193D01*
X89525D01*
X92928Y1106790D01*
X92402Y1105520D01*
X92399D01*
X91289Y1105060D01*
X90440Y1104211D01*
X89980Y1103101D01*
Y1101899D01*
X90440Y1100789D01*
X91058Y1100171D01*
Y1077829D01*
X90440Y1077211D01*
X90093Y1076372D01*
X89754Y1076025D01*
X88710Y1075675D01*
X88101Y1075928D01*
X86899D01*
X85789Y1075468D01*
X85292Y1074970D01*
X84399Y1074794D01*
X83728Y1075012D01*
X83172Y1075569D01*
X82062Y1076029D01*
X80860D01*
X79750Y1075569D01*
X78901Y1074720D01*
X78441Y1073610D01*
Y1072408D01*
X78901Y1071298D01*
X79750Y1070449D01*
X80598Y1070098D01*
X84087Y1066609D01*
X84717Y1066188D01*
X85460Y1066040D01*
X85497D01*
X86023Y1064770D01*
X81273Y1060020D01*
X80399D01*
X79289Y1059560D01*
X78440Y1058711D01*
X77980Y1057601D01*
Y1056399D01*
X77981Y1056397D01*
X77207Y1054948D01*
X76898Y1054886D01*
X57043Y1074741D01*
Y1111654D01*
X67147Y1121757D01*
X67590Y1122420D01*
X67745Y1123202D01*
Y1180961D01*
X69659Y1182875D01*
X69928Y1182835D01*
D02*
G37*
G36*
X551334Y1063901D02*
X550847Y1062773D01*
X541196D01*
X540601Y1063020D01*
X539399D01*
X538289Y1062560D01*
X537440Y1061711D01*
X536980Y1060601D01*
Y1059399D01*
X537440Y1058289D01*
X538289Y1057440D01*
X539399Y1056980D01*
X540601D01*
X541711Y1057440D01*
X541865Y1057594D01*
X551012D01*
X552470Y1056135D01*
Y1050673D01*
X552446Y1045867D01*
X552436Y1044685D01*
X552416Y1044686D01*
X552407Y1044600D01*
X552435D01*
X552440Y1043418D01*
X552440Y1043417D01*
Y1038983D01*
X551170Y1038457D01*
X542564Y1047064D01*
X541387Y1047850D01*
X540000Y1048126D01*
X540000Y1048126D01*
X529002D01*
X515564Y1061564D01*
X514388Y1062350D01*
X514010Y1062425D01*
X513592Y1063803D01*
X514588Y1064799D01*
X550613D01*
X551334Y1063901D01*
D02*
G37*
G36*
X509575Y1057990D02*
X509650Y1057613D01*
X510436Y1056436D01*
X524936Y1041936D01*
X524936Y1041936D01*
X526113Y1041150D01*
X527500Y1040874D01*
X527500Y1040874D01*
X538498D01*
X546906Y1032466D01*
X546906Y1032466D01*
X546959Y1032413D01*
Y1019626D01*
X543500D01*
X543500Y1019626D01*
X543500Y1019626D01*
X514040D01*
X513749Y1020721D01*
X513743Y1020896D01*
X514560Y1021713D01*
X515020Y1022823D01*
Y1024025D01*
X514560Y1025135D01*
X513711Y1025984D01*
X512601Y1026444D01*
X511399D01*
X510289Y1025984D01*
X509440Y1025135D01*
X508980Y1024025D01*
Y1023417D01*
X505264Y1019702D01*
X504787Y1018988D01*
X504620Y1018145D01*
Y1015290D01*
X503350Y1014763D01*
X500772Y1017341D01*
X500732Y1017542D01*
X500255Y1018256D01*
X499940Y1018570D01*
Y1019544D01*
X499481Y1020654D01*
X498631Y1021504D01*
X497521Y1021963D01*
X496320D01*
X495210Y1021504D01*
X494360Y1020654D01*
X493900Y1019544D01*
Y1018343D01*
X494360Y1017233D01*
X495210Y1016383D01*
X496320Y1015923D01*
X496361D01*
X496625Y1015660D01*
X496665Y1015459D01*
X497142Y1014745D01*
X499672Y1012215D01*
X498812Y1011301D01*
X498098Y1011778D01*
X497255Y1011946D01*
X496649D01*
X495961Y1012634D01*
X494851Y1013094D01*
X493649D01*
X492539Y1012634D01*
X491690Y1011785D01*
X491230Y1010675D01*
Y1009473D01*
X491690Y1008363D01*
X492539Y1007514D01*
X493010Y1007319D01*
X493132Y1006768D01*
X493126Y1005897D01*
X492440Y1005211D01*
X491980Y1004101D01*
Y1002899D01*
X492313Y1002097D01*
X491236Y1001377D01*
X489020Y1003593D01*
Y1004101D01*
X488560Y1005211D01*
X487711Y1006060D01*
X486601Y1006520D01*
X485399D01*
X484289Y1006060D01*
X483440Y1005211D01*
X482980Y1004101D01*
Y1002899D01*
X483440Y1001789D01*
X484289Y1000940D01*
X485399Y1000480D01*
X485907D01*
X504299Y982088D01*
Y972274D01*
X503773Y971748D01*
X503471Y971297D01*
X502201Y971546D01*
Y979500D01*
X502034Y980342D01*
X501557Y981057D01*
X479020Y1003593D01*
Y1004101D01*
X478560Y1005211D01*
X477711Y1006060D01*
X476601Y1006520D01*
X475399D01*
X474289Y1006060D01*
X473440Y1005211D01*
X472980Y1004101D01*
Y1002899D01*
X473440Y1001789D01*
X474289Y1000940D01*
X475399Y1000480D01*
X475907D01*
X497799Y978588D01*
Y971775D01*
X497254Y971230D01*
X496777Y970516D01*
X496609Y969674D01*
Y964567D01*
X495932Y963890D01*
X495793Y963553D01*
X495322Y963422D01*
X494359Y963411D01*
X493711Y964060D01*
X492601Y964520D01*
X491399D01*
X490289Y964060D01*
X489930Y963701D01*
X484912D01*
X469701Y978912D01*
Y1001430D01*
X470060Y1001789D01*
X470520Y1002899D01*
Y1004101D01*
X470060Y1005211D01*
X469211Y1006060D01*
X468101Y1006520D01*
X466899D01*
X465789Y1006060D01*
X464940Y1005211D01*
X464480Y1004101D01*
Y1002899D01*
X464940Y1001789D01*
X465299Y1001430D01*
Y978000D01*
X465466Y977158D01*
X465943Y976443D01*
X482444Y959943D01*
X482670Y959792D01*
X482284Y958522D01*
X472824D01*
X466400Y964947D01*
X465686Y965424D01*
X464843Y965591D01*
X443964D01*
X443605Y965950D01*
X442495Y966410D01*
X441294D01*
X440184Y965950D01*
X438917Y966479D01*
Y970175D01*
X440314Y971572D01*
X440791Y972286D01*
X440959Y973129D01*
Y985930D01*
X441318Y986289D01*
X441777Y987399D01*
Y988373D01*
X444530Y991125D01*
X445007Y991840D01*
X445175Y992682D01*
Y1000680D01*
X445534Y1001039D01*
X445993Y1002149D01*
Y1003351D01*
X445534Y1004461D01*
X445014Y1004981D01*
X444817Y1005791D01*
X445025Y1006544D01*
X445560Y1007079D01*
X446020Y1008189D01*
Y1009391D01*
X445560Y1010501D01*
X444711Y1011350D01*
X443601Y1011810D01*
X442399D01*
X441289Y1011350D01*
X440601Y1010662D01*
X438960D01*
X438118Y1010494D01*
X437404Y1010017D01*
X432943Y1005556D01*
X432466Y1004842D01*
X432299Y1004000D01*
Y997570D01*
X431940Y997211D01*
X431480Y996101D01*
Y994899D01*
X431940Y993789D01*
X432789Y992940D01*
X433899Y992480D01*
X435101D01*
X436211Y992940D01*
X437060Y993789D01*
X437520Y994899D01*
Y996101D01*
X437060Y997211D01*
X436701Y997570D01*
Y1003088D01*
X439332Y1005719D01*
X439781Y1005624D01*
X440018Y1005188D01*
X440311Y1004214D01*
X439954Y1003351D01*
Y1002149D01*
X440413Y1001039D01*
X440772Y1000680D01*
Y993594D01*
X438198Y991020D01*
X438157D01*
X437047Y990560D01*
X436197Y989711D01*
X435737Y988601D01*
Y987399D01*
X436197Y986289D01*
X436556Y985930D01*
Y974041D01*
X435159Y972643D01*
X434682Y971929D01*
X434514Y971087D01*
Y961830D01*
X431773Y959089D01*
X431667Y958930D01*
X431637Y958927D01*
X430357Y959255D01*
X430276Y959659D01*
X429799Y960373D01*
X428432Y961740D01*
Y1039029D01*
X429204Y1039801D01*
X429280D01*
X430390Y1040261D01*
X431239Y1041110D01*
X431699Y1042220D01*
Y1043422D01*
X431239Y1044532D01*
X430390Y1045381D01*
X429280Y1045841D01*
X428078D01*
X426968Y1045381D01*
X425701Y1045910D01*
Y1056430D01*
X426060Y1056789D01*
X426231Y1057202D01*
X427693Y1057536D01*
X427789Y1057440D01*
X428899Y1056980D01*
X429838D01*
X438375Y1048444D01*
X439089Y1047966D01*
X439932Y1047799D01*
X458040D01*
X458883Y1047966D01*
X459597Y1048444D01*
X460641Y1049488D01*
X492689D01*
X493531Y1049655D01*
X494245Y1050132D01*
X500371Y1056258D01*
X501641Y1055732D01*
Y1036754D01*
X496407Y1031520D01*
X495899D01*
X494789Y1031060D01*
X493940Y1030211D01*
X493480Y1029101D01*
Y1027899D01*
X493940Y1026789D01*
X494789Y1025940D01*
X495899Y1025480D01*
X497101D01*
X498211Y1025940D01*
X499060Y1026789D01*
X499520Y1027899D01*
Y1028407D01*
X505399Y1034286D01*
X505876Y1035000D01*
X506043Y1035842D01*
Y1056255D01*
X508197Y1058408D01*
X509575Y1057990D01*
D02*
G37*
G36*
X535874Y1012000D02*
X535874Y1012000D01*
Y990778D01*
X534936Y989840D01*
X534150Y988664D01*
X533874Y987276D01*
X533874Y987276D01*
Y981500D01*
Y963500D01*
X533874Y963500D01*
X534150Y962113D01*
X534374Y961777D01*
Y952032D01*
X524468Y942126D01*
X511375D01*
Y943000D01*
X511176Y943480D01*
X510977Y943967D01*
X510973Y943969D01*
X510972Y943972D01*
X510490Y944172D01*
X510007Y944375D01*
X506719Y944391D01*
X506325Y945512D01*
X506319Y945663D01*
X517125Y956469D01*
X518299Y955983D01*
Y953570D01*
X517940Y953211D01*
X517480Y952101D01*
Y950899D01*
X517940Y949789D01*
X518789Y948940D01*
X519899Y948480D01*
X521101D01*
X522211Y948940D01*
X523060Y949789D01*
X523520Y950899D01*
Y952101D01*
X523060Y953211D01*
X522701Y953570D01*
Y974731D01*
X523034Y975229D01*
X523201Y976071D01*
Y999676D01*
X523034Y1000518D01*
X522556Y1001232D01*
X512685Y1011104D01*
X513211Y1012374D01*
X535567D01*
X535874Y1012000D01*
D02*
G37*
G36*
X541466Y947129D02*
X541571Y946342D01*
X541440Y946211D01*
X540980Y945101D01*
Y943899D01*
X541440Y942789D01*
X542289Y941940D01*
X543399Y941480D01*
X544601D01*
X545711Y941940D01*
X545999Y942228D01*
X547269Y941702D01*
Y932570D01*
X546910Y932211D01*
X546450Y931101D01*
Y929899D01*
X546910Y928789D01*
X547759Y927940D01*
X548869Y927480D01*
X550071D01*
X550906Y927826D01*
X551780Y927236D01*
X551980Y927001D01*
Y925899D01*
X552440Y924789D01*
X552693Y924536D01*
X552167Y923266D01*
X440939D01*
X433020Y931185D01*
Y931601D01*
X432707Y932355D01*
X433174Y933348D01*
X433442Y933625D01*
X510000D01*
X510972Y934028D01*
X511323Y934874D01*
X525970D01*
X525970Y934874D01*
X527357Y935150D01*
X528534Y935936D01*
X540147Y947550D01*
X541466Y947129D01*
D02*
G37*
G36*
X439119Y911443D02*
X439833Y910966D01*
X440676Y910799D01*
X530088D01*
X548299Y892588D01*
Y892000D01*
X548466Y891158D01*
X548943Y890443D01*
X572299Y867088D01*
Y427412D01*
X514944Y370056D01*
X514466Y369342D01*
X514299Y368500D01*
Y360070D01*
X513940Y359711D01*
X513480Y358601D01*
Y357399D01*
X513940Y356289D01*
X514789Y355440D01*
X515899Y354980D01*
X517101D01*
X518211Y355440D01*
X519060Y356289D01*
X519520Y357399D01*
Y358601D01*
X519060Y359711D01*
X518701Y360070D01*
Y367588D01*
X576057Y424943D01*
X576534Y425658D01*
X576701Y426500D01*
Y445924D01*
X577971Y446579D01*
X578613Y446150D01*
X580000Y445874D01*
X626374D01*
Y423648D01*
X623253D01*
X621866Y423372D01*
X620690Y422586D01*
X619904Y421410D01*
X619628Y420023D01*
X619904Y418635D01*
X620690Y417459D01*
X621866Y416673D01*
X623253Y416397D01*
X626374D01*
Y309875D01*
X601000D01*
X601000Y309875D01*
X600028Y309472D01*
X600028Y309472D01*
X568431Y277875D01*
X467737D01*
Y320500D01*
X467491Y321739D01*
X466789Y322789D01*
X465739Y323491D01*
X464663Y323705D01*
X464338Y324254D01*
X464119Y324956D01*
X490459Y351296D01*
X490784D01*
X491894Y351756D01*
X492048Y351910D01*
X496927D01*
X551010Y297828D01*
X551440Y296789D01*
X552289Y295940D01*
X553399Y295480D01*
X554601D01*
X555711Y295940D01*
X556560Y296789D01*
X557020Y297899D01*
Y299101D01*
X556560Y300211D01*
X555711Y301060D01*
X554672Y301490D01*
X499831Y356331D01*
X498991Y356893D01*
X498000Y357090D01*
X491380D01*
X490784Y357336D01*
X489583D01*
X489007Y357098D01*
X488287Y358174D01*
X501057Y370943D01*
X501534Y371658D01*
X501701Y372500D01*
Y504696D01*
X502060Y505055D01*
X502520Y506165D01*
Y507367D01*
X502060Y508477D01*
X501211Y509326D01*
X500101Y509786D01*
X498899D01*
X497789Y509326D01*
X496940Y508477D01*
X496480Y507367D01*
Y506165D01*
X496940Y505055D01*
X497299Y504696D01*
Y499315D01*
X497032Y499153D01*
X496029Y498930D01*
X495895Y499131D01*
X483276Y511749D01*
X483762Y512923D01*
X504124D01*
X504966Y513090D01*
X505681Y513568D01*
X563557Y571443D01*
X564034Y572158D01*
X564201Y573000D01*
Y795092D01*
X564652Y795323D01*
X565471Y795481D01*
X566147Y794805D01*
X567257Y794345D01*
X568459D01*
X569569Y794805D01*
X570418Y795655D01*
X570878Y796765D01*
Y797966D01*
X570418Y799076D01*
X569942Y799552D01*
Y814671D01*
X570560Y815289D01*
X571020Y816399D01*
Y817601D01*
X570560Y818711D01*
X569711Y819560D01*
X568601Y820020D01*
X567399D01*
X566289Y819560D01*
X565471Y818742D01*
X565298Y818748D01*
X564201Y819039D01*
Y824772D01*
X564034Y825614D01*
X563557Y826328D01*
X546201Y843683D01*
Y847430D01*
X546560Y847789D01*
X547020Y848899D01*
Y850101D01*
X546560Y851211D01*
X545711Y852060D01*
X544601Y852520D01*
X543399D01*
X542289Y852060D01*
X541440Y851211D01*
X540980Y850101D01*
Y848899D01*
X541440Y847789D01*
X541799Y847430D01*
Y845974D01*
X540625Y845488D01*
X536520Y849593D01*
Y850101D01*
X536060Y851211D01*
X535211Y852060D01*
X534101Y852520D01*
X532899D01*
X531789Y852060D01*
X530940Y851211D01*
X530480Y850101D01*
Y848899D01*
X530940Y847789D01*
X531789Y846940D01*
X532899Y846480D01*
X533407D01*
X540657Y839230D01*
Y787391D01*
X539967Y786702D01*
X539490Y785988D01*
X539323Y785145D01*
Y717170D01*
X538053Y716644D01*
X536701Y717995D01*
Y800722D01*
X536534Y801565D01*
X536057Y802279D01*
X534701Y803634D01*
Y839416D01*
X534534Y840258D01*
X534057Y840973D01*
X525020Y850009D01*
Y850101D01*
X524560Y851211D01*
X523711Y852060D01*
X522601Y852520D01*
X521399D01*
X520289Y852060D01*
X519440Y851211D01*
X518980Y850101D01*
Y848899D01*
X519440Y847789D01*
X520116Y847113D01*
X519958Y846295D01*
X519727Y845843D01*
X518236D01*
X514520Y849559D01*
Y849601D01*
X514060Y850711D01*
X513211Y851560D01*
X512101Y852020D01*
X510899D01*
X509789Y851560D01*
X508940Y850711D01*
X508480Y849601D01*
Y848399D01*
X508940Y847289D01*
X509789Y846440D01*
X510899Y845980D01*
X511873D01*
X515768Y842085D01*
X515793Y842068D01*
X515869Y841690D01*
X515797Y840548D01*
X515200Y839951D01*
X514740Y838841D01*
Y837639D01*
X515170Y836601D01*
Y793466D01*
X514779Y793206D01*
X513508Y793888D01*
Y835257D01*
X513336Y836125D01*
X512845Y836860D01*
X502102Y847602D01*
X501367Y848094D01*
X500500Y848266D01*
X487833D01*
X487307Y849536D01*
X487560Y849789D01*
X488020Y850899D01*
Y852101D01*
X487560Y853211D01*
X486711Y854060D01*
X485672Y854490D01*
X477831Y862331D01*
X476991Y862893D01*
X476000Y863090D01*
X421875D01*
Y880874D01*
X431500D01*
X432887Y881150D01*
X434064Y881936D01*
X434850Y883112D01*
X435126Y884500D01*
X434850Y885888D01*
X434064Y887064D01*
X432887Y887850D01*
X431500Y888126D01*
X421875D01*
Y901737D01*
X423145Y902586D01*
X423399Y902480D01*
X424601D01*
X425711Y902940D01*
X425928Y903157D01*
X448480D01*
X448866Y901887D01*
X448639Y901736D01*
X447095Y900191D01*
X430887D01*
X430528Y900550D01*
X429418Y901010D01*
X428217D01*
X427107Y900550D01*
X426257Y899701D01*
X425797Y898591D01*
Y897389D01*
X426257Y896279D01*
X427107Y895430D01*
X428217Y894970D01*
X429418D01*
X430528Y895430D01*
X430737Y895304D01*
X431440Y894211D01*
X430980Y893101D01*
Y891899D01*
X431440Y890789D01*
X432289Y889940D01*
X433399Y889480D01*
X434601D01*
X435711Y889940D01*
X436070Y890299D01*
X450596D01*
X451438Y890466D01*
X452152Y890944D01*
X453678Y892469D01*
X458760D01*
X458789Y892440D01*
X459899Y891980D01*
X461101D01*
X462211Y892440D01*
X463060Y893289D01*
X463520Y894399D01*
Y895601D01*
X463060Y896711D01*
X463589Y897978D01*
X518155D01*
X518440Y897289D01*
X519289Y896440D01*
X520399Y895980D01*
X521601D01*
X522711Y896440D01*
X523560Y897289D01*
X524020Y898399D01*
Y899601D01*
X523560Y900711D01*
X522711Y901560D01*
X521601Y902020D01*
X520486D01*
X520197Y902213D01*
X519355Y902380D01*
X454589D01*
X454060Y903647D01*
X454520Y904757D01*
Y905959D01*
X454060Y907069D01*
X453211Y907918D01*
X452101Y908378D01*
X450899D01*
X449789Y907918D01*
X449430Y907559D01*
X426212D01*
X425711Y908060D01*
X424601Y908520D01*
X423399D01*
X423145Y908415D01*
X421875Y909263D01*
Y926892D01*
X423145Y927418D01*
X439119Y911443D01*
D02*
G37*
G36*
X482010Y850828D02*
X482440Y849789D01*
X482693Y849536D01*
X482167Y848266D01*
X466565D01*
X466271Y848560D01*
X465161Y849020D01*
X463959D01*
X462849Y848560D01*
X462000Y847711D01*
X461540Y846601D01*
Y845399D01*
X462000Y844289D01*
X462849Y843440D01*
X463959Y842980D01*
X465161D01*
X466271Y843440D01*
X466565Y843734D01*
X499561D01*
X508977Y834319D01*
Y808590D01*
X507711Y808060D01*
X506601Y808520D01*
X505399D01*
X504289Y808060D01*
X503440Y807211D01*
X503010Y806172D01*
X492927Y796090D01*
X459363D01*
X459061Y796030D01*
X454939D01*
X454637Y796090D01*
X452873D01*
X444831Y804131D01*
X443991Y804693D01*
X443000Y804890D01*
X370630D01*
X370104Y806160D01*
X377354Y813410D01*
X405290D01*
X407532Y811169D01*
X408372Y810607D01*
X409363Y810410D01*
X419361D01*
X420399Y809980D01*
X421601D01*
X422711Y810440D01*
X423560Y811289D01*
X424020Y812399D01*
Y813601D01*
X423560Y814711D01*
X422711Y815560D01*
X421601Y816020D01*
X420399D01*
X419361Y815590D01*
X410436D01*
X408194Y817831D01*
X407354Y818393D01*
X406363Y818590D01*
X384193D01*
X383707Y819763D01*
X390354Y826410D01*
X392637D01*
X393628Y826607D01*
X394468Y827169D01*
X395210Y827910D01*
X420479D01*
X421399Y827529D01*
X422601D01*
X423521Y827910D01*
X498361D01*
X499399Y827480D01*
X500601D01*
X501711Y827940D01*
X502560Y828789D01*
X503020Y829899D01*
Y831101D01*
X502560Y832211D01*
X501711Y833060D01*
X500601Y833520D01*
X499399D01*
X498361Y833090D01*
X423730D01*
X423711Y833109D01*
X422601Y833569D01*
X421399D01*
X420289Y833109D01*
X420270Y833090D01*
X398693D01*
X398207Y834263D01*
X413354Y849410D01*
X431361D01*
X432399Y848980D01*
X433601D01*
X434711Y849440D01*
X435560Y850289D01*
X436020Y851399D01*
Y852601D01*
X436004Y852640D01*
X436852Y853910D01*
X447531D01*
X450125Y851316D01*
X450371Y850721D01*
X451221Y849871D01*
X452331Y849411D01*
X453532D01*
X454642Y849871D01*
X455492Y850721D01*
X455951Y851831D01*
Y853032D01*
X455492Y854142D01*
X454642Y854992D01*
X453532Y855452D01*
X453314D01*
X452029Y856737D01*
X452515Y857910D01*
X474927D01*
X482010Y850828D01*
D02*
G37*
G36*
X526298Y838733D02*
Y801735D01*
X521620Y797057D01*
X520350Y797583D01*
Y836601D01*
X520780Y837639D01*
Y838841D01*
X520320Y839951D01*
X520101Y840170D01*
X520627Y841440D01*
X523591D01*
X526298Y838733D01*
D02*
G37*
G36*
X508977Y802410D02*
Y794044D01*
X500989Y786057D01*
X500574D01*
X499464Y785597D01*
X498614Y784748D01*
X498154Y783638D01*
Y782437D01*
X498614Y781327D01*
X499464Y780477D01*
X500574Y780017D01*
X501085Y778747D01*
X494427Y772090D01*
X455770D01*
X455518Y773360D01*
X455711Y773440D01*
X456560Y774289D01*
X457020Y775399D01*
Y776601D01*
X456590Y777639D01*
Y790850D01*
X459303D01*
X459605Y790910D01*
X494000D01*
X494991Y791107D01*
X495831Y791669D01*
X506672Y802510D01*
X507711Y802940D01*
X508977Y802410D01*
D02*
G37*
G36*
X559799Y823860D02*
Y702493D01*
X558534Y702342D01*
X558056Y703057D01*
X543725Y717388D01*
Y784233D01*
X544415Y784923D01*
X544892Y785637D01*
X545059Y786479D01*
Y836940D01*
X546233Y837426D01*
X559799Y823860D01*
D02*
G37*
G36*
X449969Y791669D02*
X450809Y791107D01*
X451410Y790988D01*
Y777639D01*
X450980Y776601D01*
Y775399D01*
X451440Y774289D01*
X452289Y773440D01*
X452482Y773360D01*
X452230Y772090D01*
X397639D01*
X396601Y772520D01*
X395399D01*
X394289Y772060D01*
X393440Y771211D01*
X392980Y770101D01*
Y768899D01*
X393440Y767789D01*
X394289Y766940D01*
X395399Y766480D01*
X396601D01*
X397639Y766910D01*
X495500D01*
X496491Y767107D01*
X497331Y767669D01*
X518850Y789187D01*
X520120Y788661D01*
Y716179D01*
X520287Y715337D01*
X520765Y714622D01*
X539299Y696088D01*
Y625824D01*
X539329Y625672D01*
X538159Y625046D01*
X533266Y629939D01*
Y696500D01*
X533093Y697367D01*
X532602Y698102D01*
X509266Y721439D01*
Y765125D01*
X509560Y765419D01*
X510020Y766529D01*
Y767731D01*
X509560Y768841D01*
X508711Y769690D01*
X507601Y770150D01*
X506399D01*
X505289Y769690D01*
X504440Y768841D01*
X503980Y767731D01*
Y766529D01*
X504440Y765419D01*
X504734Y765125D01*
Y743048D01*
X503863Y742139D01*
X503520Y742101D01*
X503060Y743211D01*
X502211Y744060D01*
X501101Y744520D01*
X499899D01*
X498789Y744060D01*
X497940Y743211D01*
X497480Y742101D01*
Y741830D01*
X497092Y741442D01*
X495634D01*
X495367Y741991D01*
X495244Y742712D01*
X495941Y743409D01*
X496400Y744519D01*
Y745720D01*
X495941Y746830D01*
X495091Y747680D01*
X493981Y748139D01*
X492780D01*
X491670Y747680D01*
X490820Y746830D01*
X490702Y746544D01*
X490566Y746517D01*
X463254D01*
X462636Y747135D01*
X461526Y747595D01*
X460324D01*
X459214Y747135D01*
X458365Y746286D01*
X457905Y745176D01*
Y743974D01*
X458365Y742864D01*
X459214Y742015D01*
X460324Y741555D01*
X461526D01*
X462636Y742015D01*
X463254Y742633D01*
X473566D01*
X474092Y741363D01*
X473940Y741211D01*
X473480Y740101D01*
Y738899D01*
X473940Y737789D01*
X474789Y736940D01*
X475899Y736480D01*
X477101D01*
X478211Y736940D01*
X478829Y737558D01*
X497896D01*
X498640Y737706D01*
X499270Y738127D01*
X499704Y738561D01*
X499899Y738480D01*
X501101D01*
X502211Y738940D01*
X503060Y739789D01*
X503520Y740899D01*
X503863Y740861D01*
X504734Y739952D01*
Y720500D01*
X504907Y719633D01*
X505398Y718898D01*
X528734Y695561D01*
Y629000D01*
X528907Y628133D01*
X529398Y627398D01*
X537980Y618815D01*
Y618399D01*
X538440Y617289D01*
X539289Y616440D01*
X540399Y615980D01*
X540921Y614710D01*
X539944Y613732D01*
X539466Y613018D01*
X539299Y612176D01*
Y590912D01*
X505588Y557201D01*
X499414D01*
X499084Y558431D01*
X497914Y560459D01*
X496259Y562114D01*
X494231Y563284D01*
X491970Y563890D01*
X489630D01*
X487369Y563284D01*
X485341Y562114D01*
X483686Y560459D01*
X482516Y558431D01*
X481910Y556170D01*
Y553830D01*
X482516Y551569D01*
X483686Y549541D01*
X485341Y547886D01*
X487369Y546716D01*
X487568Y546662D01*
X487401Y545392D01*
X478991D01*
X478149Y545225D01*
X477435Y544748D01*
X469934Y537247D01*
X468831Y537884D01*
X466570Y538490D01*
X464230D01*
X461969Y537884D01*
X459941Y536714D01*
X458286Y535059D01*
X457116Y533031D01*
X456510Y530770D01*
Y528430D01*
X457116Y526169D01*
X458286Y524141D01*
X459941Y522486D01*
X461969Y521316D01*
X462168Y521262D01*
X462001Y519992D01*
X443399D01*
X443232Y521262D01*
X443431Y521316D01*
X445459Y522486D01*
X447114Y524141D01*
X448284Y526169D01*
X448890Y528430D01*
Y530770D01*
X448284Y533031D01*
X447114Y535059D01*
X445459Y536714D01*
X443431Y537884D01*
X441170Y538490D01*
X438830D01*
X436569Y537884D01*
X434541Y536714D01*
X432886Y535059D01*
X431716Y533031D01*
X431110Y530770D01*
Y528430D01*
X431716Y526169D01*
X432886Y524141D01*
X434541Y522486D01*
X436569Y521316D01*
X436768Y521262D01*
X436601Y519992D01*
X427321D01*
X422247Y525066D01*
X422884Y526169D01*
X423490Y528430D01*
Y530770D01*
X422884Y533031D01*
X421714Y535059D01*
X420059Y536714D01*
X418031Y537884D01*
X415770Y538490D01*
X413430D01*
X411169Y537884D01*
X409141Y536714D01*
X407486Y535059D01*
X406316Y533031D01*
X406262Y532832D01*
X404992Y532999D01*
Y542279D01*
X410066Y547353D01*
X411169Y546716D01*
X413430Y546110D01*
X415770D01*
X418031Y546716D01*
X420059Y547886D01*
X421714Y549541D01*
X422884Y551569D01*
X423490Y553830D01*
Y556170D01*
X422884Y558431D01*
X421714Y560459D01*
X420059Y562114D01*
X418031Y563284D01*
X415770Y563890D01*
X413430D01*
X411169Y563284D01*
X409141Y562114D01*
X407486Y560459D01*
X406316Y558431D01*
X405710Y556170D01*
Y553830D01*
X406316Y551569D01*
X406953Y550466D01*
X401235Y544748D01*
X400757Y544033D01*
X400590Y543191D01*
Y524709D01*
X400757Y523866D01*
X401235Y523152D01*
X410819Y513568D01*
X411533Y513090D01*
X412376Y512923D01*
X462311D01*
X462840Y511656D01*
X462380Y510546D01*
Y509344D01*
X462840Y508234D01*
X463689Y507385D01*
X464799Y506925D01*
X466001D01*
X467111Y507385D01*
X467799Y508073D01*
X472080D01*
X472922Y508241D01*
X473121Y508373D01*
X473661Y508145D01*
X474290Y507628D01*
Y506677D01*
X474750Y505567D01*
X475600Y504718D01*
X476710Y504258D01*
X477583D01*
X489983Y491859D01*
Y464230D01*
X468202Y442448D01*
X467780Y441818D01*
X467633Y441075D01*
Y426880D01*
X397627Y356873D01*
X397206Y356243D01*
X397058Y355500D01*
Y291689D01*
X394627Y289258D01*
X394534Y289118D01*
X393189Y288851D01*
X392975Y288898D01*
X392590Y289294D01*
Y355064D01*
X428891Y391366D01*
X429453Y392206D01*
X429650Y393197D01*
Y433440D01*
X429453Y434431D01*
X428891Y435271D01*
X427644Y436518D01*
X427439Y437013D01*
X426590Y437863D01*
X425480Y438322D01*
X424278D01*
X423168Y437863D01*
X422319Y437013D01*
X421859Y435903D01*
Y434702D01*
X422319Y433592D01*
X423168Y432742D01*
X424278Y432282D01*
X424470D01*
Y399319D01*
X423200Y398641D01*
X422887Y398850D01*
X421500Y399126D01*
X370421D01*
X370158Y485475D01*
X371055Y486374D01*
X484500D01*
X485887Y486650D01*
X487064Y487436D01*
X487850Y488613D01*
X488126Y490000D01*
X487850Y491387D01*
X487064Y492564D01*
X485887Y493350D01*
X484500Y493626D01*
X370133D01*
X370036Y525463D01*
X370933Y526363D01*
X380864D01*
X380916Y526169D01*
X382086Y524141D01*
X383741Y522486D01*
X385769Y521316D01*
X388030Y520710D01*
X390370D01*
X392631Y521316D01*
X394659Y522486D01*
X396314Y524141D01*
X397484Y526169D01*
X398090Y528430D01*
Y530770D01*
X397484Y533031D01*
X396314Y535059D01*
X394659Y536714D01*
X392631Y537884D01*
X390370Y538490D01*
X388030D01*
X385769Y537884D01*
X383741Y536714D01*
X382086Y535059D01*
X380916Y533031D01*
X380864Y532837D01*
X370014D01*
X369821Y595975D01*
X370718Y596874D01*
X524000D01*
X525387Y597150D01*
X526564Y597936D01*
X527350Y599113D01*
X527626Y600500D01*
X527350Y601888D01*
X526564Y603064D01*
X525387Y603850D01*
X524000Y604126D01*
X369796D01*
X369613Y664475D01*
X370509Y665374D01*
X436500D01*
X437887Y665650D01*
X439064Y666436D01*
X439850Y667613D01*
X440126Y669000D01*
X439850Y670387D01*
X439064Y671564D01*
X437887Y672350D01*
X436500Y672626D01*
X369588D01*
X369520Y694975D01*
X370416Y695874D01*
X512000D01*
X513387Y696150D01*
X514564Y696936D01*
X515350Y698112D01*
X515626Y699500D01*
X515350Y700888D01*
X514564Y702064D01*
X513387Y702850D01*
X512000Y703126D01*
X369495D01*
X369390Y737489D01*
X369197Y737950D01*
X369389Y738366D01*
X369379Y738393D01*
X369390Y738420D01*
X369390Y799710D01*
X441927D01*
X449969Y791669D01*
D02*
G37*
G36*
X532299Y799128D02*
Y717083D01*
X532466Y716241D01*
X532943Y715527D01*
X546645Y701825D01*
Y625452D01*
X545471Y624966D01*
X543701Y626736D01*
Y697000D01*
X543534Y697842D01*
X543056Y698557D01*
X524522Y717091D01*
Y793733D01*
X530056Y799267D01*
X530202Y799486D01*
X531628Y799754D01*
X532299Y799128D01*
D02*
G37*
G36*
X347125Y710749D02*
Y586348D01*
X345855Y586096D01*
X345537Y586864D01*
X344688Y587713D01*
X343578Y588173D01*
X342376D01*
X341266Y587713D01*
X340417Y586864D01*
X339957Y585754D01*
Y585230D01*
X311127Y556400D01*
X310706Y555770D01*
X310558Y555026D01*
Y550458D01*
X309940Y549841D01*
X309480Y548731D01*
Y547529D01*
X309940Y546419D01*
X310789Y545570D01*
X311899Y545110D01*
X313101D01*
X313400Y545234D01*
X314119Y544157D01*
X295971Y526009D01*
X294701Y526520D01*
Y652588D01*
X340593Y698480D01*
X341101D01*
X342211Y698940D01*
X343060Y699789D01*
X343520Y700899D01*
Y702101D01*
X343060Y703211D01*
X342211Y704060D01*
X341101Y704520D01*
X340429D01*
X339903Y705790D01*
X343093Y708980D01*
X343601D01*
X344711Y709440D01*
X345560Y710289D01*
X345855Y711002D01*
X347125Y710749D01*
D02*
G37*
G36*
Y559719D02*
Y548935D01*
X346823Y548766D01*
X345855Y548545D01*
X345211Y549190D01*
X344101Y549650D01*
X342899D01*
X341789Y549190D01*
X340940Y548341D01*
X340480Y547231D01*
Y546029D01*
X340940Y544919D01*
X341558Y544301D01*
Y499595D01*
X341706Y498852D01*
X342127Y498222D01*
X344058Y496290D01*
Y381487D01*
X342788Y380961D01*
X342372Y381377D01*
X341262Y381836D01*
X340060D01*
X338950Y381377D01*
X338796Y381222D01*
X331844D01*
X330853Y381025D01*
X330012Y380464D01*
X327678Y378130D01*
X319714D01*
X318676Y378560D01*
X317474D01*
X316364Y378100D01*
X315860Y377596D01*
X314590Y378084D01*
Y419361D01*
X315020Y420399D01*
Y421601D01*
X314560Y422711D01*
X313711Y423560D01*
X312601Y424020D01*
X311399D01*
X310289Y423560D01*
X309858Y423129D01*
X308588Y423655D01*
Y492345D01*
X309858Y492871D01*
X310289Y492440D01*
X311399Y491980D01*
X312601D01*
X313711Y492440D01*
X314329Y493058D01*
X325660D01*
X328486Y490231D01*
X328029Y489126D01*
X326787Y489001D01*
X326227Y489560D01*
X325118Y490020D01*
X323916D01*
X322806Y489560D01*
X321957Y488711D01*
X321497Y487601D01*
Y486399D01*
X321957Y485289D01*
X322806Y484440D01*
X323916Y483980D01*
X325118D01*
X326201Y484429D01*
X332965D01*
X334021Y483373D01*
X334470Y482289D01*
X335319Y481440D01*
X336429Y480980D01*
X337631D01*
X338741Y481440D01*
X339590Y482289D01*
X340050Y483399D01*
Y484601D01*
X339590Y485711D01*
X338859Y486442D01*
X338862Y487177D01*
X338990Y487831D01*
X339578Y488075D01*
X340427Y488924D01*
X340887Y490034D01*
Y491236D01*
X340427Y492346D01*
X339578Y493195D01*
X338468Y493655D01*
X337266D01*
X336156Y493195D01*
X335403Y492442D01*
X331769D01*
X327838Y496373D01*
X327207Y496795D01*
X326464Y496942D01*
X314329D01*
X313711Y497560D01*
X312601Y498020D01*
X311399D01*
X310289Y497560D01*
X309858Y497129D01*
X308588Y497655D01*
Y518341D01*
X342227Y551980D01*
X343101D01*
X344211Y552440D01*
X345060Y553289D01*
X345520Y554399D01*
Y555601D01*
X345060Y556711D01*
X344552Y557219D01*
X344413Y558313D01*
X344544Y558797D01*
X345952Y560205D01*
X347125Y559719D01*
D02*
G37*
G36*
X554299Y700588D02*
Y579511D01*
X501991Y527204D01*
X500853Y527861D01*
X500960Y528262D01*
Y528330D01*
X480640D01*
Y528262D01*
X481332Y525678D01*
X482670Y523362D01*
X484562Y521470D01*
X484921Y521262D01*
X484581Y519992D01*
X468799D01*
X468632Y521262D01*
X468831Y521316D01*
X470859Y522486D01*
X472514Y524141D01*
X473684Y526169D01*
X474290Y528430D01*
Y530770D01*
X473684Y533031D01*
X473047Y534134D01*
X479903Y540990D01*
X489365D01*
X489462Y539760D01*
X486878Y539068D01*
X484562Y537730D01*
X482670Y535838D01*
X481332Y533522D01*
X480640Y530938D01*
Y530870D01*
X500960D01*
Y530938D01*
X500268Y533522D01*
X498930Y535838D01*
X497038Y537730D01*
X494722Y539068D01*
X492138Y539760D01*
X492235Y540990D01*
X502691D01*
X503533Y541157D01*
X504248Y541634D01*
X550403Y587789D01*
X550880Y588504D01*
X551047Y589346D01*
Y702044D01*
X552317Y702570D01*
X554299Y700588D01*
D02*
G37*
G36*
X492137Y459230D02*
Y444574D01*
X472551Y424989D01*
X471437Y425670D01*
X471517Y426075D01*
Y440270D01*
X490963Y459716D01*
X492137Y459230D01*
D02*
G37*
G36*
X411940Y390635D02*
X411693Y390039D01*
X408927Y387273D01*
X405196D01*
X404601Y387520D01*
X403399D01*
X402289Y387060D01*
X401440Y386211D01*
X400980Y385101D01*
Y383899D01*
X401440Y382789D01*
X402289Y381940D01*
X403399Y381480D01*
X404601D01*
X405711Y381940D01*
X405865Y382094D01*
X410000D01*
X410622Y382218D01*
X411261Y381060D01*
X388169Y357968D01*
X387607Y357128D01*
X387410Y356137D01*
Y288639D01*
X386980Y287601D01*
Y286399D01*
X387440Y285289D01*
X388289Y284440D01*
X389399Y283980D01*
X390601D01*
X391711Y284440D01*
X392560Y285289D01*
X392788Y285838D01*
X394058Y285586D01*
Y283829D01*
X393440Y283211D01*
X392980Y282101D01*
Y280899D01*
X393440Y279789D01*
X394084Y279145D01*
X393864Y278177D01*
X393695Y277875D01*
X370791D01*
X370446Y390975D01*
X371343Y391874D01*
X411383D01*
X411940Y390635D01*
D02*
G37*
G36*
X460797Y320646D02*
X461263Y320304D01*
Y277875D01*
X410251D01*
X409998Y279145D01*
X410711Y279440D01*
X411560Y280289D01*
X412020Y281399D01*
Y281907D01*
X438382Y308269D01*
X439394Y307653D01*
X439480Y307571D01*
Y306399D01*
X439940Y305289D01*
X440789Y304440D01*
X441899Y303980D01*
X443101D01*
X444211Y304440D01*
X445060Y305289D01*
X445490Y306328D01*
X460044Y320881D01*
X460797Y320646D01*
D02*
G37*
G36*
X497299Y441921D02*
Y373412D01*
X408907Y285020D01*
X408399D01*
X407289Y284560D01*
X406440Y283711D01*
X405980Y282601D01*
Y281399D01*
X406440Y280289D01*
X407289Y279440D01*
X408002Y279145D01*
X407749Y277875D01*
X398305D01*
X398136Y278177D01*
X397916Y279145D01*
X398560Y279789D01*
X399020Y280899D01*
Y282101D01*
X398560Y283211D01*
X397942Y283829D01*
Y287080D01*
X400330Y289468D01*
X401412Y288952D01*
X401480Y288881D01*
Y287724D01*
X401940Y286614D01*
X402789Y285765D01*
X403899Y285305D01*
X405101D01*
X406211Y285765D01*
X407060Y286614D01*
X407520Y287724D01*
Y288926D01*
X407060Y290036D01*
X406701Y290395D01*
Y352912D01*
X495895Y442106D01*
X496029Y442306D01*
X497299Y441921D01*
D02*
G37*
G36*
X437000Y1120000D02*
X433500Y1116500D01*
X423000D01*
X420500Y1114000D01*
Y1110625D01*
X421000Y1110125D01*
X420500Y1109625D01*
Y1092695D01*
X420466Y1092614D01*
Y1091413D01*
X420500Y1091332D01*
Y1063500D01*
X420500D01*
Y1059149D01*
X420480Y1059101D01*
Y1057899D01*
X420500Y1057851D01*
Y1003636D01*
X419651Y1002786D01*
X419173Y1002072D01*
X419006Y1001230D01*
Y978244D01*
X419173Y977402D01*
X419651Y976688D01*
X420500Y975838D01*
Y954771D01*
X420440Y954711D01*
X419980Y953601D01*
Y952399D01*
X420440Y951289D01*
X420500Y951229D01*
Y943435D01*
X510000Y943000D01*
Y935000D01*
X420500D01*
Y858500D01*
X368015Y806015D01*
X368015Y738420D01*
X367530Y737970D01*
X368015Y737485D01*
X369421Y276500D01*
X569000D01*
X601000Y308500D01*
X631500D01*
X635500Y304500D01*
Y253750D01*
X369486Y255140D01*
X369486Y255000D01*
X348500D01*
Y255250D01*
Y276500D01*
Y739000D01*
D01*
Y811500D01*
X405000Y868000D01*
Y960000D01*
X305250D01*
X303250Y962000D01*
Y969000D01*
X305250Y971000D01*
X405000D01*
Y1062125D01*
X405000D01*
Y1111625D01*
Y1116500D01*
X416500Y1128000D01*
X437000D01*
Y1120000D01*
D02*
G37*
G36*
X103500Y860000D02*
Y404000D01*
X189500Y318000D01*
Y244000D01*
Y228500D01*
X210058D01*
X213000Y225558D01*
Y193500D01*
X174000D01*
X172000Y195500D01*
Y209000D01*
X171500Y209500D01*
Y244000D01*
Y285500D01*
X70000Y387000D01*
Y859500D01*
X79000Y868500D01*
X95000D01*
X103500Y860000D01*
D02*
G37*
G36*
X290944Y199619D02*
X337709Y152854D01*
X338423Y152377D01*
X339265Y152209D01*
X346502D01*
X380478Y118233D01*
Y113497D01*
X379382Y112529D01*
X379126Y112487D01*
X378236Y113378D01*
X377521Y113855D01*
X376679Y114022D01*
X354767D01*
X287022Y181767D01*
Y190088D01*
X288557Y191623D01*
X289034Y192337D01*
X289201Y193179D01*
Y200183D01*
X290466Y200333D01*
X290944Y199619D01*
D02*
G37*
G36*
X534940Y123532D02*
X534480Y122422D01*
Y122006D01*
X498155Y85681D01*
X497664Y84946D01*
X497491Y84079D01*
Y77339D01*
X493554Y73401D01*
X492538Y74181D01*
X493199Y75326D01*
X494095Y78670D01*
Y82130D01*
X493199Y85474D01*
X491468Y88471D01*
X489021Y90918D01*
X486024Y92649D01*
X482681Y93545D01*
X479220D01*
X475876Y92649D01*
X474727Y91985D01*
X473947Y93001D01*
X486513Y105568D01*
X506269D01*
X507111Y105735D01*
X507825Y106212D01*
X526412Y124799D01*
X534411D01*
X534940Y123532D01*
D02*
G37*
%LPC*%
G36*
X541170Y534690D02*
X538830D01*
X536569Y534084D01*
X534541Y532914D01*
X532886Y531259D01*
X531716Y529231D01*
X531110Y526970D01*
Y524630D01*
X531716Y522369D01*
X532886Y520341D01*
X534541Y518686D01*
X536569Y517516D01*
X538830Y516910D01*
X541170D01*
X543431Y517516D01*
X545459Y518686D01*
X547114Y520341D01*
X548284Y522369D01*
X548890Y524630D01*
Y526970D01*
X548284Y529231D01*
X547114Y531259D01*
X545459Y532914D01*
X543431Y534084D01*
X541170Y534690D01*
D02*
G37*
G36*
Y509290D02*
X538830D01*
X536569Y508684D01*
X534541Y507514D01*
X532886Y505859D01*
X531716Y503831D01*
X531110Y501570D01*
Y499230D01*
X531716Y496969D01*
X532886Y494941D01*
X534541Y493286D01*
X536569Y492116D01*
X538830Y491510D01*
X541170D01*
X543431Y492116D01*
X545459Y493286D01*
X547114Y494941D01*
X548284Y496969D01*
X548890Y499230D01*
Y501570D01*
X548284Y503831D01*
X547114Y505859D01*
X545459Y507514D01*
X543431Y508684D01*
X541170Y509290D01*
D02*
G37*
G36*
Y483890D02*
X538830D01*
X536569Y483284D01*
X534541Y482114D01*
X532886Y480459D01*
X531716Y478431D01*
X531110Y476170D01*
Y473830D01*
X531716Y471569D01*
X532886Y469541D01*
X534541Y467886D01*
X536569Y466716D01*
X538830Y466110D01*
X541170D01*
X543431Y466716D01*
X545459Y467886D01*
X547114Y469541D01*
X548284Y471569D01*
X548890Y473830D01*
Y476170D01*
X548284Y478431D01*
X547114Y480459D01*
X545459Y482114D01*
X543431Y483284D01*
X541170Y483890D01*
D02*
G37*
G36*
X541338Y459760D02*
X541270D01*
Y450870D01*
X550160D01*
Y450938D01*
X549468Y453522D01*
X548130Y455838D01*
X546238Y457730D01*
X543922Y459068D01*
X541338Y459760D01*
D02*
G37*
G36*
X538730D02*
X538662D01*
X536078Y459068D01*
X533762Y457730D01*
X531870Y455838D01*
X530532Y453522D01*
X529840Y450938D01*
Y450870D01*
X538730D01*
Y459760D01*
D02*
G37*
G36*
X550160Y448330D02*
X541270D01*
Y439440D01*
X541338D01*
X543922Y440132D01*
X546238Y441470D01*
X548130Y443362D01*
X549468Y445678D01*
X550160Y448262D01*
Y448330D01*
D02*
G37*
G36*
X538730D02*
X529840D01*
Y448262D01*
X530532Y445678D01*
X531870Y443362D01*
X533762Y441470D01*
X536078Y440132D01*
X538662Y439440D01*
X538730D01*
Y448330D01*
D02*
G37*
G36*
X508101Y508520D02*
X506899D01*
X505789Y508060D01*
X504940Y507211D01*
X504480Y506101D01*
Y504899D01*
X504940Y503789D01*
X505789Y502940D01*
X506899Y502480D01*
X507192D01*
X517799Y491873D01*
Y436500D01*
X517966Y435658D01*
X518443Y434944D01*
X520943Y432444D01*
X521658Y431966D01*
X522500Y431799D01*
X552500D01*
X553342Y431966D01*
X554057Y432444D01*
X566914Y445301D01*
X567391Y446015D01*
X567559Y446858D01*
Y457764D01*
X567918Y458123D01*
X568378Y459232D01*
Y460434D01*
X567918Y461544D01*
X567068Y462393D01*
X565958Y462853D01*
X564757D01*
X563647Y462393D01*
X562797Y461544D01*
X562338Y460434D01*
Y459232D01*
X562797Y458123D01*
X563156Y457764D01*
Y447770D01*
X551588Y436201D01*
X523412D01*
X522201Y437412D01*
Y492785D01*
X522034Y493627D01*
X521557Y494341D01*
X510520Y505378D01*
Y506101D01*
X510060Y507211D01*
X509211Y508060D01*
X508101Y508520D01*
D02*
G37*
G36*
X507601Y397520D02*
X506399D01*
X505289Y397060D01*
X504440Y396211D01*
X503980Y395101D01*
Y393899D01*
X504440Y392789D01*
X504799Y392430D01*
Y362271D01*
X504289Y362060D01*
X503440Y361211D01*
X502980Y360101D01*
Y358899D01*
X503440Y357789D01*
X504289Y356940D01*
X505399Y356480D01*
X506601D01*
X507711Y356940D01*
X508560Y357789D01*
X509020Y358899D01*
Y359637D01*
X509034Y359658D01*
X509201Y360500D01*
Y392430D01*
X509560Y392789D01*
X510020Y393899D01*
Y395101D01*
X509560Y396211D01*
X508711Y397060D01*
X507601Y397520D01*
D02*
G37*
G36*
X558601Y386020D02*
X557399D01*
X556289Y385560D01*
X555440Y384711D01*
X554980Y383601D01*
Y382399D01*
X555440Y381289D01*
X556289Y380440D01*
X557399Y379980D01*
X558247D01*
X562107Y376120D01*
X562012Y375537D01*
X561709Y374771D01*
X560789Y374390D01*
X559940Y373541D01*
X559480Y372431D01*
Y371229D01*
X559940Y370119D01*
X560399Y369660D01*
Y361670D01*
X560140Y361411D01*
X559680Y360301D01*
Y359099D01*
X560140Y357989D01*
X560989Y357140D01*
X562099Y356680D01*
X563301D01*
X564411Y357140D01*
X564807Y357536D01*
X566236Y357280D01*
X566440Y356789D01*
X567289Y355940D01*
X568399Y355480D01*
X569601D01*
X570711Y355940D01*
X571560Y356789D01*
X572020Y357899D01*
Y359101D01*
X571560Y360211D01*
X571266Y360505D01*
Y372744D01*
X571266Y372744D01*
X571093Y373611D01*
X570602Y374346D01*
X566040Y378909D01*
X565305Y379400D01*
X565219Y379417D01*
X561009Y383627D01*
X560560Y384711D01*
X559711Y385560D01*
X558601Y386020D01*
D02*
G37*
G36*
X408101Y736520D02*
X406899D01*
X405789Y736060D01*
X404940Y735211D01*
X404480Y734101D01*
Y732899D01*
X404940Y731789D01*
X405789Y730940D01*
X406899Y730480D01*
X408101D01*
X409211Y730940D01*
X409570Y731299D01*
X441753D01*
X442916Y730135D01*
Y730094D01*
X443307Y729150D01*
X443035Y728440D01*
X442683Y727880D01*
X429895D01*
X429053Y727713D01*
X428339Y727235D01*
X424804Y723701D01*
X412570D01*
X412211Y724060D01*
X411101Y724520D01*
X409899D01*
X408789Y724060D01*
X407940Y723211D01*
X407480Y722101D01*
Y720899D01*
X407940Y719789D01*
X408789Y718940D01*
X409899Y718480D01*
X411101D01*
X412211Y718940D01*
X412570Y719299D01*
X425716D01*
X426558Y719466D01*
X427273Y719943D01*
X430807Y723478D01*
X439411D01*
X439940Y722211D01*
X439480Y721101D01*
Y719899D01*
X439940Y718789D01*
X440299Y718430D01*
Y711570D01*
X439940Y711211D01*
X439480Y710101D01*
Y708899D01*
X439940Y707789D01*
X440789Y706940D01*
X441899Y706480D01*
X443101D01*
X444211Y706940D01*
X445060Y707789D01*
X445520Y708899D01*
Y710101D01*
X445060Y711211D01*
X444701Y711570D01*
Y718430D01*
X445060Y718789D01*
X445520Y719899D01*
Y721101D01*
X445129Y722044D01*
X445401Y722754D01*
X445753Y723314D01*
X469515D01*
X470358Y723482D01*
X471072Y723959D01*
X473593Y726480D01*
X474101D01*
X475211Y726940D01*
X476060Y727789D01*
X476520Y728899D01*
Y730101D01*
X476060Y731211D01*
X475211Y732060D01*
X474101Y732520D01*
X472899D01*
X471789Y732060D01*
X470940Y731211D01*
X470480Y730101D01*
Y729593D01*
X468604Y727717D01*
X449025D01*
X448496Y728984D01*
X448956Y730094D01*
Y731295D01*
X448496Y732405D01*
X447647Y733255D01*
X446537Y733715D01*
X445563D01*
X444221Y735057D01*
X443507Y735534D01*
X442665Y735701D01*
X409570D01*
X409211Y736060D01*
X408101Y736520D01*
D02*
G37*
G36*
X454601Y692520D02*
X453399D01*
X452289Y692060D01*
X451440Y691211D01*
X450980Y690101D01*
Y688899D01*
X451440Y687789D01*
X452289Y686940D01*
X453399Y686480D01*
X453907D01*
X522443Y617943D01*
X523158Y617466D01*
X524000Y617299D01*
X527930D01*
X528289Y616940D01*
X529399Y616480D01*
X530601D01*
X531711Y616940D01*
X532560Y617789D01*
X533020Y618899D01*
Y620101D01*
X532560Y621211D01*
X531711Y622060D01*
X530601Y622520D01*
X529399D01*
X528289Y622060D01*
X527930Y621701D01*
X524912D01*
X457020Y689593D01*
Y690101D01*
X456560Y691211D01*
X455711Y692060D01*
X454601Y692520D01*
D02*
G37*
G36*
X410599Y661170D02*
X406401D01*
X402255Y660513D01*
X398262Y659216D01*
X394522Y657310D01*
X391126Y654843D01*
X388157Y651874D01*
X385690Y648478D01*
X383784Y644738D01*
X382487Y640745D01*
X381830Y636599D01*
Y632401D01*
X382487Y628255D01*
X383784Y624262D01*
X385690Y620522D01*
X388157Y617126D01*
X391126Y614157D01*
X394522Y611690D01*
X398262Y609784D01*
X402255Y608487D01*
X406401Y607830D01*
X410599D01*
X414745Y608487D01*
X418738Y609784D01*
X422478Y611690D01*
X425874Y614157D01*
X428843Y617126D01*
X431310Y620522D01*
X433216Y624262D01*
X434513Y628255D01*
X435170Y632401D01*
Y636599D01*
X434513Y640745D01*
X433216Y644738D01*
X431310Y648478D01*
X428843Y651874D01*
X425874Y654843D01*
X422478Y657310D01*
X418738Y659216D01*
X414745Y660513D01*
X410599Y661170D01*
D02*
G37*
G36*
X466570Y563890D02*
X464230D01*
X461969Y563284D01*
X459941Y562114D01*
X458286Y560459D01*
X457116Y558431D01*
X456510Y556170D01*
Y553830D01*
X457116Y551569D01*
X458286Y549541D01*
X459941Y547886D01*
X461969Y546716D01*
X464230Y546110D01*
X466570D01*
X468831Y546716D01*
X470859Y547886D01*
X472514Y549541D01*
X473684Y551569D01*
X474290Y553830D01*
Y556170D01*
X473684Y558431D01*
X472514Y560459D01*
X470859Y562114D01*
X468831Y563284D01*
X466570Y563890D01*
D02*
G37*
G36*
X441170D02*
X438830D01*
X436569Y563284D01*
X434541Y562114D01*
X432886Y560459D01*
X431716Y558431D01*
X431110Y556170D01*
Y553830D01*
X431716Y551569D01*
X432886Y549541D01*
X434541Y547886D01*
X436569Y546716D01*
X438830Y546110D01*
X441170D01*
X443431Y546716D01*
X445459Y547886D01*
X447114Y549541D01*
X448284Y551569D01*
X448890Y553830D01*
Y556170D01*
X448284Y558431D01*
X447114Y560459D01*
X445459Y562114D01*
X443431Y563284D01*
X441170Y563890D01*
D02*
G37*
G36*
X390370D02*
X388030D01*
X385769Y563284D01*
X383741Y562114D01*
X382086Y560459D01*
X380916Y558431D01*
X380310Y556170D01*
Y553830D01*
X380916Y551569D01*
X382086Y549541D01*
X383741Y547886D01*
X385769Y546716D01*
X388030Y546110D01*
X390370D01*
X392631Y546716D01*
X394659Y547886D01*
X396314Y549541D01*
X397484Y551569D01*
X398090Y553830D01*
Y556170D01*
X397484Y558431D01*
X396314Y560459D01*
X394659Y562114D01*
X392631Y563284D01*
X390370Y563890D01*
D02*
G37*
G36*
X340101Y416520D02*
X338899D01*
X337861Y416090D01*
X322139D01*
X321101Y416520D01*
X319899D01*
X318789Y416060D01*
X317940Y415211D01*
X317480Y414101D01*
Y412899D01*
X317940Y411789D01*
X318789Y410940D01*
X319899Y410480D01*
X321101D01*
X322139Y410910D01*
X337861D01*
X338899Y410480D01*
X340101D01*
X341211Y410940D01*
X342060Y411789D01*
X342520Y412899D01*
Y414101D01*
X342060Y415211D01*
X341211Y416060D01*
X340101Y416520D01*
D02*
G37*
G36*
X339101Y393520D02*
X337899D01*
X336789Y393060D01*
X335940Y392211D01*
X335932Y392192D01*
X322579D01*
X322211Y392560D01*
X321101Y393020D01*
X319899D01*
X318789Y392560D01*
X317940Y391711D01*
X317480Y390601D01*
Y389399D01*
X317940Y388289D01*
X318789Y387440D01*
X319899Y386980D01*
X321101D01*
X322211Y387440D01*
X323060Y388289D01*
X323068Y388308D01*
X336421D01*
X336789Y387940D01*
X337899Y387480D01*
X339101D01*
X340211Y387940D01*
X341060Y388789D01*
X341520Y389899D01*
Y391101D01*
X341060Y392211D01*
X340211Y393060D01*
X339101Y393520D01*
D02*
G37*
%LPD*%
G36*
X123500Y990000D02*
Y979500D01*
X121500Y977500D01*
X34500D01*
X29000Y948000D01*
X8000Y948000D01*
Y989000D01*
X10000Y991000D01*
X122500D01*
X123500Y990000D01*
D02*
G37*
G36*
X237500Y166448D02*
X201000Y138000D01*
Y131051D01*
X199797Y130643D01*
X199730Y130730D01*
X197320Y132580D01*
X194513Y133743D01*
X192770Y133972D01*
Y115000D01*
X191500D01*
Y113730D01*
X179860D01*
Y107500D01*
X180257Y104487D01*
X181420Y101680D01*
X183270Y99270D01*
X184009Y98703D01*
X183600Y97500D01*
X124500D01*
Y132302D01*
X125770Y132733D01*
X127056Y131056D01*
X129676Y129046D01*
X132726Y127783D01*
X136000Y127352D01*
X143730D01*
Y140000D01*
X145000D01*
Y141270D01*
X166481D01*
X166217Y143274D01*
X164954Y146324D01*
X162944Y148944D01*
X160616Y150730D01*
X160952Y152000D01*
X185000D01*
X212500Y179500D01*
X237500D01*
Y166448D01*
D02*
G37*
G36*
X257000Y105500D02*
X282000D01*
Y85500D01*
X272573D01*
X271405Y84332D01*
Y71332D01*
X267349D01*
X265905Y72776D01*
Y85500D01*
X251011D01*
X250746Y85773D01*
X250274Y86770D01*
X250585Y87520D01*
Y88721D01*
X250125Y89831D01*
X249276Y90681D01*
X248166Y91141D01*
X246964D01*
X245854Y90681D01*
X245005Y89831D01*
X244545Y88721D01*
Y87594D01*
X243627Y86676D01*
X243206Y86046D01*
X243097Y85500D01*
X243058Y85302D01*
Y71000D01*
X238500D01*
Y84000D01*
X237000Y85500D01*
X202500Y120000D01*
Y136000D01*
X226500D01*
X257000Y105500D01*
D02*
G37*
%LPC*%
G36*
X166481Y138730D02*
X146270D01*
Y127352D01*
X154000D01*
X157274Y127783D01*
X160324Y129046D01*
X162944Y131056D01*
X164954Y133676D01*
X166217Y136726D01*
X166481Y138730D01*
D02*
G37*
G36*
X190230Y133972D02*
X188487Y133743D01*
X185680Y132580D01*
X183270Y130730D01*
X181420Y128320D01*
X180257Y125513D01*
X179860Y122500D01*
Y116270D01*
X190230D01*
Y133972D01*
D02*
G37*
%LPD*%
D13*
X285632Y97597D02*
G03*
X284448Y93748I4480J-3484D01*
G01*
X300721Y90442D02*
G03*
X290465Y86752I-2521J-9092D01*
G01*
X386405Y1188925D02*
X420125Y1222645D01*
X318425Y1188925D02*
X386405D01*
X379550Y1196000D02*
X415200Y1231650D01*
X318000Y1196000D02*
X379550D01*
X292778Y1154778D02*
Y1163278D01*
X420125Y1222645D02*
Y1254666D01*
X242500Y1104500D02*
X292778Y1154778D01*
X415000Y1259791D02*
Y1285450D01*
X292778Y1163278D02*
X318425Y1188925D01*
X415000Y1259791D02*
X420125Y1254666D01*
X287000Y1165000D02*
X318000Y1196000D01*
X287000Y1160500D02*
Y1165000D01*
X235000Y1108500D02*
X287000Y1160500D01*
X67500Y1075500D02*
Y1090609D01*
X73500Y1096609D01*
X74540Y1075500D02*
X77575Y1078535D01*
Y1113575D01*
X72999Y1139681D02*
Y1181999D01*
X76500Y1185500D01*
X73500Y1096609D02*
Y1139180D01*
X72999Y1139681D02*
X73500Y1139180D01*
X139296Y1075743D02*
X167562D01*
X167805Y1075500D01*
X127553Y1064000D02*
X139296Y1075743D01*
X167805Y1075500D02*
X174000D01*
X126482Y1067982D02*
X146741Y1088241D01*
X365741D01*
X435000Y1157500D01*
X88000Y1064000D02*
X127553D01*
X81000Y1057000D02*
X88000Y1064000D01*
X491158Y744693D02*
X492954D01*
X493381Y745119D01*
X491040Y744575D02*
X491158Y744693D01*
X460925Y744575D02*
X491040D01*
X499897Y741500D02*
X500500D01*
X476500Y739500D02*
X497896D01*
X499897Y741500D01*
X567500Y798000D02*
X568000Y798500D01*
Y817000D01*
X564000Y983500D02*
Y996500D01*
X570000Y921965D02*
X581000Y910965D01*
X570000Y921965D02*
Y1075965D01*
X564540Y1081425D02*
X570000Y1075965D01*
X581000Y740000D02*
Y910965D01*
X516416Y1081425D02*
X564540D01*
X491664Y1056674D02*
X516416Y1081425D01*
X452551Y1056674D02*
X491664D01*
X477310Y507278D02*
X491925Y492663D01*
X469575Y441075D02*
X491925Y463425D01*
Y492663D01*
X221200Y1107200D02*
X224700D01*
X262500Y1145000D02*
Y1203500D01*
X221000Y1107000D02*
X221200Y1107200D01*
X224700D02*
X262500Y1145000D01*
X111535Y1107000D02*
X221000D01*
X236500Y1217000D02*
X249000D01*
X262500Y1203500D01*
X245830Y1204670D02*
X245830D01*
X241103Y1209000D02*
X242374Y1207730D01*
X240500Y1209000D02*
X241103D01*
X242770Y1207730D02*
X245830Y1204670D01*
X242374Y1207730D02*
X242770D01*
X245830Y1204670D02*
X255625Y1194875D01*
Y1146760D02*
Y1194875D01*
X252740Y1143875D02*
X255625Y1146760D01*
X245636Y1143875D02*
X252740D01*
X241000Y1148000D02*
X241511D01*
X245636Y1143875D01*
X77575Y1113575D02*
X83470Y1119470D01*
X99065D02*
X111535Y1107000D01*
X83470Y1119470D02*
X99065D01*
X83900Y1112135D02*
X90330D01*
X83500Y1112535D02*
X83900Y1112135D01*
X152500Y1099000D02*
X357500D01*
X124074Y1070574D02*
X152500Y1099000D01*
X85460Y1067982D02*
X126482D01*
X357500Y1099000D02*
X497000Y1238500D01*
X504000Y1170000D02*
Y1239500D01*
X491500Y1157500D02*
X504000Y1170000D01*
X435000Y1157500D02*
X491500D01*
X90030Y1070574D02*
X124074D01*
X337732Y490500D02*
X337867Y490635D01*
X330964Y490500D02*
X337732D01*
X346000Y328053D02*
Y497095D01*
X335103Y317156D02*
X346000Y328053D01*
X343500Y499595D02*
X346000Y497095D01*
X217104Y922000D02*
X219816Y919288D01*
X220032D02*
X225238Y914081D01*
X219816Y919288D02*
X220032D01*
X216500Y922000D02*
X217104D01*
X284448Y93748D02*
X285217Y81821D01*
X285632Y97597D02*
X286420Y98609D01*
X292485Y104675D01*
X285217Y79717D02*
Y81821D01*
X300721Y90442D02*
X304377Y89428D01*
X288500Y83941D02*
X290465Y86752D01*
X304377Y89428D02*
X310328D01*
X274575Y69075D02*
X285217Y79717D01*
X288500Y77500D02*
Y83941D01*
X245000Y85302D02*
X247565Y87867D01*
Y88121D01*
X325500Y255000D02*
Y316500D01*
X320750Y390250D02*
X338250D01*
X338500Y390500D01*
X90330Y1112135D02*
X104564Y1097901D01*
X306646Y363354D02*
Y519146D01*
Y363354D02*
X325500Y344500D01*
Y316500D02*
Y344500D01*
X320500Y390000D02*
X320750Y390250D01*
X306646Y519146D02*
X342500Y555000D01*
X312500Y555026D02*
X342626Y585153D01*
X346000Y563000D02*
Y574130D01*
X342626Y585153D02*
X342977D01*
X343000Y577130D02*
X346000Y574130D01*
X343500Y499595D02*
Y546630D01*
X343000Y560000D02*
X346000Y563000D01*
X312500Y548130D02*
Y555026D01*
X302500Y322500D02*
X310000Y315000D01*
X302500Y523000D02*
X339500Y560000D01*
X302500Y322500D02*
Y523000D01*
X399000Y355500D02*
X469575Y426075D01*
X399000Y290884D02*
Y355500D01*
X469575Y426075D02*
Y441075D01*
X226000Y389000D02*
X262000D01*
X225767Y388768D02*
X226000Y389000D01*
X396000Y287884D02*
X399000Y290884D01*
X396000Y281500D02*
Y287884D01*
X317500Y316000D02*
Y345000D01*
X339500Y560000D02*
X343000D01*
X393856Y229575D02*
X414040D01*
X414965Y230500D02*
X433500D01*
X354000Y234500D02*
X412000D01*
X414040Y229575D02*
X414965Y230500D01*
X388198Y223918D02*
X393856Y229575D01*
X386276Y219155D02*
X417993D01*
X418628Y219790D02*
X424635D01*
X317500Y256500D02*
X350083Y223918D01*
X424635Y219790D02*
X424823Y219977D01*
X417993Y219155D02*
X418628Y219790D01*
X350083Y223918D02*
X388198D01*
X347500Y217500D02*
X384621D01*
X386276Y219155D01*
X335103Y253397D02*
X354000Y234500D01*
X381885Y229150D02*
X382192Y228843D01*
X351350Y229150D02*
X381885D01*
X325500Y255000D02*
X351350Y229150D01*
X312000Y495000D02*
X326464D01*
X330964Y490500D01*
X225238Y899885D02*
Y914081D01*
X223010Y897657D02*
X225238Y899885D01*
X223010Y883460D02*
X227238Y879232D01*
X228845D01*
X223010Y883460D02*
Y897657D01*
X228845Y879232D02*
X229272Y878805D01*
X462000Y1087714D02*
Y1097644D01*
X451643Y1108000D02*
X462000Y1097644D01*
X415500Y1108000D02*
X451643D01*
X310000Y255000D02*
X347500Y217500D01*
X335103Y253397D02*
Y317156D01*
X317500Y256500D02*
Y316000D01*
X310000Y255000D02*
Y315000D01*
X290789Y62955D02*
X298200Y55544D01*
X211800Y55552D02*
X219203Y62955D01*
X276114Y65114D02*
X288500Y77500D01*
X248886Y65114D02*
X276114D01*
X245000Y69000D02*
X248886Y65114D01*
X219203Y62955D02*
X290789D01*
X292485Y104675D02*
X310325D01*
X310500Y104500D01*
X245000Y69000D02*
Y85302D01*
X266859Y69075D02*
X274575D01*
X263433Y72500D02*
X266859Y69075D01*
X262830Y72500D02*
X263433D01*
X158452Y917452D02*
X216000Y975000D01*
X53746Y917452D02*
X158452D01*
X50198Y921000D02*
X53746Y917452D01*
X38000Y921000D02*
X50198D01*
X211000Y929720D02*
Y930000D01*
X206759Y925480D02*
X211000Y929720D01*
X175140Y895825D02*
Y916948D01*
X187265Y929073D01*
X192073D01*
X192500Y929500D01*
X38000Y1103965D02*
Y1118500D01*
X31075Y994575D02*
Y1097040D01*
X104564Y1078564D02*
Y1097901D01*
X175140Y895825D02*
X175425Y895540D01*
X175140Y846702D02*
Y870978D01*
X175425Y871263D02*
Y895540D01*
X175140Y846702D02*
X196530Y825312D01*
X175140Y870978D02*
X175425Y871263D01*
X200000Y885500D02*
Y897092D01*
X206759Y903851D01*
Y925480D01*
X196530Y825312D02*
X215812D01*
X216000Y825500D01*
X87696Y1072907D02*
X90030Y1070574D01*
X87500Y1072907D02*
X87696D01*
X56000Y995500D02*
X63000Y1002500D01*
X81938Y1071504D02*
Y1071928D01*
X81461Y1072406D02*
X81938Y1071928D01*
Y1071504D02*
X85460Y1067982D01*
X81461Y1072406D02*
Y1073009D01*
X93000Y1075500D02*
Y1102500D01*
X31075Y1097040D02*
X38000Y1103965D01*
X63000Y1002500D02*
X81000D01*
D14*
X555030Y1044672D02*
G03*
X555030Y1044600I14570J-72D01*
G01*
X392408Y111092D02*
Y119592D01*
Y111092D02*
X408000Y95500D01*
X409363Y813000D02*
X421000D01*
X406363Y816000D02*
X409363Y813000D01*
X368000Y816000D02*
X406363D01*
X365200Y802300D02*
X443000D01*
X451800Y793500D01*
X454000D01*
X454697Y793440D02*
X459303D01*
X454637Y793500D02*
X454697Y793440D01*
X454000Y793500D02*
X454637D01*
X454000Y776000D02*
Y793500D01*
X459303Y793440D02*
X459363Y793500D01*
X494000D01*
X506000Y805500D01*
X394137Y830500D02*
X500000D01*
X279555Y160067D02*
X279610Y160012D01*
X279500Y178500D02*
X279555Y178445D01*
Y160067D02*
Y178445D01*
X476000Y860500D02*
X485000Y851500D01*
X411000Y860500D02*
X476000D01*
X312000Y367712D02*
Y421000D01*
Y367712D02*
X315772Y363940D01*
X318075Y375540D02*
X328751D01*
X315772Y363940D02*
X328470D01*
X340590Y366543D02*
X340774Y366726D01*
X340477Y378633D02*
X340661Y378816D01*
X331844Y378633D02*
X340477D01*
X328470Y363940D02*
X331073Y366543D01*
X340590D01*
X320500Y413500D02*
X339500D01*
X377000Y135000D02*
Y145500D01*
Y135000D02*
X392408Y119592D01*
X281821Y413500D02*
X282000Y413321D01*
Y347790D02*
Y413321D01*
X261000Y326790D02*
X282000Y347790D01*
X261000Y218000D02*
Y326790D01*
X490000Y354500D02*
X498000D01*
X442500Y307000D02*
X490000Y354500D01*
X404000Y384500D02*
X404184Y384684D01*
X410000D01*
X328751Y375540D02*
X331844Y378633D01*
X410000Y384684D02*
X414240Y388924D01*
X414500D01*
X275184Y420816D02*
Y688816D01*
X189500Y774500D02*
X275184Y688816D01*
X498000Y354500D02*
X554000Y298500D01*
X427060Y393197D02*
Y433440D01*
X390000Y356137D02*
X427060Y393197D01*
X390000Y287000D02*
Y356137D01*
X425000Y435500D02*
X427060Y433440D01*
X396000Y769500D02*
X495500D01*
X517760Y791760D02*
Y838240D01*
X495500Y769500D02*
X517760Y791760D01*
X392637Y829000D02*
X394137Y830500D01*
X555030Y926530D02*
Y1044600D01*
X555000Y926500D02*
X555030Y926530D01*
X555030Y1044672D02*
X555060Y1050665D01*
X540000Y1060000D02*
X540184Y1060184D01*
X552084D01*
X555060Y1057208D01*
Y1050665D02*
Y1057208D01*
X136500Y1011000D02*
X148000D01*
X136000D02*
X136500D01*
X386000Y829000D02*
X392637D01*
X382500Y832500D02*
X386000Y829000D01*
X448603Y856500D02*
X452672Y852431D01*
X452932D01*
X414000Y856500D02*
X448603D01*
X408000Y852000D02*
X433000D01*
X415500Y866500D02*
X416000Y866000D01*
X396000Y846500D02*
X397000Y845500D01*
D29*
X615000Y1126000D02*
D03*
Y1075000D02*
D03*
Y634500D02*
D03*
Y685500D02*
D03*
X25400Y1200500D02*
D03*
Y1149500D02*
D03*
X615000Y744500D02*
D03*
Y795500D02*
D03*
Y855000D02*
D03*
Y906000D02*
D03*
Y964500D02*
D03*
Y1015500D02*
D03*
D32*
X520500Y1287780D02*
D03*
X469500D02*
D03*
D134*
X310000Y1243000D02*
X317000Y1250000D01*
X310000Y1196000D02*
Y1243000D01*
X313000Y1164995D02*
X323000Y1174995D01*
Y1184000D01*
X313000Y1141425D02*
Y1164995D01*
X317800Y1125000D02*
Y1136625D01*
X313000Y1141425D02*
X317800Y1136625D01*
X76895Y1193000D02*
X85500D01*
X65702Y1181807D02*
X76895Y1193000D01*
X55000Y1073895D02*
Y1112500D01*
X65702Y1123202D01*
Y1181807D01*
X55000Y1073895D02*
X76919Y1051976D01*
X89770Y1057424D02*
X96193D01*
X96581Y1057812D01*
X84323Y1051976D02*
X89770Y1057424D01*
X76919Y1051976D02*
X84323D01*
X123090Y1058024D02*
X304024D01*
X121041Y1055976D02*
X123090Y1058024D01*
X304024D02*
X318000Y1072000D01*
X105000Y1055976D02*
X121041D01*
X96581Y1057812D02*
X96582D01*
D135*
X136500Y1045000D02*
Y1053000D01*
X521500Y37500D02*
Y73500D01*
X491000Y600500D02*
X524000D01*
X513000Y1059000D02*
X527500Y1044500D01*
X540000D01*
X581000Y470500D02*
X596000Y455500D01*
X580000Y449500D02*
X629000D01*
X630000Y448500D01*
X363500Y600500D02*
X491000D01*
X250700Y1148800D02*
Y1188800D01*
X312500Y968000D02*
Y989800D01*
X287200Y1015099D02*
X312500Y989800D01*
X254332Y1003475D02*
X289525D01*
X259901Y1015099D02*
X287200D01*
X516000Y1160357D02*
Y1248000D01*
X501143Y1145500D02*
X516000Y1160357D01*
X453000Y1145500D02*
X501143D01*
X432500Y1125000D02*
X453000Y1145500D01*
X213500Y1208000D02*
X231500D01*
X250700Y1188800D01*
X84000Y1138500D02*
Y1157000D01*
X84286Y1157286D01*
X366500Y490000D02*
X484500D01*
X356292D02*
X366500D01*
X362500Y494000D02*
X366500Y490000D01*
X357500Y494000D02*
X362500D01*
X370500Y85500D02*
X392661D01*
X466021Y12140D01*
X385892Y138108D02*
X428608D01*
X466021Y12140D02*
X496139D01*
X428608Y138108D02*
X448500Y158000D01*
X362500Y395500D02*
X421500D01*
X362000Y396000D02*
X362500Y395500D01*
X365000Y264000D02*
X415000D01*
X415500Y264500D01*
X537500Y981500D02*
Y987276D01*
Y963500D02*
Y981500D01*
X362000Y699500D02*
X512000D01*
X550585Y1016000D02*
Y1033915D01*
X550000Y1034500D02*
X550585Y1033915D01*
X549470Y1035030D02*
X550000Y1034500D01*
Y1034500D02*
Y1034500D01*
X543500Y1016000D02*
X550585D01*
X539500Y989276D02*
Y1012000D01*
X543500Y1016000D01*
X537500Y987276D02*
X539500Y989276D01*
X540000Y1044500D02*
X549470Y1035030D01*
X512000Y1016000D02*
X543500D01*
X538000Y950530D02*
Y963000D01*
X525970Y938500D02*
X538000Y950530D01*
X537500Y963500D02*
X538000Y963000D01*
X504000Y938500D02*
X525970D01*
X335500Y930000D02*
X337673Y932172D01*
Y957644D01*
X306500Y963000D02*
X332316D01*
X337673Y957644D01*
X306173Y962673D02*
X306500Y963000D01*
X258500Y960500D02*
X260672Y962673D01*
X306173D01*
X412500Y884500D02*
X431500D01*
X448500Y158000D02*
Y267000D01*
X107357Y856500D02*
X254332Y1003475D01*
X92000Y856500D02*
X107357D01*
X136500Y1011000D02*
Y1029505D01*
Y1000000D02*
Y1011000D01*
X120500Y984000D02*
X136500Y1000000D01*
Y1029505D02*
Y1045000D01*
Y1029505D02*
X136939Y1029944D01*
X163154D01*
X136538Y1045038D02*
X177538D01*
X182000Y1049500D01*
X136500Y1045000D02*
X136538Y1045038D01*
X251000Y1024000D02*
X259901Y1015099D01*
X361500Y699000D02*
X362000Y699500D01*
X363000Y601000D02*
X363500Y600500D01*
X360500Y669000D02*
X436500D01*
X596000Y455500D02*
X630000D01*
Y448500D02*
Y455500D01*
Y420500D02*
Y448500D01*
Y300000D02*
Y420500D01*
X629523Y420023D02*
X630000Y420500D01*
X623253Y420023D02*
X629523D01*
X496139Y12140D02*
X521500Y37500D01*
X86500Y803000D02*
X135600D01*
X164100Y774500D01*
D136*
X410668Y101060D02*
X463560D01*
X479527Y117027D01*
X499500Y41000D02*
X507743Y49243D01*
X506500Y72068D02*
X507743Y70826D01*
X506500Y72068D02*
Y72500D01*
X507743Y49243D02*
Y70826D01*
X452000Y54000D02*
X453945Y55944D01*
X465713D01*
X471011Y61242D01*
X484599D01*
X499757Y76400D01*
Y84079D01*
X531000Y629000D02*
Y696500D01*
Y629000D02*
X541000Y619000D01*
X507000Y720500D02*
X531000Y696500D01*
X507000Y720500D02*
Y767130D01*
X440000Y921000D02*
X564000D01*
X430000Y931000D02*
X440000Y921000D01*
X324822Y486695D02*
X333903D01*
X336606Y483992D02*
X337038D01*
X333903Y486695D02*
X336606Y483992D01*
X324517Y487000D02*
X324822Y486695D01*
X499757Y84079D02*
X537500Y121821D01*
X318075Y369500D02*
X329630D01*
X338695Y372195D02*
X339000Y372500D01*
X329630Y369500D02*
X332325Y372195D01*
X338695D01*
X479527Y117027D02*
Y118027D01*
X486000Y124500D01*
X241500Y380500D02*
X274500D01*
X274732Y380732D01*
X564125Y377307D02*
X564437D01*
X569000Y358500D02*
Y372744D01*
X564437Y377307D02*
X569000Y372744D01*
X558432Y383000D02*
X564125Y377307D01*
X558000Y383000D02*
X558432D01*
X235000Y374000D02*
X241500Y380500D01*
X511242Y793105D02*
Y835257D01*
X501174Y783037D02*
X511242Y793105D01*
X501174Y783037D02*
X501174D01*
X500500Y846000D02*
X511242Y835257D01*
X464560Y846000D02*
X500500D01*
D142*
X410676Y85500D02*
X457000D01*
X339265Y154410D02*
X347414D01*
X382679Y113497D02*
Y119145D01*
Y113497D02*
X410676Y85500D01*
X507500Y505285D02*
X520000Y492785D01*
Y436500D02*
Y492785D01*
X524000Y619500D02*
X530000D01*
X454000Y689500D02*
X524000Y619500D01*
X541500Y590000D02*
Y612176D01*
X548846Y589346D02*
Y702737D01*
X541500Y612176D02*
X546179Y616855D01*
X534500Y717083D02*
X548846Y702737D01*
X502691Y543191D02*
X548846Y589346D01*
X506500Y555000D02*
X541500Y590000D01*
X407500Y733500D02*
X442665D01*
X445470Y730695D01*
X469515Y725516D02*
X473500Y729500D01*
X444645Y725679D02*
X444809Y725516D01*
X429895Y725679D02*
X444645D01*
X410500Y721500D02*
X425716D01*
X445470Y730695D02*
X445936D01*
X425716Y721500D02*
X429895Y725679D01*
X444809Y725516D02*
X469515D01*
X442500Y709500D02*
Y720500D01*
X292500Y201176D02*
Y653500D01*
X340500Y701500D01*
X287000Y656000D02*
X343000Y712000D01*
X287000Y193179D02*
Y656000D01*
X499500Y372500D02*
Y506766D01*
X574500Y426500D02*
Y868000D01*
X516500Y368500D02*
X574500Y426500D01*
X550500Y892000D02*
X574500Y868000D01*
X517500Y1076500D02*
X562500D01*
X492689Y1051689D02*
X517500Y1076500D01*
X439932Y1050000D02*
X458040D01*
X459729Y1051689D01*
X429932Y1060000D02*
X439932Y1050000D01*
X459729Y1051689D02*
X492689D01*
X503842Y1057166D02*
X513676Y1067000D01*
X551674D01*
X496500Y1028423D02*
Y1028500D01*
X503842Y1035842D02*
Y1057166D01*
X504124Y515124D02*
X562000Y573000D01*
Y824772D01*
X544000Y842772D02*
X562000Y824772D01*
X507500Y505285D02*
Y505500D01*
X520000Y436500D02*
X522500Y434000D01*
X552500D01*
X565358Y446858D01*
Y459833D01*
X516500Y358000D02*
Y368500D01*
X494338Y443662D02*
Y497575D01*
X479455Y512457D02*
X494338Y497575D01*
X404500Y353824D02*
X494338Y443662D01*
X409000Y282000D02*
X499500Y372500D01*
X556500Y578600D02*
Y701500D01*
X495691Y517791D02*
X556500Y578600D01*
X412376Y515124D02*
X504124D01*
X541524Y716476D02*
X556500Y701500D01*
X541500Y625824D02*
Y697000D01*
X522321Y716179D02*
Y794645D01*
Y716179D02*
X541500Y697000D01*
X546179Y616855D02*
Y621145D01*
X541500Y625824D02*
X546179Y621145D01*
X414600Y529600D02*
X426409Y517791D01*
X402791Y524709D02*
X412376Y515124D01*
X465400Y529600D02*
X478991Y543191D01*
X502691D01*
X426409Y517791D02*
X495691D01*
X533500Y849500D02*
X542858Y840142D01*
X541524Y785145D02*
X542858Y786479D01*
Y840142D01*
X522416Y849500D02*
X532500Y839416D01*
Y802722D02*
X534500Y800722D01*
X541524Y716476D02*
Y785145D01*
X532500Y802722D02*
Y839416D01*
X534500Y717083D02*
Y800722D01*
X472080Y510275D02*
X474262Y512457D01*
X479455D01*
X465729Y510275D02*
X472080D01*
X465400Y509945D02*
X465729Y510275D01*
X284821Y191000D02*
X287000Y193179D01*
X284821Y180855D02*
Y191000D01*
Y180855D02*
X353855Y111821D01*
X442974Y992682D02*
Y1002750D01*
X434500Y1004000D02*
X438960Y1008460D01*
X434500Y995500D02*
Y1004000D01*
X442671Y1008460D02*
X443000Y1008790D01*
X438960Y1008460D02*
X442671D01*
X438758Y988466D02*
X442974Y992682D01*
X347414Y154410D02*
X382679Y119145D01*
X292500Y201176D02*
X339265Y154410D01*
X376679Y111821D02*
X408833Y79667D01*
X353855Y111821D02*
X376679D01*
X408833Y79667D02*
X457500D01*
X297167Y524092D02*
X341075Y568000D01*
X305250Y789750D02*
X343250D01*
X343500Y789500D01*
X457000Y85500D02*
X501500Y130000D01*
X607500D01*
X356046Y154630D02*
X431370D01*
X297167Y213509D02*
X356046Y154630D01*
X297167Y213509D02*
Y524092D01*
X607500Y130000D02*
X613500Y124000D01*
X565501D02*
X600000D01*
X525500Y127000D02*
X562501D01*
X565501Y124000D01*
X506269Y107769D02*
X525500Y127000D01*
X457500Y79667D02*
X485602Y107769D01*
X506269D01*
X507000Y360500D02*
Y394500D01*
X506000Y359500D02*
X507000Y360500D01*
X404500Y288325D02*
Y353824D01*
X562600Y359800D02*
X562700Y359700D01*
X562500Y371830D02*
X562600Y371730D01*
Y359800D02*
Y371730D01*
X490800Y555000D02*
X506500D01*
X522321Y794645D02*
X528499Y800823D01*
Y839645D01*
X511966Y849000D02*
X517324Y843642D01*
X524503D01*
X522000Y849500D02*
X522416D01*
X511500Y849000D02*
X511966D01*
X524503Y843642D02*
X528499Y839645D01*
X544000Y842772D02*
Y849500D01*
X347966Y877000D02*
X398000D01*
X342000Y871500D02*
X342466D01*
X347966Y877000D01*
X391466Y868882D02*
X399897D01*
X391035Y869314D02*
X391466Y868882D01*
X347396Y869314D02*
X391035D01*
X305000Y790000D02*
X305250Y789750D01*
X549470Y930500D02*
Y995000D01*
X544000Y944500D02*
Y998958D01*
X546076Y1001034D01*
Y1001500D01*
X520500Y951500D02*
Y975571D01*
X521000Y976071D02*
Y999676D01*
X506821Y1013855D02*
X521000Y999676D01*
X520500Y975571D02*
X521000Y976071D01*
X551674Y1067000D02*
X553844Y1064829D01*
X557671D01*
X558000Y1064500D01*
X496500Y1028500D02*
X503842Y1035842D01*
X512000Y1023324D02*
Y1023424D01*
X506821Y1018145D02*
X512000Y1023324D01*
X506821Y1013855D02*
Y1018145D01*
X396534Y956000D02*
X397534Y955000D01*
X367000Y956000D02*
X396534D01*
X397534Y955000D02*
X398000D01*
X432000Y1096100D02*
Y1100000D01*
X424000Y905500D02*
X424142Y905358D01*
X451500D01*
X428817Y897990D02*
X448007D01*
X450196Y900179D01*
X519355D01*
X315500Y865500D02*
X343583D01*
X347396Y869314D01*
X400836Y894336D02*
X401000Y894500D01*
X343512Y894336D02*
X400836D01*
X434000Y892500D02*
X450596D01*
X452766Y894670D01*
X460171D02*
X460500Y895000D01*
X452766Y894670D02*
X460171D01*
X520534Y899000D02*
X521000D01*
X519355Y900179D02*
X520534Y899000D01*
X436715Y960918D02*
Y971087D01*
X441894Y963390D02*
X464843D01*
X433330Y957532D02*
X436715Y960918D01*
Y971087D02*
X438758Y973129D01*
X423000Y953000D02*
Y976452D01*
X433330Y947074D02*
Y957532D01*
X433265Y947010D02*
X433330Y947074D01*
X396185Y981000D02*
X401185Y986000D01*
X367000Y981000D02*
X396185D01*
X429500Y1060000D02*
X429932D01*
X432000Y1096100D02*
X446053Y1082047D01*
X467973Y1071500D02*
X468000Y1071473D01*
X449186Y1071500D02*
X467973D01*
X464938Y1082047D02*
X465081Y1081904D01*
X421207Y978244D02*
Y1001230D01*
Y978244D02*
X423000Y976452D01*
X427552Y947827D02*
Y950138D01*
X428242Y950828D02*
Y958817D01*
X426231Y960828D02*
X428242Y958817D01*
X427552Y950138D02*
X428242Y950828D01*
X421207Y1001230D02*
X423500Y1003523D01*
X426231Y960828D02*
Y1039941D01*
X427247Y947522D02*
X427552Y947827D01*
X423500Y1003523D02*
Y1058500D01*
X455178Y946758D02*
X455604Y947184D01*
X439300Y946758D02*
X455178D01*
X428679Y1042389D02*
Y1042821D01*
X426231Y1039941D02*
X428679Y1042389D01*
X438758Y973129D02*
Y988466D01*
X464843Y963390D02*
X471912Y956321D01*
X334176Y885000D02*
X343512Y894336D01*
X504728Y947184D02*
X516834Y959291D01*
X455604Y947184D02*
X504728D01*
X506239Y952468D02*
X514167Y960395D01*
X439538Y952468D02*
X506239D01*
X439209Y952797D02*
X439538Y952468D01*
X471912Y956321D02*
X506145D01*
X511324Y961500D01*
X424290Y929386D02*
X440676Y913000D01*
X424290Y929386D02*
Y930670D01*
X423960Y931000D02*
X424290Y930670D01*
X440676Y913000D02*
X531000D01*
X511324Y961500D02*
X511500D01*
X484000D02*
X492000D01*
X467500Y978000D02*
X484000Y961500D01*
X494250Y1010074D02*
X494580Y1009745D01*
X497255D02*
X514167Y992833D01*
Y960395D02*
Y992833D01*
X494580Y1009745D02*
X497255D01*
X495000Y1003500D02*
X511500Y987000D01*
Y961500D02*
Y987000D01*
X516834Y959291D02*
Y998166D01*
X498698Y1016302D02*
X516834Y998166D01*
X505000Y962500D02*
X505330Y962830D01*
Y970191D02*
X506500Y971362D01*
X505330Y962830D02*
Y970191D01*
X498810Y969674D02*
X500000Y970864D01*
X498492Y962179D02*
X498810Y962497D01*
Y969674D01*
X506500Y971362D02*
Y983000D01*
X486000Y1003500D02*
X506500Y983000D01*
X476000Y1003500D02*
X500000Y979500D01*
Y970864D02*
Y979500D01*
X315000Y885000D02*
X334176D01*
X496920Y1018477D02*
X498698Y1016699D01*
Y1016302D02*
Y1016699D01*
X496920Y1018477D02*
Y1018943D01*
X467500Y978000D02*
Y1003500D01*
X402791Y524709D02*
Y543191D01*
X414600Y555000D01*
X550500Y892000D02*
Y893500D01*
X531000Y913000D02*
X550500Y893500D01*
X429352Y1091334D02*
X449186Y1071500D01*
X446053Y1082047D02*
X464938D01*
D143*
X298200Y55544D02*
Y75850D01*
Y22250D02*
Y55544D01*
X211800Y55552D02*
Y75850D01*
Y22250D02*
Y55552D01*
X464500Y273000D02*
Y320500D01*
X362000Y530500D02*
X362900Y529600D01*
X389200D01*
X170000Y893000D02*
X170500Y893500D01*
X154000Y893000D02*
X170000D01*
X25500Y911500D02*
X153000D01*
X153500Y912000D01*
X113000Y980500D02*
X148500Y945000D01*
X167000D01*
X121500Y980500D02*
X137000Y965000D01*
X121500Y980500D02*
Y981000D01*
X137000Y965000D02*
X167500D01*
D145*
X251450Y72950D02*
X256528Y78029D01*
Y80510D01*
X256851Y80833D01*
D147*
X540000Y525800D02*
D03*
Y500400D02*
D03*
Y475000D02*
D03*
Y449600D02*
D03*
X389200Y555000D02*
D03*
X414600D02*
D03*
X440000D02*
D03*
X465400D02*
D03*
X490800D02*
D03*
X389200Y529600D02*
D03*
X414600D02*
D03*
X440000D02*
D03*
X465400D02*
D03*
X490800D02*
D03*
X138700Y774500D02*
D03*
X164100D02*
D03*
X189500D02*
D03*
X214900D02*
D03*
D148*
X556000Y214000D02*
D03*
Y228000D02*
D03*
Y200000D02*
D03*
X542000Y228000D02*
D03*
Y214000D02*
D03*
Y200000D02*
D03*
X563000Y221000D02*
D03*
Y207000D02*
D03*
X549000Y221000D02*
D03*
Y207000D02*
D03*
X535000Y221000D02*
D03*
Y207000D02*
D03*
D149*
X470000Y1037500D02*
D03*
Y1022500D02*
D03*
X485000D02*
D03*
X477500Y1030000D02*
D03*
Y1015000D02*
D03*
X462500D02*
D03*
X455000Y1022500D02*
D03*
Y1037500D02*
D03*
X462500Y1030000D02*
D03*
Y1045000D02*
D03*
X477500D02*
D03*
X485000Y1037500D02*
D03*
X95000Y1037500D02*
D03*
Y1022500D02*
D03*
X110000D02*
D03*
X102500Y1030000D02*
D03*
Y1015000D02*
D03*
X87500D02*
D03*
X80000Y1022500D02*
D03*
Y1037500D02*
D03*
X87500Y1030000D02*
D03*
Y1045000D02*
D03*
X102500D02*
D03*
X110000Y1037500D02*
D03*
X221000Y84500D02*
D03*
X290112Y94113D02*
D03*
X301236Y96152D02*
D03*
X295500Y98500D02*
D03*
X13453Y267500D02*
D03*
Y252500D02*
D03*
Y237500D02*
D03*
Y222500D02*
D03*
X125000Y219000D02*
D03*
X234500Y157500D02*
D03*
X244000D02*
D03*
X155500Y270500D02*
D03*
X218500Y95500D02*
D03*
X223000Y91000D02*
D03*
X207000Y93500D02*
D03*
X213500Y100000D02*
D03*
Y90500D02*
D03*
X25000Y111500D02*
D03*
Y126500D02*
D03*
Y141500D02*
D03*
Y156500D02*
D03*
D150*
X190950Y853250D02*
D03*
Y910400D02*
D03*
X241750Y853250D02*
D03*
Y910400D02*
D03*
X303250Y853250D02*
D03*
Y910400D02*
D03*
X354050Y853250D02*
D03*
Y910400D02*
D03*
X480950Y80400D02*
D03*
X538100D02*
D03*
X480950Y29600D02*
D03*
X538100D02*
D03*
D151*
X206200Y834200D02*
D03*
X226500D02*
D03*
X216350Y910400D02*
D03*
X318500Y834200D02*
D03*
X338800D02*
D03*
X328650Y910400D02*
D03*
X461900Y65150D02*
D03*
Y44850D02*
D03*
X538100Y55000D02*
D03*
D152*
X211800Y75850D02*
D03*
X298200D02*
D03*
D153*
X211800Y22250D02*
D03*
X298200D02*
D03*
D154*
X191500Y115000D02*
D03*
D155*
X145000Y80000D02*
D03*
Y140000D02*
D03*
D156*
X616500Y555500D02*
D03*
Y585500D02*
D03*
D157*
X485500Y1203500D02*
D03*
X340500Y1206000D02*
D03*
X357000Y1205500D02*
D03*
X340500Y1215000D02*
D03*
X330000Y1206110D02*
D03*
X349500Y1233500D02*
D03*
X295500Y1220500D02*
D03*
X302911Y1199963D02*
D03*
X319500Y1215000D02*
D03*
Y1206110D02*
D03*
X330000Y1215000D02*
D03*
X340500Y1223890D02*
D03*
X330000D02*
D03*
X319500D02*
D03*
X284000Y1247500D02*
D03*
X317115Y1250094D02*
D03*
X310000Y1196000D02*
D03*
X323000Y1184000D02*
D03*
X320000Y1164890D02*
D03*
X317800Y1125000D02*
D03*
X340300Y1250000D02*
D03*
X306000Y1247500D02*
D03*
X313500Y1176000D02*
D03*
X303500Y1165500D02*
D03*
X415200Y1231650D02*
D03*
X358498Y1153432D02*
D03*
X395700Y1258150D02*
D03*
X318000Y1072000D02*
D03*
X85500Y1193000D02*
D03*
X60500Y1075500D02*
D03*
X63035Y1105000D02*
D03*
X67500Y1075500D02*
D03*
X74540D02*
D03*
X164500Y1070818D02*
D03*
Y1080668D02*
D03*
X174000Y1075500D02*
D03*
X76500Y1185500D02*
D03*
X105000Y1055976D02*
D03*
X96581Y1057812D02*
D03*
X93000Y1075500D02*
D03*
X136500Y1053000D02*
D03*
X434000Y121500D02*
D03*
X410668Y101060D02*
D03*
X408000Y95500D02*
D03*
X499500Y41000D02*
D03*
X521500Y73500D02*
D03*
X506500Y72500D02*
D03*
X502500Y68000D02*
D03*
X452000Y54000D02*
D03*
X530000Y619500D02*
D03*
X454000Y689500D02*
D03*
X407500Y733500D02*
D03*
X473500Y729500D02*
D03*
X445936Y730695D02*
D03*
X442500Y720500D02*
D03*
X410500Y721500D02*
D03*
X442500Y709500D02*
D03*
X340500Y701500D02*
D03*
X343000Y712000D02*
D03*
X524000Y600500D02*
D03*
X499500Y506766D02*
D03*
X460925Y744575D02*
D03*
X493381Y745119D02*
D03*
X489000Y749500D02*
D03*
X500500Y741500D02*
D03*
X499000Y751350D02*
D03*
X476500Y739500D02*
D03*
X567858Y797365D02*
D03*
X568000Y817000D02*
D03*
X564000Y983500D02*
D03*
Y996500D02*
D03*
X581000Y740000D02*
D03*
X452551Y1056674D02*
D03*
X513000Y1059000D02*
D03*
X468000Y1071473D02*
D03*
X479500Y56000D02*
D03*
X562500Y1076500D02*
D03*
X564000Y921000D02*
D03*
X568000Y623000D02*
D03*
X491000Y600500D02*
D03*
X507500Y505500D02*
D03*
X565358Y459833D02*
D03*
X581000Y470500D02*
D03*
X580000Y449500D02*
D03*
X584000Y476500D02*
D03*
X541000Y619000D02*
D03*
X537679Y835000D02*
D03*
X242500Y1104500D02*
D03*
X235000Y1108500D02*
D03*
X415000Y1285450D02*
D03*
X123001Y1200501D02*
D03*
X128003D02*
D03*
X229800Y1214786D02*
D03*
X236500Y1217000D02*
D03*
X240500Y1209000D02*
D03*
X250700Y1148800D02*
D03*
X237001Y1180999D02*
D03*
X241000Y1148000D02*
D03*
X83500Y1112535D02*
D03*
X221000Y1107000D02*
D03*
X13500Y1103500D02*
D03*
X13000Y967500D02*
D03*
X497000Y1238500D02*
D03*
X498500Y1203501D02*
D03*
X504000Y1239500D02*
D03*
X289525Y1003475D02*
D03*
X516000Y1248000D02*
D03*
X377000Y1134500D02*
D03*
X383847Y1078653D02*
D03*
X213500Y1208000D02*
D03*
X230501Y1180999D02*
D03*
X237001Y1174500D02*
D03*
X498500Y1216501D02*
D03*
X492000D02*
D03*
X485500D02*
D03*
Y1210003D02*
D03*
X492000D02*
D03*
X498500D02*
D03*
X492000Y1203501D02*
D03*
X224001Y1180999D02*
D03*
Y1174500D02*
D03*
X230501D02*
D03*
X224001Y1167999D02*
D03*
X230501D02*
D03*
X237001D02*
D03*
X84000Y1138500D02*
D03*
X84286Y1157286D02*
D03*
X85000Y1181000D02*
D03*
X92500Y1175001D02*
D03*
X124500Y1168500D02*
D03*
X118000D02*
D03*
X111500D02*
D03*
X124500Y1175001D02*
D03*
X118000D02*
D03*
X111500D02*
D03*
Y1181500D02*
D03*
X118000D02*
D03*
X124500D02*
D03*
X100498Y1158237D02*
D03*
Y1193001D02*
D03*
X143500Y1168500D02*
D03*
Y1162500D02*
D03*
X144500Y1182500D02*
D03*
Y1187500D02*
D03*
X350350Y1135850D02*
D03*
X389950Y1258150D02*
D03*
X303000Y1114500D02*
D03*
X421000Y813000D02*
D03*
X400325Y1110860D02*
D03*
X422500Y1119500D02*
D03*
X427500Y1125000D02*
D03*
X422500D02*
D03*
X341000Y1147110D02*
D03*
X330500D02*
D03*
X359350Y1139700D02*
D03*
X320000Y1156000D02*
D03*
Y1147110D02*
D03*
X330500Y1156000D02*
D03*
Y1164890D02*
D03*
X341000D02*
D03*
Y1156000D02*
D03*
X477000Y799500D02*
D03*
Y808390D02*
D03*
Y817280D02*
D03*
X466500D02*
D03*
Y808390D02*
D03*
Y799500D02*
D03*
X456000D02*
D03*
X490850Y785030D02*
D03*
X456000Y808390D02*
D03*
Y817280D02*
D03*
X337030Y484000D02*
D03*
X477310Y507278D02*
D03*
X337867Y490635D02*
D03*
X324517Y487000D02*
D03*
X505500Y483500D02*
D03*
X484500Y490000D02*
D03*
X465400Y509945D02*
D03*
X446500Y490000D02*
D03*
X406500D02*
D03*
X279500Y178500D02*
D03*
X279610Y160012D02*
D03*
X290000Y183000D02*
D03*
X279500Y103500D02*
D03*
X164500Y1038462D02*
D03*
X425000Y867000D02*
D03*
X198500Y190000D02*
D03*
X193500D02*
D03*
X188500D02*
D03*
X228000Y221000D02*
D03*
X222500D02*
D03*
X228000Y216000D02*
D03*
X222500D02*
D03*
Y211000D02*
D03*
X228000D02*
D03*
Y241000D02*
D03*
X222500D02*
D03*
X228000Y236000D02*
D03*
X222500D02*
D03*
Y226000D02*
D03*
X228000D02*
D03*
X222500Y231000D02*
D03*
X228000D02*
D03*
X274500Y103500D02*
D03*
X279500Y98500D02*
D03*
X274500D02*
D03*
Y93500D02*
D03*
X442974Y1002750D02*
D03*
X443000Y1008790D02*
D03*
X434500Y995500D02*
D03*
X216500Y922000D02*
D03*
X279500Y88500D02*
D03*
X81461Y1073009D02*
D03*
X247565Y88121D02*
D03*
X325500Y316500D02*
D03*
X335103Y317156D02*
D03*
X338500Y390500D02*
D03*
X318075Y369500D02*
D03*
Y375540D02*
D03*
X377500Y117000D02*
D03*
X378000Y92076D02*
D03*
X379000Y97000D02*
D03*
X106000Y1119500D02*
D03*
X401500Y1057000D02*
D03*
Y1052000D02*
D03*
X303000Y1153476D02*
D03*
X340774Y366726D02*
D03*
X339000Y372500D02*
D03*
X340661Y378816D02*
D03*
X320500Y390000D02*
D03*
Y413500D02*
D03*
X341075Y568000D02*
D03*
X342500Y555000D02*
D03*
X343500Y789500D02*
D03*
X343000Y577130D02*
D03*
X343500Y546630D02*
D03*
X339500Y413500D02*
D03*
X342977Y585153D02*
D03*
X510000Y593500D02*
D03*
X486000Y124500D02*
D03*
X385892Y138108D02*
D03*
X314000Y187000D02*
D03*
X321750Y196250D02*
D03*
X309000Y221500D02*
D03*
X281821Y413500D02*
D03*
X600000Y124000D02*
D03*
X537500Y121821D02*
D03*
X613500Y124000D02*
D03*
X274732Y380732D02*
D03*
X406500Y119500D02*
D03*
X377000Y145500D02*
D03*
X587200Y355500D02*
D03*
X404000Y384500D02*
D03*
X490184Y354316D02*
D03*
X275184Y420816D02*
D03*
X312000Y421000D02*
D03*
X485182Y341819D02*
D03*
X442500Y307000D02*
D03*
X464500Y320500D02*
D03*
X536500Y354300D02*
D03*
X507000Y394500D02*
D03*
X457250Y385500D02*
D03*
X493500Y390000D02*
D03*
X488000Y319000D02*
D03*
X569000Y358500D02*
D03*
X562700Y359700D02*
D03*
X562500Y371830D02*
D03*
X506000Y359500D02*
D03*
X514816Y443790D02*
D03*
X610500Y511000D02*
D03*
X424300Y483200D02*
D03*
X464500Y483000D02*
D03*
X414500Y388924D02*
D03*
X235000Y374000D02*
D03*
X262000Y389000D02*
D03*
X261000Y218000D02*
D03*
X513000Y40000D02*
D03*
X404500Y288325D02*
D03*
X409000Y282000D02*
D03*
X424879Y435302D02*
D03*
X390000Y287000D02*
D03*
X396000Y281500D02*
D03*
X225767Y388768D02*
D03*
X558000Y383000D02*
D03*
X317500Y345000D02*
D03*
X312500Y548130D02*
D03*
X412000Y234500D02*
D03*
X415500Y264500D02*
D03*
X416678Y280500D02*
D03*
X424823Y219977D02*
D03*
X415500Y250000D02*
D03*
X433500Y230500D02*
D03*
X382192Y228843D02*
D03*
X474500Y438300D02*
D03*
X421500Y395500D02*
D03*
X516500Y358000D02*
D03*
X312000Y495000D02*
D03*
X431500Y154630D02*
D03*
X528500Y739130D02*
D03*
X507000Y767130D02*
D03*
X528500Y793500D02*
D03*
X527500Y778500D02*
D03*
X523320Y825000D02*
D03*
Y804500D02*
D03*
X522000Y849500D02*
D03*
X517760Y838240D02*
D03*
X501174Y783037D02*
D03*
X506000Y805500D02*
D03*
X500000Y830500D02*
D03*
X442500Y836060D02*
D03*
X490850D02*
D03*
X399418Y824940D02*
D03*
X546703Y783000D02*
D03*
X464560Y846000D02*
D03*
X398000Y877000D02*
D03*
X227935Y885500D02*
D03*
X399897Y868882D02*
D03*
X305000Y790000D02*
D03*
X549470Y930500D02*
D03*
X555000Y926500D02*
D03*
X544000Y944500D02*
D03*
X549470Y995000D02*
D03*
Y1009000D02*
D03*
X546076Y1001500D02*
D03*
X527601Y995399D02*
D03*
X530066Y1008525D02*
D03*
X530924Y974000D02*
D03*
X538000Y963000D02*
D03*
X537500Y981500D02*
D03*
X540000Y1060000D02*
D03*
X546676Y1054624D02*
D03*
X549470Y1035030D02*
D03*
X558000Y1064500D02*
D03*
X512000Y1023424D02*
D03*
X335500Y930000D02*
D03*
X344249Y948500D02*
D03*
X281000Y969249D02*
D03*
X367000Y956000D02*
D03*
X454000Y776000D02*
D03*
Y866130D02*
D03*
X486000Y860630D02*
D03*
X484500Y890500D02*
D03*
X401043Y1083505D02*
D03*
X432000Y1100000D02*
D03*
X452000Y1095500D02*
D03*
X446500D02*
D03*
X440500D02*
D03*
X396000Y769500D02*
D03*
X511500Y849000D02*
D03*
X406000Y808500D02*
D03*
X445000Y655000D02*
D03*
X460500Y626000D02*
D03*
Y635000D02*
D03*
Y645000D02*
D03*
Y654500D02*
D03*
X616500Y471000D02*
D03*
X424000Y905500D02*
D03*
X451500Y905358D02*
D03*
X431500Y884500D02*
D03*
X428817Y897990D02*
D03*
X401000Y894500D02*
D03*
X434000Y892500D02*
D03*
X460500Y895000D02*
D03*
X398000Y955000D02*
D03*
X441894Y963390D02*
D03*
X431536Y963063D02*
D03*
X423000Y953000D02*
D03*
X433265Y947010D02*
D03*
X315500Y865500D02*
D03*
X317157Y876000D02*
D03*
X328000Y852500D02*
D03*
X554000Y298500D02*
D03*
X578000Y39000D02*
D03*
X501000Y319000D02*
D03*
X429500Y1060000D02*
D03*
X462000Y1087714D02*
D03*
X465081Y1081904D02*
D03*
X427247Y947522D02*
D03*
X439300Y946758D02*
D03*
X430000Y931000D02*
D03*
X428679Y1042821D02*
D03*
X439209Y952797D02*
D03*
X423960Y931000D02*
D03*
X492000Y961500D02*
D03*
X495000Y1003500D02*
D03*
X520500Y951500D02*
D03*
X505000Y962500D02*
D03*
X498492Y962179D02*
D03*
X494250Y1010074D02*
D03*
X521000Y899000D02*
D03*
X496920Y1018943D02*
D03*
X423500Y1058500D02*
D03*
X512000Y1016000D02*
D03*
X496500Y1028500D02*
D03*
X342000Y871500D02*
D03*
X315000Y885000D02*
D03*
X342000Y885500D02*
D03*
X486000Y1003500D02*
D03*
X524500Y360000D02*
D03*
X545000Y382500D02*
D03*
X353509Y259009D02*
D03*
X317500Y316000D02*
D03*
X310000Y315000D02*
D03*
X250000Y976000D02*
D03*
X266000Y1033500D02*
D03*
X266500Y1043000D02*
D03*
X401185Y986000D02*
D03*
X438758Y988000D02*
D03*
X417653Y1067347D02*
D03*
X509847Y1085153D02*
D03*
Y1120153D02*
D03*
X383847Y1092153D02*
D03*
X533500Y849500D02*
D03*
X544000D02*
D03*
X629000Y91500D02*
D03*
X623500D02*
D03*
Y97000D02*
D03*
X629000D02*
D03*
X623500Y86000D02*
D03*
X629070Y86022D02*
D03*
X622000Y327000D02*
D03*
X616000D02*
D03*
X610000D02*
D03*
X434500Y438300D02*
D03*
X482750Y385500D02*
D03*
X445000Y387000D02*
D03*
X78500Y44500D02*
D03*
X91500D02*
D03*
X85000D02*
D03*
X335000Y36000D02*
D03*
X314500Y38000D02*
D03*
X310328Y89428D02*
D03*
X240075Y74043D02*
D03*
X262830Y72500D02*
D03*
X265000Y144000D02*
D03*
X476000Y1003500D02*
D03*
X467500D02*
D03*
X423486Y1092014D02*
D03*
X429352Y1091334D02*
D03*
X367000Y981000D02*
D03*
X401348Y1008152D02*
D03*
X189500Y1093500D02*
D03*
X216000Y975000D02*
D03*
X211000Y930000D02*
D03*
X192500Y929500D02*
D03*
X38000Y921000D02*
D03*
X31075Y994575D02*
D03*
X36000Y1095000D02*
D03*
X41000D02*
D03*
X38000Y1118500D02*
D03*
X215500Y851500D02*
D03*
X229272Y878805D02*
D03*
X201500Y877500D02*
D03*
X170500Y893500D02*
D03*
X25500Y911500D02*
D03*
X153500Y912000D02*
D03*
X154000Y893000D02*
D03*
X200000Y885500D02*
D03*
X216000Y825500D02*
D03*
X165535Y975000D02*
D03*
X199000Y980500D02*
D03*
X172500Y1006500D02*
D03*
X117500Y881000D02*
D03*
X167000Y945000D02*
D03*
X167500Y965000D02*
D03*
Y955500D02*
D03*
X148000Y1011000D02*
D03*
X167800Y165000D02*
D03*
X300000Y183000D02*
D03*
X381500Y172000D02*
D03*
X60854Y974444D02*
D03*
X56000Y995500D02*
D03*
X63301Y922377D02*
D03*
X70000Y954000D02*
D03*
X413500Y844500D02*
D03*
X422000Y830549D02*
D03*
X379500Y793500D02*
D03*
X380500Y778500D02*
D03*
X444000Y749500D02*
D03*
X434000D02*
D03*
X411581Y750026D02*
D03*
X442500Y785000D02*
D03*
X469000Y750000D02*
D03*
X452932Y852431D02*
D03*
X129500Y1093000D02*
D03*
X108500Y1102500D02*
D03*
X163154Y1029944D02*
D03*
X81000Y1057000D02*
D03*
X87500Y1072907D02*
D03*
X104564Y1078564D02*
D03*
X81000Y1002500D02*
D03*
X182000Y1049500D02*
D03*
X274500Y88500D02*
D03*
X240000Y90000D02*
D03*
X93000Y1102500D02*
D03*
X46000Y1095000D02*
D03*
X303000Y1143500D02*
D03*
Y1148500D02*
D03*
X19000Y1003000D02*
D03*
X45000Y1065000D02*
D03*
X19000Y1066000D02*
D03*
X24500Y967500D02*
D03*
X251000Y1024000D02*
D03*
X258500Y960500D02*
D03*
X306500Y968000D02*
D03*
Y963000D02*
D03*
X432500Y1119500D02*
D03*
Y1125000D02*
D03*
X427500Y1119500D02*
D03*
X512000Y699500D02*
D03*
X436500Y669000D02*
D03*
X418150Y1050850D02*
D03*
X623253Y420023D02*
D03*
X630000Y455500D02*
D03*
X485000Y851500D02*
D03*
X433000Y852000D02*
D03*
X620000Y300000D02*
D03*
X610000D02*
D03*
X630000D02*
D03*
X365000Y274000D02*
D03*
X353500D02*
D03*
X359000D02*
D03*
X370500Y85500D02*
D03*
X365000Y269000D02*
D03*
Y264000D02*
D03*
Y259000D02*
D03*
X353500Y269000D02*
D03*
X359000D02*
D03*
Y264000D02*
D03*
X353500D02*
D03*
X359000Y259000D02*
D03*
X19000Y967500D02*
D03*
X24500Y962500D02*
D03*
X19000D02*
D03*
Y952500D02*
D03*
X24500D02*
D03*
X19000Y957500D02*
D03*
X24500D02*
D03*
X13000Y962500D02*
D03*
Y957500D02*
D03*
Y952500D02*
D03*
X235000Y177500D02*
D03*
X224500Y172000D02*
D03*
Y177500D02*
D03*
X230000D02*
D03*
X235000Y172000D02*
D03*
Y166500D02*
D03*
X230000Y172000D02*
D03*
Y166500D02*
D03*
X224500D02*
D03*
X185500Y204000D02*
D03*
Y209000D02*
D03*
Y214000D02*
D03*
Y219000D02*
D03*
X197000Y209000D02*
D03*
X191500D02*
D03*
X197000Y204000D02*
D03*
X191500D02*
D03*
Y214000D02*
D03*
X197000D02*
D03*
X191500Y219000D02*
D03*
X197000D02*
D03*
X269500Y74000D02*
D03*
X279500Y93500D02*
D03*
X310500Y104500D02*
D03*
X240000Y100000D02*
D03*
Y110000D02*
D03*
X230000Y100000D02*
D03*
Y110000D02*
D03*
X220000D02*
D03*
X230000Y120000D02*
D03*
X220000D02*
D03*
X210000Y130000D02*
D03*
X220000D02*
D03*
X230000D02*
D03*
X210000Y120000D02*
D03*
D158*
X395358Y1204843D02*
D03*
X408058Y1217542D02*
D03*
X393700Y1219200D02*
D03*
X381000Y1206500D02*
D03*
X368300D02*
D03*
X381000Y1231900D02*
D03*
X635000Y1054100D02*
D03*
Y1041400D02*
D03*
Y1028700D02*
D03*
Y1003300D02*
D03*
Y977900D02*
D03*
Y952500D02*
D03*
Y939800D02*
D03*
Y927100D02*
D03*
Y838200D02*
D03*
Y825500D02*
D03*
Y812800D02*
D03*
Y723900D02*
D03*
Y711200D02*
D03*
Y698500D02*
D03*
Y673100D02*
D03*
Y647700D02*
D03*
Y622300D02*
D03*
Y609600D02*
D03*
Y596900D02*
D03*
Y584200D02*
D03*
Y571500D02*
D03*
Y558800D02*
D03*
Y546100D02*
D03*
Y533400D02*
D03*
Y520700D02*
D03*
Y508000D02*
D03*
Y495300D02*
D03*
Y482600D02*
D03*
Y469900D02*
D03*
Y241300D02*
D03*
Y228600D02*
D03*
Y215900D02*
D03*
Y203200D02*
D03*
Y190500D02*
D03*
Y177800D02*
D03*
Y165100D02*
D03*
Y152400D02*
D03*
Y139700D02*
D03*
Y127000D02*
D03*
Y114300D02*
D03*
Y101600D02*
D03*
Y88900D02*
D03*
X622300Y1054100D02*
D03*
Y1041400D02*
D03*
Y1028700D02*
D03*
Y1003300D02*
D03*
Y977900D02*
D03*
Y952500D02*
D03*
Y939800D02*
D03*
Y927100D02*
D03*
Y838200D02*
D03*
Y825500D02*
D03*
Y812800D02*
D03*
Y723900D02*
D03*
Y711200D02*
D03*
Y698500D02*
D03*
Y673100D02*
D03*
Y647700D02*
D03*
Y622300D02*
D03*
Y482600D02*
D03*
Y469900D02*
D03*
Y431800D02*
D03*
Y406400D02*
D03*
Y393700D02*
D03*
Y381000D02*
D03*
Y241300D02*
D03*
Y228600D02*
D03*
Y215900D02*
D03*
Y203200D02*
D03*
Y190500D02*
D03*
Y177800D02*
D03*
Y165100D02*
D03*
Y152400D02*
D03*
Y139700D02*
D03*
Y127000D02*
D03*
Y76200D02*
D03*
Y63500D02*
D03*
Y50800D02*
D03*
X609600Y1054100D02*
D03*
Y1041400D02*
D03*
Y1028700D02*
D03*
Y1003300D02*
D03*
Y977900D02*
D03*
Y952500D02*
D03*
Y939800D02*
D03*
Y927100D02*
D03*
Y838200D02*
D03*
Y825500D02*
D03*
Y812800D02*
D03*
Y723900D02*
D03*
Y711200D02*
D03*
Y698500D02*
D03*
Y673100D02*
D03*
Y647700D02*
D03*
Y622300D02*
D03*
Y571500D02*
D03*
Y520700D02*
D03*
Y495300D02*
D03*
Y482600D02*
D03*
Y469900D02*
D03*
Y431800D02*
D03*
Y381000D02*
D03*
Y241300D02*
D03*
Y228600D02*
D03*
Y215900D02*
D03*
Y203200D02*
D03*
Y190500D02*
D03*
Y177800D02*
D03*
Y165100D02*
D03*
Y152400D02*
D03*
Y139700D02*
D03*
Y88900D02*
D03*
Y76200D02*
D03*
Y63500D02*
D03*
Y50800D02*
D03*
Y38100D02*
D03*
X596900Y1054100D02*
D03*
Y1041400D02*
D03*
Y1028700D02*
D03*
Y1003300D02*
D03*
Y977900D02*
D03*
Y952500D02*
D03*
Y939800D02*
D03*
Y927100D02*
D03*
Y838200D02*
D03*
Y825500D02*
D03*
Y812800D02*
D03*
Y723900D02*
D03*
Y711200D02*
D03*
Y698500D02*
D03*
Y673100D02*
D03*
Y558800D02*
D03*
Y533400D02*
D03*
Y520700D02*
D03*
Y508000D02*
D03*
Y495300D02*
D03*
Y406400D02*
D03*
Y393700D02*
D03*
Y381000D02*
D03*
Y355600D02*
D03*
Y241300D02*
D03*
Y228600D02*
D03*
Y215900D02*
D03*
Y203200D02*
D03*
Y190500D02*
D03*
Y177800D02*
D03*
Y165100D02*
D03*
Y152400D02*
D03*
Y139700D02*
D03*
Y88900D02*
D03*
Y76200D02*
D03*
Y50800D02*
D03*
Y38100D02*
D03*
Y25400D02*
D03*
X584200Y1130300D02*
D03*
Y1117600D02*
D03*
Y1104900D02*
D03*
Y1079500D02*
D03*
Y1066800D02*
D03*
Y1054100D02*
D03*
Y1041400D02*
D03*
Y1028700D02*
D03*
Y1016000D02*
D03*
Y1003300D02*
D03*
Y977900D02*
D03*
Y965200D02*
D03*
Y952500D02*
D03*
Y939800D02*
D03*
Y927100D02*
D03*
Y723900D02*
D03*
Y711200D02*
D03*
Y698500D02*
D03*
Y685800D02*
D03*
Y571500D02*
D03*
Y533400D02*
D03*
Y520700D02*
D03*
Y508000D02*
D03*
Y495300D02*
D03*
Y457200D02*
D03*
Y381000D02*
D03*
Y342900D02*
D03*
Y241300D02*
D03*
Y228600D02*
D03*
Y215900D02*
D03*
Y203200D02*
D03*
Y190500D02*
D03*
Y177800D02*
D03*
Y165100D02*
D03*
Y152400D02*
D03*
Y139700D02*
D03*
Y63500D02*
D03*
Y50800D02*
D03*
Y25400D02*
D03*
X571500Y1130300D02*
D03*
Y1117600D02*
D03*
Y1104900D02*
D03*
Y1092200D02*
D03*
Y901700D02*
D03*
Y889000D02*
D03*
Y393700D02*
D03*
Y381000D02*
D03*
Y241300D02*
D03*
Y228600D02*
D03*
Y215900D02*
D03*
Y203200D02*
D03*
Y190500D02*
D03*
Y177800D02*
D03*
Y165100D02*
D03*
Y152400D02*
D03*
Y139700D02*
D03*
Y50800D02*
D03*
Y38100D02*
D03*
Y25400D02*
D03*
Y12700D02*
D03*
X558800Y1130300D02*
D03*
Y1117600D02*
D03*
Y1104900D02*
D03*
Y1092200D02*
D03*
Y241300D02*
D03*
Y190500D02*
D03*
Y177800D02*
D03*
Y165100D02*
D03*
Y152400D02*
D03*
Y139700D02*
D03*
Y88900D02*
D03*
Y76200D02*
D03*
Y63500D02*
D03*
Y50800D02*
D03*
Y38100D02*
D03*
Y25400D02*
D03*
Y12700D02*
D03*
X546100Y1130300D02*
D03*
Y1117600D02*
D03*
Y1104900D02*
D03*
Y1092200D02*
D03*
Y914400D02*
D03*
Y889000D02*
D03*
Y876300D02*
D03*
Y863600D02*
D03*
Y419100D02*
D03*
Y406400D02*
D03*
Y241300D02*
D03*
Y190500D02*
D03*
Y177800D02*
D03*
Y165100D02*
D03*
Y152400D02*
D03*
Y139700D02*
D03*
Y63500D02*
D03*
Y50800D02*
D03*
Y12700D02*
D03*
X533400Y1308100D02*
D03*
Y1295400D02*
D03*
Y1282700D02*
D03*
Y1270000D02*
D03*
Y1257300D02*
D03*
Y1244600D02*
D03*
Y1231900D02*
D03*
Y1193800D02*
D03*
Y1181100D02*
D03*
Y1168400D02*
D03*
Y1155700D02*
D03*
Y1143000D02*
D03*
Y1130300D02*
D03*
Y1117600D02*
D03*
Y1104900D02*
D03*
Y1092200D02*
D03*
Y1028700D02*
D03*
Y901700D02*
D03*
Y889000D02*
D03*
Y876300D02*
D03*
Y419100D02*
D03*
Y406400D02*
D03*
Y393700D02*
D03*
Y342900D02*
D03*
Y241300D02*
D03*
Y190500D02*
D03*
Y177800D02*
D03*
Y165100D02*
D03*
Y152400D02*
D03*
Y139700D02*
D03*
Y63500D02*
D03*
Y12700D02*
D03*
X520700Y1257300D02*
D03*
Y1155700D02*
D03*
Y1143000D02*
D03*
Y1130300D02*
D03*
Y1117600D02*
D03*
Y1104900D02*
D03*
Y1092200D02*
D03*
Y889000D02*
D03*
Y647700D02*
D03*
Y520700D02*
D03*
Y419100D02*
D03*
Y406400D02*
D03*
Y393700D02*
D03*
Y381000D02*
D03*
Y304800D02*
D03*
Y241300D02*
D03*
Y228600D02*
D03*
Y215900D02*
D03*
Y203200D02*
D03*
Y190500D02*
D03*
Y177800D02*
D03*
Y165100D02*
D03*
Y152400D02*
D03*
Y139700D02*
D03*
Y25400D02*
D03*
Y12700D02*
D03*
X508000Y1308100D02*
D03*
Y1295400D02*
D03*
Y1282700D02*
D03*
Y1270000D02*
D03*
Y1257300D02*
D03*
Y1143000D02*
D03*
Y1130300D02*
D03*
Y1104900D02*
D03*
Y1092200D02*
D03*
Y711200D02*
D03*
Y685800D02*
D03*
Y673100D02*
D03*
Y647700D02*
D03*
Y571500D02*
D03*
Y241300D02*
D03*
Y228600D02*
D03*
Y215900D02*
D03*
Y203200D02*
D03*
Y190500D02*
D03*
Y177800D02*
D03*
Y165100D02*
D03*
Y152400D02*
D03*
Y139700D02*
D03*
Y38100D02*
D03*
Y12700D02*
D03*
X495300Y1257300D02*
D03*
Y1041400D02*
D03*
Y838200D02*
D03*
Y723900D02*
D03*
Y711200D02*
D03*
Y685800D02*
D03*
Y660400D02*
D03*
Y635000D02*
D03*
Y622300D02*
D03*
Y571500D02*
D03*
Y317500D02*
D03*
Y304800D02*
D03*
Y241300D02*
D03*
Y228600D02*
D03*
Y215900D02*
D03*
Y203200D02*
D03*
Y190500D02*
D03*
Y177800D02*
D03*
Y165100D02*
D03*
Y152400D02*
D03*
Y139700D02*
D03*
Y88900D02*
D03*
X482600Y1117600D02*
D03*
Y1104900D02*
D03*
Y1092200D02*
D03*
Y927100D02*
D03*
Y723900D02*
D03*
Y711200D02*
D03*
Y609600D02*
D03*
Y571500D02*
D03*
Y482600D02*
D03*
Y469900D02*
D03*
Y444500D02*
D03*
Y419100D02*
D03*
Y368300D02*
D03*
Y241300D02*
D03*
Y228600D02*
D03*
Y215900D02*
D03*
Y203200D02*
D03*
Y190500D02*
D03*
Y177800D02*
D03*
Y165100D02*
D03*
Y152400D02*
D03*
Y139700D02*
D03*
X469900Y1257300D02*
D03*
Y1193800D02*
D03*
Y711200D02*
D03*
Y609600D02*
D03*
Y584200D02*
D03*
Y571500D02*
D03*
Y482600D02*
D03*
Y457200D02*
D03*
Y393700D02*
D03*
Y368300D02*
D03*
Y355600D02*
D03*
Y241300D02*
D03*
Y228600D02*
D03*
Y215900D02*
D03*
Y203200D02*
D03*
Y190500D02*
D03*
Y177800D02*
D03*
Y165100D02*
D03*
Y152400D02*
D03*
Y139700D02*
D03*
Y127000D02*
D03*
X457200Y1308100D02*
D03*
Y1295400D02*
D03*
Y1282700D02*
D03*
Y1270000D02*
D03*
Y1257300D02*
D03*
Y1244600D02*
D03*
Y1231900D02*
D03*
Y1168400D02*
D03*
Y762000D02*
D03*
Y660400D02*
D03*
Y622300D02*
D03*
Y584200D02*
D03*
Y571500D02*
D03*
Y546100D02*
D03*
Y508000D02*
D03*
Y368300D02*
D03*
Y355600D02*
D03*
Y342900D02*
D03*
X444500Y1308100D02*
D03*
Y1295400D02*
D03*
Y1282700D02*
D03*
Y1270000D02*
D03*
Y1257300D02*
D03*
Y1168400D02*
D03*
Y685800D02*
D03*
Y609600D02*
D03*
Y584200D02*
D03*
Y508000D02*
D03*
Y482600D02*
D03*
Y469900D02*
D03*
Y444500D02*
D03*
Y431800D02*
D03*
Y419100D02*
D03*
Y368300D02*
D03*
Y355600D02*
D03*
Y114300D02*
D03*
Y63500D02*
D03*
Y50800D02*
D03*
X431800Y1308100D02*
D03*
Y1295400D02*
D03*
Y1282700D02*
D03*
Y1270000D02*
D03*
Y1193800D02*
D03*
Y1181100D02*
D03*
Y1143000D02*
D03*
Y1066800D02*
D03*
Y914400D02*
D03*
Y838200D02*
D03*
Y609600D02*
D03*
Y571500D02*
D03*
Y546100D02*
D03*
Y482600D02*
D03*
Y368300D02*
D03*
Y317500D02*
D03*
Y203200D02*
D03*
Y165100D02*
D03*
Y114300D02*
D03*
Y63500D02*
D03*
Y25400D02*
D03*
X419100Y1308100D02*
D03*
Y1295400D02*
D03*
Y1206500D02*
D03*
Y1193800D02*
D03*
Y1181100D02*
D03*
Y1168400D02*
D03*
Y762000D02*
D03*
Y749300D02*
D03*
Y711200D02*
D03*
Y685800D02*
D03*
Y508000D02*
D03*
Y406400D02*
D03*
Y330200D02*
D03*
Y317500D02*
D03*
Y177800D02*
D03*
Y165100D02*
D03*
Y114300D02*
D03*
Y38100D02*
D03*
Y12700D02*
D03*
X406400Y1308100D02*
D03*
Y1295400D02*
D03*
Y1282700D02*
D03*
Y1270000D02*
D03*
Y1231900D02*
D03*
Y1193800D02*
D03*
Y1181100D02*
D03*
Y1168400D02*
D03*
Y838200D02*
D03*
Y749300D02*
D03*
Y685800D02*
D03*
Y571500D02*
D03*
Y508000D02*
D03*
Y482600D02*
D03*
Y469900D02*
D03*
Y444500D02*
D03*
Y431800D02*
D03*
Y419100D02*
D03*
Y406400D02*
D03*
Y190500D02*
D03*
Y177800D02*
D03*
Y165100D02*
D03*
Y127000D02*
D03*
Y50800D02*
D03*
Y25400D02*
D03*
Y12700D02*
D03*
X393700Y1308100D02*
D03*
Y1295400D02*
D03*
Y1282700D02*
D03*
Y1181100D02*
D03*
Y1168400D02*
D03*
Y1143000D02*
D03*
Y1104900D02*
D03*
Y762000D02*
D03*
Y749300D02*
D03*
Y736600D02*
D03*
Y723900D02*
D03*
Y685800D02*
D03*
Y660400D02*
D03*
Y609600D02*
D03*
Y508000D02*
D03*
Y482600D02*
D03*
Y469900D02*
D03*
Y444500D02*
D03*
Y431800D02*
D03*
Y419100D02*
D03*
Y241300D02*
D03*
Y203200D02*
D03*
Y190500D02*
D03*
Y177800D02*
D03*
Y165100D02*
D03*
Y63500D02*
D03*
Y38100D02*
D03*
Y25400D02*
D03*
Y12700D02*
D03*
X381000Y1308100D02*
D03*
Y1295400D02*
D03*
Y1282700D02*
D03*
Y1257300D02*
D03*
Y1181100D02*
D03*
Y1168400D02*
D03*
Y990600D02*
D03*
Y787400D02*
D03*
Y762000D02*
D03*
Y749300D02*
D03*
Y736600D02*
D03*
Y723900D02*
D03*
Y685800D02*
D03*
Y660400D02*
D03*
Y647700D02*
D03*
Y622300D02*
D03*
Y609600D02*
D03*
Y546100D02*
D03*
Y520700D02*
D03*
Y508000D02*
D03*
Y482600D02*
D03*
Y469900D02*
D03*
Y444500D02*
D03*
Y431800D02*
D03*
Y419100D02*
D03*
Y406400D02*
D03*
Y368300D02*
D03*
Y355600D02*
D03*
Y342900D02*
D03*
Y317500D02*
D03*
Y304800D02*
D03*
Y203200D02*
D03*
Y50800D02*
D03*
Y38100D02*
D03*
Y25400D02*
D03*
Y12700D02*
D03*
X368300Y1308100D02*
D03*
Y1295400D02*
D03*
Y1282700D02*
D03*
Y1257300D02*
D03*
Y1244600D02*
D03*
Y1231900D02*
D03*
Y1181100D02*
D03*
Y1168400D02*
D03*
Y1130300D02*
D03*
Y1117600D02*
D03*
Y1066800D02*
D03*
Y927100D02*
D03*
Y901700D02*
D03*
Y889000D02*
D03*
Y63500D02*
D03*
Y50800D02*
D03*
Y38100D02*
D03*
Y25400D02*
D03*
Y12700D02*
D03*
X355600Y1308100D02*
D03*
Y1295400D02*
D03*
Y1282700D02*
D03*
Y1257300D02*
D03*
Y1244600D02*
D03*
Y1231900D02*
D03*
Y1181100D02*
D03*
Y1130300D02*
D03*
Y1117600D02*
D03*
Y1104900D02*
D03*
Y1079500D02*
D03*
Y1054100D02*
D03*
Y1041400D02*
D03*
Y1028700D02*
D03*
Y1016000D02*
D03*
Y1003300D02*
D03*
Y990600D02*
D03*
Y927100D02*
D03*
Y889000D02*
D03*
Y127000D02*
D03*
Y101600D02*
D03*
Y76200D02*
D03*
Y63500D02*
D03*
Y50800D02*
D03*
Y38100D02*
D03*
Y25400D02*
D03*
Y12700D02*
D03*
X342900Y1308100D02*
D03*
Y1295400D02*
D03*
Y1282700D02*
D03*
Y1257300D02*
D03*
Y1244600D02*
D03*
Y1117600D02*
D03*
Y1104900D02*
D03*
Y1079500D02*
D03*
Y1066800D02*
D03*
Y1041400D02*
D03*
Y1028700D02*
D03*
Y1016000D02*
D03*
Y1003300D02*
D03*
Y990600D02*
D03*
Y977900D02*
D03*
Y774700D02*
D03*
Y762000D02*
D03*
Y749300D02*
D03*
Y736600D02*
D03*
Y723900D02*
D03*
Y685800D02*
D03*
Y673100D02*
D03*
Y660400D02*
D03*
Y647700D02*
D03*
Y635000D02*
D03*
Y622300D02*
D03*
Y609600D02*
D03*
Y596900D02*
D03*
Y203200D02*
D03*
Y139700D02*
D03*
Y114300D02*
D03*
Y88900D02*
D03*
Y76200D02*
D03*
Y63500D02*
D03*
Y50800D02*
D03*
Y38100D02*
D03*
Y12700D02*
D03*
X330200Y1308100D02*
D03*
Y1295400D02*
D03*
Y1282700D02*
D03*
Y1257300D02*
D03*
Y1117600D02*
D03*
Y1104900D02*
D03*
Y1079500D02*
D03*
Y1066800D02*
D03*
Y1054100D02*
D03*
Y1028700D02*
D03*
Y1016000D02*
D03*
Y1003300D02*
D03*
Y990600D02*
D03*
Y977900D02*
D03*
Y939800D02*
D03*
Y825500D02*
D03*
Y203200D02*
D03*
Y190500D02*
D03*
Y152400D02*
D03*
Y127000D02*
D03*
Y76200D02*
D03*
Y63500D02*
D03*
Y50800D02*
D03*
Y38100D02*
D03*
Y12700D02*
D03*
X317500Y1308100D02*
D03*
Y1295400D02*
D03*
Y1282700D02*
D03*
Y1257300D02*
D03*
Y1054100D02*
D03*
Y1041400D02*
D03*
Y1016000D02*
D03*
Y1003300D02*
D03*
Y952500D02*
D03*
Y812800D02*
D03*
Y635000D02*
D03*
Y622300D02*
D03*
Y609600D02*
D03*
Y596900D02*
D03*
Y584200D02*
D03*
Y571500D02*
D03*
Y520700D02*
D03*
Y508000D02*
D03*
Y444500D02*
D03*
Y431800D02*
D03*
Y165100D02*
D03*
Y139700D02*
D03*
Y114300D02*
D03*
Y76200D02*
D03*
Y63500D02*
D03*
Y50800D02*
D03*
Y12700D02*
D03*
X304800Y1308100D02*
D03*
Y1295400D02*
D03*
Y1282700D02*
D03*
Y1257300D02*
D03*
Y1231900D02*
D03*
Y1193800D02*
D03*
Y1130300D02*
D03*
Y1104900D02*
D03*
Y1079500D02*
D03*
Y1066800D02*
D03*
Y1041400D02*
D03*
Y1028700D02*
D03*
Y876300D02*
D03*
Y774700D02*
D03*
Y762000D02*
D03*
Y749300D02*
D03*
Y736600D02*
D03*
Y723900D02*
D03*
Y711200D02*
D03*
Y698500D02*
D03*
Y685800D02*
D03*
Y647700D02*
D03*
Y635000D02*
D03*
Y622300D02*
D03*
Y609600D02*
D03*
Y596900D02*
D03*
Y584200D02*
D03*
Y571500D02*
D03*
Y558800D02*
D03*
Y546100D02*
D03*
Y215900D02*
D03*
Y177800D02*
D03*
Y152400D02*
D03*
Y127000D02*
D03*
Y114300D02*
D03*
Y63500D02*
D03*
Y50800D02*
D03*
Y38100D02*
D03*
X292100Y1308100D02*
D03*
Y1295400D02*
D03*
Y1282700D02*
D03*
Y1257300D02*
D03*
Y1231900D02*
D03*
Y1143000D02*
D03*
Y1130300D02*
D03*
Y990600D02*
D03*
Y952500D02*
D03*
Y939800D02*
D03*
Y876300D02*
D03*
Y812800D02*
D03*
Y800100D02*
D03*
Y787400D02*
D03*
Y774700D02*
D03*
Y749300D02*
D03*
Y736600D02*
D03*
Y723900D02*
D03*
Y711200D02*
D03*
Y698500D02*
D03*
Y685800D02*
D03*
Y673100D02*
D03*
Y165100D02*
D03*
Y139700D02*
D03*
X279400Y1308100D02*
D03*
Y1295400D02*
D03*
Y1282700D02*
D03*
Y1244600D02*
D03*
Y1104900D02*
D03*
Y1079500D02*
D03*
Y1066800D02*
D03*
Y1041400D02*
D03*
Y1028700D02*
D03*
Y990600D02*
D03*
Y977900D02*
D03*
Y952500D02*
D03*
Y939800D02*
D03*
Y927100D02*
D03*
Y825500D02*
D03*
Y812800D02*
D03*
Y800100D02*
D03*
Y787400D02*
D03*
Y736600D02*
D03*
Y723900D02*
D03*
Y711200D02*
D03*
Y698500D02*
D03*
Y330200D02*
D03*
Y317500D02*
D03*
Y215900D02*
D03*
Y203200D02*
D03*
X266700Y1308100D02*
D03*
Y1295400D02*
D03*
Y1282700D02*
D03*
Y1270000D02*
D03*
Y1117600D02*
D03*
Y1104900D02*
D03*
Y1079500D02*
D03*
Y1066800D02*
D03*
Y1028700D02*
D03*
Y990600D02*
D03*
Y952500D02*
D03*
Y939800D02*
D03*
Y927100D02*
D03*
Y914400D02*
D03*
Y901700D02*
D03*
Y889000D02*
D03*
Y876300D02*
D03*
Y863600D02*
D03*
Y838200D02*
D03*
Y825500D02*
D03*
Y812800D02*
D03*
Y800100D02*
D03*
Y723900D02*
D03*
Y711200D02*
D03*
Y393700D02*
D03*
Y342900D02*
D03*
Y317500D02*
D03*
Y304800D02*
D03*
Y292100D02*
D03*
Y228600D02*
D03*
Y215900D02*
D03*
Y203200D02*
D03*
Y190500D02*
D03*
X254000Y1308100D02*
D03*
Y1295400D02*
D03*
Y1282700D02*
D03*
Y1270000D02*
D03*
Y1257300D02*
D03*
Y1244600D02*
D03*
Y1231900D02*
D03*
Y1219200D02*
D03*
Y952500D02*
D03*
Y939800D02*
D03*
Y927100D02*
D03*
Y889000D02*
D03*
Y876300D02*
D03*
Y838200D02*
D03*
Y825500D02*
D03*
Y812800D02*
D03*
Y800100D02*
D03*
Y723900D02*
D03*
Y698500D02*
D03*
Y685800D02*
D03*
Y673100D02*
D03*
Y660400D02*
D03*
Y647700D02*
D03*
Y635000D02*
D03*
Y622300D02*
D03*
Y609600D02*
D03*
Y596900D02*
D03*
Y584200D02*
D03*
Y571500D02*
D03*
Y558800D02*
D03*
Y546100D02*
D03*
Y533400D02*
D03*
Y520700D02*
D03*
Y508000D02*
D03*
Y495300D02*
D03*
Y482600D02*
D03*
Y469900D02*
D03*
Y457200D02*
D03*
Y444500D02*
D03*
Y431800D02*
D03*
Y419100D02*
D03*
Y406400D02*
D03*
Y355600D02*
D03*
Y317500D02*
D03*
Y304800D02*
D03*
Y292100D02*
D03*
Y177800D02*
D03*
Y165100D02*
D03*
Y152400D02*
D03*
X241300Y1308100D02*
D03*
Y1295400D02*
D03*
Y1282700D02*
D03*
Y1270000D02*
D03*
Y1257300D02*
D03*
Y1244600D02*
D03*
Y1231900D02*
D03*
Y1079500D02*
D03*
Y1066800D02*
D03*
Y1028700D02*
D03*
Y1016000D02*
D03*
Y965200D02*
D03*
Y939800D02*
D03*
Y927100D02*
D03*
Y889000D02*
D03*
Y825500D02*
D03*
Y812800D02*
D03*
Y800100D02*
D03*
Y787400D02*
D03*
Y736600D02*
D03*
Y711200D02*
D03*
Y698500D02*
D03*
Y685800D02*
D03*
Y673100D02*
D03*
Y660400D02*
D03*
Y647700D02*
D03*
Y635000D02*
D03*
Y622300D02*
D03*
Y609600D02*
D03*
Y596900D02*
D03*
Y584200D02*
D03*
Y571500D02*
D03*
Y558800D02*
D03*
Y546100D02*
D03*
Y533400D02*
D03*
Y520700D02*
D03*
Y508000D02*
D03*
Y495300D02*
D03*
Y482600D02*
D03*
Y469900D02*
D03*
Y457200D02*
D03*
Y444500D02*
D03*
Y431800D02*
D03*
Y419100D02*
D03*
Y406400D02*
D03*
Y368300D02*
D03*
Y304800D02*
D03*
Y292100D02*
D03*
Y241300D02*
D03*
Y228600D02*
D03*
Y215900D02*
D03*
Y203200D02*
D03*
Y190500D02*
D03*
Y177800D02*
D03*
Y165100D02*
D03*
Y127000D02*
D03*
X228600Y1308100D02*
D03*
Y1295400D02*
D03*
Y1282700D02*
D03*
Y1270000D02*
D03*
Y1257300D02*
D03*
Y1244600D02*
D03*
Y1231900D02*
D03*
Y1066800D02*
D03*
Y990600D02*
D03*
Y965200D02*
D03*
Y939800D02*
D03*
Y825500D02*
D03*
Y812800D02*
D03*
Y800100D02*
D03*
Y787400D02*
D03*
Y774700D02*
D03*
Y762000D02*
D03*
Y749300D02*
D03*
Y723900D02*
D03*
Y711200D02*
D03*
Y698500D02*
D03*
Y685800D02*
D03*
Y673100D02*
D03*
Y660400D02*
D03*
Y647700D02*
D03*
Y635000D02*
D03*
Y622300D02*
D03*
Y609600D02*
D03*
Y596900D02*
D03*
Y584200D02*
D03*
Y571500D02*
D03*
Y558800D02*
D03*
Y546100D02*
D03*
Y533400D02*
D03*
Y520700D02*
D03*
Y508000D02*
D03*
Y495300D02*
D03*
Y482600D02*
D03*
Y469900D02*
D03*
Y457200D02*
D03*
Y444500D02*
D03*
Y431800D02*
D03*
Y419100D02*
D03*
Y381000D02*
D03*
Y368300D02*
D03*
Y304800D02*
D03*
Y203200D02*
D03*
Y190500D02*
D03*
Y88900D02*
D03*
X215900Y1308100D02*
D03*
Y1295400D02*
D03*
Y1282700D02*
D03*
Y1270000D02*
D03*
Y1257300D02*
D03*
Y1244600D02*
D03*
Y1231900D02*
D03*
Y1219200D02*
D03*
Y1130300D02*
D03*
Y1066800D02*
D03*
Y990600D02*
D03*
Y876300D02*
D03*
Y812800D02*
D03*
Y800100D02*
D03*
Y787400D02*
D03*
Y736600D02*
D03*
Y723900D02*
D03*
Y711200D02*
D03*
Y698500D02*
D03*
Y685800D02*
D03*
Y673100D02*
D03*
Y660400D02*
D03*
Y647700D02*
D03*
Y635000D02*
D03*
Y622300D02*
D03*
Y609600D02*
D03*
Y596900D02*
D03*
Y584200D02*
D03*
Y571500D02*
D03*
Y558800D02*
D03*
Y546100D02*
D03*
Y533400D02*
D03*
Y520700D02*
D03*
Y508000D02*
D03*
Y495300D02*
D03*
Y482600D02*
D03*
Y469900D02*
D03*
Y457200D02*
D03*
Y444500D02*
D03*
Y431800D02*
D03*
Y381000D02*
D03*
Y368300D02*
D03*
X203200Y1308100D02*
D03*
Y1295400D02*
D03*
Y1282700D02*
D03*
Y1270000D02*
D03*
Y1257300D02*
D03*
Y1244600D02*
D03*
Y1231900D02*
D03*
Y1219200D02*
D03*
Y1206500D02*
D03*
Y1193800D02*
D03*
Y1155700D02*
D03*
Y1130300D02*
D03*
Y1117600D02*
D03*
Y1066800D02*
D03*
Y812800D02*
D03*
Y800100D02*
D03*
Y787400D02*
D03*
Y774700D02*
D03*
Y749300D02*
D03*
Y736600D02*
D03*
Y723900D02*
D03*
Y711200D02*
D03*
Y698500D02*
D03*
Y685800D02*
D03*
Y673100D02*
D03*
Y660400D02*
D03*
Y647700D02*
D03*
Y635000D02*
D03*
Y622300D02*
D03*
Y609600D02*
D03*
Y596900D02*
D03*
Y584200D02*
D03*
Y571500D02*
D03*
Y558800D02*
D03*
Y546100D02*
D03*
Y533400D02*
D03*
Y520700D02*
D03*
Y508000D02*
D03*
Y495300D02*
D03*
Y482600D02*
D03*
Y469900D02*
D03*
Y457200D02*
D03*
Y444500D02*
D03*
Y393700D02*
D03*
Y381000D02*
D03*
Y368300D02*
D03*
Y355600D02*
D03*
Y254000D02*
D03*
Y88900D02*
D03*
Y63500D02*
D03*
Y50800D02*
D03*
Y38100D02*
D03*
X190500Y1308100D02*
D03*
Y1295400D02*
D03*
Y1282700D02*
D03*
Y1270000D02*
D03*
Y1257300D02*
D03*
Y1244600D02*
D03*
Y1231900D02*
D03*
Y1219200D02*
D03*
Y1206500D02*
D03*
Y1193800D02*
D03*
Y1155700D02*
D03*
Y1130300D02*
D03*
Y1117600D02*
D03*
Y1066800D02*
D03*
Y812800D02*
D03*
Y800100D02*
D03*
Y787400D02*
D03*
Y762000D02*
D03*
Y749300D02*
D03*
Y736600D02*
D03*
Y723900D02*
D03*
Y711200D02*
D03*
Y698500D02*
D03*
Y685800D02*
D03*
Y673100D02*
D03*
Y660400D02*
D03*
Y609600D02*
D03*
Y596900D02*
D03*
Y584200D02*
D03*
Y571500D02*
D03*
Y558800D02*
D03*
Y546100D02*
D03*
Y533400D02*
D03*
Y520700D02*
D03*
Y508000D02*
D03*
Y495300D02*
D03*
Y482600D02*
D03*
Y469900D02*
D03*
Y457200D02*
D03*
Y406400D02*
D03*
Y393700D02*
D03*
Y381000D02*
D03*
Y368300D02*
D03*
Y355600D02*
D03*
Y342900D02*
D03*
Y88900D02*
D03*
Y76200D02*
D03*
Y63500D02*
D03*
Y50800D02*
D03*
Y38100D02*
D03*
Y25400D02*
D03*
Y12700D02*
D03*
X177800Y1206500D02*
D03*
Y1193800D02*
D03*
Y1155700D02*
D03*
Y1117600D02*
D03*
Y990600D02*
D03*
Y825500D02*
D03*
Y812800D02*
D03*
Y800100D02*
D03*
Y787400D02*
D03*
Y774700D02*
D03*
Y762000D02*
D03*
Y749300D02*
D03*
Y736600D02*
D03*
Y723900D02*
D03*
Y711200D02*
D03*
Y698500D02*
D03*
Y685800D02*
D03*
Y673100D02*
D03*
Y596900D02*
D03*
Y584200D02*
D03*
Y571500D02*
D03*
Y558800D02*
D03*
Y546100D02*
D03*
Y533400D02*
D03*
Y520700D02*
D03*
Y508000D02*
D03*
Y495300D02*
D03*
Y482600D02*
D03*
Y469900D02*
D03*
Y419100D02*
D03*
Y406400D02*
D03*
Y393700D02*
D03*
Y381000D02*
D03*
Y368300D02*
D03*
Y355600D02*
D03*
Y88900D02*
D03*
Y76200D02*
D03*
Y63500D02*
D03*
Y50800D02*
D03*
Y38100D02*
D03*
Y25400D02*
D03*
Y12700D02*
D03*
X165100Y1206500D02*
D03*
Y1193800D02*
D03*
Y1155700D02*
D03*
Y1117600D02*
D03*
Y1003300D02*
D03*
Y876300D02*
D03*
Y863600D02*
D03*
Y850900D02*
D03*
Y838200D02*
D03*
Y825500D02*
D03*
Y812800D02*
D03*
Y800100D02*
D03*
Y787400D02*
D03*
Y762000D02*
D03*
Y749300D02*
D03*
Y736600D02*
D03*
Y723900D02*
D03*
Y711200D02*
D03*
Y698500D02*
D03*
Y685800D02*
D03*
Y673100D02*
D03*
Y596900D02*
D03*
Y584200D02*
D03*
Y571500D02*
D03*
Y558800D02*
D03*
Y546100D02*
D03*
Y533400D02*
D03*
Y520700D02*
D03*
Y508000D02*
D03*
Y495300D02*
D03*
Y482600D02*
D03*
Y431800D02*
D03*
Y419100D02*
D03*
Y406400D02*
D03*
Y393700D02*
D03*
Y368300D02*
D03*
Y190500D02*
D03*
Y63500D02*
D03*
Y50800D02*
D03*
Y38100D02*
D03*
Y25400D02*
D03*
Y12700D02*
D03*
X152400Y1206500D02*
D03*
Y1193800D02*
D03*
Y1155700D02*
D03*
Y1143000D02*
D03*
Y1117600D02*
D03*
Y990600D02*
D03*
Y927100D02*
D03*
Y876300D02*
D03*
Y863600D02*
D03*
Y850900D02*
D03*
Y838200D02*
D03*
Y825500D02*
D03*
Y812800D02*
D03*
Y800100D02*
D03*
Y774700D02*
D03*
Y762000D02*
D03*
Y749300D02*
D03*
Y736600D02*
D03*
Y723900D02*
D03*
Y711200D02*
D03*
Y698500D02*
D03*
Y685800D02*
D03*
Y673100D02*
D03*
Y660400D02*
D03*
Y609600D02*
D03*
Y596900D02*
D03*
Y584200D02*
D03*
Y571500D02*
D03*
Y558800D02*
D03*
Y546100D02*
D03*
Y533400D02*
D03*
Y520700D02*
D03*
Y508000D02*
D03*
Y495300D02*
D03*
Y444500D02*
D03*
Y431800D02*
D03*
Y419100D02*
D03*
Y406400D02*
D03*
Y190500D02*
D03*
Y177800D02*
D03*
Y63500D02*
D03*
Y50800D02*
D03*
Y38100D02*
D03*
Y25400D02*
D03*
Y12700D02*
D03*
X139700Y1206500D02*
D03*
Y1193800D02*
D03*
Y1155700D02*
D03*
Y1143000D02*
D03*
Y825500D02*
D03*
Y812800D02*
D03*
Y787400D02*
D03*
Y762000D02*
D03*
Y749300D02*
D03*
Y736600D02*
D03*
Y723900D02*
D03*
Y711200D02*
D03*
Y698500D02*
D03*
Y685800D02*
D03*
Y673100D02*
D03*
Y660400D02*
D03*
Y647700D02*
D03*
Y635000D02*
D03*
Y622300D02*
D03*
Y609600D02*
D03*
Y596900D02*
D03*
Y584200D02*
D03*
Y571500D02*
D03*
Y558800D02*
D03*
Y546100D02*
D03*
Y533400D02*
D03*
Y520700D02*
D03*
Y508000D02*
D03*
Y457200D02*
D03*
Y444500D02*
D03*
Y431800D02*
D03*
Y419100D02*
D03*
Y304800D02*
D03*
Y190500D02*
D03*
Y177800D02*
D03*
Y165100D02*
D03*
Y63500D02*
D03*
Y50800D02*
D03*
Y38100D02*
D03*
Y25400D02*
D03*
Y12700D02*
D03*
X127000Y1206500D02*
D03*
Y469900D02*
D03*
Y457200D02*
D03*
Y444500D02*
D03*
Y431800D02*
D03*
Y304800D02*
D03*
Y177800D02*
D03*
Y165100D02*
D03*
Y63500D02*
D03*
Y50800D02*
D03*
Y38100D02*
D03*
Y25400D02*
D03*
Y12700D02*
D03*
X114300Y1003300D02*
D03*
Y482600D02*
D03*
Y469900D02*
D03*
Y457200D02*
D03*
Y444500D02*
D03*
Y304800D02*
D03*
Y241300D02*
D03*
Y228600D02*
D03*
Y215900D02*
D03*
Y203200D02*
D03*
Y165100D02*
D03*
Y88900D02*
D03*
Y76200D02*
D03*
Y63500D02*
D03*
Y50800D02*
D03*
Y38100D02*
D03*
Y25400D02*
D03*
Y12700D02*
D03*
X101600Y1130300D02*
D03*
Y1003300D02*
D03*
Y901700D02*
D03*
Y342900D02*
D03*
Y304800D02*
D03*
Y190500D02*
D03*
Y76200D02*
D03*
Y63500D02*
D03*
Y50800D02*
D03*
Y38100D02*
D03*
Y25400D02*
D03*
Y12700D02*
D03*
X88900Y1206500D02*
D03*
Y1003300D02*
D03*
Y927100D02*
D03*
Y355600D02*
D03*
Y342900D02*
D03*
Y304800D02*
D03*
Y190500D02*
D03*
Y177800D02*
D03*
Y127000D02*
D03*
Y114300D02*
D03*
Y38100D02*
D03*
Y25400D02*
D03*
Y12700D02*
D03*
X76200Y1206500D02*
D03*
Y927100D02*
D03*
Y368300D02*
D03*
Y355600D02*
D03*
Y342900D02*
D03*
Y304800D02*
D03*
Y38100D02*
D03*
Y25400D02*
D03*
Y12700D02*
D03*
X63500Y1206500D02*
D03*
Y1193800D02*
D03*
Y901700D02*
D03*
Y889000D02*
D03*
Y431800D02*
D03*
Y419100D02*
D03*
Y406400D02*
D03*
Y393700D02*
D03*
Y381000D02*
D03*
Y368300D02*
D03*
Y355600D02*
D03*
Y342900D02*
D03*
Y304800D02*
D03*
Y190500D02*
D03*
Y177800D02*
D03*
Y165100D02*
D03*
Y101600D02*
D03*
Y76200D02*
D03*
Y63500D02*
D03*
Y50800D02*
D03*
Y38100D02*
D03*
Y25400D02*
D03*
Y12700D02*
D03*
X50800Y1206500D02*
D03*
Y1193800D02*
D03*
Y1143000D02*
D03*
Y1066800D02*
D03*
Y190500D02*
D03*
Y177800D02*
D03*
Y165100D02*
D03*
Y101600D02*
D03*
Y76200D02*
D03*
Y63500D02*
D03*
Y50800D02*
D03*
Y38100D02*
D03*
Y25400D02*
D03*
X38100Y1041400D02*
D03*
Y1016000D02*
D03*
Y1003300D02*
D03*
Y952500D02*
D03*
Y939800D02*
D03*
Y927100D02*
D03*
Y901700D02*
D03*
Y889000D02*
D03*
Y190500D02*
D03*
Y177800D02*
D03*
Y165100D02*
D03*
Y101600D02*
D03*
Y88900D02*
D03*
Y76200D02*
D03*
Y63500D02*
D03*
Y50800D02*
D03*
Y38100D02*
D03*
X25400Y1092200D02*
D03*
Y838200D02*
D03*
Y825500D02*
D03*
Y812800D02*
D03*
Y800100D02*
D03*
Y787400D02*
D03*
Y774700D02*
D03*
Y762000D02*
D03*
Y749300D02*
D03*
Y736600D02*
D03*
Y723900D02*
D03*
Y711200D02*
D03*
Y698500D02*
D03*
Y685800D02*
D03*
Y673100D02*
D03*
Y660400D02*
D03*
Y647700D02*
D03*
Y635000D02*
D03*
Y622300D02*
D03*
Y609600D02*
D03*
Y596900D02*
D03*
Y584200D02*
D03*
Y571500D02*
D03*
Y558800D02*
D03*
Y546100D02*
D03*
Y533400D02*
D03*
Y520700D02*
D03*
Y508000D02*
D03*
Y495300D02*
D03*
Y482600D02*
D03*
Y469900D02*
D03*
Y457200D02*
D03*
Y444500D02*
D03*
Y431800D02*
D03*
Y419100D02*
D03*
Y406400D02*
D03*
Y393700D02*
D03*
Y381000D02*
D03*
Y368300D02*
D03*
Y355600D02*
D03*
Y342900D02*
D03*
Y330200D02*
D03*
Y317500D02*
D03*
Y279400D02*
D03*
Y228600D02*
D03*
Y215900D02*
D03*
Y203200D02*
D03*
Y190500D02*
D03*
Y177800D02*
D03*
Y165100D02*
D03*
Y101600D02*
D03*
Y88900D02*
D03*
Y76200D02*
D03*
Y63500D02*
D03*
Y50800D02*
D03*
X12700Y850900D02*
D03*
Y838200D02*
D03*
Y825500D02*
D03*
Y812800D02*
D03*
Y800100D02*
D03*
Y787400D02*
D03*
Y774700D02*
D03*
Y762000D02*
D03*
Y749300D02*
D03*
Y736600D02*
D03*
Y723900D02*
D03*
Y711200D02*
D03*
Y698500D02*
D03*
Y685800D02*
D03*
Y673100D02*
D03*
Y660400D02*
D03*
Y647700D02*
D03*
Y635000D02*
D03*
Y622300D02*
D03*
Y609600D02*
D03*
Y596900D02*
D03*
Y584200D02*
D03*
Y571500D02*
D03*
Y558800D02*
D03*
Y546100D02*
D03*
Y533400D02*
D03*
Y520700D02*
D03*
Y508000D02*
D03*
Y495300D02*
D03*
Y482600D02*
D03*
Y469900D02*
D03*
Y457200D02*
D03*
Y444500D02*
D03*
Y431800D02*
D03*
Y419100D02*
D03*
Y406400D02*
D03*
Y393700D02*
D03*
Y381000D02*
D03*
Y368300D02*
D03*
Y355600D02*
D03*
Y342900D02*
D03*
Y330200D02*
D03*
Y317500D02*
D03*
Y279400D02*
D03*
Y228600D02*
D03*
Y215900D02*
D03*
Y203200D02*
D03*
Y190500D02*
D03*
Y177800D02*
D03*
Y165100D02*
D03*
Y152400D02*
D03*
Y139700D02*
D03*
Y127000D02*
D03*
Y114300D02*
D03*
Y101600D02*
D03*
Y88900D02*
D03*
Y76200D02*
D03*
Y63500D02*
D03*
D159*
X383671Y1221503D02*
D03*
X371754Y1216111D02*
D03*
X365795Y1213416D02*
D03*
X359836Y1210720D02*
D03*
X387377Y1153586D02*
D03*
X393917D02*
D03*
X400457D02*
D03*
X420077D02*
D03*
X439336Y1150553D02*
D03*
X445163Y1147584D02*
D03*
X460469Y1138153D02*
D03*
X467003Y1137881D02*
D03*
X473512Y1137243D02*
D03*
X478282Y1132769D02*
D03*
X482907Y1128144D02*
D03*
X487531Y1123520D02*
D03*
X488881Y1117121D02*
D03*
X490286Y1110733D02*
D03*
X487881Y1104651D02*
D03*
Y1098111D02*
D03*
X488160Y1091578D02*
D03*
X488881Y1085077D02*
D03*
X490576Y1078761D02*
D03*
X500914Y1075321D02*
D03*
X502119Y1094747D02*
D03*
X502053Y1101287D02*
D03*
X501959Y1107826D02*
D03*
X502500Y1113000D02*
D03*
X499933Y1126814D02*
D03*
X494498Y1130451D02*
D03*
X489874Y1135076D02*
D03*
X463168Y1152119D02*
D03*
X456628D02*
D03*
X432836Y1162555D02*
D03*
X413260Y1163414D02*
D03*
X406720D02*
D03*
X400180D02*
D03*
X393640D02*
D03*
X387100D02*
D03*
X380560D02*
D03*
X374020D02*
D03*
X367480D02*
D03*
X360940D02*
D03*
X221986Y1150695D02*
D03*
X215564Y1149458D02*
D03*
X209142Y1148222D02*
D03*
X202720Y1146985D02*
D03*
X196298Y1145748D02*
D03*
X189876Y1144511D02*
D03*
X183454Y1143274D02*
D03*
X177032Y1142037D02*
D03*
X170610Y1140800D02*
D03*
X164188Y1139563D02*
D03*
X157766Y1138326D02*
D03*
X151344Y1137089D02*
D03*
X144922Y1135852D02*
D03*
X138500Y1134615D02*
D03*
X132424Y1137035D02*
D03*
X111000Y1133000D02*
D03*
X113907Y1126867D02*
D03*
X113881Y1120327D02*
D03*
X115302Y1113944D02*
D03*
X112951Y1101269D02*
D03*
X112881Y1094729D02*
D03*
X113936Y1088275D02*
D03*
X127119Y1097881D02*
D03*
X136405Y1124203D02*
D03*
X142827Y1125440D02*
D03*
X149249Y1126677D02*
D03*
X155671Y1127914D02*
D03*
X162093Y1129151D02*
D03*
X168515Y1130388D02*
D03*
X174937Y1131625D02*
D03*
X181359Y1132862D02*
D03*
X187780Y1134099D02*
D03*
X194202Y1135336D02*
D03*
X200624Y1136573D02*
D03*
X207046Y1137810D02*
D03*
X213468Y1139047D02*
D03*
X219890Y1140284D02*
D03*
X226292Y1141618D02*
D03*
X37756Y1184119D02*
D03*
X31216D02*
D03*
X24676D02*
D03*
X18136D02*
D03*
X11596D02*
D03*
X5057Y1184051D02*
D03*
X10435Y1165881D02*
D03*
X16975D02*
D03*
X23515D02*
D03*
X30055D02*
D03*
X36595D02*
D03*
X43129Y1165610D02*
D03*
X48140Y1161407D02*
D03*
X53126Y1157175D02*
D03*
X58161Y1153001D02*
D03*
X94132Y1140086D02*
D03*
X100672D02*
D03*
X106903Y1138099D02*
D03*
X113439Y1137889D02*
D03*
X119979Y1137881D02*
D03*
X125866Y1140729D02*
D03*
X126119Y1147264D02*
D03*
X109725Y1152119D02*
D03*
X103568Y1149914D02*
D03*
X97029D02*
D03*
X90489D02*
D03*
X56395Y1167309D02*
D03*
X51385Y1171512D02*
D03*
X49519Y1177780D02*
D03*
X46976Y1183805D02*
D03*
X174880Y1181825D02*
D03*
X168347Y1182119D02*
D03*
X162189Y1179915D02*
D03*
X155649D02*
D03*
X149109D02*
D03*
X147853Y1170088D02*
D03*
X154393D02*
D03*
X160933D02*
D03*
X167148Y1168050D02*
D03*
X173687Y1167938D02*
D03*
X180226Y1167881D02*
D03*
X186383Y1170086D02*
D03*
X192923D02*
D03*
X199463D02*
D03*
X206003D02*
D03*
X202917Y1179914D02*
D03*
X196377D02*
D03*
X189837D02*
D03*
X183576Y1181806D02*
D03*
X101086Y1212121D02*
D03*
X98881Y1205964D02*
D03*
X99817Y1199492D02*
D03*
X121119Y1206679D02*
D03*
X117379Y1212044D02*
D03*
X110914Y1213032D02*
D03*
X486034Y1308551D02*
D03*
X485881Y1302013D02*
D03*
Y1295473D02*
D03*
Y1288933D02*
D03*
Y1282393D02*
D03*
Y1275853D02*
D03*
X485577Y1269320D02*
D03*
X482448Y1263577D02*
D03*
X479319Y1257834D02*
D03*
X476190Y1252091D02*
D03*
X473061Y1246348D02*
D03*
X469932Y1240605D02*
D03*
X466803Y1234863D02*
D03*
X463674Y1229120D02*
D03*
X460545Y1223377D02*
D03*
X454746Y1220353D02*
D03*
X452881Y1214084D02*
D03*
Y1207544D02*
D03*
X466027Y1200259D02*
D03*
X473274Y1226200D02*
D03*
X479532Y1237685D02*
D03*
X482662Y1243428D02*
D03*
X485790Y1249171D02*
D03*
X488920Y1254914D02*
D03*
X492049Y1260657D02*
D03*
X497858Y1263661D02*
D03*
X503830Y1266327D02*
D03*
X504119Y1272860D02*
D03*
Y1279400D02*
D03*
Y1285940D02*
D03*
Y1292480D02*
D03*
Y1299020D02*
D03*
Y1305560D02*
D03*
X295545Y1212709D02*
D03*
X290810Y1208197D02*
D03*
X287315Y1202669D02*
D03*
X285425Y1196408D02*
D03*
X285086Y1189877D02*
D03*
Y1183337D02*
D03*
Y1176797D02*
D03*
X294914Y1180923D02*
D03*
Y1187463D02*
D03*
X295069Y1194001D02*
D03*
X297146Y1200202D02*
D03*
X534568Y1217119D02*
D03*
X528028D02*
D03*
X522822Y1202916D02*
D03*
X529360Y1203072D02*
D03*
X535897Y1202881D02*
D03*
X542060Y1205069D02*
D03*
X299500Y1275000D02*
D03*
X293698Y1273574D02*
D03*
X287482Y1271543D02*
D03*
X281633Y1268617D02*
D03*
X276278Y1264862D02*
D03*
X271536Y1260358D02*
D03*
X267509Y1255205D02*
D03*
X264284Y1249516D02*
D03*
X261933Y1243413D02*
D03*
X260504Y1237031D02*
D03*
X260073Y1230505D02*
D03*
X260086Y1223965D02*
D03*
Y1217425D02*
D03*
X267184Y1168881D02*
D03*
X272119Y1173172D02*
D03*
X271859Y1179707D02*
D03*
X272119Y1186242D02*
D03*
X269914Y1192399D02*
D03*
Y1198939D02*
D03*
Y1205479D02*
D03*
Y1212019D02*
D03*
Y1218559D02*
D03*
Y1225099D02*
D03*
X269944Y1231639D02*
D03*
X270776Y1238125D02*
D03*
X272788Y1244348D02*
D03*
X275910Y1250095D02*
D03*
X280054Y1255155D02*
D03*
X285157Y1259244D02*
D03*
X290926Y1262326D02*
D03*
X297163Y1264293D02*
D03*
X303655Y1265079D02*
D03*
X310196Y1265086D02*
D03*
X316735D02*
D03*
X323275D02*
D03*
X329815D02*
D03*
X336355D02*
D03*
X342895D02*
D03*
X349435D02*
D03*
X355975D02*
D03*
X362515D02*
D03*
X369055D02*
D03*
X375595D02*
D03*
X382135D02*
D03*
X388675D02*
D03*
X395090Y1263811D02*
D03*
X392494Y1251538D02*
D03*
X388832Y1246119D02*
D03*
X383081Y1243006D02*
D03*
X382907Y1236468D02*
D03*
X377712Y1218807D02*
D03*
X397119Y1231867D02*
D03*
Y1238407D02*
D03*
X399730Y1244403D02*
D03*
X428091Y1250929D02*
D03*
X432582Y1246175D02*
D03*
X434498Y1239922D02*
D03*
X434586Y1233382D02*
D03*
Y1226842D02*
D03*
Y1220302D02*
D03*
Y1213762D02*
D03*
X434583Y1207222D02*
D03*
X435296Y1200721D02*
D03*
X437110Y1194438D02*
D03*
X439972Y1188557D02*
D03*
X448474Y1178682D02*
D03*
X453864Y1174977D02*
D03*
X459808Y1172249D02*
D03*
X466131Y1170577D02*
D03*
X472652Y1170086D02*
D03*
X478809Y1167881D02*
D03*
X485344Y1168131D02*
D03*
X491880Y1167881D02*
D03*
X496119Y1172861D02*
D03*
X496183Y1179400D02*
D03*
X496239Y1185940D02*
D03*
X481374Y1182119D02*
D03*
X474979Y1180750D02*
D03*
X468462Y1180203D02*
D03*
X462152Y1181922D02*
D03*
X456368Y1184976D02*
D03*
X445389Y1200803D02*
D03*
X444443Y1207274D02*
D03*
X444414Y1213814D02*
D03*
Y1220354D02*
D03*
Y1226894D02*
D03*
Y1233434D02*
D03*
X444373Y1239974D02*
D03*
X443187Y1246405D02*
D03*
X440376Y1252310D02*
D03*
X436022Y1257190D02*
D03*
X430546Y1260767D02*
D03*
X424308Y1262729D02*
D03*
X396101Y1274375D02*
D03*
X389583Y1274914D02*
D03*
X383043D02*
D03*
X376503D02*
D03*
X369963D02*
D03*
X363423D02*
D03*
X356883D02*
D03*
X350343D02*
D03*
X343803D02*
D03*
X337263D02*
D03*
X330723D02*
D03*
X324183D02*
D03*
X317643D02*
D03*
X311103D02*
D03*
X306000Y1275000D02*
D03*
X256851Y80833D02*
D03*
X251450Y72950D02*
D03*
D160*
X174500Y634500D02*
D03*
X264500Y761500D02*
D03*
X408500Y634500D02*
D03*
X227000Y337500D02*
D03*
M02*
