G04*
G04 #@! TF.GenerationSoftware,Altium Limited,Altium Designer,23.6.0 (18)*
G04*
G04 Layer_Color=32896*
%FSLAX44Y44*%
%MOMM*%
G71*
G04*
G04 #@! TF.SameCoordinates,AD488519-FD06-4120-8DA1-5AB69FE218D1*
G04*
G04*
G04 #@! TF.FilePolarity,Positive*
G04*
G01*
G75*
G36*
X101250Y456432D02*
X18750D01*
Y845569D01*
X101250D01*
Y456432D01*
D02*
G37*
G36*
X49247Y416263D02*
X49324Y416256D01*
X49416Y416235D01*
X49522Y416199D01*
X49635Y416150D01*
X49748Y416079D01*
X49861Y415981D01*
X49875Y415966D01*
X49903Y415931D01*
X49953Y415868D01*
X50002Y415776D01*
X50052Y415670D01*
X50101Y415543D01*
X50129Y415402D01*
X50143Y415239D01*
Y415190D01*
X50136Y415154D01*
Y415105D01*
X50122Y415056D01*
X50101Y414929D01*
X50059Y414780D01*
X50002Y414618D01*
X49917Y414448D01*
X49868Y414356D01*
X49812Y414272D01*
Y414265D01*
X49797Y414258D01*
X49769Y414215D01*
X49713Y414159D01*
X49642Y414088D01*
X49550Y414011D01*
X49444Y413940D01*
X49324Y413876D01*
X49197Y413827D01*
X49183Y413820D01*
X49148Y413813D01*
X49120Y413806D01*
X49084Y413799D01*
X49042Y413792D01*
X48993Y413785D01*
X48936Y413778D01*
X48865Y413770D01*
X48795D01*
X48710Y413763D01*
X48618Y413756D01*
X48512Y413749D01*
X48399D01*
X48279D01*
X47905D01*
Y413756D01*
X47912Y413763D01*
X47919Y413785D01*
X47926Y413820D01*
X47940Y413855D01*
X47955Y413905D01*
X47969Y413961D01*
X47983Y414025D01*
X48004Y414102D01*
X48025Y414187D01*
X48053Y414279D01*
X48074Y414385D01*
X48103Y414498D01*
X48131Y414618D01*
X48166Y414752D01*
X48194Y414893D01*
Y414900D01*
X48202Y414929D01*
X48209Y414964D01*
X48223Y415020D01*
X48237Y415084D01*
X48258Y415154D01*
X48300Y415310D01*
X48350Y415479D01*
X48399Y415649D01*
X48435Y415726D01*
X48463Y415797D01*
X48491Y415861D01*
X48519Y415910D01*
Y415917D01*
X48534Y415924D01*
X48569Y415966D01*
X48625Y416023D01*
X48703Y416087D01*
X48795Y416157D01*
X48908Y416214D01*
X49042Y416256D01*
X49113Y416263D01*
X49183Y416270D01*
X49190D01*
X49197D01*
X49218D01*
X49247Y416263D01*
D02*
G37*
G36*
X39583Y437320D02*
X39583D01*
Y451000D01*
X51464D01*
Y418141D01*
X44071D01*
D01*
X49317D01*
X49275Y418134D01*
X49218D01*
X49162Y418127D01*
X49091Y418120D01*
X49014Y418106D01*
X48851Y418071D01*
X48668Y418021D01*
X48484Y417951D01*
X48307Y417859D01*
X48300Y417852D01*
X48286Y417845D01*
X48265Y417831D01*
X48230Y417802D01*
X48145Y417739D01*
X48039Y417647D01*
X47926Y417534D01*
X47806Y417400D01*
X47686Y417238D01*
X47587Y417054D01*
Y417047D01*
X47573Y417033D01*
X47559Y416997D01*
X47545Y416955D01*
X47524Y416906D01*
X47495Y416842D01*
X47467Y416764D01*
X47439Y416673D01*
X47404Y416574D01*
X47368Y416468D01*
X47333Y416341D01*
X47298Y416214D01*
X47255Y416065D01*
X47220Y415910D01*
X47185Y415748D01*
X47150Y415571D01*
Y415557D01*
X47135Y415515D01*
X47128Y415444D01*
X47107Y415359D01*
X47086Y415253D01*
X47058Y415126D01*
X47029Y414992D01*
X47001Y414851D01*
X46923Y414547D01*
X46846Y414251D01*
X46810Y414109D01*
X46768Y413975D01*
X46726Y413855D01*
X46683Y413749D01*
X46500D01*
X46493D01*
X46479D01*
X46450D01*
X46415Y413756D01*
X46366D01*
X46316Y413763D01*
X46203Y413785D01*
X46076Y413813D01*
X45949Y413862D01*
X45836Y413926D01*
X45780Y413968D01*
X45737Y414018D01*
X45730Y414032D01*
X45716Y414046D01*
X45702Y414074D01*
X45681Y414102D01*
X45667Y414138D01*
X45645Y414187D01*
X45617Y414244D01*
X45596Y414307D01*
X45575Y414378D01*
X45561Y414463D01*
X45539Y414554D01*
X45525Y414653D01*
X45511Y414766D01*
X45504Y414886D01*
Y415105D01*
X45511Y415147D01*
Y415197D01*
X45525Y415303D01*
X45554Y415430D01*
X45589Y415564D01*
X45638Y415691D01*
X45702Y415804D01*
X45709Y415818D01*
X45737Y415846D01*
X45787Y415903D01*
X45864Y415959D01*
X45956Y416030D01*
X46076Y416108D01*
X46217Y416178D01*
X46387Y416249D01*
X46083Y417951D01*
X46069Y417944D01*
X46041Y417937D01*
X45984Y417923D01*
X45914Y417894D01*
X45829Y417866D01*
X45730Y417824D01*
X45624Y417774D01*
X45511Y417725D01*
X45384Y417661D01*
X45264Y417584D01*
X45137Y417506D01*
X45010Y417414D01*
X44890Y417322D01*
X44770Y417209D01*
X44664Y417096D01*
X44565Y416969D01*
X44558Y416962D01*
X44544Y416934D01*
X44523Y416892D01*
X44487Y416835D01*
X44452Y416764D01*
X44410Y416673D01*
X44360Y416567D01*
X44318Y416447D01*
X44268Y416305D01*
X44226Y416150D01*
X44184Y415981D01*
X44149Y415790D01*
X44113Y415592D01*
X44092Y415373D01*
X44078Y415133D01*
X44071Y414886D01*
Y414766D01*
X44078Y414681D01*
Y414575D01*
X44085Y414455D01*
X44092Y414321D01*
X44106Y414180D01*
X44120Y414032D01*
X44141Y413876D01*
X44198Y413566D01*
X44226Y413417D01*
X44268Y413269D01*
X44318Y413135D01*
X44367Y413015D01*
Y413008D01*
X44381Y412987D01*
X44396Y412958D01*
X44424Y412916D01*
X44452Y412867D01*
X44487Y412810D01*
X44572Y412676D01*
X44685Y412535D01*
X44812Y412393D01*
X44960Y412259D01*
X45038Y412203D01*
X45123Y412154D01*
X45130D01*
X45144Y412139D01*
X45172Y412132D01*
X45215Y412111D01*
X45264Y412097D01*
X45335Y412076D01*
X45412Y412048D01*
X45504Y412026D01*
X45610Y412005D01*
X45730Y411977D01*
X45871Y411956D01*
X46020Y411942D01*
X46189Y411920D01*
X46373Y411913D01*
X46578Y411899D01*
X46796D01*
X48978Y411927D01*
X48985D01*
X49021D01*
X49070D01*
X49134D01*
X49211D01*
X49296Y411920D01*
X49395D01*
X49501Y411913D01*
X49727Y411906D01*
X49953Y411892D01*
X50066Y411885D01*
X50172Y411871D01*
X50264Y411857D01*
X50355Y411843D01*
X50362D01*
X50377Y411836D01*
X50398D01*
X50433Y411822D01*
X50475Y411814D01*
X50525Y411800D01*
X50638Y411765D01*
X50779Y411723D01*
X50941Y411659D01*
X51118Y411589D01*
X51301Y411504D01*
D01*
Y413354D01*
X51294D01*
X51266Y413368D01*
X51224Y413382D01*
X51160Y413403D01*
X51083Y413432D01*
X50991Y413467D01*
X50878Y413502D01*
X50751Y413537D01*
X50744D01*
X50722Y413545D01*
X50694Y413552D01*
X50659Y413566D01*
X50588Y413587D01*
X50560Y413594D01*
X50532Y413601D01*
X50539Y413608D01*
X50553Y413622D01*
X50574Y413650D01*
X50609Y413686D01*
X50645Y413728D01*
X50694Y413785D01*
X50744Y413841D01*
X50793Y413912D01*
X50906Y414060D01*
X51026Y414236D01*
X51132Y414427D01*
X51231Y414632D01*
Y414639D01*
X51238Y414653D01*
X51252Y414688D01*
X51266Y414724D01*
X51287Y414780D01*
X51301Y414837D01*
X51323Y414907D01*
X51344Y414978D01*
X51372Y415063D01*
X51393Y415154D01*
X51429Y415352D01*
X51457Y415571D01*
X51464Y415797D01*
Y415846D01*
X51457Y415903D01*
Y415974D01*
X51443Y416065D01*
X51436Y416171D01*
X51414Y416291D01*
X51386Y416418D01*
X51358Y416553D01*
X51316Y416694D01*
X51273Y416835D01*
X51217Y416976D01*
X51146Y417118D01*
X51069Y417259D01*
X50977Y417393D01*
X50871Y417513D01*
X50864Y417520D01*
X50842Y417541D01*
X50807Y417569D01*
X50765Y417612D01*
X50708Y417661D01*
X50638Y417711D01*
X50553Y417767D01*
X50461Y417824D01*
X50355Y417887D01*
X50242Y417944D01*
X50122Y417993D01*
X49988Y418042D01*
X49847Y418085D01*
X49699Y418113D01*
X49536Y418134D01*
X49374Y418141D01*
X51464D01*
Y451000D01*
X74320D01*
Y325966D01*
X51464D01*
Y335144D01*
D01*
Y325966D01*
X39583D01*
Y429376D01*
X39583D01*
Y325966D01*
X18680D01*
Y451000D01*
X39583D01*
Y437320D01*
D02*
G37*
%LPC*%
G36*
X63522Y445920D02*
X53587D01*
D01*
X63522D01*
Y442983D01*
X63514Y443060D01*
X63507Y443159D01*
X63493Y443279D01*
X63479Y443413D01*
X63451Y443569D01*
X63423Y443738D01*
X63380Y443915D01*
X63324Y444098D01*
X63260Y444282D01*
X63183Y444465D01*
X63091Y444649D01*
X62985Y444826D01*
X62858Y444988D01*
X62717Y445143D01*
X62710Y445150D01*
X62681Y445179D01*
X62632Y445214D01*
X62568Y445263D01*
X62484Y445320D01*
X62378Y445391D01*
X62258Y445461D01*
X62116Y445532D01*
X61954Y445602D01*
X61778Y445673D01*
X61587Y445737D01*
X61368Y445800D01*
X61142Y445849D01*
X60888Y445885D01*
X60619Y445913D01*
X60337Y445920D01*
X60125Y444063D01*
X60132D01*
X60160D01*
X60203Y444056D01*
X60259D01*
X60330Y444049D01*
X60408Y444042D01*
X60492Y444035D01*
X60591Y444021D01*
X60782Y443992D01*
X60980Y443950D01*
X61071Y443922D01*
X61163Y443894D01*
X61241Y443858D01*
X61311Y443823D01*
X61318Y443816D01*
X61333Y443809D01*
X61361Y443788D01*
X61396Y443759D01*
X61431Y443731D01*
X61474Y443689D01*
X61523Y443639D01*
X61573Y443583D01*
X61622Y443519D01*
X61672Y443449D01*
X61714Y443371D01*
X61749Y443279D01*
X61785Y443187D01*
X61813Y443082D01*
X61827Y442976D01*
X61834Y442856D01*
Y442792D01*
X61827Y442750D01*
X61820Y442693D01*
X61813Y442630D01*
X61785Y442495D01*
X61742Y442340D01*
X61679Y442185D01*
X61636Y442114D01*
X61580Y442043D01*
X61523Y441980D01*
X61460Y441923D01*
X61453D01*
X61438Y441909D01*
X61417Y441895D01*
X61382Y441881D01*
X61340Y441860D01*
X61276Y441839D01*
X61206Y441810D01*
X61121Y441782D01*
X61029Y441761D01*
X60916Y441733D01*
X60789Y441712D01*
X60641Y441690D01*
X60485Y441676D01*
X60309Y441662D01*
X60111Y441648D01*
X59899D01*
X53587D01*
Y439678D01*
X59970D01*
X60076Y439685D01*
X60189Y439692D01*
X60323Y439699D01*
X60457Y439706D01*
X60605Y439713D01*
X60761Y439734D01*
X61071Y439770D01*
X61220Y439798D01*
X61368Y439826D01*
X61509Y439862D01*
X61636Y439897D01*
X61643D01*
X61672Y439911D01*
X61721Y439925D01*
X61778Y439953D01*
X61848Y439989D01*
X61933Y440024D01*
X62025Y440073D01*
X62130Y440130D01*
X62236Y440201D01*
X62349Y440271D01*
X62462Y440356D01*
X62575Y440455D01*
X62688Y440561D01*
X62801Y440674D01*
X62907Y440801D01*
X63006Y440935D01*
X63013Y440942D01*
X63027Y440970D01*
X63056Y441013D01*
X63084Y441069D01*
X63126Y441147D01*
X63169Y441239D01*
X63218Y441344D01*
X63260Y441465D01*
X63310Y441599D01*
X63359Y441747D01*
X63401Y441909D01*
X63444Y442086D01*
X63472Y442276D01*
X63500Y442481D01*
X63514Y442693D01*
X63522Y442919D01*
Y439678D01*
D01*
Y445920D01*
D02*
G37*
G36*
X39406D02*
X29641D01*
Y438675D01*
X31293D01*
Y443950D01*
X33454D01*
Y439043D01*
X35106D01*
Y443950D01*
X37754D01*
Y438492D01*
X39406D01*
Y445920D01*
D02*
G37*
G36*
X39583Y437320D02*
X39503D01*
X39583D01*
D01*
D02*
G37*
G36*
X51301Y445920D02*
D01*
X41536Y442121D01*
Y440031D01*
X51301Y436126D01*
X41536D01*
X51301D01*
Y445920D01*
D02*
G37*
G36*
X36229Y437320D02*
D01*
X36045Y435399D01*
X36059D01*
X36087Y435392D01*
X36137Y435378D01*
X36200Y435364D01*
X36285Y435342D01*
X36377Y435314D01*
X36476Y435286D01*
X36582Y435251D01*
X36815Y435152D01*
X36935Y435095D01*
X37055Y435032D01*
X37168Y434961D01*
X37274Y434883D01*
X37373Y434792D01*
X37464Y434700D01*
X37471Y434693D01*
X37485Y434672D01*
X37507Y434643D01*
X37535Y434601D01*
X37570Y434552D01*
X37606Y434481D01*
X37648Y434410D01*
X37690Y434319D01*
X37733Y434227D01*
X37775Y434114D01*
X37810Y434001D01*
X37846Y433874D01*
X37874Y433732D01*
X37895Y433584D01*
X37909Y433429D01*
X37916Y433266D01*
Y433175D01*
X37909Y433111D01*
X37902Y433033D01*
X37895Y432942D01*
X37881Y432836D01*
X37867Y432730D01*
X37817Y432497D01*
X37782Y432377D01*
X37747Y432257D01*
X37697Y432144D01*
X37648Y432031D01*
X37584Y431925D01*
X37514Y431833D01*
X37507Y431826D01*
X37493Y431812D01*
X37471Y431791D01*
X37443Y431755D01*
X37401Y431720D01*
X37358Y431678D01*
X37302Y431635D01*
X37245Y431586D01*
X37104Y431501D01*
X36949Y431423D01*
X36857Y431388D01*
X36772Y431367D01*
X36674Y431353D01*
X36575Y431346D01*
X36568D01*
X36560D01*
X36518D01*
X36455Y431353D01*
X36370Y431374D01*
X36278Y431395D01*
X36179Y431431D01*
X36080Y431480D01*
X35989Y431551D01*
X35974Y431558D01*
X35946Y431593D01*
X35904Y431642D01*
X35840Y431713D01*
X35777Y431812D01*
X35699Y431939D01*
X35628Y432087D01*
X35593Y432172D01*
X35558Y432264D01*
Y432271D01*
X35551Y432278D01*
X35544Y432306D01*
X35537Y432334D01*
X35522Y432384D01*
X35501Y432440D01*
X35480Y432511D01*
X35459Y432589D01*
X35431Y432687D01*
X35403Y432800D01*
X35367Y432928D01*
X35325Y433076D01*
X35282Y433238D01*
X35240Y433422D01*
X35191Y433627D01*
X35134Y433845D01*
Y433853D01*
X35127Y433867D01*
Y433888D01*
X35113Y433916D01*
X35106Y433951D01*
X35092Y433994D01*
X35064Y434100D01*
X35028Y434234D01*
X34979Y434382D01*
X34922Y434544D01*
X34866Y434714D01*
X34795Y434898D01*
X34725Y435081D01*
X34647Y435272D01*
X34562Y435448D01*
X34470Y435625D01*
X34372Y435787D01*
X34273Y435936D01*
X34167Y436070D01*
X34160Y436077D01*
X34132Y436105D01*
X34082Y436155D01*
X34025Y436211D01*
X33948Y436274D01*
X33849Y436352D01*
X33743Y436437D01*
X33616Y436515D01*
X33482Y436599D01*
X33333Y436684D01*
X33171Y436762D01*
X33002Y436825D01*
X32818Y436882D01*
X32620Y436931D01*
X32416Y436959D01*
X32204Y436967D01*
X32197D01*
X32168D01*
X32133D01*
X32077Y436959D01*
X32013Y436952D01*
X31935Y436945D01*
X31844Y436931D01*
X31745Y436917D01*
X31646Y436889D01*
X31533Y436868D01*
X31420Y436832D01*
X31300Y436790D01*
X31173Y436741D01*
X31053Y436684D01*
X30926Y436620D01*
X30806Y436550D01*
X30799Y436543D01*
X30777Y436529D01*
X30742Y436507D01*
X30700Y436472D01*
X30643Y436430D01*
X30580Y436373D01*
X30516Y436310D01*
X30438Y436239D01*
X30361Y436155D01*
X30276Y436063D01*
X30198Y435964D01*
X30114Y435858D01*
X30036Y435738D01*
X29958Y435611D01*
X29881Y435477D01*
X29817Y435328D01*
X29810Y435321D01*
X29803Y435293D01*
X29782Y435244D01*
X29761Y435187D01*
X29739Y435109D01*
X29704Y435018D01*
X29676Y434912D01*
X29641Y434792D01*
X29612Y434658D01*
X29577Y434509D01*
X29549Y434354D01*
X29528Y434184D01*
X29499Y434001D01*
X29485Y433810D01*
X29478Y433612D01*
X29471Y433408D01*
Y437320D01*
D01*
Y429376D01*
D01*
Y433281D01*
X29478Y433231D01*
Y433175D01*
X29485Y433104D01*
X29492Y432949D01*
X29513Y432772D01*
X29542Y432581D01*
X29570Y432370D01*
X29612Y432151D01*
X29669Y431925D01*
X29732Y431692D01*
X29810Y431459D01*
X29909Y431240D01*
X30015Y431021D01*
X30142Y430823D01*
X30283Y430640D01*
X30290Y430626D01*
X30318Y430597D01*
X30368Y430555D01*
X30431Y430491D01*
X30509Y430421D01*
X30608Y430343D01*
X30721Y430258D01*
X30855Y430167D01*
X30996Y430075D01*
X31159Y429990D01*
X31335Y429905D01*
X31526Y429835D01*
X31731Y429764D01*
X31950Y429715D01*
X32183Y429679D01*
X32430Y429658D01*
X32514Y431628D01*
X32507D01*
X32479Y431635D01*
X32444Y431642D01*
X32394Y431656D01*
X32331Y431671D01*
X32260Y431692D01*
X32183Y431713D01*
X32098Y431741D01*
X31921Y431819D01*
X31745Y431911D01*
X31575Y432031D01*
X31498Y432094D01*
X31434Y432172D01*
X31427Y432179D01*
X31420Y432193D01*
X31406Y432214D01*
X31385Y432250D01*
X31356Y432292D01*
X31328Y432349D01*
X31300Y432412D01*
X31265Y432483D01*
X31236Y432567D01*
X31208Y432659D01*
X31180Y432765D01*
X31152Y432878D01*
X31130Y432998D01*
X31116Y433125D01*
X31102Y433274D01*
Y433507D01*
X31109Y433563D01*
X31116Y433634D01*
X31123Y433718D01*
X31130Y433810D01*
X31145Y433916D01*
X31187Y434128D01*
X31251Y434354D01*
X31293Y434467D01*
X31342Y434573D01*
X31399Y434672D01*
X31462Y434771D01*
X31469Y434785D01*
X31505Y434820D01*
X31554Y434869D01*
X31625Y434926D01*
X31709Y434982D01*
X31808Y435032D01*
X31928Y435067D01*
X31992Y435074D01*
X32062Y435081D01*
X32070D01*
X32077D01*
X32119Y435074D01*
X32183Y435067D01*
X32267Y435046D01*
X32359Y435011D01*
X32458Y434961D01*
X32557Y434891D01*
X32656Y434792D01*
Y434785D01*
X32670Y434771D01*
X32684Y434749D01*
X32712Y434707D01*
X32740Y434658D01*
X32776Y434594D01*
X32811Y434516D01*
X32853Y434425D01*
X32903Y434311D01*
X32952Y434184D01*
X33009Y434036D01*
X33065Y433867D01*
X33129Y433676D01*
X33185Y433471D01*
X33249Y433231D01*
X33312Y432977D01*
Y432970D01*
X33319Y432963D01*
Y432942D01*
X33326Y432913D01*
X33348Y432843D01*
X33369Y432744D01*
X33404Y432624D01*
X33440Y432483D01*
X33482Y432334D01*
X33524Y432172D01*
X33581Y432002D01*
X33630Y431826D01*
X33750Y431473D01*
X33814Y431303D01*
X33884Y431141D01*
X33948Y430986D01*
X34018Y430852D01*
X34025Y430844D01*
X34033Y430823D01*
X34054Y430788D01*
X34082Y430738D01*
X34124Y430682D01*
X34167Y430611D01*
X34216Y430541D01*
X34280Y430456D01*
X34343Y430371D01*
X34421Y430287D01*
X34499Y430195D01*
X34590Y430103D01*
X34788Y429926D01*
X34901Y429849D01*
X35014Y429771D01*
X35021Y429764D01*
X35042Y429757D01*
X35078Y429736D01*
X35127Y429708D01*
X35191Y429679D01*
X35261Y429644D01*
X35346Y429609D01*
X35445Y429573D01*
X35551Y429538D01*
X35671Y429503D01*
X35798Y429468D01*
X35932Y429439D01*
X36080Y429411D01*
X36236Y429390D01*
X36398Y429383D01*
X36568Y429376D01*
X38690D01*
X36652D01*
X36709Y429383D01*
X36786Y429390D01*
X36871Y429404D01*
X36970Y429418D01*
X37076Y429432D01*
X37196Y429460D01*
X37323Y429489D01*
X37450Y429531D01*
X37584Y429573D01*
X37726Y429630D01*
X37867Y429693D01*
X38001Y429764D01*
X38142Y429849D01*
X38149Y429856D01*
X38170Y429870D01*
X38213Y429898D01*
X38262Y429934D01*
X38319Y429983D01*
X38389Y430039D01*
X38467Y430110D01*
X38552Y430188D01*
X38637Y430280D01*
X38728Y430378D01*
X38820Y430484D01*
X38905Y430604D01*
X38997Y430732D01*
X39081Y430866D01*
X39159Y431014D01*
X39230Y431169D01*
X39237Y431176D01*
X39244Y431205D01*
X39265Y431254D01*
X39286Y431325D01*
X39314Y431402D01*
X39343Y431501D01*
X39371Y431621D01*
X39406Y431748D01*
X39441Y431897D01*
X39470Y432059D01*
X39498Y432235D01*
X39526Y432419D01*
X39547Y432617D01*
X39569Y432829D01*
X39576Y433055D01*
X39583Y433288D01*
Y433415D01*
X39576Y433464D01*
Y433528D01*
X39569Y433591D01*
X39555Y433747D01*
X39540Y433930D01*
X39512Y434128D01*
X39477Y434340D01*
X39427Y434566D01*
X39371Y434799D01*
X39307Y435039D01*
X39223Y435272D01*
X39124Y435505D01*
X39011Y435731D01*
X38877Y435943D01*
X38728Y436140D01*
X38721Y436155D01*
X38686Y436183D01*
X38637Y436232D01*
X38566Y436296D01*
X38481Y436373D01*
X38368Y436465D01*
X38241Y436557D01*
X38093Y436656D01*
X37930Y436762D01*
X37740Y436861D01*
X37535Y436959D01*
X37316Y437051D01*
X37069Y437143D01*
X36808Y437214D01*
X36525Y437277D01*
X36229Y437320D01*
D02*
G37*
G36*
X63514Y437630D02*
X56277D01*
Y435759D01*
X59532D01*
X59539D01*
X59546D01*
X59567D01*
X59596D01*
X59673D01*
X59772D01*
X59885D01*
X60019Y435752D01*
X60167D01*
X60316Y435745D01*
X60634Y435738D01*
X60789Y435724D01*
X60930Y435717D01*
X61064Y435703D01*
X61184Y435695D01*
X61283Y435674D01*
X61361Y435660D01*
X61368D01*
X61375Y435653D01*
X61417Y435639D01*
X61474Y435611D01*
X61551Y435575D01*
X61636Y435519D01*
X61721Y435455D01*
X61813Y435378D01*
X61891Y435286D01*
X61898Y435272D01*
X61919Y435237D01*
X61954Y435180D01*
X61982Y435095D01*
X62018Y434996D01*
X62053Y434876D01*
X62074Y434742D01*
X62081Y434594D01*
Y434544D01*
X62074Y434509D01*
Y434474D01*
X62067Y434425D01*
X62046Y434304D01*
X62018Y434170D01*
X61968Y434029D01*
X61905Y433881D01*
X61820Y433732D01*
Y433725D01*
X61806Y433718D01*
X61792Y433697D01*
X61770Y433669D01*
X61714Y433605D01*
X61643Y433521D01*
X61544Y433436D01*
X61438Y433351D01*
X61311Y433274D01*
X61170Y433210D01*
X61163D01*
X61149Y433203D01*
X61121Y433196D01*
X61086Y433189D01*
X61036Y433175D01*
X60965Y433168D01*
X60888Y433153D01*
X60789Y433139D01*
X60669Y433125D01*
X60535Y433111D01*
X60379Y433104D01*
X60203Y433090D01*
X60005Y433083D01*
X59779Y433076D01*
X59532Y433069D01*
X59264D01*
X56277D01*
Y431198D01*
X63352D01*
Y432935D01*
X62293D01*
X62300Y432942D01*
X62321Y432956D01*
X62349Y432977D01*
X62385Y433005D01*
X62434Y433041D01*
X62491Y433090D01*
X62554Y433146D01*
X62618Y433210D01*
X62688Y433274D01*
X62766Y433351D01*
X62914Y433528D01*
X63056Y433725D01*
X63190Y433951D01*
Y433958D01*
X63204Y433980D01*
X63218Y434015D01*
X63239Y434057D01*
X63267Y434121D01*
X63296Y434184D01*
X63324Y434269D01*
X63352Y434354D01*
X63380Y434453D01*
X63409Y434552D01*
X63465Y434777D01*
X63500Y435025D01*
X63507Y435152D01*
X63514Y435286D01*
Y431198D01*
D01*
Y437630D01*
D02*
G37*
G36*
X51301Y435173D02*
X44071D01*
X44226D01*
Y433436D01*
X45236D01*
X45229Y433429D01*
X45208Y433415D01*
X45165Y433394D01*
X45123Y433358D01*
X45066Y433323D01*
X44996Y433274D01*
X44847Y433168D01*
X44692Y433047D01*
X44537Y432913D01*
X44466Y432843D01*
X44403Y432772D01*
X44346Y432701D01*
X44297Y432638D01*
Y432631D01*
X44290Y432624D01*
X44276Y432603D01*
X44261Y432574D01*
X44226Y432497D01*
X44184Y432398D01*
X44141Y432278D01*
X44106Y432144D01*
X44078Y431988D01*
X44071Y431826D01*
Y431762D01*
X44078Y431713D01*
X44085Y431656D01*
X44092Y431593D01*
X44099Y431515D01*
X44113Y431431D01*
X44156Y431240D01*
X44219Y431028D01*
X44261Y430922D01*
X44311Y430809D01*
X44367Y430696D01*
X44431Y430583D01*
D01*
X46062Y431169D01*
X46055Y431176D01*
X46048Y431190D01*
X46034Y431219D01*
X46013Y431247D01*
X45991Y431289D01*
X45963Y431339D01*
X45907Y431459D01*
X45850Y431593D01*
X45801Y431741D01*
X45766Y431897D01*
X45751Y431974D01*
Y432116D01*
X45766Y432193D01*
X45780Y432285D01*
X45808Y432391D01*
X45843Y432504D01*
X45900Y432617D01*
X45970Y432723D01*
X45977Y432737D01*
X46013Y432765D01*
X46069Y432814D01*
X46147Y432878D01*
X46260Y432942D01*
X46323Y432977D01*
X46394Y433012D01*
X46472Y433047D01*
X46556Y433083D01*
X46655Y433118D01*
X46754Y433146D01*
X46761D01*
X46782Y433153D01*
X46818Y433161D01*
X46867Y433168D01*
X46938Y433182D01*
X47029Y433196D01*
X47135Y433210D01*
X47263Y433224D01*
X47411Y433238D01*
X47580Y433252D01*
X47771Y433266D01*
X47990Y433281D01*
X48230Y433288D01*
X48498Y433295D01*
X48795Y433302D01*
X48957D01*
X49120D01*
X51301D01*
Y430583D01*
D01*
Y435173D01*
D02*
G37*
G36*
X63352Y429256D02*
X53587D01*
Y427384D01*
X63352D01*
Y429256D01*
D02*
G37*
G36*
Y425464D02*
X53587D01*
Y423593D01*
X55317D01*
Y425464D01*
X56277D01*
Y423593D01*
X63352D01*
Y425464D01*
D02*
G37*
G36*
X39406Y427716D02*
X29641D01*
Y424271D01*
X29648Y424122D01*
Y423960D01*
X29655Y423783D01*
X29662Y423593D01*
X29676Y423197D01*
X29690Y422999D01*
X29704Y422809D01*
X29718Y422632D01*
X29739Y422470D01*
X29761Y422329D01*
X29775Y422272D01*
X29789Y422216D01*
Y422209D01*
X29803Y422180D01*
X29817Y422131D01*
X29831Y422074D01*
X29859Y422004D01*
X29895Y421919D01*
X29937Y421827D01*
X29994Y421721D01*
X30050Y421615D01*
X30121Y421502D01*
X30198Y421390D01*
X30283Y421269D01*
X30382Y421149D01*
X30495Y421029D01*
X30615Y420916D01*
X30749Y420811D01*
X30756Y420803D01*
X30784Y420782D01*
X30827Y420754D01*
X30883Y420719D01*
X30954Y420676D01*
X31046Y420627D01*
X31145Y420578D01*
X31265Y420521D01*
X31392Y420471D01*
X31533Y420422D01*
X31688Y420373D01*
X31858Y420330D01*
X32041Y420288D01*
X32232Y420260D01*
X32437Y420246D01*
X32649Y420238D01*
X32733D01*
X32797Y420246D01*
X32875D01*
X32966Y420253D01*
X33065Y420267D01*
X33171Y420281D01*
X33291Y420295D01*
X33411Y420316D01*
X33665Y420380D01*
X33920Y420457D01*
X34040Y420514D01*
X34160Y420570D01*
X34167Y420578D01*
X34188Y420584D01*
X34216Y420606D01*
X34259Y420627D01*
X34315Y420662D01*
X34372Y420698D01*
X34513Y420796D01*
X34668Y420916D01*
X34824Y421058D01*
X34986Y421220D01*
X35127Y421397D01*
X35134Y421404D01*
X35141Y421418D01*
X35162Y421446D01*
X35184Y421481D01*
X35212Y421531D01*
X35240Y421580D01*
X35275Y421644D01*
X35311Y421714D01*
X35388Y421870D01*
X35466Y422039D01*
X35537Y422223D01*
X35586Y422420D01*
Y422427D01*
X35593Y422456D01*
X35600Y422491D01*
X35607Y422555D01*
X35614Y422625D01*
X35628Y422717D01*
X35642Y422816D01*
X35650Y422943D01*
X35664Y423077D01*
X35678Y423225D01*
X35692Y423395D01*
X35699Y423578D01*
X35706Y423776D01*
X35713Y423988D01*
X35720Y424221D01*
Y425746D01*
X39406D01*
Y420238D01*
D01*
D01*
Y427716D01*
D02*
G37*
G36*
X51301Y429919D02*
X44071D01*
Y419511D01*
D01*
Y421757D01*
X44078Y421700D01*
Y421637D01*
X44085Y421559D01*
X44099Y421467D01*
X44113Y421375D01*
X44149Y421171D01*
X44205Y420945D01*
X44283Y420726D01*
X44332Y420620D01*
X44389Y420514D01*
Y420507D01*
X44403Y420493D01*
X44424Y420465D01*
X44445Y420422D01*
X44480Y420380D01*
X44523Y420330D01*
X44572Y420274D01*
X44622Y420210D01*
X44685Y420147D01*
X44756Y420083D01*
X44833Y420013D01*
X44918Y419949D01*
X45003Y419885D01*
X45102Y419822D01*
X45321Y419709D01*
X45328D01*
X45342Y419702D01*
X45370Y419688D01*
X45405Y419681D01*
X45455Y419660D01*
X45518Y419645D01*
X45589Y419631D01*
X45674Y419610D01*
X45766Y419589D01*
X45879Y419575D01*
X45999Y419554D01*
X46126Y419539D01*
X46274Y419532D01*
X46429Y419518D01*
X46599Y419511D01*
X44071D01*
X51301D01*
Y421382D01*
X47263D01*
X47248D01*
X47213D01*
X47164D01*
X47093D01*
X47008Y421390D01*
X46916D01*
X46810Y421397D01*
X46698Y421404D01*
X46472Y421432D01*
X46246Y421467D01*
X46147Y421488D01*
X46055Y421517D01*
X45970Y421545D01*
X45907Y421580D01*
X45900D01*
X45893Y421594D01*
X45871Y421608D01*
X45843Y421630D01*
X45780Y421693D01*
X45702Y421778D01*
X45631Y421891D01*
X45568Y422025D01*
X45539Y422103D01*
X45518Y422187D01*
X45511Y422279D01*
X45504Y422378D01*
Y422442D01*
X45518Y422519D01*
X45532Y422618D01*
X45561Y422731D01*
X45603Y422858D01*
X45667Y422985D01*
X45744Y423120D01*
Y423127D01*
X45758Y423134D01*
X45787Y423176D01*
X45843Y423240D01*
X45921Y423310D01*
X46020Y423395D01*
X46140Y423480D01*
X46288Y423557D01*
X46450Y423621D01*
X46458D01*
X46472Y423628D01*
X46500Y423635D01*
X46535Y423642D01*
X46585Y423656D01*
X46648Y423670D01*
X46719Y423684D01*
X46803Y423691D01*
X46902Y423706D01*
X47008Y423720D01*
X47128Y423734D01*
X47263Y423748D01*
X47404Y423755D01*
X47559Y423762D01*
X47729Y423769D01*
X47912D01*
X51301D01*
Y425640D01*
X47432D01*
X47418D01*
X47390D01*
X47333D01*
X47263D01*
X47185D01*
X47093Y425647D01*
X46987D01*
X46881Y425654D01*
X46655Y425669D01*
X46436Y425683D01*
X46337Y425697D01*
X46246Y425711D01*
X46168Y425725D01*
X46104Y425746D01*
X46097D01*
X46090Y425753D01*
X46055Y425767D01*
X45999Y425789D01*
X45935Y425824D01*
X45857Y425866D01*
X45787Y425916D01*
X45716Y425979D01*
X45652Y426057D01*
X45645Y426064D01*
X45631Y426092D01*
X45603Y426142D01*
X45575Y426205D01*
X45554Y426283D01*
X45525Y426382D01*
X45511Y426495D01*
X45504Y426622D01*
Y426693D01*
X45511Y426735D01*
X45518Y426777D01*
X45532Y426883D01*
X45561Y427003D01*
X45603Y427137D01*
X45660Y427271D01*
X45737Y427406D01*
Y427413D01*
X45751Y427420D01*
X45780Y427462D01*
X45836Y427526D01*
X45907Y427596D01*
X46006Y427681D01*
X46119Y427759D01*
X46260Y427836D01*
X46415Y427900D01*
X46422D01*
X46436Y427907D01*
X46465Y427914D01*
X46500Y427921D01*
X46549Y427935D01*
X46606Y427949D01*
X46676Y427963D01*
X46761Y427971D01*
X46853Y427985D01*
X46966Y427999D01*
X47079Y428013D01*
X47213Y428027D01*
X47354Y428034D01*
X47517Y428041D01*
X47686Y428048D01*
X47870D01*
X51301D01*
Y429919D01*
D02*
G37*
G36*
X63514Y422166D02*
X56122D01*
D01*
X61368D01*
X61326Y422159D01*
X61269D01*
X61213Y422152D01*
X61142Y422145D01*
X61064Y422131D01*
X60902Y422096D01*
X60718Y422046D01*
X60535Y421976D01*
X60358Y421884D01*
X60351Y421877D01*
X60337Y421870D01*
X60316Y421856D01*
X60280Y421827D01*
X60196Y421764D01*
X60090Y421672D01*
X59977Y421559D01*
X59857Y421425D01*
X59737Y421262D01*
X59638Y421079D01*
Y421072D01*
X59624Y421058D01*
X59610Y421022D01*
X59596Y420980D01*
X59574Y420930D01*
X59546Y420867D01*
X59518Y420789D01*
X59490Y420698D01*
X59454Y420599D01*
X59419Y420493D01*
X59384Y420366D01*
X59348Y420238D01*
X59306Y420090D01*
X59271Y419935D01*
X59235Y419772D01*
X59200Y419596D01*
Y419582D01*
X59186Y419539D01*
X59179Y419469D01*
X59158Y419384D01*
X59137Y419278D01*
X59108Y419151D01*
X59080Y419017D01*
X59052Y418876D01*
X58974Y418572D01*
X58896Y418275D01*
X58861Y418134D01*
X58819Y418000D01*
X58776Y417880D01*
X58734Y417774D01*
X58551D01*
X58543D01*
X58529D01*
X58501D01*
X58466Y417781D01*
X58416D01*
X58367Y417788D01*
X58254Y417809D01*
X58127Y417838D01*
X58000Y417887D01*
X57887Y417951D01*
X57830Y417993D01*
X57788Y418042D01*
X57781Y418057D01*
X57767Y418071D01*
X57753Y418099D01*
X57731Y418127D01*
X57717Y418162D01*
X57696Y418212D01*
X57668Y418269D01*
X57647Y418332D01*
X57625Y418403D01*
X57611Y418487D01*
X57590Y418579D01*
X57576Y418678D01*
X57562Y418791D01*
X57555Y418911D01*
Y419130D01*
X57562Y419172D01*
Y419222D01*
X57576Y419328D01*
X57604Y419455D01*
X57640Y419589D01*
X57689Y419716D01*
X57753Y419829D01*
X57760Y419843D01*
X57788Y419871D01*
X57837Y419928D01*
X57915Y419984D01*
X58007Y420055D01*
X58127Y420133D01*
X58268Y420203D01*
X58438Y420274D01*
X58134Y421976D01*
X58120Y421968D01*
X58092Y421962D01*
X58035Y421947D01*
X57964Y421919D01*
X57880Y421891D01*
X57781Y421848D01*
X57675Y421799D01*
X57562Y421750D01*
X57435Y421686D01*
X57315Y421608D01*
X57188Y421531D01*
X57061Y421439D01*
X56941Y421347D01*
X56821Y421234D01*
X56715Y421121D01*
X56616Y420994D01*
X56609Y420987D01*
X56595Y420959D01*
X56573Y420916D01*
X56538Y420860D01*
X56503Y420789D01*
X56460Y420698D01*
X56411Y420592D01*
X56369Y420471D01*
X56319Y420330D01*
X56277Y420175D01*
X56234Y420005D01*
X56199Y419815D01*
X56164Y419617D01*
X56143Y419398D01*
X56129Y419158D01*
X56122Y418911D01*
Y418791D01*
X56129Y418706D01*
Y418600D01*
X56136Y418480D01*
X56143Y418346D01*
X56157Y418205D01*
X56171Y418057D01*
X56192Y417901D01*
X56249Y417591D01*
X56277Y417442D01*
X56319Y417294D01*
X56369Y417160D01*
X56418Y417040D01*
Y417033D01*
X56432Y417012D01*
X56446Y416983D01*
X56474Y416941D01*
X56503Y416892D01*
X56538Y416835D01*
X56623Y416701D01*
X56736Y416560D01*
X56863Y416418D01*
X57011Y416284D01*
X57089Y416228D01*
X57174Y416178D01*
X57181D01*
X57195Y416164D01*
X57223Y416157D01*
X57265Y416136D01*
X57315Y416122D01*
X57385Y416101D01*
X57463Y416072D01*
X57555Y416051D01*
X57661Y416030D01*
X57781Y416002D01*
X57922Y415981D01*
X58070Y415966D01*
X58240Y415945D01*
X58423Y415938D01*
X58628Y415924D01*
X58847D01*
X61029Y415952D01*
X61036D01*
X61071D01*
X61121D01*
X61184D01*
X61262D01*
X61347Y415945D01*
X61446D01*
X61551Y415938D01*
X61778Y415931D01*
X62003Y415917D01*
X62116Y415910D01*
X62222Y415896D01*
X62314Y415882D01*
X62406Y415868D01*
X62413D01*
X62427Y415861D01*
X62448D01*
X62484Y415846D01*
X62526Y415839D01*
X62575Y415825D01*
X62688Y415790D01*
X62830Y415748D01*
X62992Y415684D01*
X63169Y415613D01*
X63352Y415529D01*
D01*
Y417379D01*
X63345D01*
X63317Y417393D01*
X63274Y417407D01*
X63211Y417428D01*
X63133Y417456D01*
X63041Y417492D01*
X62928Y417527D01*
X62801Y417562D01*
X62794D01*
X62773Y417569D01*
X62745Y417576D01*
X62710Y417591D01*
X62639Y417612D01*
X62611Y417619D01*
X62583Y417626D01*
X62590Y417633D01*
X62604Y417647D01*
X62625Y417675D01*
X62660Y417711D01*
X62695Y417753D01*
X62745Y417809D01*
X62794Y417866D01*
X62844Y417937D01*
X62957Y418085D01*
X63077Y418261D01*
X63183Y418452D01*
X63281Y418657D01*
Y418664D01*
X63289Y418678D01*
X63303Y418713D01*
X63317Y418749D01*
X63338Y418805D01*
X63352Y418862D01*
X63373Y418932D01*
X63394Y419003D01*
X63423Y419088D01*
X63444Y419179D01*
X63479Y419377D01*
X63507Y419596D01*
X63514Y419822D01*
Y415529D01*
D01*
Y422166D01*
D02*
G37*
G36*
X39406Y415769D02*
X29641D01*
D01*
X39406D01*
Y413453D01*
X29641Y415769D01*
Y413749D01*
X36349Y412281D01*
X29641Y410501D01*
Y408150D01*
X36469Y406441D01*
X29641Y404944D01*
Y402953D01*
D01*
X39406Y405325D01*
Y402953D01*
D01*
Y415769D01*
D02*
G37*
G36*
X63352Y414109D02*
X56122D01*
D01*
X56277D01*
Y412372D01*
X57322D01*
X57308Y412358D01*
X57272Y412330D01*
X57209Y412281D01*
X57131Y412203D01*
X57046Y412118D01*
X56941Y412005D01*
X56835Y411878D01*
X56722Y411737D01*
X56609Y411574D01*
X56503Y411398D01*
X56397Y411207D01*
X56312Y410995D01*
X56234Y410776D01*
X56171Y410544D01*
X56136Y410296D01*
X56122Y410042D01*
Y409936D01*
X56129Y409880D01*
X56136Y409816D01*
X56143Y409746D01*
X56150Y409668D01*
X56178Y409491D01*
X56213Y409301D01*
X56270Y409103D01*
X56347Y408905D01*
Y408898D01*
X56354Y408884D01*
X56369Y408856D01*
X56390Y408821D01*
X56411Y408778D01*
X56439Y408729D01*
X56503Y408616D01*
X56588Y408489D01*
X56686Y408362D01*
X56792Y408234D01*
X56919Y408129D01*
X56926D01*
X56933Y408114D01*
X56955Y408100D01*
X56983Y408086D01*
X57053Y408037D01*
X57145Y407987D01*
X57265Y407924D01*
X57393Y407860D01*
X57541Y407811D01*
X57703Y407761D01*
X57710D01*
X57724Y407754D01*
X57745D01*
X57781Y407747D01*
X57830Y407733D01*
X57887Y407726D01*
X57950Y407719D01*
X58021Y407705D01*
X58106Y407698D01*
X58204Y407691D01*
X58303Y407677D01*
X58416Y407670D01*
X58536Y407663D01*
X58671D01*
X58812Y407655D01*
X63352D01*
Y414109D01*
D02*
G37*
G36*
X51301Y410084D02*
X44071D01*
Y403631D01*
D01*
Y405911D01*
X44078Y405855D01*
X44085Y405791D01*
X44092Y405721D01*
X44099Y405643D01*
X44127Y405466D01*
X44163Y405276D01*
X44219Y405078D01*
X44297Y404880D01*
Y404873D01*
X44304Y404859D01*
X44318Y404831D01*
X44339Y404796D01*
X44360Y404753D01*
X44389Y404704D01*
X44452Y404591D01*
X44537Y404464D01*
X44636Y404337D01*
X44742Y404210D01*
X44869Y404104D01*
X44876D01*
X44883Y404090D01*
X44904Y404075D01*
X44932Y404061D01*
X45003Y404012D01*
X45095Y403963D01*
X45215Y403899D01*
X45342Y403835D01*
X45490Y403786D01*
X45652Y403736D01*
X45660D01*
X45674Y403729D01*
X45695D01*
X45730Y403722D01*
X45780Y403708D01*
X45836Y403701D01*
X45900Y403694D01*
X45970Y403680D01*
X46055Y403673D01*
X46154Y403666D01*
X46253Y403652D01*
X46366Y403645D01*
X46486Y403638D01*
X46620D01*
X46761Y403631D01*
X51301D01*
Y405502D01*
X47700D01*
X47686D01*
X47651D01*
X47594D01*
X47517D01*
X47425Y405509D01*
X47319D01*
X47206D01*
X47086Y405516D01*
X46832Y405530D01*
X46712Y405544D01*
X46592Y405558D01*
X46479Y405572D01*
X46373Y405587D01*
X46288Y405608D01*
X46217Y405629D01*
X46210D01*
X46203Y405636D01*
X46161Y405650D01*
X46097Y405678D01*
X46027Y405721D01*
X45942Y405777D01*
X45850Y405841D01*
X45773Y405925D01*
X45695Y406017D01*
X45688Y406031D01*
X45667Y406067D01*
X45631Y406123D01*
X45596Y406201D01*
X45568Y406293D01*
X45532Y406406D01*
X45511Y406533D01*
X45504Y406667D01*
Y406716D01*
X45511Y406752D01*
Y406794D01*
X45518Y406843D01*
X45539Y406956D01*
X45568Y407098D01*
X45617Y407239D01*
X45681Y407394D01*
X45773Y407542D01*
Y407550D01*
X45787Y407557D01*
X45801Y407578D01*
X45822Y407606D01*
X45879Y407670D01*
X45963Y407754D01*
X46062Y407839D01*
X46182Y407931D01*
X46323Y408008D01*
X46479Y408072D01*
X46486D01*
X46500Y408079D01*
X46528Y408086D01*
X46563Y408093D01*
X46613Y408107D01*
X46676Y408114D01*
X46754Y408129D01*
X46846Y408143D01*
X46952Y408157D01*
X47065Y408171D01*
X47199Y408178D01*
X47347Y408192D01*
X47510Y408199D01*
X47693Y408206D01*
X47891Y408213D01*
X48103D01*
X51301D01*
Y410084D01*
D02*
G37*
G36*
X39406Y401957D02*
X29641D01*
Y400086D01*
X31370D01*
Y401957D01*
X32331D01*
Y400086D01*
X39406D01*
Y401957D01*
D02*
G37*
G36*
Y399097D02*
X29641D01*
D01*
X39406D01*
Y396781D01*
X29641Y399097D01*
Y397078D01*
X36349Y395609D01*
X29641Y393830D01*
Y391478D01*
X36469Y389770D01*
X29641Y388273D01*
Y386281D01*
D01*
X39406Y388654D01*
Y386281D01*
D01*
Y399097D01*
D02*
G37*
G36*
X63529Y402451D02*
X53417D01*
D01*
X60175D01*
X59991Y400531D01*
X60005D01*
X60033Y400524D01*
X60083Y400509D01*
X60146Y400495D01*
X60231Y400474D01*
X60323Y400446D01*
X60422Y400418D01*
X60528Y400382D01*
X60761Y400284D01*
X60881Y400227D01*
X61001Y400163D01*
X61114Y400093D01*
X61220Y400015D01*
X61318Y399924D01*
X61410Y399832D01*
X61417Y399825D01*
X61431Y399803D01*
X61453Y399775D01*
X61481Y399733D01*
X61516Y399683D01*
X61551Y399613D01*
X61594Y399542D01*
X61636Y399450D01*
X61679Y399359D01*
X61721Y399246D01*
X61756Y399133D01*
X61792Y399006D01*
X61820Y398864D01*
X61841Y398716D01*
X61855Y398561D01*
X61862Y398398D01*
Y398306D01*
X61855Y398243D01*
X61848Y398165D01*
X61841Y398073D01*
X61827Y397967D01*
X61813Y397862D01*
X61763Y397629D01*
X61728Y397509D01*
X61693Y397388D01*
X61643Y397276D01*
X61594Y397163D01*
X61530Y397057D01*
X61460Y396965D01*
X61453Y396958D01*
X61438Y396944D01*
X61417Y396922D01*
X61389Y396887D01*
X61347Y396852D01*
X61304Y396810D01*
X61248Y396767D01*
X61191Y396718D01*
X61050Y396633D01*
X60895Y396555D01*
X60803Y396520D01*
X60718Y396499D01*
X60619Y396485D01*
X60521Y396478D01*
X60514D01*
X60507D01*
X60464D01*
X60401Y396485D01*
X60316Y396506D01*
X60224Y396527D01*
X60125Y396562D01*
X60026Y396612D01*
X59935Y396682D01*
X59920Y396689D01*
X59892Y396725D01*
X59850Y396774D01*
X59786Y396845D01*
X59723Y396944D01*
X59645Y397071D01*
X59574Y397219D01*
X59539Y397304D01*
X59504Y397396D01*
Y397403D01*
X59497Y397410D01*
X59490Y397438D01*
X59483Y397466D01*
X59468Y397516D01*
X59447Y397572D01*
X59426Y397643D01*
X59405Y397720D01*
X59377Y397819D01*
X59348Y397932D01*
X59313Y398059D01*
X59271Y398208D01*
X59228Y398370D01*
X59186Y398554D01*
X59137Y398758D01*
X59080Y398977D01*
Y398984D01*
X59073Y398998D01*
Y399020D01*
X59059Y399048D01*
X59052Y399083D01*
X59038Y399126D01*
X59009Y399231D01*
X58974Y399366D01*
X58925Y399514D01*
X58868Y399676D01*
X58812Y399846D01*
X58741Y400029D01*
X58671Y400213D01*
X58593Y400404D01*
X58508Y400580D01*
X58416Y400757D01*
X58317Y400919D01*
X58219Y401067D01*
X58113Y401202D01*
X58106Y401209D01*
X58077Y401237D01*
X58028Y401286D01*
X57972Y401343D01*
X57894Y401406D01*
X57795Y401484D01*
X57689Y401569D01*
X57562Y401646D01*
X57428Y401731D01*
X57280Y401816D01*
X57117Y401894D01*
X56948Y401957D01*
X56764Y402014D01*
X56566Y402063D01*
X56361Y402091D01*
X56150Y402098D01*
X56143D01*
X56114D01*
X56079D01*
X56023Y402091D01*
X55959Y402084D01*
X55881Y402077D01*
X55790Y402063D01*
X55691Y402049D01*
X55592Y402021D01*
X55479Y401999D01*
X55366Y401964D01*
X55246Y401922D01*
X55119Y401872D01*
X54999Y401816D01*
X54872Y401752D01*
X54752Y401682D01*
X54745Y401675D01*
X54723Y401660D01*
X54688Y401639D01*
X54646Y401604D01*
X54589Y401562D01*
X54526Y401505D01*
X54462Y401442D01*
X54384Y401371D01*
X54307Y401286D01*
X54222Y401194D01*
X54144Y401096D01*
X54060Y400990D01*
X53982Y400870D01*
X53904Y400743D01*
X53827Y400608D01*
X53763Y400460D01*
X53756Y400453D01*
X53749Y400425D01*
X53728Y400375D01*
X53706Y400319D01*
X53685Y400241D01*
X53650Y400149D01*
X53622Y400043D01*
X53587Y399924D01*
X53558Y399789D01*
X53523Y399641D01*
X53495Y399486D01*
X53474Y399316D01*
X53445Y399133D01*
X53431Y398942D01*
X53424Y398744D01*
X53417Y398540D01*
Y398412D01*
X53424Y398363D01*
Y398306D01*
X53431Y398236D01*
X53438Y398080D01*
X53459Y397904D01*
X53488Y397713D01*
X53516Y397501D01*
X53558Y397283D01*
X53615Y397057D01*
X53678Y396824D01*
X53756Y396591D01*
X53855Y396372D01*
X53961Y396153D01*
X54088Y395955D01*
X54229Y395771D01*
X54236Y395757D01*
X54264Y395729D01*
X54314Y395687D01*
X54377Y395623D01*
X54455Y395553D01*
X54554Y395475D01*
X54667Y395390D01*
X54801Y395298D01*
X54942Y395207D01*
X55105Y395122D01*
X55281Y395037D01*
X55472Y394967D01*
X55677Y394896D01*
X55896Y394846D01*
X56129Y394811D01*
X56376Y394790D01*
X56460Y396760D01*
X56453D01*
X56425Y396767D01*
X56390Y396774D01*
X56340Y396788D01*
X56277Y396802D01*
X56206Y396824D01*
X56129Y396845D01*
X56044Y396873D01*
X55867Y396951D01*
X55691Y397043D01*
X55521Y397163D01*
X55444Y397226D01*
X55380Y397304D01*
X55373Y397311D01*
X55366Y397325D01*
X55352Y397346D01*
X55331Y397381D01*
X55302Y397424D01*
X55274Y397480D01*
X55246Y397544D01*
X55211Y397614D01*
X55182Y397699D01*
X55154Y397791D01*
X55126Y397897D01*
X55098Y398010D01*
X55076Y398130D01*
X55062Y398257D01*
X55048Y398405D01*
Y398638D01*
X55055Y398695D01*
X55062Y398765D01*
X55069Y398850D01*
X55076Y398942D01*
X55090Y399048D01*
X55133Y399260D01*
X55196Y399486D01*
X55239Y399599D01*
X55288Y399705D01*
X55345Y399803D01*
X55408Y399902D01*
X55415Y399916D01*
X55451Y399952D01*
X55500Y400001D01*
X55571Y400058D01*
X55655Y400114D01*
X55754Y400163D01*
X55874Y400199D01*
X55938Y400206D01*
X56009Y400213D01*
X56016D01*
X56023D01*
X56065Y400206D01*
X56129Y400199D01*
X56213Y400178D01*
X56305Y400142D01*
X56404Y400093D01*
X56503Y400022D01*
X56602Y399924D01*
Y399916D01*
X56616Y399902D01*
X56630Y399881D01*
X56658Y399839D01*
X56686Y399789D01*
X56722Y399726D01*
X56757Y399648D01*
X56799Y399556D01*
X56849Y399443D01*
X56898Y399316D01*
X56955Y399168D01*
X57011Y398998D01*
X57075Y398808D01*
X57131Y398603D01*
X57195Y398363D01*
X57258Y398109D01*
Y398102D01*
X57265Y398095D01*
Y398073D01*
X57272Y398045D01*
X57294Y397975D01*
X57315Y397876D01*
X57350Y397756D01*
X57385Y397614D01*
X57428Y397466D01*
X57470Y397304D01*
X57527Y397134D01*
X57576Y396958D01*
X57696Y396605D01*
X57760Y396435D01*
X57830Y396273D01*
X57894Y396118D01*
X57964Y395983D01*
X57972Y395976D01*
X57979Y395955D01*
X58000Y395920D01*
X58028Y395870D01*
X58070Y395814D01*
X58113Y395743D01*
X58162Y395673D01*
X58226Y395588D01*
X58289Y395503D01*
X58367Y395418D01*
X58445Y395327D01*
X58536Y395235D01*
X58734Y395058D01*
X58847Y394981D01*
X58960Y394903D01*
X58967Y394896D01*
X58988Y394889D01*
X59024Y394868D01*
X59073Y394839D01*
X59137Y394811D01*
X59207Y394776D01*
X59292Y394740D01*
X59391Y394705D01*
X59497Y394670D01*
X59617Y394635D01*
X59744Y394599D01*
X59878Y394571D01*
X60026Y394543D01*
X60182Y394522D01*
X60344Y394515D01*
X60514Y394507D01*
X60598D01*
X60655Y394515D01*
X60732Y394522D01*
X60817Y394536D01*
X60916Y394550D01*
X61022Y394564D01*
X61142Y394592D01*
X61269Y394621D01*
X61396Y394663D01*
X61530Y394705D01*
X61672Y394762D01*
X61813Y394825D01*
X61947Y394896D01*
X62088Y394981D01*
X62095Y394988D01*
X62116Y395002D01*
X62159Y395030D01*
X62208Y395065D01*
X62265Y395115D01*
X62335Y395171D01*
X62413Y395242D01*
X62498Y395320D01*
X62583Y395411D01*
X62674Y395510D01*
X62766Y395616D01*
X62851Y395736D01*
X62943Y395863D01*
X63027Y395997D01*
X63105Y396146D01*
X63176Y396301D01*
X63183Y396308D01*
X63190Y396336D01*
X63211Y396386D01*
X63232Y396456D01*
X63260Y396534D01*
X63289Y396633D01*
X63317Y396753D01*
X63352Y396880D01*
X63387Y397028D01*
X63416Y397191D01*
X63444Y397367D01*
X63472Y397551D01*
X63493Y397749D01*
X63514Y397960D01*
X63522Y398186D01*
X63529Y398419D01*
Y394507D01*
D01*
Y402451D01*
D02*
G37*
G36*
X51464Y411504D02*
D01*
Y402155D01*
X41536D01*
D01*
X47623D01*
X47573Y402148D01*
X47510D01*
X47446Y402141D01*
X47298Y402127D01*
X47128Y402112D01*
X46938Y402084D01*
X46726Y402049D01*
X46514Y402006D01*
X46288Y401950D01*
X46062Y401879D01*
X45836Y401802D01*
X45610Y401703D01*
X45398Y401590D01*
X45194Y401463D01*
X45010Y401315D01*
X44996Y401307D01*
X44968Y401272D01*
X44925Y401230D01*
X44862Y401159D01*
X44791Y401082D01*
X44713Y400976D01*
X44629Y400863D01*
X44537Y400728D01*
X44452Y400580D01*
X44367Y400418D01*
X44290Y400241D01*
X44219Y400058D01*
X44156Y399853D01*
X44113Y399641D01*
X44078Y399415D01*
X44071Y399175D01*
Y399126D01*
X44078Y399062D01*
X44085Y398977D01*
X44099Y398871D01*
X44120Y398751D01*
X44156Y398617D01*
X44191Y398476D01*
X44247Y398313D01*
X44311Y398151D01*
X44389Y397982D01*
X44487Y397805D01*
X44600Y397629D01*
X44735Y397459D01*
X44883Y397290D01*
X45059Y397120D01*
X41536D01*
Y395249D01*
X51301D01*
Y396986D01*
X50264D01*
X50271Y396993D01*
X50292Y397007D01*
X50320Y397028D01*
X50362Y397064D01*
X50412Y397106D01*
X50468Y397155D01*
X50532Y397212D01*
X50602Y397276D01*
X50751Y397431D01*
X50899Y397607D01*
X51040Y397805D01*
X51111Y397904D01*
X51167Y398017D01*
Y398024D01*
X51181Y398045D01*
X51196Y398073D01*
X51217Y398116D01*
X51238Y398172D01*
X51259Y398236D01*
X51287Y398306D01*
X51316Y398384D01*
X51372Y398561D01*
X51414Y398765D01*
X51450Y398977D01*
X51464Y399203D01*
Y399260D01*
X51457Y399323D01*
X51450Y399408D01*
X51436Y399514D01*
X51414Y399634D01*
X51379Y399768D01*
X51344Y399916D01*
X51287Y400079D01*
X51224Y400248D01*
X51146Y400418D01*
X51047Y400594D01*
X50934Y400771D01*
X50807Y400947D01*
X50652Y401117D01*
X50482Y401286D01*
X50468Y401293D01*
X50440Y401322D01*
X50377Y401364D01*
X50299Y401420D01*
X50200Y401484D01*
X50080Y401562D01*
X49939Y401639D01*
X49769Y401717D01*
X49586Y401802D01*
X49381Y401879D01*
X49155Y401950D01*
X48915Y402021D01*
X48646Y402077D01*
X48364Y402119D01*
X48060Y402148D01*
X47743Y402155D01*
X51464D01*
Y411504D01*
D02*
G37*
G36*
X63514Y393639D02*
X53770D01*
D01*
X56277D01*
Y392777D01*
X54872D01*
X53770Y390906D01*
D01*
X56277D01*
Y389628D01*
X57767D01*
Y390906D01*
X60627D01*
X60634D01*
X60662D01*
X60704D01*
X60761D01*
X60831D01*
X60909D01*
X61078Y390899D01*
X61248D01*
X61333Y390892D01*
X61417D01*
X61488Y390885D01*
X61551D01*
X61601Y390878D01*
X61636Y390871D01*
X61643D01*
X61657Y390864D01*
X61686Y390850D01*
X61721Y390836D01*
X61756Y390815D01*
X61792Y390786D01*
X61834Y390751D01*
X61869Y390709D01*
X61876Y390701D01*
X61883Y390687D01*
X61898Y390659D01*
X61912Y390617D01*
X61933Y390574D01*
X61947Y390518D01*
X61954Y390454D01*
X61961Y390391D01*
Y390341D01*
X61954Y390285D01*
X61940Y390200D01*
X61919Y390094D01*
X61883Y389960D01*
X61841Y389812D01*
X61785Y389635D01*
X63239Y389473D01*
D01*
Y389480D01*
X63253Y389501D01*
X63267Y389536D01*
X63281Y389586D01*
X63303Y389649D01*
X63324Y389727D01*
X63352Y389812D01*
X63373Y389904D01*
X63401Y390009D01*
X63430Y390122D01*
X63451Y390243D01*
X63472Y390377D01*
X63500Y390652D01*
X63514Y390956D01*
Y389473D01*
D01*
Y393639D01*
D02*
G37*
G36*
X51464Y395249D02*
D01*
Y393837D01*
X44071D01*
Y386535D01*
D01*
Y390122D01*
X44078Y390087D01*
Y390038D01*
X44085Y389925D01*
X44099Y389791D01*
X44127Y389628D01*
X44156Y389452D01*
X44198Y389261D01*
X44254Y389056D01*
X44325Y388844D01*
X44410Y388633D01*
X44509Y388407D01*
X44629Y388188D01*
X44770Y387976D01*
X44932Y387764D01*
X45116Y387566D01*
X45130Y387552D01*
X45165Y387524D01*
X45222Y387467D01*
X45307Y387404D01*
X45405Y387326D01*
X45532Y387242D01*
X45674Y387150D01*
X45836Y387051D01*
X46020Y386952D01*
X46217Y386860D01*
X46436Y386776D01*
X46669Y386698D01*
X46916Y386627D01*
X47178Y386578D01*
X47460Y386549D01*
X47750Y386535D01*
X47820D01*
X47856Y386543D01*
X47905D01*
X48018Y386549D01*
X48152Y386564D01*
X48315Y386592D01*
X48491Y386620D01*
X48682Y386662D01*
X48886Y386719D01*
X49105Y386790D01*
X49324Y386874D01*
X49550Y386973D01*
X49769Y387093D01*
X49995Y387227D01*
X50207Y387390D01*
X50412Y387573D01*
X50426Y387588D01*
X50454Y387623D01*
X50511Y387679D01*
X50574Y387757D01*
X50659Y387863D01*
X50744Y387983D01*
X50842Y388124D01*
X50934Y388287D01*
X51033Y388470D01*
X51132Y388668D01*
X51217Y388880D01*
X51301Y389113D01*
X51365Y389360D01*
X51421Y389621D01*
X51450Y389897D01*
X51464Y390186D01*
Y390278D01*
X51457Y390349D01*
X51450Y390440D01*
X51443Y390539D01*
X51429Y390652D01*
X51407Y390779D01*
X51386Y390913D01*
X51358Y391062D01*
X51323Y391217D01*
X51280Y391372D01*
X51231Y391535D01*
X51167Y391704D01*
X51104Y391867D01*
X51026Y392036D01*
X51019Y392043D01*
X51005Y392071D01*
X50977Y392121D01*
X50941Y392184D01*
X50899Y392255D01*
X50842Y392340D01*
X50779Y392431D01*
X50701Y392537D01*
X50616Y392643D01*
X50518Y392749D01*
X50412Y392862D01*
X50299Y392975D01*
X50172Y393081D01*
X50037Y393187D01*
X49896Y393286D01*
X49741Y393378D01*
X49734Y393385D01*
X49699Y393399D01*
X49656Y393420D01*
X49586Y393448D01*
X49508Y393484D01*
X49409Y393526D01*
X49289Y393561D01*
X49162Y393604D01*
X49021Y393653D01*
X48858Y393688D01*
X48689Y393731D01*
X48505Y393766D01*
X48315Y393794D01*
X48110Y393815D01*
X47898Y393830D01*
X47672Y393837D01*
X51464D01*
Y395249D01*
D02*
G37*
G36*
X39406Y385286D02*
X29641D01*
Y383414D01*
X31370D01*
Y385286D01*
X32331D01*
Y383414D01*
X39406D01*
Y385286D01*
D02*
G37*
G36*
X63522Y385279D02*
X53587D01*
D01*
X60337D01*
X60125Y383421D01*
X60132D01*
X60160D01*
X60203Y383414D01*
X60259D01*
X60330Y383407D01*
X60408Y383400D01*
X60492Y383393D01*
X60591Y383379D01*
X60782Y383351D01*
X60980Y383308D01*
X61071Y383280D01*
X61163Y383252D01*
X61241Y383217D01*
X61311Y383181D01*
X61318Y383174D01*
X61333Y383167D01*
X61361Y383146D01*
X61396Y383118D01*
X61431Y383090D01*
X61474Y383047D01*
X61523Y382998D01*
X61573Y382941D01*
X61622Y382878D01*
X61672Y382807D01*
X61714Y382729D01*
X61749Y382638D01*
X61785Y382546D01*
X61813Y382440D01*
X61827Y382334D01*
X61834Y382214D01*
Y382150D01*
X61827Y382108D01*
X61820Y382052D01*
X61813Y381988D01*
X61785Y381854D01*
X61742Y381698D01*
X61679Y381543D01*
X61636Y381473D01*
X61580Y381402D01*
X61523Y381338D01*
X61460Y381282D01*
X61453D01*
X61438Y381268D01*
X61417Y381254D01*
X61382Y381240D01*
X61340Y381218D01*
X61276Y381197D01*
X61206Y381169D01*
X61121Y381141D01*
X61029Y381119D01*
X60916Y381091D01*
X60789Y381070D01*
X60641Y381049D01*
X60485Y381035D01*
X60309Y381021D01*
X60111Y381007D01*
X59899D01*
X53587D01*
Y379036D01*
X59970D01*
X60076Y379044D01*
X60189Y379050D01*
X60323Y379058D01*
X60457Y379065D01*
X60605Y379072D01*
X60761Y379093D01*
X61071Y379128D01*
X61220Y379156D01*
X61368Y379185D01*
X61509Y379220D01*
X61636Y379255D01*
X61643D01*
X61672Y379269D01*
X61721Y379284D01*
X61778Y379312D01*
X61848Y379347D01*
X61933Y379382D01*
X62025Y379432D01*
X62130Y379488D01*
X62236Y379559D01*
X62349Y379630D01*
X62462Y379714D01*
X62575Y379813D01*
X62688Y379919D01*
X62801Y380032D01*
X62907Y380159D01*
X63006Y380293D01*
X63013Y380300D01*
X63027Y380329D01*
X63056Y380371D01*
X63084Y380428D01*
X63126Y380505D01*
X63169Y380597D01*
X63218Y380703D01*
X63260Y380823D01*
X63310Y380957D01*
X63359Y381105D01*
X63401Y381268D01*
X63444Y381444D01*
X63472Y381635D01*
X63500Y381840D01*
X63514Y382052D01*
X63522Y382277D01*
Y379036D01*
D01*
Y385279D01*
D02*
G37*
G36*
X39406Y378683D02*
X29641D01*
D01*
X39406D01*
Y375202D01*
X29641Y378683D01*
Y376551D01*
X36871Y374080D01*
X29641Y371693D01*
Y369596D01*
D01*
X39406Y373077D01*
Y369596D01*
D01*
Y378683D01*
D02*
G37*
G36*
X51301Y381261D02*
X41536D01*
Y377815D01*
X41543Y377667D01*
Y377504D01*
X41550Y377328D01*
X41557Y377137D01*
X41571Y376741D01*
X41585Y376544D01*
X41599Y376353D01*
X41613Y376177D01*
X41635Y376014D01*
X41656Y375873D01*
X41670Y375816D01*
X41684Y375760D01*
Y375753D01*
X41698Y375725D01*
X41712Y375675D01*
X41726Y375619D01*
X41755Y375548D01*
X41790Y375463D01*
X41832Y375372D01*
X41889Y375266D01*
X41945Y375160D01*
X42016Y375047D01*
X42094Y374934D01*
X42178Y374814D01*
X42277Y374694D01*
X42390Y374574D01*
X42510Y374461D01*
X42644Y374355D01*
X42652Y374348D01*
X42680Y374327D01*
X42722Y374298D01*
X42779Y374263D01*
X42849Y374221D01*
X42941Y374171D01*
X43040Y374122D01*
X43160Y374065D01*
X43287Y374016D01*
X43428Y373966D01*
X43584Y373917D01*
X43753Y373875D01*
X43937Y373832D01*
X44127Y373804D01*
X44332Y373790D01*
X44544Y373783D01*
X44629D01*
X44692Y373790D01*
X44770D01*
X44862Y373797D01*
X44960Y373811D01*
X45066Y373825D01*
X45187Y373839D01*
X45307Y373861D01*
X45561Y373924D01*
X45815Y374002D01*
X45935Y374058D01*
X46055Y374115D01*
X46062Y374122D01*
X46083Y374129D01*
X46111Y374150D01*
X46154Y374171D01*
X46210Y374207D01*
X46267Y374242D01*
X46408Y374341D01*
X46563Y374461D01*
X46719Y374602D01*
X46881Y374764D01*
X47022Y374941D01*
X47029Y374948D01*
X47036Y374962D01*
X47058Y374990D01*
X47079Y375026D01*
X47107Y375075D01*
X47135Y375125D01*
X47171Y375188D01*
X47206Y375259D01*
X47284Y375414D01*
X47361Y375583D01*
X47432Y375767D01*
X47481Y375965D01*
Y375972D01*
X47488Y376000D01*
X47495Y376035D01*
X47502Y376099D01*
X47510Y376170D01*
X47524Y376261D01*
X47538Y376360D01*
X47545Y376487D01*
X47559Y376622D01*
X47573Y376770D01*
X47587Y376939D01*
X47594Y377123D01*
X47601Y377321D01*
X47608Y377532D01*
X47615Y377765D01*
Y379291D01*
X51301D01*
Y373783D01*
D01*
Y381261D01*
D02*
G37*
G36*
X63514Y377441D02*
X56122D01*
D01*
X61368D01*
X61326Y377434D01*
X61269D01*
X61213Y377426D01*
X61142Y377419D01*
X61064Y377405D01*
X60902Y377370D01*
X60718Y377321D01*
X60535Y377250D01*
X60358Y377158D01*
X60351Y377151D01*
X60337Y377144D01*
X60316Y377130D01*
X60280Y377102D01*
X60196Y377038D01*
X60090Y376946D01*
X59977Y376833D01*
X59857Y376699D01*
X59737Y376537D01*
X59638Y376353D01*
Y376346D01*
X59624Y376332D01*
X59610Y376297D01*
X59596Y376254D01*
X59574Y376205D01*
X59546Y376141D01*
X59518Y376064D01*
X59490Y375972D01*
X59454Y375873D01*
X59419Y375767D01*
X59384Y375640D01*
X59348Y375513D01*
X59306Y375365D01*
X59271Y375209D01*
X59235Y375047D01*
X59200Y374870D01*
Y374856D01*
X59186Y374814D01*
X59179Y374743D01*
X59158Y374659D01*
X59137Y374553D01*
X59108Y374426D01*
X59080Y374291D01*
X59052Y374150D01*
X58974Y373846D01*
X58896Y373550D01*
X58861Y373409D01*
X58819Y373274D01*
X58776Y373154D01*
X58734Y373049D01*
X58551D01*
X58543D01*
X58529D01*
X58501D01*
X58466Y373056D01*
X58416D01*
X58367Y373063D01*
X58254Y373084D01*
X58127Y373112D01*
X58000Y373162D01*
X57887Y373225D01*
X57830Y373267D01*
X57788Y373317D01*
X57781Y373331D01*
X57767Y373345D01*
X57753Y373373D01*
X57731Y373402D01*
X57717Y373437D01*
X57696Y373486D01*
X57668Y373543D01*
X57647Y373606D01*
X57625Y373677D01*
X57611Y373762D01*
X57590Y373853D01*
X57576Y373952D01*
X57562Y374065D01*
X57555Y374185D01*
Y374404D01*
X57562Y374447D01*
Y374496D01*
X57576Y374602D01*
X57604Y374729D01*
X57640Y374863D01*
X57689Y374990D01*
X57753Y375103D01*
X57760Y375117D01*
X57788Y375146D01*
X57837Y375202D01*
X57915Y375259D01*
X58007Y375329D01*
X58127Y375407D01*
X58268Y375478D01*
X58438Y375548D01*
X58134Y377250D01*
X58120Y377243D01*
X58092Y377236D01*
X58035Y377222D01*
X57964Y377193D01*
X57880Y377165D01*
X57781Y377123D01*
X57675Y377073D01*
X57562Y377024D01*
X57435Y376960D01*
X57315Y376883D01*
X57188Y376805D01*
X57061Y376713D01*
X56941Y376622D01*
X56821Y376508D01*
X56715Y376395D01*
X56616Y376268D01*
X56609Y376261D01*
X56595Y376233D01*
X56573Y376191D01*
X56538Y376134D01*
X56503Y376064D01*
X56460Y375972D01*
X56411Y375866D01*
X56369Y375746D01*
X56319Y375605D01*
X56277Y375449D01*
X56234Y375280D01*
X56199Y375089D01*
X56164Y374892D01*
X56143Y374673D01*
X56129Y374432D01*
X56122Y374185D01*
Y374065D01*
X56129Y373981D01*
Y373875D01*
X56136Y373755D01*
X56143Y373620D01*
X56157Y373479D01*
X56171Y373331D01*
X56192Y373176D01*
X56249Y372865D01*
X56277Y372717D01*
X56319Y372568D01*
X56369Y372434D01*
X56418Y372314D01*
Y372307D01*
X56432Y372286D01*
X56446Y372258D01*
X56474Y372215D01*
X56503Y372166D01*
X56538Y372109D01*
X56623Y371975D01*
X56736Y371834D01*
X56863Y371693D01*
X57011Y371559D01*
X57089Y371502D01*
X57174Y371453D01*
X57181D01*
X57195Y371439D01*
X57223Y371432D01*
X57265Y371410D01*
X57315Y371396D01*
X57385Y371375D01*
X57463Y371347D01*
X57555Y371326D01*
X57661Y371304D01*
X57781Y371276D01*
X57922Y371255D01*
X58070Y371241D01*
X58240Y371220D01*
X58423Y371213D01*
X58628Y371199D01*
X58847D01*
X61029Y371227D01*
X61036D01*
X61071D01*
X61121D01*
X61184D01*
X61262D01*
X61347Y371220D01*
X61446D01*
X61551Y371213D01*
X61778Y371206D01*
X62003Y371191D01*
X62116Y371184D01*
X62222Y371170D01*
X62314Y371156D01*
X62406Y371142D01*
X62413D01*
X62427Y371135D01*
X62448D01*
X62484Y371121D01*
X62526Y371114D01*
X62575Y371100D01*
X62688Y371064D01*
X62830Y371022D01*
X62992Y370958D01*
X63169Y370888D01*
X63352Y370803D01*
D01*
Y372653D01*
X63345D01*
X63317Y372667D01*
X63274Y372681D01*
X63211Y372702D01*
X63133Y372731D01*
X63041Y372766D01*
X62928Y372801D01*
X62801Y372837D01*
X62794D01*
X62773Y372844D01*
X62745Y372851D01*
X62710Y372865D01*
X62639Y372886D01*
X62611Y372893D01*
X62583Y372900D01*
X62590Y372907D01*
X62604Y372921D01*
X62625Y372950D01*
X62660Y372985D01*
X62695Y373027D01*
X62745Y373084D01*
X62794Y373140D01*
X62844Y373211D01*
X62957Y373359D01*
X63077Y373536D01*
X63183Y373726D01*
X63281Y373931D01*
Y373938D01*
X63289Y373952D01*
X63303Y373988D01*
X63317Y374023D01*
X63338Y374080D01*
X63352Y374136D01*
X63373Y374207D01*
X63394Y374277D01*
X63423Y374362D01*
X63444Y374454D01*
X63479Y374651D01*
X63507Y374870D01*
X63514Y375096D01*
Y370803D01*
D01*
Y377441D01*
D02*
G37*
G36*
X51301Y372173D02*
X41536D01*
Y370302D01*
X43266D01*
Y372173D01*
X44226D01*
Y370302D01*
X51301D01*
Y372173D01*
D02*
G37*
G36*
Y366510D02*
Y366496D01*
D01*
Y366510D01*
D02*
G37*
G36*
Y366319D02*
Y366298D01*
D01*
Y366319D01*
D02*
G37*
G36*
X39406Y368501D02*
X29598D01*
D01*
X32070D01*
Y368494D01*
X32055Y368466D01*
X32041Y368430D01*
X32020Y368374D01*
X31992Y368303D01*
X31964Y368226D01*
X31921Y368134D01*
X31872Y368028D01*
X31808Y367915D01*
X31745Y367795D01*
X31674Y367668D01*
X31589Y367527D01*
X31498Y367385D01*
X31399Y367230D01*
X31286Y367075D01*
X31166Y366919D01*
X31159Y366912D01*
X31137Y366884D01*
X31095Y366835D01*
X31046Y366778D01*
X30982Y366708D01*
X30905Y366630D01*
X30820Y366538D01*
X30721Y366446D01*
X30608Y366348D01*
X30488Y366249D01*
X30361Y366150D01*
X30220Y366058D01*
X30078Y365966D01*
X29923Y365874D01*
X29761Y365797D01*
X29598Y365733D01*
Y364215D01*
X39406D01*
Y368501D01*
D02*
G37*
G36*
X51301Y363841D02*
Y363834D01*
D01*
Y363841D01*
D02*
G37*
G36*
Y368402D02*
X44071D01*
D01*
X44226D01*
Y366665D01*
X45271D01*
X45257Y366651D01*
X45222Y366623D01*
X45158Y366573D01*
X45081Y366496D01*
X44996Y366411D01*
X44890Y366298D01*
X44784Y366171D01*
X44671Y366030D01*
X44558Y365867D01*
X44452Y365691D01*
X44346Y365500D01*
X44261Y365288D01*
X44184Y365069D01*
X44120Y364836D01*
X44085Y364589D01*
X44071Y364335D01*
Y364229D01*
X44078Y364173D01*
X44085Y364109D01*
X44092Y364038D01*
X44099Y363961D01*
X44127Y363784D01*
X44163Y363594D01*
X44219Y363396D01*
X44297Y363198D01*
Y363191D01*
X44304Y363177D01*
X44318Y363149D01*
X44339Y363113D01*
X44360Y363071D01*
X44389Y363022D01*
X44452Y362909D01*
X44537Y362781D01*
X44636Y362654D01*
X44742Y362527D01*
X44869Y362421D01*
X44876D01*
X44883Y362407D01*
X44904Y362393D01*
X44932Y362379D01*
X45003Y362330D01*
X45095Y362280D01*
X45215Y362217D01*
X45342Y362153D01*
X45490Y362104D01*
X45652Y362054D01*
X45660D01*
X45674Y362047D01*
X45695D01*
X45730Y362040D01*
X45780Y362026D01*
X45836Y362019D01*
X45900Y362012D01*
X45970Y361998D01*
X46055Y361991D01*
X46154Y361984D01*
X46253Y361969D01*
X46366Y361962D01*
X46486Y361955D01*
X46620D01*
X46761Y361948D01*
X51301D01*
Y363820D01*
X47700D01*
X47686D01*
X47651D01*
X47594D01*
X47517D01*
X47425Y363827D01*
X47319D01*
X47206D01*
X47086Y363834D01*
X46832Y363848D01*
X46712Y363862D01*
X46592Y363876D01*
X46479Y363890D01*
X46373Y363904D01*
X46288Y363926D01*
X46217Y363947D01*
X46210D01*
X46203Y363954D01*
X46161Y363968D01*
X46097Y363996D01*
X46027Y364038D01*
X45942Y364095D01*
X45850Y364159D01*
X45773Y364243D01*
X45695Y364335D01*
X45688Y364349D01*
X45667Y364384D01*
X45631Y364441D01*
X45596Y364519D01*
X45568Y364610D01*
X45532Y364723D01*
X45511Y364851D01*
X45504Y364985D01*
Y365034D01*
X45511Y365069D01*
Y365112D01*
X45518Y365161D01*
X45539Y365274D01*
X45568Y365415D01*
X45617Y365557D01*
X45681Y365712D01*
X45773Y365860D01*
Y365867D01*
X45787Y365874D01*
X45801Y365896D01*
X45822Y365924D01*
X45879Y365987D01*
X45963Y366072D01*
X46062Y366157D01*
X46182Y366249D01*
X46323Y366326D01*
X46479Y366390D01*
X46486D01*
X46500Y366397D01*
X46528Y366404D01*
X46563Y366411D01*
X46613Y366425D01*
X46676Y366432D01*
X46754Y366446D01*
X46846Y366460D01*
X46952Y366475D01*
X47065Y366489D01*
X47199Y366496D01*
X47347Y366510D01*
X47510Y366517D01*
X47693Y366524D01*
X47891Y366531D01*
X48103D01*
X51301D01*
Y368402D01*
D02*
G37*
G36*
X63352Y369504D02*
X56122D01*
D01*
X56277D01*
Y367781D01*
X57244D01*
X57230Y367767D01*
X57195Y367738D01*
X57138Y367689D01*
X57068Y367618D01*
X56983Y367527D01*
X56891Y367421D01*
X56785Y367301D01*
X56679Y367160D01*
X56580Y367004D01*
X56474Y366835D01*
X56383Y366658D01*
X56298Y366460D01*
X56227Y366256D01*
X56171Y366037D01*
X56136Y365811D01*
X56122Y365578D01*
Y365514D01*
X56129Y365465D01*
Y365408D01*
X56136Y365338D01*
X56143Y365260D01*
X56157Y365175D01*
X56192Y364992D01*
X56241Y364794D01*
X56312Y364596D01*
X56404Y364399D01*
Y364392D01*
X56418Y364377D01*
X56432Y364349D01*
X56453Y364314D01*
X56489Y364272D01*
X56524Y364222D01*
X56616Y364109D01*
X56736Y363975D01*
X56877Y363841D01*
X57053Y363707D01*
X57251Y363579D01*
X57244Y363572D01*
X57223Y363558D01*
X57195Y363530D01*
X57159Y363495D01*
X57110Y363452D01*
X57061Y363403D01*
X56997Y363346D01*
X56933Y363276D01*
X56799Y363128D01*
X56658Y362958D01*
X56524Y362775D01*
X56404Y362577D01*
Y362570D01*
X56390Y362548D01*
X56376Y362520D01*
X56361Y362485D01*
X56340Y362429D01*
X56312Y362372D01*
X56291Y362301D01*
X56263Y362231D01*
X56234Y362146D01*
X56213Y362054D01*
X56164Y361856D01*
X56136Y361645D01*
X56122Y361419D01*
Y361341D01*
X56129Y361285D01*
Y361221D01*
X56136Y361143D01*
X56150Y361052D01*
X56164Y360960D01*
X56199Y360755D01*
X56256Y360529D01*
X56333Y360310D01*
X56383Y360204D01*
X56439Y360098D01*
Y360091D01*
X56453Y360077D01*
X56474Y360049D01*
X56496Y360006D01*
X56531Y359964D01*
X56573Y359915D01*
X56623Y359858D01*
X56672Y359795D01*
X56736Y359731D01*
X56806Y359668D01*
X56884Y359597D01*
X56969Y359533D01*
X57053Y359470D01*
X57152Y359406D01*
X57371Y359293D01*
X57378D01*
X57393Y359286D01*
X57421Y359272D01*
X57456Y359265D01*
X57505Y359244D01*
X57569Y359230D01*
X57640Y359216D01*
X57724Y359194D01*
X57816Y359173D01*
X57929Y359159D01*
X58049Y359138D01*
X58176Y359124D01*
X58324Y359117D01*
X58480Y359103D01*
X58649Y359096D01*
X63352D01*
Y369504D01*
D02*
G37*
G36*
X51464Y386535D02*
D01*
Y360543D01*
X44071D01*
Y353906D01*
D01*
Y357168D01*
X44078Y357083D01*
Y356977D01*
X44085Y356857D01*
X44092Y356723D01*
X44106Y356582D01*
X44120Y356433D01*
X44141Y356278D01*
X44198Y355967D01*
X44226Y355819D01*
X44268Y355671D01*
X44318Y355537D01*
X44367Y355417D01*
Y355410D01*
X44381Y355388D01*
X44396Y355360D01*
X44424Y355318D01*
X44452Y355268D01*
X44487Y355212D01*
X44572Y355078D01*
X44685Y354937D01*
X44812Y354795D01*
X44960Y354661D01*
X45038Y354605D01*
X45123Y354555D01*
X45130D01*
X45144Y354541D01*
X45172Y354534D01*
X45215Y354513D01*
X45264Y354499D01*
X45335Y354478D01*
X45412Y354449D01*
X45504Y354428D01*
X45610Y354407D01*
X45730Y354379D01*
X45871Y354357D01*
X46020Y354343D01*
X46189Y354322D01*
X46373Y354315D01*
X46578Y354301D01*
X46796D01*
X48978Y354329D01*
X48985D01*
X49021D01*
X49070D01*
X49134D01*
X49211D01*
X49296Y354322D01*
X49395D01*
X49501Y354315D01*
X49727Y354308D01*
X49953Y354294D01*
X50066Y354287D01*
X50172Y354273D01*
X50264Y354259D01*
X50355Y354245D01*
X50362D01*
X50377Y354238D01*
X50398D01*
X50433Y354223D01*
X50475Y354216D01*
X50525Y354202D01*
X50638Y354167D01*
X50779Y354124D01*
X50941Y354061D01*
X51118Y353990D01*
X51301Y353906D01*
D01*
Y355756D01*
X51294D01*
X51266Y355770D01*
X51224Y355784D01*
X51160Y355805D01*
X51083Y355833D01*
X50991Y355869D01*
X50878Y355904D01*
X50751Y355939D01*
X50744D01*
X50722Y355946D01*
X50694Y355953D01*
X50659Y355967D01*
X50588Y355989D01*
X50560Y355996D01*
X50532Y356003D01*
X50539Y356010D01*
X50553Y356024D01*
X50574Y356052D01*
X50609Y356087D01*
X50645Y356130D01*
X50694Y356186D01*
X50744Y356243D01*
X50793Y356314D01*
X50906Y356462D01*
X51026Y356638D01*
X51132Y356829D01*
X51231Y357034D01*
Y357041D01*
X51238Y357055D01*
X51252Y357090D01*
X51266Y357126D01*
X51287Y357182D01*
X51301Y357239D01*
X51323Y357309D01*
X51344Y357380D01*
X51372Y357464D01*
X51393Y357556D01*
X51429Y357754D01*
X51457Y357973D01*
X51464Y358199D01*
Y358248D01*
X51457Y358305D01*
Y358375D01*
X51443Y358467D01*
X51436Y358573D01*
X51414Y358693D01*
X51386Y358820D01*
X51358Y358954D01*
X51316Y359096D01*
X51273Y359237D01*
X51217Y359378D01*
X51146Y359519D01*
X51069Y359660D01*
X50977Y359795D01*
X50871Y359915D01*
X50864Y359922D01*
X50842Y359943D01*
X50807Y359971D01*
X50765Y360014D01*
X50708Y360063D01*
X50638Y360112D01*
X50553Y360169D01*
X50461Y360225D01*
X50355Y360289D01*
X50242Y360345D01*
X50122Y360395D01*
X49988Y360444D01*
X49847Y360487D01*
X49699Y360515D01*
X49536Y360536D01*
X49374Y360543D01*
X51464D01*
Y386535D01*
D02*
G37*
G36*
X63514Y357782D02*
X56122D01*
D01*
X59800D01*
X59758Y357775D01*
X59708D01*
X59652D01*
X59588Y357768D01*
X59440Y357754D01*
X59271Y357733D01*
X59080Y357705D01*
X58875Y357669D01*
X58656Y357620D01*
X58431Y357556D01*
X58204Y357486D01*
X57972Y357394D01*
X57745Y357288D01*
X57527Y357168D01*
X57322Y357027D01*
X57124Y356864D01*
X57110Y356850D01*
X57082Y356822D01*
X57032Y356772D01*
X56969Y356702D01*
X56891Y356610D01*
X56806Y356497D01*
X56715Y356370D01*
X56623Y356229D01*
X56531Y356066D01*
X56439Y355897D01*
X56354Y355699D01*
X56277Y355494D01*
X56213Y355275D01*
X56164Y355042D01*
X56136Y354795D01*
X56122Y354541D01*
Y354470D01*
X56129Y354435D01*
Y354386D01*
X56136Y354280D01*
X56150Y354146D01*
X56178Y353990D01*
X56206Y353821D01*
X56249Y353637D01*
X56305Y353440D01*
X56376Y353235D01*
X56460Y353030D01*
X56559Y352825D01*
X56679Y352613D01*
X56821Y352416D01*
X56983Y352225D01*
X57167Y352048D01*
X57181Y352042D01*
X57216Y352006D01*
X57280Y351964D01*
X57364Y351907D01*
X57477Y351837D01*
X57611Y351759D01*
X57774Y351681D01*
X57957Y351597D01*
X58169Y351512D01*
X58402Y351434D01*
X58664Y351364D01*
X58953Y351293D01*
X59264Y351244D01*
X59603Y351201D01*
X59970Y351180D01*
X60358Y351173D01*
D01*
Y355862D01*
X60365D01*
X60394D01*
X60436Y355854D01*
X60492D01*
X60563Y355847D01*
X60648Y355833D01*
X60732Y355819D01*
X60831Y355798D01*
X61043Y355749D01*
X61149Y355713D01*
X61255Y355671D01*
X61361Y355614D01*
X61467Y355558D01*
X61566Y355494D01*
X61657Y355417D01*
X61665Y355410D01*
X61679Y355396D01*
X61700Y355374D01*
X61728Y355339D01*
X61763Y355297D01*
X61806Y355240D01*
X61841Y355184D01*
X61883Y355113D01*
X61933Y355042D01*
X61968Y354958D01*
X62046Y354774D01*
X62074Y354668D01*
X62095Y354562D01*
X62109Y354449D01*
X62116Y354329D01*
Y354287D01*
X62109Y354259D01*
X62102Y354174D01*
X62088Y354075D01*
X62060Y353955D01*
X62018Y353835D01*
X61961Y353708D01*
X61883Y353595D01*
Y353588D01*
X61869Y353581D01*
X61834Y353545D01*
X61778Y353489D01*
X61693Y353425D01*
X61587Y353348D01*
X61453Y353270D01*
X61297Y353200D01*
X61107Y353136D01*
X61417Y351272D01*
X61431Y351279D01*
X61460Y351286D01*
X61516Y351307D01*
X61587Y351342D01*
X61672Y351378D01*
X61770Y351427D01*
X61883Y351484D01*
X61996Y351547D01*
X62123Y351625D01*
X62251Y351710D01*
X62385Y351801D01*
X62512Y351900D01*
X62639Y352013D01*
X62766Y352133D01*
X62879Y352267D01*
X62985Y352409D01*
X62992Y352416D01*
X63006Y352444D01*
X63034Y352486D01*
X63070Y352550D01*
X63105Y352627D01*
X63154Y352712D01*
X63197Y352825D01*
X63246Y352945D01*
X63296Y353079D01*
X63345Y353221D01*
X63394Y353383D01*
X63430Y353553D01*
X63465Y353736D01*
X63493Y353934D01*
X63507Y354139D01*
X63514Y354351D01*
Y351173D01*
D01*
Y357782D01*
D02*
G37*
G36*
X51301Y352465D02*
X41536D01*
Y350594D01*
X51301D01*
Y352465D01*
D02*
G37*
G36*
X63514Y350312D02*
X56122D01*
D01*
X61333D01*
X61043Y348433D01*
X61050D01*
X61064Y348426D01*
X61093Y348419D01*
X61135Y348412D01*
X61177Y348398D01*
X61234Y348377D01*
X61354Y348327D01*
X61488Y348264D01*
X61629Y348186D01*
X61756Y348080D01*
X61876Y347953D01*
Y347946D01*
X61891Y347939D01*
X61905Y347918D01*
X61919Y347882D01*
X61940Y347847D01*
X61968Y347805D01*
X61989Y347748D01*
X62018Y347685D01*
X62046Y347614D01*
X62067Y347536D01*
X62095Y347452D01*
X62116Y347360D01*
X62130Y347261D01*
X62145Y347155D01*
X62159Y347042D01*
Y346852D01*
X62152Y346802D01*
Y346739D01*
X62145Y346675D01*
X62138Y346597D01*
X62123Y346512D01*
X62095Y346336D01*
X62046Y346152D01*
X61982Y345983D01*
X61940Y345898D01*
X61898Y345828D01*
X61891Y345813D01*
X61862Y345785D01*
X61820Y345750D01*
X61763Y345700D01*
X61693Y345658D01*
X61608Y345616D01*
X61509Y345588D01*
X61396Y345580D01*
X61389D01*
X61361D01*
X61318Y345588D01*
X61269Y345595D01*
X61220Y345616D01*
X61156Y345637D01*
X61100Y345672D01*
X61043Y345715D01*
X61036Y345722D01*
X61022Y345743D01*
X60994Y345785D01*
X60958Y345849D01*
X60923Y345927D01*
X60881Y346039D01*
X60859Y346103D01*
X60838Y346174D01*
X60817Y346258D01*
X60796Y346343D01*
Y346350D01*
X60789Y346371D01*
X60782Y346400D01*
X60775Y346442D01*
X60761Y346491D01*
X60746Y346555D01*
X60732Y346626D01*
X60711Y346703D01*
X60690Y346795D01*
X60669Y346887D01*
X60619Y347092D01*
X60563Y347318D01*
X60499Y347551D01*
X60429Y347798D01*
X60358Y348038D01*
X60280Y348278D01*
X60203Y348511D01*
X60125Y348723D01*
X60040Y348920D01*
X60005Y349005D01*
X59963Y349083D01*
X59927Y349153D01*
X59885Y349217D01*
X59878Y349224D01*
X59857Y349252D01*
X59829Y349295D01*
X59779Y349344D01*
X59723Y349408D01*
X59652Y349478D01*
X59567Y349556D01*
X59468Y349634D01*
X59363Y349711D01*
X59243Y349789D01*
X59115Y349860D01*
X58974Y349923D01*
X58819Y349972D01*
X58656Y350015D01*
X58480Y350043D01*
X58296Y350050D01*
X58282D01*
X58254D01*
X58204Y350043D01*
X58141Y350036D01*
X58063Y350029D01*
X57972Y350015D01*
X57873Y349987D01*
X57760Y349958D01*
X57640Y349923D01*
X57512Y349874D01*
X57385Y349817D01*
X57258Y349747D01*
X57124Y349662D01*
X56997Y349570D01*
X56870Y349457D01*
X56750Y349330D01*
X56743Y349323D01*
X56722Y349295D01*
X56693Y349252D01*
X56651Y349189D01*
X56602Y349111D01*
X56552Y349019D01*
X56496Y348906D01*
X56432Y348772D01*
X56376Y348624D01*
X56319Y348461D01*
X56270Y348278D01*
X56220Y348073D01*
X56178Y347854D01*
X56150Y347614D01*
X56129Y347353D01*
X56122Y347077D01*
Y346936D01*
X56129Y346837D01*
X56136Y346717D01*
X56150Y346583D01*
X56164Y346428D01*
X56178Y346258D01*
X56206Y346089D01*
X56241Y345912D01*
X56277Y345729D01*
X56326Y345552D01*
X56376Y345376D01*
X56446Y345213D01*
X56517Y345058D01*
X56602Y344917D01*
X56609Y344910D01*
X56623Y344888D01*
X56651Y344846D01*
X56686Y344804D01*
X56743Y344747D01*
X56799Y344677D01*
X56870Y344606D01*
X56955Y344528D01*
X57046Y344451D01*
X57152Y344366D01*
X57265Y344288D01*
X57393Y344211D01*
X57527Y344133D01*
X57675Y344062D01*
X57830Y343999D01*
X58000Y343942D01*
X58324Y345708D01*
X58317D01*
X58303Y345715D01*
X58282Y345722D01*
X58254Y345729D01*
X58183Y345764D01*
X58092Y345806D01*
X57993Y345870D01*
X57887Y345941D01*
X57788Y346032D01*
X57696Y346145D01*
X57689Y346160D01*
X57675Y346181D01*
X57661Y346202D01*
X57647Y346237D01*
X57625Y346273D01*
X57583Y346371D01*
X57541Y346498D01*
X57505Y346654D01*
X57477Y346837D01*
X57470Y347042D01*
Y347162D01*
X57477Y347226D01*
X57484Y347296D01*
Y347367D01*
X57498Y347452D01*
X57520Y347628D01*
X57562Y347805D01*
X57611Y347967D01*
X57647Y348038D01*
X57682Y348101D01*
X57689Y348108D01*
X57710Y348137D01*
X57738Y348165D01*
X57781Y348207D01*
X57837Y348242D01*
X57901Y348278D01*
X57972Y348306D01*
X58056Y348313D01*
X58063D01*
X58092D01*
X58127Y348306D01*
X58176Y348292D01*
X58226Y348271D01*
X58282Y348236D01*
X58339Y348193D01*
X58395Y348130D01*
X58402Y348115D01*
X58416Y348094D01*
X58431Y348066D01*
X58452Y348024D01*
X58473Y347967D01*
X58501Y347904D01*
X58529Y347819D01*
X58572Y347713D01*
X58607Y347593D01*
X58649Y347452D01*
X58699Y347289D01*
X58748Y347099D01*
X58805Y346887D01*
X58861Y346654D01*
X58896Y346520D01*
X58925Y346385D01*
Y346378D01*
X58932Y346371D01*
Y346350D01*
X58939Y346322D01*
X58960Y346244D01*
X58988Y346145D01*
X59016Y346018D01*
X59059Y345877D01*
X59101Y345729D01*
X59158Y345559D01*
X59278Y345220D01*
X59348Y345044D01*
X59419Y344874D01*
X59497Y344705D01*
X59581Y344557D01*
X59666Y344415D01*
X59758Y344295D01*
X59765Y344288D01*
X59779Y344267D01*
X59807Y344239D01*
X59850Y344203D01*
X59899Y344154D01*
X59963Y344105D01*
X60033Y344055D01*
X60118Y343999D01*
X60210Y343942D01*
X60316Y343893D01*
X60429Y343836D01*
X60556Y343794D01*
X60690Y343759D01*
X60831Y343730D01*
X60987Y343709D01*
X61149Y343702D01*
X61191D01*
X61241Y343709D01*
X61311Y343716D01*
X61396Y343730D01*
X61495Y343745D01*
X61601Y343773D01*
X61721Y343801D01*
X61848Y343851D01*
X61982Y343900D01*
X62116Y343970D01*
X62258Y344048D01*
X62399Y344140D01*
X62540Y344253D01*
X62681Y344380D01*
X62815Y344521D01*
X62822Y344528D01*
X62844Y344557D01*
X62879Y344606D01*
X62921Y344670D01*
X62978Y344761D01*
X63034Y344860D01*
X63098Y344987D01*
X63162Y345129D01*
X63232Y345284D01*
X63296Y345467D01*
X63352Y345658D01*
X63401Y345877D01*
X63451Y346110D01*
X63486Y346364D01*
X63507Y346633D01*
X63514Y346922D01*
Y343702D01*
D01*
Y350312D01*
D02*
G37*
G36*
X51464Y353906D02*
D01*
Y349224D01*
X44071D01*
Y342615D01*
D01*
Y345912D01*
X44078Y345877D01*
Y345828D01*
X44085Y345722D01*
X44099Y345588D01*
X44127Y345432D01*
X44156Y345263D01*
X44198Y345079D01*
X44254Y344881D01*
X44325Y344677D01*
X44410Y344472D01*
X44509Y344267D01*
X44629Y344055D01*
X44770Y343857D01*
X44932Y343667D01*
X45116Y343490D01*
X45130Y343483D01*
X45165Y343448D01*
X45229Y343406D01*
X45314Y343349D01*
X45427Y343279D01*
X45561Y343201D01*
X45723Y343123D01*
X45907Y343038D01*
X46119Y342954D01*
X46352Y342876D01*
X46613Y342805D01*
X46902Y342735D01*
X47213Y342685D01*
X47552Y342643D01*
X47919Y342622D01*
X48307Y342615D01*
D01*
Y347303D01*
X48315D01*
X48343D01*
X48385Y347296D01*
X48442D01*
X48512Y347289D01*
X48597Y347275D01*
X48682Y347261D01*
X48781Y347240D01*
X48993Y347190D01*
X49098Y347155D01*
X49204Y347113D01*
X49310Y347056D01*
X49416Y347000D01*
X49515Y346936D01*
X49607Y346858D01*
X49614Y346852D01*
X49628Y346837D01*
X49649Y346816D01*
X49677Y346781D01*
X49713Y346739D01*
X49755Y346682D01*
X49790Y346626D01*
X49833Y346555D01*
X49882Y346484D01*
X49917Y346400D01*
X49995Y346216D01*
X50023Y346110D01*
X50045Y346004D01*
X50059Y345891D01*
X50066Y345771D01*
Y345729D01*
X50059Y345700D01*
X50052Y345616D01*
X50037Y345517D01*
X50009Y345397D01*
X49967Y345277D01*
X49910Y345150D01*
X49833Y345037D01*
Y345030D01*
X49819Y345023D01*
X49783Y344987D01*
X49727Y344931D01*
X49642Y344867D01*
X49536Y344790D01*
X49402Y344712D01*
X49247Y344641D01*
X49056Y344578D01*
X49367Y342714D01*
X49381Y342721D01*
X49409Y342728D01*
X49466Y342749D01*
X49536Y342784D01*
X49621Y342820D01*
X49720Y342869D01*
X49833Y342925D01*
X49946Y342989D01*
X50073Y343067D01*
X50200Y343151D01*
X50334Y343243D01*
X50461Y343342D01*
X50588Y343455D01*
X50715Y343575D01*
X50828Y343709D01*
X50934Y343851D01*
X50941Y343857D01*
X50956Y343886D01*
X50984Y343928D01*
X51019Y343992D01*
X51054Y344069D01*
X51104Y344154D01*
X51146Y344267D01*
X51196Y344387D01*
X51245Y344521D01*
X51294Y344663D01*
X51344Y344825D01*
X51379Y344994D01*
X51414Y345178D01*
X51443Y345376D01*
X51457Y345580D01*
X51464Y345792D01*
Y345870D01*
X51457Y345919D01*
Y345969D01*
X51450Y346025D01*
X51443Y346096D01*
X51429Y346251D01*
X51400Y346421D01*
X51365Y346618D01*
X51316Y346830D01*
X51252Y347049D01*
X51167Y347275D01*
X51076Y347501D01*
X50956Y347727D01*
X50821Y347946D01*
X50659Y348151D01*
X50475Y348349D01*
X50264Y348525D01*
X50249Y348532D01*
X50221Y348553D01*
X50165Y348588D01*
X50087Y348631D01*
X49995Y348687D01*
X49882Y348744D01*
X49748Y348807D01*
X49593Y348871D01*
X49430Y348942D01*
X49247Y349005D01*
X49042Y349062D01*
X48830Y349111D01*
X48597Y349160D01*
X48357Y349196D01*
X48096Y349217D01*
X47827Y349224D01*
X51464D01*
Y353906D01*
D02*
G37*
G36*
Y342615D02*
D01*
Y341753D01*
X44071D01*
D01*
X49282D01*
X48993Y339875D01*
X49000D01*
X49014Y339868D01*
X49042Y339861D01*
X49084Y339854D01*
X49127Y339840D01*
X49183Y339818D01*
X49303Y339769D01*
X49437Y339706D01*
X49578Y339628D01*
X49706Y339522D01*
X49826Y339395D01*
Y339388D01*
X49840Y339381D01*
X49854Y339360D01*
X49868Y339324D01*
X49889Y339289D01*
X49917Y339247D01*
X49939Y339190D01*
X49967Y339127D01*
X49995Y339056D01*
X50016Y338978D01*
X50045Y338894D01*
X50066Y338802D01*
X50080Y338703D01*
X50094Y338597D01*
X50108Y338484D01*
Y338293D01*
X50101Y338244D01*
Y338180D01*
X50094Y338117D01*
X50087Y338039D01*
X50073Y337954D01*
X50045Y337778D01*
X49995Y337594D01*
X49932Y337425D01*
X49889Y337340D01*
X49847Y337269D01*
X49840Y337255D01*
X49812Y337227D01*
X49769Y337192D01*
X49713Y337142D01*
X49642Y337100D01*
X49557Y337058D01*
X49458Y337029D01*
X49345Y337022D01*
X49338D01*
X49310D01*
X49268Y337029D01*
X49218Y337036D01*
X49169Y337058D01*
X49105Y337079D01*
X49049Y337114D01*
X48993Y337156D01*
X48985Y337164D01*
X48971Y337185D01*
X48943Y337227D01*
X48908Y337291D01*
X48872Y337368D01*
X48830Y337481D01*
X48809Y337545D01*
X48788Y337615D01*
X48766Y337700D01*
X48745Y337785D01*
Y337792D01*
X48738Y337813D01*
X48731Y337841D01*
X48724Y337884D01*
X48710Y337933D01*
X48696Y337997D01*
X48682Y338067D01*
X48661Y338145D01*
X48639Y338237D01*
X48618Y338329D01*
X48569Y338533D01*
X48512Y338759D01*
X48449Y338992D01*
X48378Y339240D01*
X48307Y339480D01*
X48230Y339720D01*
X48152Y339953D01*
X48074Y340164D01*
X47990Y340362D01*
X47955Y340447D01*
X47912Y340525D01*
X47877Y340595D01*
X47834Y340659D01*
X47827Y340666D01*
X47806Y340694D01*
X47778Y340737D01*
X47729Y340786D01*
X47672Y340849D01*
X47601Y340920D01*
X47517Y340998D01*
X47418Y341075D01*
X47312Y341153D01*
X47192Y341231D01*
X47065Y341301D01*
X46923Y341365D01*
X46768Y341414D01*
X46606Y341457D01*
X46429Y341485D01*
X46246Y341492D01*
X46231D01*
X46203D01*
X46154Y341485D01*
X46090Y341478D01*
X46013Y341471D01*
X45921Y341457D01*
X45822Y341428D01*
X45709Y341400D01*
X45589Y341365D01*
X45462Y341315D01*
X45335Y341259D01*
X45208Y341188D01*
X45073Y341104D01*
X44946Y341012D01*
X44819Y340899D01*
X44699Y340772D01*
X44692Y340765D01*
X44671Y340737D01*
X44643Y340694D01*
X44600Y340631D01*
X44551Y340553D01*
X44502Y340461D01*
X44445Y340348D01*
X44381Y340214D01*
X44325Y340066D01*
X44268Y339903D01*
X44219Y339720D01*
X44170Y339515D01*
X44127Y339296D01*
X44099Y339056D01*
X44078Y338795D01*
X44071Y338519D01*
Y338378D01*
X44078Y338279D01*
X44085Y338159D01*
X44099Y338025D01*
X44113Y337870D01*
X44127Y337700D01*
X44156Y337531D01*
X44191Y337354D01*
X44226Y337171D01*
X44276Y336994D01*
X44325Y336818D01*
X44396Y336655D01*
X44466Y336500D01*
X44551Y336358D01*
X44558Y336352D01*
X44572Y336330D01*
X44600Y336288D01*
X44636Y336246D01*
X44692Y336189D01*
X44749Y336119D01*
X44819Y336048D01*
X44904Y335970D01*
X44996Y335892D01*
X45102Y335808D01*
X45215Y335730D01*
X45342Y335652D01*
X45476Y335575D01*
X45624Y335504D01*
X45780Y335441D01*
X45949Y335384D01*
X46274Y337149D01*
X46267D01*
X46253Y337156D01*
X46231Y337164D01*
X46203Y337171D01*
X46133Y337206D01*
X46041Y337248D01*
X45942Y337312D01*
X45836Y337382D01*
X45737Y337474D01*
X45645Y337587D01*
X45638Y337601D01*
X45624Y337622D01*
X45610Y337644D01*
X45596Y337679D01*
X45575Y337714D01*
X45532Y337813D01*
X45490Y337940D01*
X45455Y338096D01*
X45427Y338279D01*
X45420Y338484D01*
Y338604D01*
X45427Y338667D01*
X45434Y338738D01*
Y338809D01*
X45448Y338894D01*
X45469Y339070D01*
X45511Y339247D01*
X45561Y339409D01*
X45596Y339480D01*
X45631Y339543D01*
X45638Y339550D01*
X45660Y339578D01*
X45688Y339607D01*
X45730Y339649D01*
X45787Y339684D01*
X45850Y339720D01*
X45921Y339748D01*
X46006Y339755D01*
X46013D01*
X46041D01*
X46076Y339748D01*
X46126Y339734D01*
X46175Y339713D01*
X46231Y339677D01*
X46288Y339635D01*
X46344Y339571D01*
X46352Y339557D01*
X46366Y339536D01*
X46380Y339508D01*
X46401Y339465D01*
X46422Y339409D01*
X46450Y339345D01*
X46479Y339261D01*
X46521Y339155D01*
X46556Y339035D01*
X46599Y338894D01*
X46648Y338731D01*
X46698Y338540D01*
X46754Y338329D01*
X46810Y338096D01*
X46846Y337961D01*
X46874Y337827D01*
Y337820D01*
X46881Y337813D01*
Y337792D01*
X46888Y337764D01*
X46909Y337686D01*
X46938Y337587D01*
X46966Y337460D01*
X47008Y337319D01*
X47051Y337171D01*
X47107Y337001D01*
X47227Y336662D01*
X47298Y336486D01*
X47368Y336316D01*
X47446Y336147D01*
X47531Y335998D01*
X47615Y335857D01*
X47707Y335737D01*
X47714Y335730D01*
X47729Y335709D01*
X47757Y335681D01*
X47799Y335645D01*
X47849Y335596D01*
X47912Y335546D01*
X47983Y335497D01*
X48067Y335441D01*
X48159Y335384D01*
X48265Y335335D01*
X48378Y335278D01*
X48505Y335236D01*
X48639Y335201D01*
X48781Y335172D01*
X48936Y335151D01*
X49098Y335144D01*
X49141D01*
X49190Y335151D01*
X49261Y335158D01*
X49345Y335172D01*
X49444Y335186D01*
X49550Y335215D01*
X49670Y335243D01*
X49797Y335292D01*
X49932Y335342D01*
X50066Y335412D01*
X50207Y335490D01*
X50348Y335582D01*
X50489Y335695D01*
X50631Y335822D01*
X50765Y335963D01*
X50772Y335970D01*
X50793Y335998D01*
X50828Y336048D01*
X50871Y336111D01*
X50927Y336203D01*
X50984Y336302D01*
X51047Y336429D01*
X51111Y336570D01*
X51181Y336726D01*
X51245Y336909D01*
X51301Y337100D01*
X51351Y337319D01*
X51400Y337552D01*
X51436Y337806D01*
X51457Y338074D01*
X51464Y338364D01*
Y338428D01*
X51457Y338505D01*
Y338604D01*
X51443Y338724D01*
X51436Y338865D01*
X51414Y339021D01*
X51393Y339190D01*
X51358Y339374D01*
X51323Y339557D01*
X51273Y339748D01*
X51217Y339946D01*
X51146Y340129D01*
X51069Y340320D01*
X50984Y340496D01*
X50878Y340659D01*
X50871Y340666D01*
X50850Y340694D01*
X50814Y340737D01*
X50772Y340793D01*
X50708Y340864D01*
X50638Y340941D01*
X50553Y341019D01*
X50461Y341111D01*
X50348Y341203D01*
X50228Y341294D01*
X50101Y341386D01*
X49960Y341478D01*
X49805Y341556D01*
X49642Y341633D01*
X49466Y341697D01*
X49282Y341753D01*
X51464D01*
Y342615D01*
D02*
G37*
%LPD*%
G36*
X47432Y439756D02*
X43817Y441104D01*
X47432Y442425D01*
Y439756D01*
D02*
G37*
G36*
X51301Y438273D02*
X49084Y439120D01*
Y443025D01*
X51301Y443830D01*
Y438273D01*
D02*
G37*
G36*
X63514Y435357D02*
X63507Y435406D01*
Y435470D01*
X63500Y435540D01*
X63486Y435618D01*
X63472Y435710D01*
X63437Y435907D01*
X63380Y436126D01*
X63303Y436345D01*
X63260Y436458D01*
X63204Y436564D01*
X63197Y436571D01*
X63190Y436585D01*
X63169Y436620D01*
X63147Y436656D01*
X63112Y436705D01*
X63077Y436755D01*
X62978Y436875D01*
X62851Y437009D01*
X62702Y437150D01*
X62526Y437277D01*
X62434Y437334D01*
X62328Y437383D01*
X62321D01*
X62300Y437390D01*
X62272Y437404D01*
X62222Y437418D01*
X62166Y437440D01*
X62095Y437461D01*
X62010Y437482D01*
X61919Y437503D01*
X61813Y437531D01*
X61693Y437553D01*
X61566Y437574D01*
X61424Y437588D01*
X61276Y437609D01*
X61114Y437616D01*
X60944Y437630D01*
X63514D01*
Y435357D01*
D02*
G37*
G36*
X34068Y424482D02*
X34061Y424390D01*
Y424285D01*
X34054Y424165D01*
X34047Y424044D01*
X34033Y423783D01*
X34004Y423529D01*
X33990Y423409D01*
X33969Y423296D01*
X33948Y423204D01*
X33920Y423120D01*
Y423112D01*
X33913Y423098D01*
X33905Y423084D01*
X33891Y423056D01*
X33856Y422985D01*
X33800Y422893D01*
X33736Y422795D01*
X33651Y422689D01*
X33552Y422590D01*
X33440Y422498D01*
X33432D01*
X33425Y422491D01*
X33404Y422477D01*
X33383Y422463D01*
X33312Y422427D01*
X33221Y422385D01*
X33108Y422343D01*
X32980Y422308D01*
X32832Y422279D01*
X32677Y422272D01*
X32670D01*
X32656D01*
X32627D01*
X32585Y422279D01*
X32543D01*
X32486Y422286D01*
X32366Y422314D01*
X32225Y422350D01*
X32077Y422406D01*
X31928Y422484D01*
X31858Y422533D01*
X31794Y422590D01*
X31787D01*
X31780Y422604D01*
X31738Y422646D01*
X31681Y422710D01*
X31611Y422802D01*
X31540Y422922D01*
X31469Y423056D01*
X31406Y423211D01*
X31363Y423381D01*
Y423395D01*
X31356Y423423D01*
X31349Y423451D01*
Y423494D01*
X31342Y423550D01*
X31335Y423614D01*
X31328Y423691D01*
X31321Y423783D01*
X31314Y423882D01*
X31307Y423995D01*
Y424129D01*
X31300Y424271D01*
X31293Y424433D01*
Y425746D01*
X34068D01*
Y424482D01*
D02*
G37*
G36*
X44226Y428196D02*
X45194D01*
X45179Y428182D01*
X45144Y428154D01*
X45088Y428105D01*
X45017Y428034D01*
X44932Y427942D01*
X44840Y427836D01*
X44735Y427716D01*
X44629Y427575D01*
X44530Y427420D01*
X44424Y427250D01*
X44332Y427074D01*
X44247Y426876D01*
X44177Y426671D01*
X44120Y426452D01*
X44085Y426226D01*
X44071Y425993D01*
Y429919D01*
X44226D01*
Y428196D01*
D02*
G37*
G36*
X44078Y425880D02*
Y425824D01*
X44085Y425753D01*
X44092Y425676D01*
X44106Y425591D01*
X44141Y425407D01*
X44191Y425210D01*
X44261Y425012D01*
X44353Y424814D01*
Y424807D01*
X44367Y424793D01*
X44381Y424765D01*
X44403Y424729D01*
X44438Y424687D01*
X44473Y424638D01*
X44565Y424525D01*
X44685Y424390D01*
X44826Y424256D01*
X45003Y424122D01*
X45201Y423995D01*
X45194Y423988D01*
X45172Y423974D01*
X45144Y423946D01*
X45109Y423910D01*
X45059Y423868D01*
X45010Y423819D01*
X44946Y423762D01*
X44883Y423691D01*
X44749Y423543D01*
X44608Y423374D01*
X44473Y423190D01*
X44353Y422992D01*
Y422985D01*
X44339Y422964D01*
X44325Y422936D01*
X44311Y422901D01*
X44290Y422844D01*
X44261Y422788D01*
X44240Y422717D01*
X44212Y422646D01*
X44184Y422562D01*
X44163Y422470D01*
X44113Y422272D01*
X44085Y422060D01*
X44071Y421834D01*
Y425930D01*
X44078Y425880D01*
D02*
G37*
G36*
X63514Y419871D02*
X63507Y419928D01*
Y419998D01*
X63493Y420090D01*
X63486Y420196D01*
X63465Y420316D01*
X63437Y420443D01*
X63409Y420578D01*
X63366Y420719D01*
X63324Y420860D01*
X63267Y421001D01*
X63197Y421142D01*
X63119Y421284D01*
X63027Y421418D01*
X62921Y421538D01*
X62914Y421545D01*
X62893Y421566D01*
X62858Y421594D01*
X62815Y421637D01*
X62759Y421686D01*
X62688Y421735D01*
X62604Y421792D01*
X62512Y421848D01*
X62406Y421912D01*
X62293Y421968D01*
X62173Y422018D01*
X62039Y422067D01*
X61898Y422110D01*
X61749Y422138D01*
X61587Y422159D01*
X61424Y422166D01*
X63514D01*
Y419871D01*
D02*
G37*
G36*
X61297Y420288D02*
X61375Y420281D01*
X61467Y420260D01*
X61573Y420224D01*
X61686Y420175D01*
X61799Y420104D01*
X61912Y420005D01*
X61926Y419991D01*
X61954Y419956D01*
X62003Y419893D01*
X62053Y419801D01*
X62102Y419695D01*
X62152Y419568D01*
X62180Y419426D01*
X62194Y419264D01*
Y419215D01*
X62187Y419179D01*
Y419130D01*
X62173Y419081D01*
X62152Y418953D01*
X62109Y418805D01*
X62053Y418643D01*
X61968Y418473D01*
X61919Y418381D01*
X61862Y418297D01*
Y418290D01*
X61848Y418283D01*
X61820Y418240D01*
X61763Y418184D01*
X61693Y418113D01*
X61601Y418035D01*
X61495Y417965D01*
X61375Y417901D01*
X61248Y417852D01*
X61234Y417845D01*
X61199Y417838D01*
X61170Y417831D01*
X61135Y417824D01*
X61093Y417817D01*
X61043Y417809D01*
X60987Y417802D01*
X60916Y417795D01*
X60845D01*
X60761Y417788D01*
X60669Y417781D01*
X60563Y417774D01*
X60450D01*
X60330D01*
X59956D01*
Y417781D01*
X59963Y417788D01*
X59970Y417809D01*
X59977Y417845D01*
X59991Y417880D01*
X60005Y417929D01*
X60019Y417986D01*
X60033Y418050D01*
X60054Y418127D01*
X60076Y418212D01*
X60104Y418304D01*
X60125Y418410D01*
X60153Y418523D01*
X60182Y418643D01*
X60217Y418777D01*
X60245Y418918D01*
Y418925D01*
X60252Y418953D01*
X60259Y418989D01*
X60273Y419045D01*
X60288Y419109D01*
X60309Y419179D01*
X60351Y419335D01*
X60401Y419504D01*
X60450Y419674D01*
X60485Y419751D01*
X60514Y419822D01*
X60542Y419885D01*
X60570Y419935D01*
Y419942D01*
X60584Y419949D01*
X60619Y419991D01*
X60676Y420048D01*
X60754Y420111D01*
X60845Y420182D01*
X60958Y420238D01*
X61093Y420281D01*
X61163Y420288D01*
X61234Y420295D01*
X61241D01*
X61248D01*
X61269D01*
X61297Y420288D01*
D02*
G37*
G36*
X39406Y407422D02*
X32112Y409364D01*
X39406Y411299D01*
Y407422D01*
D02*
G37*
G36*
X63352Y409527D02*
X59751D01*
X59737D01*
X59701D01*
X59645D01*
X59567D01*
X59475Y409534D01*
X59370D01*
X59257D01*
X59137Y409541D01*
X58882Y409555D01*
X58762Y409569D01*
X58642Y409583D01*
X58529Y409597D01*
X58423Y409611D01*
X58339Y409633D01*
X58268Y409654D01*
X58261D01*
X58254Y409661D01*
X58212Y409675D01*
X58148Y409703D01*
X58077Y409746D01*
X57993Y409802D01*
X57901Y409866D01*
X57823Y409950D01*
X57745Y410042D01*
X57738Y410056D01*
X57717Y410092D01*
X57682Y410148D01*
X57647Y410226D01*
X57618Y410317D01*
X57583Y410430D01*
X57562Y410558D01*
X57555Y410692D01*
Y410741D01*
X57562Y410776D01*
Y410819D01*
X57569Y410868D01*
X57590Y410981D01*
X57618Y411123D01*
X57668Y411264D01*
X57731Y411419D01*
X57823Y411567D01*
Y411574D01*
X57837Y411581D01*
X57851Y411603D01*
X57873Y411631D01*
X57929Y411694D01*
X58014Y411779D01*
X58113Y411864D01*
X58233Y411956D01*
X58374Y412033D01*
X58529Y412097D01*
X58536D01*
X58551Y412104D01*
X58579Y412111D01*
X58614Y412118D01*
X58664Y412132D01*
X58727Y412139D01*
X58805Y412154D01*
X58896Y412168D01*
X59002Y412182D01*
X59115Y412196D01*
X59250Y412203D01*
X59398Y412217D01*
X59560Y412224D01*
X59744Y412231D01*
X59942Y412238D01*
X60153D01*
X63352D01*
Y409527D01*
D02*
G37*
G36*
X44226Y408348D02*
X45271D01*
X45257Y408333D01*
X45222Y408305D01*
X45158Y408256D01*
X45081Y408178D01*
X44996Y408093D01*
X44890Y407980D01*
X44784Y407853D01*
X44671Y407712D01*
X44558Y407550D01*
X44452Y407373D01*
X44346Y407182D01*
X44261Y406970D01*
X44184Y406752D01*
X44120Y406519D01*
X44085Y406272D01*
X44071Y406017D01*
Y410084D01*
X44226D01*
Y408348D01*
D02*
G37*
G36*
X39406Y390751D02*
X32112Y392693D01*
X39406Y394628D01*
Y390751D01*
D02*
G37*
G36*
X63529Y398546D02*
X63522Y398596D01*
Y398660D01*
X63514Y398723D01*
X63500Y398878D01*
X63486Y399062D01*
X63458Y399260D01*
X63423Y399472D01*
X63373Y399697D01*
X63317Y399930D01*
X63253Y400171D01*
X63169Y400404D01*
X63070Y400637D01*
X62957Y400863D01*
X62822Y401074D01*
X62674Y401272D01*
X62667Y401286D01*
X62632Y401315D01*
X62583Y401364D01*
X62512Y401427D01*
X62427Y401505D01*
X62314Y401597D01*
X62187Y401689D01*
X62039Y401788D01*
X61876Y401894D01*
X61686Y401992D01*
X61481Y402091D01*
X61262Y402183D01*
X61015Y402275D01*
X60754Y402345D01*
X60471Y402409D01*
X60175Y402451D01*
X63529D01*
Y398546D01*
D02*
G37*
G36*
X47806Y400227D02*
X47898D01*
X48004Y400220D01*
X48124Y400206D01*
X48251Y400192D01*
X48519Y400157D01*
X48788Y400100D01*
X48922Y400065D01*
X49042Y400022D01*
X49155Y399980D01*
X49261Y399924D01*
X49268Y399916D01*
X49289Y399902D01*
X49324Y399874D01*
X49374Y399839D01*
X49430Y399796D01*
X49494Y399740D01*
X49557Y399669D01*
X49621Y399599D01*
X49692Y399514D01*
X49755Y399415D01*
X49819Y399316D01*
X49875Y399203D01*
X49917Y399083D01*
X49960Y398949D01*
X49981Y398815D01*
X49988Y398667D01*
Y398638D01*
X49981Y398603D01*
Y398561D01*
X49974Y398504D01*
X49960Y398433D01*
X49946Y398363D01*
X49917Y398285D01*
X49889Y398200D01*
X49854Y398109D01*
X49812Y398024D01*
X49755Y397925D01*
X49699Y397833D01*
X49621Y397742D01*
X49543Y397650D01*
X49444Y397565D01*
X49437Y397558D01*
X49416Y397544D01*
X49388Y397523D01*
X49338Y397494D01*
X49282Y397459D01*
X49211Y397424D01*
X49127Y397381D01*
X49035Y397339D01*
X48922Y397297D01*
X48802Y397254D01*
X48668Y397219D01*
X48519Y397184D01*
X48357Y397155D01*
X48180Y397134D01*
X47997Y397120D01*
X47799Y397113D01*
X47792D01*
X47785D01*
X47743D01*
X47686D01*
X47601Y397120D01*
X47502Y397127D01*
X47382Y397134D01*
X47255Y397148D01*
X47121Y397170D01*
X46832Y397219D01*
X46683Y397254D01*
X46542Y397304D01*
X46401Y397353D01*
X46267Y397410D01*
X46147Y397480D01*
X46041Y397558D01*
X46034Y397565D01*
X46020Y397579D01*
X45991Y397600D01*
X45956Y397636D01*
X45914Y397678D01*
X45871Y397734D01*
X45822Y397791D01*
X45773Y397862D01*
X45723Y397939D01*
X45674Y398024D01*
X45631Y398116D01*
X45589Y398215D01*
X45554Y398321D01*
X45525Y398433D01*
X45511Y398546D01*
X45504Y398674D01*
Y398737D01*
X45511Y398787D01*
X45518Y398843D01*
X45532Y398907D01*
X45547Y398984D01*
X45568Y399062D01*
X45596Y399154D01*
X45638Y399239D01*
X45681Y399330D01*
X45730Y399429D01*
X45794Y399521D01*
X45864Y399613D01*
X45949Y399705D01*
X46041Y399789D01*
X46048Y399796D01*
X46062Y399810D01*
X46097Y399832D01*
X46140Y399860D01*
X46196Y399895D01*
X46267Y399930D01*
X46344Y399973D01*
X46436Y400008D01*
X46542Y400051D01*
X46662Y400093D01*
X46789Y400128D01*
X46931Y400163D01*
X47086Y400192D01*
X47255Y400213D01*
X47432Y400227D01*
X47623Y400234D01*
X47637D01*
X47672D01*
X47729D01*
X47806Y400227D01*
D02*
G37*
G36*
X63514Y391040D02*
X63507Y391083D01*
Y391132D01*
X63493Y391259D01*
X63472Y391401D01*
X63444Y391549D01*
X63401Y391711D01*
X63345Y391867D01*
Y391874D01*
X63338Y391881D01*
X63331Y391902D01*
X63317Y391930D01*
X63274Y392001D01*
X63225Y392093D01*
X63162Y392191D01*
X63091Y392283D01*
X63006Y392382D01*
X62907Y392460D01*
X62893Y392467D01*
X62858Y392488D01*
X62801Y392523D01*
X62717Y392566D01*
X62611Y392608D01*
X62484Y392650D01*
X62342Y392693D01*
X62180Y392721D01*
X62173D01*
X62166D01*
X62145Y392728D01*
X62109D01*
X62074Y392735D01*
X62025D01*
X61961Y392742D01*
X61891Y392749D01*
X61806Y392756D01*
X61714D01*
X61601Y392763D01*
X61481Y392771D01*
X61347D01*
X61199Y392777D01*
X61036D01*
X60859D01*
X57767D01*
Y393639D01*
X63514D01*
Y391040D01*
D02*
G37*
G36*
X47510Y393830D02*
X47432Y393823D01*
X47333Y393815D01*
X47220Y393801D01*
X47100Y393780D01*
X46966Y393752D01*
X46825Y393724D01*
X46676Y393688D01*
X46521Y393646D01*
X46359Y393590D01*
X46196Y393526D01*
X46034Y393455D01*
X45871Y393378D01*
X45864Y393371D01*
X45836Y393357D01*
X45787Y393328D01*
X45730Y393293D01*
X45652Y393244D01*
X45568Y393187D01*
X45476Y393124D01*
X45377Y393046D01*
X45271Y392954D01*
X45158Y392855D01*
X45052Y392749D01*
X44939Y392636D01*
X44833Y392509D01*
X44728Y392375D01*
X44629Y392234D01*
X44537Y392079D01*
X44530Y392071D01*
X44516Y392043D01*
X44495Y391994D01*
X44466Y391930D01*
X44431Y391852D01*
X44389Y391761D01*
X44346Y391648D01*
X44304Y391528D01*
X44261Y391394D01*
X44219Y391245D01*
X44177Y391090D01*
X44141Y390928D01*
X44113Y390758D01*
X44092Y390574D01*
X44078Y390384D01*
X44071Y390193D01*
Y393837D01*
X47580D01*
X47510Y393830D01*
D02*
G37*
G36*
X47940Y391909D02*
X48032Y391902D01*
X48131Y391888D01*
X48244Y391874D01*
X48364Y391852D01*
X48491Y391831D01*
X48625Y391796D01*
X48759Y391754D01*
X48894Y391704D01*
X49028Y391648D01*
X49148Y391584D01*
X49268Y391507D01*
X49381Y391422D01*
X49388Y391415D01*
X49402Y391401D01*
X49430Y391372D01*
X49466Y391330D01*
X49508Y391281D01*
X49557Y391224D01*
X49607Y391153D01*
X49656Y391083D01*
X49713Y390998D01*
X49762Y390899D01*
X49812Y390800D01*
X49854Y390695D01*
X49889Y390574D01*
X49917Y390454D01*
X49932Y390327D01*
X49939Y390193D01*
Y390158D01*
X49932Y390122D01*
Y390073D01*
X49925Y390009D01*
X49910Y389932D01*
X49889Y389854D01*
X49868Y389762D01*
X49840Y389671D01*
X49805Y389572D01*
X49755Y389466D01*
X49706Y389367D01*
X49642Y389261D01*
X49564Y389162D01*
X49480Y389056D01*
X49381Y388965D01*
X49374Y388957D01*
X49353Y388943D01*
X49324Y388915D01*
X49275Y388887D01*
X49218Y388852D01*
X49148Y388809D01*
X49063Y388760D01*
X48971Y388710D01*
X48858Y388668D01*
X48738Y388619D01*
X48604Y388576D01*
X48463Y388541D01*
X48300Y388513D01*
X48131Y388484D01*
X47947Y388470D01*
X47757Y388463D01*
X47743D01*
X47707D01*
X47658D01*
X47587Y388470D01*
X47495Y388477D01*
X47397Y388491D01*
X47291Y388506D01*
X47171Y388527D01*
X47044Y388555D01*
X46909Y388583D01*
X46775Y388625D01*
X46648Y388675D01*
X46514Y388731D01*
X46387Y388802D01*
X46274Y388873D01*
X46161Y388965D01*
X46154Y388971D01*
X46140Y388986D01*
X46111Y389014D01*
X46069Y389056D01*
X46027Y389099D01*
X45984Y389162D01*
X45928Y389226D01*
X45879Y389303D01*
X45829Y389388D01*
X45773Y389480D01*
X45730Y389586D01*
X45681Y389692D01*
X45645Y389805D01*
X45617Y389932D01*
X45603Y390059D01*
X45596Y390193D01*
Y390264D01*
X45603Y390313D01*
X45610Y390377D01*
X45624Y390447D01*
X45645Y390532D01*
X45667Y390617D01*
X45695Y390716D01*
X45730Y390815D01*
X45780Y390913D01*
X45836Y391019D01*
X45900Y391125D01*
X45977Y391224D01*
X46062Y391323D01*
X46161Y391422D01*
X46168Y391429D01*
X46189Y391443D01*
X46217Y391464D01*
X46267Y391499D01*
X46323Y391535D01*
X46394Y391577D01*
X46479Y391619D01*
X46571Y391669D01*
X46676Y391711D01*
X46796Y391761D01*
X46931Y391803D01*
X47072Y391838D01*
X47234Y391874D01*
X47397Y391895D01*
X47580Y391909D01*
X47771Y391916D01*
X47785D01*
X47820D01*
X47870D01*
X47940Y391909D01*
D02*
G37*
G36*
X63522Y382341D02*
X63514Y382419D01*
X63507Y382518D01*
X63493Y382638D01*
X63479Y382772D01*
X63451Y382927D01*
X63423Y383097D01*
X63380Y383273D01*
X63324Y383457D01*
X63260Y383640D01*
X63183Y383824D01*
X63091Y384007D01*
X62985Y384184D01*
X62858Y384347D01*
X62717Y384502D01*
X62710Y384509D01*
X62681Y384537D01*
X62632Y384572D01*
X62568Y384622D01*
X62484Y384678D01*
X62378Y384749D01*
X62258Y384820D01*
X62116Y384890D01*
X61954Y384961D01*
X61778Y385031D01*
X61587Y385095D01*
X61368Y385159D01*
X61142Y385208D01*
X60888Y385243D01*
X60619Y385271D01*
X60337Y385279D01*
X63522D01*
Y382341D01*
D02*
G37*
G36*
X45963Y378027D02*
X45956Y377935D01*
Y377829D01*
X45949Y377709D01*
X45942Y377589D01*
X45928Y377328D01*
X45900Y377073D01*
X45886Y376953D01*
X45864Y376840D01*
X45843Y376749D01*
X45815Y376664D01*
Y376657D01*
X45808Y376643D01*
X45801Y376629D01*
X45787Y376600D01*
X45751Y376530D01*
X45695Y376438D01*
X45631Y376339D01*
X45547Y376233D01*
X45448Y376134D01*
X45335Y376043D01*
X45328D01*
X45321Y376035D01*
X45300Y376021D01*
X45278Y376007D01*
X45208Y375972D01*
X45116Y375929D01*
X45003Y375887D01*
X44876Y375852D01*
X44728Y375824D01*
X44572Y375816D01*
X44565D01*
X44551D01*
X44523D01*
X44480Y375824D01*
X44438D01*
X44381Y375831D01*
X44261Y375859D01*
X44120Y375894D01*
X43972Y375951D01*
X43824Y376028D01*
X43753Y376078D01*
X43689Y376134D01*
X43682D01*
X43675Y376148D01*
X43633Y376191D01*
X43576Y376254D01*
X43506Y376346D01*
X43435Y376466D01*
X43365Y376600D01*
X43301Y376756D01*
X43259Y376925D01*
Y376939D01*
X43252Y376968D01*
X43245Y376996D01*
Y377038D01*
X43238Y377095D01*
X43231Y377158D01*
X43224Y377236D01*
X43216Y377328D01*
X43209Y377426D01*
X43202Y377539D01*
Y377674D01*
X43195Y377815D01*
X43188Y377977D01*
Y379291D01*
X45963D01*
Y378027D01*
D02*
G37*
G36*
X63514Y375146D02*
X63507Y375202D01*
Y375273D01*
X63493Y375365D01*
X63486Y375471D01*
X63465Y375591D01*
X63437Y375718D01*
X63409Y375852D01*
X63366Y375993D01*
X63324Y376134D01*
X63267Y376275D01*
X63197Y376417D01*
X63119Y376558D01*
X63027Y376692D01*
X62921Y376812D01*
X62914Y376819D01*
X62893Y376840D01*
X62858Y376869D01*
X62815Y376911D01*
X62759Y376960D01*
X62688Y377010D01*
X62604Y377066D01*
X62512Y377123D01*
X62406Y377186D01*
X62293Y377243D01*
X62173Y377292D01*
X62039Y377342D01*
X61898Y377384D01*
X61749Y377412D01*
X61587Y377434D01*
X61424Y377441D01*
X63514D01*
Y375146D01*
D02*
G37*
G36*
X61297Y375562D02*
X61375Y375555D01*
X61467Y375534D01*
X61573Y375499D01*
X61686Y375449D01*
X61799Y375379D01*
X61912Y375280D01*
X61926Y375266D01*
X61954Y375230D01*
X62003Y375167D01*
X62053Y375075D01*
X62102Y374969D01*
X62152Y374842D01*
X62180Y374701D01*
X62194Y374538D01*
Y374489D01*
X62187Y374454D01*
Y374404D01*
X62173Y374355D01*
X62152Y374228D01*
X62109Y374080D01*
X62053Y373917D01*
X61968Y373748D01*
X61919Y373656D01*
X61862Y373571D01*
Y373564D01*
X61848Y373557D01*
X61820Y373515D01*
X61763Y373458D01*
X61693Y373387D01*
X61601Y373310D01*
X61495Y373239D01*
X61375Y373176D01*
X61248Y373126D01*
X61234Y373119D01*
X61199Y373112D01*
X61170Y373105D01*
X61135Y373098D01*
X61093Y373091D01*
X61043Y373084D01*
X60987Y373077D01*
X60916Y373070D01*
X60845D01*
X60761Y373063D01*
X60669Y373056D01*
X60563Y373049D01*
X60450D01*
X60330D01*
X59956D01*
Y373056D01*
X59963Y373063D01*
X59970Y373084D01*
X59977Y373119D01*
X59991Y373154D01*
X60005Y373204D01*
X60019Y373260D01*
X60033Y373324D01*
X60054Y373402D01*
X60076Y373486D01*
X60104Y373578D01*
X60125Y373684D01*
X60153Y373797D01*
X60182Y373917D01*
X60217Y374051D01*
X60245Y374192D01*
Y374199D01*
X60252Y374228D01*
X60259Y374263D01*
X60273Y374319D01*
X60288Y374383D01*
X60309Y374454D01*
X60351Y374609D01*
X60401Y374779D01*
X60450Y374948D01*
X60485Y375026D01*
X60514Y375096D01*
X60542Y375160D01*
X60570Y375209D01*
Y375216D01*
X60584Y375223D01*
X60619Y375266D01*
X60676Y375322D01*
X60754Y375386D01*
X60845Y375456D01*
X60958Y375513D01*
X61093Y375555D01*
X61163Y375562D01*
X61234Y375569D01*
X61241D01*
X61248D01*
X61269D01*
X61297Y375562D01*
D02*
G37*
G36*
X39406Y366086D02*
X32352D01*
X32366Y366100D01*
X32394Y366136D01*
X32444Y366192D01*
X32507Y366270D01*
X32585Y366369D01*
X32677Y366482D01*
X32783Y366623D01*
X32889Y366771D01*
X33002Y366941D01*
X33122Y367131D01*
X33242Y367329D01*
X33355Y367541D01*
X33468Y367767D01*
X33581Y368000D01*
X33679Y368247D01*
X33771Y368501D01*
X39406D01*
Y366086D01*
D02*
G37*
G36*
X63352Y365225D02*
X59483D01*
X59468D01*
X59440D01*
X59384D01*
X59313D01*
X59235D01*
X59144Y365232D01*
X59038D01*
X58932Y365239D01*
X58706Y365253D01*
X58487Y365267D01*
X58388Y365281D01*
X58296Y365295D01*
X58219Y365309D01*
X58155Y365331D01*
X58148D01*
X58141Y365338D01*
X58106Y365352D01*
X58049Y365373D01*
X57986Y365408D01*
X57908Y365451D01*
X57837Y365500D01*
X57767Y365564D01*
X57703Y365641D01*
X57696Y365648D01*
X57682Y365677D01*
X57654Y365726D01*
X57625Y365790D01*
X57604Y365867D01*
X57576Y365966D01*
X57562Y366079D01*
X57555Y366206D01*
Y366277D01*
X57562Y366319D01*
X57569Y366362D01*
X57583Y366468D01*
X57611Y366587D01*
X57654Y366722D01*
X57710Y366856D01*
X57788Y366990D01*
Y366997D01*
X57802Y367004D01*
X57830Y367047D01*
X57887Y367110D01*
X57957Y367181D01*
X58056Y367265D01*
X58169Y367343D01*
X58310Y367421D01*
X58466Y367484D01*
X58473D01*
X58487Y367491D01*
X58515Y367498D01*
X58551Y367505D01*
X58600Y367520D01*
X58656Y367534D01*
X58727Y367548D01*
X58812Y367555D01*
X58904Y367569D01*
X59016Y367583D01*
X59130Y367597D01*
X59264Y367611D01*
X59405Y367618D01*
X59567Y367626D01*
X59737Y367633D01*
X59920D01*
X63352D01*
Y365225D01*
D02*
G37*
G36*
Y360967D02*
X59313D01*
X59299D01*
X59264D01*
X59214D01*
X59144D01*
X59059Y360974D01*
X58967D01*
X58861Y360981D01*
X58748Y360988D01*
X58522Y361016D01*
X58296Y361052D01*
X58197Y361073D01*
X58106Y361101D01*
X58021Y361129D01*
X57957Y361165D01*
X57950D01*
X57943Y361179D01*
X57922Y361193D01*
X57894Y361214D01*
X57830Y361278D01*
X57753Y361362D01*
X57682Y361475D01*
X57618Y361609D01*
X57590Y361687D01*
X57569Y361772D01*
X57562Y361864D01*
X57555Y361962D01*
Y362026D01*
X57569Y362104D01*
X57583Y362202D01*
X57611Y362315D01*
X57654Y362443D01*
X57717Y362570D01*
X57795Y362704D01*
Y362711D01*
X57809Y362718D01*
X57837Y362760D01*
X57894Y362824D01*
X57972Y362895D01*
X58070Y362979D01*
X58190Y363064D01*
X58339Y363142D01*
X58501Y363205D01*
X58508D01*
X58522Y363212D01*
X58551Y363219D01*
X58586Y363226D01*
X58635Y363241D01*
X58699Y363255D01*
X58769Y363269D01*
X58854Y363276D01*
X58953Y363290D01*
X59059Y363304D01*
X59179Y363318D01*
X59313Y363332D01*
X59454Y363339D01*
X59610Y363346D01*
X59779Y363354D01*
X59963D01*
X63352D01*
Y360967D01*
D02*
G37*
G36*
X49247Y358665D02*
X49324Y358658D01*
X49416Y358637D01*
X49522Y358601D01*
X49635Y358552D01*
X49748Y358481D01*
X49861Y358382D01*
X49875Y358368D01*
X49903Y358333D01*
X49953Y358269D01*
X50002Y358178D01*
X50052Y358072D01*
X50101Y357945D01*
X50129Y357803D01*
X50143Y357641D01*
Y357592D01*
X50136Y357556D01*
Y357507D01*
X50122Y357457D01*
X50101Y357330D01*
X50059Y357182D01*
X50002Y357020D01*
X49917Y356850D01*
X49868Y356758D01*
X49812Y356674D01*
Y356666D01*
X49797Y356660D01*
X49769Y356617D01*
X49713Y356561D01*
X49642Y356490D01*
X49550Y356412D01*
X49444Y356342D01*
X49324Y356278D01*
X49197Y356229D01*
X49183Y356222D01*
X49148Y356215D01*
X49120Y356208D01*
X49084Y356200D01*
X49042Y356193D01*
X48993Y356186D01*
X48936Y356179D01*
X48865Y356172D01*
X48795D01*
X48710Y356165D01*
X48618Y356158D01*
X48512Y356151D01*
X48399D01*
X48279D01*
X47905D01*
Y356158D01*
X47912Y356165D01*
X47919Y356186D01*
X47926Y356222D01*
X47940Y356257D01*
X47955Y356306D01*
X47969Y356363D01*
X47983Y356427D01*
X48004Y356504D01*
X48025Y356589D01*
X48053Y356681D01*
X48074Y356787D01*
X48103Y356900D01*
X48131Y357020D01*
X48166Y357154D01*
X48194Y357295D01*
Y357302D01*
X48202Y357330D01*
X48209Y357366D01*
X48223Y357422D01*
X48237Y357486D01*
X48258Y357556D01*
X48300Y357712D01*
X48350Y357881D01*
X48399Y358050D01*
X48435Y358128D01*
X48463Y358199D01*
X48491Y358262D01*
X48519Y358312D01*
Y358319D01*
X48534Y358326D01*
X48569Y358368D01*
X48625Y358425D01*
X48703Y358488D01*
X48795Y358559D01*
X48908Y358615D01*
X49042Y358658D01*
X49113Y358665D01*
X49183Y358672D01*
X49190D01*
X49197D01*
X49218D01*
X49247Y358665D01*
D02*
G37*
G36*
X49275Y360536D02*
X49218D01*
X49162Y360529D01*
X49091Y360522D01*
X49014Y360508D01*
X48851Y360472D01*
X48668Y360423D01*
X48484Y360353D01*
X48307Y360261D01*
X48300Y360254D01*
X48286Y360247D01*
X48265Y360233D01*
X48230Y360204D01*
X48145Y360141D01*
X48039Y360049D01*
X47926Y359936D01*
X47806Y359802D01*
X47686Y359639D01*
X47587Y359456D01*
Y359449D01*
X47573Y359435D01*
X47559Y359399D01*
X47545Y359357D01*
X47524Y359307D01*
X47495Y359244D01*
X47467Y359166D01*
X47439Y359074D01*
X47404Y358976D01*
X47368Y358870D01*
X47333Y358742D01*
X47298Y358615D01*
X47255Y358467D01*
X47220Y358312D01*
X47185Y358149D01*
X47150Y357973D01*
Y357959D01*
X47135Y357916D01*
X47128Y357846D01*
X47107Y357761D01*
X47086Y357655D01*
X47058Y357528D01*
X47029Y357394D01*
X47001Y357253D01*
X46923Y356949D01*
X46846Y356652D01*
X46810Y356511D01*
X46768Y356377D01*
X46726Y356257D01*
X46683Y356151D01*
X46500D01*
X46493D01*
X46479D01*
X46450D01*
X46415Y356158D01*
X46366D01*
X46316Y356165D01*
X46203Y356186D01*
X46076Y356215D01*
X45949Y356264D01*
X45836Y356328D01*
X45780Y356370D01*
X45737Y356419D01*
X45730Y356433D01*
X45716Y356448D01*
X45702Y356476D01*
X45681Y356504D01*
X45667Y356539D01*
X45645Y356589D01*
X45617Y356645D01*
X45596Y356709D01*
X45575Y356780D01*
X45561Y356864D01*
X45539Y356956D01*
X45525Y357055D01*
X45511Y357168D01*
X45504Y357288D01*
Y357507D01*
X45511Y357549D01*
Y357599D01*
X45525Y357705D01*
X45554Y357832D01*
X45589Y357966D01*
X45638Y358093D01*
X45702Y358206D01*
X45709Y358220D01*
X45737Y358248D01*
X45787Y358305D01*
X45864Y358361D01*
X45956Y358432D01*
X46076Y358509D01*
X46217Y358580D01*
X46387Y358651D01*
X46083Y360353D01*
X46069Y360345D01*
X46041Y360338D01*
X45984Y360324D01*
X45914Y360296D01*
X45829Y360268D01*
X45730Y360225D01*
X45624Y360176D01*
X45511Y360126D01*
X45384Y360063D01*
X45264Y359985D01*
X45137Y359908D01*
X45010Y359816D01*
X44890Y359724D01*
X44770Y359611D01*
X44664Y359498D01*
X44565Y359371D01*
X44558Y359364D01*
X44544Y359336D01*
X44523Y359293D01*
X44487Y359237D01*
X44452Y359166D01*
X44410Y359074D01*
X44360Y358969D01*
X44318Y358848D01*
X44268Y358707D01*
X44226Y358552D01*
X44184Y358382D01*
X44149Y358192D01*
X44113Y357994D01*
X44092Y357775D01*
X44078Y357535D01*
X44071Y357288D01*
Y360543D01*
X49317D01*
X49275Y360536D01*
D02*
G37*
G36*
X63514Y354428D02*
X63507Y354478D01*
Y354527D01*
X63500Y354584D01*
X63493Y354654D01*
X63479Y354809D01*
X63451Y354979D01*
X63416Y355177D01*
X63366Y355388D01*
X63303Y355607D01*
X63218Y355833D01*
X63126Y356059D01*
X63006Y356285D01*
X62872Y356504D01*
X62710Y356709D01*
X62526Y356907D01*
X62314Y357083D01*
X62300Y357090D01*
X62272Y357111D01*
X62215Y357147D01*
X62138Y357189D01*
X62046Y357246D01*
X61933Y357302D01*
X61799Y357366D01*
X61643Y357429D01*
X61481Y357500D01*
X61297Y357563D01*
X61093Y357620D01*
X60881Y357669D01*
X60648Y357719D01*
X60408Y357754D01*
X60146Y357775D01*
X59878Y357782D01*
X63514D01*
Y354428D01*
D02*
G37*
G36*
X59214Y353030D02*
X59207D01*
X59179D01*
X59137Y353037D01*
X59080D01*
X59009Y353044D01*
X58932Y353058D01*
X58847Y353072D01*
X58755Y353094D01*
X58558Y353143D01*
X58353Y353221D01*
X58247Y353263D01*
X58155Y353320D01*
X58063Y353383D01*
X57979Y353454D01*
X57972Y353461D01*
X57957Y353475D01*
X57936Y353496D01*
X57915Y353524D01*
X57880Y353567D01*
X57844Y353609D01*
X57809Y353666D01*
X57767Y353729D01*
X57689Y353870D01*
X57618Y354033D01*
X57597Y354124D01*
X57576Y354223D01*
X57562Y354322D01*
X57555Y354428D01*
Y354485D01*
X57562Y354527D01*
X57569Y354584D01*
X57576Y354640D01*
X57590Y354711D01*
X57611Y354781D01*
X57668Y354944D01*
X57703Y355028D01*
X57745Y355113D01*
X57795Y355198D01*
X57859Y355275D01*
X57929Y355360D01*
X58007Y355438D01*
X58014Y355445D01*
X58028Y355452D01*
X58049Y355473D01*
X58085Y355501D01*
X58134Y355530D01*
X58190Y355565D01*
X58254Y355600D01*
X58324Y355636D01*
X58409Y355678D01*
X58494Y355713D01*
X58593Y355742D01*
X58706Y355777D01*
X58819Y355798D01*
X58946Y355819D01*
X59073Y355833D01*
X59214D01*
Y353030D01*
D02*
G37*
G36*
X63514Y346986D02*
X63507Y347063D01*
Y347162D01*
X63493Y347282D01*
X63486Y347423D01*
X63465Y347579D01*
X63444Y347748D01*
X63409Y347932D01*
X63373Y348115D01*
X63324Y348306D01*
X63267Y348504D01*
X63197Y348687D01*
X63119Y348878D01*
X63034Y349055D01*
X62928Y349217D01*
X62921Y349224D01*
X62900Y349252D01*
X62865Y349295D01*
X62822Y349351D01*
X62759Y349422D01*
X62688Y349499D01*
X62604Y349577D01*
X62512Y349669D01*
X62399Y349761D01*
X62279Y349852D01*
X62152Y349944D01*
X62010Y350036D01*
X61855Y350114D01*
X61693Y350191D01*
X61516Y350255D01*
X61333Y350312D01*
X63514D01*
Y346986D01*
D02*
G37*
G36*
X47707Y349217D02*
X47658D01*
X47601D01*
X47538Y349210D01*
X47390Y349196D01*
X47220Y349175D01*
X47029Y349146D01*
X46825Y349111D01*
X46606Y349062D01*
X46380Y348998D01*
X46154Y348927D01*
X45921Y348836D01*
X45695Y348730D01*
X45476Y348610D01*
X45271Y348469D01*
X45073Y348306D01*
X45059Y348292D01*
X45031Y348264D01*
X44982Y348214D01*
X44918Y348144D01*
X44840Y348052D01*
X44756Y347939D01*
X44664Y347812D01*
X44572Y347671D01*
X44480Y347508D01*
X44389Y347339D01*
X44304Y347141D01*
X44226Y346936D01*
X44163Y346717D01*
X44113Y346484D01*
X44085Y346237D01*
X44071Y345983D01*
Y349224D01*
X47750D01*
X47707Y349217D01*
D02*
G37*
G36*
X47164Y344472D02*
X47157D01*
X47128D01*
X47086Y344479D01*
X47029D01*
X46959Y344486D01*
X46881Y344500D01*
X46796Y344514D01*
X46705Y344535D01*
X46507Y344585D01*
X46302Y344663D01*
X46196Y344705D01*
X46104Y344761D01*
X46013Y344825D01*
X45928Y344896D01*
X45921Y344903D01*
X45907Y344917D01*
X45886Y344938D01*
X45864Y344966D01*
X45829Y345009D01*
X45794Y345051D01*
X45758Y345107D01*
X45716Y345171D01*
X45638Y345312D01*
X45568Y345475D01*
X45547Y345566D01*
X45525Y345665D01*
X45511Y345764D01*
X45504Y345870D01*
Y345927D01*
X45511Y345969D01*
X45518Y346025D01*
X45525Y346082D01*
X45539Y346152D01*
X45561Y346223D01*
X45617Y346385D01*
X45652Y346470D01*
X45695Y346555D01*
X45744Y346640D01*
X45808Y346717D01*
X45879Y346802D01*
X45956Y346880D01*
X45963Y346887D01*
X45977Y346894D01*
X45999Y346915D01*
X46034Y346943D01*
X46083Y346972D01*
X46140Y347007D01*
X46203Y347042D01*
X46274Y347077D01*
X46359Y347120D01*
X46443Y347155D01*
X46542Y347183D01*
X46655Y347219D01*
X46768Y347240D01*
X46895Y347261D01*
X47022Y347275D01*
X47164D01*
Y344472D01*
D02*
G37*
M02*
