G04*
G04 #@! TF.GenerationSoftware,Altium Limited,Altium Designer,24.9.1 (31)*
G04*
G04 Layer_Color=8388736*
%FSLAX25Y25*%
%MOIN*%
G70*
G04*
G04 #@! TF.SameCoordinates,6CE62DF4-74A3-4477-B2B1-5A016BC00F72*
G04*
G04*
G04 #@! TF.FilePolarity,Negative*
G04*
G01*
G75*
%ADD15R,0.06102X0.01181*%
%ADD16R,0.10827X0.04724*%
%ADD17R,0.04724X0.01575*%
%ADD18R,0.02953X0.03543*%
%ADD22R,0.04134X0.03937*%
%ADD23R,0.08661X0.04134*%
%ADD24R,0.03543X0.02953*%
G04:AMPARAMS|DCode=27|XSize=43.31mil|YSize=23.62mil|CornerRadius=2.01mil|HoleSize=0mil|Usage=FLASHONLY|Rotation=270.000|XOffset=0mil|YOffset=0mil|HoleType=Round|Shape=RoundedRectangle|*
%AMROUNDEDRECTD27*
21,1,0.04331,0.01961,0,0,270.0*
21,1,0.03929,0.02362,0,0,270.0*
1,1,0.00402,-0.00980,-0.01965*
1,1,0.00402,-0.00980,0.01965*
1,1,0.00402,0.00980,0.01965*
1,1,0.00402,0.00980,-0.01965*
%
%ADD27ROUNDEDRECTD27*%
%ADD29R,0.03347X0.01181*%
%ADD30R,0.01181X0.03347*%
%ADD32R,0.05787X0.05059*%
%ADD33R,0.03937X0.02362*%
%ADD34R,0.04528X0.01181*%
%ADD36R,0.02559X0.01063*%
%ADD39R,0.02165X0.04331*%
%ADD40R,0.02756X0.03543*%
%ADD41R,0.06299X0.04724*%
%ADD42R,0.05118X0.07480*%
%ADD43R,0.02756X0.06496*%
%ADD44R,0.09134X0.04409*%
%ADD45R,0.03937X0.03740*%
%ADD46R,0.03740X0.03937*%
%ADD47R,0.03543X0.02756*%
%ADD48R,0.12992X0.12992*%
%ADD49R,0.03543X0.03543*%
%ADD50C,0.06299*%
%ADD51C,0.04331*%
%ADD52C,0.21260*%
%ADD53C,0.02559*%
G04:AMPARAMS|DCode=54|XSize=39.37mil|YSize=82.68mil|CornerRadius=19.68mil|HoleSize=0mil|Usage=FLASHONLY|Rotation=270.000|XOffset=0mil|YOffset=0mil|HoleType=Round|Shape=RoundedRectangle|*
%AMROUNDEDRECTD54*
21,1,0.03937,0.04331,0,0,270.0*
21,1,0.00000,0.08268,0,0,270.0*
1,1,0.03937,-0.02165,0.00000*
1,1,0.03937,-0.02165,0.00000*
1,1,0.03937,0.02165,0.00000*
1,1,0.03937,0.02165,0.00000*
%
%ADD54ROUNDEDRECTD54*%
G04:AMPARAMS|DCode=55|XSize=39.37mil|YSize=70.87mil|CornerRadius=19.68mil|HoleSize=0mil|Usage=FLASHONLY|Rotation=270.000|XOffset=0mil|YOffset=0mil|HoleType=Round|Shape=RoundedRectangle|*
%AMROUNDEDRECTD55*
21,1,0.03937,0.03150,0,0,270.0*
21,1,0.00000,0.07087,0,0,270.0*
1,1,0.03937,-0.01575,0.00000*
1,1,0.03937,-0.01575,0.00000*
1,1,0.03937,0.01575,0.00000*
1,1,0.03937,0.01575,0.00000*
%
%ADD55ROUNDEDRECTD55*%
%ADD56C,0.20000*%
G36*
X35075Y53901D02*
X25854D01*
Y58303D01*
X35075D01*
Y53901D01*
D02*
G37*
G36*
X22177D02*
X12957D01*
Y58303D01*
X22177D01*
Y53901D01*
D02*
G37*
G36*
X35075Y46027D02*
X25854D01*
Y50429D01*
X35075D01*
Y46027D01*
D02*
G37*
G36*
X22177D02*
X12957D01*
Y50429D01*
X22177D01*
Y46027D01*
D02*
G37*
G36*
X35075Y38153D02*
X25854D01*
Y42555D01*
X35075D01*
Y38153D01*
D02*
G37*
G36*
X22177D02*
X12957D01*
Y42555D01*
X22177D01*
Y38153D01*
D02*
G37*
G36*
X35075Y30279D02*
X25854D01*
Y34681D01*
X35075D01*
Y30279D01*
D02*
G37*
G36*
X22177D02*
X12957D01*
Y34681D01*
X22177D01*
Y30279D01*
D02*
G37*
G36*
X201308Y14643D02*
X200603D01*
Y15409D01*
X201308D01*
Y14643D01*
D02*
G37*
G36*
X233779Y14459D02*
Y14428D01*
Y14306D01*
X232309D01*
Y15562D01*
X233779D01*
Y14459D01*
D02*
G37*
G36*
X207802Y13663D02*
X207955D01*
Y13632D01*
X208108D01*
Y13601D01*
X208169D01*
Y13571D01*
X208261D01*
Y13540D01*
X208323D01*
Y13509D01*
X208384D01*
Y13479D01*
X208445D01*
Y13448D01*
X208506D01*
Y13417D01*
X208568D01*
Y13387D01*
X208598D01*
Y13356D01*
X208629D01*
Y13326D01*
X208690D01*
Y13295D01*
X208721D01*
Y13264D01*
X208752D01*
Y13234D01*
X208782D01*
Y13203D01*
X208813D01*
Y13172D01*
X208843D01*
Y13142D01*
X208874D01*
Y13111D01*
X208905D01*
Y13081D01*
X208935D01*
Y13050D01*
X208966D01*
Y13019D01*
X208997D01*
Y12958D01*
X209027D01*
Y12927D01*
X209058D01*
Y12866D01*
X209088D01*
Y12805D01*
X209119D01*
Y12743D01*
X209150D01*
Y12682D01*
X209180D01*
Y12621D01*
X209211D01*
Y12529D01*
X209242D01*
Y12437D01*
X209272D01*
Y12345D01*
X209303D01*
Y12192D01*
X209333D01*
Y12008D01*
X209364D01*
Y8792D01*
X208752D01*
Y11947D01*
X208721D01*
Y12100D01*
X208690D01*
Y12253D01*
X208660D01*
Y12345D01*
X208629D01*
Y12406D01*
X208598D01*
Y12468D01*
X208568D01*
Y12529D01*
X208537D01*
Y12590D01*
X208506D01*
Y12621D01*
X208476D01*
Y12682D01*
X208445D01*
Y12713D01*
X208415D01*
Y12774D01*
X208384D01*
Y12805D01*
X208353D01*
Y12835D01*
X208292D01*
Y12866D01*
X208261D01*
Y12897D01*
X208231D01*
Y12927D01*
X208169D01*
Y12958D01*
X208139D01*
Y12989D01*
X208078D01*
Y13019D01*
X208016D01*
Y13050D01*
X207924D01*
Y13081D01*
X207802D01*
Y13111D01*
X207649D01*
Y13142D01*
X207312D01*
Y13111D01*
X207128D01*
Y13081D01*
X207036D01*
Y13050D01*
X206944D01*
Y13019D01*
X206883D01*
Y12989D01*
X206822D01*
Y12958D01*
X206760D01*
Y12927D01*
X206699D01*
Y12897D01*
X206668D01*
Y12866D01*
X206638D01*
Y12835D01*
X206607D01*
Y12805D01*
X206576D01*
Y12774D01*
X206515D01*
Y12743D01*
X206485D01*
Y12682D01*
X206454D01*
Y12652D01*
X206423D01*
Y12621D01*
X206393D01*
Y12590D01*
X206362D01*
Y12529D01*
X206331D01*
Y12498D01*
X206301D01*
Y12437D01*
X206270D01*
Y12376D01*
X206240D01*
Y12315D01*
X206209D01*
Y12253D01*
X206178D01*
Y12162D01*
X206148D01*
Y12039D01*
X206117D01*
Y11886D01*
X206086D01*
Y9803D01*
Y9772D01*
Y8792D01*
X205474D01*
Y11855D01*
X205443D01*
Y12100D01*
X205412D01*
Y12223D01*
X205382D01*
Y12315D01*
X205351D01*
Y12406D01*
X205321D01*
Y12468D01*
X205290D01*
Y12529D01*
X205259D01*
Y12590D01*
X205229D01*
Y12621D01*
X205198D01*
Y12652D01*
X205167D01*
Y12713D01*
X205137D01*
Y12743D01*
X205106D01*
Y12774D01*
X205076D01*
Y12805D01*
X205045D01*
Y12835D01*
X205014D01*
Y12866D01*
X204984D01*
Y12897D01*
X204953D01*
Y12927D01*
X204892D01*
Y12958D01*
X204861D01*
Y12989D01*
X204800D01*
Y13019D01*
X204738D01*
Y13050D01*
X204647D01*
Y13081D01*
X204524D01*
Y13111D01*
X204371D01*
Y13142D01*
X204034D01*
Y13111D01*
X203881D01*
Y13081D01*
X203758D01*
Y13050D01*
X203697D01*
Y13019D01*
X203636D01*
Y12989D01*
X203574D01*
Y12958D01*
X203513D01*
Y12927D01*
X203483D01*
Y12897D01*
X203421D01*
Y12866D01*
X203391D01*
Y12835D01*
X203360D01*
Y12805D01*
X203299D01*
Y12774D01*
X203268D01*
Y12743D01*
X203238D01*
Y12713D01*
X203207D01*
Y12652D01*
X203176D01*
Y12621D01*
X203146D01*
Y12590D01*
X203115D01*
Y12529D01*
X203084D01*
Y12498D01*
X203054D01*
Y12468D01*
X203023D01*
Y12406D01*
X202992D01*
Y12345D01*
X202962D01*
Y12284D01*
X202931D01*
Y12192D01*
X202901D01*
Y12131D01*
X202870D01*
Y12039D01*
X202839D01*
Y11886D01*
X202809D01*
Y8792D01*
X202196D01*
Y13601D01*
X202809D01*
Y12958D01*
X202839D01*
Y13019D01*
X202870D01*
Y13081D01*
X202901D01*
Y13111D01*
X202931D01*
Y13142D01*
X202962D01*
Y13172D01*
X202992D01*
Y13203D01*
X203023D01*
Y13234D01*
X203054D01*
Y13264D01*
X203084D01*
Y13295D01*
X203115D01*
Y13326D01*
X203176D01*
Y13356D01*
X203207D01*
Y13387D01*
X203238D01*
Y13417D01*
X203299D01*
Y13448D01*
X203329D01*
Y13479D01*
X203391D01*
Y13509D01*
X203452D01*
Y13540D01*
X203513D01*
Y13571D01*
X203605D01*
Y13601D01*
X203666D01*
Y13632D01*
X203819D01*
Y13663D01*
X203942D01*
Y13693D01*
X204555D01*
Y13663D01*
X204708D01*
Y13632D01*
X204830D01*
Y13601D01*
X204922D01*
Y13571D01*
X204984D01*
Y13540D01*
X205076D01*
Y13509D01*
X205106D01*
Y13479D01*
X205167D01*
Y13448D01*
X205229D01*
Y13417D01*
X205290D01*
Y13387D01*
X205321D01*
Y13356D01*
X205351D01*
Y13326D01*
X205382D01*
Y13295D01*
X205443D01*
Y13264D01*
X205474D01*
Y13234D01*
X205504D01*
Y13203D01*
X205535D01*
Y13172D01*
X205566D01*
Y13142D01*
X205596D01*
Y13081D01*
X205627D01*
Y13050D01*
X205658D01*
Y13019D01*
X205688D01*
Y12989D01*
X205719D01*
Y12927D01*
X205749D01*
Y12866D01*
X205780D01*
Y12805D01*
X205811D01*
Y12713D01*
X205841D01*
Y12774D01*
X205872D01*
Y12835D01*
X205903D01*
Y12897D01*
X205933D01*
Y12958D01*
X205964D01*
Y12989D01*
X205995D01*
Y13019D01*
X206025D01*
Y13050D01*
X206056D01*
Y13081D01*
X206086D01*
Y13111D01*
X206117D01*
Y13142D01*
X206148D01*
Y13172D01*
X206178D01*
Y13234D01*
X206240D01*
Y13264D01*
X206270D01*
Y13295D01*
X206301D01*
Y13326D01*
X206362D01*
Y13356D01*
X206393D01*
Y13387D01*
X206423D01*
Y13417D01*
X206485D01*
Y13448D01*
X206546D01*
Y13479D01*
X206607D01*
Y13509D01*
X206638D01*
Y13540D01*
X206730D01*
Y13571D01*
X206822D01*
Y13601D01*
X206883D01*
Y13632D01*
X207036D01*
Y13663D01*
X207158D01*
Y13693D01*
X207802D01*
Y13663D01*
D02*
G37*
G36*
X237424Y13816D02*
X237669D01*
Y13785D01*
X237792D01*
Y13754D01*
X237914D01*
Y13724D01*
X238006D01*
Y13693D01*
X238098D01*
Y13663D01*
X238160D01*
Y13632D01*
X238221D01*
Y13601D01*
X238282D01*
Y13571D01*
X238343D01*
Y13540D01*
X238405D01*
Y13509D01*
X238466D01*
Y13479D01*
X238496D01*
Y13448D01*
X238558D01*
Y13417D01*
X238588D01*
Y13387D01*
X238650D01*
Y13356D01*
X238680D01*
Y13326D01*
X238711D01*
Y13295D01*
X238742D01*
Y13264D01*
X238772D01*
Y13234D01*
X238833D01*
Y13203D01*
X238864D01*
Y13172D01*
X238895D01*
Y13142D01*
X238925D01*
Y13111D01*
X238956D01*
Y13081D01*
X238987D01*
Y13050D01*
X239017D01*
Y12989D01*
X238987D01*
Y12958D01*
X238956D01*
Y12927D01*
X238925D01*
Y12897D01*
X238895D01*
Y12866D01*
X238864D01*
Y12805D01*
X238833D01*
Y12774D01*
X238803D01*
Y12743D01*
X238772D01*
Y12713D01*
X238742D01*
Y12682D01*
X238711D01*
Y12652D01*
X238680D01*
Y12621D01*
X238650D01*
Y12590D01*
X238619D01*
Y12560D01*
X238588D01*
Y12529D01*
X238558D01*
Y12498D01*
X238527D01*
Y12468D01*
X238496D01*
Y12437D01*
X238466D01*
Y12376D01*
X238435D01*
Y12345D01*
X238405D01*
Y12315D01*
X238374D01*
Y12284D01*
X238343D01*
Y12253D01*
X238313D01*
Y12223D01*
X238282D01*
Y12192D01*
X238251D01*
Y12162D01*
X238221D01*
Y12131D01*
X238190D01*
Y12100D01*
X238129D01*
Y12131D01*
X238098D01*
Y12162D01*
X238068D01*
Y12192D01*
X238037D01*
Y12223D01*
X238006D01*
Y12253D01*
X237976D01*
Y12284D01*
X237945D01*
Y12315D01*
X237884D01*
Y12345D01*
X237853D01*
Y12376D01*
X237823D01*
Y12406D01*
X237761D01*
Y12437D01*
X237731D01*
Y12468D01*
X237669D01*
Y12498D01*
X237608D01*
Y12529D01*
X237547D01*
Y12560D01*
X237455D01*
Y12590D01*
X237333D01*
Y12621D01*
X236781D01*
Y12590D01*
X236659D01*
Y12560D01*
X236597D01*
Y12529D01*
X236536D01*
Y12498D01*
X236475D01*
Y12468D01*
X236414D01*
Y12437D01*
X236383D01*
Y12406D01*
X236322D01*
Y12376D01*
X236291D01*
Y12345D01*
X236260D01*
Y12315D01*
X236230D01*
Y12284D01*
X236199D01*
Y12253D01*
X236168D01*
Y12223D01*
X236138D01*
Y12162D01*
X236107D01*
Y12131D01*
X236076D01*
Y12100D01*
X236046D01*
Y12039D01*
X236015D01*
Y11978D01*
X235985D01*
Y11916D01*
X235954D01*
Y11855D01*
X235923D01*
Y11763D01*
X235893D01*
Y11641D01*
X235862D01*
Y11518D01*
X235831D01*
Y11028D01*
X235862D01*
Y10875D01*
X235893D01*
Y10752D01*
X235923D01*
Y10660D01*
X235954D01*
Y10599D01*
X235985D01*
Y10538D01*
X236015D01*
Y10477D01*
X236046D01*
Y10446D01*
X236076D01*
Y10385D01*
X236107D01*
Y10354D01*
X236138D01*
Y10323D01*
X236168D01*
Y10262D01*
X236230D01*
Y10232D01*
X236260D01*
Y10201D01*
X236291D01*
Y10170D01*
X236322D01*
Y10140D01*
X236352D01*
Y10109D01*
X236414D01*
Y10078D01*
X236444D01*
Y10048D01*
X236505D01*
Y10017D01*
X236567D01*
Y9986D01*
X236628D01*
Y9956D01*
X236720D01*
Y9925D01*
X236842D01*
Y9895D01*
X237333D01*
Y9925D01*
X237486D01*
Y9956D01*
X237578D01*
Y9986D01*
X237639D01*
Y10017D01*
X237700D01*
Y10048D01*
X237761D01*
Y10078D01*
X237823D01*
Y10109D01*
X237853D01*
Y10140D01*
X237914D01*
Y10170D01*
X237945D01*
Y10201D01*
X238006D01*
Y10232D01*
X238037D01*
Y10262D01*
X238068D01*
Y10293D01*
X238098D01*
Y10323D01*
X238160D01*
Y10354D01*
X238190D01*
Y10385D01*
X238221D01*
Y10415D01*
X238251D01*
Y10385D01*
X238282D01*
Y10354D01*
X238313D01*
Y10323D01*
X238343D01*
Y10293D01*
X238374D01*
Y10262D01*
X238405D01*
Y10232D01*
X238435D01*
Y10201D01*
X238466D01*
Y10170D01*
X238496D01*
Y10140D01*
X238527D01*
Y10109D01*
X238558D01*
Y10078D01*
X238588D01*
Y10048D01*
X238619D01*
Y10017D01*
X238650D01*
Y9986D01*
X238680D01*
Y9956D01*
X238711D01*
Y9925D01*
X238742D01*
Y9895D01*
X238772D01*
Y9864D01*
X238803D01*
Y9833D01*
X238833D01*
Y9803D01*
X238864D01*
Y9772D01*
X238895D01*
Y9741D01*
X238925D01*
Y9711D01*
X238956D01*
Y9680D01*
X238987D01*
Y9650D01*
X239017D01*
Y9619D01*
X239048D01*
Y9558D01*
X239017D01*
Y9527D01*
X238987D01*
Y9496D01*
X238956D01*
Y9466D01*
X238925D01*
Y9435D01*
X238895D01*
Y9404D01*
X238864D01*
Y9374D01*
X238833D01*
Y9343D01*
X238803D01*
Y9313D01*
X238772D01*
Y9282D01*
X238742D01*
Y9251D01*
X238680D01*
Y9221D01*
X238650D01*
Y9190D01*
X238619D01*
Y9159D01*
X238558D01*
Y9129D01*
X238527D01*
Y9098D01*
X238496D01*
Y9067D01*
X238435D01*
Y9037D01*
X238405D01*
Y9006D01*
X238343D01*
Y8976D01*
X238282D01*
Y8945D01*
X238251D01*
Y8914D01*
X238160D01*
Y8884D01*
X238098D01*
Y8853D01*
X238037D01*
Y8822D01*
X237945D01*
Y8792D01*
X237853D01*
Y8761D01*
X237731D01*
Y8731D01*
X237578D01*
Y8700D01*
X237394D01*
Y8669D01*
X236750D01*
Y8700D01*
X236505D01*
Y8731D01*
X236383D01*
Y8761D01*
X236260D01*
Y8792D01*
X236168D01*
Y8822D01*
X236076D01*
Y8853D01*
X236015D01*
Y8884D01*
X235923D01*
Y8914D01*
X235862D01*
Y8945D01*
X235801D01*
Y8976D01*
X235739D01*
Y9006D01*
X235709D01*
Y9037D01*
X235648D01*
Y9067D01*
X235586D01*
Y9098D01*
X235556D01*
Y9129D01*
X235494D01*
Y9159D01*
X235464D01*
Y9190D01*
X235433D01*
Y9221D01*
X235372D01*
Y9251D01*
X235341D01*
Y9282D01*
X235311D01*
Y9313D01*
X235280D01*
Y9343D01*
X235249D01*
Y9374D01*
X235219D01*
Y9404D01*
X235188D01*
Y9435D01*
X235157D01*
Y9466D01*
X235127D01*
Y9496D01*
X235096D01*
Y9527D01*
X235066D01*
Y9558D01*
X235035D01*
Y9588D01*
X235004D01*
Y9619D01*
X234974D01*
Y9680D01*
X234943D01*
Y9711D01*
X234912D01*
Y9741D01*
X234882D01*
Y9803D01*
X234851D01*
Y9864D01*
X234821D01*
Y9895D01*
X234790D01*
Y9956D01*
X234759D01*
Y10017D01*
X234729D01*
Y10078D01*
X234698D01*
Y10140D01*
X234667D01*
Y10201D01*
X234637D01*
Y10262D01*
X234606D01*
Y10354D01*
X234576D01*
Y10446D01*
X234545D01*
Y10538D01*
X234514D01*
Y10660D01*
X234484D01*
Y10844D01*
X234453D01*
Y11181D01*
X234422D01*
Y11334D01*
X234453D01*
Y11671D01*
X234484D01*
Y11824D01*
X234514D01*
Y11978D01*
X234545D01*
Y12070D01*
X234576D01*
Y12162D01*
X234606D01*
Y12223D01*
X234637D01*
Y12315D01*
X234667D01*
Y12376D01*
X234698D01*
Y12437D01*
X234729D01*
Y12498D01*
X234759D01*
Y12560D01*
X234790D01*
Y12621D01*
X234821D01*
Y12652D01*
X234851D01*
Y12713D01*
X234882D01*
Y12743D01*
X234912D01*
Y12805D01*
X234943D01*
Y12835D01*
X234974D01*
Y12897D01*
X235004D01*
Y12927D01*
X235035D01*
Y12958D01*
X235066D01*
Y12989D01*
X235096D01*
Y13019D01*
X235127D01*
Y13050D01*
X235157D01*
Y13081D01*
X235188D01*
Y13111D01*
X235219D01*
Y13142D01*
X235249D01*
Y13172D01*
X235280D01*
Y13203D01*
X235311D01*
Y13234D01*
X235341D01*
Y13264D01*
X235372D01*
Y13295D01*
X235433D01*
Y13326D01*
X235464D01*
Y13356D01*
X235494D01*
Y13387D01*
X235556D01*
Y13417D01*
X235586D01*
Y13448D01*
X235648D01*
Y13479D01*
X235709D01*
Y13509D01*
X235739D01*
Y13540D01*
X235801D01*
Y13571D01*
X235862D01*
Y13601D01*
X235923D01*
Y13632D01*
X235985D01*
Y13663D01*
X236076D01*
Y13693D01*
X236168D01*
Y13724D01*
X236260D01*
Y13754D01*
X236383D01*
Y13785D01*
X236505D01*
Y13816D01*
X236720D01*
Y13846D01*
X237424D01*
Y13816D01*
D02*
G37*
G36*
X186328Y13877D02*
Y13846D01*
Y8792D01*
X185072D01*
Y8853D01*
X185041D01*
Y8884D01*
X185011D01*
Y8914D01*
X184980D01*
Y8976D01*
X184949D01*
Y9006D01*
X184919D01*
Y9037D01*
X184888D01*
Y9098D01*
X184857D01*
Y9129D01*
X184827D01*
Y9159D01*
X184796D01*
Y9221D01*
X184766D01*
Y9251D01*
X184735D01*
Y9282D01*
X184704D01*
Y9313D01*
X184674D01*
Y9374D01*
X184643D01*
Y9404D01*
X184612D01*
Y9435D01*
X184582D01*
Y9496D01*
X184551D01*
Y9527D01*
X184520D01*
Y9558D01*
X184490D01*
Y9619D01*
X184459D01*
Y9650D01*
X184429D01*
Y9680D01*
X184398D01*
Y9741D01*
X184367D01*
Y9772D01*
X184337D01*
Y9803D01*
X184306D01*
Y9864D01*
X184275D01*
Y9895D01*
X184245D01*
Y9925D01*
X184214D01*
Y9956D01*
X184184D01*
Y10017D01*
X184153D01*
Y10048D01*
X184122D01*
Y10078D01*
X184092D01*
Y10140D01*
X184061D01*
Y10170D01*
X184030D01*
Y10201D01*
X184000D01*
Y10262D01*
X183969D01*
Y10293D01*
X183938D01*
Y10323D01*
X183908D01*
Y10385D01*
X183877D01*
Y10415D01*
X183846D01*
Y10446D01*
X183816D01*
Y10507D01*
X183785D01*
Y10538D01*
X183755D01*
Y10569D01*
X183724D01*
Y10599D01*
X183693D01*
Y10660D01*
X183663D01*
Y10691D01*
X183632D01*
Y10722D01*
X183601D01*
Y10783D01*
X183571D01*
Y10814D01*
X183540D01*
Y10844D01*
X183510D01*
Y10905D01*
X183479D01*
Y10936D01*
X183448D01*
Y10967D01*
X183418D01*
Y11028D01*
X183387D01*
Y11059D01*
X183356D01*
Y11089D01*
X183326D01*
Y11151D01*
X183295D01*
Y11181D01*
X183265D01*
Y11212D01*
X183234D01*
Y11242D01*
X183203D01*
Y11304D01*
X183173D01*
Y11334D01*
X183142D01*
Y11365D01*
X183111D01*
Y11426D01*
X183081D01*
Y11457D01*
X183050D01*
Y11488D01*
X183019D01*
Y11549D01*
X182989D01*
Y11579D01*
X182958D01*
Y11610D01*
X182928D01*
Y11671D01*
X182897D01*
Y11702D01*
X182866D01*
Y11733D01*
X182836D01*
Y11794D01*
X182805D01*
Y11824D01*
X182774D01*
Y11855D01*
X182744D01*
Y11886D01*
X182713D01*
Y11947D01*
X182682D01*
Y11978D01*
X182652D01*
Y12008D01*
X182621D01*
Y12070D01*
X182590D01*
Y12100D01*
X182560D01*
Y12131D01*
X182529D01*
Y12192D01*
X182499D01*
Y12223D01*
X182468D01*
Y12253D01*
X182437D01*
Y12315D01*
X182407D01*
Y12345D01*
X182376D01*
Y12376D01*
X182345D01*
Y12437D01*
X182315D01*
Y12468D01*
X182284D01*
Y12498D01*
X182254D01*
Y12529D01*
X182223D01*
Y12590D01*
X182192D01*
Y12621D01*
X182162D01*
Y12652D01*
X182131D01*
Y12713D01*
X182100D01*
Y12743D01*
X182070D01*
Y12774D01*
X182039D01*
Y12835D01*
X182009D01*
Y12866D01*
X181978D01*
Y12897D01*
X181947D01*
Y8792D01*
X180538D01*
Y15286D01*
X181886D01*
Y15225D01*
X181917D01*
Y15194D01*
X181947D01*
Y15164D01*
X181978D01*
Y15102D01*
X182009D01*
Y15072D01*
X182039D01*
Y15041D01*
X182070D01*
Y14980D01*
X182100D01*
Y14949D01*
X182131D01*
Y14919D01*
X182162D01*
Y14857D01*
X182192D01*
Y14827D01*
X182223D01*
Y14796D01*
X182254D01*
Y14765D01*
X182284D01*
Y14704D01*
X182315D01*
Y14673D01*
X182345D01*
Y14643D01*
X182376D01*
Y14581D01*
X182407D01*
Y14551D01*
X182437D01*
Y14520D01*
X182468D01*
Y14459D01*
X182499D01*
Y14428D01*
X182529D01*
Y14398D01*
X182560D01*
Y14336D01*
X182590D01*
Y14306D01*
X182621D01*
Y14275D01*
X182652D01*
Y14214D01*
X182682D01*
Y14183D01*
X182713D01*
Y14153D01*
X182744D01*
Y14091D01*
X182774D01*
Y14061D01*
X182805D01*
Y14030D01*
X182836D01*
Y13999D01*
X182866D01*
Y13938D01*
X182897D01*
Y13908D01*
X182928D01*
Y13877D01*
X182958D01*
Y13816D01*
X182989D01*
Y13785D01*
X183019D01*
Y13754D01*
X183050D01*
Y13693D01*
X183081D01*
Y13663D01*
X183111D01*
Y13632D01*
X183142D01*
Y13571D01*
X183173D01*
Y13540D01*
X183203D01*
Y13509D01*
X183234D01*
Y13448D01*
X183265D01*
Y13417D01*
X183295D01*
Y13387D01*
X183326D01*
Y13356D01*
X183356D01*
Y13295D01*
X183387D01*
Y13264D01*
X183418D01*
Y13234D01*
X183448D01*
Y13172D01*
X183479D01*
Y13142D01*
X183510D01*
Y13111D01*
X183540D01*
Y13050D01*
X183571D01*
Y13019D01*
X183601D01*
Y12989D01*
X183632D01*
Y12927D01*
X183663D01*
Y12897D01*
X183693D01*
Y12866D01*
X183724D01*
Y12805D01*
X183755D01*
Y12774D01*
X183785D01*
Y12743D01*
X183816D01*
Y12682D01*
X183846D01*
Y12652D01*
X183877D01*
Y12621D01*
X183908D01*
Y12590D01*
X183938D01*
Y12529D01*
X183969D01*
Y12498D01*
X184000D01*
Y12468D01*
X184030D01*
Y12406D01*
X184061D01*
Y12376D01*
X184092D01*
Y12345D01*
X184122D01*
Y12284D01*
X184153D01*
Y12253D01*
X184184D01*
Y12223D01*
X184214D01*
Y12162D01*
X184245D01*
Y12131D01*
X184275D01*
Y12100D01*
X184306D01*
Y12039D01*
X184337D01*
Y12008D01*
X184367D01*
Y11978D01*
X184398D01*
Y11947D01*
X184429D01*
Y11886D01*
X184459D01*
Y11855D01*
X184490D01*
Y11824D01*
X184520D01*
Y11763D01*
X184551D01*
Y11733D01*
X184582D01*
Y11702D01*
X184612D01*
Y11641D01*
X184643D01*
Y11610D01*
X184674D01*
Y11579D01*
X184704D01*
Y11518D01*
X184735D01*
Y11488D01*
X184766D01*
Y11457D01*
X184796D01*
Y11396D01*
X184827D01*
Y11365D01*
X184857D01*
Y11334D01*
X184888D01*
Y11304D01*
X184919D01*
Y15286D01*
X186328D01*
Y13877D01*
D02*
G37*
G36*
X163690Y16542D02*
X163720D01*
Y16481D01*
X163751D01*
Y16450D01*
X163782D01*
Y16389D01*
X163812D01*
Y16328D01*
X163843D01*
Y16266D01*
X163874D01*
Y16205D01*
X163904D01*
Y16144D01*
X163935D01*
Y16083D01*
X163965D01*
Y16021D01*
X163996D01*
Y15960D01*
X164027D01*
Y15899D01*
X164057D01*
Y15837D01*
X164088D01*
Y15776D01*
X164119D01*
Y15746D01*
X164149D01*
Y15684D01*
X164180D01*
Y15623D01*
X164210D01*
Y15562D01*
X164241D01*
Y15500D01*
X164272D01*
Y15439D01*
X164302D01*
Y15378D01*
X164333D01*
Y15317D01*
X164364D01*
Y15255D01*
X164394D01*
Y15194D01*
X164425D01*
Y15133D01*
X164455D01*
Y15102D01*
X164486D01*
Y15041D01*
X164517D01*
Y14980D01*
X164547D01*
Y14919D01*
X164578D01*
Y14857D01*
X164609D01*
Y14796D01*
X164639D01*
Y14735D01*
X164670D01*
Y14673D01*
X164701D01*
Y14612D01*
X164731D01*
Y14551D01*
X164762D01*
Y14490D01*
X164793D01*
Y14459D01*
X164823D01*
Y14398D01*
X164854D01*
Y14336D01*
X164884D01*
Y14275D01*
X164915D01*
Y14214D01*
X164946D01*
Y14153D01*
X164976D01*
Y14091D01*
X165007D01*
Y14030D01*
X165038D01*
Y13969D01*
X165068D01*
Y13908D01*
X165099D01*
Y13846D01*
X165129D01*
Y13816D01*
X165160D01*
Y13754D01*
X165191D01*
Y13693D01*
X165221D01*
Y13632D01*
X165252D01*
Y13571D01*
X165283D01*
Y13509D01*
X165313D01*
Y13448D01*
X165344D01*
Y13387D01*
X165375D01*
Y13326D01*
X165405D01*
Y13264D01*
X165436D01*
Y13203D01*
X165466D01*
Y13142D01*
X165497D01*
Y13111D01*
X165528D01*
Y13050D01*
X165558D01*
Y12989D01*
X165589D01*
Y12927D01*
X165620D01*
Y12866D01*
X165650D01*
Y12805D01*
X165681D01*
Y12743D01*
X165711D01*
Y12682D01*
X165742D01*
Y12621D01*
X165773D01*
Y12560D01*
X165803D01*
Y12498D01*
X165834D01*
Y12468D01*
X165865D01*
Y12406D01*
X165895D01*
Y12345D01*
X165926D01*
Y12284D01*
X165957D01*
Y12223D01*
X165987D01*
Y12162D01*
X166018D01*
Y12100D01*
X166049D01*
Y12039D01*
X166079D01*
Y11978D01*
X166110D01*
Y11916D01*
X166140D01*
Y11855D01*
X166171D01*
Y11824D01*
X166202D01*
Y11763D01*
X166232D01*
Y11702D01*
X166263D01*
Y11641D01*
X166294D01*
Y11579D01*
X166324D01*
Y11518D01*
X166355D01*
Y11426D01*
X166324D01*
Y11396D01*
X166294D01*
Y11365D01*
X166263D01*
Y11334D01*
X166232D01*
Y11304D01*
X166202D01*
Y11273D01*
X166171D01*
Y11212D01*
X166140D01*
Y11181D01*
X166110D01*
Y11151D01*
X166079D01*
Y11120D01*
X166049D01*
Y11089D01*
X166018D01*
Y11059D01*
X165987D01*
Y11028D01*
X165957D01*
Y10997D01*
X165926D01*
Y10967D01*
X165895D01*
Y10936D01*
X165865D01*
Y10905D01*
X165834D01*
Y10844D01*
X165803D01*
Y10814D01*
X165773D01*
Y10783D01*
X165742D01*
Y10752D01*
X165711D01*
Y10722D01*
X165681D01*
Y10691D01*
X165650D01*
Y10660D01*
X165620D01*
Y10630D01*
X165589D01*
Y10599D01*
X165558D01*
Y10569D01*
X165528D01*
Y10538D01*
X165497D01*
Y10477D01*
X165466D01*
Y10446D01*
X165436D01*
Y10415D01*
X165405D01*
Y10385D01*
X165375D01*
Y10354D01*
X165344D01*
Y10323D01*
X165313D01*
Y10293D01*
X165283D01*
Y10262D01*
X165252D01*
Y10232D01*
X165221D01*
Y10201D01*
X165191D01*
Y10170D01*
X165160D01*
Y10109D01*
X165129D01*
Y10078D01*
X165099D01*
Y10048D01*
X165068D01*
Y10017D01*
X165038D01*
Y9986D01*
X165007D01*
Y9956D01*
X164976D01*
Y9925D01*
X164946D01*
Y9895D01*
X164915D01*
Y9864D01*
X164884D01*
Y9833D01*
X164854D01*
Y9803D01*
X164823D01*
Y9741D01*
X164793D01*
Y9711D01*
X164762D01*
Y9680D01*
X164731D01*
Y9650D01*
X164701D01*
Y9619D01*
X164670D01*
Y9588D01*
X164639D01*
Y9558D01*
X164609D01*
Y9527D01*
X164578D01*
Y9496D01*
X164547D01*
Y9466D01*
X164517D01*
Y9435D01*
X164486D01*
Y9374D01*
X164455D01*
Y9343D01*
X164425D01*
Y9313D01*
X164394D01*
Y9282D01*
X164364D01*
Y9251D01*
X164333D01*
Y9221D01*
X164302D01*
Y9190D01*
X164272D01*
Y9221D01*
X164241D01*
Y9282D01*
X164210D01*
Y9343D01*
X164180D01*
Y9404D01*
X164149D01*
Y9466D01*
X164119D01*
Y9527D01*
X164088D01*
Y9558D01*
X164057D01*
Y9619D01*
X164027D01*
Y9680D01*
X163996D01*
Y9741D01*
X163965D01*
Y9803D01*
X163935D01*
Y9864D01*
X163904D01*
Y9925D01*
X163874D01*
Y9986D01*
X163843D01*
Y10048D01*
X163812D01*
Y10109D01*
X163782D01*
Y10170D01*
X163751D01*
Y10232D01*
X163720D01*
Y10262D01*
X163690D01*
Y10323D01*
X163659D01*
Y10385D01*
X163628D01*
Y10446D01*
X163598D01*
Y10507D01*
X163567D01*
Y10569D01*
X163537D01*
Y10630D01*
X163506D01*
Y10691D01*
X163475D01*
Y10752D01*
X163445D01*
Y10814D01*
X163414D01*
Y10875D01*
X163383D01*
Y10936D01*
X163353D01*
Y10967D01*
X163322D01*
Y11028D01*
X163292D01*
Y11089D01*
X163261D01*
Y11151D01*
X163230D01*
Y11212D01*
X163200D01*
Y11273D01*
X163169D01*
Y11334D01*
X163138D01*
Y11396D01*
X163108D01*
Y11457D01*
X163077D01*
Y11518D01*
X163046D01*
Y11579D01*
X163016D01*
Y11641D01*
X162985D01*
Y11671D01*
X162954D01*
Y11733D01*
X162924D01*
Y11763D01*
X162893D01*
Y11733D01*
X162863D01*
Y11702D01*
X162832D01*
Y11671D01*
X162801D01*
Y11641D01*
X162771D01*
Y11610D01*
X162740D01*
Y11579D01*
X162709D01*
Y11549D01*
X162679D01*
Y11488D01*
X162648D01*
Y11457D01*
X162618D01*
Y11426D01*
X162587D01*
Y11396D01*
X162556D01*
Y11365D01*
X162526D01*
Y11334D01*
X162495D01*
Y11304D01*
X162464D01*
Y11273D01*
X162434D01*
Y11242D01*
X162403D01*
Y11212D01*
X162373D01*
Y11151D01*
X162342D01*
Y11120D01*
X162311D01*
Y11089D01*
X162281D01*
Y11059D01*
X162250D01*
Y11028D01*
X162219D01*
Y10997D01*
X162189D01*
Y10967D01*
X162158D01*
Y10936D01*
X162127D01*
Y10905D01*
X162097D01*
Y10875D01*
X162066D01*
Y10814D01*
X162036D01*
Y10783D01*
X162005D01*
Y10752D01*
X161974D01*
Y10722D01*
X161944D01*
Y10691D01*
X161913D01*
Y10660D01*
X161882D01*
Y10630D01*
X161852D01*
Y10599D01*
X161821D01*
Y10569D01*
X161790D01*
Y10538D01*
X161760D01*
Y10477D01*
X161729D01*
Y10446D01*
X161698D01*
Y10415D01*
X161668D01*
Y10385D01*
X161637D01*
Y10354D01*
X161607D01*
Y10323D01*
X161576D01*
Y10293D01*
X161545D01*
Y10262D01*
X161515D01*
Y10232D01*
X161484D01*
Y10201D01*
X161453D01*
Y10140D01*
X161423D01*
Y10109D01*
X161392D01*
Y10078D01*
X161362D01*
Y10048D01*
X161331D01*
Y10017D01*
X161300D01*
Y9986D01*
X161270D01*
Y9956D01*
X161239D01*
Y9925D01*
X161208D01*
Y9895D01*
X161178D01*
Y9833D01*
X161147D01*
Y9803D01*
X161117D01*
Y9772D01*
X161086D01*
Y9741D01*
X161055D01*
Y9711D01*
X161025D01*
Y9680D01*
X160994D01*
Y9650D01*
X160963D01*
Y9619D01*
X160933D01*
Y9588D01*
X160902D01*
Y9558D01*
X160871D01*
Y9496D01*
X160841D01*
Y9466D01*
X160810D01*
Y9435D01*
X160780D01*
Y9404D01*
X160749D01*
Y9374D01*
X160718D01*
Y9343D01*
X160688D01*
Y9313D01*
X160657D01*
Y9282D01*
X160626D01*
Y9251D01*
X160596D01*
Y9221D01*
X160565D01*
Y9159D01*
X160535D01*
Y9129D01*
X160504D01*
Y9098D01*
X160473D01*
Y9067D01*
X160443D01*
Y9037D01*
X160412D01*
Y9006D01*
X160381D01*
Y8976D01*
X160351D01*
Y8945D01*
X160320D01*
Y8914D01*
X160289D01*
Y8884D01*
X160259D01*
Y8822D01*
X160228D01*
Y8792D01*
X160197D01*
Y8761D01*
X160167D01*
Y8731D01*
X160136D01*
Y8700D01*
X160106D01*
Y8669D01*
X160075D01*
Y8639D01*
X160044D01*
Y8608D01*
X160014D01*
Y8577D01*
X159983D01*
Y8547D01*
X159952D01*
Y8485D01*
X159922D01*
Y8455D01*
X159891D01*
Y8424D01*
X159861D01*
Y8394D01*
X159830D01*
Y8363D01*
X159799D01*
Y8332D01*
X159769D01*
Y8302D01*
X159738D01*
Y8271D01*
X159707D01*
Y8240D01*
X159677D01*
Y8179D01*
X159646D01*
Y8149D01*
X159616D01*
Y8118D01*
X159585D01*
Y8087D01*
X159554D01*
Y8057D01*
X159524D01*
Y8026D01*
X159493D01*
Y7995D01*
X159462D01*
Y7965D01*
X159432D01*
Y7934D01*
X159401D01*
Y7903D01*
X159370D01*
Y7842D01*
X159340D01*
Y7812D01*
X159309D01*
Y7781D01*
X159279D01*
Y7750D01*
X159248D01*
Y7720D01*
X159217D01*
Y7689D01*
X159187D01*
Y7658D01*
X159156D01*
Y7628D01*
X159125D01*
Y7597D01*
X159095D01*
Y7566D01*
X159064D01*
Y7505D01*
X159033D01*
Y7475D01*
X159003D01*
Y7444D01*
X158972D01*
Y7413D01*
X158941D01*
Y7383D01*
X158911D01*
Y7352D01*
X158880D01*
Y7321D01*
X158850D01*
Y7291D01*
X158819D01*
Y7260D01*
X158788D01*
Y7230D01*
X158758D01*
Y7168D01*
X158727D01*
Y7138D01*
X158696D01*
Y7107D01*
X158666D01*
Y7076D01*
X158635D01*
Y7046D01*
X158605D01*
Y7015D01*
X158574D01*
Y6984D01*
X158543D01*
Y6954D01*
X158513D01*
Y6923D01*
X158482D01*
Y6893D01*
X158451D01*
Y6831D01*
X158421D01*
Y6801D01*
X158390D01*
Y6770D01*
X158360D01*
Y6739D01*
X158329D01*
Y6709D01*
X158298D01*
Y6678D01*
X158268D01*
Y6647D01*
X158237D01*
Y6617D01*
X158206D01*
Y6586D01*
X158176D01*
Y6525D01*
X158145D01*
Y6494D01*
X158114D01*
Y6464D01*
X158084D01*
Y6433D01*
X158053D01*
Y6402D01*
X158022D01*
Y6372D01*
X157992D01*
Y6341D01*
X157961D01*
Y6311D01*
X157931D01*
Y6280D01*
X157900D01*
Y6249D01*
X157869D01*
Y6188D01*
X157839D01*
Y6157D01*
X157808D01*
Y6127D01*
X157777D01*
Y6096D01*
X157747D01*
Y6065D01*
X157716D01*
Y6035D01*
X157685D01*
Y6004D01*
X157655D01*
Y5974D01*
X157624D01*
Y5943D01*
X157594D01*
Y5912D01*
X157563D01*
Y5851D01*
X157532D01*
Y5820D01*
X157502D01*
Y5790D01*
X157471D01*
Y5759D01*
X157440D01*
Y5728D01*
X157410D01*
Y5698D01*
X157379D01*
Y5667D01*
X157349D01*
Y5636D01*
X157318D01*
Y5606D01*
X157287D01*
Y5575D01*
X157257D01*
Y5514D01*
X157226D01*
Y5483D01*
X157195D01*
Y5453D01*
X157165D01*
Y5422D01*
X157134D01*
Y5392D01*
X157104D01*
Y5361D01*
X157073D01*
Y5330D01*
X157042D01*
Y5300D01*
X157012D01*
Y5269D01*
X156981D01*
Y5238D01*
X156950D01*
Y5177D01*
X156920D01*
Y5146D01*
X156889D01*
Y5116D01*
X156858D01*
Y5085D01*
X156828D01*
Y5054D01*
X156797D01*
Y5024D01*
X156767D01*
Y4993D01*
X156736D01*
Y4963D01*
X156705D01*
Y4932D01*
X156675D01*
Y4871D01*
X156644D01*
Y4840D01*
X156613D01*
Y4809D01*
X156583D01*
Y4779D01*
X156552D01*
Y4748D01*
X156521D01*
Y4718D01*
X156491D01*
Y4687D01*
X156460D01*
Y4656D01*
X156430D01*
Y4626D01*
X156399D01*
Y4595D01*
X156368D01*
Y4534D01*
X156338D01*
Y4503D01*
X156307D01*
Y4473D01*
X156276D01*
Y4442D01*
X156246D01*
Y4411D01*
X156215D01*
Y4381D01*
X156184D01*
Y4350D01*
X156154D01*
Y4319D01*
X156123D01*
Y4289D01*
X156093D01*
Y4258D01*
X156062D01*
Y4197D01*
X156031D01*
Y4166D01*
X156001D01*
Y4135D01*
X155970D01*
Y4105D01*
X155939D01*
Y4074D01*
X155909D01*
Y4044D01*
X155878D01*
Y4013D01*
X155848D01*
Y3982D01*
X155817D01*
Y3952D01*
X155786D01*
Y3921D01*
X155756D01*
Y3860D01*
X155725D01*
Y3829D01*
X155694D01*
Y3799D01*
X155664D01*
Y3768D01*
X155633D01*
Y3737D01*
X155603D01*
Y3707D01*
X155572D01*
Y3676D01*
X155541D01*
Y3645D01*
X155511D01*
Y3615D01*
X155480D01*
Y3584D01*
X155449D01*
Y3523D01*
X155419D01*
Y3492D01*
X155388D01*
Y3462D01*
X155357D01*
Y3431D01*
X155327D01*
Y3400D01*
X155296D01*
Y3370D01*
X155265D01*
Y3339D01*
X155235D01*
Y3308D01*
X155204D01*
Y3278D01*
X155174D01*
Y3308D01*
X155143D01*
Y3370D01*
X155112D01*
Y3400D01*
X155082D01*
Y3462D01*
X155051D01*
Y3523D01*
X155020D01*
Y3584D01*
X154990D01*
Y3645D01*
X154959D01*
Y3707D01*
X154929D01*
Y3768D01*
X154898D01*
Y3829D01*
X154867D01*
Y3890D01*
X154837D01*
Y3952D01*
X154806D01*
Y4013D01*
X154775D01*
Y4044D01*
X154745D01*
Y4105D01*
X154714D01*
Y4166D01*
X154683D01*
Y4227D01*
X154653D01*
Y4289D01*
X154622D01*
Y4350D01*
X154592D01*
Y4411D01*
X154561D01*
Y4473D01*
X154530D01*
Y4534D01*
X154500D01*
Y4595D01*
X154469D01*
Y4626D01*
X154438D01*
Y4687D01*
X154408D01*
Y4748D01*
X154377D01*
Y4809D01*
X154347D01*
Y4871D01*
X154316D01*
Y4932D01*
X154285D01*
Y4993D01*
X154255D01*
Y5054D01*
X154224D01*
Y5116D01*
X154193D01*
Y5177D01*
X154163D01*
Y5238D01*
X154132D01*
Y5269D01*
X154101D01*
Y5330D01*
X154071D01*
Y5392D01*
X154040D01*
Y5453D01*
X154009D01*
Y5514D01*
X153979D01*
Y5575D01*
X153948D01*
Y5636D01*
X153918D01*
Y5698D01*
X153887D01*
Y5820D01*
X153918D01*
Y5851D01*
X153948D01*
Y5882D01*
X153979D01*
Y5912D01*
X154009D01*
Y5943D01*
X154040D01*
Y5974D01*
X154071D01*
Y6004D01*
X154101D01*
Y6035D01*
X154132D01*
Y6065D01*
X154163D01*
Y6096D01*
X154193D01*
Y6157D01*
X154224D01*
Y6188D01*
X154255D01*
Y6219D01*
X154285D01*
Y6249D01*
X154316D01*
Y6280D01*
X154347D01*
Y6311D01*
X154377D01*
Y6341D01*
X154408D01*
Y6372D01*
X154438D01*
Y6402D01*
X154469D01*
Y6433D01*
X154500D01*
Y6494D01*
X154530D01*
Y6525D01*
X154561D01*
Y6555D01*
X154592D01*
Y6586D01*
X154622D01*
Y6617D01*
X154653D01*
Y6647D01*
X154683D01*
Y6678D01*
X154714D01*
Y6709D01*
X154745D01*
Y6739D01*
X154775D01*
Y6801D01*
X154806D01*
Y6831D01*
X154837D01*
Y6862D01*
X154867D01*
Y6893D01*
X154898D01*
Y6923D01*
X154929D01*
Y6954D01*
X154959D01*
Y6984D01*
X154990D01*
Y7015D01*
X155020D01*
Y7046D01*
X155051D01*
Y7076D01*
X155082D01*
Y7138D01*
X155112D01*
Y7168D01*
X155143D01*
Y7199D01*
X155174D01*
Y7230D01*
X155204D01*
Y7260D01*
X155235D01*
Y7291D01*
X155265D01*
Y7321D01*
X155296D01*
Y7352D01*
X155327D01*
Y7383D01*
X155357D01*
Y7413D01*
X155388D01*
Y7475D01*
X155419D01*
Y7505D01*
X155449D01*
Y7536D01*
X155480D01*
Y7566D01*
X155511D01*
Y7597D01*
X155541D01*
Y7628D01*
X155572D01*
Y7658D01*
X155603D01*
Y7689D01*
X155633D01*
Y7720D01*
X155664D01*
Y7781D01*
X155694D01*
Y7812D01*
X155725D01*
Y7842D01*
X155756D01*
Y7873D01*
X155786D01*
Y7903D01*
X155817D01*
Y7934D01*
X155848D01*
Y7965D01*
X155878D01*
Y7995D01*
X155909D01*
Y8026D01*
X155939D01*
Y8057D01*
X155970D01*
Y8118D01*
X156001D01*
Y8149D01*
X156031D01*
Y8179D01*
X156062D01*
Y8210D01*
X156093D01*
Y8240D01*
X156123D01*
Y8271D01*
X156154D01*
Y8302D01*
X156184D01*
Y8332D01*
X156215D01*
Y8363D01*
X156246D01*
Y8394D01*
X156276D01*
Y8455D01*
X156307D01*
Y8485D01*
X156338D01*
Y8516D01*
X156368D01*
Y8547D01*
X156399D01*
Y8577D01*
X156430D01*
Y8608D01*
X156460D01*
Y8639D01*
X156491D01*
Y8669D01*
X156521D01*
Y8700D01*
X156552D01*
Y8731D01*
X156583D01*
Y8792D01*
X156613D01*
Y8822D01*
X156644D01*
Y8853D01*
X156675D01*
Y8884D01*
X156705D01*
Y8914D01*
X156736D01*
Y8945D01*
X156767D01*
Y8976D01*
X156797D01*
Y9006D01*
X156828D01*
Y9037D01*
X156858D01*
Y9098D01*
X156889D01*
Y9129D01*
X156920D01*
Y9159D01*
X156950D01*
Y9190D01*
X156981D01*
Y9221D01*
X157012D01*
Y9251D01*
X157042D01*
Y9282D01*
X157073D01*
Y9313D01*
X157104D01*
Y9343D01*
X157134D01*
Y9374D01*
X157165D01*
Y9435D01*
X157195D01*
Y9466D01*
X157226D01*
Y9496D01*
X157257D01*
Y9527D01*
X157287D01*
Y9558D01*
X157318D01*
Y9588D01*
X157349D01*
Y9619D01*
X157379D01*
Y9650D01*
X157410D01*
Y9680D01*
X157440D01*
Y9711D01*
X157471D01*
Y9772D01*
X157502D01*
Y9803D01*
X157532D01*
Y9833D01*
X157563D01*
Y9864D01*
X157594D01*
Y9895D01*
X157624D01*
Y9925D01*
X157655D01*
Y9956D01*
X157685D01*
Y9986D01*
X157716D01*
Y10017D01*
X157747D01*
Y10078D01*
X157777D01*
Y10109D01*
X157808D01*
Y10140D01*
X157839D01*
Y10170D01*
X157869D01*
Y10201D01*
X157900D01*
Y10232D01*
X157931D01*
Y10262D01*
X157961D01*
Y10293D01*
X157992D01*
Y10323D01*
X158022D01*
Y10354D01*
X158053D01*
Y10415D01*
X158084D01*
Y10446D01*
X158114D01*
Y10477D01*
X158145D01*
Y10507D01*
X158176D01*
Y10538D01*
X158206D01*
Y10569D01*
X158237D01*
Y10599D01*
X158268D01*
Y10630D01*
X158298D01*
Y10660D01*
X158329D01*
Y10691D01*
X158360D01*
Y10752D01*
X158390D01*
Y10783D01*
X158421D01*
Y10814D01*
X158451D01*
Y10844D01*
X158482D01*
Y10875D01*
X158513D01*
Y10905D01*
X158543D01*
Y10936D01*
X158574D01*
Y10967D01*
X158605D01*
Y10997D01*
X158635D01*
Y11059D01*
X158666D01*
Y11089D01*
X158696D01*
Y11120D01*
X158727D01*
Y11151D01*
X158758D01*
Y11181D01*
X158788D01*
Y11212D01*
X158819D01*
Y11242D01*
X158850D01*
Y11273D01*
X158880D01*
Y11304D01*
X158911D01*
Y11334D01*
X158941D01*
Y11396D01*
X158972D01*
Y11426D01*
X159003D01*
Y11457D01*
X159033D01*
Y11488D01*
X159064D01*
Y11518D01*
X159095D01*
Y11549D01*
X159125D01*
Y11579D01*
X159156D01*
Y11610D01*
X159187D01*
Y11641D01*
X159217D01*
Y11671D01*
X159248D01*
Y11733D01*
X159279D01*
Y11763D01*
X159309D01*
Y11794D01*
X159340D01*
Y11824D01*
X159370D01*
Y11855D01*
X159401D01*
Y11886D01*
X159432D01*
Y11916D01*
X159462D01*
Y11947D01*
X159493D01*
Y11978D01*
X159524D01*
Y12008D01*
X159554D01*
Y12070D01*
X159585D01*
Y12100D01*
X159616D01*
Y12131D01*
X159646D01*
Y12162D01*
X159677D01*
Y12192D01*
X159707D01*
Y12223D01*
X159738D01*
Y12253D01*
X159769D01*
Y12284D01*
X159799D01*
Y12315D01*
X159830D01*
Y12376D01*
X159861D01*
Y12406D01*
X159891D01*
Y12437D01*
X159922D01*
Y12468D01*
X159952D01*
Y12498D01*
X159983D01*
Y12529D01*
X160014D01*
Y12560D01*
X160044D01*
Y12590D01*
X160075D01*
Y12621D01*
X160106D01*
Y12652D01*
X160136D01*
Y12713D01*
X160167D01*
Y12743D01*
X160197D01*
Y12774D01*
X160228D01*
Y12805D01*
X160259D01*
Y12835D01*
X160289D01*
Y12866D01*
X160320D01*
Y12897D01*
X160351D01*
Y12927D01*
X160381D01*
Y12958D01*
X160412D01*
Y12989D01*
X160443D01*
Y13050D01*
X160473D01*
Y13081D01*
X160504D01*
Y13111D01*
X160535D01*
Y13142D01*
X160565D01*
Y13172D01*
X160596D01*
Y13203D01*
X160626D01*
Y13234D01*
X160657D01*
Y13264D01*
X160688D01*
Y13295D01*
X160718D01*
Y13356D01*
X160749D01*
Y13387D01*
X160780D01*
Y13417D01*
X160810D01*
Y13448D01*
X160841D01*
Y13479D01*
X160871D01*
Y13509D01*
X160902D01*
Y13540D01*
X160933D01*
Y13571D01*
X160963D01*
Y13601D01*
X160994D01*
Y13632D01*
X161025D01*
Y13693D01*
X161055D01*
Y13724D01*
X161086D01*
Y13754D01*
X161117D01*
Y13785D01*
X161147D01*
Y13816D01*
X161178D01*
Y13846D01*
X161208D01*
Y13877D01*
X161239D01*
Y13908D01*
X161270D01*
Y13938D01*
X161300D01*
Y13969D01*
X161331D01*
Y14030D01*
X161362D01*
Y14061D01*
X161392D01*
Y14091D01*
X161423D01*
Y14122D01*
X161453D01*
Y14153D01*
X161484D01*
Y14183D01*
X161515D01*
Y14214D01*
X161545D01*
Y14244D01*
X161576D01*
Y14275D01*
X161607D01*
Y14306D01*
X161637D01*
Y14367D01*
X161668D01*
Y14398D01*
X161698D01*
Y14428D01*
X161729D01*
Y14459D01*
X161760D01*
Y14490D01*
X161790D01*
Y14520D01*
X161821D01*
Y14551D01*
X161852D01*
Y14581D01*
X161882D01*
Y14612D01*
X161913D01*
Y14673D01*
X161944D01*
Y14704D01*
X161974D01*
Y14735D01*
X162005D01*
Y14765D01*
X162036D01*
Y14796D01*
X162066D01*
Y14827D01*
X162097D01*
Y14857D01*
X162127D01*
Y14888D01*
X162158D01*
Y14919D01*
X162189D01*
Y14949D01*
X162219D01*
Y15010D01*
X162250D01*
Y15041D01*
X162281D01*
Y15072D01*
X162311D01*
Y15102D01*
X162342D01*
Y15133D01*
X162373D01*
Y15164D01*
X162403D01*
Y15194D01*
X162434D01*
Y15225D01*
X162464D01*
Y15255D01*
X162495D01*
Y15286D01*
X162526D01*
Y15347D01*
X162556D01*
Y15378D01*
X162587D01*
Y15409D01*
X162618D01*
Y15439D01*
X162648D01*
Y15470D01*
X162679D01*
Y15500D01*
X162709D01*
Y15531D01*
X162740D01*
Y15562D01*
X162771D01*
Y15592D01*
X162801D01*
Y15654D01*
X162832D01*
Y15684D01*
X162863D01*
Y15715D01*
X162893D01*
Y15746D01*
X162924D01*
Y15776D01*
X162954D01*
Y15807D01*
X162985D01*
Y15837D01*
X163016D01*
Y15868D01*
X163046D01*
Y15899D01*
X163077D01*
Y15929D01*
X163108D01*
Y15991D01*
X163138D01*
Y16021D01*
X163169D01*
Y16052D01*
X163200D01*
Y16083D01*
X163230D01*
Y16113D01*
X163261D01*
Y16144D01*
X163292D01*
Y16174D01*
X163322D01*
Y16205D01*
X163353D01*
Y16236D01*
X163383D01*
Y16266D01*
X163414D01*
Y16328D01*
X163445D01*
Y16358D01*
X163475D01*
Y16389D01*
X163506D01*
Y16420D01*
X163537D01*
Y16450D01*
X163567D01*
Y16481D01*
X163598D01*
Y16511D01*
X163628D01*
Y16542D01*
X163659D01*
Y16573D01*
X163690D01*
Y16542D01*
D02*
G37*
G36*
X233748Y8792D02*
X232339D01*
Y13050D01*
Y13081D01*
Y13754D01*
X233748D01*
Y8792D01*
D02*
G37*
G36*
X216992Y10140D02*
Y10109D01*
Y10078D01*
X220208D01*
Y10048D01*
X220239D01*
Y8792D01*
X215552D01*
Y15286D01*
X216992D01*
Y10140D01*
D02*
G37*
G36*
X201277Y8792D02*
X200664D01*
Y13601D01*
X201277D01*
Y8792D01*
D02*
G37*
G36*
X200174Y14735D02*
X197968D01*
Y8792D01*
X197325D01*
Y14735D01*
X195120D01*
Y15317D01*
X200174D01*
Y14735D01*
D02*
G37*
G36*
X193925Y13754D02*
X195089D01*
Y12560D01*
X193925D01*
Y10262D01*
X193956D01*
Y10170D01*
X193986D01*
Y10109D01*
X194017D01*
Y10048D01*
X194078D01*
Y10017D01*
X194109D01*
Y9986D01*
X194170D01*
Y9956D01*
X194323D01*
Y9925D01*
X194446D01*
Y9956D01*
X194691D01*
Y9986D01*
X194813D01*
Y10017D01*
X194905D01*
Y10048D01*
X194966D01*
Y10078D01*
X195028D01*
Y10109D01*
X195089D01*
Y9006D01*
X195058D01*
Y8976D01*
X195028D01*
Y8945D01*
X194966D01*
Y8914D01*
X194905D01*
Y8884D01*
X194844D01*
Y8853D01*
X194752D01*
Y8822D01*
X194660D01*
Y8792D01*
X194568D01*
Y8761D01*
X194446D01*
Y8731D01*
X194292D01*
Y8700D01*
X193649D01*
Y8731D01*
X193496D01*
Y8761D01*
X193343D01*
Y8792D01*
X193251D01*
Y8822D01*
X193190D01*
Y8853D01*
X193128D01*
Y8884D01*
X193067D01*
Y8914D01*
X193036D01*
Y8945D01*
X192975D01*
Y8976D01*
X192945D01*
Y9006D01*
X192914D01*
Y9037D01*
X192883D01*
Y9067D01*
X192853D01*
Y9098D01*
X192822D01*
Y9129D01*
X192791D01*
Y9190D01*
X192761D01*
Y9221D01*
X192730D01*
Y9282D01*
X192700D01*
Y9343D01*
X192669D01*
Y9404D01*
X192638D01*
Y9466D01*
X192608D01*
Y9558D01*
X192577D01*
Y9680D01*
X192546D01*
Y9895D01*
X192516D01*
Y12560D01*
X191903D01*
Y13754D01*
X192516D01*
Y15041D01*
X193925D01*
Y13754D01*
D02*
G37*
G36*
X223333Y13816D02*
X223547D01*
Y13785D01*
X223701D01*
Y13754D01*
X223823D01*
Y13724D01*
X223915D01*
Y13693D01*
X224007D01*
Y13663D01*
X224068D01*
Y13632D01*
X224160D01*
Y13601D01*
X224221D01*
Y13571D01*
X224283D01*
Y13540D01*
X224344D01*
Y13509D01*
X224405D01*
Y13479D01*
X224436D01*
Y13448D01*
X224497D01*
Y13417D01*
X224558D01*
Y13387D01*
X224589D01*
Y13356D01*
X224620D01*
Y13326D01*
X224681D01*
Y13295D01*
X224711D01*
Y13264D01*
X224742D01*
Y13234D01*
X224803D01*
Y13203D01*
X224834D01*
Y13172D01*
X224865D01*
Y13142D01*
X224895D01*
Y13111D01*
X224926D01*
Y13081D01*
X224957D01*
Y13050D01*
X224987D01*
Y13019D01*
X225018D01*
Y12989D01*
X225048D01*
Y12958D01*
X225079D01*
Y12927D01*
X225110D01*
Y12866D01*
X225140D01*
Y12835D01*
X225171D01*
Y12805D01*
X225202D01*
Y12743D01*
X225232D01*
Y12713D01*
X225263D01*
Y12652D01*
X225293D01*
Y12621D01*
X225324D01*
Y12560D01*
X225355D01*
Y12498D01*
X225385D01*
Y12437D01*
X225416D01*
Y12376D01*
X225447D01*
Y12315D01*
X225477D01*
Y12253D01*
X225508D01*
Y12162D01*
X225539D01*
Y12100D01*
X225569D01*
Y12008D01*
X225600D01*
Y11886D01*
X225630D01*
Y11733D01*
X225661D01*
Y11488D01*
X225692D01*
Y11059D01*
X225661D01*
Y10814D01*
X225630D01*
Y10660D01*
X225600D01*
Y10538D01*
X225569D01*
Y10446D01*
X225539D01*
Y10354D01*
X225508D01*
Y10293D01*
X225477D01*
Y10201D01*
X225447D01*
Y10140D01*
X225416D01*
Y10078D01*
X225385D01*
Y10017D01*
X225355D01*
Y9986D01*
X225324D01*
Y9925D01*
X225293D01*
Y9864D01*
X225263D01*
Y9833D01*
X225232D01*
Y9772D01*
X225202D01*
Y9741D01*
X225171D01*
Y9711D01*
X225140D01*
Y9650D01*
X225110D01*
Y9619D01*
X225079D01*
Y9588D01*
X225048D01*
Y9558D01*
X225018D01*
Y9527D01*
X224987D01*
Y9496D01*
X224957D01*
Y9466D01*
X224926D01*
Y9435D01*
X224895D01*
Y9404D01*
X224865D01*
Y9374D01*
X224834D01*
Y9343D01*
X224803D01*
Y9313D01*
X224773D01*
Y9282D01*
X224742D01*
Y9251D01*
X224681D01*
Y9221D01*
X224650D01*
Y9190D01*
X224589D01*
Y9159D01*
X224558D01*
Y9129D01*
X224528D01*
Y9098D01*
X224466D01*
Y9067D01*
X224405D01*
Y9037D01*
X224375D01*
Y9006D01*
X224313D01*
Y8976D01*
X224252D01*
Y8945D01*
X224191D01*
Y8914D01*
X224130D01*
Y8884D01*
X224038D01*
Y8853D01*
X223946D01*
Y8822D01*
X223884D01*
Y8792D01*
X223793D01*
Y8761D01*
X223639D01*
Y8731D01*
X223517D01*
Y8700D01*
X223302D01*
Y8669D01*
X222690D01*
Y8700D01*
X222445D01*
Y8731D01*
X222322D01*
Y8761D01*
X222200D01*
Y8792D01*
X222108D01*
Y8822D01*
X222016D01*
Y8853D01*
X221924D01*
Y8884D01*
X221863D01*
Y8914D01*
X221771D01*
Y8945D01*
X221709D01*
Y8976D01*
X221648D01*
Y9006D01*
X221618D01*
Y9037D01*
X221556D01*
Y9067D01*
X221495D01*
Y9098D01*
X221434D01*
Y9129D01*
X221403D01*
Y9159D01*
X221372D01*
Y9190D01*
X221311D01*
Y9221D01*
X221281D01*
Y9251D01*
X221250D01*
Y9282D01*
X221189D01*
Y9313D01*
X221158D01*
Y9343D01*
X221127D01*
Y9374D01*
X221097D01*
Y9404D01*
X221066D01*
Y9435D01*
X221036D01*
Y9466D01*
X221005D01*
Y9496D01*
X220974D01*
Y9527D01*
X220944D01*
Y9558D01*
X220913D01*
Y9588D01*
X220882D01*
Y9650D01*
X220852D01*
Y9680D01*
X220821D01*
Y9711D01*
X220790D01*
Y9772D01*
X220760D01*
Y9803D01*
X220729D01*
Y9864D01*
X220698D01*
Y9895D01*
X220668D01*
Y9956D01*
X220637D01*
Y9986D01*
X220607D01*
Y10048D01*
X220576D01*
Y10140D01*
X220545D01*
Y10201D01*
X220515D01*
Y10262D01*
X220484D01*
Y10323D01*
X220454D01*
Y10415D01*
X220423D01*
Y10507D01*
X220392D01*
Y10630D01*
X220361D01*
Y10783D01*
X220331D01*
Y10967D01*
X220300D01*
Y11518D01*
X220331D01*
Y11733D01*
X220361D01*
Y11886D01*
X220392D01*
Y12008D01*
X220423D01*
Y12070D01*
X220454D01*
Y12162D01*
X220484D01*
Y12253D01*
X220515D01*
Y12315D01*
X220545D01*
Y12376D01*
X220576D01*
Y12437D01*
X220607D01*
Y12498D01*
X220637D01*
Y12560D01*
X220668D01*
Y12590D01*
X220698D01*
Y12652D01*
X220729D01*
Y12713D01*
X220760D01*
Y12743D01*
X220790D01*
Y12774D01*
X220821D01*
Y12835D01*
X220852D01*
Y12866D01*
X220882D01*
Y12897D01*
X220913D01*
Y12927D01*
X220944D01*
Y12958D01*
X220974D01*
Y12989D01*
X221005D01*
Y13019D01*
X221036D01*
Y13081D01*
X221066D01*
Y13111D01*
X221127D01*
Y13142D01*
X221158D01*
Y13172D01*
X221189D01*
Y13203D01*
X221219D01*
Y13234D01*
X221250D01*
Y13264D01*
X221281D01*
Y13295D01*
X221342D01*
Y13326D01*
X221372D01*
Y13356D01*
X221434D01*
Y13387D01*
X221464D01*
Y13417D01*
X221526D01*
Y13448D01*
X221556D01*
Y13479D01*
X221618D01*
Y13509D01*
X221679D01*
Y13540D01*
X221740D01*
Y13571D01*
X221801D01*
Y13601D01*
X221863D01*
Y13632D01*
X221924D01*
Y13663D01*
X222016D01*
Y13693D01*
X222108D01*
Y13724D01*
X222200D01*
Y13754D01*
X222322D01*
Y13785D01*
X222445D01*
Y13816D01*
X222659D01*
Y13846D01*
X223333D01*
Y13816D01*
D02*
G37*
G36*
X212581Y13663D02*
X212765D01*
Y13632D01*
X212856D01*
Y13601D01*
X212979D01*
Y13571D01*
X213071D01*
Y13540D01*
X213132D01*
Y13509D01*
X213193D01*
Y13479D01*
X213255D01*
Y13448D01*
X213316D01*
Y13417D01*
X213377D01*
Y13387D01*
X213408D01*
Y13356D01*
X213469D01*
Y13326D01*
X213500D01*
Y13295D01*
X213561D01*
Y13264D01*
X213592D01*
Y13234D01*
X213622D01*
Y13203D01*
X213653D01*
Y13172D01*
X213684D01*
Y13142D01*
X213714D01*
Y13111D01*
X213745D01*
Y13081D01*
X213775D01*
Y13050D01*
X213806D01*
Y13019D01*
X213837D01*
Y12989D01*
X213867D01*
Y12958D01*
X213898D01*
Y12927D01*
X213929D01*
Y12866D01*
X213959D01*
Y12835D01*
X213990D01*
Y12805D01*
X214020D01*
Y12743D01*
X214051D01*
Y12713D01*
X214082D01*
Y12652D01*
X214112D01*
Y12590D01*
X214143D01*
Y12529D01*
X214174D01*
Y12468D01*
X214204D01*
Y12406D01*
X214235D01*
Y12345D01*
X214265D01*
Y12253D01*
X214296D01*
Y12192D01*
X214327D01*
Y12070D01*
X214357D01*
Y11978D01*
X214388D01*
Y11824D01*
X214419D01*
Y11671D01*
X214449D01*
Y11304D01*
X214480D01*
Y11059D01*
X214449D01*
Y10936D01*
X210620D01*
Y10722D01*
X210651D01*
Y10599D01*
X210681D01*
Y10507D01*
X210712D01*
Y10415D01*
X210743D01*
Y10354D01*
X210773D01*
Y10293D01*
X210804D01*
Y10232D01*
X210835D01*
Y10170D01*
X210865D01*
Y10109D01*
X210896D01*
Y10078D01*
X210927D01*
Y10017D01*
X210957D01*
Y9986D01*
X210988D01*
Y9925D01*
X211018D01*
Y9895D01*
X211049D01*
Y9864D01*
X211080D01*
Y9833D01*
X211110D01*
Y9772D01*
X211141D01*
Y9741D01*
X211172D01*
Y9711D01*
X211233D01*
Y9680D01*
X211263D01*
Y9650D01*
X211294D01*
Y9619D01*
X211325D01*
Y9588D01*
X211386D01*
Y9558D01*
X211417D01*
Y9527D01*
X211447D01*
Y9496D01*
X211508D01*
Y9466D01*
X211570D01*
Y9435D01*
X211631D01*
Y9404D01*
X211692D01*
Y9374D01*
X211784D01*
Y9343D01*
X211876D01*
Y9313D01*
X211999D01*
Y9282D01*
X212274D01*
Y9251D01*
X212427D01*
Y9282D01*
X212734D01*
Y9313D01*
X212887D01*
Y9343D01*
X212979D01*
Y9374D01*
X213071D01*
Y9404D01*
X213132D01*
Y9435D01*
X213193D01*
Y9466D01*
X213255D01*
Y9496D01*
X213316D01*
Y9527D01*
X213377D01*
Y9558D01*
X213408D01*
Y9588D01*
X213469D01*
Y9619D01*
X213500D01*
Y9650D01*
X213561D01*
Y9680D01*
X213592D01*
Y9711D01*
X213622D01*
Y9741D01*
X213653D01*
Y9772D01*
X213714D01*
Y9803D01*
X213745D01*
Y9833D01*
X213775D01*
Y9864D01*
X213806D01*
Y9895D01*
X213837D01*
Y9925D01*
X213867D01*
Y9956D01*
X213898D01*
Y9986D01*
X213959D01*
Y9956D01*
X214020D01*
Y9925D01*
X214051D01*
Y9895D01*
X214082D01*
Y9864D01*
X214112D01*
Y9833D01*
X214143D01*
Y9803D01*
X214174D01*
Y9772D01*
X214204D01*
Y9741D01*
X214235D01*
Y9711D01*
X214296D01*
Y9680D01*
X214327D01*
Y9619D01*
X214296D01*
Y9588D01*
X214265D01*
Y9558D01*
X214235D01*
Y9527D01*
X214204D01*
Y9496D01*
X214174D01*
Y9466D01*
X214143D01*
Y9435D01*
X214112D01*
Y9404D01*
X214082D01*
Y9374D01*
X214051D01*
Y9343D01*
X214020D01*
Y9313D01*
X213990D01*
Y9282D01*
X213959D01*
Y9251D01*
X213929D01*
Y9221D01*
X213898D01*
Y9190D01*
X213837D01*
Y9159D01*
X213806D01*
Y9129D01*
X213775D01*
Y9098D01*
X213714D01*
Y9067D01*
X213684D01*
Y9037D01*
X213622D01*
Y9006D01*
X213592D01*
Y8976D01*
X213530D01*
Y8945D01*
X213469D01*
Y8914D01*
X213408D01*
Y8884D01*
X213347D01*
Y8853D01*
X213255D01*
Y8822D01*
X213163D01*
Y8792D01*
X213071D01*
Y8761D01*
X212948D01*
Y8731D01*
X212765D01*
Y8700D01*
X212366D01*
Y8669D01*
X212274D01*
Y8700D01*
X211937D01*
Y8731D01*
X211784D01*
Y8761D01*
X211662D01*
Y8792D01*
X211570D01*
Y8822D01*
X211478D01*
Y8853D01*
X211417D01*
Y8884D01*
X211355D01*
Y8914D01*
X211263D01*
Y8945D01*
X211202D01*
Y8976D01*
X211172D01*
Y9006D01*
X211110D01*
Y9037D01*
X211049D01*
Y9067D01*
X211018D01*
Y9098D01*
X210957D01*
Y9129D01*
X210927D01*
Y9159D01*
X210896D01*
Y9190D01*
X210835D01*
Y9221D01*
X210804D01*
Y9251D01*
X210773D01*
Y9282D01*
X210743D01*
Y9313D01*
X210712D01*
Y9343D01*
X210681D01*
Y9374D01*
X210651D01*
Y9404D01*
X210620D01*
Y9435D01*
X210590D01*
Y9466D01*
X210559D01*
Y9496D01*
X210528D01*
Y9558D01*
X210498D01*
Y9588D01*
X210467D01*
Y9619D01*
X210436D01*
Y9680D01*
X210406D01*
Y9711D01*
X210375D01*
Y9772D01*
X210344D01*
Y9803D01*
X210314D01*
Y9864D01*
X210283D01*
Y9925D01*
X210252D01*
Y9986D01*
X210222D01*
Y10048D01*
X210191D01*
Y10109D01*
X210161D01*
Y10170D01*
X210130D01*
Y10262D01*
X210099D01*
Y10354D01*
X210069D01*
Y10477D01*
X210038D01*
Y10630D01*
X210008D01*
Y10814D01*
X209977D01*
Y11549D01*
X210008D01*
Y11763D01*
X210038D01*
Y11886D01*
X210069D01*
Y12008D01*
X210099D01*
Y12100D01*
X210130D01*
Y12192D01*
X210161D01*
Y12253D01*
X210191D01*
Y12315D01*
X210222D01*
Y12406D01*
X210252D01*
Y12437D01*
X210283D01*
Y12498D01*
X210314D01*
Y12560D01*
X210344D01*
Y12621D01*
X210375D01*
Y12652D01*
X210406D01*
Y12713D01*
X210436D01*
Y12743D01*
X210467D01*
Y12805D01*
X210498D01*
Y12835D01*
X210528D01*
Y12866D01*
X210559D01*
Y12897D01*
X210590D01*
Y12958D01*
X210620D01*
Y12989D01*
X210651D01*
Y13019D01*
X210681D01*
Y13050D01*
X210712D01*
Y13081D01*
X210743D01*
Y13111D01*
X210773D01*
Y13142D01*
X210804D01*
Y13172D01*
X210865D01*
Y13203D01*
X210896D01*
Y13234D01*
X210927D01*
Y13264D01*
X210957D01*
Y13295D01*
X211018D01*
Y13326D01*
X211049D01*
Y13356D01*
X211110D01*
Y13387D01*
X211141D01*
Y13417D01*
X211202D01*
Y13448D01*
X211263D01*
Y13479D01*
X211325D01*
Y13509D01*
X211386D01*
Y13540D01*
X211478D01*
Y13571D01*
X211539D01*
Y13601D01*
X211662D01*
Y13632D01*
X211754D01*
Y13663D01*
X211968D01*
Y13693D01*
X212581D01*
Y13663D01*
D02*
G37*
G36*
X189575Y13816D02*
X189759D01*
Y13785D01*
X189881D01*
Y13754D01*
X190004D01*
Y13724D01*
X190096D01*
Y13693D01*
X190188D01*
Y13663D01*
X190249D01*
Y13632D01*
X190310D01*
Y13601D01*
X190371D01*
Y13571D01*
X190433D01*
Y13540D01*
X190494D01*
Y13509D01*
X190525D01*
Y13479D01*
X190586D01*
Y13448D01*
X190617D01*
Y13417D01*
X190647D01*
Y13387D01*
X190708D01*
Y13356D01*
X190739D01*
Y13326D01*
X190770D01*
Y13295D01*
X190800D01*
Y13264D01*
X190831D01*
Y13234D01*
X190892D01*
Y13203D01*
X190923D01*
Y13142D01*
X190954D01*
Y13111D01*
X190984D01*
Y13081D01*
X191015D01*
Y13050D01*
X191045D01*
Y13019D01*
X191076D01*
Y12989D01*
X191107D01*
Y12927D01*
X191137D01*
Y12897D01*
X191168D01*
Y12835D01*
X191199D01*
Y12805D01*
X191229D01*
Y12743D01*
X191260D01*
Y12682D01*
X191290D01*
Y12652D01*
X191321D01*
Y12560D01*
X191352D01*
Y12498D01*
X191382D01*
Y12437D01*
X191413D01*
Y12376D01*
X191444D01*
Y12284D01*
X191474D01*
Y12192D01*
X191505D01*
Y12070D01*
X191535D01*
Y11947D01*
X191566D01*
Y11794D01*
X191597D01*
Y11610D01*
X191627D01*
Y10783D01*
X188166D01*
Y10722D01*
X188197D01*
Y10599D01*
X188227D01*
Y10507D01*
X188258D01*
Y10446D01*
X188288D01*
Y10385D01*
X188319D01*
Y10323D01*
X188350D01*
Y10293D01*
X188380D01*
Y10232D01*
X188411D01*
Y10201D01*
X188442D01*
Y10170D01*
X188472D01*
Y10140D01*
X188503D01*
Y10109D01*
X188533D01*
Y10078D01*
X188564D01*
Y10048D01*
X188595D01*
Y10017D01*
X188656D01*
Y9986D01*
X188717D01*
Y9956D01*
X188748D01*
Y9925D01*
X188840D01*
Y9895D01*
X188901D01*
Y9864D01*
X189024D01*
Y9833D01*
X189177D01*
Y9803D01*
X189575D01*
Y9833D01*
X189759D01*
Y9864D01*
X189881D01*
Y9895D01*
X189973D01*
Y9925D01*
X190034D01*
Y9956D01*
X190096D01*
Y9986D01*
X190157D01*
Y10017D01*
X190218D01*
Y10048D01*
X190249D01*
Y10078D01*
X190310D01*
Y10109D01*
X190341D01*
Y10140D01*
X190402D01*
Y10170D01*
X190433D01*
Y10201D01*
X190463D01*
Y10232D01*
X190494D01*
Y10262D01*
X190525D01*
Y10293D01*
X190617D01*
Y10262D01*
X190647D01*
Y10232D01*
X190678D01*
Y10201D01*
X190739D01*
Y10170D01*
X190770D01*
Y10140D01*
X190800D01*
Y10109D01*
X190831D01*
Y10078D01*
X190862D01*
Y10048D01*
X190892D01*
Y10017D01*
X190923D01*
Y9986D01*
X190984D01*
Y9956D01*
X191015D01*
Y9925D01*
X191045D01*
Y9895D01*
X191076D01*
Y9864D01*
X191107D01*
Y9833D01*
X191137D01*
Y9803D01*
X191168D01*
Y9772D01*
X191199D01*
Y9741D01*
X191260D01*
Y9711D01*
X191290D01*
Y9680D01*
X191321D01*
Y9650D01*
X191352D01*
Y9619D01*
X191382D01*
Y9558D01*
X191352D01*
Y9527D01*
X191321D01*
Y9496D01*
X191290D01*
Y9466D01*
X191260D01*
Y9435D01*
X191229D01*
Y9404D01*
X191199D01*
Y9374D01*
X191168D01*
Y9343D01*
X191137D01*
Y9313D01*
X191107D01*
Y9282D01*
X191076D01*
Y9251D01*
X191015D01*
Y9221D01*
X190984D01*
Y9190D01*
X190954D01*
Y9159D01*
X190892D01*
Y9129D01*
X190862D01*
Y9098D01*
X190831D01*
Y9067D01*
X190770D01*
Y9037D01*
X190739D01*
Y9006D01*
X190678D01*
Y8976D01*
X190617D01*
Y8945D01*
X190555D01*
Y8914D01*
X190494D01*
Y8884D01*
X190433D01*
Y8853D01*
X190341D01*
Y8822D01*
X190279D01*
Y8792D01*
X190157D01*
Y8761D01*
X190034D01*
Y8731D01*
X189881D01*
Y8700D01*
X189698D01*
Y8669D01*
X189054D01*
Y8700D01*
X188809D01*
Y8731D01*
X188687D01*
Y8761D01*
X188564D01*
Y8792D01*
X188472D01*
Y8822D01*
X188380D01*
Y8853D01*
X188288D01*
Y8884D01*
X188227D01*
Y8914D01*
X188166D01*
Y8945D01*
X188074D01*
Y8976D01*
X188043D01*
Y9006D01*
X187982D01*
Y9037D01*
X187921D01*
Y9067D01*
X187859D01*
Y9098D01*
X187829D01*
Y9129D01*
X187798D01*
Y9159D01*
X187737D01*
Y9190D01*
X187706D01*
Y9221D01*
X187676D01*
Y9251D01*
X187614D01*
Y9282D01*
X187584D01*
Y9313D01*
X187553D01*
Y9343D01*
X187522D01*
Y9374D01*
X187492D01*
Y9404D01*
X187461D01*
Y9435D01*
X187431D01*
Y9466D01*
X187400D01*
Y9496D01*
X187369D01*
Y9527D01*
X187339D01*
Y9588D01*
X187308D01*
Y9619D01*
X187277D01*
Y9650D01*
X187247D01*
Y9711D01*
X187216D01*
Y9741D01*
X187186D01*
Y9772D01*
X187155D01*
Y9833D01*
X187124D01*
Y9895D01*
X187094D01*
Y9925D01*
X187063D01*
Y9986D01*
X187032D01*
Y10048D01*
X187002D01*
Y10109D01*
X186971D01*
Y10201D01*
X186941D01*
Y10262D01*
X186910D01*
Y10354D01*
X186879D01*
Y10446D01*
X186849D01*
Y10569D01*
X186818D01*
Y10722D01*
X186787D01*
Y10936D01*
X186757D01*
Y11549D01*
X186787D01*
Y11763D01*
X186818D01*
Y11916D01*
X186849D01*
Y12039D01*
X186879D01*
Y12131D01*
X186910D01*
Y12223D01*
X186941D01*
Y12315D01*
X186971D01*
Y12376D01*
X187002D01*
Y12437D01*
X187032D01*
Y12498D01*
X187063D01*
Y12560D01*
X187094D01*
Y12621D01*
X187124D01*
Y12682D01*
X187155D01*
Y12743D01*
X187186D01*
Y12774D01*
X187216D01*
Y12805D01*
X187247D01*
Y12866D01*
X187277D01*
Y12897D01*
X187308D01*
Y12958D01*
X187339D01*
Y12989D01*
X187369D01*
Y13019D01*
X187400D01*
Y13050D01*
X187431D01*
Y13081D01*
X187461D01*
Y13111D01*
X187492D01*
Y13142D01*
X187522D01*
Y13172D01*
X187553D01*
Y13203D01*
X187584D01*
Y13234D01*
X187614D01*
Y13264D01*
X187645D01*
Y13295D01*
X187676D01*
Y13326D01*
X187706D01*
Y13356D01*
X187768D01*
Y13387D01*
X187798D01*
Y13417D01*
X187859D01*
Y13448D01*
X187890D01*
Y13479D01*
X187951D01*
Y13509D01*
X187982D01*
Y13540D01*
X188043D01*
Y13571D01*
X188104D01*
Y13601D01*
X188166D01*
Y13632D01*
X188227D01*
Y13663D01*
X188288D01*
Y13693D01*
X188380D01*
Y13724D01*
X188472D01*
Y13754D01*
X188595D01*
Y13785D01*
X188687D01*
Y13816D01*
X188901D01*
Y13846D01*
X189575D01*
Y13816D01*
D02*
G37*
G36*
X228725D02*
X228908D01*
Y13785D01*
X229031D01*
Y13754D01*
X229123D01*
Y13724D01*
X229215D01*
Y13693D01*
X229276D01*
Y13663D01*
X229337D01*
Y13632D01*
X229398D01*
Y13601D01*
X229429D01*
Y13571D01*
X229490D01*
Y13540D01*
X229521D01*
Y13509D01*
X229582D01*
Y13479D01*
X229613D01*
Y13448D01*
X229644D01*
Y13417D01*
X229705D01*
Y13387D01*
X229735D01*
Y13356D01*
X229766D01*
Y13326D01*
X229797D01*
Y13295D01*
X229827D01*
Y13264D01*
X229889D01*
Y13234D01*
X229919D01*
Y13203D01*
X229950D01*
Y13172D01*
X229980D01*
Y13142D01*
X230011D01*
Y13754D01*
X231420D01*
Y9466D01*
X231390D01*
Y9221D01*
X231359D01*
Y9037D01*
X231328D01*
Y8914D01*
X231298D01*
Y8792D01*
X231267D01*
Y8700D01*
X231236D01*
Y8639D01*
X231206D01*
Y8547D01*
X231175D01*
Y8485D01*
X231144D01*
Y8424D01*
X231114D01*
Y8363D01*
X231083D01*
Y8302D01*
X231053D01*
Y8271D01*
X231022D01*
Y8210D01*
X230991D01*
Y8179D01*
X230961D01*
Y8118D01*
X230930D01*
Y8087D01*
X230899D01*
Y8057D01*
X230869D01*
Y8026D01*
X230838D01*
Y7965D01*
X230807D01*
Y7934D01*
X230777D01*
Y7903D01*
X230716D01*
Y7873D01*
X230685D01*
Y7842D01*
X230654D01*
Y7812D01*
X230624D01*
Y7781D01*
X230593D01*
Y7750D01*
X230532D01*
Y7720D01*
X230501D01*
Y7689D01*
X230440D01*
Y7658D01*
X230409D01*
Y7628D01*
X230348D01*
Y7597D01*
X230287D01*
Y7566D01*
X230225D01*
Y7536D01*
X230134D01*
Y7505D01*
X230072D01*
Y7475D01*
X229980D01*
Y7444D01*
X229889D01*
Y7413D01*
X229766D01*
Y7383D01*
X229644D01*
Y7352D01*
X229460D01*
Y7321D01*
X229245D01*
Y7291D01*
X228694D01*
Y7260D01*
X228602D01*
Y7291D01*
X228081D01*
Y7321D01*
X227867D01*
Y7352D01*
X227683D01*
Y7383D01*
X227560D01*
Y7413D01*
X227438D01*
Y7444D01*
X227315D01*
Y7475D01*
X227193D01*
Y7505D01*
X227101D01*
Y7536D01*
X227009D01*
Y7566D01*
X226917D01*
Y7597D01*
X226856D01*
Y7628D01*
X226795D01*
Y7658D01*
X226703D01*
Y7689D01*
X226641D01*
Y7720D01*
X226580D01*
Y7750D01*
X226519D01*
Y7781D01*
X226458D01*
Y7842D01*
X226488D01*
Y7903D01*
X226519D01*
Y7995D01*
X226550D01*
Y8057D01*
X226580D01*
Y8118D01*
X226611D01*
Y8179D01*
X226641D01*
Y8240D01*
X226672D01*
Y8332D01*
X226703D01*
Y8394D01*
X226733D01*
Y8455D01*
X226764D01*
Y8516D01*
X226795D01*
Y8577D01*
X226825D01*
Y8669D01*
X226856D01*
Y8731D01*
X226887D01*
Y8792D01*
X226917D01*
Y8853D01*
X226978D01*
Y8822D01*
X227040D01*
Y8792D01*
X227101D01*
Y8761D01*
X227162D01*
Y8731D01*
X227223D01*
Y8700D01*
X227285D01*
Y8669D01*
X227346D01*
Y8639D01*
X227438D01*
Y8608D01*
X227499D01*
Y8577D01*
X227591D01*
Y8547D01*
X227683D01*
Y8516D01*
X227805D01*
Y8485D01*
X227928D01*
Y8455D01*
X228112D01*
Y8424D01*
X228479D01*
Y8394D01*
X228755D01*
Y8424D01*
X229031D01*
Y8455D01*
X229184D01*
Y8485D01*
X229276D01*
Y8516D01*
X229368D01*
Y8547D01*
X229429D01*
Y8577D01*
X229490D01*
Y8608D01*
X229521D01*
Y8639D01*
X229582D01*
Y8669D01*
X229613D01*
Y8700D01*
X229644D01*
Y8731D01*
X229674D01*
Y8761D01*
X229705D01*
Y8792D01*
X229735D01*
Y8822D01*
X229766D01*
Y8853D01*
X229797D01*
Y8914D01*
X229827D01*
Y8945D01*
X229858D01*
Y9006D01*
X229889D01*
Y9067D01*
X229919D01*
Y9159D01*
X229950D01*
Y9251D01*
X229980D01*
Y9374D01*
X230011D01*
Y9680D01*
X230042D01*
Y9986D01*
X230011D01*
Y9956D01*
X229980D01*
Y9925D01*
X229950D01*
Y9895D01*
X229919D01*
Y9864D01*
X229889D01*
Y9833D01*
X229858D01*
Y9803D01*
X229827D01*
Y9772D01*
X229797D01*
Y9741D01*
X229766D01*
Y9711D01*
X229735D01*
Y9680D01*
X229705D01*
Y9650D01*
X229674D01*
Y9619D01*
X229644D01*
Y9588D01*
X229582D01*
Y9558D01*
X229552D01*
Y9527D01*
X229521D01*
Y9496D01*
X229460D01*
Y9466D01*
X229429D01*
Y9435D01*
X229368D01*
Y9404D01*
X229307D01*
Y9374D01*
X229245D01*
Y9343D01*
X229184D01*
Y9313D01*
X229092D01*
Y9282D01*
X229000D01*
Y9251D01*
X228878D01*
Y9221D01*
X228694D01*
Y9190D01*
X228142D01*
Y9221D01*
X227959D01*
Y9251D01*
X227805D01*
Y9282D01*
X227714D01*
Y9313D01*
X227622D01*
Y9343D01*
X227530D01*
Y9374D01*
X227468D01*
Y9404D01*
X227407D01*
Y9435D01*
X227346D01*
Y9466D01*
X227285D01*
Y9496D01*
X227223D01*
Y9527D01*
X227193D01*
Y9558D01*
X227132D01*
Y9588D01*
X227101D01*
Y9619D01*
X227040D01*
Y9650D01*
X227009D01*
Y9680D01*
X226978D01*
Y9711D01*
X226948D01*
Y9741D01*
X226917D01*
Y9772D01*
X226887D01*
Y9803D01*
X226856D01*
Y9833D01*
X226825D01*
Y9864D01*
X226795D01*
Y9895D01*
X226764D01*
Y9925D01*
X226733D01*
Y9956D01*
X226703D01*
Y9986D01*
X226672D01*
Y10048D01*
X226641D01*
Y10078D01*
X226611D01*
Y10109D01*
X226580D01*
Y10170D01*
X226550D01*
Y10232D01*
X226519D01*
Y10262D01*
X226488D01*
Y10323D01*
X226458D01*
Y10385D01*
X226427D01*
Y10446D01*
X226396D01*
Y10507D01*
X226366D01*
Y10599D01*
X226335D01*
Y10691D01*
X226304D01*
Y10814D01*
X226274D01*
Y10936D01*
X226243D01*
Y11120D01*
X226213D01*
Y11916D01*
X226243D01*
Y12100D01*
X226274D01*
Y12253D01*
X226304D01*
Y12345D01*
X226335D01*
Y12437D01*
X226366D01*
Y12498D01*
X226396D01*
Y12560D01*
X226427D01*
Y12621D01*
X226458D01*
Y12713D01*
X226488D01*
Y12743D01*
X226519D01*
Y12805D01*
X226550D01*
Y12866D01*
X226580D01*
Y12897D01*
X226611D01*
Y12958D01*
X226641D01*
Y12989D01*
X226672D01*
Y13019D01*
X226703D01*
Y13081D01*
X226733D01*
Y13111D01*
X226764D01*
Y13142D01*
X226795D01*
Y13172D01*
X226825D01*
Y13203D01*
X226856D01*
Y13234D01*
X226887D01*
Y13264D01*
X226917D01*
Y13295D01*
X226948D01*
Y13326D01*
X226978D01*
Y13356D01*
X227009D01*
Y13387D01*
X227070D01*
Y13417D01*
X227101D01*
Y13448D01*
X227132D01*
Y13479D01*
X227193D01*
Y13509D01*
X227223D01*
Y13540D01*
X227285D01*
Y13571D01*
X227346D01*
Y13601D01*
X227407D01*
Y13632D01*
X227468D01*
Y13663D01*
X227530D01*
Y13693D01*
X227622D01*
Y13724D01*
X227714D01*
Y13754D01*
X227805D01*
Y13785D01*
X227928D01*
Y13816D01*
X228112D01*
Y13846D01*
X228725D01*
Y13816D01*
D02*
G37*
G36*
X175851Y16573D02*
X175882D01*
Y16511D01*
X175912D01*
Y16450D01*
X175943D01*
Y16420D01*
X175974D01*
Y16358D01*
X176004D01*
Y16297D01*
X176035D01*
Y16236D01*
X176066D01*
Y16174D01*
X176096D01*
Y16113D01*
X176127D01*
Y16052D01*
X176157D01*
Y15991D01*
X176188D01*
Y15960D01*
X176219D01*
Y15899D01*
X176249D01*
Y15837D01*
X176280D01*
Y15776D01*
X176311D01*
Y15715D01*
X176341D01*
Y15654D01*
X176372D01*
Y15592D01*
X176403D01*
Y15531D01*
X176433D01*
Y15500D01*
X176464D01*
Y15439D01*
X176495D01*
Y15378D01*
X176525D01*
Y15317D01*
X176556D01*
Y15255D01*
X176586D01*
Y15194D01*
X176617D01*
Y15133D01*
X176648D01*
Y15072D01*
X176678D01*
Y15041D01*
X176709D01*
Y14980D01*
X176740D01*
Y14919D01*
X176770D01*
Y14857D01*
X176801D01*
Y14796D01*
X176831D01*
Y14735D01*
X176862D01*
Y14673D01*
X176893D01*
Y14612D01*
X176923D01*
Y14581D01*
X176954D01*
Y14520D01*
X176985D01*
Y14459D01*
X177015D01*
Y14398D01*
X177046D01*
Y14336D01*
X177076D01*
Y14275D01*
X177107D01*
Y14214D01*
X177138D01*
Y14153D01*
X177168D01*
Y14122D01*
X177199D01*
Y14091D01*
X177168D01*
Y14061D01*
X177138D01*
Y14030D01*
X177107D01*
Y13999D01*
X177076D01*
Y13969D01*
X177046D01*
Y13938D01*
X177015D01*
Y13908D01*
X176985D01*
Y13846D01*
X176954D01*
Y13816D01*
X176923D01*
Y13785D01*
X176893D01*
Y13754D01*
X176862D01*
Y13724D01*
X176831D01*
Y13693D01*
X176801D01*
Y13663D01*
X176770D01*
Y13632D01*
X176740D01*
Y13601D01*
X176709D01*
Y13540D01*
X176678D01*
Y13509D01*
X176648D01*
Y13479D01*
X176617D01*
Y13448D01*
X176586D01*
Y13417D01*
X176556D01*
Y13387D01*
X176525D01*
Y13356D01*
X176495D01*
Y13326D01*
X176464D01*
Y13295D01*
X176433D01*
Y13264D01*
X176403D01*
Y13203D01*
X176372D01*
Y13172D01*
X176341D01*
Y13142D01*
X176311D01*
Y13111D01*
X176280D01*
Y13081D01*
X176249D01*
Y13050D01*
X176219D01*
Y13019D01*
X176188D01*
Y12989D01*
X176157D01*
Y12958D01*
X176127D01*
Y12927D01*
X176096D01*
Y12866D01*
X176066D01*
Y12835D01*
X176035D01*
Y12805D01*
X176004D01*
Y12774D01*
X175974D01*
Y12743D01*
X175943D01*
Y12713D01*
X175912D01*
Y12682D01*
X175882D01*
Y12652D01*
X175851D01*
Y12621D01*
X175821D01*
Y12560D01*
X175790D01*
Y12529D01*
X175759D01*
Y12498D01*
X175729D01*
Y12468D01*
X175698D01*
Y12437D01*
X175667D01*
Y12406D01*
X175637D01*
Y12376D01*
X175606D01*
Y12345D01*
X175575D01*
Y12315D01*
X175545D01*
Y12284D01*
X175514D01*
Y12223D01*
X175484D01*
Y12192D01*
X175453D01*
Y12162D01*
X175422D01*
Y12131D01*
X175392D01*
Y12100D01*
X175361D01*
Y12070D01*
X175330D01*
Y12039D01*
X175300D01*
Y12008D01*
X175269D01*
Y11978D01*
X175239D01*
Y11947D01*
X175208D01*
Y11886D01*
X175177D01*
Y11855D01*
X175147D01*
Y11824D01*
X175116D01*
Y11794D01*
X175085D01*
Y11763D01*
X175055D01*
Y11733D01*
X175024D01*
Y11702D01*
X174993D01*
Y11671D01*
X174963D01*
Y11641D01*
X174932D01*
Y11579D01*
X174901D01*
Y11549D01*
X174871D01*
Y11518D01*
X174840D01*
Y11488D01*
X174810D01*
Y11457D01*
X174779D01*
Y11426D01*
X174748D01*
Y11396D01*
X174718D01*
Y11365D01*
X174687D01*
Y11334D01*
X174656D01*
Y11304D01*
X174626D01*
Y11242D01*
X174595D01*
Y11212D01*
X174565D01*
Y11181D01*
X174534D01*
Y11151D01*
X174503D01*
Y11120D01*
X174473D01*
Y11089D01*
X174442D01*
Y11059D01*
X174411D01*
Y11028D01*
X174381D01*
Y10997D01*
X174350D01*
Y10967D01*
X174320D01*
Y10905D01*
X174289D01*
Y10875D01*
X174258D01*
Y10844D01*
X174228D01*
Y10814D01*
X174197D01*
Y10783D01*
X174166D01*
Y10752D01*
X174136D01*
Y10722D01*
X174105D01*
Y10691D01*
X174074D01*
Y10660D01*
X174044D01*
Y10599D01*
X174013D01*
Y10569D01*
X173983D01*
Y10538D01*
X173952D01*
Y10507D01*
X173921D01*
Y10477D01*
X173891D01*
Y10446D01*
X173860D01*
Y10415D01*
X173829D01*
Y10385D01*
X173799D01*
Y10354D01*
X173768D01*
Y10323D01*
X173738D01*
Y10262D01*
X173707D01*
Y10232D01*
X173676D01*
Y10201D01*
X173646D01*
Y10170D01*
X173615D01*
Y10140D01*
X173584D01*
Y10109D01*
X173554D01*
Y10078D01*
X173523D01*
Y10048D01*
X173492D01*
Y10017D01*
X173462D01*
Y9986D01*
X173431D01*
Y9925D01*
X173400D01*
Y9895D01*
X173370D01*
Y9864D01*
X173339D01*
Y9833D01*
X173309D01*
Y9803D01*
X173278D01*
Y9772D01*
X173247D01*
Y9741D01*
X173217D01*
Y9711D01*
X173186D01*
Y9680D01*
X173155D01*
Y9619D01*
X173125D01*
Y9588D01*
X173094D01*
Y9558D01*
X173064D01*
Y9527D01*
X173033D01*
Y9496D01*
X173002D01*
Y9466D01*
X172972D01*
Y9435D01*
X172941D01*
Y9404D01*
X172910D01*
Y9374D01*
X172880D01*
Y9343D01*
X172849D01*
Y9282D01*
X172819D01*
Y9251D01*
X172788D01*
Y9221D01*
X172757D01*
Y9190D01*
X172727D01*
Y9159D01*
X172696D01*
Y9129D01*
X172665D01*
Y9098D01*
X172635D01*
Y9067D01*
X172604D01*
Y9037D01*
X172573D01*
Y8976D01*
X172543D01*
Y8945D01*
X172512D01*
Y8914D01*
X172482D01*
Y8884D01*
X172451D01*
Y8853D01*
X172420D01*
Y8822D01*
X172390D01*
Y8792D01*
X172359D01*
Y8761D01*
X172328D01*
Y8731D01*
X172298D01*
Y8700D01*
X172267D01*
Y8639D01*
X172236D01*
Y8608D01*
X172206D01*
Y8577D01*
X172175D01*
Y8547D01*
X172144D01*
Y8516D01*
X172114D01*
Y8485D01*
X172083D01*
Y8455D01*
X172053D01*
Y8424D01*
X172022D01*
Y8394D01*
X171991D01*
Y8363D01*
X171961D01*
Y8302D01*
X171930D01*
Y8271D01*
X171899D01*
Y8240D01*
X171869D01*
Y8210D01*
X171838D01*
Y8179D01*
X171808D01*
Y8149D01*
X171777D01*
Y8118D01*
X171746D01*
Y8087D01*
X171716D01*
Y8057D01*
X171685D01*
Y7995D01*
X171654D01*
Y7965D01*
X171624D01*
Y7934D01*
X171593D01*
Y7903D01*
X171563D01*
Y7873D01*
X171532D01*
Y7842D01*
X171501D01*
Y7812D01*
X171471D01*
Y7781D01*
X171440D01*
Y7750D01*
X171409D01*
Y7720D01*
X171379D01*
Y7658D01*
X171348D01*
Y7628D01*
X171317D01*
Y7597D01*
X171287D01*
Y7566D01*
X171256D01*
Y7536D01*
X171226D01*
Y7505D01*
X171195D01*
Y7475D01*
X171164D01*
Y7444D01*
X171134D01*
Y7413D01*
X171103D01*
Y7383D01*
X171072D01*
Y7321D01*
X171042D01*
Y7291D01*
X171011D01*
Y7260D01*
X170981D01*
Y7230D01*
X170950D01*
Y7199D01*
X170919D01*
Y7168D01*
X170889D01*
Y7138D01*
X170858D01*
Y7107D01*
X170827D01*
Y7076D01*
X170797D01*
Y7015D01*
X170766D01*
Y6984D01*
X170735D01*
Y6954D01*
X170705D01*
Y6923D01*
X170674D01*
Y6893D01*
X170643D01*
Y6862D01*
X170613D01*
Y6831D01*
X170582D01*
Y6801D01*
X170552D01*
Y6770D01*
X170521D01*
Y6739D01*
X170490D01*
Y6678D01*
X170460D01*
Y6647D01*
X170429D01*
Y6617D01*
X170398D01*
Y6586D01*
X170368D01*
Y6555D01*
X170337D01*
Y6525D01*
X170307D01*
Y6494D01*
X170276D01*
Y6464D01*
X170245D01*
Y6433D01*
X170215D01*
Y6402D01*
X170184D01*
Y6341D01*
X170153D01*
Y6311D01*
X170123D01*
Y6280D01*
X170092D01*
Y6249D01*
X170062D01*
Y6219D01*
X170031D01*
Y6188D01*
X170000D01*
Y6157D01*
X169970D01*
Y6127D01*
X169939D01*
Y6096D01*
X169908D01*
Y6035D01*
X169878D01*
Y6004D01*
X169847D01*
Y5974D01*
X169816D01*
Y5943D01*
X169786D01*
Y5912D01*
X169755D01*
Y5882D01*
X169725D01*
Y5851D01*
X169694D01*
Y5820D01*
X169663D01*
Y5790D01*
X169633D01*
Y5759D01*
X169602D01*
Y5698D01*
X169571D01*
Y5667D01*
X169541D01*
Y5636D01*
X169510D01*
Y5606D01*
X169479D01*
Y5575D01*
X169449D01*
Y5545D01*
X169418D01*
Y5514D01*
X169387D01*
Y5483D01*
X169357D01*
Y5453D01*
X169326D01*
Y5422D01*
X169296D01*
Y5361D01*
X169265D01*
Y5330D01*
X169234D01*
Y5300D01*
X169204D01*
Y5269D01*
X169173D01*
Y5238D01*
X169142D01*
Y5208D01*
X169112D01*
Y5177D01*
X169081D01*
Y5146D01*
X169051D01*
Y5116D01*
X169020D01*
Y5054D01*
X168989D01*
Y5024D01*
X168959D01*
Y4993D01*
X168928D01*
Y4963D01*
X168897D01*
Y4932D01*
X168867D01*
Y4901D01*
X168836D01*
Y4871D01*
X168806D01*
Y4840D01*
X168775D01*
Y4809D01*
X168744D01*
Y4779D01*
X168714D01*
Y4718D01*
X168683D01*
Y4687D01*
X168652D01*
Y4656D01*
X168622D01*
Y4626D01*
X168591D01*
Y4595D01*
X168560D01*
Y4564D01*
X168530D01*
Y4534D01*
X168499D01*
Y4503D01*
X168468D01*
Y4473D01*
X168438D01*
Y4442D01*
X168407D01*
Y4381D01*
X168377D01*
Y4350D01*
X168346D01*
Y4319D01*
X168315D01*
Y4289D01*
X168285D01*
Y4258D01*
X168254D01*
Y4227D01*
X168224D01*
Y4197D01*
X168193D01*
Y4166D01*
X168162D01*
Y4135D01*
X168131D01*
Y4074D01*
X168101D01*
Y4044D01*
X168070D01*
Y4013D01*
X168040D01*
Y3982D01*
X168009D01*
Y3952D01*
X167978D01*
Y3921D01*
X167948D01*
Y3890D01*
X167917D01*
Y3860D01*
X167886D01*
Y3829D01*
X167856D01*
Y3799D01*
X167825D01*
Y3737D01*
X167795D01*
Y3707D01*
X167764D01*
Y3676D01*
X167733D01*
Y3645D01*
X167703D01*
Y3615D01*
X167672D01*
Y3584D01*
X167641D01*
Y3554D01*
X167611D01*
Y3523D01*
X167580D01*
Y3492D01*
X167550D01*
Y3431D01*
X167519D01*
Y3400D01*
X167488D01*
Y3370D01*
X167458D01*
Y3339D01*
X167427D01*
Y3308D01*
X167396D01*
Y3278D01*
X167366D01*
Y3247D01*
X167335D01*
Y3278D01*
X167304D01*
Y3339D01*
X167274D01*
Y3400D01*
X167243D01*
Y3462D01*
X167213D01*
Y3523D01*
X167182D01*
Y3554D01*
X167151D01*
Y3615D01*
X167121D01*
Y3676D01*
X167090D01*
Y3737D01*
X167059D01*
Y3799D01*
X167029D01*
Y3860D01*
X166998D01*
Y3921D01*
X166967D01*
Y3982D01*
X166937D01*
Y4044D01*
X166906D01*
Y4105D01*
X166876D01*
Y4166D01*
X166845D01*
Y4227D01*
X166814D01*
Y4258D01*
X166784D01*
Y4319D01*
X166753D01*
Y4381D01*
X166722D01*
Y4442D01*
X166692D01*
Y4503D01*
X166661D01*
Y4564D01*
X166630D01*
Y4626D01*
X166600D01*
Y4687D01*
X166569D01*
Y4748D01*
X166539D01*
Y4809D01*
X166508D01*
Y4871D01*
X166477D01*
Y4932D01*
X166447D01*
Y4993D01*
X166416D01*
Y5024D01*
X166385D01*
Y5085D01*
X166355D01*
Y5146D01*
X166324D01*
Y5208D01*
X166294D01*
Y5269D01*
X166263D01*
Y5330D01*
X166232D01*
Y5392D01*
X166202D01*
Y5453D01*
X166171D01*
Y5514D01*
X166140D01*
Y5575D01*
X166110D01*
Y5636D01*
X166079D01*
Y5698D01*
X166049D01*
Y5728D01*
X166018D01*
Y5790D01*
X165987D01*
Y5851D01*
X165957D01*
Y5912D01*
X165926D01*
Y5974D01*
X165895D01*
Y6035D01*
X165865D01*
Y6096D01*
X165834D01*
Y6157D01*
X165803D01*
Y6219D01*
X165773D01*
Y6280D01*
X165742D01*
Y6341D01*
X165711D01*
Y6402D01*
X165681D01*
Y6433D01*
X165650D01*
Y6494D01*
X165620D01*
Y6555D01*
X165589D01*
Y6617D01*
X165558D01*
Y6678D01*
X165528D01*
Y6739D01*
X165497D01*
Y6801D01*
X165466D01*
Y6862D01*
X165436D01*
Y6923D01*
X165405D01*
Y6984D01*
X165375D01*
Y7046D01*
X165344D01*
Y7107D01*
X165313D01*
Y7138D01*
X165283D01*
Y7199D01*
X165252D01*
Y7260D01*
X165221D01*
Y7321D01*
X165191D01*
Y7383D01*
X165160D01*
Y7444D01*
X165129D01*
Y7505D01*
X165099D01*
Y7566D01*
X165068D01*
Y7628D01*
X165038D01*
Y7689D01*
X165007D01*
Y7750D01*
X164976D01*
Y7812D01*
X164946D01*
Y7873D01*
X164915D01*
Y7903D01*
X164884D01*
Y7965D01*
X164854D01*
Y8026D01*
X164823D01*
Y8087D01*
X164793D01*
Y8149D01*
X164762D01*
Y8210D01*
X164731D01*
Y8271D01*
X164701D01*
Y8332D01*
X164670D01*
Y8394D01*
X164639D01*
Y8424D01*
X164670D01*
Y8455D01*
X164701D01*
Y8485D01*
X164731D01*
Y8516D01*
X164762D01*
Y8547D01*
X164793D01*
Y8577D01*
X164823D01*
Y8608D01*
X164854D01*
Y8639D01*
X164884D01*
Y8700D01*
X164915D01*
Y8731D01*
X164946D01*
Y8761D01*
X164976D01*
Y8792D01*
X165007D01*
Y8822D01*
X165038D01*
Y8853D01*
X165068D01*
Y8884D01*
X165099D01*
Y8914D01*
X165129D01*
Y8945D01*
X165160D01*
Y8976D01*
X165191D01*
Y9037D01*
X165221D01*
Y9067D01*
X165252D01*
Y9098D01*
X165283D01*
Y9129D01*
X165313D01*
Y9159D01*
X165344D01*
Y9190D01*
X165375D01*
Y9221D01*
X165405D01*
Y9251D01*
X165436D01*
Y9282D01*
X165466D01*
Y9313D01*
X165497D01*
Y9343D01*
X165528D01*
Y9404D01*
X165558D01*
Y9435D01*
X165589D01*
Y9466D01*
X165620D01*
Y9496D01*
X165650D01*
Y9527D01*
X165681D01*
Y9558D01*
X165711D01*
Y9588D01*
X165742D01*
Y9619D01*
X165773D01*
Y9650D01*
X165803D01*
Y9680D01*
X165834D01*
Y9741D01*
X165865D01*
Y9772D01*
X165895D01*
Y9803D01*
X165926D01*
Y9833D01*
X165957D01*
Y9864D01*
X165987D01*
Y9895D01*
X166018D01*
Y9925D01*
X166049D01*
Y9956D01*
X166079D01*
Y9986D01*
X166110D01*
Y10017D01*
X166140D01*
Y10078D01*
X166171D01*
Y10109D01*
X166202D01*
Y10140D01*
X166232D01*
Y10170D01*
X166263D01*
Y10201D01*
X166294D01*
Y10232D01*
X166324D01*
Y10262D01*
X166355D01*
Y10293D01*
X166385D01*
Y10323D01*
X166416D01*
Y10354D01*
X166447D01*
Y10415D01*
X166477D01*
Y10446D01*
X166508D01*
Y10477D01*
X166539D01*
Y10507D01*
X166569D01*
Y10538D01*
X166600D01*
Y10569D01*
X166630D01*
Y10599D01*
X166661D01*
Y10630D01*
X166692D01*
Y10660D01*
X166722D01*
Y10691D01*
X166753D01*
Y10660D01*
X166784D01*
Y10599D01*
X166814D01*
Y10538D01*
X166845D01*
Y10477D01*
X166876D01*
Y10446D01*
X166906D01*
Y10385D01*
X166937D01*
Y10323D01*
X166967D01*
Y10262D01*
X166998D01*
Y10201D01*
X167029D01*
Y10140D01*
X167059D01*
Y10078D01*
X167090D01*
Y10017D01*
X167121D01*
Y9956D01*
X167151D01*
Y9895D01*
X167182D01*
Y9833D01*
X167213D01*
Y9803D01*
X167243D01*
Y9741D01*
X167274D01*
Y9680D01*
X167304D01*
Y9619D01*
X167335D01*
Y9558D01*
X167366D01*
Y9496D01*
X167396D01*
Y9435D01*
X167427D01*
Y9374D01*
X167458D01*
Y9313D01*
X167488D01*
Y9251D01*
X167519D01*
Y9190D01*
X167550D01*
Y9159D01*
X167580D01*
Y9098D01*
X167611D01*
Y9037D01*
X167641D01*
Y8976D01*
X167672D01*
Y8914D01*
X167703D01*
Y8884D01*
Y8853D01*
X167733D01*
Y8792D01*
X167764D01*
Y8731D01*
X167795D01*
Y8669D01*
X167825D01*
Y8608D01*
X167856D01*
Y8547D01*
X167886D01*
Y8516D01*
X167917D01*
Y8455D01*
X167948D01*
Y8394D01*
X167978D01*
Y8332D01*
X168009D01*
Y8271D01*
X168040D01*
Y8210D01*
X168070D01*
Y8149D01*
X168101D01*
Y8118D01*
X168162D01*
Y8149D01*
X168193D01*
Y8179D01*
X168224D01*
Y8240D01*
X168254D01*
Y8271D01*
X168285D01*
Y8302D01*
X168315D01*
Y8332D01*
X168346D01*
Y8363D01*
X168377D01*
Y8394D01*
X168407D01*
Y8424D01*
X168438D01*
Y8455D01*
X168468D01*
Y8485D01*
X168499D01*
Y8516D01*
X168530D01*
Y8577D01*
X168560D01*
Y8608D01*
X168591D01*
Y8639D01*
X168622D01*
Y8669D01*
X168652D01*
Y8700D01*
X168683D01*
Y8731D01*
X168714D01*
Y8761D01*
X168744D01*
Y8792D01*
X168775D01*
Y8822D01*
X168806D01*
Y8853D01*
X168836D01*
Y8914D01*
X168867D01*
Y8945D01*
X168897D01*
Y8976D01*
X168928D01*
Y9006D01*
X168959D01*
Y9037D01*
X168989D01*
Y9067D01*
X169020D01*
Y9098D01*
X169051D01*
Y9129D01*
X169081D01*
Y9159D01*
X169112D01*
Y9221D01*
X169142D01*
Y9251D01*
X169173D01*
Y9282D01*
X169204D01*
Y9313D01*
X169234D01*
Y9343D01*
X169265D01*
Y9374D01*
X169296D01*
Y9404D01*
X169326D01*
Y9435D01*
X169357D01*
Y9466D01*
X169387D01*
Y9496D01*
X169418D01*
Y9558D01*
X169449D01*
Y9588D01*
X169479D01*
Y9619D01*
X169510D01*
Y9650D01*
X169541D01*
Y9680D01*
X169571D01*
Y9711D01*
X169602D01*
Y9741D01*
X169633D01*
Y9772D01*
X169663D01*
Y9803D01*
X169694D01*
Y9833D01*
X169725D01*
Y9895D01*
X169755D01*
Y9925D01*
X169786D01*
Y9956D01*
X169816D01*
Y9986D01*
X169847D01*
Y10017D01*
X169878D01*
Y10048D01*
X169908D01*
Y10078D01*
X169939D01*
Y10109D01*
X169970D01*
Y10140D01*
X170000D01*
Y10170D01*
X170031D01*
Y10232D01*
X170062D01*
Y10262D01*
X170092D01*
Y10293D01*
X170123D01*
Y10323D01*
X170153D01*
Y10354D01*
X170184D01*
Y10385D01*
X170215D01*
Y10415D01*
X170245D01*
Y10446D01*
X170276D01*
Y10477D01*
X170307D01*
Y10507D01*
X170337D01*
Y10569D01*
X170368D01*
Y10599D01*
X170398D01*
Y10630D01*
X170429D01*
Y10660D01*
X170460D01*
Y10691D01*
X170490D01*
Y10722D01*
X170521D01*
Y10752D01*
X170552D01*
Y10783D01*
X170582D01*
Y10814D01*
X170613D01*
Y10844D01*
X170643D01*
Y10905D01*
X170674D01*
Y10936D01*
X170705D01*
Y10967D01*
X170735D01*
Y10997D01*
X170766D01*
Y11028D01*
X170797D01*
Y11059D01*
X170827D01*
Y11089D01*
X170858D01*
Y11120D01*
X170889D01*
Y11151D01*
X170919D01*
Y11212D01*
X170950D01*
Y11242D01*
X170981D01*
Y11273D01*
X171011D01*
Y11304D01*
X171042D01*
Y11334D01*
X171072D01*
Y11365D01*
X171103D01*
Y11396D01*
X171134D01*
Y11426D01*
X171164D01*
Y11457D01*
X171195D01*
Y11488D01*
X171226D01*
Y11549D01*
X171256D01*
Y11579D01*
X171287D01*
Y11610D01*
X171317D01*
Y11641D01*
X171348D01*
Y11671D01*
X171379D01*
Y11702D01*
X171409D01*
Y11733D01*
X171440D01*
Y11763D01*
X171471D01*
Y11794D01*
X171501D01*
Y11824D01*
X171532D01*
Y11886D01*
X171563D01*
Y11916D01*
X171593D01*
Y11947D01*
X171624D01*
Y11978D01*
X171654D01*
Y12008D01*
X171685D01*
Y12039D01*
X171716D01*
Y12070D01*
X171746D01*
Y12100D01*
X171777D01*
Y12131D01*
X171808D01*
Y12162D01*
X171838D01*
Y12223D01*
X171869D01*
Y12253D01*
X171899D01*
Y12284D01*
X171930D01*
Y12315D01*
X171961D01*
Y12345D01*
X171991D01*
Y12376D01*
X172022D01*
Y12406D01*
X172053D01*
Y12437D01*
X172083D01*
Y12468D01*
X172114D01*
Y12498D01*
X172144D01*
Y12560D01*
X172175D01*
Y12590D01*
X172206D01*
Y12621D01*
X172236D01*
Y12652D01*
X172267D01*
Y12682D01*
X172298D01*
Y12713D01*
X172328D01*
Y12743D01*
X172359D01*
Y12774D01*
X172390D01*
Y12805D01*
X172420D01*
Y12866D01*
X172451D01*
Y12897D01*
X172482D01*
Y12927D01*
X172512D01*
Y12958D01*
X172543D01*
Y12989D01*
X172573D01*
Y13019D01*
X172604D01*
Y13050D01*
X172635D01*
Y13081D01*
X172665D01*
Y13111D01*
X172696D01*
Y13142D01*
X172727D01*
Y13203D01*
X172757D01*
Y13234D01*
X172788D01*
Y13264D01*
X172819D01*
Y13295D01*
X172849D01*
Y13326D01*
X172880D01*
Y13356D01*
X172910D01*
Y13387D01*
X172941D01*
Y13417D01*
X172972D01*
Y13448D01*
X173002D01*
Y13479D01*
X173033D01*
Y13540D01*
X173064D01*
Y13571D01*
X173094D01*
Y13601D01*
X173125D01*
Y13632D01*
X173155D01*
Y13663D01*
X173186D01*
Y13693D01*
X173217D01*
Y13724D01*
X173247D01*
Y13754D01*
X173278D01*
Y13785D01*
X173309D01*
Y13816D01*
X173339D01*
Y13877D01*
X173370D01*
Y13908D01*
X173400D01*
Y13938D01*
X173431D01*
Y13969D01*
X173462D01*
Y13999D01*
X173492D01*
Y14030D01*
X173523D01*
Y14061D01*
X173554D01*
Y14091D01*
X173584D01*
Y14122D01*
X173615D01*
Y14153D01*
X173646D01*
Y14214D01*
X173676D01*
Y14244D01*
X173707D01*
Y14275D01*
X173738D01*
Y14306D01*
X173768D01*
Y14336D01*
X173799D01*
Y14367D01*
X173829D01*
Y14398D01*
X173860D01*
Y14428D01*
X173891D01*
Y14459D01*
X173921D01*
Y14490D01*
X173952D01*
Y14551D01*
X173983D01*
Y14581D01*
X174013D01*
Y14612D01*
X174044D01*
Y14643D01*
X174074D01*
Y14673D01*
X174105D01*
Y14704D01*
X174136D01*
Y14735D01*
X174166D01*
Y14765D01*
X174197D01*
Y14796D01*
X174228D01*
Y14857D01*
X174258D01*
Y14888D01*
X174289D01*
Y14919D01*
X174320D01*
Y14949D01*
X174350D01*
Y14980D01*
X174381D01*
Y15010D01*
X174411D01*
Y15041D01*
X174442D01*
Y15072D01*
X174473D01*
Y15102D01*
X174503D01*
Y15133D01*
X174534D01*
Y15194D01*
X174565D01*
Y15225D01*
X174595D01*
Y15255D01*
X174626D01*
Y15286D01*
X174656D01*
Y15317D01*
X174687D01*
Y15347D01*
X174718D01*
Y15378D01*
X174748D01*
Y15409D01*
X174779D01*
Y15439D01*
X174810D01*
Y15470D01*
X174840D01*
Y15531D01*
X174871D01*
Y15562D01*
X174901D01*
Y15592D01*
X174932D01*
Y15623D01*
X174963D01*
Y15654D01*
X174993D01*
Y15684D01*
X175024D01*
Y15715D01*
X175055D01*
Y15746D01*
X175085D01*
Y15776D01*
X175116D01*
Y15807D01*
X175147D01*
Y15868D01*
X175177D01*
Y15899D01*
X175208D01*
Y15929D01*
X175239D01*
Y15960D01*
X175269D01*
Y15991D01*
X175300D01*
Y16021D01*
X175330D01*
Y16052D01*
X175361D01*
Y16083D01*
X175392D01*
Y16113D01*
X175422D01*
Y16144D01*
X175453D01*
Y16205D01*
X175484D01*
Y16236D01*
X175514D01*
Y16266D01*
X175545D01*
Y16297D01*
X175575D01*
Y16328D01*
X175606D01*
Y16358D01*
X175637D01*
Y16389D01*
X175667D01*
Y16420D01*
X175698D01*
Y16450D01*
X175729D01*
Y16481D01*
X175759D01*
Y16542D01*
X175790D01*
Y16573D01*
X175821D01*
Y16603D01*
X175851D01*
Y16573D01*
D02*
G37*
G36*
X230899Y6678D02*
X231144D01*
Y6647D01*
X231236D01*
Y6617D01*
X231328D01*
Y6586D01*
X231390D01*
Y6555D01*
X231451D01*
Y6525D01*
X231512D01*
Y6494D01*
X231573D01*
Y6464D01*
X231604D01*
Y6433D01*
X231635D01*
Y6402D01*
X231604D01*
Y6341D01*
X231573D01*
Y6311D01*
X231543D01*
Y6280D01*
X231512D01*
Y6249D01*
X231482D01*
Y6219D01*
X231451D01*
Y6157D01*
X231420D01*
Y6127D01*
X231390D01*
Y6096D01*
X231298D01*
Y6127D01*
X231267D01*
Y6157D01*
X231236D01*
Y6188D01*
X231175D01*
Y6219D01*
X231114D01*
Y6249D01*
X231022D01*
Y6280D01*
X230593D01*
Y6249D01*
X230501D01*
Y6219D01*
X230471D01*
Y6188D01*
X230409D01*
Y6157D01*
X230379D01*
Y6127D01*
X230348D01*
Y6096D01*
X230317D01*
Y6065D01*
X230287D01*
Y6035D01*
X230256D01*
Y6004D01*
X230225D01*
Y5943D01*
X230195D01*
Y5882D01*
X230164D01*
Y5790D01*
X230134D01*
Y5330D01*
X230164D01*
Y5238D01*
X230195D01*
Y5177D01*
X230225D01*
Y5116D01*
X230256D01*
Y5085D01*
X230287D01*
Y5024D01*
X230317D01*
Y4993D01*
X230348D01*
Y4963D01*
X230409D01*
Y4932D01*
X230440D01*
Y4901D01*
X230501D01*
Y4871D01*
X230593D01*
Y4840D01*
X231022D01*
Y4871D01*
X231114D01*
Y4901D01*
X231175D01*
Y4932D01*
X231236D01*
Y5300D01*
X230746D01*
Y5728D01*
X231727D01*
Y4779D01*
X231696D01*
Y4748D01*
X231665D01*
Y4718D01*
X231635D01*
Y4687D01*
X231573D01*
Y4656D01*
X231543D01*
Y4626D01*
X231482D01*
Y4595D01*
X231420D01*
Y4564D01*
X231359D01*
Y4534D01*
X231298D01*
Y4503D01*
X231206D01*
Y4473D01*
X231083D01*
Y4442D01*
X230869D01*
Y4411D01*
X230685D01*
Y4442D01*
X230471D01*
Y4473D01*
X230379D01*
Y4503D01*
X230287D01*
Y4534D01*
X230225D01*
Y4564D01*
X230164D01*
Y4595D01*
X230134D01*
Y4626D01*
X230072D01*
Y4656D01*
X230042D01*
Y4687D01*
X230011D01*
Y4718D01*
X229950D01*
Y4748D01*
X229919D01*
Y4809D01*
X229889D01*
Y4840D01*
X229858D01*
Y4871D01*
X229827D01*
Y4901D01*
X229797D01*
Y4963D01*
X229766D01*
Y5024D01*
X229735D01*
Y5085D01*
X229705D01*
Y5177D01*
X229674D01*
Y5269D01*
X229644D01*
Y5453D01*
X229613D01*
Y5636D01*
X229644D01*
Y5820D01*
X229674D01*
Y5943D01*
X229705D01*
Y6004D01*
X229735D01*
Y6065D01*
X229766D01*
Y6127D01*
X229797D01*
Y6188D01*
X229827D01*
Y6219D01*
X229858D01*
Y6249D01*
X229889D01*
Y6311D01*
X229919D01*
Y6341D01*
X229950D01*
Y6372D01*
X229980D01*
Y6402D01*
X230011D01*
Y6433D01*
X230072D01*
Y6464D01*
X230103D01*
Y6494D01*
X230134D01*
Y6525D01*
X230195D01*
Y6555D01*
X230256D01*
Y6586D01*
X230317D01*
Y6617D01*
X230409D01*
Y6647D01*
X230501D01*
Y6678D01*
X230685D01*
Y6709D01*
X230899D01*
Y6678D01*
D02*
G37*
G36*
X239109Y4442D02*
X238619D01*
Y5361D01*
X237731D01*
Y4442D01*
X237241D01*
Y5054D01*
Y5085D01*
Y6678D01*
X237731D01*
Y5790D01*
X238619D01*
Y6678D01*
X239109D01*
Y4442D01*
D02*
G37*
G36*
X234392Y5606D02*
Y5575D01*
Y4442D01*
X233902D01*
Y5912D01*
X233871D01*
Y5851D01*
X233840D01*
Y5820D01*
X233810D01*
Y5759D01*
X233779D01*
Y5728D01*
X233748D01*
Y5667D01*
X233718D01*
Y5606D01*
X233687D01*
Y5575D01*
X233656D01*
Y5514D01*
X233626D01*
Y5483D01*
X233595D01*
Y5422D01*
X233565D01*
Y5392D01*
X233534D01*
Y5330D01*
X233503D01*
Y5269D01*
X233473D01*
Y5238D01*
X233442D01*
Y5177D01*
X233411D01*
Y5146D01*
X233381D01*
Y5085D01*
X233350D01*
Y5054D01*
X233319D01*
Y4993D01*
X233258D01*
Y5024D01*
X233228D01*
Y5085D01*
X233197D01*
Y5116D01*
X233166D01*
Y5177D01*
X233136D01*
Y5238D01*
X233105D01*
Y5269D01*
X233074D01*
Y5330D01*
X233044D01*
Y5361D01*
X233013D01*
Y5422D01*
X232982D01*
Y5453D01*
X232952D01*
Y5514D01*
X232921D01*
Y5575D01*
X232891D01*
Y5606D01*
X232860D01*
Y5667D01*
X232829D01*
Y5698D01*
X232799D01*
Y5759D01*
X232768D01*
Y5790D01*
X232737D01*
Y5851D01*
X232707D01*
Y5912D01*
X232676D01*
Y4442D01*
X232186D01*
Y6678D01*
X232707D01*
Y6617D01*
X232737D01*
Y6586D01*
X232768D01*
Y6525D01*
X232799D01*
Y6464D01*
X232829D01*
Y6433D01*
X232860D01*
Y6372D01*
X232891D01*
Y6341D01*
X232921D01*
Y6280D01*
X232952D01*
Y6219D01*
X232982D01*
Y6188D01*
X233013D01*
Y6127D01*
X233044D01*
Y6065D01*
X233074D01*
Y6035D01*
X233105D01*
Y5974D01*
X233136D01*
Y5912D01*
X233166D01*
Y5882D01*
X233197D01*
Y5820D01*
X233228D01*
Y5790D01*
X233258D01*
Y5728D01*
X233319D01*
Y5790D01*
X233350D01*
Y5820D01*
X233381D01*
Y5882D01*
X233411D01*
Y5912D01*
X233442D01*
Y5974D01*
X233473D01*
Y6035D01*
X233503D01*
Y6065D01*
X233534D01*
Y6127D01*
X233565D01*
Y6188D01*
X233595D01*
Y6219D01*
X233626D01*
Y6280D01*
X233656D01*
Y6341D01*
X233687D01*
Y6372D01*
X233718D01*
Y6433D01*
X233748D01*
Y6464D01*
X233779D01*
Y6525D01*
X233810D01*
Y6586D01*
X233840D01*
Y6617D01*
X233871D01*
Y6678D01*
X234392D01*
Y5606D01*
D02*
G37*
G36*
X228694Y5483D02*
X180538D01*
Y6004D01*
X228694D01*
Y5483D01*
D02*
G37*
G36*
X236076Y6647D02*
X236260D01*
Y6617D01*
X236352D01*
Y6586D01*
X236414D01*
Y6555D01*
X236475D01*
Y6525D01*
X236505D01*
Y6494D01*
X236536D01*
Y6464D01*
X236567D01*
Y6433D01*
X236597D01*
Y6402D01*
X236628D01*
Y6341D01*
X236659D01*
Y6280D01*
X236689D01*
Y6157D01*
X236720D01*
Y6035D01*
X236689D01*
Y5912D01*
X236659D01*
Y5851D01*
X236628D01*
Y5790D01*
X236597D01*
Y5759D01*
X236567D01*
Y5728D01*
X236536D01*
Y5698D01*
X236505D01*
Y5667D01*
X236444D01*
Y5636D01*
X236414D01*
Y5606D01*
X236444D01*
Y5575D01*
X236505D01*
Y5545D01*
X236567D01*
Y5514D01*
X236628D01*
Y5483D01*
X236659D01*
Y5453D01*
X236689D01*
Y5422D01*
X236720D01*
Y5392D01*
X236750D01*
Y5330D01*
X236781D01*
Y5269D01*
X236812D01*
Y5146D01*
X236842D01*
Y4993D01*
X236812D01*
Y4871D01*
X236781D01*
Y4779D01*
X236750D01*
Y4748D01*
X236720D01*
Y4687D01*
X236689D01*
Y4656D01*
X236659D01*
Y4626D01*
X236597D01*
Y4595D01*
X236567D01*
Y4564D01*
X236505D01*
Y4534D01*
X236414D01*
Y4503D01*
X236322D01*
Y4473D01*
X236107D01*
Y4442D01*
X234943D01*
Y4534D01*
Y4564D01*
Y6678D01*
X236076D01*
Y6647D01*
D02*
G37*
%LPC*%
G36*
X223241Y12621D02*
X222690D01*
Y12590D01*
X222567D01*
Y12560D01*
X222475D01*
Y12529D01*
X222414D01*
Y12498D01*
X222353D01*
Y12468D01*
X222322D01*
Y12437D01*
X222261D01*
Y12406D01*
X222200D01*
Y12376D01*
X222169D01*
Y12345D01*
X222138D01*
Y12315D01*
X222108D01*
Y12284D01*
X222077D01*
Y12253D01*
X222046D01*
Y12223D01*
X222016D01*
Y12192D01*
X221985D01*
Y12131D01*
X221954D01*
Y12100D01*
X221924D01*
Y12070D01*
X221893D01*
Y12008D01*
X221863D01*
Y11947D01*
X221832D01*
Y11886D01*
X221801D01*
Y11824D01*
X221771D01*
Y11702D01*
X221740D01*
Y11579D01*
X221709D01*
Y10967D01*
X221740D01*
Y10844D01*
X221771D01*
Y10752D01*
X221801D01*
Y10691D01*
X221832D01*
Y10599D01*
X221863D01*
Y10538D01*
X221893D01*
Y10507D01*
X221924D01*
Y10446D01*
X221954D01*
Y10415D01*
X221985D01*
Y10385D01*
X222016D01*
Y10323D01*
X222046D01*
Y10293D01*
X222077D01*
Y10262D01*
X222108D01*
Y10232D01*
X222138D01*
Y10201D01*
X222200D01*
Y10170D01*
X222230D01*
Y10140D01*
X222261D01*
Y10109D01*
X222322D01*
Y10078D01*
X222353D01*
Y10048D01*
X222414D01*
Y10017D01*
X222475D01*
Y9986D01*
X222536D01*
Y9956D01*
X222628D01*
Y9925D01*
X222751D01*
Y9895D01*
X223241D01*
Y9925D01*
X223394D01*
Y9956D01*
X223486D01*
Y9986D01*
X223547D01*
Y10017D01*
X223609D01*
Y10048D01*
X223670D01*
Y10078D01*
X223731D01*
Y10109D01*
X223762D01*
Y10140D01*
X223793D01*
Y10170D01*
X223823D01*
Y10201D01*
X223884D01*
Y10232D01*
X223915D01*
Y10262D01*
X223946D01*
Y10293D01*
X223976D01*
Y10354D01*
X224007D01*
Y10385D01*
X224038D01*
Y10415D01*
X224068D01*
Y10477D01*
X224099D01*
Y10538D01*
X224130D01*
Y10599D01*
X224160D01*
Y10660D01*
X224191D01*
Y10722D01*
X224221D01*
Y10844D01*
X224252D01*
Y10967D01*
X224283D01*
Y11059D01*
Y11089D01*
Y11549D01*
X224252D01*
Y11671D01*
X224221D01*
Y11763D01*
X224191D01*
Y11824D01*
X224160D01*
Y11886D01*
X224130D01*
Y11947D01*
X224099D01*
Y12008D01*
X224068D01*
Y12070D01*
X224038D01*
Y12100D01*
X224007D01*
Y12131D01*
X223976D01*
Y12192D01*
X223946D01*
Y12223D01*
X223915D01*
Y12253D01*
X223884D01*
Y12284D01*
X223854D01*
Y12315D01*
X223823D01*
Y12345D01*
X223762D01*
Y12376D01*
X223731D01*
Y12406D01*
X223701D01*
Y12437D01*
X223639D01*
Y12468D01*
X223578D01*
Y12498D01*
X223517D01*
Y12529D01*
X223456D01*
Y12560D01*
X223364D01*
Y12590D01*
X223241D01*
Y12621D01*
D02*
G37*
G36*
X212427Y13142D02*
X212060D01*
Y13111D01*
X211907D01*
Y13081D01*
X211784D01*
Y13050D01*
X211692D01*
Y13019D01*
X211631D01*
Y12989D01*
X211570D01*
Y12958D01*
X211508D01*
Y12927D01*
X211447D01*
Y12897D01*
X211417D01*
Y12866D01*
X211355D01*
Y12835D01*
X211325D01*
Y12805D01*
X211294D01*
Y12774D01*
X211233D01*
Y12743D01*
X211202D01*
Y12713D01*
X211172D01*
Y12682D01*
X211141D01*
Y12652D01*
X211110D01*
Y12621D01*
Y12590D01*
X211080D01*
Y12560D01*
X211049D01*
Y12529D01*
X211018D01*
Y12498D01*
X210988D01*
Y12437D01*
X210957D01*
Y12406D01*
X210927D01*
Y12345D01*
X210896D01*
Y12315D01*
X210865D01*
Y12253D01*
X210835D01*
Y12192D01*
X210804D01*
Y12131D01*
X210773D01*
Y12070D01*
X210743D01*
Y11978D01*
X210712D01*
Y11916D01*
X210681D01*
Y11794D01*
X210651D01*
Y11671D01*
X210620D01*
Y11488D01*
X213837D01*
Y11549D01*
X213806D01*
Y11702D01*
X213775D01*
Y11824D01*
X213745D01*
Y11947D01*
X213714D01*
Y12039D01*
X213684D01*
Y12131D01*
X213653D01*
Y12192D01*
X213622D01*
Y12253D01*
X213592D01*
Y12315D01*
X213561D01*
Y12376D01*
X213530D01*
Y12437D01*
X213500D01*
Y12468D01*
X213469D01*
Y12498D01*
X213438D01*
Y12560D01*
X213408D01*
Y12590D01*
X213377D01*
Y12652D01*
X213347D01*
Y12682D01*
X213316D01*
Y12713D01*
X213285D01*
Y12743D01*
X213255D01*
Y12774D01*
X213224D01*
Y12805D01*
X213193D01*
Y12835D01*
X213132D01*
Y12866D01*
X213101D01*
Y12897D01*
X213040D01*
Y12927D01*
X213010D01*
Y12958D01*
X212948D01*
Y12989D01*
X212887D01*
Y13019D01*
X212795D01*
Y13050D01*
X212734D01*
Y13081D01*
X212611D01*
Y13111D01*
X212427D01*
Y13142D01*
D02*
G37*
G36*
X189422Y12713D02*
X189024D01*
Y12682D01*
X188901D01*
Y12652D01*
X188809D01*
Y12621D01*
X188748D01*
Y12590D01*
X188687D01*
Y12560D01*
X188625D01*
Y12529D01*
X188595D01*
Y12498D01*
X188564D01*
Y12468D01*
X188533D01*
Y12437D01*
X188503D01*
Y12406D01*
X188472D01*
Y12376D01*
X188442D01*
Y12345D01*
X188411D01*
Y12315D01*
X188380D01*
Y12253D01*
X188350D01*
Y12192D01*
X188319D01*
Y12162D01*
X188288D01*
Y12100D01*
X188258D01*
Y12008D01*
X188227D01*
Y11947D01*
X188197D01*
Y11824D01*
X188166D01*
Y11702D01*
X188135D01*
Y11671D01*
X190249D01*
Y11824D01*
X190218D01*
Y11947D01*
X190188D01*
Y12008D01*
X190157D01*
Y12100D01*
X190126D01*
Y12162D01*
X190096D01*
Y12223D01*
X190065D01*
Y12284D01*
X190034D01*
Y12315D01*
X190004D01*
Y12345D01*
X189973D01*
Y12406D01*
X189943D01*
Y12437D01*
X189912D01*
Y12468D01*
X189881D01*
Y12498D01*
X189820D01*
Y12529D01*
X189789D01*
Y12560D01*
X189759D01*
Y12590D01*
X189698D01*
Y12621D01*
X189636D01*
Y12652D01*
X189544D01*
Y12682D01*
X189422D01*
Y12713D01*
D02*
G37*
G36*
X228939Y12682D02*
X228694D01*
Y12652D01*
X228479D01*
Y12621D01*
X228387D01*
Y12590D01*
X228296D01*
Y12560D01*
X228234D01*
Y12529D01*
X228173D01*
Y12498D01*
X228112D01*
Y12468D01*
X228081D01*
Y12437D01*
X228050D01*
Y12406D01*
X227989D01*
Y12376D01*
X227959D01*
Y12345D01*
X227928D01*
Y12315D01*
X227897D01*
Y12284D01*
X227867D01*
Y12223D01*
X227836D01*
Y12192D01*
X227805D01*
Y12162D01*
X227775D01*
Y12100D01*
X227744D01*
Y12039D01*
X227714D01*
Y11978D01*
X227683D01*
Y11886D01*
X227652D01*
Y11794D01*
X227622D01*
Y11242D01*
X227652D01*
Y11151D01*
X227683D01*
Y11028D01*
X227714D01*
Y10997D01*
X227744D01*
Y10936D01*
X227775D01*
Y10875D01*
X227805D01*
Y10814D01*
X227836D01*
Y10783D01*
X227867D01*
Y10752D01*
X227897D01*
Y10722D01*
X227928D01*
Y10691D01*
X227959D01*
Y10660D01*
X227989D01*
Y10630D01*
X228020D01*
Y10599D01*
X228081D01*
Y10569D01*
X228112D01*
Y10538D01*
X228173D01*
Y10507D01*
X228234D01*
Y10477D01*
X228296D01*
Y10446D01*
X228357D01*
Y10415D01*
X228479D01*
Y10385D01*
X228725D01*
Y10354D01*
X228908D01*
Y10385D01*
X229123D01*
Y10415D01*
X229245D01*
Y10446D01*
X229337D01*
Y10477D01*
X229398D01*
Y10507D01*
X229460D01*
Y10538D01*
X229521D01*
Y10569D01*
X229552D01*
Y10599D01*
X229613D01*
Y10630D01*
X229644D01*
Y10660D01*
X229674D01*
Y10691D01*
X229705D01*
Y10722D01*
X229735D01*
Y10752D01*
X229766D01*
Y10783D01*
X229797D01*
Y10814D01*
X229827D01*
Y10875D01*
X229858D01*
Y10936D01*
X229889D01*
Y10967D01*
X229919D01*
Y11028D01*
X229950D01*
Y11120D01*
X229980D01*
Y11242D01*
X230011D01*
Y11457D01*
X230042D01*
Y11579D01*
X230011D01*
Y11824D01*
X229980D01*
Y11916D01*
X229950D01*
Y12008D01*
X229919D01*
Y12070D01*
X229889D01*
Y12100D01*
X229858D01*
Y12162D01*
X229827D01*
Y12223D01*
X229797D01*
Y12253D01*
X229766D01*
Y12284D01*
X229735D01*
Y12315D01*
X229705D01*
Y12345D01*
X229674D01*
Y12376D01*
X229644D01*
Y12406D01*
X229613D01*
Y12437D01*
X229552D01*
Y12468D01*
X229521D01*
Y12498D01*
X229460D01*
Y12529D01*
X229398D01*
Y12560D01*
X229337D01*
Y12590D01*
X229276D01*
Y12621D01*
X229153D01*
Y12652D01*
X228939D01*
Y12682D01*
D02*
G37*
G36*
X236107Y6249D02*
X235433D01*
Y5790D01*
X236076D01*
Y5820D01*
X236138D01*
Y5851D01*
X236199D01*
Y5912D01*
X236230D01*
Y6157D01*
X236199D01*
Y6188D01*
X236168D01*
Y6219D01*
X236107D01*
Y6249D01*
D02*
G37*
G36*
X236199Y5361D02*
X235433D01*
Y4932D01*
Y4901D01*
Y4871D01*
X236199D01*
Y4901D01*
X236260D01*
Y4932D01*
X236322D01*
Y4993D01*
X236352D01*
Y5238D01*
X236322D01*
Y5269D01*
X236291D01*
Y5300D01*
X236260D01*
Y5330D01*
X236199D01*
Y5361D01*
D02*
G37*
%LPD*%
D15*
X113583Y44783D02*
D03*
X83858Y98917D02*
D03*
X113583Y97933D02*
D03*
X83858Y96949D02*
D03*
X113583Y95965D02*
D03*
X83858Y94980D02*
D03*
X113583Y93996D02*
D03*
X83858Y93012D02*
D03*
X113583Y92028D02*
D03*
X83858Y91043D02*
D03*
X113583Y90059D02*
D03*
X83858Y89075D02*
D03*
X113583Y88090D02*
D03*
X83858Y87106D02*
D03*
X113583Y86122D02*
D03*
X83858Y85138D02*
D03*
X113583Y84153D02*
D03*
X83858Y83169D02*
D03*
X113583Y82185D02*
D03*
X83858Y81201D02*
D03*
X113583Y80216D02*
D03*
X83858Y79232D02*
D03*
X113583Y78248D02*
D03*
X83858Y77264D02*
D03*
X113583Y76279D02*
D03*
X83858Y75295D02*
D03*
X113583Y74311D02*
D03*
X83858Y73327D02*
D03*
X113583Y72342D02*
D03*
X83858Y71358D02*
D03*
X113583Y70374D02*
D03*
X83858Y69390D02*
D03*
X113583Y68405D02*
D03*
X83858Y67421D02*
D03*
X113583Y66437D02*
D03*
X83858Y65453D02*
D03*
X113583Y64468D02*
D03*
X83858Y63484D02*
D03*
X113583Y62500D02*
D03*
X83858Y61516D02*
D03*
X113583Y60532D02*
D03*
X83858Y59547D02*
D03*
X113583Y58563D02*
D03*
X83858Y57579D02*
D03*
X113583Y56595D02*
D03*
X83858Y55610D02*
D03*
X113583Y54626D02*
D03*
X83858Y53642D02*
D03*
X113583Y52658D02*
D03*
X83858Y51673D02*
D03*
X113583Y50689D02*
D03*
X83858Y49705D02*
D03*
X113583Y48720D02*
D03*
X83858Y47736D02*
D03*
X113583Y46752D02*
D03*
X83858Y45768D02*
D03*
X113583Y34941D02*
D03*
Y32972D02*
D03*
Y31004D02*
D03*
Y29035D02*
D03*
Y27067D02*
D03*
X83858Y35925D02*
D03*
Y33957D02*
D03*
Y31988D02*
D03*
Y30020D02*
D03*
Y28051D02*
D03*
Y26083D02*
D03*
D16*
X86909Y103248D02*
D03*
Y21752D02*
D03*
D17*
X106890Y120669D02*
D03*
Y118110D02*
D03*
Y115551D02*
D03*
X114370D02*
D03*
Y118110D02*
D03*
Y120669D02*
D03*
X84055D02*
D03*
Y118110D02*
D03*
Y115551D02*
D03*
X91535D02*
D03*
Y118110D02*
D03*
Y120669D02*
D03*
D18*
X110630Y110630D02*
D03*
X105905D02*
D03*
X86614D02*
D03*
X91339D02*
D03*
X55512Y95669D02*
D03*
X45276Y93307D02*
D03*
X40551D02*
D03*
X50787Y95669D02*
D03*
D22*
X123622Y9055D02*
D03*
D23*
X129626Y3248D02*
D03*
Y14862D02*
D03*
D24*
X124016Y94095D02*
D03*
Y98819D02*
D03*
X129528Y94095D02*
D03*
Y98819D02*
D03*
X47638Y76772D02*
D03*
Y81496D02*
D03*
X129528Y24409D02*
D03*
Y29134D02*
D03*
X124016Y24409D02*
D03*
Y29134D02*
D03*
D27*
X48043Y106792D02*
D03*
X40563D02*
D03*
Y117028D02*
D03*
X44303D02*
D03*
X48043D02*
D03*
D29*
X73228Y73622D02*
D03*
X53937Y83465D02*
D03*
X73228Y75590D02*
D03*
Y77559D02*
D03*
Y79528D02*
D03*
Y81496D02*
D03*
Y83465D02*
D03*
Y85433D02*
D03*
Y87402D02*
D03*
X53937D02*
D03*
Y85433D02*
D03*
Y81496D02*
D03*
Y79528D02*
D03*
Y77559D02*
D03*
Y75590D02*
D03*
Y73622D02*
D03*
D30*
X56693Y90158D02*
D03*
X70472D02*
D03*
X68504D02*
D03*
X66535D02*
D03*
X64567D02*
D03*
X62598D02*
D03*
X60630D02*
D03*
X58661D02*
D03*
X56693Y70866D02*
D03*
X58661D02*
D03*
X60630D02*
D03*
X62598D02*
D03*
X64567D02*
D03*
X66535D02*
D03*
X68504D02*
D03*
X70472D02*
D03*
D32*
X41339Y78061D02*
D03*
Y85719D02*
D03*
D33*
X30177Y70079D02*
D03*
Y95276D02*
D03*
Y73228D02*
D03*
Y92126D02*
D03*
D34*
X29882Y75787D02*
D03*
Y77756D02*
D03*
Y79724D02*
D03*
Y81693D02*
D03*
Y83661D02*
D03*
Y85630D02*
D03*
Y87598D02*
D03*
Y89567D02*
D03*
D36*
X42911Y101181D02*
D03*
Y99213D02*
D03*
Y97244D02*
D03*
X38978D02*
D03*
Y99213D02*
D03*
Y101181D02*
D03*
D39*
X78051Y112205D02*
D03*
X58169D02*
D03*
D40*
X60827Y121260D02*
D03*
X75394D02*
D03*
X60827Y103150D02*
D03*
X75394D02*
D03*
X68307Y95276D02*
D03*
X73425D02*
D03*
X28150Y105512D02*
D03*
X33268D02*
D03*
X89961Y11417D02*
D03*
X84842D02*
D03*
X89961Y5906D02*
D03*
X84842D02*
D03*
D41*
X208858Y117323D02*
D03*
X173819D02*
D03*
D42*
X135433Y121161D02*
D03*
X161417D02*
D03*
D43*
X140551Y105905D02*
D03*
X144488D02*
D03*
X148425D02*
D03*
X152362D02*
D03*
X156299D02*
D03*
D44*
X44390Y10827D02*
D03*
X66634D02*
D03*
X44390Y20827D02*
D03*
X66634D02*
D03*
X44390Y30827D02*
D03*
X66634D02*
D03*
X44390Y40827D02*
D03*
X66634D02*
D03*
X44390Y50827D02*
D03*
X66634D02*
D03*
X44390Y60827D02*
D03*
X66634D02*
D03*
D45*
X53937Y108071D02*
D03*
Y102953D02*
D03*
X34646Y117520D02*
D03*
Y112402D02*
D03*
D46*
X47441Y72047D02*
D03*
X42323D02*
D03*
D47*
X35433Y75787D02*
D03*
Y70669D02*
D03*
D48*
X63583Y80512D02*
D03*
D49*
X94488Y5906D02*
D03*
X100787D02*
D03*
X94488Y11417D02*
D03*
X100787D02*
D03*
D50*
X104626Y101870D02*
D03*
D51*
Y23130D02*
D03*
D52*
X260630Y62500D02*
D03*
D53*
X25650Y71299D02*
D03*
Y94055D02*
D03*
D54*
X27618Y65669D02*
D03*
Y99685D02*
D03*
D55*
X11161Y65669D02*
D03*
Y99685D02*
D03*
D56*
X253150Y11417D02*
D03*
X14961D02*
D03*
Y113386D02*
D03*
X253150D02*
D03*
M02*
