G04*
G04 #@! TF.GenerationSoftware,Altium Limited,Altium Designer,24.9.1 (31)*
G04*
G04 Layer_Color=32896*
%FSLAX25Y25*%
%MOIN*%
G70*
G04*
G04 #@! TF.SameCoordinates,6CE62DF4-74A3-4477-B2B1-5A016BC00F72*
G04*
G04*
G04 #@! TF.FilePolarity,Positive*
G04*
G01*
G75*
%ADD10C,0.00787*%
G36*
X5274Y92152D02*
X5416Y92130D01*
X5558Y92103D01*
X5689Y92065D01*
X5814Y92021D01*
X5929Y91972D01*
X6038Y91923D01*
X6136Y91868D01*
X6224Y91813D01*
X6300Y91764D01*
X6371Y91715D01*
X6426Y91672D01*
X6469Y91633D01*
X6502Y91606D01*
X6524Y91584D01*
X6530Y91579D01*
X6633Y91464D01*
X6721Y91349D01*
X6797Y91229D01*
X6863Y91109D01*
X6923Y90989D01*
X6966Y90874D01*
X7005Y90760D01*
X7037Y90650D01*
X7059Y90552D01*
X7075Y90459D01*
X7092Y90372D01*
X7097Y90301D01*
X7103Y90246D01*
X7108Y90203D01*
Y90093D01*
X7103Y90028D01*
Y89968D01*
X6497D01*
X6508Y90034D01*
X6513Y90099D01*
Y90165D01*
X6508Y90268D01*
X6497Y90372D01*
X6475Y90470D01*
X6448Y90563D01*
X6420Y90650D01*
X6382Y90732D01*
X6344Y90809D01*
X6306Y90874D01*
X6267Y90940D01*
X6235Y90994D01*
X6196Y91038D01*
X6169Y91082D01*
X6142Y91109D01*
X6120Y91136D01*
X6109Y91147D01*
X6104Y91153D01*
X6027Y91224D01*
X5945Y91289D01*
X5863Y91344D01*
X5776Y91388D01*
X5694Y91431D01*
X5612Y91464D01*
X5536Y91491D01*
X5459Y91513D01*
X5388Y91530D01*
X5323Y91540D01*
X5268Y91551D01*
X5219Y91557D01*
X5175D01*
X5148Y91562D01*
X5126D01*
X5121D01*
X5012Y91557D01*
X4913Y91546D01*
X4815Y91524D01*
X4722Y91497D01*
X4635Y91470D01*
X4553Y91431D01*
X4476Y91393D01*
X4411Y91355D01*
X4346Y91317D01*
X4291Y91284D01*
X4247Y91246D01*
X4203Y91218D01*
X4176Y91191D01*
X4149Y91169D01*
X4138Y91158D01*
X4133Y91153D01*
X4062Y91076D01*
X3996Y90994D01*
X3941Y90907D01*
X3898Y90825D01*
X3854Y90743D01*
X3821Y90661D01*
X3794Y90579D01*
X3772Y90503D01*
X3756Y90432D01*
X3745Y90367D01*
X3734Y90312D01*
X3729Y90263D01*
X3723Y90219D01*
Y90093D01*
X3729Y90028D01*
X3734Y90006D01*
Y89984D01*
X3739Y89973D01*
Y89968D01*
X3139D01*
X3133Y90034D01*
X3128Y90099D01*
Y90165D01*
X3133Y90317D01*
X3155Y90465D01*
X3182Y90601D01*
X3221Y90738D01*
X3264Y90858D01*
X3314Y90978D01*
X3363Y91082D01*
X3417Y91180D01*
X3472Y91273D01*
X3526Y91349D01*
X3576Y91420D01*
X3619Y91475D01*
X3658Y91519D01*
X3685Y91551D01*
X3707Y91573D01*
X3712Y91579D01*
X3821Y91682D01*
X3941Y91770D01*
X4062Y91846D01*
X4176Y91912D01*
X4296Y91972D01*
X4417Y92015D01*
X4526Y92054D01*
X4635Y92086D01*
X4739Y92108D01*
X4831Y92125D01*
X4913Y92141D01*
X4984Y92146D01*
X5039Y92152D01*
X5083Y92157D01*
X5110D01*
X5121D01*
X5274Y92152D01*
D02*
G37*
G36*
Y88767D02*
X5416Y88745D01*
X5558Y88718D01*
X5689Y88679D01*
X5814Y88636D01*
X5929Y88587D01*
X6038Y88537D01*
X6136Y88483D01*
X6224Y88428D01*
X6300Y88379D01*
X6371Y88330D01*
X6426Y88286D01*
X6469Y88248D01*
X6502Y88221D01*
X6524Y88199D01*
X6530Y88194D01*
X6633Y88079D01*
X6721Y87964D01*
X6797Y87844D01*
X6863Y87729D01*
X6923Y87609D01*
X6966Y87489D01*
X7005Y87380D01*
X7037Y87271D01*
X7059Y87167D01*
X7075Y87074D01*
X7092Y86992D01*
X7097Y86921D01*
X7103Y86867D01*
X7108Y86823D01*
Y86714D01*
X7103Y86648D01*
Y86583D01*
X6502Y86588D01*
X6508Y86654D01*
X6513Y86719D01*
Y86785D01*
X6508Y86878D01*
X6502Y86965D01*
X6464Y87129D01*
X6415Y87276D01*
X6387Y87342D01*
X6360Y87407D01*
X6333Y87462D01*
X6306Y87511D01*
X6278Y87555D01*
X6256Y87593D01*
X6235Y87620D01*
X6218Y87642D01*
X6213Y87653D01*
X6207Y87658D01*
X6147Y87729D01*
X6082Y87789D01*
X6022Y87844D01*
X5951Y87893D01*
X5885Y87942D01*
X5820Y87981D01*
X5700Y88046D01*
X5640Y88068D01*
X5590Y88090D01*
X5541Y88106D01*
X5498Y88122D01*
X5465Y88133D01*
X5443Y88139D01*
X5427Y88144D01*
X5421D01*
Y86981D01*
X4820D01*
Y88144D01*
X4733Y88122D01*
X4651Y88095D01*
X4493Y88024D01*
X4362Y87942D01*
X4302Y87904D01*
X4247Y87860D01*
X4198Y87822D01*
X4154Y87784D01*
X4122Y87751D01*
X4089Y87718D01*
X4067Y87697D01*
X4051Y87675D01*
X4040Y87664D01*
X4034Y87658D01*
X3980Y87587D01*
X3931Y87511D01*
X3892Y87435D01*
X3854Y87358D01*
X3821Y87287D01*
X3799Y87216D01*
X3761Y87080D01*
X3750Y87014D01*
X3739Y86959D01*
X3734Y86910D01*
X3729Y86867D01*
X3723Y86834D01*
Y86708D01*
X3729Y86643D01*
X3734Y86621D01*
Y86599D01*
X3739Y86588D01*
Y86583D01*
X3139D01*
X3133Y86665D01*
X3128Y86725D01*
Y86785D01*
X3133Y86938D01*
X3155Y87080D01*
X3182Y87222D01*
X3221Y87353D01*
X3264Y87478D01*
X3314Y87593D01*
X3363Y87702D01*
X3417Y87800D01*
X3472Y87888D01*
X3526Y87964D01*
X3576Y88035D01*
X3619Y88090D01*
X3658Y88133D01*
X3685Y88166D01*
X3707Y88188D01*
X3712Y88194D01*
X3821Y88297D01*
X3941Y88385D01*
X4062Y88461D01*
X4176Y88526D01*
X4296Y88587D01*
X4417Y88630D01*
X4526Y88669D01*
X4635Y88701D01*
X4739Y88723D01*
X4831Y88740D01*
X4913Y88756D01*
X4984Y88761D01*
X5039Y88767D01*
X5083Y88772D01*
X5110D01*
X5121D01*
X5274Y88767D01*
D02*
G37*
G36*
X3226Y77016D02*
X3565Y76983D01*
X4389Y76907D01*
X4984Y76847D01*
X6317Y78141D01*
X6398Y78054D01*
X5148Y76836D01*
X5918Y76765D01*
Y76727D01*
X6207D01*
Y76454D01*
X5918D01*
Y75613D01*
X5978Y75586D01*
X6033Y75547D01*
X6098Y75487D01*
X6147Y75406D01*
X6180Y75313D01*
X6191Y75231D01*
X6185Y75138D01*
X6169Y75078D01*
X6136Y75002D01*
X6098Y74941D01*
X6049Y74887D01*
X5978Y74838D01*
X5896Y74799D01*
X5820Y74783D01*
X5760Y74772D01*
X5689Y74778D01*
X5629Y74794D01*
X5574Y74810D01*
X5514Y74843D01*
X5465Y74881D01*
X5416Y74931D01*
X5383Y74985D01*
X5356Y75034D01*
X5290Y75029D01*
X6398Y73959D01*
X6311Y73871D01*
X5121Y75018D01*
X4089Y74925D01*
X3341Y74859D01*
Y74515D01*
X2860D01*
Y74608D01*
X1965Y73740D01*
X1878Y73828D01*
X2724Y74647D01*
X2664D01*
X2647Y74625D01*
X2637Y74608D01*
X2609Y74581D01*
X2587Y74565D01*
X2555Y74548D01*
X2527Y74543D01*
X2489Y74537D01*
X2445Y74543D01*
X2418Y74554D01*
X2369Y74586D01*
X2336Y74625D01*
X2314Y74668D01*
X2309Y74717D01*
X2314Y74767D01*
X2331Y74810D01*
X2353Y74849D01*
X2374Y74865D01*
X2347Y74898D01*
X2314Y74952D01*
X2282Y75018D01*
X2243Y75111D01*
X2216Y75209D01*
X2194Y75307D01*
X2178Y75416D01*
X2162Y75498D01*
X2058D01*
Y76186D01*
X2151D01*
Y76241D01*
X2162Y76328D01*
X2172Y76421D01*
X2189Y76514D01*
X2129D01*
Y76809D01*
X2271D01*
X2287Y76847D01*
X2309Y76891D01*
X2342Y76945D01*
X2369Y76989D01*
X2407Y77027D01*
X2429Y77054D01*
X2456Y77076D01*
X2484Y77087D01*
X2533Y77082D01*
Y77251D01*
X2751D01*
Y77060D01*
X3030Y77033D01*
X1878Y78141D01*
X1965Y78228D01*
X3226Y77016D01*
D02*
G37*
G36*
X8359Y74068D02*
X8353D01*
X8337D01*
X8309D01*
X8282D01*
X8255D01*
X8228D01*
X8211D01*
X8206D01*
X8091D01*
X8031D01*
X7982D01*
X7938D01*
X7905D01*
X7878D01*
X7873D01*
X7807D01*
X7742D01*
X7682D01*
X7632D01*
X7594D01*
X7561D01*
X7540D01*
X7534D01*
X7485D01*
X7447D01*
X7419D01*
X7398D01*
X7387D01*
X7381D01*
Y77966D01*
X7387D01*
X7403D01*
X7430D01*
X7458D01*
X7485D01*
X7512D01*
X7529D01*
X7534D01*
X7649D01*
X7709D01*
X7758D01*
X7807D01*
X7840D01*
X7862D01*
X7873D01*
X7938D01*
X7998D01*
X8058D01*
X8107D01*
X8146D01*
X8178D01*
X8200D01*
X8206D01*
X8255D01*
X8293D01*
X8320D01*
X8337D01*
X8348D01*
X8359D01*
Y74068D01*
D02*
G37*
G36*
X6781Y85912D02*
X6797D01*
X6808D01*
X6813D01*
X6928Y85885D01*
X7032Y85847D01*
X7125Y85798D01*
X7196Y85743D01*
X7256Y85694D01*
X7299Y85650D01*
X7327Y85617D01*
X7338Y85612D01*
Y85606D01*
X7392Y85525D01*
X7436Y85443D01*
X7463Y85361D01*
X7485Y85284D01*
X7496Y85219D01*
X7501Y85164D01*
X7507Y85131D01*
Y80234D01*
X7496Y80114D01*
X7469Y80005D01*
X7436Y79912D01*
X7392Y79830D01*
X7349Y79759D01*
X7316Y79710D01*
X7288Y79682D01*
X7277Y79671D01*
X7234Y79628D01*
X7185Y79595D01*
X7092Y79535D01*
X6994Y79491D01*
X6906Y79464D01*
X6830Y79448D01*
X6764Y79442D01*
X6742Y79437D01*
X6726D01*
X6715D01*
X6710D01*
X6611Y79442D01*
X6519Y79464D01*
X6431Y79486D01*
X6360Y79519D01*
X6306Y79546D01*
X6262Y79573D01*
X6235Y79595D01*
X6224Y79601D01*
X3035Y82047D01*
X2948Y82128D01*
X2882Y82216D01*
X2828Y82303D01*
X2789Y82385D01*
X2762Y82462D01*
X2746Y82522D01*
X2740Y82543D01*
X2735Y82560D01*
Y82576D01*
X2729Y82636D01*
Y82696D01*
X2740Y82806D01*
X2768Y82909D01*
X2795Y82991D01*
X2833Y83068D01*
X2860Y83122D01*
X2877Y83139D01*
X2882Y83155D01*
X2893Y83160D01*
Y83166D01*
X2937Y83220D01*
X2986Y83270D01*
X3019Y83302D01*
X3030Y83308D01*
X3035Y83313D01*
X6224Y85754D01*
X6273Y85787D01*
X6322Y85819D01*
X6426Y85863D01*
X6524Y85890D01*
X6617Y85907D01*
X6693Y85918D01*
X6759D01*
X6781Y85912D01*
D02*
G37*
%LPC*%
G36*
X2533Y76956D02*
X2511D01*
X2478Y76923D01*
X2445Y76874D01*
X2413Y76809D01*
X2533D01*
Y76956D01*
D02*
G37*
G36*
X2413Y76683D02*
X2249D01*
Y76634D01*
X2413D01*
Y76683D01*
D02*
G37*
G36*
X6087Y76601D02*
X5912D01*
Y76574D01*
X6087D01*
Y76601D01*
D02*
G37*
G36*
X3368Y76880D02*
X4198Y76082D01*
X4870Y76738D01*
X3368Y76880D01*
D02*
G37*
G36*
X5034Y76721D02*
X4285Y75995D01*
X5170Y75143D01*
X5323Y75160D01*
X5317Y75214D01*
X5323Y75280D01*
X5345Y75356D01*
X5383Y75433D01*
X5421Y75493D01*
X5476Y75542D01*
X5541Y75591D01*
X5629Y75629D01*
X5721Y75651D01*
X5792Y75646D01*
Y76650D01*
X5034Y76721D01*
D02*
G37*
G36*
X2178Y76061D02*
Y75624D01*
X2249D01*
Y76055D01*
X2178Y76061D01*
D02*
G37*
G36*
X2751Y76940D02*
Y74936D01*
X2860Y74947D01*
Y75002D01*
X3090D01*
X3396Y75302D01*
Y76203D01*
X3679D01*
Y75580D01*
X4111Y75995D01*
X3172Y76902D01*
X2751Y76940D01*
D02*
G37*
G36*
X3559Y76077D02*
X3521D01*
Y75433D01*
X3559D01*
Y76077D01*
D02*
G37*
G36*
X5765Y75427D02*
X5754D01*
X5683Y75416D01*
X5629Y75395D01*
X5590Y75362D01*
X5563Y75318D01*
X5547Y75280D01*
X5541Y75247D01*
X5536Y75225D01*
Y75214D01*
X5547Y75143D01*
X5568Y75089D01*
X5607Y75051D01*
X5645Y75023D01*
X5683Y75007D01*
X5721Y75002D01*
X5743Y74996D01*
X5754D01*
X5825Y75007D01*
X5880Y75029D01*
X5912Y75067D01*
X5940Y75105D01*
X5956Y75143D01*
X5962Y75182D01*
X5967Y75204D01*
Y75214D01*
X5956Y75285D01*
X5934Y75340D01*
X5902Y75373D01*
X5858Y75400D01*
X5820Y75416D01*
X5787Y75422D01*
X5765Y75427D01*
D02*
G37*
G36*
X4198Y75908D02*
X3679Y75406D01*
Y75302D01*
X3576D01*
X3264Y75002D01*
X3341D01*
Y74990D01*
X5006Y75127D01*
X4198Y75908D01*
D02*
G37*
G36*
X2533Y76514D02*
X2320D01*
X2303Y76416D01*
X2293Y76306D01*
X2282Y76186D01*
X2380D01*
Y75498D01*
X2293D01*
X2314Y75356D01*
X2347Y75231D01*
X2380Y75122D01*
X2413Y75040D01*
X2456Y74969D01*
X2500Y74920D01*
X2533D01*
Y76514D01*
D02*
G37*
G36*
X2506Y74788D02*
X2495D01*
X2473Y74783D01*
X2462Y74778D01*
X2440Y74756D01*
X2434Y74734D01*
Y74701D01*
X2445Y74690D01*
X2462Y74668D01*
X2484Y74663D01*
X2489D01*
X2495D01*
X2516D01*
X2527Y74674D01*
X2549Y74690D01*
X2555Y74712D01*
Y74723D01*
X2549Y74745D01*
X2544Y74761D01*
X2522Y74778D01*
X2506Y74788D01*
D02*
G37*
G36*
X3215Y74881D02*
X2981D01*
Y74641D01*
X3215D01*
Y74881D01*
D02*
G37*
%LPD*%
G36*
X5803Y75351D02*
X5836Y75335D01*
X5863Y75313D01*
X5880Y75285D01*
X5891Y75258D01*
X5896Y75236D01*
Y75214D01*
X5891Y75165D01*
X5874Y75127D01*
X5852Y75105D01*
X5825Y75083D01*
X5798Y75072D01*
X5776Y75067D01*
X5760D01*
X5754D01*
X5705Y75072D01*
X5667Y75089D01*
X5645Y75116D01*
X5623Y75138D01*
X5612Y75165D01*
X5607Y75193D01*
Y75214D01*
X5612Y75264D01*
X5629Y75296D01*
X5656Y75324D01*
X5678Y75340D01*
X5705Y75351D01*
X5732Y75356D01*
X5749D01*
X5754D01*
X5803Y75351D01*
D02*
G37*
%LPC*%
G36*
X5760Y75236D02*
X5754D01*
X5743Y75231D01*
X5732Y75225D01*
Y75214D01*
X5738Y75204D01*
X5743Y75193D01*
X5749D01*
X5754D01*
X5765Y75198D01*
X5771Y75204D01*
X5776Y75209D01*
Y75214D01*
X5771Y75225D01*
X5765Y75231D01*
X5760Y75236D01*
D02*
G37*
G36*
X6770Y85443D02*
X6731D01*
X6666D01*
X6600Y85426D01*
X6557Y85404D01*
X6524Y85383D01*
X6513Y85377D01*
X3325Y82926D01*
X3308Y82909D01*
X3297Y82904D01*
X3275Y82882D01*
X3270Y82871D01*
X3237Y82822D01*
X3221Y82778D01*
X3204Y82735D01*
X3199Y82696D01*
Y82658D01*
X3204Y82620D01*
X3226Y82554D01*
X3259Y82500D01*
X3292Y82456D01*
X3314Y82434D01*
X3319Y82423D01*
X3325D01*
X6513Y79977D01*
X6546Y79955D01*
X6579Y79939D01*
X6644Y79917D01*
X6672D01*
X6693Y79912D01*
X6704D01*
X6710D01*
X6764Y79917D01*
X6813Y79928D01*
X6857Y79939D01*
X6895Y79961D01*
X6928Y79988D01*
X6955Y80015D01*
X6994Y80070D01*
X7015Y80130D01*
X7026Y80185D01*
X7032Y80207D01*
Y85120D01*
X7026Y85159D01*
X7021Y85197D01*
X6999Y85257D01*
X6988Y85279D01*
X6977Y85295D01*
X6966Y85306D01*
Y85312D01*
X6928Y85355D01*
X6890Y85388D01*
X6852Y85415D01*
X6808Y85432D01*
X6770Y85443D01*
D02*
G37*
%LPD*%
G36*
X5263Y83231D02*
X5268D01*
X5984Y83046D01*
X6016Y83035D01*
X6049Y83018D01*
X6093Y82980D01*
X6120Y82937D01*
X6131Y82893D01*
X6136Y82855D01*
Y82816D01*
X6131Y82795D01*
Y82784D01*
X6120Y82751D01*
X6104Y82718D01*
X6082Y82696D01*
X6076Y82691D01*
X4902Y81506D01*
X4859Y81473D01*
X4820Y81462D01*
X4777Y81457D01*
X4744Y81462D01*
X4717Y81479D01*
X4695Y81490D01*
X4679Y81501D01*
X4673Y81506D01*
X4646Y81550D01*
X4629Y81593D01*
Y81632D01*
X4635Y81664D01*
X4646Y81692D01*
X4657Y81713D01*
X4668Y81730D01*
X4673Y81735D01*
X5623Y82685D01*
X5640Y82713D01*
X5645Y82718D01*
Y82724D01*
X5650Y82751D01*
X5645Y82773D01*
X5623Y82800D01*
X5601Y82816D01*
X5596Y82822D01*
X5590D01*
X5192Y82926D01*
X5137Y82947D01*
X5104Y82975D01*
X5083Y83002D01*
X5072Y83040D01*
Y83095D01*
X5077Y83117D01*
Y83122D01*
X5099Y83171D01*
X5126Y83204D01*
X5159Y83226D01*
X5186Y83231D01*
X5219Y83237D01*
X5246D01*
X5263Y83231D01*
D02*
G37*
G36*
X5618Y84100D02*
X5716Y84089D01*
X5814Y84078D01*
X5912Y84050D01*
X6011Y84018D01*
X6115Y83979D01*
X6120Y83974D01*
X6136Y83969D01*
X6164Y83952D01*
X6202Y83930D01*
X6246Y83903D01*
X6295Y83870D01*
X6349Y83832D01*
X6404Y83783D01*
X6469Y83728D01*
X6530Y83668D01*
X6590Y83603D01*
X6650Y83532D01*
X6704Y83450D01*
X6759Y83362D01*
X6808Y83270D01*
X6846Y83166D01*
Y83160D01*
X6857Y83139D01*
X6863Y83111D01*
X6874Y83068D01*
X6884Y83018D01*
X6901Y82964D01*
X6912Y82893D01*
X6917Y82822D01*
X6928Y82740D01*
Y82565D01*
X6917Y82472D01*
X6901Y82374D01*
X6879Y82276D01*
X6846Y82172D01*
X6808Y82074D01*
X6803Y82068D01*
X6797Y82052D01*
X6781Y82025D01*
X6759Y81986D01*
X6731Y81943D01*
X6699Y81894D01*
X6661Y81839D01*
X6611Y81779D01*
X6557Y81719D01*
X6497Y81653D01*
X6431Y81593D01*
X6360Y81533D01*
X6278Y81473D01*
X6191Y81419D01*
X6098Y81375D01*
X5994Y81331D01*
X5989D01*
X5984Y81326D01*
X5956Y81315D01*
X5907Y81304D01*
X5847Y81282D01*
X5771Y81266D01*
X5689Y81255D01*
X5596Y81244D01*
X5503Y81239D01*
X5498D01*
X5476D01*
X5454Y81249D01*
X5421Y81260D01*
X5394Y81282D01*
X5367Y81309D01*
X5350Y81353D01*
X5345Y81408D01*
Y81430D01*
X5350Y81457D01*
X5367Y81484D01*
X5383Y81511D01*
X5410Y81539D01*
X5448Y81555D01*
X5503Y81561D01*
X5514D01*
X5536D01*
X5574Y81566D01*
X5623Y81572D01*
X5678Y81577D01*
X5743Y81588D01*
X5809Y81610D01*
X5880Y81632D01*
X5885D01*
X5902Y81637D01*
X5923Y81648D01*
X5951Y81664D01*
X5989Y81681D01*
X6027Y81703D01*
X6126Y81763D01*
X6229Y81845D01*
X6284Y81888D01*
X6333Y81943D01*
X6387Y82003D01*
X6437Y82063D01*
X6480Y82134D01*
X6519Y82210D01*
Y82216D01*
X6524Y82227D01*
X6535Y82254D01*
X6546Y82281D01*
X6557Y82319D01*
X6573Y82363D01*
X6584Y82412D01*
X6595Y82472D01*
X6611Y82598D01*
Y82740D01*
X6606Y82816D01*
X6595Y82898D01*
X6579Y82975D01*
X6551Y83057D01*
Y83062D01*
X6546Y83073D01*
X6535Y83100D01*
X6519Y83128D01*
X6502Y83166D01*
X6480Y83204D01*
X6420Y83297D01*
X6344Y83401D01*
X6240Y83510D01*
X6185Y83559D01*
X6120Y83608D01*
X6055Y83652D01*
X5978Y83690D01*
X5973D01*
X5962Y83696D01*
X5934Y83706D01*
X5907Y83717D01*
X5869Y83728D01*
X5820Y83745D01*
X5771Y83755D01*
X5716Y83766D01*
X5585Y83783D01*
X5443D01*
X5367Y83777D01*
X5285Y83766D01*
X5208Y83750D01*
X5126Y83723D01*
X5121D01*
X5104Y83717D01*
X5083Y83706D01*
X5055Y83690D01*
X5017Y83674D01*
X4979Y83652D01*
X4881Y83592D01*
X4777Y83515D01*
X4728Y83466D01*
X4673Y83417D01*
X4624Y83357D01*
X4575Y83297D01*
X4531Y83226D01*
X4493Y83149D01*
Y83144D01*
X4482Y83133D01*
X4476Y83106D01*
X4466Y83078D01*
X4455Y83040D01*
X4438Y82991D01*
X4427Y82942D01*
X4417Y82887D01*
X4395Y82756D01*
Y82614D01*
X4400Y82538D01*
X4411Y82456D01*
X4427Y82380D01*
X4455Y82298D01*
Y82292D01*
X4460Y82270D01*
X4466Y82249D01*
Y82216D01*
X4460Y82178D01*
X4438Y82145D01*
X4411Y82112D01*
X4362Y82090D01*
X4356D01*
X4335Y82085D01*
X4313Y82079D01*
X4280D01*
X4242Y82090D01*
X4209Y82107D01*
X4176Y82139D01*
X4154Y82188D01*
Y82194D01*
X4143Y82216D01*
X4138Y82243D01*
X4127Y82281D01*
X4116Y82336D01*
X4105Y82390D01*
X4094Y82462D01*
X4083Y82533D01*
X4078Y82614D01*
Y82789D01*
X4089Y82887D01*
X4105Y82986D01*
X4127Y83084D01*
X4160Y83182D01*
X4203Y83286D01*
X4209Y83291D01*
X4214Y83308D01*
X4231Y83335D01*
X4253Y83373D01*
X4280Y83417D01*
X4313Y83466D01*
X4351Y83521D01*
X4400Y83581D01*
X4455Y83641D01*
X4515Y83701D01*
X4580Y83766D01*
X4651Y83827D01*
X4733Y83881D01*
X4820Y83936D01*
X4913Y83985D01*
X5017Y84029D01*
X5023D01*
X5044Y84034D01*
X5072Y84045D01*
X5110Y84056D01*
X5164Y84067D01*
X5219Y84078D01*
X5290Y84089D01*
X5361Y84094D01*
X5443Y84100D01*
X5530Y84105D01*
X5618Y84100D01*
D02*
G37*
D10*
X7086Y50160D02*
X3150D01*
Y48192D01*
X3806Y47536D01*
X5118D01*
X5774Y48192D01*
Y50160D01*
Y48848D02*
X7086Y47536D01*
X3150Y43600D02*
Y46224D01*
X7086D01*
Y43600D01*
X5118Y46224D02*
Y44912D01*
X3150Y42288D02*
X5774D01*
X7086Y40976D01*
X5774Y39664D01*
X3150D01*
X7086Y38353D02*
X6430D01*
Y37696D01*
X7086D01*
Y38353D01*
Y31137D02*
Y29825D01*
Y30481D01*
X3150D01*
X3806Y31137D01*
X7086Y27857D02*
X6430D01*
Y27201D01*
X7086D01*
Y27857D01*
Y24577D02*
Y23266D01*
Y23921D01*
X3150D01*
X3806Y24577D01*
M02*
