G04*
G04 #@! TF.GenerationSoftware,Altium Limited,Altium Designer,24.9.1 (31)*
G04*
G04 Layer_Color=16711935*
%FSLAX25Y25*%
%MOIN*%
G70*
G04*
G04 #@! TF.SameCoordinates,6CE62DF4-74A3-4477-B2B1-5A016BC00F72*
G04*
G04*
G04 #@! TF.FilePolarity,Positive*
G04*
G01*
G75*
%ADD58C,0.01000*%
%ADD62C,0.00600*%
D58*
X0Y0D02*
X275513D01*
Y30857D01*
Y93357D02*
Y124992D01*
X0Y125002D02*
X275513D01*
X275478Y30892D02*
Y93322D01*
X0Y0D02*
Y125002D01*
Y144488D02*
X6000Y146488D01*
X0Y144488D02*
X6000Y142488D01*
X269590D02*
X275590Y144488D01*
X269590Y146488D02*
X275590Y144488D01*
X0D02*
X121100D01*
X151291D02*
X275590D01*
X0Y126502D02*
Y145488D01*
X275590Y125984D02*
Y145488D01*
X285008Y6000D02*
X287008Y0D01*
X289008Y6000D01*
X287008Y124992D02*
X289008Y118992D01*
X285008D02*
X287008Y124992D01*
Y0D02*
Y46300D01*
Y75492D02*
Y124992D01*
X277013Y0D02*
X288008D01*
X277013Y124992D02*
X288008D01*
D62*
X122700Y146887D02*
X126698D01*
Y145887D01*
X122700Y141889D01*
Y140889D01*
X128698Y145887D02*
X129697Y146887D01*
X131697D01*
X132696Y145887D01*
Y141889D01*
X131697Y140889D01*
X129697D01*
X128698Y141889D01*
Y145887D01*
X134696Y140889D02*
Y141889D01*
X135695D01*
Y140889D01*
X134696D01*
X139694Y145887D02*
X140694Y146887D01*
X142693D01*
X143693Y145887D01*
Y141889D01*
X142693Y140889D01*
X140694D01*
X139694Y141889D01*
Y145887D01*
X145692D02*
X146692Y146887D01*
X148691D01*
X149691Y145887D01*
Y141889D01*
X148691Y140889D01*
X146692D01*
X145692Y141889D01*
Y145887D01*
X285609Y47900D02*
X284609Y48900D01*
Y50899D01*
X285609Y51899D01*
X286608D01*
X287608Y50899D01*
Y49900D01*
Y50899D01*
X288608Y51899D01*
X289607D01*
X290607Y50899D01*
Y48900D01*
X289607Y47900D01*
X290607Y53898D02*
Y55898D01*
Y54898D01*
X284609D01*
X285609Y53898D01*
X290607Y58897D02*
X289607D01*
Y59896D01*
X290607D01*
Y58897D01*
X284609Y63895D02*
Y67894D01*
X285609D01*
X289607Y63895D01*
X290607D01*
X284609Y73892D02*
Y69893D01*
X287608D01*
X286608Y71892D01*
Y72892D01*
X287608Y73892D01*
X289607D01*
X290607Y72892D01*
Y70893D01*
X289607Y69893D01*
M02*
