%FSTAX25Y25*%
%MOIN*%
%SFA1B1*%

%IPPOS*%
%ADD10C,0.008000*%
%ADD14C,0.010000*%
%ADD18C,0.006000*%
%ADD22C,0.005000*%
%ADD147C,0.020000*%
%ADD148C,0.015000*%
%ADD155C,0.075000*%
%ADD162C,0.055000*%
%ADD165C,0.016000*%
%LNgrandmaster-1*%
%LPD*%
G54D10*
X0775984Y0581102D02*
X0785882Y0591D01*
X0738583Y0581102D02*
X0775984D01*
X0728685Y0591D02*
X0738583Y0581102D01*
X0785882Y0591D02*
X08443D01*
X06995D02*
X0728685D01*
X0949784Y0909284D02*
X1125716D01*
X09495Y0909D02*
X0949784Y0909284D01*
X0994828Y06516D02*
X0998Y0654772D01*
Y0654783*
X09985Y0655283*
Y06555*
X0988794Y06516D02*
X0994828D01*
X09954Y06556D02*
X0996D01*
X0994206Y0656794D02*
X09954Y06556D01*
X09921Y0656794D02*
X0994206D01*
X0781294Y0667794D02*
X0787266D01*
X0787372Y06679*
X0787184Y06814D02*
X0857828D01*
X0787009Y0681574D02*
X0787184Y06814D01*
X08321Y07219D02*
X11568D01*
X08685Y06485D02*
X0953394D01*
X0957494Y06444*
X09984*
X10055Y06515*
X08375Y06945D02*
X0932228D01*
X0934728Y0692*
X0955994*
X0957894Y06901*
X09738*
X09795Y06844*
X11041Y0827D02*
X12325D01*
X11036Y08265D02*
X11041Y0827D01*
X09735Y08265D02*
X11036D01*
X0849Y0724D02*
X11625D01*
X0861917Y06774D02*
X0862317Y0677D01*
X08617Y06774D02*
X0861917D01*
X0862317Y0677D02*
X09466D01*
X09484Y06788*
X0969406*
X0970006Y06794*
X0998386*
X0998987Y068*
X10055*
X1228683Y08119D02*
X1229284Y08125D01*
X12295*
X1000272Y08119D02*
X1228683D01*
X0999673Y08125D02*
X1000272Y08119D01*
X0993Y08125D02*
X0999673D01*
X0908728Y07974D02*
X09188D01*
X0906528Y07952D02*
X0908728Y07974D01*
X08589Y07952D02*
X0906528D01*
X08414Y08127D02*
X08589Y07952D01*
X1010495Y07665D02*
X1017067Y0759928D01*
X08485Y07665D02*
X1010495D01*
X1012306Y06755D02*
X10125D01*
X1010706Y06739D02*
X1012306Y06755D01*
X0957006Y06739D02*
X1010706D01*
X0956906Y06738D02*
X0957006Y06739D01*
X08595Y06738D02*
X0956906D01*
X0829Y0692D02*
X0932466D01*
X0934066Y06904*
X0943422*
X0944322Y06895*
X09545*
X08485Y077D02*
X085Y07685D01*
X1020306*
X1028878Y0759928*
X0857Y06794D02*
X0862528D01*
X0863628Y06783*
X09456*
X09477Y06804*
X0962602*
X0964202Y0682*
X09935*
X0825Y08265D02*
X0839574D01*
X0840133Y0827059*
X0868379*
X0868769Y082745*
X0935684*
X0935781Y0827547*
X0936347*
X09365Y08277*
X0857033Y07416D02*
X0857633Y0741D01*
X08566Y07416D02*
X0857033D01*
X0857633Y0741D02*
X1003D01*
X0949002Y0677D02*
X0971D01*
X0947402Y06754D02*
X0949002Y0677D01*
X0860728Y06754D02*
X0947402D01*
X0860228Y06759D02*
X0860728Y06754D01*
X0854Y06759D02*
X0860228D01*
X0857828Y06814D02*
X0858328Y06809D01*
X09268*
X1226824Y0823D02*
X1227257D01*
X1225924Y08239D02*
X1226824Y0823D01*
X09797Y08239D02*
X1225924D01*
X0745Y08151D02*
X07451Y08152D01*
X08429D02*
X08495Y08086D01*
X07451Y08152D02*
X08429D01*
X08414Y08561D02*
X08425Y0855D01*
X07431Y08561D02*
X08414D01*
X07587Y0914D02*
X0797652D01*
X07576Y09129D02*
X07587Y0914D01*
X0799252Y09156D02*
X0803D01*
X0797652Y0914D02*
X0799252Y09156D01*
X0777Y0916D02*
X0797814D01*
X0801364Y091955*
X0804636D02*
X0808186Y0916D01*
X0996025*
X1000039Y0911987*
X0801364Y091955D02*
X0804636D01*
X0805086Y09021D02*
X08235D01*
X0804636Y090165D02*
X0805086Y09021D01*
X0801364Y090165D02*
X0804636D01*
X0800914Y09021D02*
X0801364Y090165D01*
X07895Y09021D02*
X0800914D01*
X07894Y09022D02*
X07895Y09021D01*
X09595Y0761D02*
X09614Y07591D01*
X0956172Y0761D02*
X09595D01*
X0955672Y07605D02*
X0956172Y0761D01*
X08812Y07605D02*
X0955672D01*
X1233281Y0832298D02*
X1234491Y0833508D01*
X0953302Y0832298D02*
X1233281D01*
X09293Y08348D02*
X0960272D01*
X11046Y083D02*
X1242351D01*
X09644Y08297D02*
X11043D01*
X11046Y083*
X0962972Y08375D02*
X124D01*
X0960272Y08348D02*
X0962972Y08375D01*
X09448Y0844D02*
X1246D01*
X09427Y08461D02*
X09448Y0844D01*
X09436Y084D02*
X109125D01*
X09385Y08451D02*
X09436Y084D01*
X1246Y0844D02*
X1247Y0843D01*
X09791Y08204D02*
X1229857D01*
X094212Y06686D02*
X0958928D01*
X0941978Y0668459D02*
X094212Y06686D01*
X0919309Y06677D02*
X0920137Y0668528D01*
X0919471Y06697D02*
X0919599Y0669828D01*
X0958928Y06686D02*
X0959628Y06679D01*
X0940928Y0669759D02*
X094267Y06715D01*
X07884Y06697D02*
X0919471D01*
X0959628Y06679D02*
X09715D01*
X0787572Y06677D02*
X0919309D01*
X0787372Y06679D02*
X0787572Y06677D01*
X0919599Y0669828D02*
X0930229D01*
X0930299Y0669759*
X0940928*
X092976Y0668459D02*
X0941978D01*
X092969Y0668528D02*
X092976Y0668459D01*
X0920137Y0668528D02*
X092969D01*
X094267Y06715D02*
X0958D01*
X08658Y06645D02*
X0977292D01*
X0978292Y06655*
X090725Y06595D02*
X090815Y06604D01*
X0968948D02*
X0969548Y0661D01*
X090815Y06604D02*
X0968948D01*
X109175Y08405D02*
X1243057D01*
X1243557Y084D02*
X1243773D01*
X1243057Y08405D02*
X1243557Y084D01*
X08469Y05936D02*
Y05941D01*
X08443Y0591D02*
X08469Y05936D01*
X0871Y06595D02*
X090725D01*
X0891Y0654D02*
X0986394D01*
X0988794Y06516*
X1232384Y08159D02*
X1232784Y08155D01*
X1005072Y08159D02*
X1232384D01*
X1004672Y08155D02*
X1005072Y08159D01*
X1232784Y08155D02*
X1233D01*
X09845D02*
X1004672D01*
X0896476Y082615D02*
X0898726Y08239D01*
X0869308Y082615D02*
X0896476D01*
X08451Y08239D02*
X0867058D01*
X0898726D02*
X09221D01*
X0867058D02*
X0869308Y082615D01*
X0841Y08198D02*
X08451Y08239D01*
X0858317Y08292D02*
X0858817Y08297D01*
X08581Y08292D02*
X0858317D01*
X0858817Y08297D02*
X09243D01*
X08657Y06644D02*
X08658Y06645D01*
X07782Y06301D02*
X08196D01*
X08197Y06302*
X0844428Y08204D02*
X08582D01*
X0841828Y08178D02*
X0844428Y08204D01*
X0840172Y08178D02*
X0841828D01*
X0837572Y08204D02*
X0840172Y08178D01*
X08196Y08204D02*
X0837572D01*
X06999Y06434D02*
X0700069D01*
X08265Y0651D02*
X09535D01*
X0700769Y06441D02*
X08437D01*
X08019Y063656D02*
X080196Y06365D01*
X07995Y0634D02*
X0937D01*
X0700069Y06434D02*
X0700769Y06441D01*
X0805Y0639D02*
X0937D01*
X0939274Y06365D02*
X09395Y0636726D01*
X080196Y06365D02*
X0939274D01*
X0849Y06323D02*
X08493Y0632D01*
X0800628Y06323D02*
X0849D01*
X0800328Y0632D02*
X0800628Y06323D01*
X0784871Y0632D02*
X0800328D01*
X0766393Y06323D02*
X0767753Y063366D01*
X0783211*
X0784871Y0632*
X07556Y06323D02*
X0766393D01*
X08516Y07467D02*
X0858872D01*
X08914Y07485D02*
X08939Y0746D01*
X0860672Y07485D02*
X08914D01*
X0858872Y07467D02*
X0860672Y07485D01*
X08832Y07267D02*
X09333D01*
X08794Y07311D02*
X08828Y07345D01*
X09489*
X0841935Y07625D02*
X08949D01*
X07Y0696D02*
X07011Y06971D01*
X084*
X07178Y07318D02*
X084D01*
X07011Y07485D02*
X07178Y07318D01*
X08634Y0662D02*
X0945979D01*
X0854729Y0862D02*
X0879D01*
X0812006Y08591D02*
X0824796D01*
X0829077Y0863381*
X0853348*
X0854729Y0862*
X0811343Y08575D02*
X0860208D01*
X0862708Y086*
X07745Y08665D02*
X0774581Y0866581D01*
X0866919*
X0867Y08665*
X0754Y08625D02*
X0786106D01*
X0788587Y0864981*
X0864233*
X0810606Y08605D02*
X0812006Y08591D01*
X07584Y08581D02*
X0810743D01*
X0864233Y0864981D02*
X0865215Y0864D01*
X09415*
X07875Y08605D02*
X0810606D01*
X0810743Y08581D02*
X0811343Y08575D01*
X0862708Y086D02*
X0923D01*
X07565D02*
X07584Y08581D01*
X0851606Y0851D02*
X0856006Y08466D01*
X0902733D02*
X0904633Y08485D01*
X0952*
X0856006Y08466D02*
X0902733D01*
X08225Y0851D02*
X0851606D01*
X0898354Y08755D02*
X0969D01*
X0900969Y0884D02*
X0969D01*
X09005Y0883531D02*
X0900969Y0884D01*
X09005Y08835D02*
Y0883531D01*
X08885Y06565D02*
X09318D01*
X09327Y06556D02*
X0976D01*
X09318Y06565D02*
X09327Y06556D01*
X0976D02*
X09798Y06594D01*
X0989494D02*
X09921Y0656794D01*
X09798Y06594D02*
X0989494D01*
X0994956Y0660356D02*
X1016856D01*
X0994312Y0661D02*
X0994956Y0660356D01*
X0969548Y0661D02*
X0994312D01*
X09535Y0651D02*
X09585Y0646D01*
X09913*
X0993Y06477*
X09952D02*
X10025Y0655D01*
X0993Y06477D02*
X09952D01*
X1016856Y0660356D02*
X1017Y06605D01*
X0945979Y0662D02*
X0946735Y0662756D01*
X1014146*
X0978292Y06655D02*
X10125D01*
X0979Y08205D02*
X09791Y08204D01*
X1229857D02*
X1229957Y08203D01*
X1000039Y0911987D02*
X1074487D01*
X0982Y0818D02*
X12265D01*
X12266Y08179*
X1236795Y08195D02*
X1243D01*
X1235195Y08179D02*
X1236795Y08195D01*
X12266Y08179D02*
X1235195D01*
X1242351Y083D02*
X1242851Y08295D01*
X12435*
X109125Y084D02*
X109175Y08405D01*
X0946Y0846D02*
X125D01*
G54D14*
X08716Y08114D02*
Y08164D01*
Y08114D02*
X08782Y08048D01*
X08942*
X0904685Y0815285*
Y0815785D02*
X09048Y08159D01*
X0904685Y0815285D02*
Y0815785D01*
G54D18*
X08074Y064156D02*
X0807417Y0641543D01*
X0939727*
X0939744Y0641526*
G54D22*
X0862429Y0568829D02*
D01*
X0861952Y0568318*
X0861513Y0567776*
X0861113Y0567204*
X0860753Y0566606*
X0860437Y0565984*
X0860164Y0565341*
X0859937Y0564681*
X0859756Y0564007*
X0859623Y0563322*
X0859538Y0562629*
X0859501Y0561932*
X08595Y0561758*
X08676Y0574D02*
D01*
X0867892Y0574313*
X0868162Y0574647*
X0868408Y0574998*
X0868629Y0575366*
X0868824Y0575748*
X0868991Y0576143*
X0869131Y0576549*
X0869242Y0576963*
X0869324Y0577384*
X0869376Y057781*
X0869399Y0578238*
X08694Y0578346*
X085875Y05373D02*
D01*
X0858802Y0537301*
X0858854Y0537307*
X0858905Y0537316*
X0858956Y0537329*
X0859006Y0537345*
X0859055Y0537364*
X0859102Y0537387*
X0859147Y0537413*
X085919Y0537443*
X0859232Y0537475*
X085927Y053751*
X0859307Y0537548*
X0859341Y0537588*
X0859371Y053763*
X0859399Y0537675*
X0859424Y0537721*
X0859445Y0537769*
X0859463Y0537818*
X0859477Y0537868*
X0859488Y0537919*
X0859495Y0537971*
X0859499Y0538023*
X08595Y053805*
X0858162Y05373D02*
D01*
X0858109Y0537298*
X0858057Y0537292*
X0858006Y0537283*
X0857955Y053727*
X0857905Y0537254*
X0857856Y0537235*
X0857809Y0537212*
X0857764Y0537186*
X0857721Y0537156*
X0857679Y0537124*
X0857641Y0537089*
X0857604Y0537051*
X085757Y0537011*
X085754Y0536969*
X0857512Y0536925*
X0857487Y0536878*
X0857466Y053683*
X0857448Y0536781*
X0857434Y0536731*
X0857423Y053668*
X0857416Y0536628*
X0857412Y0536576*
Y0536523*
X0857416Y0536471*
X0857423Y0536419*
X0857434Y0536368*
X0857448Y0536318*
X0857466Y0536269*
X0857487Y0536221*
X0857512Y0536175*
X085754Y053613*
X085757Y0536088*
X0857604Y0536048*
X0857641Y053601*
X0857679Y0535975*
X0857721Y0535943*
X0857764Y0535913*
X0857809Y0535887*
X0857856Y0535864*
X0857905Y0535845*
X0857955Y0535829*
X0858006Y0535816*
X0858057Y0535807*
X0858109Y0535801*
X0858162Y05358*
X0859119Y05343D02*
D01*
X0859171Y0534301*
X0859223Y0534307*
X0859274Y0534316*
X0859325Y0534329*
X0859375Y0534345*
X0859424Y0534364*
X0859471Y0534387*
X0859516Y0534413*
X0859559Y0534443*
X0859601Y0534475*
X0859639Y053451*
X0859676Y0534548*
X085971Y0534588*
X085974Y053463*
X0859768Y0534675*
X0859793Y0534721*
X0859814Y0534769*
X0859832Y0534818*
X0859846Y0534868*
X0859857Y0534919*
X0859864Y0534971*
X0859868Y0535023*
Y0535076*
X0859864Y0535128*
X0859857Y053518*
X0859846Y0535231*
X0859832Y0535281*
X0859814Y053533*
X0859793Y0535378*
X0859768Y0535425*
X085974Y0535469*
X085971Y0535511*
X0859676Y0535551*
X0859639Y0535589*
X0859601Y0535624*
X0859559Y0535656*
X0859516Y0535686*
X0859471Y0535712*
X0859424Y0535735*
X0859375Y0535754*
X0859325Y053577*
X0859274Y0535783*
X0859223Y0535792*
X0859171Y0535798*
X0859119Y05358*
X0858062Y05343D02*
D01*
X0858009Y0534298*
X0857957Y0534292*
X0857906Y0534283*
X0857855Y053427*
X0857805Y0534254*
X0857756Y0534235*
X0857709Y0534212*
X0857664Y0534186*
X0857621Y0534156*
X0857579Y0534124*
X0857541Y0534089*
X0857504Y0534051*
X085747Y0534011*
X085744Y0533969*
X0857412Y0533925*
X0857387Y0533878*
X0857366Y053383*
X0857348Y0533781*
X0857334Y0533731*
X0857323Y053368*
X0857316Y0533628*
X0857312Y0533576*
Y0533523*
X0857316Y0533471*
X0857323Y0533419*
X0857334Y0533368*
X0857348Y0533318*
X0857366Y0533269*
X0857387Y0533221*
X0857412Y0533175*
X085744Y053313*
X085747Y0533088*
X0857504Y0533048*
X0857541Y053301*
X0857579Y0532975*
X0857621Y0532943*
X0857664Y0532913*
X0857709Y0532887*
X0857756Y0532864*
X0857805Y0532845*
X0857855Y0532829*
X0857906Y0532816*
X0857957Y0532807*
X0858009Y0532801*
X0858062Y05328*
X08595Y053205D02*
D01*
X0859498Y0532102*
X0859492Y0532154*
X0859483Y0532205*
X085947Y0532256*
X0859454Y0532306*
X0859435Y0532355*
X0859412Y0532402*
X0859386Y0532447*
X0859356Y053249*
X0859324Y0532532*
X0859289Y053257*
X0859251Y0532607*
X0859211Y0532641*
X0859169Y0532671*
X0859125Y0532699*
X0859078Y0532724*
X085903Y0532745*
X0858981Y0532763*
X0858931Y0532777*
X085888Y0532788*
X0858828Y0532795*
X0858776Y0532799*
X085875Y05328*
X08653Y0587258D02*
D01*
X0865275Y0587955*
X0865202Y0588649*
X0865081Y0589337*
X0864912Y0590014*
X0864696Y0590678*
X0864435Y0591325*
X0864129Y0591952*
X086378Y0592557*
X086339Y0593135*
X086296Y0593685*
X0862493Y0594204*
X0862371Y0594329*
X0890392Y0528306D02*
D01*
X0890423Y052818*
X0890464Y0528058*
X0890513Y0527938*
X089057Y0527822*
X0890635Y0527711*
X0890708Y0527604*
X0890788Y0527503*
X0890875Y0527407*
X0890968Y0527318*
X0891068Y0527236*
X0891173Y052716*
X0891283Y0527092*
X0891397Y0527032*
X0891515Y052698*
X0891637Y0526937*
X0891761Y0526902*
X0891888Y0526876*
X0892016Y0526858*
X0892144Y052685*
X0892274Y0526851*
X0892402Y052686*
X089253Y0526879*
X0892656Y0526906*
X089278Y0526943*
X0892901Y0526987*
X0893019Y0527041*
X0893133Y0527102*
X0893242Y0527171*
X0893346Y0527247*
X0893445Y0527331*
X0893537Y0527421*
X0893623Y0527517*
X0893702Y052762*
X0893756Y05277*
X0890392Y0528306D02*
D01*
X0890383Y0528339*
X0890372Y0528373*
X0890359Y0528405*
X0890343Y0528436*
X0890326Y0528466*
X0890306Y0528495*
X0890284Y0528523*
X0890261Y0528549*
X0890236Y0528573*
X0890209Y0528595*
X0890181Y0528615*
X0890151Y0528634*
X089012Y052865*
X0890088Y0528664*
X0890055Y0528676*
X0890022Y0528685*
X0889987Y0528693*
X0889953Y0528697*
X0889918Y05287*
X0889901Y05287*
X0874192Y0528606D02*
D01*
X0874223Y052848*
X0874264Y0528358*
X0874313Y0528238*
X087437Y0528122*
X0874435Y0528011*
X0874508Y0527904*
X0874588Y0527803*
X0874675Y0527707*
X0874768Y0527618*
X0874868Y0527536*
X0874973Y052746*
X0875083Y0527392*
X0875197Y0527332*
X0875315Y052728*
X0875437Y0527237*
X0875561Y0527202*
X0875688Y0527176*
X0875816Y0527158*
X0875944Y052715*
X0876074Y0527151*
X0876202Y052716*
X087633Y0527179*
X0876456Y0527206*
X087658Y0527243*
X0876701Y0527287*
X0876819Y0527341*
X0876933Y0527402*
X0877042Y0527471*
X0877146Y0527547*
X0877245Y0527631*
X0877337Y0527721*
X0877423Y0527817*
X0877502Y052792*
X0877561Y0528007*
X0874192Y0528606D02*
D01*
X0874183Y0528639*
X0874172Y0528673*
X0874159Y0528705*
X0874143Y0528736*
X0874126Y0528766*
X0874106Y0528795*
X0874084Y0528823*
X0874061Y0528849*
X0874036Y0528873*
X0874009Y0528895*
X0873981Y0528915*
X0873951Y0528934*
X087392Y052895*
X0873888Y0528964*
X0873855Y0528976*
X0873822Y0528985*
X0873787Y0528993*
X0873753Y0528997*
X0873718Y0529*
X0873701Y0529*
X0840392Y0528106D02*
D01*
X0840423Y052798*
X0840464Y0527858*
X0840513Y0527738*
X084057Y0527622*
X0840635Y0527511*
X0840708Y0527404*
X0840788Y0527303*
X0840875Y0527207*
X0840968Y0527118*
X0841068Y0527036*
X0841173Y052696*
X0841283Y0526892*
X0841397Y0526832*
X0841515Y052678*
X0841637Y0526737*
X0841761Y0526702*
X0841888Y0526676*
X0842016Y0526658*
X0842144Y052665*
X0842274Y0526651*
X0842402Y052666*
X084253Y0526679*
X0842656Y0526706*
X084278Y0526743*
X0842901Y0526787*
X0843019Y0526841*
X0843133Y0526902*
X0843242Y0526971*
X0843346Y0527047*
X0843445Y0527131*
X0843537Y0527221*
X0843623Y0527317*
X0843702Y052742*
X0843774Y0527527*
X0843838Y0527639*
X0843894Y0527756*
X0843942Y0527876*
X0843981Y0527999*
X0843987Y0528023*
X0840392Y0528106D02*
D01*
X0840383Y0528139*
X0840372Y0528173*
X0840359Y0528205*
X0840343Y0528236*
X0840326Y0528266*
X0840306Y0528295*
X0840284Y0528323*
X0840261Y0528349*
X0840236Y0528373*
X0840209Y0528395*
X0840181Y0528415*
X0840151Y0528434*
X084012Y052845*
X0840088Y0528464*
X0840055Y0528476*
X0840022Y0528485*
X0839987Y0528493*
X0839953Y0528497*
X0839918Y05285*
X0839901Y05285*
X084145Y054D02*
D01*
X0841502Y0540001*
X0841554Y0540007*
X0841605Y0540016*
X0841656Y0540029*
X0841706Y0540045*
X0841755Y0540064*
X0841802Y0540087*
X0841847Y0540113*
X084189Y0540143*
X0841932Y0540175*
X084197Y054021*
X0842007Y0540248*
X0842041Y0540288*
X0842071Y054033*
X0842099Y0540375*
X0842124Y0540421*
X0842145Y0540469*
X0842163Y0540518*
X0842177Y0540568*
X0842188Y0540619*
X0842195Y0540671*
X0842199Y0540723*
X08422Y054075*
X084145Y054D02*
D01*
X0841397Y0539998*
X0841345Y0539992*
X0841294Y0539983*
X0841243Y053997*
X0841193Y0539954*
X0841144Y0539935*
X0841097Y0539912*
X0841052Y0539886*
X0841009Y0539856*
X0840967Y0539824*
X0840929Y0539789*
X0840892Y0539751*
X0840858Y0539711*
X0840828Y0539669*
X08408Y0539625*
X0840775Y0539578*
X0840754Y053953*
X0840736Y0539481*
X0840722Y0539431*
X0840711Y053938*
X0840704Y0539328*
X08407Y0539276*
Y0539223*
X0840704Y0539171*
X0840711Y0539119*
X0840722Y0539068*
X0840736Y0539018*
X0840754Y0538969*
X0840775Y0538921*
X08408Y0538875*
X0840828Y053883*
X0840858Y0538788*
X0840892Y0538748*
X0840929Y053871*
X0840967Y0538675*
X0841009Y0538643*
X0841052Y0538613*
X0841097Y0538587*
X0841144Y0538564*
X0841193Y0538545*
X0841243Y0538529*
X0841294Y0538516*
X0841345Y0538507*
X0841397Y0538501*
X084145Y05385*
X084185Y0537D02*
D01*
X0841902Y0537001*
X0841954Y0537007*
X0842005Y0537016*
X0842056Y0537029*
X0842106Y0537045*
X0842155Y0537064*
X0842202Y0537087*
X0842247Y0537113*
X084229Y0537143*
X0842332Y0537175*
X084237Y053721*
X0842407Y0537248*
X0842441Y0537288*
X0842471Y053733*
X0842499Y0537375*
X0842524Y0537421*
X0842545Y0537469*
X0842563Y0537518*
X0842577Y0537568*
X0842588Y0537619*
X0842595Y0537671*
X0842599Y0537723*
Y0537776*
X0842595Y0537828*
X0842588Y053788*
X0842577Y0537931*
X0842563Y0537981*
X0842545Y053803*
X0842524Y0538078*
X0842499Y0538125*
X0842471Y0538169*
X0842441Y0538211*
X0842407Y0538251*
X084237Y0538289*
X0842332Y0538324*
X084229Y0538356*
X0842247Y0538386*
X0842202Y0538412*
X0842155Y0538435*
X0842106Y0538454*
X0842056Y053847*
X0842005Y0538483*
X0841954Y0538492*
X0841902Y0538498*
X084185Y05385*
Y0537D02*
D01*
X0841797Y0536998*
X0841745Y0536992*
X0841694Y0536983*
X0841643Y053697*
X0841593Y0536954*
X0841544Y0536935*
X0841497Y0536912*
X0841452Y0536886*
X0841409Y0536856*
X0841367Y0536824*
X0841329Y0536789*
X0841292Y0536751*
X0841258Y0536711*
X0841228Y0536669*
X08412Y0536625*
X0841175Y0536578*
X0841154Y053653*
X0841136Y0536481*
X0841122Y0536431*
X0841111Y053638*
X0841104Y0536328*
X08411Y0536276*
Y0536223*
X0841104Y0536171*
X0841111Y0536119*
X0841122Y0536068*
X0841136Y0536018*
X0841154Y0535969*
X0841175Y0535921*
X08412Y0535875*
X0841228Y053583*
X0841258Y0535788*
X0841292Y0535748*
X0841329Y053571*
X0841367Y0535675*
X0841409Y0535643*
X0841452Y0535613*
X0841497Y0535587*
X0841544Y0535564*
X0841593Y0535545*
X0841643Y0535529*
X0841694Y0535516*
X0841745Y0535507*
X0841797Y0535501*
X084185Y05355*
Y0534D02*
D01*
X0841902Y0534001*
X0841954Y0534007*
X0842005Y0534016*
X0842056Y0534029*
X0842106Y0534045*
X0842155Y0534064*
X0842202Y0534087*
X0842247Y0534113*
X084229Y0534143*
X0842332Y0534175*
X084237Y053421*
X0842407Y0534248*
X0842441Y0534288*
X0842471Y053433*
X0842499Y0534375*
X0842524Y0534421*
X0842545Y0534469*
X0842563Y0534518*
X0842577Y0534568*
X0842588Y0534619*
X0842595Y0534671*
X0842599Y0534723*
Y0534776*
X0842595Y0534828*
X0842588Y053488*
X0842577Y0534931*
X0842563Y0534981*
X0842545Y053503*
X0842524Y0535078*
X0842499Y0535125*
X0842471Y0535169*
X0842441Y0535211*
X0842407Y0535251*
X084237Y0535289*
X0842332Y0535324*
X084229Y0535356*
X0842247Y0535386*
X0842202Y0535412*
X0842155Y0535435*
X0842106Y0535454*
X0842056Y053547*
X0842005Y0535483*
X0841954Y0535492*
X0841902Y0535498*
X084185Y05355*
X0841282Y0534D02*
D01*
X0841229Y0533998*
X0841177Y0533992*
X0841126Y0533983*
X0841075Y053397*
X0841025Y0533954*
X0840976Y0533935*
X0840929Y0533912*
X0840884Y0533886*
X0840841Y0533856*
X0840799Y0533824*
X0840761Y0533789*
X0840724Y0533751*
X084069Y0533711*
X084066Y0533669*
X0840632Y0533625*
X0840607Y0533578*
X0840586Y053353*
X0840568Y0533481*
X0840554Y0533431*
X0840543Y053338*
X0840536Y0533328*
X0840532Y0533276*
Y0533223*
X0840536Y0533171*
X0840543Y0533119*
X0840554Y0533068*
X0840568Y0533018*
X0840586Y0532969*
X0840607Y0532921*
X0840632Y0532875*
X084066Y053283*
X084069Y0532788*
X0840724Y0532748*
X0840761Y053271*
X0840799Y0532675*
X0840841Y0532643*
X0840884Y0532613*
X0840929Y0532587*
X0840976Y0532564*
X0841025Y0532545*
X0841075Y0532529*
X0841126Y0532516*
X0841177Y0532507*
X0841229Y0532501*
X0841282Y05325*
X08422Y053175D02*
D01*
X0842198Y0531802*
X0842192Y0531854*
X0842183Y0531905*
X084217Y0531956*
X0842154Y0532006*
X0842135Y0532055*
X0842112Y0532102*
X0842086Y0532147*
X0842056Y053219*
X0842024Y0532232*
X0841989Y053227*
X0841951Y0532307*
X0841911Y0532341*
X0841869Y0532371*
X0841825Y0532399*
X0841778Y0532424*
X084173Y0532445*
X0841681Y0532463*
X0841631Y0532477*
X084158Y0532488*
X0841528Y0532495*
X0841476Y0532499*
X084145Y05325*
X08665Y0589358D02*
D01*
X0866475Y0590055*
X0866402Y0590749*
X0866281Y0591437*
X0866112Y0592114*
X0865896Y0592778*
X0865635Y0593425*
X0865329Y0594052*
X086498Y0594657*
X086459Y0595235*
X086416Y0595785*
X0863693Y0596304*
X0863571Y0596429*
Y0573771D02*
D01*
X0864047Y0574281*
X0864486Y0574823*
X0864886Y0575395*
X0865246Y0575993*
X0865562Y0576615*
X0865835Y0577258*
X0866062Y0577918*
X0866243Y0578592*
X0866376Y0579277*
X0866461Y057997*
X0866498Y0580667*
X08665Y0580842*
X0846529Y0556729D02*
D01*
X0846052Y0556218*
X0845613Y0555676*
X0845213Y0555104*
X0844853Y0554506*
X0844537Y0553884*
X0844264Y0553241*
X0844037Y0552581*
X0843856Y0551907*
X0843723Y0551222*
X0843638Y0550529*
X0843601Y0549832*
X08436Y0549658*
Y0529883D02*
D01*
X0843601Y0529848*
X0843604Y0529813*
X084361Y0529779*
X0843619Y0529745*
X084363Y0529711*
X0843643Y0529679*
X0843658Y0529648*
X0843675Y0529618*
X0843695Y0529589*
X0843696Y0529589*
X0843987Y0528023D02*
D01*
X0844015Y0528148*
X0844035Y0528276*
X0844047Y0528405*
X0844049Y0528534*
X0844042Y0528663*
X0844026Y0528791*
X0844001Y0528918*
X0843968Y0529042*
X0843925Y0529165*
X0843875Y0529283*
X0843816Y0529398*
X0843749Y0529509*
X0843696Y0529589*
X0862371Y0574471D02*
D01*
X0862847Y0574981*
X0863286Y0575523*
X0863686Y0576095*
X0864046Y0576693*
X0864362Y0577315*
X0864635Y0577958*
X0864862Y0578618*
X0865043Y0579292*
X0865176Y0579977*
X0865261Y058067*
X0865298Y0581367*
X08653Y0581542*
X0845129Y0557229D02*
D01*
X0844652Y0556718*
X0844213Y0556176*
X0843813Y0555604*
X0843453Y0555006*
X0843137Y0554384*
X0842864Y0553741*
X0842637Y0553081*
X0842456Y0552407*
X0842323Y0551722*
X0842238Y0551029*
X0842201Y0550332*
X08422Y0550158*
X0868071Y0572571D02*
D01*
X0868547Y0573081*
X0868986Y0573623*
X0869386Y0574195*
X0869746Y0574793*
X0870062Y0575415*
X0870335Y0576058*
X0870562Y0576718*
X0870743Y0577392*
X0870876Y0578077*
X0870961Y057877*
X0870998Y0579467*
X0871Y0579642*
X0860869Y0530225D02*
D01*
X086087Y053019*
X0860873Y0530155*
X0860879Y0530121*
X0860888Y0530087*
X0860899Y0530053*
X0860912Y0530021*
X0860927Y052999*
X0860944Y052996*
X0860964Y0529931*
X0860971Y0529922*
X0863798Y0568298D02*
D01*
X0863321Y0567787*
X0862882Y0567245*
X0862482Y0566673*
X0862122Y0566075*
X0861806Y0565453*
X0861533Y056481*
X0861306Y056415*
X0861125Y0563476*
X0860992Y0562791*
X0860907Y0562098*
X086087Y0561401*
X0860869Y0561227*
Y0527556D02*
D01*
X0860952Y0527654*
X0861028Y0527758*
X0861097Y0527867*
X0861158Y0527981*
X0861211Y0528099*
X0861256Y052822*
X0861292Y0528344*
X086132Y052847*
X0861338Y0528598*
X0861348Y0528727*
X0861348Y0528856*
X086134Y0528984*
X0861323Y0529112*
X0861296Y0529239*
X0861261Y0529363*
X0861218Y0529485*
X0861166Y0529603*
X0861106Y0529717*
X0861038Y0529827*
X0860971Y0529922*
X0857677Y0528485D02*
D01*
X0857669Y0528519*
X085766Y0528552*
X0857648Y0528585*
X0857634Y0528617*
X0857618Y0528648*
X0857599Y0528678*
X0857579Y0528706*
X0857557Y0528733*
X0857532Y0528758*
X0857507Y0528782*
X0857479Y0528803*
X085745Y0528823*
X085742Y052884*
X0857389Y0528856*
X0857356Y0528869*
X0857323Y052888*
X0857289Y0528888*
X0857255Y0528895*
X085722Y0528898*
X0857185Y05289*
X0857181Y05289*
X0857677Y0528485D02*
D01*
X0857703Y0528358*
X0857738Y0528234*
X0857782Y0528112*
X0857834Y0527994*
X0857894Y052788*
X0857962Y052777*
X0858038Y0527666*
X085812Y0527566*
X085821Y0527473*
X0858305Y0527386*
X0858407Y0527307*
X0858514Y0527234*
X0858625Y0527169*
X0858741Y0527112*
X0858861Y0527063*
X0858983Y0527023*
X0859109Y0526991*
X0859236Y0526968*
X0859364Y0526954*
X0859493Y0526949*
X0859622Y0526954*
X0859751Y0526967*
X0859878Y0526989*
X0860003Y0527019*
X0860126Y0527059*
X0860246Y0527107*
X0860362Y0527163*
X0860474Y0527227*
X0860582Y0527299*
X0860684Y0527378*
X086078Y0527464*
X0860869Y0527556*
X087525Y05375D02*
D01*
X0875302Y0537501*
X0875354Y0537507*
X0875405Y0537516*
X0875456Y0537529*
X0875506Y0537545*
X0875555Y0537564*
X0875602Y0537587*
X0875647Y0537613*
X087569Y0537643*
X0875732Y0537675*
X087577Y053771*
X0875807Y0537748*
X0875841Y0537788*
X0875871Y053783*
X0875899Y0537875*
X0875924Y0537921*
X0875945Y0537969*
X0875963Y0538018*
X0875977Y0538068*
X0875988Y0538119*
X0875995Y0538171*
X0875999Y0538223*
X0876Y053825*
X0874628Y05375D02*
D01*
X0874575Y0537498*
X0874523Y0537492*
X0874472Y0537483*
X0874421Y053747*
X0874371Y0537454*
X0874322Y0537435*
X0874275Y0537412*
X087423Y0537386*
X0874187Y0537356*
X0874145Y0537324*
X0874107Y0537289*
X087407Y0537251*
X0874036Y0537211*
X0874006Y0537169*
X0873978Y0537125*
X0873953Y0537078*
X0873932Y053703*
X0873914Y0536981*
X08739Y0536931*
X0873889Y053688*
X0873882Y0536828*
X0873878Y0536776*
Y0536723*
X0873882Y0536671*
X0873889Y0536619*
X08739Y0536568*
X0873914Y0536518*
X0873932Y0536469*
X0873953Y0536421*
X0873978Y0536375*
X0874006Y053633*
X0874036Y0536288*
X087407Y0536248*
X0874107Y053621*
X0874145Y0536175*
X0874187Y0536143*
X087423Y0536113*
X0874275Y0536087*
X0874322Y0536064*
X0874371Y0536045*
X0874421Y0536029*
X0874472Y0536016*
X0874523Y0536007*
X0874575Y0536001*
X0874628Y0536*
X0875811Y05345D02*
D01*
X0875863Y0534501*
X0875915Y0534507*
X0875966Y0534516*
X0876017Y0534529*
X0876067Y0534545*
X0876116Y0534564*
X0876163Y0534587*
X0876208Y0534613*
X0876251Y0534643*
X0876293Y0534675*
X0876331Y053471*
X0876368Y0534748*
X0876402Y0534788*
X0876432Y053483*
X087646Y0534875*
X0876485Y0534921*
X0876506Y0534969*
X0876524Y0535018*
X0876538Y0535068*
X0876549Y0535119*
X0876556Y0535171*
X087656Y0535223*
Y0535276*
X0876556Y0535328*
X0876549Y053538*
X0876538Y0535431*
X0876524Y0535481*
X0876506Y053553*
X0876485Y0535578*
X087646Y0535625*
X0876432Y0535669*
X0876402Y0535711*
X0876368Y0535751*
X0876331Y0535789*
X0876293Y0535824*
X0876251Y0535856*
X0876208Y0535886*
X0876163Y0535912*
X0876116Y0535935*
X0876067Y0535954*
X0876017Y053597*
X0875966Y0535983*
X0875915Y0535992*
X0875863Y0535998*
X0875811Y0536*
X0874532Y05345D02*
D01*
X0874479Y0534498*
X0874427Y0534492*
X0874376Y0534483*
X0874325Y053447*
X0874275Y0534454*
X0874226Y0534435*
X0874179Y0534412*
X0874134Y0534386*
X0874091Y0534356*
X0874049Y0534324*
X0874011Y0534289*
X0873974Y0534251*
X087394Y0534211*
X087391Y0534169*
X0873882Y0534125*
X0873857Y0534078*
X0873836Y053403*
X0873818Y0533981*
X0873804Y0533931*
X0873793Y053388*
X0873786Y0533828*
X0873782Y0533776*
Y0533723*
X0873786Y0533671*
X0873793Y0533619*
X0873804Y0533568*
X0873818Y0533518*
X0873836Y0533469*
X0873857Y0533421*
X0873882Y0533375*
X087391Y053333*
X087394Y0533288*
X0873974Y0533248*
X0874011Y053321*
X0874049Y0533175*
X0874091Y0533143*
X0874134Y0533113*
X0874179Y0533087*
X0874226Y0533064*
X0874275Y0533045*
X0874325Y0533029*
X0874376Y0533016*
X0874427Y0533007*
X0874479Y0533001*
X0874532Y0533*
X0876Y053225D02*
D01*
X0875998Y0532302*
X0875992Y0532354*
X0875983Y0532405*
X087597Y0532456*
X0875954Y0532506*
X0875935Y0532555*
X0875912Y0532602*
X0875886Y0532647*
X0875856Y053269*
X0875824Y0532732*
X0875789Y053277*
X0875751Y0532807*
X0875711Y0532841*
X0875669Y0532871*
X0875625Y0532899*
X0875578Y0532924*
X087553Y0532945*
X0875481Y0532963*
X0875431Y0532977*
X087538Y0532988*
X0875328Y0532995*
X0875276Y0532999*
X087525Y0533*
X088049Y057749D02*
D01*
X0880013Y0576979*
X0879574Y0576437*
X0879174Y0575865*
X0878814Y0575267*
X0878498Y0574645*
X0878225Y0574002*
X0877998Y0573342*
X0877817Y0572668*
X0877684Y0571983*
X0877599Y057129*
X0877562Y0570593*
X0877561Y0570419*
Y0530129D02*
D01*
X0877562Y0530094*
X0877565Y0530059*
X0877571Y0530025*
X087758Y0529991*
X0877591Y0529957*
X0877604Y0529925*
X0877619Y0529894*
X0877622Y0529889*
X0877561Y0528007D02*
D01*
X0877626Y0528118*
X0877684Y0528233*
X0877733Y0528353*
X0877774Y0528475*
X0877806Y05286*
X0877829Y0528727*
X0877844Y0528856*
X087785Y0528985*
X0877846Y0529114*
X0877834Y0529242*
X0877812Y052937*
X0877782Y0529495*
X0877743Y0529618*
X0877696Y0529738*
X087764Y0529855*
X0877622Y0529889*
X08783Y0579D02*
D01*
X0877926Y0578599*
X0877581Y0578173*
X0877266Y0577724*
X0876984Y0577254*
X0876735Y0576765*
X0876521Y0576261*
X0876343Y0575743*
X0876201Y0575213*
X0876096Y0574675*
X0876029Y0574131*
X0876001Y0573584*
X0876Y0573447*
X08922Y053235D02*
D01*
X0892198Y0532402*
X0892192Y0532454*
X0892183Y0532505*
X089217Y0532556*
X0892154Y0532606*
X0892135Y0532655*
X0892112Y0532702*
X0892086Y0532747*
X0892056Y053279*
X0892024Y0532832*
X0891989Y053287*
X0891951Y0532907*
X0891911Y0532941*
X0891869Y0532971*
X0891825Y0532999*
X0891778Y0533024*
X089173Y0533045*
X0891681Y0533063*
X0891631Y0533077*
X089158Y0533088*
X0891528Y0533095*
X0891476Y0533099*
X089145Y05331*
X0891437Y05346D02*
D01*
X0891384Y0534598*
X0891332Y0534592*
X0891281Y0534583*
X089123Y053457*
X089118Y0534554*
X0891131Y0534535*
X0891084Y0534512*
X0891039Y0534486*
X0890996Y0534456*
X0890954Y0534424*
X0890916Y0534389*
X0890879Y0534351*
X0890845Y0534311*
X0890815Y0534269*
X0890787Y0534225*
X0890762Y0534178*
X0890741Y053413*
X0890723Y0534081*
X0890709Y0534031*
X0890698Y053398*
X0890691Y0533928*
X0890687Y0533876*
Y0533823*
X0890691Y0533771*
X0890698Y0533719*
X0890709Y0533668*
X0890723Y0533618*
X0890741Y0533569*
X0890762Y0533521*
X0890787Y0533475*
X0890815Y053343*
X0890845Y0533388*
X0890879Y0533348*
X0890916Y053331*
X0890954Y0533275*
X0890996Y0533243*
X0891039Y0533213*
X0891084Y0533187*
X0891131Y0533164*
X089118Y0533145*
X089123Y0533129*
X0891281Y0533116*
X0891332Y0533107*
X0891384Y0533101*
X0891437Y05331*
X089245Y05346D02*
D01*
X0892502Y0534601*
X0892554Y0534607*
X0892605Y0534616*
X0892656Y0534629*
X0892706Y0534645*
X0892755Y0534664*
X0892802Y0534687*
X0892847Y0534713*
X089289Y0534743*
X0892932Y0534775*
X089297Y053481*
X0893007Y0534848*
X0893041Y0534888*
X0893071Y053493*
X0893099Y0534975*
X0893124Y0535021*
X0893145Y0535069*
X0893163Y0535118*
X0893177Y0535168*
X0893188Y0535219*
X0893195Y0535271*
X0893199Y0535323*
Y0535376*
X0893195Y0535428*
X0893188Y053548*
X0893177Y0535531*
X0893163Y0535581*
X0893145Y053563*
X0893124Y0535678*
X0893099Y0535725*
X0893071Y0535769*
X0893041Y0535811*
X0893007Y0535851*
X089297Y0535889*
X0892932Y0535924*
X089289Y0535956*
X0892847Y0535986*
X0892802Y0536012*
X0892755Y0536035*
X0892706Y0536054*
X0892656Y053607*
X0892605Y0536083*
X0892554Y0536092*
X0892502Y0536098*
X089245Y05361*
X0891222Y05376D02*
D01*
X0891169Y0537598*
X0891117Y0537592*
X0891066Y0537583*
X0891015Y053757*
X0890965Y0537554*
X0890916Y0537535*
X0890869Y0537512*
X0890824Y0537486*
X0890781Y0537456*
X0890739Y0537424*
X0890701Y0537389*
X0890664Y0537351*
X089063Y0537311*
X08906Y0537269*
X0890572Y0537225*
X0890547Y0537178*
X0890526Y053713*
X0890508Y0537081*
X0890494Y0537031*
X0890483Y053698*
X0890476Y0536928*
X0890472Y0536876*
Y0536823*
X0890476Y0536771*
X0890483Y0536719*
X0890494Y0536668*
X0890508Y0536618*
X0890526Y0536569*
X0890547Y0536521*
X0890572Y0536475*
X08906Y053643*
X089063Y0536388*
X0890664Y0536348*
X0890701Y053631*
X0890739Y0536275*
X0890781Y0536243*
X0890824Y0536213*
X0890869Y0536187*
X0890916Y0536164*
X0890965Y0536145*
X0891015Y0536129*
X0891066Y0536116*
X0891117Y0536107*
X0891169Y0536101*
X0891222Y05361*
X089145Y05376D02*
D01*
X0891502Y0537601*
X0891554Y0537607*
X0891605Y0537616*
X0891656Y0537629*
X0891706Y0537645*
X0891755Y0537664*
X0891802Y0537687*
X0891847Y0537713*
X089189Y0537743*
X0891932Y0537775*
X089197Y053781*
X0892007Y0537848*
X0892041Y0537888*
X0892071Y053793*
X0892099Y0537975*
X0892124Y0538021*
X0892145Y0538069*
X0892163Y0538118*
X0892177Y0538168*
X0892188Y0538219*
X0892195Y0538271*
X0892199Y0538323*
X08922Y053835*
X0889277Y0587923D02*
D01*
X0889275Y0587924*
X0889274Y0587925*
X0889273Y0587926*
X0889272Y0587927*
X0889271Y0587929*
X08922Y0580858D02*
D01*
X0892175Y0581555*
X0892102Y0582249*
X0891981Y0582937*
X0891812Y0583614*
X0891596Y0584278*
X0891335Y0584925*
X0891029Y0585552*
X089068Y0586157*
X089029Y0586735*
X088986Y0587285*
X0889393Y0587804*
X0889277Y0587923*
X0886444Y0590757D02*
D01*
X0886209Y0590975*
X0885961Y0591176*
X0885698Y059136*
X0885424Y0591525*
X0885139Y059167*
X0884844Y0591795*
X0884541Y0591899*
X0884232Y0591982*
X0883918Y0592043*
X08836Y0592082*
X0883281Y0592099*
X08832Y05921*
X08943Y0582282D02*
D01*
X0894277Y0582925*
X089421Y0583564*
X0894098Y0584198*
X0893942Y0584822*
X0893744Y0585434*
X0893503Y0586031*
X0893221Y0586609*
X0892899Y0587166*
X0892539Y05877*
X0892143Y0588207*
X0891712Y0588685*
X08916Y05888*
X0893756Y05277D02*
D01*
X0893844Y0527794*
X0893925Y0527895*
X0894Y0528001*
X0894067Y0528112*
X0894125Y0528228*
X0894176Y0528347*
X0894218Y052847*
X0894252Y0528595*
X0894277Y0528722*
X0894292Y0528851*
X0894299Y052898*
X08943Y0529012*
X0877884Y0596729D02*
D01*
X0878394Y0596252*
X0878936Y0595813*
X0879508Y0595413*
X0880106Y0595053*
X0880728Y0594737*
X0881371Y0594464*
X0882031Y0594237*
X0882705Y0594056*
X088339Y0593923*
X0884083Y0593838*
X088478Y0593801*
X0884955Y05938*
X0887731Y0592669D02*
D01*
X0887533Y0592852*
X0887324Y0593022*
X0887103Y0593177*
X0886872Y0593315*
X0886632Y0593438*
X0886384Y0593543*
X0886129Y0593631*
X0885868Y0593701*
X0885604Y0593752*
X0885336Y0593785*
X0885067Y0593799*
X0885Y05938*
X0873525Y0599177D02*
D01*
X0873535Y059889*
X0873564Y0598604*
X0873614Y0598322*
X0873684Y0598044*
X0873772Y0597771*
X087388Y0597505*
X0874006Y0597247*
X0874149Y0596999*
X0874309Y0596761*
X0874486Y0596535*
X0874678Y0596321*
X0874729Y0596271*
X0875971Y0595029D02*
D01*
X0876481Y0594552*
X0877023Y0594113*
X0877595Y0593713*
X0878193Y0593353*
X0878815Y0593037*
X0879458Y0592764*
X0880118Y0592537*
X0880792Y0592356*
X0881477Y0592223*
X088217Y0592138*
X0882867Y0592101*
X0883042Y05921*
X08727Y05947D02*
D01*
X0872423Y0594403*
X0872168Y0594088*
X0871936Y0593757*
X0871727Y0593409*
X0871543Y0593048*
X0871385Y0592675*
X0871253Y0592292*
X0871148Y0591901*
X0871071Y0591503*
X0871022Y0591101*
X0871Y0590697*
X0871Y0590596*
X08422Y05285D02*
Y053175D01*
X08398Y05285D02*
X0839901D01*
X08595Y05469D02*
Y0561758D01*
X0862429Y0568829D02*
X08676Y0574D01*
X08694Y0578346D02*
Y05952D01*
X08595Y053805D02*
Y05469D01*
X0858162Y05373D02*
X085875D01*
X0858162Y05358D02*
X0859119D01*
X0858062Y05343D02*
X0859119D01*
X0858062Y05328D02*
X085875D01*
X08595Y05288D02*
Y053205D01*
X08622Y05978D02*
X0863571Y0596429D01*
X0876532Y0598081D02*
X0877884Y0596729D01*
X0890392Y0528306D02*
D01*
X08898Y05287D02*
X0889901D01*
X0874192Y0528606D02*
D01*
X0873701Y0529D02*
D01*
X08736D02*
X0873701D01*
X0840392Y0528106D02*
D01*
X0839901Y05285D02*
D01*
X08422Y054075D02*
Y0550158D01*
X084145Y054D02*
D01*
Y05385D02*
X084185D01*
Y0537D02*
D01*
Y05355D02*
D01*
X0841282Y0534D02*
X084185D01*
X0841282Y05325D02*
X084145D01*
X08665Y0580842D02*
Y0589358D01*
X0846529Y0556729D02*
X0863571Y0573771D01*
X08436Y05401D02*
Y0549658D01*
X0843696Y0529589D02*
D01*
X08436Y0529883D02*
Y05401D01*
X08653Y0581542D02*
Y0587258D01*
X0845129Y0557229D02*
X0862371Y0574471D01*
X08588Y05979D02*
X0862371Y0594329D01*
X0860971Y0529922D02*
D01*
X0863798Y0568298D02*
X0868071Y0572571D01*
X0860869Y0530225D02*
Y0561227D01*
X0857181Y05289D02*
D01*
X08566D02*
X0857181D01*
X0857677Y0528485D02*
D01*
X0871Y0579642D02*
Y0590596D01*
X0876Y053825D02*
Y05409D01*
X0874628Y05375D02*
X087525D01*
X0874628Y0536D02*
X0875811D01*
X0874532Y05345D02*
X0875811D01*
X0874532Y0533D02*
X087525D01*
X0876Y0529D02*
Y053225D01*
Y05409D02*
Y0573447D01*
X088049Y057749D02*
X08822Y05792D01*
X0877561Y0530129D02*
Y0570419D01*
X0877622Y0529889D02*
D01*
X08922Y05304D02*
Y053235D01*
X0891437Y05331D02*
X089145D01*
X0891437Y05346D02*
X089245D01*
X0891222Y05361D02*
X089245D01*
X0891222Y05376D02*
X089145D01*
X08922Y053835D02*
Y05401D01*
Y05287D02*
Y05304D01*
Y05401D02*
Y0580858D01*
X0886444Y0590757D02*
X0889271Y0587929D01*
X0887731Y0592669D02*
X08916Y05888D01*
X08943Y0529012D02*
Y0582282D01*
X0884955Y05938D02*
X0885D01*
X0874729Y0596271D02*
X0875971Y0595029D01*
X0883042Y05921D02*
X08832D01*
G54D147*
X0806496Y093015D02*
X0810646Y0926D01*
X08534D02*
X08561Y09287D01*
X0739404Y092185D02*
X0749673D01*
X0757973Y093015*
X0810646Y0926D02*
X08534D01*
X0735254D02*
X0739404Y092185D01*
X0757973Y093015D02*
X0806496D01*
X07285Y0926D02*
X0735254D01*
X0784Y08705D02*
X12285D01*
G54D148*
X09265Y0861D02*
X1066D01*
G54D155*
X1028878Y0759928D03*
X1017067D03*
G54D162*
X0803Y09156D03*
G54D165*
X08422Y05285D03*
X08398D03*
X0876Y0529D03*
X08736D03*
X08898Y05287D03*
X08595Y05288D03*
X08566Y05289D03*
X08922Y05287D03*
X1125716Y0909284D03*
X0996Y06556D03*
X0781294Y0667794D03*
X0787009Y0681574D03*
X08321Y07219D03*
X11568Y07218D03*
X08685Y06485D03*
X10055Y06515D03*
X08375Y06945D03*
X09795Y06844D03*
X12325Y0827D03*
X09735Y08265D03*
X0849Y0724D03*
X11625D03*
X08617Y06774D03*
X10055Y068D03*
X12295Y08125D03*
X0993D03*
X08716Y08164D03*
X09048Y08159D03*
X09188Y07974D03*
X08414Y08127D03*
X08485Y07665D03*
X10125Y06755D03*
X08595Y06738D03*
X08694Y05952D03*
X0829Y0692D03*
X09545Y06895D03*
X08485Y077D03*
X0857Y06794D03*
X09935Y0682D03*
X0825Y08265D03*
X09365Y08277D03*
X08566Y07416D03*
X1003Y0741D03*
X0971Y0677D03*
X0854Y06759D03*
X09268Y06809D03*
X09265Y0861D03*
X1066D03*
X1227257Y0823D03*
X09797Y08239D03*
X08561Y09287D03*
X0745Y08151D03*
X07431Y08561D03*
X07576Y09129D03*
X07894Y09022D03*
X08235Y09021D03*
X08812Y07605D03*
X09614Y07591D03*
X0953302Y0832298D03*
X09644Y08297D03*
X09385Y08451D03*
X09427Y08461D03*
X08425Y0855D03*
X07884Y06697D03*
X0879Y0862D03*
X0958Y06715D03*
X08469Y05941D03*
X08622Y05978D03*
X08783Y0579D03*
X084Y07318D03*
X07556Y06323D03*
X08794Y07311D03*
X08822Y05792D03*
X08727Y05947D03*
X09395Y0636726D03*
X0873525Y0599177D03*
X08949Y07625D03*
X0937Y0639D03*
X08939Y0746D03*
X08588Y05979D03*
X0937Y0634D03*
X07782Y06301D03*
X0939744Y0641526D03*
X08832Y07267D03*
X09221Y08239D03*
X09243Y08297D03*
X08197Y06302D03*
X08196Y08204D03*
X08495Y08086D03*
X08493Y0632D03*
X0841Y08198D03*
X08581Y08292D03*
X08582Y08204D03*
X08516Y07467D03*
X09333Y07267D03*
X09489Y07345D03*
X0841935Y07625D03*
X06995Y0591D03*
X08437Y06441D03*
X06999Y06434D03*
X084Y06971D03*
X07Y0696D03*
X07011Y07485D03*
X08634Y0662D03*
X08657Y06644D03*
X0876532Y0598081D03*
X07875Y08605D03*
X07745Y08665D03*
X09415Y0864D03*
X0754Y08625D03*
X0923Y086D03*
X07565D03*
X08074Y064156D03*
X0805Y0639D03*
X08019Y063656D03*
X07285Y0926D03*
X07995Y0634D03*
X08225Y0851D03*
X0952Y08485D03*
X0867Y08665D03*
X0898354Y08755D03*
X0969D03*
X09005Y08835D03*
X0969Y0884D03*
X08885Y06565D03*
X0891Y0654D03*
X09985Y06555D03*
X08265Y0651D03*
X10025Y0655D03*
X0871Y06595D03*
X1017Y06605D03*
X1014146Y0662756D03*
X10125Y06655D03*
X09715Y06679D03*
X1229957Y08203D03*
X1233Y08155D03*
X1074487Y0911987D03*
X0777Y0916D03*
X09495Y0909D03*
X09845Y08155D03*
X0982Y0818D03*
X0979Y08205D03*
X1243Y08195D03*
X1234491Y0833508D03*
X12435Y08295D03*
X09293Y08348D03*
X124Y08375D03*
X1243773Y084D03*
X1247Y0843D03*
X125Y0846D03*
X0946D03*
X0784Y08705D03*
X12285D03*
M02*