%FSTAX25Y25*%
%MOIN*%
%SFA1B1*%

%IPPOS*%
%ADD53R,0.028000X0.165000*%
%ADD54R,0.028000X0.126000*%
%ADD64R,0.057090X0.045280*%
%ADD66R,0.025200X0.026770*%
%ADD71R,0.045280X0.057090*%
%ADD72R,0.026770X0.025200*%
%ADD76R,0.082870X0.044090*%
%LNgrandmaster-1*%
%LPD*%
G54D53*
X0908661Y0514173D03*
X0786614D03*
X0782677D03*
X0814173D03*
X0810236D03*
X0869291D03*
X0900787D03*
X089685D03*
X0885039D03*
X0865354D03*
X0881102D03*
X0849606D03*
X0845669D03*
X0837795D03*
X0833858D03*
X081811D03*
X0794488D03*
X0798425D03*
X0802362D03*
X0806299D03*
X085748D03*
X0841732D03*
X0829921D03*
X0877165D03*
X0892913D03*
X0873228D03*
X0904724D03*
X0888976D03*
X0861417D03*
X0853543D03*
X0790551D03*
G54D54*
X077874Y0516123D03*
G54D64*
X08623Y0804643D03*
Y0797557D03*
G54D66*
X0834Y0536693D03*
Y0533307D03*
X0838D03*
Y0536693D03*
X08459D03*
Y0533307D03*
X08502D03*
Y0536693D03*
X08655Y0533307D03*
Y0536693D03*
X08695Y0533307D03*
Y0536693D03*
X0881Y0533307D03*
Y0536693D03*
X08845D03*
Y0533307D03*
X0897D03*
Y0536693D03*
X0901Y0533307D03*
Y0536693D03*
X08702Y0804093D03*
Y0800707D03*
G54D71*
X0831757Y07948D03*
X0838843D03*
G54D72*
X0834207Y07858D03*
X0837593D03*
G54D76*
X085Y0804678D03*
Y0820426D03*
Y0812552D03*
Y08283D03*
X08325Y0804678D03*
Y0812552D03*
Y0820426D03*
Y08283D03*
M02*