%FSTAX25Y25*%
%MOIN*%
%SFA1B1*%

%IPPOS*%
%ADD13C,0.003940*%
%ADD14C,0.010000*%
%ADD168C,0.000000*%
%LNgrandmaster-1*%
%LPD*%
G54D13*
X0776138Y0543501D02*
D01*
X077612Y0544002*
X0776068Y05445*
X077598Y0544994*
X0775859Y0545481*
X0775704Y0545958*
X0775516Y0546423*
X0775296Y0546874*
X0775046Y0547308*
X0774765Y0547724*
X0774457Y0548119*
X0774121Y0548492*
X077376Y054884*
X0773376Y0549162*
X077297Y0549457*
X0772545Y0549723*
X0772102Y0549958*
X0771644Y0550162*
X0771173Y0550334*
X0770691Y0550472*
X07702Y0550576*
X0769704Y0550646*
X0769203Y0550681*
X0768702*
X0768201Y0550646*
X0767705Y0550576*
X0767214Y0550472*
X0766732Y0550334*
X0766261Y0550162*
X0765803Y0549958*
X076536Y0549723*
X0764935Y0549457*
X0764529Y0549162*
X0764145Y054884*
X0763784Y0548492*
X0763448Y0548119*
X076314Y0547724*
X0762859Y0547308*
X0762609Y0546874*
X0762389Y0546423*
X0762201Y0545958*
X0762046Y0545481*
X0761925Y0544994*
X0761837Y05445*
X0761785Y0544002*
X0761768Y0543501*
X0598972Y0518205D02*
X0658028D01*
Y0550686*
X0730272*
Y0518205D02*
Y0550686D01*
Y0518205D02*
X0761768D01*
Y0543501*
G54D14*
X133991Y0937169D02*
D01*
X1339884Y0937192*
X1339857Y0937214*
X1339829Y0937235*
X1339799Y0937253*
X1339768Y0937269*
X1339736Y0937282*
X1339703Y0937294*
X1339669Y0937303*
X1339635Y093731*
X13396Y0937314*
X1339565Y0937316*
X1339555Y0937317*
X1340105Y0936767D02*
D01*
X1340103Y0936801*
X13401Y0936836*
X1340094Y093687*
X1340085Y0936904*
X1340074Y0936938*
X1340061Y093697*
X1340046Y0937001*
X1340029Y0937031*
X1340009Y093706*
X1339988Y0937088*
X1339964Y0937114*
X1339959Y0937121*
X1339909Y0937171D02*
D01*
X1339883Y0937194*
X1339856Y0937216*
X1339827Y0937236*
X1339797Y0937254*
X1339766Y093727*
X1339734Y0937284*
X1339701Y0937295*
X1339667Y0937304*
X1339633Y0937311*
X1339598Y0937315*
X1339563Y0937317*
X1339555Y0937317*
X1340105Y0936767D02*
D01*
X1340103Y0936801*
X13401Y0936836*
X1340094Y093687*
X1340085Y0936904*
X1340074Y0936938*
X1340061Y093697*
X1340046Y0937001*
X1340029Y0937031*
X1340009Y093706*
X1339988Y0937088*
X1339964Y0937114*
X1339957Y0937122*
X1339959Y0550231D02*
D01*
X1339982Y0550256*
X1340004Y0550283*
X1340024Y0550312*
X1340042Y0550342*
X1340058Y0550373*
X1340072Y0550405*
X1340083Y0550438*
X1340092Y0550472*
X1340099Y0550506*
X1340103Y0550541*
X1340105Y0550576*
X1340105Y0550585*
X1339957Y055023D02*
D01*
X133998Y0550255*
X1340002Y0550282*
X1340023Y055031*
X1340041Y055034*
X1340057Y0550371*
X134007Y0550403*
X1340082Y0550436*
X1340091Y055047*
X1340098Y0550504*
X1340102Y0550539*
X1340104Y0550574*
X1340105Y0550585*
X1339555Y0550035D02*
D01*
X1339589Y0550036*
X1339624Y0550039*
X1339658Y0550045*
X1339692Y0550054*
X1339726Y0550065*
X1339758Y0550078*
X1339789Y0550093*
X1339819Y055011*
X1339848Y055013*
X1339876Y0550151*
X1339902Y0550175*
X133991Y0550183*
X1339555Y0550035D02*
D01*
X1339589Y0550036*
X1339624Y0550039*
X1339658Y0550045*
X1339692Y0550054*
X1339726Y0550065*
X1339758Y0550078*
X1339789Y0550093*
X1339819Y055011*
X1339848Y055013*
X1339876Y0550151*
X1339902Y0550175*
X1339909Y0550181*
X0911254Y0551035D02*
D01*
X0911219Y0551033*
X0911184Y055103*
X091115Y0551024*
X0911116Y0551015*
X0911082Y0551004*
X091105Y0550991*
X0911019Y0550976*
X0910989Y0550959*
X091096Y0550939*
X0910932Y0550918*
X0910906Y0550894*
X0910882Y0550869*
X0910859Y0550842*
X0910839Y0550814*
X091082Y0550785*
X0910804Y0550754*
X091079Y0550722*
X0910778Y0550689*
X0910768Y0550655*
X0910761Y0550621*
X0910756Y0550587*
X0910754Y0550552*
X0910754Y0550535*
X0911254Y0551035D02*
D01*
X0911219Y0551033*
X0911184Y055103*
X091115Y0551024*
X0911116Y0551015*
X0911082Y0551004*
X091105Y0550991*
X0911019Y0550976*
X0910989Y0550959*
X091096Y0550939*
X0910932Y0550918*
X0910906Y0550894*
X0910882Y0550869*
X0910859Y0550842*
X0910839Y0550814*
X091082Y0550785*
X0910804Y0550754*
X091079Y0550722*
X0910778Y0550689*
X0910768Y0550655*
X0910761Y0550621*
X0910756Y0550587*
X0910754Y0550552*
X0910754Y0550535*
X0828204Y0529885D02*
D01*
X0828193Y0530174*
X0828163Y0530462*
X0828113Y0530747*
X0828043Y0531028*
X0827953Y0531304*
X0827845Y0531572*
X0827718Y0531833*
X0827573Y0532084*
X0827411Y0532324*
X0827233Y0532552*
X0827039Y0532767*
X082683Y0532969*
X0826608Y0533155*
X0826374Y0533325*
X0826129Y0533479*
X0825873Y0533614*
X0825608Y0533732*
X0825336Y0533831*
X0825057Y0533911*
X0824774Y0533971*
X0824487Y0534012*
X0824198Y0534032*
X0824054Y0534035*
X0827204Y0529885D02*
D01*
X0827196Y0530104*
X0827173Y0530323*
X0827135Y0530539*
X0827081Y0530753*
X0827014Y0530962*
X0826931Y0531166*
X0826835Y0531363*
X0826725Y0531554*
X0826602Y0531736*
X0826467Y0531909*
X0826319Y0532073*
X0826161Y0532225*
X0825993Y0532367*
X0825815Y0532496*
X0825629Y0532612*
X0825434Y0532716*
X0825234Y0532805*
X0825027Y053288*
X0824816Y0532941*
X08246Y0532987*
X0824383Y0533017*
X0824163Y0533033*
X0824054Y0533035*
X0823954Y0534035D02*
D01*
X0823664Y0534024*
X0823376Y0533994*
X0823091Y0533944*
X082281Y0533874*
X0822534Y0533784*
X0822266Y0533676*
X0822005Y0533549*
X0821754Y0533404*
X0821514Y0533242*
X0821286Y0533064*
X0821071Y053287*
X0820869Y0532661*
X0820683Y0532439*
X0820513Y0532205*
X0820359Y053196*
X0820224Y0531704*
X0820106Y0531439*
X0820007Y0531167*
X0819927Y0530888*
X0819867Y0530605*
X0819826Y0530318*
X0819806Y0530029*
X0819804Y0529885*
X0823954Y0533035D02*
D01*
X0823734Y0533027*
X0823515Y0533004*
X0823299Y0532966*
X0823085Y0532912*
X0822876Y0532845*
X0822672Y0532762*
X0822475Y0532666*
X0822284Y0532556*
X0822102Y0532433*
X0821929Y0532298*
X0821765Y053215*
X0821613Y0531992*
X0821471Y0531824*
X0821342Y0531646*
X0821226Y053146*
X0821122Y0531265*
X0821033Y0531065*
X0820958Y0530858*
X0820897Y0530647*
X0820851Y0530431*
X0820821Y0530214*
X0820805Y0529994*
X0820804Y0529885*
X0911716Y0502294D02*
D01*
X0911728Y0502326*
X0911738Y050236*
X0911745Y0502394*
X091175Y0502428*
X0911753Y0502463*
X0911754Y0502485*
X0911716Y0502295D02*
D01*
X0911728Y0502327*
X0911737Y0502361*
X0911745Y0502395*
X091175Y0502429*
X0911753Y0502464*
X0911754Y0502485*
X0911716Y0502293D02*
D01*
X0911716Y0502293*
X0911716Y0502293*
X0911716Y0502294*
X0911716Y0502294*
X0911716Y0502295*
X0911701Y0502257D02*
D01*
X0911701Y0502257*
X0911701Y0502257*
X0911701Y0502258*
X0911701Y0502258*
X0911701Y0502259*
X0911702*
X0911593Y0502096D02*
D01*
X0911616Y0502121*
X0911638Y0502148*
X0911658Y0502177*
X0911676Y0502207*
X0911692Y0502238*
X0911701Y0502257*
X0911591Y0502094D02*
D01*
X0911614Y0502119*
X0911636Y0502146*
X0911657Y0502174*
X0911675Y0502204*
X0911691Y0502235*
X0911701Y0502258*
X0909431Y0499988D02*
D01*
X0909462Y0500002*
X0909493Y0500019*
X0909522Y0500037*
X090955Y0500058*
X0909577Y0500081*
X0909595Y0500098*
X0909432Y0499988D02*
D01*
X0909463Y0500002*
X0909494Y0500019*
X0909523Y0500038*
X0909551Y0500058*
X0909578Y0500081*
X0909593Y0500096*
X090943Y0499987D02*
D01*
X090943Y0499987*
X090943Y0499987*
X0909431Y0499987*
X0909431Y0499987*
X0909432Y0499987*
Y0499988*
X0909394Y0499972D02*
D01*
X0909394Y0499972*
X0909394Y0499972*
X0909395Y0499972*
X0909395Y0499972*
X0909396Y0499972*
Y0499973*
X0909204Y0499935D02*
D01*
X0909238Y0499936*
X0909273Y0499939*
X0909307Y0499945*
X0909341Y0499954*
X0909375Y0499965*
X0909394Y0499972*
X0909204Y0499935D02*
D01*
X0909238Y0499936*
X0909273Y0499939*
X0909307Y0499945*
X0909341Y0499954*
X0909375Y0499965*
X0909395Y0499973*
X0829563D02*
D01*
X0829595Y049996*
X0829629Y049995*
X0829663Y0499943*
X0829697Y0499938*
X0829732Y0499935*
X0829754Y0499935*
X0829526Y0499988D02*
D01*
X0829526Y0499987*
X0829526Y0499987*
X0829527Y0499987*
X0829527Y0499987*
X0829528Y0499987*
Y0499987*
X0829365Y0500096D02*
D01*
X082939Y0500072*
X0829417Y050005*
X0829446Y050003*
X0829476Y0500012*
X0829507Y0499996*
X0829526Y0499988*
X0827204Y0502485D02*
D01*
X0827205Y050245*
X0827208Y0502415*
X0827214Y0502381*
X0827223Y0502347*
X0827234Y0502313*
X0827242Y0502294*
Y0502295D02*
D01*
X0827242Y0502294*
X0827242Y0502294*
X0827242Y0502293*
X0827242Y0502293*
X0827242Y0502293*
X0827204Y0502485D02*
D01*
X0827205Y050245*
X0827208Y0502415*
X0827214Y0502381*
X0827223Y0502347*
X0827234Y0502313*
X0827242Y0502295*
X0827257Y0502258D02*
D01*
X0827271Y0502226*
X0827288Y0502195*
X0827306Y0502166*
X0827327Y0502138*
X082735Y0502111*
X0827367Y0502094*
X0827257Y0502257D02*
D01*
X0827271Y0502225*
X0827288Y0502194*
X0827307Y0502165*
X0827327Y0502137*
X082735Y050211*
X0827365Y0502096*
X0827256Y0502259D02*
D01*
X0827256Y0502258*
X0827256Y0502258*
X0827256Y0502257*
X0827256Y0502257*
X0827257Y0502257*
X0820766Y0502294D02*
D01*
X0820778Y0502326*
X0820788Y050236*
X0820795Y0502394*
X08208Y0502428*
X0820803Y0502463*
X0820804Y0502485*
X0820767Y0502295D02*
D01*
X0820779Y0502327*
X0820788Y0502361*
X0820796Y0502395*
X0820801Y0502429*
X0820804Y0502464*
Y0502485*
X0820766Y0502293D02*
D01*
X0820766Y0502293*
X0820766Y0502293*
X0820766Y0502294*
X0820766Y0502294*
X0820766Y0502295*
X0820767*
X0820751Y0502257D02*
D01*
X0820751Y0502257*
X0820751Y0502257*
X0820751Y0502258*
X0820751Y0502258*
X0820751Y0502259*
X0820752*
X0820643Y0502096D02*
D01*
X0820666Y0502121*
X0820688Y0502148*
X0820708Y0502177*
X0820726Y0502207*
X0820742Y0502238*
X0820751Y0502257*
X0820641Y0502094D02*
D01*
X0820664Y0502119*
X0820686Y0502146*
X0820707Y0502174*
X0820725Y0502204*
X0820741Y0502235*
X0820751Y0502258*
X0829363Y0500098D02*
D01*
X0829388Y0500074*
X0829415Y0500052*
X0829443Y0500031*
X0829473Y0500013*
X0829504Y0499997*
X0829527Y0499988*
X0829564Y0499972D02*
D01*
X0829596Y0499959*
X082963Y049995*
X0829664Y0499942*
X0829698Y0499937*
X0829733Y0499934*
X0829754Y0499935*
X0829562Y0499973D02*
D01*
X0829562Y0499972*
X0829562Y0499972*
X0829563Y0499972*
X0829563Y0499972*
X0829564Y0499972*
Y0499972*
X0818481Y0499988D02*
D01*
X0818512Y0500002*
X0818543Y0500019*
X0818572Y0500037*
X08186Y0500058*
X0818627Y0500081*
X0818645Y0500098*
X0818444Y0499972D02*
D01*
X0818444Y0499972*
X0818444Y0499972*
X0818445Y0499972*
X0818445Y0499972*
X0818446Y0499972*
Y0499973*
X0818254Y0499935D02*
D01*
X0818288Y0499936*
X0818323Y0499939*
X0818357Y0499945*
X0818391Y0499954*
X0818425Y0499965*
X0818444Y0499972*
X0769004Y0551135D02*
D01*
X076847Y0551116*
X0767939Y055106*
X0767413Y0550967*
X0766895Y0550838*
X0766387Y0550673*
X0765892Y0550473*
X0765412Y0550239*
X076495Y0549972*
X0764507Y0549673*
X0764086Y0549345*
X0763689Y0548987*
X0763318Y0548603*
X0762975Y0548194*
X0762661Y0547762*
X0762378Y054731*
X0762128Y0546838*
X0761911Y054635*
X0761728Y0545848*
X0761581Y0545335*
X076147Y0544813*
X0761395Y0544284*
X0761358Y0543751*
X0761354Y0543485*
X0776654D02*
D01*
X0776635Y0544018*
X0776579Y0544549*
X0776486Y0545075*
X0776357Y0545593*
X0776192Y0546101*
X0775992Y0546596*
X0775758Y0547076*
X0775491Y0547538*
X0775192Y0547981*
X0774864Y0548402*
X0774506Y0548799*
X0774122Y054917*
X0773713Y0549513*
X0773281Y0549827*
X0772829Y055011*
X0772357Y055036*
X0771869Y0550577*
X0771367Y055076*
X0770854Y0550907*
X0770332Y0551018*
X0769803Y0551093*
X076927Y055113*
X0769004Y0551135*
Y0550135D02*
D01*
X076854Y0550118*
X0768078Y055007*
X0767621Y0549989*
X0767171Y0549877*
X0766729Y0549733*
X0766299Y054956*
X0765882Y0549356*
X076548Y0549124*
X0765095Y0548864*
X0764729Y0548579*
X0764384Y0548268*
X0764062Y0547934*
X0763763Y0547579*
X076349Y0547203*
X0763244Y054681*
X0763027Y05464*
X0762838Y0545976*
X0762679Y0545539*
X0762551Y0545093*
X0762455Y0544639*
X076239Y054418*
X0762358Y0543717*
X0762354Y0543485*
X0730754Y0550635D02*
D01*
X0730752Y0550669*
X0730749Y0550704*
X0730743Y0550738*
X0730734Y0550772*
X0730723Y0550806*
X073071Y0550838*
X0730695Y0550869*
X0730678Y0550899*
X0730658Y0550928*
X0730637Y0550956*
X0730613Y0550982*
X0730588Y0551006*
X0730561Y0551029*
X0730533Y0551049*
X0730504Y0551068*
X0730473Y0551084*
X0730441Y0551098*
X0730408Y055111*
X0730374Y055112*
X073034Y0551127*
X0730306Y0551132*
X0730271Y0551134*
X0730254Y0551135*
X0730754Y0550635D02*
D01*
X0730752Y0550669*
X0730749Y0550704*
X0730743Y0550738*
X0730734Y0550772*
X0730723Y0550806*
X073071Y0550838*
X0730695Y0550869*
X0730678Y0550899*
X0730658Y0550928*
X0730637Y0550956*
X0730613Y0550982*
X0730588Y0551006*
X0730561Y0551029*
X0730533Y0551049*
X0730504Y0551068*
X0730473Y0551084*
X0730441Y0551098*
X0730408Y055111*
X0730374Y055112*
X073034Y0551127*
X0730306Y0551132*
X0730271Y0551134*
X0730254Y0551135*
X0775654Y0543485D02*
D01*
X0775637Y0543948*
X0775589Y054441*
X0775508Y0544867*
X0775396Y0545317*
X0775252Y0545759*
X0775079Y0546189*
X0774875Y0546606*
X0774643Y0547008*
X0774383Y0547393*
X0774098Y0547759*
X0773787Y0548104*
X0773453Y0548426*
X0773098Y0548725*
X0772722Y0548998*
X0772329Y0549244*
X0771919Y0549461*
X0771495Y054965*
X0771058Y0549809*
X0770612Y0549937*
X0770158Y0550033*
X0769699Y0550098*
X0769236Y055013*
X0769004Y0550135*
X0658154Y0551135D02*
D01*
X0658119Y0551133*
X0658084Y055113*
X065805Y0551124*
X0658016Y0551115*
X0657982Y0551104*
X065795Y0551091*
X0657919Y0551076*
X0657889Y0551059*
X065786Y0551039*
X0657832Y0551018*
X0657806Y0550994*
X0657782Y0550969*
X0657759Y0550942*
X0657739Y0550914*
X065772Y0550885*
X0657704Y0550854*
X065769Y0550822*
X0657678Y0550789*
X0657668Y0550755*
X0657661Y0550721*
X0657656Y0550687*
X0657654Y0550652*
X0657654Y0550635*
X0658154Y0551135D02*
D01*
X0658119Y0551133*
X0658084Y055113*
X065805Y0551124*
X0658016Y0551115*
X0657982Y0551104*
X065795Y0551091*
X0657919Y0551076*
X0657889Y0551059*
X065786Y0551039*
X0657832Y0551018*
X0657806Y0550994*
X0657782Y0550969*
X0657759Y0550942*
X0657739Y0550914*
X065772Y0550885*
X0657704Y0550854*
X065769Y0550822*
X0657678Y0550789*
X0657668Y0550755*
X0657661Y0550721*
X0657656Y0550687*
X0657654Y0550652*
X0657654Y0550635*
X0599004Y0937317D02*
D01*
X0598969Y0937315*
X0598934Y0937312*
X05989Y0937306*
X0598866Y0937297*
X0598832Y0937286*
X05988Y0937273*
X0598769Y0937258*
X0598739Y0937241*
X059871Y0937221*
X0598682Y09372*
X0598656Y0937176*
X059865Y0937171*
X0598602Y0937122D02*
D01*
X0598578Y0937096*
X0598556Y0937069*
X0598535Y0937041*
X0598517Y0937011*
X0598501Y093698*
X0598488Y0936948*
X0598476Y0936915*
X0598467Y0936881*
X059846Y0936847*
X0598456Y0936812*
X0598454Y0936777*
X0598454Y0936767*
X0599004Y0937317D02*
D01*
X0598969Y0937315*
X0598934Y0937312*
X05989Y0937306*
X0598866Y0937297*
X0598832Y0937286*
X05988Y0937273*
X0598769Y0937258*
X0598739Y0937241*
X059871Y0937221*
X0598682Y09372*
X0598656Y0937176*
X0598649Y0937169*
X05986Y0937121D02*
D01*
X0598576Y0937095*
X0598554Y0937068*
X0598534Y0937039*
X0598516Y0937009*
X05985Y0936978*
X0598486Y0936946*
X0598475Y0936913*
X0598466Y0936879*
X0598459Y0936845*
X0598455Y093681*
X0598453Y0936775*
X0598454Y0936767*
X0777813Y0500098D02*
D01*
X0777838Y0500074*
X0777865Y0500052*
X0777893Y0500031*
X0777923Y0500013*
X0777954Y0499997*
X0777977Y0499988*
X0775654Y0502485D02*
D01*
X0775655Y050245*
X0775658Y0502415*
X0775664Y0502381*
X0775673Y0502347*
X0775684Y0502313*
X0775692Y0502294*
X0775707Y0502257D02*
D01*
X0775721Y0502225*
X0775738Y0502194*
X0775757Y0502165*
X0775777Y0502137*
X07758Y050211*
X0775815Y0502096*
X0775706Y0502259D02*
D01*
X0775706Y0502258*
X0775706Y0502258*
X0775706Y0502257*
X0775706Y0502257*
X0775707Y0502257*
Y0502258D02*
D01*
X0775721Y0502226*
X0775738Y0502195*
X0775756Y0502166*
X0775777Y0502138*
X07758Y0502111*
X0775817Y0502094*
X0775692Y0502295D02*
D01*
X0775692Y0502294*
X0775692Y0502294*
X0775692Y0502293*
X0775692Y0502293*
X0775692Y0502293*
X0775654Y0502485D02*
D01*
X0775655Y050245*
X0775658Y0502415*
X0775664Y0502381*
X0775673Y0502347*
X0775684Y0502313*
X0775692Y0502295*
X0818254Y0499935D02*
D01*
X0818288Y0499936*
X0818323Y0499939*
X0818357Y0499945*
X0818391Y0499954*
X0818425Y0499965*
X0818445Y0499973*
X0818482Y0499988D02*
D01*
X0818513Y0500002*
X0818544Y0500019*
X0818573Y0500038*
X0818601Y0500058*
X0818628Y0500081*
X0818643Y0500096*
X081848Y0499987D02*
D01*
X081848Y0499987*
X081848Y0499987*
X0818481Y0499987*
X0818481Y0499987*
X0818482Y0499987*
Y0499988*
X0777976D02*
D01*
X0777976Y0499987*
X0777976Y0499987*
X0777977Y0499987*
X0777977Y0499987*
X0777978Y0499987*
Y0499987*
X0777815Y0500096D02*
D01*
X077784Y0500072*
X0777867Y050005*
X0777896Y050003*
X0777926Y0500012*
X0777957Y0499996*
X0777976Y0499988*
X0778013Y0499973D02*
D01*
X0778045Y049996*
X0778079Y049995*
X0778113Y0499943*
X0778147Y0499938*
X0778182Y0499935*
X0778204Y0499935*
X0778014Y0499972D02*
D01*
X0778046Y0499959*
X077808Y049995*
X0778114Y0499942*
X0778148Y0499937*
X0778183Y0499934*
X0778204Y0499935*
X0778012Y0499973D02*
D01*
X0778012Y0499972*
X0778012Y0499972*
X0778013Y0499972*
X0778013Y0499972*
X0778014Y0499972*
Y0499972*
X0762206Y051783D02*
D01*
X0762229Y0517855*
X0762251Y0517882*
X0762272Y051791*
X076229Y051794*
X0762306Y0517971*
X0762319Y0518003*
X0762331Y0518036*
X076234Y051807*
X0762347Y0518104*
X0762351Y0518139*
X0762353Y0518174*
X0762354Y0518185*
X0762208Y0517831D02*
D01*
X0762231Y0517856*
X0762253Y0517883*
X0762273Y0517912*
X0762291Y0517942*
X0762307Y0517973*
X0762321Y0518005*
X0762332Y0518038*
X0762341Y0518072*
X0762348Y0518106*
X0762352Y0518141*
X0762354Y0518176*
X0762354Y0518185*
X0729754D02*
D01*
X0729755Y051815*
X0729758Y0518115*
X0729764Y0518081*
X0729773Y0518047*
X0729784Y0518013*
X0729797Y0517981*
X0729812Y051795*
X0729829Y051792*
X0729849Y0517891*
X072987Y0517863*
X0729894Y0517837*
X0729902Y051783*
X0761804Y0517635D02*
D01*
X0761838Y0517636*
X0761873Y0517639*
X0761907Y0517645*
X0761941Y0517654*
X0761975Y0517665*
X0762007Y0517678*
X0762038Y0517693*
X0762068Y051771*
X0762097Y051773*
X0762125Y0517751*
X0762151Y0517775*
X0762158Y0517781*
X0729949Y0517783D02*
D01*
X0729974Y0517759*
X0730001Y0517737*
X0730029Y0517716*
X0730059Y0517698*
X073009Y0517682*
X0730122Y0517669*
X0730155Y0517657*
X0730189Y0517648*
X0730223Y0517641*
X0730258Y0517637*
X0730293Y0517635*
X0730304Y0517635*
X0729754Y0518185D02*
D01*
X0729755Y051815*
X0729758Y0518115*
X0729764Y0518081*
X0729773Y0518047*
X0729784Y0518013*
X0729797Y0517981*
X0729812Y051795*
X0729829Y051792*
X0729849Y0517891*
X072987Y0517863*
X0729894Y0517837*
X07299Y0517831*
X0658508D02*
D01*
X0658531Y0517856*
X0658553Y0517883*
X0658573Y0517912*
X0658591Y0517942*
X0658607Y0517973*
X0658621Y0518005*
X0658632Y0518038*
X0658641Y0518072*
X0658648Y0518106*
X0658652Y0518141*
X0658654Y0518176*
X0658654Y0518185*
X0598454D02*
D01*
X0598455Y051815*
X0598458Y0518115*
X0598464Y0518081*
X0598473Y0518047*
X0598484Y0518013*
X0598497Y0517981*
X0598512Y051795*
X0598529Y051792*
X0598549Y0517891*
X059857Y0517863*
X0598594Y0517837*
X05986Y0517831*
X0658104Y0517635D02*
D01*
X0658138Y0517636*
X0658173Y0517639*
X0658207Y0517645*
X0658241Y0517654*
X0658275Y0517665*
X0658307Y0517678*
X0658338Y0517693*
X0658368Y051771*
X0658397Y051773*
X0658425Y0517751*
X0658451Y0517775*
X0658458Y0517781*
X0658506Y051783D02*
D01*
X0658529Y0517855*
X0658551Y0517882*
X0658572Y051791*
X065859Y051794*
X0658606Y0517971*
X0658619Y0518003*
X0658631Y0518036*
X065864Y051807*
X0658647Y0518104*
X0658651Y0518139*
X0658653Y0518174*
X0658654Y0518185*
X0598649Y0517783D02*
D01*
X0598674Y0517759*
X0598701Y0517737*
X0598729Y0517716*
X0598759Y0517698*
X059879Y0517682*
X0598822Y0517669*
X0598855Y0517657*
X0598889Y0517648*
X0598923Y0517641*
X0598958Y0517637*
X0598993Y0517635*
X0599004Y0517635*
X0761804D02*
D01*
X0761838Y0517636*
X0761873Y0517639*
X0761907Y0517645*
X0761941Y0517654*
X0761975Y0517665*
X0762007Y0517678*
X0762038Y0517693*
X0762068Y051771*
X0762097Y051773*
X0762125Y0517751*
X0762151Y0517775*
X0762159Y0517783*
X072995Y0517781D02*
D01*
X0729975Y0517757*
X0730002Y0517735*
X0730031Y0517715*
X0730061Y0517697*
X0730092Y0517681*
X0730124Y0517667*
X0730157Y0517656*
X0730191Y0517647*
X0730225Y051764*
X073026Y0517636*
X0730295Y0517634*
X0730304Y0517635*
X0598454Y0518185D02*
D01*
X0598455Y051815*
X0598458Y0518115*
X0598464Y0518081*
X0598473Y0518047*
X0598484Y0518013*
X0598497Y0517981*
X0598512Y051795*
X0598529Y051792*
X0598549Y0517891*
X059857Y0517863*
X0598594Y0517837*
X0598602Y051783*
X0658104Y0517635D02*
D01*
X0658138Y0517636*
X0658173Y0517639*
X0658207Y0517645*
X0658241Y0517654*
X0658275Y0517665*
X0658307Y0517678*
X0658338Y0517693*
X0658368Y051771*
X0658397Y051773*
X0658425Y0517751*
X0658451Y0517775*
X0658459Y0517783*
X059865Y0517781D02*
D01*
X0598675Y0517757*
X0598702Y0517735*
X0598731Y0517715*
X0598761Y0517697*
X0598792Y0517681*
X0598824Y0517667*
X0598857Y0517656*
X0598891Y0517647*
X0598925Y051764*
X059896Y0517636*
X0598995Y0517634*
X0599004Y0517635*
X1339909Y0937171D02*
X133991Y0937169D01*
X1339957Y0937122*
X1339959Y0937121*
X1340105Y0550585D02*
Y0936767D01*
X1339105Y0551035D02*
Y0936317D01*
X1339957Y055023D02*
X1339959Y0550231D01*
X133991Y0550183D02*
X1339957Y055023D01*
X1339909Y0550181D02*
X133991Y0550183D01*
X0911254Y0551035D02*
X1339105D01*
X0911754Y0550035D02*
X1339555D01*
X0911754Y0502485D02*
Y0550035D01*
X0823954Y0534035D02*
X0824054D01*
X0910754Y0502671D02*
Y0550535D01*
X0828204Y0502671D02*
Y0529885D01*
X0827204Y0502485D02*
Y0529885D01*
X0823954Y0533035D02*
X0824054D01*
X0819804Y0502671D02*
Y0529885D01*
X0911716Y0502294D02*
Y0502295D01*
Y0502293D02*
Y0502294D01*
X0911702Y0502259D02*
X0911716Y0502293D01*
X0911701Y0502258D02*
X0911702Y0502259D01*
X0911701Y0502257D02*
Y0502258D01*
X0909018Y0500935D02*
X0910754Y0502671D01*
X082994Y0500935D02*
X0909018D01*
X0828204Y0502671D02*
X082994Y0500935D01*
X0911591Y0502094D02*
X0911593Y0502096D01*
X0909595Y0500098D02*
X0911591Y0502094D01*
X0909593Y0500096D02*
X0909595Y0500098D01*
X0909431Y0499988D02*
X0909432D01*
X090943Y0499987D02*
X0909431Y0499988D01*
X0909396Y0499973D02*
X090943Y0499987D01*
X0909395Y0499973D02*
X0909396D01*
X0909394Y0499972D02*
X0909395Y0499973D01*
X0829754Y0499935D02*
X0909204D01*
X0827242Y0502295D02*
Y0502294D01*
Y0502293*
X0827256Y0502259*
X0827257Y0502258*
Y0502257*
X0820804Y0502485D02*
Y0529885D01*
X0820766Y0502294D02*
X0820767Y0502295D01*
X0820766Y0502293D02*
Y0502294D01*
X0820752Y0502259D02*
X0820766Y0502293D01*
X0820751Y0502258D02*
X0820752Y0502259D01*
X0820751Y0502257D02*
Y0502258D01*
X0827365Y0502096D02*
X0827367Y0502094D01*
X0829363Y0500098*
X0829365Y0500096*
X0820641Y0502094D02*
X0820643Y0502096D01*
X0818645Y0500098D02*
X0820641Y0502094D01*
X0818643Y0500096D02*
X0818645Y0500098D01*
X0829563Y0499973D02*
X0829564Y0499972D01*
X0829562Y0499973D02*
X0829563D01*
X0829528Y0499987D02*
X0829562Y0499973D01*
X0829527Y0499988D02*
X0829528Y0499987D01*
X0829526Y0499988D02*
X0829527D01*
X0818481D02*
X0818482D01*
X081848Y0499987D02*
X0818481Y0499988D01*
X0818446Y0499973D02*
X081848Y0499987D01*
X0818445Y0499973D02*
X0818446D01*
X0818444Y0499972D02*
X0818445Y0499973D01*
X0599004Y0937317D02*
X1339555D01*
X0599454Y0936317D02*
X1339105D01*
X0730754Y0518635D02*
Y0550635D01*
X0762354Y0518185D02*
Y0543485D01*
X0730754Y0518635D02*
X0761354D01*
Y0543485*
X0658154Y0551135D02*
X0730254D01*
X0599454Y0518635D02*
Y0936317D01*
X0598649Y0937169D02*
X059865Y0937171D01*
X0598602Y0937122D02*
X0598649Y0937169D01*
X05986Y0937121D02*
X0598602Y0937122D01*
X0598454Y0518185D02*
Y0936767D01*
X0658654Y0550135D02*
X0729754D01*
Y0518185D02*
Y0550135D01*
X0658654Y0518185D02*
Y0550135D01*
X0599454Y0518635D02*
X0657654D01*
Y0550635*
X0776654Y0502671D02*
Y0543485D01*
Y0502671D02*
X077839Y0500935D01*
X0818068D02*
X0819804Y0502671D01*
X0775692Y0502295D02*
Y0502294D01*
Y0502293*
X0775706Y0502259*
X0775707Y0502258*
Y0502257*
X0775815Y0502096D02*
X0775817Y0502094D01*
X0777813Y0500098*
X0777815Y0500096*
X077839Y0500935D02*
X0818068D01*
X0778013Y0499973D02*
X0778014Y0499972D01*
X0778012Y0499973D02*
X0778013D01*
X0777978Y0499987D02*
X0778012Y0499973D01*
X0777977Y0499988D02*
X0777978Y0499987D01*
X0777976Y0499988D02*
X0777977D01*
X0778204Y0499935D02*
X0818254D01*
X0775654Y0502485D02*
Y0543485D01*
X07299Y0517831D02*
X0729902Y051783D01*
X0729949Y0517783*
X072995Y0517781*
X0762206Y051783D02*
X0762208Y0517831D01*
X0762159Y0517783D02*
X0762206Y051783D01*
X0762158Y0517781D02*
X0762159Y0517783D01*
X0658506Y051783D02*
X0658508Y0517831D01*
X0658459Y0517783D02*
X0658506Y051783D01*
X0658458Y0517781D02*
X0658459Y0517783D01*
X0730304Y0517635D02*
X0761804D01*
X05986Y0517831D02*
X0598602Y051783D01*
X0598649Y0517783*
X059865Y0517781*
X0599004Y0517635D02*
X0658104D01*
G54D168*
X121789Y0880409D02*
Y0884346D01*
X120411Y0880409D02*
X121789D01*
X120411D02*
Y0884346D01*
X121789*
X1216905Y0904031D02*
Y0907969D01*
X1205095Y0904031D02*
X1216905D01*
X1205095D02*
Y0907969D01*
X1216905*
X1190528Y0888284D02*
X1194465D01*
X1190528D02*
Y0900095D01*
X1194465*
Y0888284D02*
Y0900095D01*
M02*