%FSTAX23Y23*%
%MOIN*%
%SFA1B1*%

%IPPOS*%
%ADD17C,0.008000*%
%ADD32R,0.007870X0.027560*%
%ADD54C,0.006000*%
%ADD58C,0.106300*%
%ADD59C,0.024000*%
%ADD60C,0.048000*%
%LNtime4cm4_modular-1*%
%LPD*%
G36*
X02627Y01552D02*
X02645Y01546D01*
X02662Y01537*
X02677Y01525*
X02689Y0151*
X02698Y01494*
X02704Y01475*
X02705Y01455*
Y00119*
X02704Y00099*
X02698Y0008*
X02689Y00063*
X02677Y00049*
X02662Y00036*
X02645Y00027*
X02627Y00022*
X02607Y0002*
X00119*
X00099Y00022*
X0008Y00027*
X00063Y00036*
X00049Y00049*
X00036Y00063*
X00027Y0008*
X00022Y00099*
X0002Y00119*
Y01455*
X00022Y01475*
X00027Y01494*
X00036Y0151*
X00049Y01525*
X00063Y01537*
X0008Y01546*
X00099Y01552*
X00119Y01554*
X02607*
X02627Y01552*
G37*
%LNtime4cm4_modular-2*%
%LPC*%
G36*
X00776Y01538D02*
X00689D01*
X00686Y01537*
X00589*
Y01499*
X00588Y01495*
X00584Y01491*
X0058Y01492*
X00573Y01491*
X00567Y01487*
X00563Y01481*
X00562Y01475*
X00563Y01468*
X00567Y01462*
X00573Y01458*
X0058Y01457*
X00586Y01458*
X00591Y01462*
X00593Y01463*
X00596*
X00598Y01462*
X00603Y01458*
X00608Y01457*
X00608Y01456*
X00607Y0145*
X00608Y01443*
X00612Y01438*
X00611Y01436*
X0061Y01433*
X0048*
X00477Y01437*
X00471Y01441*
X00465Y01442*
X00458Y01441*
X00452Y01437*
X00448Y01431*
X00447Y01425*
X00448Y01418*
X00452Y01412*
X00458Y01408*
X00465Y01407*
X00471Y01408*
X00477Y01412*
X0048Y01416*
X00584*
X00589Y01416*
Y01411*
Y01381*
X00574Y01366*
X0057Y01367*
X00563Y01366*
X00557Y01362*
X00553Y01356*
X00552Y0135*
X00553Y01343*
X00557Y01337*
X00563Y01333*
X0057Y01332*
X00576Y01333*
X00582Y01337*
X00586Y01343*
X00587Y0135*
X00586Y01354*
X00604Y01372*
X00605Y01375*
X00606Y01378*
X00607Y01378*
Y01416*
X00612Y01416*
X00616*
X0062Y01416*
Y01411*
Y01378*
X00621*
Y01366*
X00618Y01366*
X00612Y01362*
X00608Y01356*
X00607Y0135*
X00608Y01343*
X00612Y01337*
X00618Y01333*
X00624Y01332*
X00625Y01332*
X00628Y01328*
X00627Y01325*
X00628Y01318*
X00632Y01312*
X00638Y01308*
X00645Y01307*
X00651Y01308*
X00657Y01312*
X00658Y01314*
X00663Y01313*
Y01276*
X00664Y01274*
X00661Y01269*
X00308*
Y01269*
X00301Y01268*
X00296Y01264*
X00296Y01264*
X00218Y01186*
X00216Y01183*
X00215Y0118*
Y00908*
X00215*
X00215*
X00216Y00906*
X00216Y00904*
X00216Y00904*
X00218Y00899*
X00219Y00897*
X0022Y00896*
X0022Y00896*
X00343Y00773*
X00342Y0077*
X00343Y00763*
X00347Y00757*
X00353Y00753*
X0036Y00752*
X00366Y00753*
X00372Y00757*
X00376Y00763*
X00377Y0077*
X00376Y00776*
X00372Y00782*
X00366Y00786*
X0036Y00787*
X00356Y00786*
X00235Y00907*
X00234Y0091*
Y01176*
X00308Y0125*
X00309Y0125*
X00449*
X00451Y01245*
X00448Y01241*
X00447Y01235*
X00448Y01228*
X00452Y01222*
X00458Y01218*
X00465Y01217*
X00468Y01218*
X00783Y00903*
X00786Y00901*
X0079Y009*
X01415*
X01418Y00901*
X01421Y00903*
X01426Y00908*
X0143Y00906*
Y00699*
X0143Y00698*
X01321Y00589*
X0132Y00589*
X01144*
X01142Y00592*
X01136Y00596*
X0113Y00597*
X01123Y00596*
X01117Y00592*
X01113Y00586*
X01112Y0058*
X01113Y00573*
X01117Y00567*
X01123Y00563*
X0113Y00562*
X01136Y00563*
X01142Y00567*
X01144Y0057*
X01321*
Y0057*
X01328Y00571*
X01333Y00575*
X01333Y00575*
X01333Y00575*
X01444Y00686*
X01444*
X01444Y00686*
X01448Y00691*
X01449Y00698*
X01449*
Y0092*
X01452Y00922*
X01455Y00928*
X01456Y00928*
X0146Y00925*
Y00689*
X0146Y00688*
X01323Y00551*
X01322Y0055*
X01143*
X01142Y00552*
X01136Y00556*
X0113Y00557*
X01123Y00556*
X01117Y00552*
X01113Y00546*
X01112Y0054*
X01113Y00533*
X01117Y00527*
X01123Y00523*
X0113Y00522*
X01136Y00523*
X01142Y00527*
X01145Y00532*
X01299*
X01301Y00527*
X01299Y00525*
X01294Y00519*
X01291Y00512*
X0129Y00505*
X01291Y00497*
X01294Y0049*
X01299Y00484*
X01305Y00479*
X01312Y00476*
X0132Y00475*
X01327Y00476*
X01334Y00479*
X0134Y00484*
X01345Y0049*
X01348Y00497*
X01349Y00505*
X01348Y00512*
X01345Y00519*
X0134Y00525*
X01334Y0053*
X01334Y0053*
X01333Y00536*
X01335Y00537*
X01335Y00537*
X01335Y00537*
X01474Y00676*
X01474*
X01474Y00676*
X01478Y00681*
X01479Y00688*
X01479*
Y00945*
X01478Y00948*
X01476Y00951*
X01456Y00971*
X01457Y00975*
X01456Y00981*
X01452Y00987*
X01446Y00991*
X0144Y00992*
X01433Y00991*
X01427Y00987*
X01423Y00981*
X01422Y00975*
X01423Y00971*
X01391Y00939*
X00818*
X00526Y01231*
X00527Y01235*
X00526Y01241*
X00523Y01245*
X00525Y0125*
X01214*
X01217Y01251*
X0122Y01253*
X01239Y01272*
X01241Y01275*
X01242Y01279*
Y01288*
X01247Y0129*
X01251Y01287*
X01258Y01286*
X01264Y01287*
X0127Y01291*
X01274Y01297*
X01275Y01304*
X01274Y0131*
X0127Y01316*
X01267Y01318*
Y0136*
X01267Y0136*
X01268Y01363*
Y01378*
X01268*
Y01416*
X01273Y01416*
X01277*
X01282Y01416*
Y01411*
Y01378*
X01282*
Y01365*
X01277Y01362*
X01273Y01356*
X01272Y0135*
X01273Y01343*
X01277Y01337*
X01283Y01333*
X01289Y01332*
X0129Y01332*
X01293Y01328*
X01292Y01325*
X01293Y01318*
X01297Y01312*
X01303Y01308*
X0131Y01307*
X01316Y01308*
X01322Y01312*
X01326Y01318*
X01327Y01325*
X01326Y01331*
X01322Y01337*
X01318Y0134*
Y01358*
X01317Y01361*
X01315Y01364*
X01315Y01364*
Y01378*
X01316*
Y01416*
X0132Y01416*
X01324*
X01329Y01416*
Y01411*
Y01378*
X0133*
Y01354*
X01331Y01351*
X01332Y01348*
X01336Y01345*
X01335Y01344*
X01334Y01338*
X01335Y01331*
X01339Y01325*
X01345Y01321*
X01352Y0132*
X01358Y01321*
X0136Y01322*
X01364Y01321*
X01364Y01319*
X01368Y01313*
X01374Y01309*
X01381Y01308*
X01387Y01309*
X01393Y01313*
X01397Y01319*
X01398Y01326*
X01397Y01332*
X01393Y01338*
X01387Y01342*
X01386Y01342*
Y01347*
X01385Y0135*
X01383Y01352*
X01362Y01373*
X01363Y01378*
Y01416*
X01368Y01416*
X01396*
X01421Y01391*
Y01188*
X01391Y01158*
X01165*
X01161Y01157*
X01159Y01155*
X01129Y01125*
X01127Y01123*
X01126Y0112*
Y0098*
X01122Y00977*
X01118Y00971*
X01117Y00965*
X01118Y00958*
X01122Y00952*
X01128Y00948*
X01135Y00947*
X01141Y00948*
X01147Y00952*
X01151Y00958*
X01152Y00965*
X01151Y00971*
X01147Y00977*
X01143Y0098*
Y01092*
X01147Y01094*
X01148Y01093*
X01155Y01092*
X01161Y01093*
X01167Y01097*
X01169Y011*
X01416*
Y011*
X01423Y01101*
X01428Y01105*
X01428Y01105*
Y01105*
X01546Y01223*
X0155Y01222*
X01556Y01223*
X01562Y01227*
X01566Y01233*
X01567Y0124*
X01566Y01246*
X01562Y01252*
X01556Y01256*
X0155Y01257*
X01543Y01256*
X01537Y01252*
X01533Y01246*
X01532Y0124*
X01533Y01236*
X01416Y01119*
X01415Y01119*
X01169*
X01167Y01122*
X01161Y01126*
X01159Y01126*
X01158Y01131*
X01168Y01141*
X01395*
X01398Y01142*
X014Y01144*
X01435Y01179*
X01437Y01181*
X01438Y01185*
Y01395*
X01437Y01398*
X01435Y014*
X01405Y0143*
X01403Y01432*
X014Y01433*
X01354*
X01353Y01436*
X01352Y01438*
X01356Y01443*
X01357Y0145*
X01356Y01453*
X01359Y01457*
X0136Y01457*
X01366Y01458*
X01372Y01462*
X01376Y01468*
X01377Y01475*
X01376Y01481*
X01372Y01487*
X01366Y01491*
X01362Y01491*
Y01499*
X01363*
Y01537*
X01329*
Y01499*
X01331*
Y0149*
X0133Y01489*
X01326Y01488*
X01321Y01491*
X01315Y01492*
Y01499*
X01316*
Y01537*
X01282*
Y01499*
X01284*
Y01492*
X01279Y01489*
X01276Y01491*
X0127Y01492*
X01268Y01494*
X01268Y01499*
Y01537*
X01203*
Y01499*
X01204*
Y01491*
X01203Y0149*
X01198Y0149*
X01196Y01491*
X0119Y01492*
X01189Y01492*
Y01499*
X0119*
Y01537*
X01124*
Y01499*
X01125*
Y01492*
X01124Y01491*
X01124Y0149*
X01118Y0149*
X01116Y01491*
X0111Y01492*
Y01499*
X01111*
Y01537*
X01046*
Y01499*
X01046*
Y01493*
X01044Y0149*
X01042Y01488*
X01041Y01485*
Y01478*
X01037Y01477*
X01037*
X01036Y01481*
X01035Y01481*
X01032Y01487*
X0103Y01488*
Y01499*
X01032*
Y01537*
X00967*
Y01499*
X00968*
Y01491*
X00963Y01491*
X00958Y01487*
X00956Y01487*
X00953Y01489*
Y01499*
X00953*
Y01537*
X0092*
Y01518*
X0092Y01517*
Y01491*
X00918Y01491*
X00912Y01487*
X00909Y01483*
X00904Y01484*
Y01499*
X00906*
Y01537*
X00872*
Y01499*
X00873*
Y01492*
X00868Y01491*
X00863Y01487*
X0086Y01488*
X00858Y01489*
Y01499*
X00859*
Y01537*
X00825*
Y01499*
X00825Y01494*
X00825Y01492*
X00818Y01491*
X00815Y01489*
X0081Y01491*
Y01499*
X00812*
Y01537*
X00778*
X00776Y01538*
G37*
G36*
X0247Y01528D02*
D01*
X02335*
X02331Y01527*
X02329Y01525*
X02239Y01435*
X02237Y01433*
X02236Y0143*
Y01205*
X02233Y01202*
X02231Y01201*
X02228*
X02226Y01202*
X02221Y01206*
X02215Y01207*
X02208Y01206*
X02207Y01205*
X02203Y01207*
Y0121*
X02202Y01213*
X022Y01215*
X02185Y0123*
X02183Y01232*
X0218Y01233*
X0215*
X02146Y01232*
X02144Y0123*
X0213Y01216*
X02128Y01214*
X02127Y01211*
Y01205*
X02122Y01202*
X02118Y01196*
X02117Y0119*
X02118Y01183*
X02122Y01177*
X02128Y01173*
X02135Y01172*
X02141Y01173*
X02147Y01177*
X02149Y01181*
X02155*
X02157Y01177*
X02161Y01175*
Y00745*
X02162Y00741*
X02164Y00739*
X02344Y00559*
X02346Y00557*
X0235Y00556*
X02456*
X02498Y00514*
X02497Y0051*
X02498Y00503*
X02502Y00497*
X02508Y00493*
X02515Y00492*
X02521Y00493*
X02527Y00497*
X02531Y00503*
X02532Y0051*
X02531Y00516*
X02527Y00522*
X02521Y00526*
X02515Y00527*
X0251Y00526*
X02465Y0057*
X02463Y00572*
X0246Y00573*
X02353*
X02261Y00665*
X02264Y00668*
X02266Y00667*
X0227Y00666*
X0244*
X02443Y00667*
X02445Y00669*
X0249Y00713*
X02495Y00712*
X02501Y00713*
X02507Y00717*
X02511Y00723*
X02512Y0073*
X02511Y00736*
X02507Y00742*
X02501Y00746*
X02495Y00747*
X02488Y00746*
X02482Y00742*
X0248Y00738*
X02474*
X02472Y00742*
X02466Y00746*
X0246Y00747*
X02453Y00746*
X02447Y00742*
X02445Y00738*
X02439*
X02437Y00742*
X02431Y00746*
X02425Y00747*
X02421Y00746*
X02344Y00823*
X02344Y00824*
Y013*
X02344Y01301*
X02426Y01383*
X02428Y01386*
X02429Y0139*
Y0146*
X02432Y01462*
X02436Y01468*
X02437Y01475*
X02436Y01481*
X02432Y01487*
X02426Y01491*
X0242Y01492*
X02413Y01491*
X02407Y01487*
X02405Y01483*
X02399*
X02397Y01487*
X02391Y01491*
X02385Y01492*
X02378Y01491*
X02372Y01487*
X02368Y01481*
X02367Y01475*
X02368Y01468*
X02372Y01462*
X02375Y0146*
Y01403*
X02298Y01326*
X02296Y01323*
X02295Y0132*
Y00815*
X02296Y00811*
X02298Y00808*
X02373Y00733*
X02372Y0073*
X02373Y00723*
X02377Y00717*
X02383Y00713*
X0239Y00712*
X02396Y00713*
X02402Y00717*
X02404Y00721*
X0241*
X02412Y00717*
X02418Y00713*
X02424Y00712*
X02425Y0071*
X02426Y00707*
X02421Y00703*
X02283*
X02223Y00763*
Y01175*
X02226Y01177*
X02228Y01178*
X02231*
X02233Y01177*
X02238Y01173*
X02245Y01172*
X02251Y01173*
X02257Y01177*
X02261Y01183*
X02262Y0119*
X02261Y01196*
X02257Y01202*
X02253Y01205*
Y01426*
X02338Y01511*
X02466*
X02481Y01496*
Y0149*
X02477Y01487*
X02473Y01481*
X02472Y01475*
X02473Y01468*
X02477Y01462*
X02483Y01458*
X0249Y01457*
X02496Y01458*
X02502Y01462*
X02506Y01468*
X02507Y01475*
X02506Y01481*
X02502Y01487*
X02498Y0149*
Y015*
X02497Y01503*
X02495Y01505*
X02475Y01525*
X02473Y01527*
X0247Y01528*
G37*
G36*
X02027Y01495D02*
X02016Y01494D01*
X02005Y01491*
X01995Y01485*
X01986Y01478*
X01978Y01469*
X01973Y01459*
X0197Y01448*
X01969Y01437*
X0197Y01425*
X01973Y01414*
X01978Y01404*
X01986Y01395*
X01995Y01388*
X02005Y01383*
X02016Y01379*
X02027Y01378*
X02038Y01379*
X02049Y01383*
X0206Y01388*
X02068Y01395*
X02076Y01404*
X02081Y01414*
X02084Y01425*
X02085Y01437*
X02084Y01448*
X02081Y01459*
X02076Y01469*
X02068Y01478*
X0206Y01485*
X02049Y01491*
X02038Y01494*
X02027Y01495*
G37*
G36*
X00137Y01495D02*
X00126Y01494D01*
X00115Y0149*
X00105Y01485*
X00096Y01478*
X00089Y01469*
X00083Y01459*
X0008Y01448*
X00079Y01437*
X0008Y01425*
X00083Y01414*
X00089Y01404*
X00096Y01395*
X00105Y01388*
X00115Y01383*
X00126Y01379*
X00137Y01378*
X00149Y01379*
X0016Y01383*
X0017Y01388*
X00179Y01395*
X00186Y01404*
X00191Y01414*
X00195Y01425*
X00196Y01437*
X00195Y01448*
X00191Y01459*
X00186Y01469*
X00179Y01478*
X0017Y01485*
X0016Y0149*
X00149Y01494*
X00137Y01495*
G37*
G36*
X00325Y01357D02*
X00318Y01356D01*
X00312Y01352*
X00308Y01346*
X00307Y0134*
X00308Y01333*
X00312Y01327*
X00318Y01323*
X00325Y01322*
X00331Y01323*
X00337Y01327*
X00341Y01333*
X00342Y0134*
X00341Y01346*
X00337Y01352*
X00331Y01356*
X00325Y01357*
G37*
G36*
X0013Y0128D02*
X00123Y01279D01*
X00118Y01275*
X00116Y01274*
X00113*
X00111Y01275*
X00106Y01279*
X001Y0128*
X00093Y01279*
X00087Y01275*
X00087Y01274*
X00082*
X00082Y01275*
X00076Y01279*
X0007Y0128*
X00063Y01279*
X00057Y01275*
X00053Y01269*
X00052Y01263*
X00053Y01256*
X00057Y0125*
X00063Y01247*
X0007Y01245*
X00076Y01247*
X00082Y0125*
X00082Y01251*
X00087*
X00087Y0125*
X00093Y01247*
X001Y01245*
X00106Y01247*
X00111Y0125*
X00113Y01251*
X00116*
X00118Y0125*
X00123Y01247*
X0013Y01245*
X00136Y01247*
X00142Y0125*
X00146Y01256*
X00147Y01263*
X00146Y01269*
X00142Y01275*
X00136Y01279*
X0013Y0128*
G37*
G36*
X02501Y01273D02*
X02494Y01272D01*
X02489Y01268*
X02485Y01263*
X02485Y01263*
X02484Y01262*
X0248Y01262*
X02477Y01267*
X02471Y01271*
X02465Y01272*
X02458Y01271*
X02452Y01267*
X02448Y01261*
X02447Y01255*
X02448Y01248*
X02452Y01242*
X02458Y01238*
X02465Y01237*
X02471Y01238*
X02477Y01242*
X02481Y01248*
X02481Y01248*
X02482Y01248*
X02486Y01248*
X02489Y01244*
X02494Y0124*
X02501Y01239*
X02508Y0124*
X02513Y01244*
X02517Y01249*
X02518Y01256*
X02517Y01263*
X02513Y01268*
X02508Y01272*
X02501Y01273*
G37*
G36*
X02425Y01272D02*
X02418Y01271D01*
X02412Y01267*
X02408Y01261*
X02407Y01255*
X02408Y01248*
X02412Y01242*
X02418Y01238*
X02425Y01237*
X02431Y01238*
X02437Y01242*
X02441Y01248*
X02442Y01255*
X02441Y01261*
X02437Y01267*
X02431Y01271*
X02425Y01272*
G37*
G36*
X0238D02*
X02373Y01271D01*
X02367Y01267*
X02363Y01261*
X02362Y01255*
X02363Y01248*
X02367Y01242*
X02373Y01238*
X0238Y01237*
X02386Y01238*
X02392Y01242*
X02396Y01248*
X02397Y01255*
X02396Y01261*
X02392Y01267*
X02386Y01271*
X0238Y01272*
G37*
G36*
X0013Y0107D02*
X00123Y01069D01*
X00118Y01065*
X00116Y01064*
X00113*
X00111Y01065*
X00106Y01069*
X001Y0107*
X00093Y01069*
X00087Y01065*
X00087Y01064*
X00082*
X00082Y01065*
X00076Y01069*
X0007Y0107*
X00063Y01069*
X00057Y01065*
X00053Y01059*
X00052Y01053*
X00053Y01046*
X00057Y0104*
X00063Y01037*
X0007Y01035*
X00076Y01037*
X00082Y0104*
X00082Y01041*
X00087*
X00087Y0104*
X00093Y01037*
X001Y01035*
X00106Y01037*
X00111Y0104*
X00113Y01041*
X00116*
X00118Y0104*
X00123Y01037*
X0013Y01035*
X00136Y01037*
X00142Y0104*
X00146Y01046*
X00147Y01053*
X00146Y01059*
X00142Y01065*
X00136Y01069*
X0013Y0107*
G37*
G36*
Y01022D02*
X00123Y01021D01*
X00117Y01017*
X00117Y01016*
X00112*
X00112Y01017*
X00106Y01021*
X001Y01022*
X00093Y01021*
X00088Y01017*
X00086Y01016*
X00083*
X00081Y01017*
X00076Y01021*
X0007Y01022*
X00063Y01021*
X00057Y01017*
X00053Y01011*
X00052Y01005*
X00053Y00998*
X00057Y00992*
X00063Y00988*
X0007Y00987*
X00076Y00988*
X00081Y00992*
X00083Y00993*
X00086*
X00088Y00992*
X00093Y00988*
X001Y00987*
X00106Y00988*
X00112Y00992*
X00112Y00993*
X00117*
X00117Y00992*
X00123Y00988*
X0013Y00987*
X00136Y00988*
X00142Y00992*
X00146Y00998*
X00147Y01005*
X00146Y01011*
X00142Y01017*
X00136Y01021*
X0013Y01022*
G37*
G36*
X0131Y01019D02*
X01302Y01018D01*
X01295Y01015*
X01289Y0101*
X01284Y01004*
X01281Y00997*
X0128Y0099*
X01281Y00982*
X01284Y00975*
X01289Y00969*
X01295Y00964*
X01302Y00961*
X0131Y0096*
X01317Y00961*
X01324Y00964*
X0133Y00969*
X01335Y00975*
X01338Y00982*
X01339Y0099*
X01338Y00997*
X01335Y01004*
X0133Y0101*
X01324Y01015*
X01317Y01018*
X0131Y01019*
G37*
G36*
X0013Y00812D02*
X00123Y00811D01*
X00117Y00807*
X00117Y00806*
X00112*
X00112Y00807*
X00106Y00811*
X001Y00812*
X00093Y00811*
X00088Y00807*
X00086Y00806*
X00083*
X00081Y00807*
X00076Y00811*
X0007Y00812*
X00063Y00811*
X00057Y00807*
X00053Y00801*
X00052Y00795*
X00053Y00788*
X00057Y00782*
X00063Y00778*
X0007Y00777*
X00076Y00778*
X00081Y00782*
X00083Y00783*
X00086*
X00088Y00782*
X00093Y00778*
X001Y00777*
X00106Y00778*
X00112Y00782*
X00112Y00783*
X00117*
X00117Y00782*
X00123Y00778*
X0013Y00777*
X00136Y00778*
X00142Y00782*
X00146Y00788*
X00147Y00795*
X00146Y00801*
X00142Y00807*
X00136Y00811*
X0013Y00812*
G37*
G36*
X0026Y01177D02*
X00253Y01176D01*
X00247Y01172*
X00243Y01166*
X00242Y0116*
X00243Y01153*
X00247Y01147*
X0025Y01145*
Y00963*
X0025*
X00251Y00956*
X00255Y00951*
X00255Y00951*
X00328Y00878*
X00327Y00875*
X00328Y00868*
X00332Y00862*
X00338Y00858*
X00345Y00857*
X00348Y00858*
X00398Y00808*
X00401Y00806*
X00405Y00805*
X01345*
X01347Y00802*
X01353Y00798*
X0136Y00797*
X01366Y00798*
X01372Y00802*
X01376Y00808*
X01377Y00815*
X01376Y00821*
X01372Y00827*
X01366Y00831*
X0136Y00832*
X01353Y00831*
X01347Y00827*
X01345Y00824*
X00408*
X00361Y00871*
X00362Y00875*
X00361Y00881*
X00357Y00887*
X00351Y00891*
X00345Y00892*
X00341Y00891*
X00269Y00963*
X00269Y00964*
Y01145*
X00272Y01147*
X00276Y01153*
X00277Y0116*
X00276Y01166*
X00272Y01172*
X00266Y01176*
X0026Y01177*
G37*
G36*
X0013Y00772D02*
X00123Y00771D01*
X00118Y00767*
X00116Y00766*
X00113*
X00111Y00767*
X00106Y00771*
X001Y00772*
X00093Y00771*
X00088Y00767*
X00086Y00766*
X00083*
X00081Y00767*
X00076Y00771*
X0007Y00772*
X00063Y00771*
X00057Y00767*
X00053Y00761*
X00052Y00755*
X00053Y00748*
X00057Y00742*
X00063Y00738*
X0007Y00737*
X00076Y00738*
X00081Y00742*
X00083Y00743*
X00086*
X00088Y00742*
X00093Y00738*
X001Y00737*
X00106Y00738*
X00111Y00742*
X00113Y00743*
X00116*
X00118Y00742*
X00123Y00738*
X0013Y00737*
X00136Y00738*
X00142Y00742*
X00146Y00748*
X00147Y00755*
X00146Y00761*
X00142Y00767*
X00136Y00771*
X0013Y00772*
G37*
G36*
X0175Y00664D02*
X01742Y00663D01*
X01735Y0066*
X01729Y00655*
X01724Y00649*
X01721Y00642*
X0172Y00635*
X01721Y00627*
X01724Y0062*
X01729Y00614*
X01735Y00609*
X01742Y00606*
X0175Y00605*
X01757Y00606*
X01764Y00609*
X0177Y00614*
X01775Y0062*
X01778Y00627*
X01779Y00635*
X01778Y00642*
X01775Y00649*
X0177Y00655*
X01764Y0066*
X01757Y00663*
X0175Y00664*
G37*
G36*
X0013Y00562D02*
X00123Y00561D01*
X00117Y00557*
X00117Y00556*
X00112*
X00112Y00557*
X00106Y00561*
X001Y00562*
X00093Y00561*
X00088Y00557*
X00086Y00556*
X00083*
X00081Y00557*
X00076Y00561*
X0007Y00562*
X00063Y00561*
X00057Y00557*
X00053Y00551*
X00052Y00545*
X00053Y00538*
X00057Y00532*
X00063Y00528*
X0007Y00527*
X00076Y00528*
X00082Y00532*
X00082Y00533*
X00087*
X00087Y00532*
X00093Y00528*
X001Y00527*
X00106Y00528*
X00112Y00532*
X00112Y00533*
X00117*
X00117Y00532*
X00123Y00528*
X0013Y00527*
X00136Y00528*
X00142Y00532*
X00146Y00538*
X00147Y00545*
X00146Y00551*
X00142Y00557*
X00136Y00561*
X0013Y00562*
G37*
G36*
X0247Y00527D02*
X02463Y00526D01*
X02457Y00522*
X02455Y00518*
X02449*
X02447Y00522*
X02441Y00526*
X02435Y00527*
X02428Y00526*
X02422Y00522*
X02418Y00516*
X02417Y0051*
X02418Y00503*
X02422Y00497*
X02428Y00493*
X02435Y00492*
X02441Y00493*
X02447Y00497*
X02449Y00501*
X02455*
X02457Y00497*
X02463Y00493*
X0247Y00492*
X02476Y00493*
X02482Y00497*
X02486Y00503*
X02487Y0051*
X02486Y00516*
X02482Y00522*
X02476Y00526*
X0247Y00527*
G37*
G36*
X0045Y00552D02*
X00443Y00551D01*
X00437Y00547*
X00433Y00541*
X00432Y00535*
X00433Y00528*
X00437Y00522*
X00443Y00518*
X0045Y00517*
X00456Y00518*
X00462Y00522*
X00466Y00528*
X00467Y00535*
X00466Y00541*
X00462Y00547*
X00456Y00551*
X0045Y00552*
G37*
G36*
X01455Y00554D02*
X01447Y00553D01*
X0144Y0055*
X01434Y00545*
X01429Y00539*
X01426Y00532*
X01425Y00525*
X01426Y00517*
X01429Y0051*
X01434Y00504*
X0144Y00499*
X01447Y00496*
X01455Y00495*
X01462Y00496*
X01469Y00499*
X01475Y00504*
X0148Y0051*
X01483Y00517*
X01484Y00525*
X01483Y00532*
X0148Y00539*
X01475Y00545*
X01469Y0055*
X01462Y00553*
X01455Y00554*
G37*
G36*
X02395Y00527D02*
X02388Y00526D01*
X02382Y00522*
X02378Y00516*
X02377Y0051*
X02378Y00503*
X02382Y00497*
X02388Y00493*
X02395Y00492*
X02401Y00493*
X02407Y00497*
X02411Y00503*
X02412Y0051*
X02411Y00516*
X02407Y00522*
X02401Y00526*
X02395Y00527*
G37*
G36*
X0156Y01177D02*
X01553Y01176D01*
X01547Y01172*
X01543Y01166*
X01542Y0116*
X01543Y01153*
X01547Y01147*
X01553Y01143*
X0156Y01142*
X01563Y01143*
X0163Y01076*
Y00874*
X01627Y00872*
X01623Y00866*
X01622Y0086*
X01623Y00853*
X01627Y00847*
X0163Y00845*
Y00588*
X01506Y00464*
X00649*
X00647Y00467*
X00641Y00471*
X00635Y00472*
X00628Y00471*
X00622Y00467*
X00618Y00461*
X00617Y00455*
X00618Y00448*
X00622Y00442*
X00628Y00438*
X00635Y00437*
X00641Y00438*
X00647Y00442*
X00649Y00445*
X0151*
X01513Y00446*
X01516Y00448*
X01646Y00578*
X01648Y00581*
X01649Y00585*
Y00845*
X01652Y00847*
X01656Y00853*
X01657Y0086*
X01656Y00866*
X01652Y00872*
X01649Y00874*
Y0108*
X01648Y01083*
X01646Y01086*
X01576Y01156*
X01577Y0116*
X01576Y01166*
X01572Y01172*
X01566Y01176*
X0156Y01177*
G37*
G36*
X02469Y01086D02*
X02462Y01085D01*
X02457Y01081*
X02453Y01075*
X02451Y01069*
X02453Y01062*
X02457Y01057*
X02462Y01053*
X02469Y01051*
X02472Y01052*
X0254Y00984*
Y00403*
X02472Y00335*
X02468Y00335*
X02461Y00334*
X02456Y0033*
X02452Y00325*
X02451Y00318*
X02452Y00311*
X02456Y00306*
X02461Y00302*
X02468Y00301*
X02475Y00302*
X0248Y00306*
X02484Y00311*
X02485Y00318*
X02485Y00322*
X02556Y00393*
X02558Y00396*
X02559Y004*
Y00988*
X02558Y00992*
X02556Y00995*
X02485Y01065*
X02486Y01069*
X02485Y01075*
X02481Y01081*
X02475Y01085*
X02469Y01086*
G37*
G36*
X0013Y00312D02*
X00123Y00311D01*
X00117Y00307*
X00117Y00306*
X00112*
X00112Y00307*
X00106Y00311*
X001Y00312*
X00093Y00311*
X00087Y00307*
X00087Y00306*
X00082*
X00082Y00307*
X00076Y00311*
X0007Y00312*
X00063Y00311*
X00057Y00307*
X00053Y00301*
X00052Y00295*
X00053Y00288*
X00057Y00282*
X00063Y00278*
X0007Y00277*
X00076Y00278*
X00082Y00282*
X00082Y00283*
X00087*
X00087Y00282*
X00093Y00278*
X001Y00277*
X00106Y00278*
X00112Y00282*
X00112Y00283*
X00117*
X00117Y00282*
X00123Y00278*
X0013Y00277*
X00136Y00278*
X00142Y00282*
X00146Y00288*
X00147Y00295*
X00146Y00301*
X00142Y00307*
X00136Y00311*
X0013Y00312*
G37*
G36*
X01044Y00276D02*
X01038Y00274D01*
X01032Y0027*
X01029Y00266*
X01025Y00265*
X01023Y00265*
X01022Y00267*
X01016Y00271*
X0101Y00272*
X01003Y00271*
X00998Y00267*
X00995Y00263*
X0099Y00263*
X00989Y00263*
X00987Y00267*
X00981Y00271*
X00975Y00272*
X00968Y00271*
X00962Y00267*
X00958Y00261*
X00957Y00255*
X00958Y00252*
X00956Y00247*
X00954Y00246*
X0095Y00246*
X00949Y00246*
X00948Y00247*
X00946Y00249*
X00947Y00255*
X00946Y00261*
X00942Y00267*
X00936Y00271*
X0093Y00272*
X00923Y00271*
X00917Y00267*
X00913Y00261*
X00912Y00255*
X00913Y00251*
X0091Y00247*
X00909Y00247*
X00903Y00246*
X00902Y00245*
X00895Y00246*
X00895Y00247*
X00896Y00248*
X00897Y00255*
X00896Y00261*
X00892Y00267*
X00886Y00271*
X0088Y00272*
X00873Y00271*
X00867Y00267*
X00863Y00261*
X00862Y00255*
X00863Y00252*
X00859Y00246*
X00858Y00246*
X00857Y00245*
X0085Y00246*
X0085Y00247*
X00851Y00248*
X00852Y00255*
X00851Y00261*
X00847Y00267*
X00841Y00271*
X00835Y00272*
X00828Y00271*
X00822Y00267*
X00818Y00261*
X00817Y00255*
X00818Y00252*
X00814Y00246*
X00813Y00246*
X00807Y00242*
X00804Y00236*
X00803Y00236*
X00802Y00232*
X00802*
X00798Y00233*
Y00244*
X00801Y00248*
X00802Y00255*
X00801Y00261*
X00797Y00267*
X00791Y00271*
X00785Y00272*
X00778Y00271*
X00772Y00267*
X00768Y00261*
X00767Y00255*
X00768Y00252*
X00764Y00246*
X00763Y00246*
X00762Y00245*
X00755Y00246*
X00755Y00247*
X00756Y00248*
X00757Y00255*
X00756Y00261*
X00752Y00267*
X00746Y00271*
X0074Y00272*
X00733Y00271*
X00727Y00267*
X00723Y00261*
X00722Y00255*
X00723Y00252*
X00719Y00246*
X00718Y00246*
X00712Y00242*
X00709Y00236*
X00708Y00236*
X00707Y00232*
X00707*
X00703Y00233*
Y00244*
X00706Y00248*
X00707Y00255*
X00706Y00261*
X00702Y00267*
X00696Y00271*
X0069Y00272*
X00683Y00271*
X00677Y00267*
X00673Y00261*
X00672Y00255*
X00673Y00252*
X00669Y00246*
X00668Y00246*
X00667Y00245*
X0066Y00246*
X0066Y00247*
X00661Y00248*
X00662Y00255*
X00661Y00261*
X00657Y00267*
X00651Y00271*
X00645Y00272*
X00638Y00271*
X00632Y00267*
X00628Y00261*
X00627Y00255*
X00628Y00252*
X00624Y00246*
X00623Y00246*
X00617Y00242*
X00616Y0024*
X00611Y00242*
X00612Y00245*
X00611Y00251*
X00607Y00257*
X00601Y00261*
X00595Y00262*
X00588Y00261*
X00582Y00257*
X00578Y00251*
X00577Y00245*
X00578Y00238*
X00582Y00232*
X00588Y00228*
X00589Y00228*
Y00184*
X00589Y00183*
Y00164*
X00607*
Y00202*
X00605*
Y0023*
X00608Y00232*
X00612Y0023*
X00612Y0023*
X00613Y00223*
X00617Y00217*
X00621Y00215*
Y00202*
X0062*
Y00164*
X00654*
Y00202*
X00653*
Y0021*
X00655Y00212*
X00657Y00215*
X00657Y00216*
X00661Y00217*
X00663Y00217*
X00668Y00214*
Y00184*
X00668Y00183*
Y00164*
X00701*
Y00202*
X00701*
Y00211*
X00702Y00214*
X00703Y00217*
Y00226*
X00707Y00227*
X00707*
X00708Y00223*
X00709Y00223*
X00712Y00217*
X00716Y00215*
Y00202*
X00715*
Y00164*
X00749*
Y00202*
X00748*
Y0021*
X0075Y00212*
X00752Y00215*
X00752Y00216*
X00757Y00217*
X00762Y00214*
Y00184*
X00762Y00183*
Y00164*
X00796*
Y00202*
X00795*
Y00211*
X00795Y00211*
X00797Y00214*
X00798Y00217*
Y00226*
X00802Y00227*
X00802*
X00803Y00223*
X00804Y00223*
X00807Y00217*
X00811Y00215*
Y00202*
X00809*
Y00164*
X00843*
Y00202*
X00842*
Y0021*
X00845Y00213*
X00847Y00215*
X00847Y00216*
X00852Y00217*
X00857Y00214*
Y00202*
X00857*
Y00164*
X0089*
Y00202*
X0089*
Y00211*
X0089Y00211*
X00892Y00214*
X00892Y00216*
X00896Y00217*
X00897Y00217*
X00898Y00217*
X00903Y00213*
X00904Y00213*
Y00184*
X00904Y00183*
Y00164*
X00938*
Y00202*
X00937*
Y00217*
X00937Y00217*
X00937Y00218*
X00942Y00219*
X00944Y00217*
X00949Y00213*
X00951Y00213*
Y00184*
X00951Y00183*
Y00164*
X01079*
Y00183*
X01079Y00184*
Y00202*
X01085Y00208*
X01087Y00207*
X01089Y00208*
X01089Y00208*
X01091Y00206*
X01093Y00202*
Y00164*
X01127*
Y00193*
X0113Y00196*
X01133Y00197*
X01135Y00199*
X01136Y00199*
X0114Y00197*
Y00164*
X01174*
Y00183*
X01174Y00184*
Y00199*
X01184Y00209*
X01189Y00207*
X01189Y00206*
X01187Y00202*
Y00164*
X01268*
Y00202*
X01268*
Y00215*
X01268Y00216*
Y00226*
X01272Y00227*
X01272*
X01273Y00223*
X01274Y00223*
X01277Y00217*
X01282Y00214*
Y00202*
X01282*
Y00164*
X01316*
Y00202*
X01315*
Y00211*
X01315Y00211*
X01317Y00214*
X01318Y00217*
Y00244*
X01321Y00248*
X01322Y00255*
X01321Y00261*
X01317Y00267*
X01311Y00271*
X01305Y00272*
X01298Y00271*
X01292Y00267*
X01288Y00261*
X01287Y00255*
X01288Y00252*
X01284Y00246*
X01283Y00246*
X01277Y00242*
X01274Y00236*
X01273Y00236*
X01272Y00232*
X01272*
X01268Y00233*
Y00244*
X01271Y00248*
X01272Y00255*
X01271Y00261*
X01267Y00267*
X01261Y00271*
X01255Y00272*
X01248Y00271*
X01242Y00267*
X01238Y00261*
X01237Y00255*
X01238Y00252*
X01234Y00246*
X0123Y00246*
X01226Y0025*
X01228Y00256*
X01226Y00263*
X01223Y00269*
X01217Y00272*
X0121Y00274*
X01204Y00272*
X01198Y00269*
X01194Y00263*
X01193Y00256*
X01194Y00251*
X01193Y00246*
X01191Y00245*
X01185Y00245*
X01185Y00246*
X01181Y0025*
X01182Y00255*
X01181Y00261*
X01177Y00267*
X01171Y00271*
X01165Y00272*
X01158Y00271*
X01152Y00267*
X01151Y00264*
X01145Y00264*
X01142Y00268*
X01137Y00272*
X0113Y00273*
X01124Y00272*
X01118Y00268*
X01115Y00263*
X01111Y00263*
X01109Y00263*
X01107Y00267*
X01101Y00271*
X01095Y00272*
X01088Y00271*
X01082Y00267*
X01078Y00261*
X01076Y00259*
X01073Y00259*
X0107Y00257*
X01067Y00253*
X01066Y00253*
X01061Y00257*
X01062Y00258*
X0106Y00265*
X01057Y0027*
X01051Y00274*
X01044Y00276*
G37*
G36*
X01355Y00257D02*
X01348Y00256D01*
X01342Y00252*
X01338Y00246*
X01337Y0024*
X01338Y00233*
X01342Y00227*
X01346Y00225*
Y00202*
X01329*
Y00164*
X01331Y00163*
X01331Y0016*
Y00145*
X01327Y00142*
X01325Y00138*
X01319*
X01317Y00142*
X01311Y00146*
X01305Y00147*
X01298Y00146*
X01292Y00142*
X01288Y00136*
X01287Y0013*
X01288Y00123*
X01289Y00122*
X01287Y00118*
X01286Y00118*
X0128Y00114*
X01276Y00108*
X01275Y00102*
X01276Y00095*
X0128Y00089*
X01284Y00087*
Y0008*
X01282*
Y00043*
X01316*
Y0008*
X01316Y00085*
X01318Y00087*
X0132Y0009*
X01321Y00093*
Y00117*
X0132Y00119*
X01325Y00121*
X01327Y00117*
X01333Y00113*
X0134Y00112*
X01346Y00113*
X0135Y00116*
X01352Y00117*
X01356Y00114*
X01353Y00111*
X01352Y00105*
X01353Y00098*
X01357Y00092*
X01361Y00089*
Y0008*
X01329*
Y00043*
X01379*
Y0008*
X01378*
Y0009*
X01382Y00092*
X01386Y00098*
X01387Y00105*
X01386Y00111*
X01382Y00117*
X01376Y00121*
X0137Y00122*
X01363Y00121*
X01359Y00118*
X01357Y00117*
X01353Y0012*
X01356Y00123*
X01357Y0013*
X01356Y00136*
X01352Y00142*
X01348Y00144*
Y00163*
X01349Y00164*
X01379*
Y00202*
X01381Y00206*
X01385Y00206*
X01391Y0021*
X01394Y00216*
X01396Y00223*
X01394Y00229*
X01391Y00235*
X01385Y00239*
X01378Y0024*
X01373Y00239*
X01372Y0024*
X01371Y00246*
X01367Y00252*
X01361Y00256*
X01355Y00257*
G37*
G36*
X02027Y00196D02*
X02016Y00195D01*
X02005Y00191*
X01995Y00186*
X01986Y00179*
X01978Y0017*
X01973Y0016*
X0197Y00149*
X01969Y00137*
X0197Y00126*
X01973Y00115*
X01978Y00105*
X01986Y00096*
X01995Y00089*
X02005Y00083*
X02016Y0008*
X02027Y00079*
X02038Y0008*
X02049Y00083*
X0206Y00089*
X02068Y00096*
X02076Y00105*
X02081Y00115*
X02084Y00126*
X02085Y00137*
X02084Y00149*
X02081Y0016*
X02076Y0017*
X02068Y00179*
X0206Y00186*
X02049Y00191*
X02038Y00195*
X02027Y00196*
G37*
G36*
X00137D02*
X00126Y00195D01*
X00115Y00191*
X00105Y00186*
X00096Y00179*
X00089Y0017*
X00083Y0016*
X0008Y00149*
X00079Y00137*
X0008Y00126*
X00083Y00115*
X00089Y00105*
X00096Y00096*
X00105Y00089*
X00115Y00083*
X00126Y0008*
X00137Y00079*
X00149Y0008*
X0016Y00083*
X0017Y00089*
X00179Y00096*
X00186Y00105*
X00191Y00115*
X00195Y00126*
X00196Y00137*
X00195Y00149*
X00191Y0016*
X00186Y0017*
X00179Y00179*
X0017Y00186*
X0016Y00191*
X00149Y00195*
X00137Y00196*
G37*
G36*
X00645Y00152D02*
X00638Y00151D01*
X00632Y00147*
X00628Y00141*
X00627Y00135*
X00628Y00132*
X00624Y00126*
X00623Y00126*
X00617Y00122*
X00613Y00116*
X00612Y0011*
X00613Y00103*
X00617Y00097*
X00621Y00095*
Y0008*
X0062*
Y00043*
X00654*
Y0008*
X00653*
Y00089*
X00655Y00091*
X00657Y00094*
X00658Y00097*
Y00101*
X00662Y00102*
X00662*
X00663Y00098*
X00664Y00098*
X00667Y00092*
X00669Y00091*
Y0008*
X00668*
Y00043*
X00701*
Y0008*
X00701*
Y00086*
X00705Y0009*
X00706Y00092*
X0071Y00093*
X00712Y00093*
X00712Y00092*
X00716Y0009*
Y0008*
X00715*
Y00043*
X00749*
Y0008*
X00748*
Y00087*
X0075Y00089*
X00752Y00091*
X00754Y00092*
X00757Y00092*
X00757Y00092*
X00762Y00089*
Y00062*
X00762Y00062*
Y00043*
X00796*
Y0008*
X00795*
Y00088*
X00795Y00088*
X00797Y00091*
X00798Y00094*
Y00094*
Y00101*
X00802Y00102*
X00802*
X00803Y00098*
X00804Y00098*
X00807Y00092*
X00811Y0009*
Y0008*
X00809*
Y00043*
X00843*
Y0008*
X00842*
Y00086*
X00845Y00089*
X00847Y00092*
X00849Y00092*
X00852Y00092*
X00852Y00092*
X00857Y00089*
Y0008*
X00857*
Y00043*
X0089*
Y0008*
X0089*
Y00088*
X0089Y00088*
X00892Y00091*
X00893Y00094*
Y00101*
X00897Y00102*
X00897*
X00898Y00098*
X00899Y00098*
X00902Y00092*
X00906Y0009*
Y0008*
X00904*
Y00043*
X00938*
Y0008*
X00937*
Y00086*
X0094Y0009*
X00942Y00092*
X00945Y00092*
X00947Y00092*
X00947Y00092*
X00952Y00089*
Y0008*
X00951*
Y00043*
X00985*
Y0008*
X00984*
Y00089*
X00985Y0009*
X00986Y00092*
X0099Y00093*
X00992Y00093*
X00992Y00092*
X00998Y00088*
X00998Y00088*
Y00062*
X00998Y00062*
Y00043*
X01032*
Y0008*
X01031*
Y00089*
X01032Y0009*
X01033Y00093*
Y00101*
X01037Y00102*
X01037*
X01038Y00098*
X01039Y00098*
X01042Y00092*
X01046Y00089*
Y0008*
X01046*
Y00043*
X01079*
Y0008*
X01079*
Y00087*
X0108Y00089*
X01082Y00091*
X01083Y00095*
Y00101*
X01087Y00102*
X01087*
X01088Y00098*
X01089Y00098*
X01092Y00092*
X01095Y00091*
Y0008*
X01093*
Y00043*
X01127*
Y0008*
X01126*
Y00086*
X0113Y0009*
X01131Y00092*
X01135Y00093*
X01137Y00093*
X01137Y00092*
X01141Y0009*
Y0008*
X0114*
Y00043*
X01174*
Y0008*
X01173*
Y00087*
X01175Y00089*
X01177Y00091*
X01179Y00092*
X01182Y00092*
Y00092*
X01187Y00089*
Y00062*
X01187Y00062*
Y00043*
X01221*
Y0008*
X0122*
Y0009*
X0122Y0009*
X01221Y00092*
X01225Y00093*
X01227Y00092*
X01227Y00092*
X01233Y00088*
X01235Y00088*
Y00062*
X01235Y00062*
Y00043*
X01268*
Y0008*
X01268*
Y00118*
X01271Y00123*
X01272Y0013*
X01271Y00136*
X01267Y00142*
X01261Y00146*
X01255Y00147*
X01248Y00146*
X01242Y00142*
X01238Y00136*
X01237Y0013*
X01238Y00126*
X01237Y00125*
X01234Y00124*
X01232Y00126*
X01231Y00127*
X01232Y0013*
X01231Y00136*
X01227Y00142*
X01221Y00146*
X01215Y00147*
X01208Y00146*
X01202Y00142*
X01198Y00136*
X01197Y0013*
X01198Y00126*
X01195Y00122*
X01194Y00122*
X01188Y00121*
X01187Y0012*
X0118Y00121*
X0118Y00122*
X01181Y00123*
X01182Y0013*
X01181Y00136*
X01177Y00142*
X01171Y00146*
X01165Y00147*
X01158Y00146*
X01152Y00142*
X01148Y00136*
X01147Y0013*
X01148Y00127*
X01144Y00121*
X01143Y00121*
X01142Y0012*
X01135Y00121*
X01135Y00122*
X01136Y00123*
X01137Y0013*
X01136Y00136*
X01132Y00142*
X01126Y00146*
X0112Y00147*
X01113Y00146*
X01107Y00142*
X01103Y00136*
X01102Y0013*
X01103Y00127*
X01099Y00121*
X01098Y00121*
X01092Y00117*
X01089Y00111*
X01088Y00111*
X01087Y00107*
X01087*
X01083Y00108*
Y00119*
X01086Y00123*
X01087Y0013*
X01086Y00136*
X01082Y00142*
X01076Y00146*
X0107Y00147*
X01063Y00146*
X01057Y00142*
X01053Y00136*
X01052Y0013*
X01053Y00127*
X01049Y00121*
X01048Y00121*
X01042Y00117*
X01039Y00111*
X01038Y00111*
X01037Y00107*
X01037*
X01033Y00108*
Y00119*
X01036Y00123*
X01037Y0013*
X01036Y00136*
X01032Y00142*
X01026Y00146*
X0102Y00147*
X01013Y00146*
X01007Y00142*
X01003Y00136*
X01002Y0013*
X01002Y00129*
X01Y00126*
X00997Y00129*
X00997Y0013*
X00996Y00136*
X00992Y00142*
X00986Y00146*
X0098Y00147*
X00973Y00146*
X00967Y00142*
X00963Y00136*
X00962Y0013*
X00963Y00126*
X0096Y00122*
X00959Y00122*
X00953Y00121*
X00952Y0012*
X00945Y00121*
X00945Y00122*
X00946Y00123*
X00947Y0013*
X00946Y00136*
X00942Y00142*
X00936Y00146*
X0093Y00147*
X00923Y00146*
X00917Y00142*
X00913Y00136*
X00912Y0013*
X00913Y00127*
X00909Y00121*
X00908Y00121*
X00902Y00117*
X00899Y00111*
X00898Y00111*
X00897Y00107*
X00897*
X00893Y00108*
Y00119*
X00896Y00123*
X00897Y0013*
X00896Y00136*
X00892Y00142*
X00886Y00146*
X0088Y00147*
X00873Y00146*
X00867Y00142*
X00863Y00136*
X00862Y0013*
X00863Y00127*
X00859Y00121*
X00858Y00121*
X00857Y0012*
X0085Y00121*
X0085Y00122*
X00851Y00123*
X00852Y0013*
X00851Y00136*
X00847Y00142*
X00841Y00146*
X00835Y00147*
X00828Y00146*
X00822Y00142*
X00818Y00136*
X00817Y0013*
X00818Y00127*
X00814Y00121*
X00813Y00121*
X00807Y00117*
X00804Y00111*
X00803Y00111*
X00802Y00107*
X00802*
X00798Y00108*
Y00119*
X00801Y00123*
X00802Y0013*
X00801Y00136*
X00797Y00142*
X00791Y00146*
X00785Y00147*
X00778Y00146*
X00772Y00142*
X00768Y00136*
X00767Y0013*
X00768Y00127*
X00764Y00121*
X00763Y00121*
X00762Y0012*
X00755Y00121*
X00755Y00122*
X00756Y00123*
X00757Y0013*
X00756Y00136*
X00752Y00142*
X00746Y00146*
X0074Y00147*
X00733Y00146*
X00727Y00142*
X00723Y00136*
X00722Y0013*
X00723Y00127*
X00719Y00121*
X00718Y00121*
X00717Y0012*
X0071Y00121*
X0071Y00122*
X00711Y00123*
X00712Y0013*
X00711Y00136*
X00707Y00142*
X00701Y00146*
X00695Y00147*
X00688Y00146*
X00682Y00142*
X00678Y00136*
X00677Y0013*
X00678Y00127*
X00674Y00121*
X00673Y00121*
X00667Y00117*
X00664Y00111*
X00663Y00111*
X00662Y00107*
X00662*
X00658Y00108*
Y00124*
X00661Y00128*
X00662Y00135*
X00661Y00141*
X00657Y00147*
X00651Y00151*
X00645Y00152*
G37*
G36*
X00575Y00127D02*
X00568Y00126D01*
X00562Y00122*
X00558Y00116*
X00557Y0011*
X00558Y00103*
X00562Y00097*
X00568Y00093*
X00575Y00092*
X00579Y00093*
X00588Y00085*
X00589Y0008*
Y00043*
X00607*
Y0008*
X00606*
Y00086*
X00605Y00089*
X00604Y00092*
X00591Y00105*
X00592Y0011*
X00591Y00116*
X00587Y00122*
X00581Y00126*
X00575Y00127*
G37*
%LNtime4cm4_modular-3*%
%LPD*%
G36*
X00991Y01472D02*
Y01465D01*
X00992Y01461*
X00992Y01461*
X00988Y01456*
X00987Y0145*
X00988Y01443*
X00992Y01437*
X00998Y01433*
X01005Y01432*
X01011Y01433*
X01017Y01437*
X01021Y01443*
X01022Y0145*
X01021Y01452*
X01025Y01458*
X01026Y01458*
X0103Y01461*
X01033Y01457*
X01033Y01457*
X01032Y0145*
X01033Y01443*
X01037Y01438*
X01042Y01434*
X01049Y01433*
X01056Y01434*
X01061Y01438*
X01065Y01443*
X01066Y0145*
X0107Y01452*
X01073Y0145*
X01074Y01443*
X01078Y01438*
X01083Y01434*
X0109Y01433*
X01097Y01434*
X01102Y01438*
X01106Y01443*
X01107Y01448*
X01112*
X01113Y01443*
X01117Y01438*
X01122Y01434*
X01129Y01433*
X01136Y01434*
X01141Y01438*
X01145Y01443*
X01146Y0145*
X01149Y01452*
X01152Y01451*
X01153Y01444*
X01157Y01438*
X01163Y01434*
X0117Y01433*
X01176Y01434*
X01177Y01435*
X01177Y01435*
X01182Y01432*
X01182Y01431*
X01184Y01429*
X01192Y01421*
X0119Y01416*
X0114*
Y01397*
X0114Y01396*
Y0137*
X01138Y01368*
X01137Y01368*
X01132Y01369*
X01127Y01373*
X01127Y01378*
Y01416*
X01061*
Y01397*
X01061Y01396*
Y01366*
X01059Y01366*
X01057Y01364*
X01053Y01362*
X0105Y01364*
X01047Y01367*
Y01378*
X01048*
Y01416*
X00983*
Y01378*
X00983*
Y01367*
X00978Y01366*
X00977Y01365*
X00973Y01367*
Y01371*
X00972Y01374*
X0097Y01377*
X00969Y01378*
Y01416*
X0092*
Y01388*
X0092Y01387*
X0092Y01386*
Y01378*
X00918Y01374*
X00914Y0137*
X00908Y0137*
X00906Y01371*
X00907Y01375*
X00907Y01375*
X00906Y0138*
Y01396*
X00906Y01397*
Y01416*
X00872*
Y01388*
X00872Y01387*
X00872Y01387*
X00872Y01387*
X00871Y01364*
X00866Y01362*
X00861Y01366*
X00858Y01366*
Y01378*
X00859*
Y01416*
X00809*
Y01397*
X00809Y01396*
Y01366*
X00808Y01366*
X00802Y01362*
X00798Y01356*
X00797Y0135*
X00798Y01343*
X00802Y01337*
X00808Y01333*
X00814Y01332*
X00815Y01332*
X00818Y01328*
X00817Y01325*
X00818Y01318*
X00822Y01312*
X00828Y01308*
X00835Y01307*
X00841Y01308*
X00847Y01312*
X00851Y01318*
X00852Y01325*
X00851Y01328*
X00854Y01332*
X00855Y01332*
X00859Y01333*
X00859Y01333*
X00863Y01329*
X00863Y01329*
X00862Y01325*
X00863Y01318*
X00867Y01312*
X00873Y01308*
X0088Y01307*
X00886Y01308*
X00892Y01312*
X00896Y01318*
X00897Y01325*
X00899Y01328*
X00902Y01325*
X00902Y01325*
X00903Y01318*
X00907Y01312*
X00913Y01308*
X0092Y01307*
X00926Y01308*
X00932Y01312*
X00936Y01318*
X00937Y01325*
X00936Y01329*
X00936Y01329*
X0094Y01333*
X0094Y01333*
X00944Y01332*
X00945Y01332*
X00948Y01328*
X00947Y01325*
X00948Y01318*
X00952Y01312*
X00958Y01308*
X00965Y01307*
X00971Y01308*
X00977Y01312*
X00981Y01318*
X00982Y01325*
X00985Y01327*
X00987Y01325*
X00988Y01318*
X00992Y01312*
X00998Y01308*
X01005Y01307*
X01011Y01308*
X01017Y01312*
X01021Y01318*
X01022Y01325*
X01025Y01328*
X01029Y01325*
X0103Y01318*
X01034Y01312*
X01039Y01308*
X01046Y01307*
X01053Y01308*
X01058Y01312*
X01062Y01318*
X01063Y01325*
X01063Y01326*
X01066Y01331*
X01069Y01331*
X01073Y01327*
X01072Y01325*
X01073Y01318*
X01077Y01312*
X01083Y01308*
X0109Y01307*
X01096Y01308*
X01102Y01312*
X01104Y01316*
X0111*
X01112Y01312*
X01118Y01308*
X01125Y01307*
X01131Y01308*
X01137Y01312*
X01141Y01318*
X01142Y01324*
X01142Y01325*
X01146Y01328*
X01148Y01328*
X01148Y01327*
X01147Y01325*
X01148Y01318*
X01152Y01312*
X01155Y01311*
Y01305*
X01153Y01304*
X01149Y01298*
X01148Y01292*
X01149Y01285*
X01153Y01279*
X01159Y01275*
X01166Y01274*
X01172Y01275*
X01178Y01279*
X01182Y01285*
X01183Y01292*
X01182Y01296*
X01212Y01326*
X01214Y01329*
X01214Y01332*
Y01332*
Y01358*
X01214Y01361*
X01212Y01364*
X01205Y01371*
Y01378*
X01205*
Y01416*
X0121Y01416*
X01214*
X01219Y01416*
Y01411*
Y01378*
X01234*
Y01347*
X0123Y01347*
X01225Y01343*
X01221Y01337*
X0122Y01331*
X01221Y01324*
X01223Y01321*
Y01282*
X0121Y01269*
X00739*
X00737Y01274*
X00737Y01276*
X00739Y01279*
X00744Y01281*
X00747Y01278*
X00754Y01277*
X0076Y01278*
X00766Y01282*
X0077Y01288*
X00771Y01295*
X0077Y01301*
X00768Y01304*
X00767Y01308*
X00769Y0131*
X00772Y01312*
X00776Y01318*
X00777Y01325*
X00776Y01328*
X0078Y01333*
X00781Y01333*
X00787Y01337*
X00791Y01343*
X00792Y0135*
X00791Y01356*
X00787Y01362*
X00781Y01366*
X0078Y01366*
Y01378*
X00796*
Y01416*
X00729*
X00728Y01416*
X00704*
X00703Y01416*
X00699*
X00699Y01416*
X00683*
X00681Y01421*
X00681Y01422*
X00914*
X00915Y01421*
X00925*
X00928Y01422*
X0093Y01424*
X00935Y01428*
X0094Y01427*
X00946Y01428*
X00952Y01432*
X00956Y01438*
X00957Y01445*
X00956Y01451*
X00953Y01456*
Y0146*
X00956Y01462*
X00958Y01462*
X00963Y01458*
X0097Y01457*
X00976Y01458*
X00982Y01462*
X00986Y01468*
X00986Y01472*
X00991Y01472*
G37*
G36*
X00776Y01499D02*
X00769Y01492D01*
Y01488*
X00765Y01484*
X00763Y01478*
Y01471*
X00765Y01465*
X00769Y01461*
Y01452*
X00756Y01439*
X00712*
X00696Y01454*
X00698Y01459*
X00699Y0146*
X00704Y01465*
X00707Y01471*
Y01478*
X00704Y01484*
X00699Y01489*
X00693Y01492*
X00689*
Y01533*
X00776*
Y01499*
G37*
G36*
X00728Y01361D02*
X00732Y01357D01*
Y0131*
X00732Y01307*
Y01276*
X00725Y01269*
X00707*
X00704Y01273*
Y01411*
X00728*
Y01361*
G37*
G36*
X00699Y01273D02*
X00695Y01269D01*
X00675*
X00669Y01276*
Y01333*
X00674Y01335*
X00679Y0134*
X00682Y01346*
Y01353*
X00679Y01359*
X00674Y01364*
X00673Y01365*
Y01411*
X00699*
Y01273*
G37*
G36*
X00496Y01245D02*
X00493Y01241D01*
X00492Y01235*
X00493Y01228*
X00497Y01222*
X00503Y01218*
X0051Y01217*
X00513Y01218*
X00807Y00924*
X00807Y00921*
X00806Y00919*
X00793*
X00481Y01231*
X00482Y01235*
X00481Y01241*
X00478Y01245*
X0048Y0125*
X00494*
X00496Y01245*
G37*
G36*
X02407Y01462D02*
X0241Y0146D01*
Y01393*
X0233Y01313*
X0233Y01313*
X0233Y01313*
X02326Y01308*
X02325Y01301*
X02325*
Y00823*
X02325*
X02326Y00816*
X0233Y00811*
X0233Y00811*
X02386Y00755*
X02385Y00749*
X02383Y00749*
X02314Y00818*
Y01316*
X02391Y01393*
X02393Y01396*
X02394Y014*
Y0146*
X02397Y01462*
X02399Y01466*
X02405*
X02407Y01462*
G37*
G36*
X02183Y01176D02*
X02186Y01175D01*
Y0075*
X02187Y00746*
X02188Y00744*
X02185Y00741*
X02178Y00748*
Y01174*
X02182Y01177*
X02183Y01176*
G37*
G54D17*
X01416Y0111D02*
D01*
X01417Y0111*
X01417Y0111*
X01418Y0111*
X01418Y0111*
X01419Y0111*
X01419Y0111*
X0142Y0111*
X0142Y01111*
X01421Y01111*
X01421Y01111*
X01422Y01112*
X01422Y01112*
X02337Y01307D02*
D01*
X02336Y01306*
X02336Y01306*
X02336Y01306*
X02336Y01305*
X02335Y01305*
X02335Y01304*
X02335Y01304*
X02335Y01303*
X02335Y01302*
X02335Y01302*
X02335Y01301*
X02335Y01301*
Y00823D02*
D01*
X02335Y00822*
X02335Y00822*
X02335Y00821*
X02335Y00821*
X02335Y0082*
X02335Y0082*
X02335Y00819*
X02336Y00819*
X02336Y00818*
X02336Y00818*
X02337Y00817*
X02337Y00817*
X01437Y00692D02*
D01*
X01438Y00693*
X01438Y00693*
X01438Y00693*
X01439Y00694*
X01439Y00694*
X01439Y00695*
X01439Y00696*
X01439Y00696*
X01439Y00697*
X01439Y00697*
X0144Y00698*
X0144Y00698*
X01321Y0058D02*
D01*
X01322Y0058*
X01322Y0058*
X01323Y0058*
X01323Y0058*
X01324Y0058*
X01324Y0058*
X01325Y0058*
X01325Y00581*
X01326Y00581*
X01326Y00581*
X01327Y00582*
X01327Y00582*
X01323Y00541D02*
D01*
X01323Y00541*
X01324Y00541*
X01324Y00541*
X01325Y00541*
X01325Y00541*
X01326Y00542*
X01326Y00542*
X01327Y00542*
X01327Y00543*
X01328Y00543*
X01328Y00543*
X01328Y00543*
X01467Y00682D02*
D01*
X01468Y00683*
X01468Y00683*
X01468Y00683*
X01469Y00684*
X01469Y00684*
X01469Y00685*
X01469Y00686*
X01469Y00686*
X01469Y00687*
X01469Y00687*
X0147Y00688*
X0147Y00688*
X0026Y00963D02*
D01*
X0026Y00962*
X0026Y00962*
X0026Y00961*
X0026Y00961*
X0026Y0096*
X0026Y0096*
X0026Y00959*
X00261Y00959*
X00261Y00958*
X00261Y00958*
X00262Y00957*
X00262Y00957*
X00308Y0126D02*
D01*
X00307Y01259*
X00307Y01259*
X00306Y01259*
X00306Y01259*
X00305Y01259*
X00305Y01259*
X00304Y01259*
X00304Y01258*
X00303Y01258*
X00303Y01258*
X00302Y01257*
X00302Y01257*
X01422Y01112D02*
X0155Y0124D01*
X02305Y00815D02*
X0239Y0073D01*
X02337Y00817D02*
X02425Y0073D01*
X01233Y01279D02*
Y01331D01*
X01233D02*
X0124Y01338D01*
X02337Y01307D02*
X0242Y0139D01*
X02335Y00823D02*
Y01301D01*
X01233Y01331D02*
X01237D01*
X01233D02*
X01233D01*
X01244Y01337D02*
Y01397D01*
X01214Y0126D02*
X01233Y01279D01*
X00308Y0126D02*
X01214D01*
X00225Y00908D02*
X00227Y00902D01*
X0036Y0077*
X0255Y004D02*
Y00988D01*
X02468Y00318D02*
X0255Y004D01*
X02469Y01069D02*
X0255Y00988D01*
X0113Y0058D02*
X01321D01*
X0144Y00698D02*
Y00935D01*
X01327Y00582D02*
X01437Y00692D01*
X0147Y00688D02*
Y00945D01*
X01131Y00541D02*
X01323D01*
X01328Y00543D02*
X01467Y00682D01*
X0144Y00975D02*
X0147Y00945D01*
X00262Y00957D02*
X00345Y00875D01*
X0026Y00963D02*
Y0116D01*
X00225Y00908D02*
Y0118D01*
X01155Y0111D02*
X01416D01*
X02305Y0132D02*
X02385Y014D01*
X02305Y00815D02*
Y0132D01*
X00815Y0093D02*
X01395D01*
X0144Y00975*
X0051Y01235D02*
X00815Y0093D01*
X0079Y0091D02*
X01415D01*
X0144Y00935*
X00465Y01235D02*
X0079Y0091D01*
X00225Y0118D02*
X00302Y01257D01*
X0164Y00585D02*
Y0086D01*
X0151Y00455D02*
X0164Y00585D01*
X00635Y00455D02*
X0151D01*
X0156Y0116D02*
X0164Y0108D01*
Y0086D02*
Y0108D01*
X02385Y014D02*
Y01475D01*
X0242Y0139D02*
Y01475D01*
X0113Y0054D02*
X01131Y00541D01*
X00405Y00815D02*
X0136D01*
X00345Y00875D02*
X00405Y00815D01*
G54D32*
X00598Y00062D03*
Y00183D03*
X00614Y00062D03*
Y00183D03*
X00629Y00062D03*
Y00183D03*
X00645Y00062D03*
Y00183D03*
X00661Y00062D03*
Y00183D03*
X00677Y00062D03*
Y00183D03*
X00692Y00062D03*
Y00183D03*
X00708Y00062D03*
Y00183D03*
X00724Y00062D03*
Y00183D03*
X0074Y00062D03*
Y00183D03*
X00755Y00062D03*
Y00183D03*
X00771Y00062D03*
Y00183D03*
X00787Y00062D03*
Y00183D03*
X00803Y00062D03*
Y00183D03*
X00818Y00062D03*
Y00183D03*
X00834Y00062D03*
Y00183D03*
X0085Y00062D03*
Y00183D03*
X00866Y00062D03*
Y00183D03*
X00881Y00062D03*
Y00183D03*
X00897Y00062D03*
Y00183D03*
X00913Y00062D03*
Y00183D03*
X00929Y00062D03*
Y00183D03*
X00944Y00062D03*
Y00183D03*
X0096Y00062D03*
Y00183D03*
X00976Y00062D03*
Y00183D03*
X00992Y00062D03*
Y00183D03*
X01007Y00062D03*
Y00183D03*
X01023Y00062D03*
Y00183D03*
X01039Y00062D03*
Y00183D03*
X01055Y00062D03*
Y00183D03*
X0107Y00062D03*
Y00183D03*
X01086Y00062D03*
Y00183D03*
X01102Y00062D03*
Y00183D03*
X01118Y00062D03*
Y00183D03*
X01133Y00062D03*
Y00183D03*
X01149Y00062D03*
Y00183D03*
X01165Y00062D03*
Y00183D03*
X01181Y00062D03*
Y00183D03*
X01196Y00062D03*
Y00183D03*
X01212Y00062D03*
Y00183D03*
X01228Y00062D03*
Y00183D03*
X01244Y00062D03*
Y00183D03*
X01259Y00062D03*
Y00183D03*
X01275Y00062D03*
Y00183D03*
X01291Y00062D03*
Y00183D03*
X01307Y00062D03*
Y00183D03*
X01322Y00062D03*
Y00183D03*
X01338Y00062D03*
Y00183D03*
X01354Y00062D03*
Y00183D03*
X0137Y00062D03*
Y00183D03*
X00598Y01397D03*
Y01518D03*
X00614Y01397D03*
Y01518D03*
X00629Y01397D03*
Y01518D03*
X00645Y01397D03*
Y01518D03*
X00661Y01397D03*
Y01518D03*
X00677Y01397D03*
Y01518D03*
X00692Y01397D03*
Y01518D03*
X00708Y01397D03*
Y01518D03*
X00724Y01397D03*
Y01518D03*
X0074Y01397D03*
Y01518D03*
X00755Y01397D03*
Y01518D03*
X00771Y01397D03*
Y01518D03*
X00787Y01397D03*
Y01518D03*
X00803Y01397D03*
Y01518D03*
X00818Y01397D03*
Y01518D03*
X00834Y01397D03*
Y01518D03*
X0085Y01397D03*
Y01518D03*
X00866Y01397D03*
Y01518D03*
X00881Y01397D03*
Y01518D03*
X00897Y01397D03*
Y01518D03*
X00913Y01397D03*
Y01518D03*
X00929Y01397D03*
Y01518D03*
X00944Y01397D03*
Y01518D03*
X0096Y01397D03*
Y01518D03*
X00976Y01397D03*
Y01518D03*
X00992Y01397D03*
Y01518D03*
X01007Y01397D03*
Y01518D03*
X01023Y01397D03*
Y01518D03*
X01039Y01397D03*
Y01518D03*
X01055Y01397D03*
Y01518D03*
X0107Y01397D03*
Y01518D03*
X01086Y01397D03*
Y01518D03*
X01102Y01397D03*
Y01518D03*
X01118Y01397D03*
Y01518D03*
X01133Y01397D03*
Y01518D03*
X01149Y01397D03*
Y01518D03*
X01165Y01397D03*
Y01518D03*
X01181Y01397D03*
Y01518D03*
X01196Y01397D03*
Y01518D03*
X01212Y01397D03*
Y01518D03*
X01228Y01397D03*
Y01518D03*
X01244Y01397D03*
Y01518D03*
X01259Y01397D03*
Y01518D03*
X01275Y01397D03*
Y01518D03*
X01291Y01397D03*
Y01518D03*
X01307Y01397D03*
Y01518D03*
X01322Y01397D03*
Y01518D03*
X01338Y01397D03*
Y01518D03*
X01354Y01397D03*
Y01518D03*
X0137Y01397D03*
Y01518D03*
G54D54*
X01006Y0136D02*
D01*
X01006Y0136*
X01006Y01359*
X01005Y01359*
X01005Y01358*
X01005Y01358*
X01005Y01358*
X01005Y01357*
X01005Y01357*
X01005Y01357*
X01005Y01356*
X01005Y01356*
X01005Y01356*
X0088Y01386D02*
D01*
X0088Y01386*
X0088Y01386*
X0088Y01386*
X0088Y01386*
X0088Y01386*
X00878Y01352D02*
D01*
X00878Y01351*
X00878Y01351*
X00878Y0135D02*
D01*
Y0135*
Y0135*
X00878Y0135*
Y0135*
X00878Y0135*
X00878*
X00898Y01375D02*
D01*
Y01375*
Y01375*
Y01375*
Y01375*
Y01375*
X01139Y00234D02*
D01*
X01139Y00234*
X01139Y00234*
X01139Y00244D02*
D01*
X01139Y00244*
X01139Y00245*
X01139Y00245*
X01139Y00246*
X01139Y00246*
X01139Y00246*
X01139Y00247*
X01138Y00247*
X01138Y00248*
X01138Y00248*
X01138Y00248*
X01138Y00248*
X01055Y00225D02*
D01*
X01055Y00225*
X01055Y00224*
X01055Y00224*
Y00235D02*
D01*
X01055Y00235*
X01055Y00234*
X01055Y00234*
X01055Y00245D02*
D01*
X01055Y00245*
X01055Y00246*
X01055Y00246*
X01055Y00246*
X01055Y00247*
X01055Y00247*
X01055Y00248*
X01054Y00248*
X01054Y00248*
X01054Y00249*
X01054Y00249*
X01054Y00249*
X01034Y00228D02*
D01*
X01034Y00228*
X01034Y00227*
X01033Y00227*
X01033Y00226*
X01033Y00226*
X01033Y00226*
X01033Y00225*
X01033Y00225*
X01033Y00225*
X01032Y00224*
X01032Y00224*
X01032Y00224*
X01054Y00219D02*
D01*
X01054Y00219*
X01054Y0022*
X01054Y0022*
X01055Y0022*
X01055Y00221*
X01055Y00221*
X01055Y00221*
X01055Y00222*
X01055Y00222*
X01055Y00223*
X01055Y00223*
X01055Y00223*
X01055Y00225D02*
D01*
X01056Y00227*
X01056Y00228*
X01056Y00229*
X01056Y00231*
X01056Y00232*
X01055Y00234*
X01055Y00234*
X01041Y00206D02*
D01*
X0104Y00206*
X0104Y00205*
X0104Y00205*
X0104Y00205*
X01039Y00204*
X01039Y00204*
X01039Y00203*
X01039Y00203*
X01039Y00203*
X01039Y00202*
X01039Y00202*
X01039Y00202*
X00662Y01352D02*
X00665Y0135D01*
X00662Y01352D02*
Y01396D01*
X00645Y01325D02*
Y01359D01*
X01129Y0145D02*
X0113Y01451D01*
Y01485*
X0117Y01451D02*
Y01485D01*
X00977Y01426D02*
X0098Y0143D01*
X00977Y01398D02*
Y01426D01*
X0105Y01451D02*
Y01485D01*
X01049Y0145D02*
X0105Y01451D01*
X0109D02*
Y01483D01*
Y01451D02*
X0109Y0145D01*
X00898Y01351D02*
X00898Y01351D01*
Y01351D02*
Y01351D01*
X00815Y0135D02*
X00817Y01352D01*
X00855Y0135D02*
Y01354D01*
X00985Y0135D02*
Y01354D01*
X00992Y01362*
X0085Y01359D02*
X00855Y01354D01*
X00945Y0135D02*
Y01386D01*
X00992Y01362D02*
Y01397D01*
X00817Y01352D02*
Y01396D01*
X0085Y01359D02*
Y01397D01*
X01186Y0135D02*
Y01354D01*
X01378Y01329D02*
X01381Y01326D01*
X01378Y01329D02*
Y01347D01*
X0129Y0135D02*
Y01396D01*
X01181Y0136D02*
X01186Y01354D01*
X0129Y0135D02*
X0129Y0135D01*
X0244Y00675D02*
X02495Y0073D01*
X01201Y01293D02*
X01202Y01294D01*
Y01311*
X01217Y01326*
Y01362*
X01212Y01367D02*
X01217Y01362D01*
X01212Y01367D02*
Y01397D01*
X01196Y01368D02*
Y01397D01*
Y01368D02*
X01206Y01358D01*
Y01332D02*
Y01358D01*
X01166Y01292D02*
X01206Y01332D01*
X01212Y01397D02*
X01213Y01396D01*
X0124Y0145D02*
X0125Y0146D01*
X0124Y01448D02*
Y0145D01*
X01229Y01476D02*
X0123Y01475D01*
X01229Y01476D02*
Y01517D01*
X01292Y00101D02*
X01293Y00102D01*
X01305Y00125D02*
X01313Y00117D01*
Y00093D02*
Y00117D01*
X01307Y00087D02*
X01313Y00093D01*
X01292Y00062D02*
Y00101D01*
X01307Y00062D02*
Y00087D01*
X01291Y00062D02*
X01292Y00062D01*
X00802Y01452D02*
Y01517D01*
X008Y0145D02*
X00802Y01452D01*
X00845Y0145D02*
Y01454D01*
X00895Y0145D02*
X00896Y01452D01*
Y01517*
X00897Y01518*
X00845Y01454D02*
X0085Y0146D01*
X00914Y01398D02*
Y01415D01*
X00915Y0143D02*
X00915Y0143D01*
X0091Y01419D02*
X00914Y01415D01*
X00673Y0143D02*
X00915D01*
X00915Y0143D02*
X00925D01*
X00913Y01397D02*
X00914Y01398D01*
X00976Y01397D02*
X00977Y01398D01*
X00862Y01419D02*
X0091D01*
X00912Y01398D02*
X00913Y01397D01*
X00925Y0143D02*
X0094Y01445D01*
X00865Y01397D02*
Y01415D01*
X00862Y01419D02*
X00865Y01415D01*
Y01397D02*
X00866Y01397D01*
X00806Y01419D02*
X00862D01*
X00465Y01425D02*
X00668D01*
X00803Y01415D02*
X00806Y01419D01*
X00803Y01397D02*
Y01415D01*
X00668Y01425D02*
X00673Y0143D01*
X00803Y01397D02*
X00803Y01397D01*
X00795Y01358D02*
X00803Y01366D01*
X00795Y01325D02*
Y01358D01*
X00803Y01366D02*
Y01397D01*
X00614Y01367D02*
Y01397D01*
X00593Y01346D02*
X00614Y01367D01*
X00593Y01318D02*
Y01346D01*
X00598Y01378D02*
Y01397D01*
X0057Y0135D02*
X00598Y01378D01*
X01181Y0136D02*
Y01397D01*
X01307Y01361D02*
X0131Y01358D01*
Y01325D02*
Y01358D01*
X01307Y01361D02*
Y01397D01*
X0133Y01302D02*
Y01344D01*
X01329Y01301D02*
X0133Y01302D01*
X01322Y01351D02*
Y01397D01*
Y01351D02*
X0133Y01344D01*
X01287Y01301D02*
Y01303D01*
X0127Y0132D02*
X01287Y01303D01*
X0127Y0132D02*
Y01358D01*
X01275Y01363D02*
Y01397D01*
X01258Y01304D02*
X01259Y01305D01*
Y01362D02*
X01259Y01363D01*
X01259Y01305D02*
Y01362D01*
X01259Y01363D02*
Y01397D01*
X0127Y01358D02*
X01275Y01363D01*
X01338Y01354D02*
Y01397D01*
X01352Y01338D02*
Y0134D01*
X01338Y01354D02*
X01352Y0134D01*
X01354Y0137D02*
X01378Y01347D01*
X01354Y0137D02*
Y01397D01*
X0107Y01518D02*
X0107Y01518D01*
X0107Y01475D02*
Y01518D01*
X0107Y01475D02*
X0107Y01475D01*
X01305Y00125D02*
Y0013D01*
X0134D02*
X0134Y0013D01*
X01339Y00163D02*
X0134Y00163D01*
X01339Y00163D02*
Y00182D01*
X01338Y00183D02*
X01339Y00182D01*
X0134Y0013D02*
Y00163D01*
X00885Y00094D02*
Y0012D01*
X0088Y00125D02*
Y0013D01*
Y00125D02*
X00885Y0012D01*
X0074Y0131D02*
Y01397D01*
Y0131D02*
X00754Y01297D01*
Y01295D02*
Y01297D01*
X00755Y01364D02*
Y01397D01*
Y0136D02*
Y01364D01*
X00755Y01335D02*
X0076Y01329D01*
X00755Y01335D02*
Y01363D01*
X0076Y01325D02*
Y01329D01*
X00755Y01363D02*
X00755Y01364D01*
X00835Y01325D02*
Y01359D01*
X00834Y0136D02*
Y01397D01*
Y0136D02*
X00835Y01359D01*
X00976Y01486D02*
Y01518D01*
X0097Y01479D02*
X00976Y01486D01*
X0097Y01475D02*
Y01479D01*
X0094Y01449D02*
X00944Y01454D01*
Y01518*
X0094Y01445D02*
Y01449D01*
X01165Y0115D02*
X01395D01*
X0143Y01185D02*
Y01395D01*
X01395Y0115D02*
X0143Y01185D01*
X014Y01425D02*
X0143Y01395D01*
X012Y01425D02*
X014D01*
X02215Y0076D02*
Y0119D01*
X0228Y00695D02*
X02425D01*
X02215Y0076D02*
X0228Y00695D01*
X02195Y0075D02*
Y0121D01*
X0227Y00675D02*
X0244D01*
X02195Y0075D02*
X0227Y00675D01*
X0217Y00745D02*
Y0119D01*
X0235Y00565D02*
X0246D01*
X0217Y00745D02*
X0235Y00565D01*
X01135Y00965D02*
Y0112D01*
X01165Y0115*
X0218Y01225D02*
X02195Y0121D01*
X02425Y00695D02*
X0246Y0073D01*
X0215Y01225D02*
X0218D01*
X02136Y01211D02*
X0215Y01225D01*
X02135Y0119D02*
X02136Y01191D01*
Y01211*
X0246Y00565D02*
X02515Y0051D01*
X02245Y0143D02*
X02335Y0152D01*
X02245Y0119D02*
Y0143D01*
X02335Y0152D02*
X0247D01*
X0249Y015*
Y01475D02*
Y015D01*
X01005Y01325D02*
Y01356D01*
X0092Y01325D02*
Y01365D01*
X00929Y01374*
Y01397*
X01006Y0136D02*
X01007Y01361D01*
X00965Y01325D02*
Y01371D01*
X00944Y01397D02*
X00945Y01386D01*
X00928D02*
X00929Y01397D01*
X00898Y01375D02*
X00898Y01351D01*
X00878Y01351D02*
X00878Y0135D01*
X00878Y01352D02*
X0088Y01386D01*
X00878Y0135D02*
X0088Y01325D01*
X00878Y0135D02*
Y0135D01*
X00898Y01375D02*
Y01396D01*
X00646Y01478D02*
X0065Y01474D01*
X00646Y01478D02*
Y01517D01*
X0088Y01386D02*
X00881Y01397D01*
X00928Y01517D02*
X00929Y01518D01*
X00928Y01478D02*
Y01517D01*
X00924Y01475D02*
X00928Y01478D01*
X0119Y01435D02*
X012Y01425D01*
X01208Y01451D02*
Y01465D01*
X0119Y01435D02*
Y01475D01*
X01208Y01451D02*
X0121Y0145D01*
X01024Y0135D02*
Y01396D01*
X01023Y01397D02*
X01024Y01396D01*
Y0135D02*
X01025Y0135D01*
X01354Y00239D02*
X01355Y0024D01*
X01354Y00183D02*
X01354Y00183D01*
Y00239*
X0137Y00062D02*
X0137Y00062D01*
X0137Y00062D02*
Y00104D01*
X0137Y00105D02*
X0137Y00104D01*
X01255Y00125D02*
X01259Y0012D01*
X01255Y00125D02*
Y0013D01*
X01259Y00062D02*
Y0012D01*
X01243Y00062D02*
Y00101D01*
Y00062D02*
X01244Y00062D01*
X01239Y00105D02*
X01243Y00101D01*
X01212Y00062D02*
Y00094D01*
X01215Y00096*
Y0013*
X01195Y00062D02*
Y00104D01*
Y00062D02*
X01196Y00062D01*
X01195Y00105D02*
X01195Y00104D01*
X01165Y0009D02*
X0117Y00095D01*
Y0012*
X01165Y00125D02*
Y0013D01*
X01165Y00062D02*
Y0009D01*
X01165Y00125D02*
X0117Y0012D01*
X01149Y00062D02*
X01149Y00062D01*
Y00104*
X0115Y00105*
X01118Y00089D02*
X01125Y00096D01*
Y0012*
X0112Y00125D02*
X01125Y0012D01*
X01118Y00062D02*
Y00089D01*
X0112Y00125D02*
Y0013D01*
X01102Y00062D02*
X01103Y00062D01*
Y00103*
X01105Y00105*
X0107Y00125D02*
X01075Y0012D01*
X0107Y00062D02*
Y0009D01*
X01075Y00095*
Y0012*
X0107Y00125D02*
Y0013D01*
X01055Y00062D02*
Y00104D01*
Y00062D02*
X01055Y00062D01*
X01055Y00105D02*
X01055Y00104D01*
X01023Y00062D02*
Y00092D01*
X01025Y00093*
Y0012*
X0102Y00125D02*
X01025Y0012D01*
X0102Y00125D02*
Y0013D01*
X01005Y00105D02*
X01006Y00103D01*
Y00062D02*
X01007Y00062D01*
X01006Y00062D02*
Y00103D01*
X00976Y00093D02*
X0098Y00096D01*
Y0013*
X00976Y00062D02*
Y00093D01*
X0096Y00105D02*
X0096Y00104D01*
Y00062D02*
X0096Y00062D01*
X0096Y00062D02*
Y00104D01*
X0093Y00125D02*
X00935Y0012D01*
X0093Y00125D02*
Y0013D01*
X00929Y00062D02*
Y0009D01*
X00935Y00095*
Y0012*
X00914Y00104D02*
X00915Y00105D01*
X00913Y00062D02*
X00914Y00062D01*
Y00104*
X00881Y00062D02*
Y00091D01*
X00885Y00094*
X00865Y00105D02*
X00865Y00104D01*
Y00062D02*
X00866Y00062D01*
X00865Y00062D02*
Y00104D01*
X00834Y0009D02*
X0084Y00095D01*
Y0012*
X00835Y00125D02*
Y0013D01*
X00834Y00062D02*
Y0009D01*
X00835Y00125D02*
X0084Y0012D01*
X00819Y00062D02*
Y00104D01*
X00818Y00062D02*
X00819Y00062D01*
Y00104D02*
X0082Y00105D01*
X00785Y00125D02*
X0079Y0012D01*
X00785Y00125D02*
Y0013D01*
X00787Y00062D02*
Y00091D01*
X0079Y00094*
Y0012*
X0077Y00105D02*
X0077Y00104D01*
Y00062D02*
X00771Y00062D01*
X0077Y00062D02*
Y00104D01*
X00745Y00095D02*
Y0012D01*
X0074Y00062D02*
Y0009D01*
X00745Y00095*
X0074Y00125D02*
X00745Y0012D01*
X0074Y00125D02*
Y0013D01*
X00724Y00062D02*
Y00104D01*
X00724Y00062D02*
X00724Y00062D01*
Y00104D02*
X00725Y00105D01*
X007Y00096D02*
Y0012D01*
X00695Y00125D02*
X007Y0012D01*
X00695Y00125D02*
Y0013D01*
X00692Y00062D02*
Y00089D01*
X007Y00096*
X00678Y00062D02*
Y00103D01*
X00677Y00062D02*
X00678Y00062D01*
Y00103D02*
X0068Y00105D01*
X00645Y00093D02*
X0065Y00097D01*
X00645Y0013D02*
Y00135D01*
X00645Y00062D02*
Y00093D01*
X0065Y00097D02*
Y00125D01*
X00645Y0013D02*
X0065Y00125D01*
X00629Y00062D02*
Y00109D01*
X0063Y0011*
X00629Y00062D02*
X00629Y00062D01*
X00598Y00062D02*
Y00086D01*
X00575Y0011D02*
X00598Y00086D01*
X0137Y00183D02*
Y00209D01*
X01378Y00218D02*
Y00223D01*
X0137Y00209D02*
X01378Y00218D01*
X01307Y00214D02*
X0131Y00217D01*
Y00245*
X01305Y0025D02*
X0131Y00245D01*
X01307Y00183D02*
Y00214D01*
X01305Y0025D02*
Y00255D01*
X0129Y00183D02*
X01291Y00183D01*
X0129Y00183D02*
Y00229D01*
X0129Y0023D02*
X0129Y00229D01*
X01259Y00216D02*
X0126Y00216D01*
X01255Y0025D02*
X0126Y00245D01*
X01255Y0025D02*
Y00255D01*
X01259Y00183D02*
Y00216D01*
X0126Y00216D02*
Y00245D01*
X01243Y00184D02*
X01244Y00183D01*
X01243Y00184D02*
Y00226D01*
X0124Y0023D02*
X01243Y00226D01*
X0122Y0022D02*
Y00242D01*
X0121Y00252D02*
X0122Y00242D01*
X0121Y00252D02*
Y00256D01*
X01212Y00183D02*
Y00213D01*
X0122Y0022*
X012Y00208D02*
Y0023D01*
X01196Y00183D02*
X01197Y00183D01*
Y00206*
X012Y00208*
X01165Y00255D02*
X0118Y0024D01*
X01166Y00203D02*
X0118Y00216D01*
X01166Y00184D02*
Y00203D01*
X0118Y00216D02*
Y0024D01*
X01165Y00183D02*
X01166Y00184D01*
X01156Y00213D02*
Y00221D01*
X0116Y00225*
X01149Y00183D02*
Y00206D01*
X01156Y00213*
X0114Y00215D02*
Y00232D01*
X0113Y00256D02*
X01134Y00252D01*
X01139Y00234D02*
Y00244D01*
X01134Y00252D02*
X01138Y00248D01*
X01139Y00234D02*
X0114Y00232D01*
X0113Y00205D02*
X0114Y00215D01*
X01121Y00205D02*
X01126D01*
X01126Y00205D02*
X0113D01*
X01118Y00183D02*
Y00201D01*
X01121Y00205*
X01126D02*
X01126Y00205D01*
X01102Y00207D02*
X0112Y00225D01*
X01102Y00183D02*
Y00207D01*
X01087Y00221D02*
Y00225D01*
X0107Y00183D02*
X01071Y00184D01*
Y00206*
X01087Y00221*
X01067Y00242D02*
X01076Y00251D01*
X01091D02*
X01095Y00255D01*
X01076Y00251D02*
X01091D01*
X01067Y00217D02*
Y00242D01*
X01055Y00204D02*
X01067Y00217D01*
X01055Y00183D02*
Y00204D01*
X01055Y00235D02*
Y00245D01*
Y00223D02*
Y00224D01*
X01055Y00225D02*
D01*
X01041Y00206D02*
X01054Y00219D01*
X01034Y00228D02*
X01036Y0023D01*
X01032Y00215D02*
Y00224D01*
X01044Y00258D02*
X01054Y00249D01*
X01039Y00183D02*
Y00202D01*
X01023Y00206D02*
X01032Y00215D01*
X01023Y00183D02*
Y00206D01*
X01007Y00211D02*
X01016Y0022D01*
Y00244*
X0101Y0025D02*
Y00255D01*
X01007Y00183D02*
Y00211D01*
X0101Y0025D02*
X01016Y00244D01*
X00992Y00183D02*
X00993Y00184D01*
Y00226*
X00996Y0023*
X00975Y00255D02*
X00976Y00253D01*
Y00183D02*
Y00253D01*
X00959Y00184D02*
Y00226D01*
X00956Y0023D02*
X00959Y00226D01*
Y00184D02*
X0096Y00183D01*
X00929D02*
Y00219D01*
X0093Y0022*
Y00255*
X00912Y00184D02*
Y00227D01*
Y00184D02*
X00913Y00183D01*
X0091Y0023D02*
X00912Y00227D01*
X00885Y00217D02*
Y00245D01*
X0088Y0025D02*
X00885Y00245D01*
X0088Y0025D02*
Y00255D01*
X00881Y00183D02*
Y00214D01*
X00885Y00217*
X00865Y00183D02*
Y00229D01*
Y00183D02*
X00866Y00183D01*
X00865Y0023D02*
X00865Y00229D01*
X00834Y00183D02*
Y00213D01*
X0084Y00218*
Y00245*
X00835Y0025D02*
X0084Y00245D01*
X00835Y0025D02*
Y00255D01*
X00819Y00183D02*
Y00229D01*
X00818Y00183D02*
X00819Y00183D01*
Y00229D02*
X0082Y0023D01*
X00787Y00214D02*
X0079Y00217D01*
X00787Y00183D02*
Y00214D01*
X0079Y00217D02*
Y00245D01*
X00785Y0025D02*
X0079Y00245D01*
X00785Y0025D02*
Y00255D01*
X0077Y00184D02*
X00771Y00183D01*
X0077Y00184D02*
Y00229D01*
X0077Y0023D02*
X0077Y00229D01*
X0074Y00213D02*
X00745Y00218D01*
X0074Y0025D02*
Y00255D01*
X0074Y00183D02*
Y00213D01*
X00745Y00218D02*
Y00245D01*
X0074Y0025D02*
X00745Y00245D01*
X00724Y00229D02*
X00725Y0023D01*
X00724Y00183D02*
X00724Y00183D01*
Y00229*
X0069Y0025D02*
Y00255D01*
X00692Y00183D02*
Y00215D01*
X00695Y00217*
Y00245*
X0069Y0025D02*
X00695Y00245D01*
X00676Y00184D02*
Y00228D01*
X00675Y0023D02*
X00676Y00228D01*
Y00184D02*
X00677Y00183D01*
X00645Y00214D02*
X0065Y00218D01*
Y00245*
X00645Y0025D02*
X0065Y00245D01*
X00645Y0025D02*
Y00255D01*
X00645Y00183D02*
Y00214D01*
X00629Y00183D02*
X00629Y00183D01*
Y00229*
X0063Y0023*
X00597Y00184D02*
X00598Y00183D01*
X00597Y00184D02*
Y00242D01*
X00595Y00245D02*
X00597Y00242D01*
X01354Y01485D02*
X0136Y01479D01*
Y01475D02*
Y01479D01*
X01354Y01485D02*
Y01518D01*
X01339Y0145D02*
Y01517D01*
Y0145D02*
X0134Y0145D01*
X01338Y01518D02*
X01339Y01517D01*
X01307Y01487D02*
X01315Y01479D01*
X01307Y01487D02*
Y01518D01*
X01315Y01475D02*
Y01479D01*
X01291Y01518D02*
X01292Y01517D01*
Y01452D02*
Y01517D01*
Y01452D02*
X01295Y0145D01*
X0127Y01475D02*
Y01479D01*
X01259Y0149D02*
X0127Y01479D01*
X01259Y0149D02*
Y01518D01*
X0125Y0146D02*
Y01485D01*
X01244Y0149D02*
X0125Y01485D01*
X01244Y0149D02*
Y01518D01*
X01228D02*
X01229Y01517D01*
X01208Y01465D02*
X0121Y01466D01*
Y01485*
X01212Y01487*
Y01518*
X0119Y01475D02*
Y01479D01*
X01181Y01488D02*
X0119Y01479D01*
X01181Y01488D02*
Y01518D01*
X01165Y01489D02*
X0117Y01485D01*
X01165Y01489D02*
Y01518D01*
X01149D02*
X01149Y01518D01*
Y01475D02*
Y01518D01*
Y01475D02*
X0115Y01475D01*
X0113Y01485D02*
X01133Y01488D01*
Y01518*
X0111Y01475D02*
Y01479D01*
X01102Y01487D02*
Y01518D01*
Y01487D02*
X0111Y01479D01*
X01086Y01486D02*
X0109Y01483D01*
X01086Y01486D02*
Y01518D01*
X0105Y01485D02*
X01055Y0149D01*
Y01518*
X0102Y01475D02*
X01022Y01477D01*
Y01517D02*
X01023Y01518D01*
X01022Y01477D02*
Y01517D01*
X01Y01465D02*
X01001Y01463D01*
Y01453D02*
X01005Y0145D01*
X01001Y01453D02*
Y01463D01*
X01Y01465D02*
Y01485D01*
X01007Y01492*
Y01518*
X00975Y01518D02*
X00976Y01518D01*
X00881Y01486D02*
Y01518D01*
X00875Y01479D02*
X00881Y01486D01*
X00875Y01475D02*
Y01479D01*
X0085Y0146D02*
Y01518D01*
X00825Y01479D02*
X00834Y01489D01*
Y01518*
X00825Y01475D02*
Y01479D01*
X00802Y01517D02*
X00803Y01518D01*
X0078Y01479D02*
X00787Y01487D01*
X0078Y01475D02*
Y01479D01*
X00787Y01487D02*
Y01518D01*
X0129Y01396D02*
X01291Y01397D01*
X01259D02*
X01259Y01397D01*
X01165Y0136D02*
X01166Y01359D01*
X01165Y01325D02*
X01166Y01326D01*
X01165Y0136D02*
Y01397D01*
X01166Y01326D02*
Y01359D01*
X01146Y0135D02*
X01148Y01352D01*
Y01396D02*
X01149Y01397D01*
X01148Y01352D02*
Y01396D01*
X01126Y01326D02*
Y01363D01*
X01118Y01371D02*
X01126Y01363D01*
X01125Y01325D02*
X01126Y01326D01*
X01118Y01371D02*
Y01397D01*
X01102D02*
X01103Y01396D01*
Y01353D02*
Y01396D01*
Y01353D02*
X01106Y0135D01*
X01086Y01328D02*
Y01397D01*
Y01328D02*
X0109Y01325D01*
X01066Y0135D02*
X01069Y01353D01*
Y01396D02*
X0107Y01397D01*
X01069Y01353D02*
Y01396D01*
X01039Y01363D02*
Y01397D01*
Y01363D02*
X01046Y01356D01*
Y01325D02*
Y01356D01*
X01007Y01361D02*
Y01397D01*
X0096Y01375D02*
X00965Y01371D01*
X0096Y01375D02*
Y01397D01*
X00897D02*
X00898Y01396D01*
X00817D02*
X00818Y01397D01*
X00772Y01352D02*
X00775Y0135D01*
X00771Y01397D02*
X00772Y01396D01*
Y01352D02*
Y01396D01*
X00661Y01397D02*
X00662Y01396D01*
X00645Y01359D02*
X00645Y0136D01*
Y01397*
X00629Y01359D02*
Y01397D01*
X00625Y01354D02*
X00629Y01359D01*
X00625Y0135D02*
Y01354D01*
X00677Y01491D02*
X0069Y01479D01*
X00677Y01491D02*
Y01518D01*
X0069Y01475D02*
Y01479D01*
X0067Y01459D02*
Y01483D01*
X00661Y01491D02*
Y01518D01*
Y01491D02*
X0067Y01483D01*
X00645Y01518D02*
X00646Y01517D01*
X00629Y01459D02*
Y01518D01*
X00625Y01454D02*
X00629Y01459D01*
X00625Y0145D02*
Y01454D01*
X00609Y01475D02*
X00613Y01478D01*
Y01517D02*
X00614Y01518D01*
X00613Y01478D02*
Y01517D01*
X0058Y01475D02*
X00598Y01493D01*
Y01518*
G54D58*
X02027Y01437D03*
X00137Y01437D03*
X02027Y00137D03*
X00137D03*
G54D59*
X02589Y01438D03*
X02639Y01338D03*
X02589Y01238D03*
X02639Y01138D03*
X02589Y01038D03*
X02639Y00938D03*
X02589Y00838D03*
X02639Y00738D03*
X02589Y00638D03*
X02639Y00538D03*
X02589Y00438D03*
X02639Y00338D03*
X02589Y00238D03*
X02639Y00138D03*
X02539Y01338D03*
Y01138D03*
X02489Y00838D03*
Y00438D03*
X02539Y00338D03*
Y00138D03*
X02389Y00838D03*
Y00438D03*
X02289D03*
X02339Y00338D03*
X02289Y00238D03*
X02339Y00138D03*
X02189Y00638D03*
X02239Y00538D03*
X02189Y00438D03*
X02239Y00338D03*
X02189Y00238D03*
X02239Y00138D03*
X02139Y00738D03*
Y00338D03*
X02089Y00238D03*
X02139Y00138D03*
X02039Y00938D03*
Y00538D03*
Y00338D03*
X01989Y00238D03*
X01939Y00538D03*
Y00338D03*
X01889Y00238D03*
X01939Y00138D03*
X01839Y00938D03*
X01789Y00838D03*
X01839Y00738D03*
Y00538D03*
Y00338D03*
X01789Y00238D03*
X01739Y00938D03*
X01689Y00838D03*
X01739Y00738D03*
Y00338D03*
X01689Y00238D03*
X01639Y00338D03*
X01589Y00238D03*
X01539Y01338D03*
Y00338D03*
X01489Y00238D03*
X01439Y00338D03*
Y00138D03*
X01289Y01038D03*
X01339Y00338D03*
X01239D03*
X01089Y01038D03*
X01139Y00738D03*
X01089Y00638D03*
X01139Y00338D03*
X01039Y01138D03*
X00989Y01038D03*
X01039Y00738D03*
X00989Y00638D03*
X01039Y00538D03*
Y00338D03*
X00939Y01138D03*
X00889Y01038D03*
X00939Y00738D03*
X00889Y00638D03*
X00939Y00538D03*
Y00338D03*
X00839Y01138D03*
X00789Y01038D03*
X00839Y00738D03*
X00789Y00638D03*
X00839Y00538D03*
Y00338D03*
X00739Y01138D03*
Y00338D03*
X00639Y00938D03*
Y00738D03*
Y00538D03*
Y00338D03*
X00489Y00638D03*
X00539Y00338D03*
X00489Y00238D03*
X00539Y00138D03*
X00389Y01438D03*
X00439Y01138D03*
Y00738D03*
Y00338D03*
X00389Y00238D03*
X00439Y00138D03*
X00289Y01438D03*
X00339Y00938D03*
Y00538D03*
Y00338D03*
X00289Y00238D03*
X00339Y00138D03*
X00239Y01338D03*
X00189Y01238D03*
Y01038D03*
Y00838D03*
X00239Y00738D03*
Y00538D03*
Y00338D03*
X00189Y00238D03*
X00239Y00138D03*
X00139Y01338D03*
X00089Y00638D03*
Y00238D03*
X00495Y01079D03*
X00698Y00955D03*
Y00906D03*
Y00857D03*
Y00759D03*
Y0071D03*
Y00661D03*
Y00612D03*
Y00563D03*
Y00514D03*
X00668Y00426D03*
X00619D03*
X00472D03*
X00423D03*
X00374D03*
X00325D03*
X00276D03*
X00227D03*
X0018Y00442D03*
X00116Y00393D03*
X00198Y00367D03*
X00246Y00373D03*
X00295D03*
X00344D03*
X00393D03*
X00442D03*
X00491D03*
X0054D03*
X00589D03*
X00638D03*
X00687D03*
X00736D03*
X00785D03*
X00834D03*
X00883D03*
X00932D03*
X00981D03*
X0103D03*
X01079D03*
X01128D03*
X01177D03*
X01226D03*
X01275D03*
X01324D03*
X01373D03*
X01422D03*
X01471D03*
X0152D03*
X01569D03*
X01618D03*
X01667D03*
X01716D03*
X01765D03*
X01814D03*
X01863D03*
X01912D03*
X01961D03*
X0201D03*
X02059Y00377D03*
X02104Y00398D03*
X02137Y00434D03*
X02154Y0048D03*
X02156Y00529D03*
Y00578D03*
X02152Y00626D03*
X0213Y0067D03*
X02092Y00702D03*
X02045Y00713D03*
X01877Y00681D03*
X02059Y00658D03*
X02095Y00625D03*
X02103Y00577D03*
Y00528D03*
X02099Y00479D03*
X0207Y00439D03*
X02023Y00426D03*
X01974D03*
X01925D03*
X01876D03*
X01827D03*
X01631D03*
X01582D03*
X01484D03*
X01435D03*
X01386D03*
X01337D03*
X01288D03*
X01141D03*
X01092D03*
X01043D03*
X00994D03*
X00945D03*
X00896D03*
X00847D03*
X00798D03*
X00749Y00427D03*
X00751Y00476D03*
Y00525D03*
Y00574D03*
Y00623D03*
Y00672D03*
Y00721D03*
Y0077D03*
Y00868D03*
Y00917D03*
X00729Y0106D03*
X00692Y01093D03*
X00718Y01311D03*
X00665Y0135D03*
X00645Y01325D03*
X0115Y0143D03*
X0117Y01451D03*
X01129Y0145D03*
X01049D03*
X0107Y0143D03*
X0109Y0145D03*
X0098Y0143D03*
X00898Y01351D03*
X00945Y0135D03*
X00985D03*
X00855D03*
X00815D03*
X01186D03*
X01381Y01326D03*
X0129Y0135D03*
X0155Y0124D03*
X0239Y0073D03*
X02425D03*
X02501Y01256D03*
X02495Y0073D03*
X01237Y01331D03*
X01201Y01293D03*
X01166Y01292D03*
X0123Y01475D03*
X0124Y01448D03*
X01333Y00095D03*
X01293Y00102D03*
X008Y0145D03*
X00845D03*
X00895D03*
X00593Y01318D03*
X0057Y0135D03*
X01258Y01304D03*
X01352Y01338D03*
X01329Y01301D03*
X01287D03*
X0131Y01325D03*
X0107Y01475D03*
X0132Y00154D03*
X01305Y0013D03*
X0128Y00153D03*
X01185Y00152D03*
X01091D03*
X00949Y00151D03*
X009Y0015D03*
X00855D03*
X0088Y0013D03*
X00807Y0015D03*
X00761Y00149D03*
X00717Y00148D03*
X00672Y00148D03*
X00606Y0014D03*
X00719Y01455D03*
X00746D03*
X00775Y0135D03*
X0076Y01325D03*
X00754Y01295D03*
X00684Y01311D03*
Y01284D03*
X00718D03*
X00795Y01325D03*
X0013Y01263D03*
X001D03*
X0007D03*
Y01053D03*
X001D03*
X0013D03*
Y01005D03*
X001D03*
X0007D03*
Y00795D03*
X001D03*
X0013D03*
Y00755D03*
X001D03*
X0007D03*
Y00545D03*
X001D03*
X0013D03*
X0007Y00295D03*
X001D03*
X0013D03*
X0007Y00505D03*
X001D03*
X0013D03*
X0209Y0091D03*
X02Y0064D03*
Y0073D03*
X01675Y00455D03*
X01605D03*
X0129Y00715D03*
X01495Y0099D03*
X0128Y0108D03*
X00375Y0134D03*
X0031Y0077D03*
X0045Y0069D03*
X00375Y0106D03*
X00485Y01035D03*
X0049Y01125D03*
X0045Y00535D03*
X00325Y0134D03*
X01155Y0111D03*
X0217Y0119D03*
X02135D03*
X02245D03*
X02215D03*
X01005Y01325D03*
X0092D03*
X00965D03*
X01135Y00965D03*
X00465Y01235D03*
Y01425D03*
X0094Y01445D03*
X00665Y01449D03*
X0065Y01474D03*
X0051Y01235D03*
X0088Y01325D03*
X00924Y01475D03*
X0097D03*
X0121Y0145D03*
X0036Y0077D03*
X00635Y00455D03*
X0164Y0086D03*
X0156Y0116D03*
X02468Y00318D03*
X02469Y01069D03*
X02385Y01475D03*
X0242D03*
X0249D03*
X0246Y0073D03*
X02515Y0051D03*
X0136Y00815D03*
X00345Y00875D03*
X0026Y0116D03*
X0134Y0013D03*
X01355Y0024D03*
X01378Y00223D03*
X0116Y00225D03*
X01036Y0023D03*
X01046Y01325D03*
X01165D03*
X0113Y0054D03*
Y0058D03*
X0144Y00935D03*
Y00975D03*
X01239Y00105D03*
X01195D03*
X012Y0023D03*
X0121Y00256D03*
X01044Y00258D03*
X0112Y00225D03*
X0113Y00256D03*
X01087Y00225D03*
X01095Y00255D03*
X00956Y0023D03*
X00996D03*
X0101Y00255D03*
X00835Y0013D03*
X00865Y00105D03*
X0082D03*
X00595Y00245D03*
X0137Y00105D03*
X01255Y0013D03*
X01215D03*
X01165D03*
X0115Y00105D03*
X0112Y0013D03*
X01105Y00105D03*
X0107Y0013D03*
X01055Y00105D03*
X0102Y0013D03*
X01005Y00105D03*
X0098Y0013D03*
X0096Y00105D03*
X0093Y0013D03*
X00915Y00105D03*
X00785Y0013D03*
X0077Y00105D03*
X00725D03*
X0074Y0013D03*
X00695D03*
X0068Y00105D03*
X00645Y00135D03*
X0063Y0011D03*
X00575D03*
X01305Y00255D03*
X0129Y0023D03*
X01255Y00255D03*
X0124Y0023D03*
X01165Y00255D03*
X00975D03*
X0093D03*
X0091Y0023D03*
X0088Y00255D03*
X00865Y0023D03*
X00835Y00255D03*
X0082Y0023D03*
X00785Y00255D03*
X0077Y0023D03*
X0074Y00255D03*
X00725Y0023D03*
X0069Y00255D03*
X00675Y0023D03*
X00645Y00255D03*
X0063Y0023D03*
X0244Y0063D03*
Y01375D03*
X0247Y0051D03*
X02435D03*
X02395D03*
X02465Y01255D03*
X02425D03*
X0238D03*
X01025Y0135D03*
X01146D03*
X01066D03*
X01106D03*
X01315Y01475D03*
X0127D03*
X0119D03*
X0111D03*
X00609D03*
X0069Y01475D03*
X0058Y01475D03*
X00625Y0145D03*
X0136Y01475D03*
X0134Y0145D03*
X01295D03*
X0115Y01475D03*
X0102D03*
X01005Y0145D03*
X00825Y01475D03*
X00875D03*
X0078D03*
X01125Y01325D03*
X0109D03*
X00835D03*
X00625Y0135D03*
G54D60*
X0131Y0099D03*
X01455Y00525D03*
X0175Y00635D03*
X0132Y00505D03*
M02*