%FSTAX23Y23*%
%MOIN*%
%SFA1B1*%

%IPPOS*%
%ADD59C,0.024000*%
%ADD60C,0.048000*%
%ADD61C,0.020000*%
%LNtime4cm4_modular-1*%
%LPD*%
G36*
X02627Y01552D02*
X02645Y01546D01*
X02662Y01537*
X02677Y01525*
X02689Y0151*
X02698Y01494*
X02704Y01475*
X02705Y01455*
Y00119*
X02704Y00099*
X02698Y0008*
X02689Y00063*
X02677Y00049*
X02662Y00036*
X02645Y00027*
X02627Y00022*
X02607Y0002*
X00119*
X00099Y00022*
X0008Y00027*
X00063Y00036*
X00049Y00049*
X00036Y00063*
X00027Y0008*
X00022Y00099*
X0002Y00119*
Y01455*
X00022Y01475*
X00027Y01494*
X00036Y0151*
X00049Y01525*
X00063Y01537*
X0008Y01546*
X00099Y01552*
X00119Y01554*
X02607*
X02627Y01552*
G37*
%LNtime4cm4_modular-2*%
%LPC*%
G36*
X0242Y01492D02*
X02413Y01491D01*
X02407Y01487*
X02405Y01483*
X02399*
X02397Y01487*
X02391Y01491*
X02385Y01492*
X02378Y01491*
X02372Y01487*
X02368Y01481*
X02367Y01475*
X02368Y01468*
X02372Y01462*
X02378Y01458*
X02385Y01457*
X02391Y01458*
X02397Y01462*
X02399Y01466*
X02405*
X02407Y01462*
X02413Y01458*
X0242Y01457*
X02426Y01458*
X02432Y01462*
X02436Y01468*
X02437Y01475*
X02436Y01481*
X02432Y01487*
X02426Y01491*
X0242Y01492*
G37*
G36*
X0123Y01493D02*
X01223Y01491D01*
X01217Y01488*
X01213Y01482*
X01212Y01475*
X01209Y01472*
X01207Y01475*
X01206Y01481*
X01202Y01487*
X01196Y01491*
X0119Y01492*
X01183Y01491*
X01177Y01487*
X01173Y01481*
X01172Y01475*
X0117Y01473*
X01167Y01475*
X01166Y01481*
X01162Y01487*
X01156Y01491*
X0115Y01492*
X01143Y01491*
X01137Y01487*
X01133Y01481*
X01132Y01476*
X0113Y01473*
X01128Y01472*
X01126Y01472*
X01127Y01475*
X01126Y01481*
X01122Y01487*
X01116Y01491*
X0111Y01492*
X01103Y01491*
X01097Y01487*
X01093Y01481*
X01092Y01475*
X0109Y01473*
X01087Y01475*
X01086Y01481*
X01082Y01487*
X01076Y01491*
X0107Y01492*
X01063Y01491*
X01057Y01487*
X01053Y01481*
X01052Y01475*
X01053Y01472*
X01049Y01467*
X01042Y01466*
X01039Y01464*
X01035Y01467*
X01036Y01468*
X01037Y01475*
X01036Y01481*
X01032Y01487*
X01026Y01491*
X0102Y01492*
X01013Y01491*
X01007Y01487*
X01003Y01481*
X01002Y01475*
X01003Y01472*
X00999Y01466*
X00998Y01466*
X00992Y01462*
X00988Y01456*
X00987Y0145*
X00983Y01446*
X0098Y01447*
X00974Y01446*
X00968Y01442*
X00964Y01436*
X00963Y0143*
X00964Y01423*
X00965Y01422*
X00962Y01418*
X00804*
X00793Y01429*
X00795Y01433*
X008Y01433*
X00806Y01434*
X00812Y01438*
X00816Y01443*
X00817Y0145*
X00816Y01454*
X00816Y01454*
X0082Y01458*
X00825Y01457*
X00828Y01453*
X00827Y0145*
X00828Y01443*
X00832Y01438*
X00838Y01434*
X00845Y01433*
X00851Y01434*
X00857Y01438*
X00861Y01443*
X00862Y0145*
X00861Y01457*
X0086Y01458*
X00863Y01462*
X00868Y01458*
X00875Y01457*
X00878Y01453*
X00877Y0145*
X00878Y01443*
X00882Y01438*
X00888Y01434*
X00895Y01433*
X00901Y01434*
X00907Y01438*
X00911Y01443*
X00912Y0145*
X00911Y01457*
X0091Y01458*
X00913Y01462*
X00918Y01458*
X00922Y01458*
X00924Y01452*
X00923Y01451*
X00922Y01445*
X00923Y01438*
X00927Y01432*
X00933Y01428*
X0094Y01427*
X00946Y01428*
X00952Y01432*
X00956Y01438*
X00957Y01445*
X00956Y01451*
X00952Y01457*
X00946Y01461*
X00942Y01461*
X0094Y01467*
X0094Y01468*
X00942Y01475*
X0094Y01481*
X00937Y01487*
X00931Y01491*
X00924Y01492*
X00918Y01491*
X00912Y01487*
X00908Y01481*
X00907Y01475*
X00908Y01468*
X00909Y01467*
X00906Y01463*
X00901Y01466*
X00895Y01467*
X00891Y01472*
X00892Y01475*
X00891Y01481*
X00887Y01487*
X00881Y01491*
X00875Y01492*
X00868Y01491*
X00862Y01487*
X00858Y01481*
X00857Y01475*
X00858Y01468*
X0086Y01466*
X00856Y01463*
X00851Y01466*
X00845Y01467*
X00841Y01472*
X00842Y01475*
X00841Y01481*
X00837Y01487*
X00831Y01491*
X00825Y01492*
X00818Y01491*
X00812Y01487*
X00808Y01481*
X00807Y01475*
X00808Y0147*
X00808Y0147*
X00804Y01467*
X00799Y01467*
X00796Y01472*
X00797Y01475*
X00796Y01481*
X00792Y01487*
X00786Y01491*
X0078Y01492*
X00773Y01491*
X00767Y01487*
X00763Y01481*
X00762Y01475*
X00763Y01468*
X00767Y01462*
X00773Y01458*
X0078Y01457*
X00783Y01453*
X00782Y0145*
X00783Y01446*
X00778Y01443*
X00762Y0146*
X00762Y01461*
X00758Y01467*
X00752Y01471*
X00746Y01472*
X00739Y01471*
X00738Y0147*
X00726*
X00725Y01471*
X00719Y01472*
X00712Y01471*
X00711Y0147*
X00707Y01473*
X00707Y01475*
X00706Y01481*
X00702Y01487*
X00696Y01491*
X0069Y01492*
X00683Y01491*
X00677Y01487*
X00673Y01481*
X00672Y01475*
X00672Y01474*
X00669Y01471*
X00667Y01474*
X00667Y01474*
X00666Y01481*
X00662Y01486*
X00656Y0149*
X0065Y01492*
X00643Y0149*
X00637Y01486*
X00633Y01481*
X00632Y01474*
X00633Y01472*
X00633Y01471*
X0063Y01469*
X00627Y0147*
X00626Y01471*
X00627Y01475*
X00625Y01481*
X00622Y01487*
X00616Y01491*
X00609Y01492*
X00603Y01491*
X00598Y01487*
X00596Y01486*
X00593*
X00591Y01487*
X00586Y01491*
X0058Y01492*
X00573Y01491*
X00567Y01487*
X00563Y01481*
X00562Y01475*
X00563Y01468*
X00567Y01462*
X00573Y01458*
X0058Y01457*
X00586Y01458*
X00591Y01462*
X00593Y01463*
X00596*
X00598Y01462*
X00603Y01458*
X00608Y01457*
X00608Y01456*
X00607Y0145*
X00608Y01443*
X00612Y01437*
X00618Y01433*
X00625Y01432*
X00631Y01433*
X00637Y01437*
X00641Y01443*
X00642Y0145*
X00642Y0145*
X00645Y01453*
X00647Y01449*
X00649Y01443*
X00652Y01437*
X00658Y01433*
X00665Y01432*
X00671Y01433*
X00677Y01437*
X00681Y01443*
X00682Y01449*
X00681Y01454*
X00681Y01454*
X00685Y01458*
X00685Y01458*
X0069Y01457*
X00696Y01459*
X00697Y01459*
X00701Y01456*
X00701Y01455*
X00702Y01448*
X00706Y01442*
X00712Y01438*
X00719Y01437*
X00725Y01438*
X00726Y01439*
X00738*
X00739Y01438*
X0074Y01438*
X00781Y01397*
X00779Y01393*
X00741*
X00735Y01392*
X0073Y01388*
X00686Y01345*
X00681Y01347*
X00682Y0135*
X00681Y01356*
X00677Y01362*
X00671Y01366*
X00665Y01367*
X00658Y01366*
X00652Y01362*
X00648Y01356*
X00647Y0135*
X00645Y01347*
X00642Y0135*
X00641Y01356*
X00637Y01362*
X00631Y01366*
X00625Y01367*
X00618Y01366*
X00612Y01362*
X00608Y01356*
X00607Y0135*
X00608Y01343*
X00612Y01337*
X00618Y01333*
X00624Y01332*
X00625Y01332*
X00628Y01328*
X00627Y01325*
X00628Y01318*
X00632Y01312*
X00638Y01308*
X00645Y01307*
X00651Y01308*
X00657Y01312*
X00661Y01318*
X00662Y01325*
X00661Y01327*
X00665Y01331*
X00667Y01331*
X00669Y01329*
X0067Y01327*
X00669Y01321*
Y01319*
X00667Y01317*
X00666Y01311*
X00667Y01304*
X00668Y01303*
Y01291*
X00667Y0129*
X00666Y01284*
X00667Y01277*
X00671Y01271*
X00677Y01267*
X00684Y01266*
X0069Y01267*
X00696Y01271*
X007Y01277*
X00701Y01284*
X007Y0129*
X00699Y01291*
Y01303*
X007Y01304*
X00701Y01311*
X007Y01315*
X00747Y01362*
X00757*
X00759Y01357*
X00758Y01356*
X00757Y0135*
X00758Y01346*
X00754Y01341*
X00753Y01341*
X00747Y01337*
X00744Y01331*
X00742Y01325*
X00744Y01318*
X00745Y01315*
X00747Y01311*
X00744Y01309*
X00741Y01307*
X00737Y01301*
X00736Y01295*
X00737Y01288*
X00741Y01282*
X00747Y01278*
X00754Y01277*
X0076Y01278*
X00766Y01282*
X0077Y01288*
X00771Y01295*
X0077Y01301*
X00768Y01304*
X00767Y01308*
X00769Y0131*
X00772Y01312*
X00774Y01316*
X0078*
X00782Y01312*
X00788Y01308*
X00795Y01307*
X00801Y01308*
X00807Y01312*
X00811Y01318*
X00812Y01325*
X00815Y01327*
X00817Y01325*
X00818Y01318*
X00822Y01312*
X00828Y01308*
X00835Y01307*
X00841Y01308*
X00847Y01312*
X00851Y01318*
X00852Y01325*
X00851Y01328*
X00854Y01332*
X00855Y01332*
X00859Y01333*
X00859Y01333*
X00863Y01329*
X00863Y01329*
X00862Y01325*
X00863Y01318*
X00867Y01312*
X00873Y01308*
X0088Y01307*
X00886Y01308*
X00892Y01312*
X00896Y01318*
X00897Y01325*
X00899Y01328*
X00902Y01325*
X00902Y01325*
X00903Y01318*
X00907Y01312*
X00913Y01308*
X0092Y01307*
X00926Y01308*
X00932Y01312*
X00936Y01318*
X00937Y01325*
X00936Y01329*
X00936Y01329*
X0094Y01333*
X0094Y01333*
X00944Y01332*
X00945Y01332*
X00948Y01328*
X00947Y01325*
X00948Y01318*
X00952Y01312*
X00958Y01308*
X00965Y01307*
X00971Y01308*
X00977Y01312*
X00981Y01318*
X00982Y01325*
X00985Y01327*
X00987Y01325*
X00988Y01318*
X00992Y01312*
X00998Y01308*
X01005Y01307*
X01011Y01308*
X01017Y01312*
X01021Y01318*
X01022Y01325*
X01025Y01328*
X01029Y01325*
X0103Y01318*
X01034Y01312*
X01039Y01308*
X01046Y01307*
X01053Y01308*
X01058Y01312*
X01062Y01318*
X01063Y01325*
X01063Y01326*
X01066Y01331*
X01069Y01331*
X01073Y01327*
X01072Y01325*
X01073Y01318*
X01077Y01312*
X01083Y01308*
X0109Y01307*
X01096Y01308*
X01102Y01312*
X01104Y01316*
X0111*
X01112Y01312*
X01118Y01308*
X01125Y01307*
X01131Y01308*
X01137Y01312*
X01141Y01318*
X01142Y01324*
X01142Y01325*
X01146Y01328*
X01148Y01328*
X01148Y01327*
X01147Y01325*
X01148Y01318*
X01152Y01312*
X01155Y01311*
Y01305*
X01153Y01304*
X01149Y01298*
X01148Y01292*
X01149Y01285*
X01153Y01279*
X01159Y01275*
X01166Y01274*
X01172Y01275*
X01178Y01279*
X0118Y01283*
X01186Y01284*
X01186Y01283*
X01188Y0128*
X01194Y01276*
X01201Y01275*
X01207Y01276*
X01213Y0128*
X01217Y01286*
X01218Y01293*
X01217Y01299*
X01213Y01305*
X01207Y01309*
X01201Y0131*
X01194Y01309*
X01188Y01305*
X01186Y01301*
X0118Y013*
X0118Y01301*
X01178Y01304*
X01175Y01305*
Y01311*
X01177Y01312*
X01181Y01318*
X01182Y01325*
X01181Y01328*
X01185Y01332*
X01186Y01332*
X01193Y01333*
X01198Y01337*
X01202Y01343*
X01203Y0135*
X01202Y01356*
X01201Y01357*
X01204Y01362*
X01272*
X01274Y01357*
X01273Y01356*
X01272Y0135*
X01273Y01343*
X01277Y01337*
X01283Y01333*
X01289Y01332*
X0129Y01332*
X01293Y01328*
X01292Y01325*
X01293Y01322*
X01288Y01317*
X01287Y01318*
X0128Y01317*
X01274Y01313*
X01272*
X0127Y01316*
X01264Y0132*
X01258Y01321*
X01257Y01321*
X01256Y01322*
X01253Y01325*
X01254Y01331*
X01253Y01337*
X01249Y01343*
X01244Y01347*
X01237Y01348*
X0123Y01347*
X01225Y01343*
X01221Y01337*
X0122Y01331*
X01221Y01324*
X01225Y01318*
X0123Y01314*
X01237Y01313*
X01238Y01313*
X01239Y01312*
X01241Y01309*
X0124Y01304*
X01241Y01297*
X01245Y01291*
X01251Y01287*
X01258Y01286*
X01264Y01287*
X0127Y01291*
X01272*
X01274Y01288*
X0128Y01284*
X01287Y01283*
X01293Y01284*
X01299Y01288*
X01303Y01294*
X01304Y01301*
X01308Y01304*
X01311Y01301*
X01312Y01294*
X01316Y01288*
X01322Y01284*
X01329Y01283*
X01335Y01284*
X01341Y01288*
X01345Y01294*
X01346Y01301*
X01345Y01307*
X01341Y01313*
X01335Y01317*
X01329Y01318*
X01326Y01323*
X01327Y01325*
X01326Y01331*
X01322Y01337*
X01316Y01341*
X0131Y01342*
X01309Y01342*
X01306Y01346*
X01307Y0135*
X01306Y01356*
X01305Y01357*
X01307Y01362*
X01422*
X01504Y01281*
X01509Y01277*
X01515Y01276*
X02381*
X02408Y01249*
X02408Y01248*
X02409Y01247*
Y00941*
X02337Y00868*
X02333Y00863*
X02332Y00858*
Y00659*
X02333Y00653*
X02337Y00648*
X02419Y00565*
Y00517*
X02418Y00516*
X02417Y0051*
X02418Y00503*
X02422Y00497*
X02428Y00493*
X02435Y00492*
X02441Y00493*
X02447Y00497*
X02449Y00501*
X02455*
X02457Y00497*
X02463Y00493*
X0247Y00492*
X02476Y00493*
X02482Y00497*
X02486Y00503*
X02487Y0051*
X02486Y00516*
X02485Y00517*
Y0055*
X02537Y00603*
X02541Y00608*
X02542Y00614*
Y01086*
X02541Y01091*
X02537Y01096*
X0248Y01154*
Y01247*
X02481Y01248*
X02481Y01248*
X02482Y01248*
X02486Y01248*
X02489Y01244*
X02494Y0124*
X02501Y01239*
X02508Y0124*
X02513Y01244*
X02517Y01249*
X02518Y01256*
X02517Y01263*
X02513Y01268*
X02508Y01272*
X02501Y01273*
X02494Y01272*
X02489Y01268*
X02486Y01263*
X02483Y01264*
X02481Y01264*
Y01287*
X02481Y01289*
X0248Y01294*
X02476Y01299*
X02431Y01344*
X02426Y01348*
X02421Y01349*
X01589*
X01525Y01413*
X0152Y01417*
X01514Y01418*
X01167*
X01165Y01422*
X01166Y01423*
X01167Y01429*
X0117Y01433*
X01176Y01434*
X01182Y01438*
X01186Y01444*
X01187Y01451*
X01189Y01452*
X01192Y0145*
X01193Y01443*
X01197Y01437*
X01203Y01433*
X0121Y01432*
X01216Y01433*
X01222Y01437*
X01222Y01437*
X01227*
X01228Y01436*
X01233Y01432*
X0124Y01431*
X01247Y01432*
X01252Y01436*
X01256Y01442*
X01257Y01448*
X01256Y01455*
X01252Y01461*
X01247Y01464*
X01246Y0147*
X01247Y01475*
X01246Y01482*
X01242Y01488*
X01236Y01491*
X0123Y01493*
G37*
G36*
X0136Y01492D02*
X01353Y01491D01*
X01347Y01487*
X01343Y01481*
X01342Y01475*
X01343Y01471*
X0134Y01467*
X01339Y01467*
X01335Y01466*
X01335Y01466*
X01331Y0147*
X01331Y0147*
X01332Y01475*
X01331Y01481*
X01327Y01487*
X01321Y01491*
X01315Y01492*
X01308Y01491*
X01302Y01487*
X01298Y01481*
X01297Y01475*
X01298Y01471*
X01295Y01467*
X01294Y01467*
X0129Y01466*
X0129Y01466*
X01286Y0147*
X01286Y0147*
X01287Y01475*
X01286Y01481*
X01282Y01487*
X01276Y01491*
X0127Y01492*
X01263Y01491*
X01257Y01487*
X01253Y01481*
X01252Y01475*
X01253Y01468*
X01257Y01462*
X01263Y01458*
X0127Y01457*
X01274Y01458*
X01274Y01458*
X01278Y01454*
X01278Y01454*
X01277Y0145*
X01278Y01443*
X01282Y01437*
X01288Y01433*
X01295Y01432*
X01301Y01433*
X01307Y01437*
X01311Y01443*
X01312Y0145*
X01311Y01453*
X01314Y01457*
X01315Y01457*
X01319Y01458*
X01319Y01458*
X01323Y01454*
X01323Y01454*
X01322Y0145*
X01323Y01443*
X01327Y01437*
X01333Y01433*
X0134Y01432*
X01346Y01433*
X01352Y01437*
X01356Y01443*
X01357Y0145*
X01356Y01453*
X01359Y01457*
X0136Y01457*
X01366Y01458*
X01372Y01462*
X01376Y01468*
X01377Y01475*
X01376Y01481*
X01372Y01487*
X01366Y01491*
X0136Y01492*
G37*
G36*
X0249D02*
X02483Y01491D01*
X02477Y01487*
X02473Y01481*
X02472Y01475*
X02473Y01468*
X02477Y01462*
X02483Y01458*
X0249Y01457*
X02496Y01458*
X02502Y01462*
X02506Y01468*
X02507Y01475*
X02506Y01481*
X02502Y01487*
X02496Y01491*
X0249Y01492*
G37*
G36*
X0097D02*
X00963Y01491D01*
X00957Y01487*
X00953Y01481*
X00952Y01475*
X00953Y01468*
X00957Y01462*
X00963Y01458*
X0097Y01457*
X00976Y01458*
X00982Y01462*
X00986Y01468*
X00987Y01475*
X00986Y01481*
X00982Y01487*
X00976Y01491*
X0097Y01492*
G37*
G36*
X02589Y01455D02*
X02583Y01454D01*
X02577Y0145*
X02573Y01445*
X02572Y01438*
X02573Y01431*
X02577Y01426*
X02583Y01422*
X02589Y01421*
X02596Y01422*
X02602Y01426*
X02605Y01431*
X02607Y01438*
X02605Y01445*
X02602Y0145*
X02596Y01454*
X02589Y01455*
G37*
G36*
X00389D02*
X00383Y01454D01*
X00377Y0145*
X00373Y01445*
X00372Y01438*
X00373Y01431*
X00377Y01426*
X00383Y01422*
X00389Y01421*
X00396Y01422*
X00402Y01426*
X00405Y01431*
X00407Y01438*
X00405Y01445*
X00402Y0145*
X00396Y01454*
X00389Y01455*
G37*
G36*
X00289D02*
X00283Y01454D01*
X00277Y0145*
X00273Y01445*
X00272Y01438*
X00273Y01431*
X00277Y01426*
X00283Y01422*
X00289Y01421*
X00296Y01422*
X00302Y01426*
X00305Y01431*
X00307Y01438*
X00305Y01445*
X00302Y0145*
X00296Y01454*
X00289Y01455*
G37*
G36*
X00465Y01442D02*
X00458Y01441D01*
X00452Y01437*
X00448Y01431*
X00447Y01425*
X00448Y01418*
X00452Y01412*
X00458Y01408*
X00465Y01407*
X00471Y01408*
X00477Y01412*
X00481Y01418*
X00482Y01425*
X00481Y01431*
X00477Y01437*
X00471Y01441*
X00465Y01442*
G37*
G36*
X02027Y01495D02*
X02016Y01494D01*
X02005Y01491*
X01995Y01485*
X01986Y01478*
X01978Y01469*
X01973Y01459*
X0197Y01448*
X01969Y01437*
X0197Y01425*
X01973Y01414*
X01978Y01404*
X01986Y01395*
X01995Y01388*
X02005Y01383*
X02016Y01379*
X02027Y01378*
X02038Y01379*
X02049Y01383*
X0206Y01388*
X02068Y01395*
X02076Y01404*
X02081Y01414*
X02084Y01425*
X02085Y01437*
X02084Y01448*
X02081Y01459*
X02076Y01469*
X02068Y01478*
X0206Y01485*
X02049Y01491*
X02038Y01494*
X02027Y01495*
G37*
G36*
X00137Y01495D02*
X00126Y01494D01*
X00115Y0149*
X00105Y01485*
X00096Y01478*
X00089Y01469*
X00083Y01459*
X0008Y01448*
X00079Y01437*
X0008Y01425*
X00083Y01414*
X00089Y01404*
X00096Y01395*
X00105Y01388*
X00115Y01383*
X00126Y01379*
X00137Y01378*
X00149Y01379*
X0016Y01383*
X0017Y01388*
X00179Y01395*
X00186Y01404*
X00191Y01414*
X00195Y01425*
X00196Y01437*
X00195Y01448*
X00191Y01459*
X00186Y01469*
X00179Y01478*
X0017Y01485*
X0016Y0149*
X00149Y01494*
X00137Y01495*
G37*
G36*
X0244Y01392D02*
X02433Y01391D01*
X02427Y01387*
X02423Y01381*
X02422Y01375*
X02423Y01368*
X02427Y01362*
X02433Y01358*
X0244Y01357*
X02446Y01358*
X02452Y01362*
X02456Y01368*
X02457Y01375*
X02456Y01381*
X02452Y01387*
X02446Y01391*
X0244Y01392*
G37*
G36*
X0057Y01367D02*
X00563Y01366D01*
X00557Y01362*
X00553Y01356*
X00552Y0135*
X00553Y01343*
X00557Y01337*
X00563Y01333*
X0057Y01332*
X00576Y01333*
X00582Y01337*
X00586Y01343*
X00587Y0135*
X00586Y01356*
X00582Y01362*
X00576Y01366*
X0057Y01367*
G37*
G36*
X00375Y01357D02*
X00368Y01356D01*
X00362Y01352*
X00358Y01346*
X00357Y0134*
X00358Y01333*
X00362Y01327*
X00368Y01323*
X00375Y01322*
X00381Y01323*
X00387Y01327*
X00391Y01333*
X00392Y0134*
X00391Y01346*
X00387Y01352*
X00381Y01356*
X00375Y01357*
G37*
G36*
X02639Y01355D02*
X02633Y01354D01*
X02627Y0135*
X02623Y01345*
X02622Y01338*
X02623Y01331*
X02627Y01326*
X02633Y01322*
X02639Y01321*
X02646Y01322*
X02652Y01326*
X02655Y01331*
X02657Y01338*
X02655Y01345*
X02652Y0135*
X02646Y01354*
X02639Y01355*
G37*
G36*
X02539D02*
X02533Y01354D01*
X02527Y0135*
X02523Y01345*
X02522Y01338*
X02523Y01331*
X02527Y01326*
X02533Y01322*
X02539Y01321*
X02546Y01322*
X02552Y01326*
X02555Y01331*
X02557Y01338*
X02555Y01345*
X02552Y0135*
X02546Y01354*
X02539Y01355*
G37*
G36*
X00239D02*
X00233Y01354D01*
X00227Y0135*
X00223Y01345*
X00222Y01338*
X00223Y01331*
X00227Y01326*
X00233Y01322*
X00239Y01321*
X00246Y01322*
X00252Y01326*
X00255Y01331*
X00257Y01338*
X00255Y01345*
X00252Y0135*
X00246Y01354*
X00239Y01355*
G37*
G36*
X00139D02*
X00133Y01354D01*
X00127Y0135*
X00123Y01345*
X00122Y01338*
X00123Y01331*
X00127Y01326*
X00133Y01322*
X00139Y01321*
X00146Y01322*
X00152Y01326*
X00155Y01331*
X00157Y01338*
X00155Y01345*
X00152Y0135*
X00146Y01354*
X00139Y01355*
G37*
G36*
X01352Y01355D02*
X01345Y01354D01*
X01339Y0135*
X01335Y01344*
X01334Y01338*
X01335Y01331*
X01339Y01325*
X01345Y01321*
X01352Y0132*
X01358Y01321*
X0136Y01322*
X01364Y01321*
X01364Y01319*
X01368Y01313*
X01374Y01309*
X01381Y01308*
X01387Y01309*
X01393Y01313*
X01397Y01319*
X01398Y01326*
X01397Y01332*
X01393Y01338*
X01387Y01342*
X01381Y01343*
X01374Y01342*
X01372Y01341*
X01368Y01342*
X01368Y01344*
X01364Y0135*
X01358Y01354*
X01352Y01355*
G37*
G36*
X00593Y01335D02*
X00586Y01334D01*
X0058Y0133*
X00576Y01324*
X00575Y01318*
X00576Y01311*
X0058Y01305*
X00586Y01301*
X00593Y013*
X00599Y01301*
X00605Y01305*
X00609Y01311*
X0061Y01318*
X00609Y01324*
X00605Y0133*
X00599Y01334*
X00593Y01335*
G37*
G36*
X0013Y0128D02*
X00123Y01279D01*
X00118Y01275*
X00116Y01274*
X00113*
X00111Y01275*
X00106Y01279*
X001Y0128*
X00093Y01279*
X00088Y01275*
X00086Y01274*
X00083*
X00081Y01275*
X00076Y01279*
X0007Y0128*
X00063Y01279*
X00057Y01275*
X00053Y01269*
X00052Y01263*
X00053Y01256*
X00057Y0125*
X00063Y01247*
X0007Y01245*
X00076Y01247*
X00082Y0125*
X00082Y01251*
X00087*
X00087Y0125*
X00093Y01247*
X001Y01245*
X00106Y01247*
X00112Y0125*
X00112Y01251*
X00117*
X00117Y0125*
X00123Y01247*
X0013Y01245*
X00136Y01247*
X00142Y0125*
X00146Y01256*
X00147Y01263*
X00146Y01269*
X00142Y01275*
X00136Y01279*
X0013Y0128*
G37*
G36*
X0155Y01257D02*
X01543Y01256D01*
X01537Y01252*
X01533Y01246*
X01532Y0124*
X01533Y01233*
X01537Y01227*
X01543Y01223*
X0155Y01222*
X01556Y01223*
X01562Y01227*
X01566Y01233*
X01567Y0124*
X01566Y01246*
X01562Y01252*
X01556Y01256*
X0155Y01257*
G37*
G36*
X02589Y01255D02*
X02583Y01254D01*
X02577Y0125*
X02573Y01245*
X02572Y01238*
X02573Y01231*
X02577Y01226*
X02583Y01222*
X02589Y01221*
X02596Y01222*
X02602Y01226*
X02605Y01231*
X02607Y01238*
X02605Y01245*
X02602Y0125*
X02596Y01254*
X02589Y01255*
G37*
G36*
X00189D02*
X00183Y01254D01*
X00177Y0125*
X00173Y01245*
X00172Y01238*
X00173Y01231*
X00177Y01226*
X00183Y01222*
X00189Y01221*
X00196Y01222*
X00202Y01226*
X00205Y01231*
X00207Y01238*
X00205Y01245*
X00202Y0125*
X00196Y01254*
X00189Y01255*
G37*
G36*
X0051Y01252D02*
X00503Y01251D01*
X00497Y01247*
X00493Y01241*
X00492Y01235*
X00493Y01228*
X00497Y01222*
X00503Y01218*
X0051Y01217*
X00516Y01218*
X00522Y01222*
X00526Y01228*
X00527Y01235*
X00526Y01241*
X00522Y01247*
X00516Y01251*
X0051Y01252*
G37*
G36*
X00465D02*
X00458Y01251D01*
X00452Y01247*
X00448Y01241*
X00447Y01235*
X00448Y01228*
X00452Y01222*
X00458Y01218*
X00465Y01217*
X00471Y01218*
X00477Y01222*
X00481Y01228*
X00482Y01235*
X00481Y01241*
X00477Y01247*
X00471Y01251*
X00465Y01252*
G37*
G36*
X02245Y01207D02*
X02238Y01206D01*
X02233Y01202*
X02231Y01201*
X02228*
X02226Y01202*
X02221Y01206*
X02215Y01207*
X02208Y01206*
X02202Y01202*
X02198Y01196*
X02197Y0119*
X02198Y01183*
X02202Y01177*
X02208Y01173*
X02215Y01172*
X02221Y01173*
X02226Y01177*
X02228Y01178*
X02231*
X02233Y01177*
X02238Y01173*
X02245Y01172*
X02251Y01173*
X02257Y01177*
X02261Y01183*
X02262Y0119*
X02261Y01196*
X02257Y01202*
X02251Y01206*
X02245Y01207*
G37*
G36*
X0217D02*
X02163Y01206D01*
X02157Y01202*
X02155Y01198*
X02149*
X02147Y01202*
X02141Y01206*
X02135Y01207*
X02128Y01206*
X02122Y01202*
X02118Y01196*
X02117Y0119*
X02118Y01183*
X02122Y01177*
X02128Y01173*
X02135Y01172*
X02141Y01173*
X02147Y01177*
X02149Y01181*
X02155*
X02157Y01177*
X02163Y01173*
X0217Y01172*
X02176Y01173*
X02182Y01177*
X02186Y01183*
X02187Y0119*
X02186Y01196*
X02182Y01202*
X02176Y01206*
X0217Y01207*
G37*
G36*
X0156Y01177D02*
X01553Y01176D01*
X01547Y01172*
X01543Y01166*
X01542Y0116*
X01543Y01153*
X01547Y01147*
X01553Y01143*
X0156Y01142*
X01566Y01143*
X01572Y01147*
X01576Y01153*
X01577Y0116*
X01576Y01166*
X01572Y01172*
X01566Y01176*
X0156Y01177*
G37*
G36*
X0026D02*
X00253Y01176D01*
X00247Y01172*
X00243Y01166*
X00242Y0116*
X00243Y01153*
X00247Y01147*
X00253Y01143*
X0026Y01142*
X00266Y01143*
X00272Y01147*
X00276Y01153*
X00277Y0116*
X00276Y01166*
X00272Y01172*
X00266Y01176*
X0026Y01177*
G37*
G36*
X02639Y01155D02*
X02633Y01154D01*
X02627Y0115*
X02623Y01145*
X02622Y01138*
X02623Y01131*
X02627Y01126*
X02633Y01122*
X02639Y01121*
X02646Y01122*
X02652Y01126*
X02655Y01131*
X02657Y01138*
X02655Y01145*
X02652Y0115*
X02646Y01154*
X02639Y01155*
G37*
G36*
X02539D02*
X02533Y01154D01*
X02527Y0115*
X02523Y01145*
X02522Y01138*
X02523Y01131*
X02527Y01126*
X02533Y01122*
X02539Y01121*
X02546Y01122*
X02552Y01126*
X02555Y01131*
X02557Y01138*
X02555Y01145*
X02552Y0115*
X02546Y01154*
X02539Y01155*
G37*
G36*
X01039D02*
X01033Y01154D01*
X01027Y0115*
X01023Y01145*
X01022Y01138*
X01023Y01131*
X01027Y01126*
X01033Y01122*
X01039Y01121*
X01046Y01122*
X01052Y01126*
X01055Y01131*
X01057Y01138*
X01055Y01145*
X01052Y0115*
X01046Y01154*
X01039Y01155*
G37*
G36*
X00939D02*
X00933Y01154D01*
X00927Y0115*
X00923Y01145*
X00922Y01138*
X00923Y01131*
X00927Y01126*
X00933Y01122*
X00939Y01121*
X00946Y01122*
X00952Y01126*
X00955Y01131*
X00957Y01138*
X00955Y01145*
X00952Y0115*
X00946Y01154*
X00939Y01155*
G37*
G36*
X00839D02*
X00833Y01154D01*
X00827Y0115*
X00823Y01145*
X00822Y01138*
X00823Y01131*
X00827Y01126*
X00833Y01122*
X00839Y01121*
X00846Y01122*
X00852Y01126*
X00855Y01131*
X00857Y01138*
X00855Y01145*
X00852Y0115*
X00846Y01154*
X00839Y01155*
G37*
G36*
X00739D02*
X00733Y01154D01*
X00727Y0115*
X00723Y01145*
X00722Y01138*
X00723Y01131*
X00727Y01126*
X00733Y01122*
X00739Y01121*
X00746Y01122*
X00752Y01126*
X00755Y01131*
X00757Y01138*
X00755Y01145*
X00752Y0115*
X00746Y01154*
X00739Y01155*
G37*
G36*
X00439D02*
X00433Y01154D01*
X00427Y0115*
X00423Y01145*
X00422Y01138*
X00423Y01131*
X00427Y01126*
X00433Y01122*
X00439Y01121*
X00446Y01122*
X00452Y01126*
X00455Y01131*
X00457Y01138*
X00455Y01145*
X00452Y0115*
X00446Y01154*
X00439Y01155*
G37*
G36*
X0049Y01142D02*
X00483Y01141D01*
X00477Y01137*
X00473Y01131*
X00472Y01125*
X00473Y01118*
X00477Y01112*
X00483Y01108*
X0049Y01107*
X00496Y01108*
X00502Y01112*
X00506Y01118*
X00507Y01125*
X00506Y01131*
X00502Y01137*
X00496Y01141*
X0049Y01142*
G37*
G36*
X01155Y01127D02*
X01148Y01126D01*
X01142Y01122*
X01138Y01116*
X01137Y0111*
X01138Y01103*
X01142Y01097*
X01148Y01093*
X01155Y01092*
X01161Y01093*
X01167Y01097*
X01171Y01103*
X01172Y0111*
X01171Y01116*
X01167Y01122*
X01161Y01126*
X01155Y01127*
G37*
G36*
X00692Y01111D02*
X00686Y01109D01*
X0068Y01106*
X00676Y011*
X00675Y01093*
X00676Y01087*
X0068Y01081*
X00686Y01077*
X00692Y01076*
X00699Y01077*
X00705Y01081*
X00709Y01087*
X0071Y01093*
X00709Y011*
X00705Y01106*
X00699Y01109*
X00692Y01111*
G37*
G36*
X0013Y0107D02*
X00123Y01069D01*
X00117Y01065*
X00117Y01064*
X00112*
X00112Y01065*
X00106Y01069*
X001Y0107*
X00093Y01069*
X00088Y01065*
X00086Y01064*
X00083*
X00081Y01065*
X00076Y01069*
X0007Y0107*
X00063Y01069*
X00057Y01065*
X00053Y01059*
X00052Y01053*
X00053Y01046*
X00057Y0104*
X00063Y01037*
X0007Y01035*
X00076Y01037*
X00081Y0104*
X00083Y01041*
X00086*
X00088Y0104*
X00093Y01037*
X001Y01035*
X00106Y01037*
X00112Y0104*
X00112Y01041*
X00117*
X00117Y0104*
X00123Y01037*
X0013Y01035*
X00136Y01037*
X00142Y0104*
X00146Y01046*
X00147Y01053*
X00146Y01059*
X00142Y01065*
X00136Y01069*
X0013Y0107*
G37*
G36*
X0128Y01097D02*
X01273Y01096D01*
X01267Y01092*
X01263Y01086*
X01262Y0108*
X01263Y01073*
X01267Y01067*
X01273Y01063*
X0128Y01062*
X01286Y01063*
X01292Y01067*
X01296Y01073*
X01297Y0108*
X01296Y01086*
X01292Y01092*
X01286Y01096*
X0128Y01097*
G37*
G36*
X00495Y01097D02*
X00488Y01095D01*
X00483Y01092*
X00479Y01086*
X00478Y01079*
X00479Y01073*
X00483Y01067*
X00488Y01063*
X00495Y01062*
X00502Y01063*
X00507Y01067*
X00511Y01073*
X00512Y01079*
X00511Y01086*
X00507Y01092*
X00502Y01095*
X00495Y01097*
G37*
G36*
X00729Y01078D02*
X00722Y01076D01*
X00716Y01073*
X00713Y01067*
X00711Y0106*
X00713Y01054*
X00716Y01048*
X00722Y01044*
X00729Y01043*
X00735Y01044*
X00741Y01048*
X00745Y01054*
X00746Y0106*
X00745Y01067*
X00741Y01073*
X00735Y01076*
X00729Y01078*
G37*
G36*
X00375Y01077D02*
X00368Y01076D01*
X00362Y01072*
X00358Y01066*
X00357Y0106*
X00358Y01053*
X00362Y01047*
X00368Y01043*
X00375Y01042*
X00381Y01043*
X00387Y01047*
X00391Y01053*
X00392Y0106*
X00391Y01066*
X00387Y01072*
X00381Y01076*
X00375Y01077*
G37*
G36*
X02589Y01055D02*
X02583Y01054D01*
X02577Y0105*
X02573Y01045*
X02572Y01038*
X02573Y01031*
X02577Y01026*
X02583Y01022*
X02589Y01021*
X02596Y01022*
X02602Y01026*
X02605Y01031*
X02607Y01038*
X02605Y01045*
X02602Y0105*
X02596Y01054*
X02589Y01055*
G37*
G36*
X01289D02*
X01283Y01054D01*
X01277Y0105*
X01273Y01045*
X01272Y01038*
X01273Y01031*
X01277Y01026*
X01283Y01022*
X01289Y01021*
X01296Y01022*
X01302Y01026*
X01305Y01031*
X01307Y01038*
X01305Y01045*
X01302Y0105*
X01296Y01054*
X01289Y01055*
G37*
G36*
X01089D02*
X01083Y01054D01*
X01077Y0105*
X01073Y01045*
X01072Y01038*
X01073Y01031*
X01077Y01026*
X01083Y01022*
X01089Y01021*
X01096Y01022*
X01102Y01026*
X01105Y01031*
X01107Y01038*
X01105Y01045*
X01102Y0105*
X01096Y01054*
X01089Y01055*
G37*
G36*
X00989D02*
X00983Y01054D01*
X00977Y0105*
X00973Y01045*
X00972Y01038*
X00973Y01031*
X00977Y01026*
X00983Y01022*
X00989Y01021*
X00996Y01022*
X01002Y01026*
X01005Y01031*
X01007Y01038*
X01005Y01045*
X01002Y0105*
X00996Y01054*
X00989Y01055*
G37*
G36*
X00889D02*
X00883Y01054D01*
X00877Y0105*
X00873Y01045*
X00872Y01038*
X00873Y01031*
X00877Y01026*
X00883Y01022*
X00889Y01021*
X00896Y01022*
X00902Y01026*
X00905Y01031*
X00907Y01038*
X00905Y01045*
X00902Y0105*
X00896Y01054*
X00889Y01055*
G37*
G36*
X00789D02*
X00783Y01054D01*
X00777Y0105*
X00773Y01045*
X00772Y01038*
X00773Y01031*
X00777Y01026*
X00783Y01022*
X00789Y01021*
X00796Y01022*
X00802Y01026*
X00805Y01031*
X00807Y01038*
X00805Y01045*
X00802Y0105*
X00796Y01054*
X00789Y01055*
G37*
G36*
X00189D02*
X00183Y01054D01*
X00177Y0105*
X00173Y01045*
X00172Y01038*
X00173Y01031*
X00177Y01026*
X00183Y01022*
X00189Y01021*
X00196Y01022*
X00202Y01026*
X00205Y01031*
X00207Y01038*
X00205Y01045*
X00202Y0105*
X00196Y01054*
X00189Y01055*
G37*
G36*
X00485Y01052D02*
X00478Y01051D01*
X00472Y01047*
X00468Y01041*
X00467Y01035*
X00468Y01028*
X00472Y01022*
X00478Y01018*
X00485Y01017*
X00491Y01018*
X00497Y01022*
X00501Y01028*
X00502Y01035*
X00501Y01041*
X00497Y01047*
X00491Y01051*
X00485Y01052*
G37*
G36*
X0013Y01022D02*
X00123Y01021D01*
X00117Y01017*
X00117Y01016*
X00112*
X00112Y01017*
X00106Y01021*
X001Y01022*
X00093Y01021*
X00088Y01017*
X00086Y01016*
X00083*
X00081Y01017*
X00076Y01021*
X0007Y01022*
X00063Y01021*
X00057Y01017*
X00053Y01011*
X00052Y01005*
X00053Y00998*
X00057Y00992*
X00063Y00988*
X0007Y00987*
X00076Y00988*
X00081Y00992*
X00083Y00993*
X00086*
X00088Y00992*
X00093Y00988*
X001Y00987*
X00106Y00988*
X00112Y00992*
X00112Y00993*
X00117*
X00117Y00992*
X00123Y00988*
X0013Y00987*
X00136Y00988*
X00142Y00992*
X00146Y00998*
X00147Y01005*
X00146Y01011*
X00142Y01017*
X00136Y01021*
X0013Y01022*
G37*
G36*
X01495Y01007D02*
X01488Y01006D01*
X01482Y01002*
X01478Y00996*
X01477Y0099*
X01478Y00983*
X01482Y00977*
X01488Y00973*
X01495Y00972*
X01501Y00973*
X01507Y00977*
X01511Y00983*
X01512Y0099*
X01511Y00996*
X01507Y01002*
X01501Y01006*
X01495Y01007*
G37*
G36*
X0144Y00992D02*
X01433Y00991D01*
X01427Y00987*
X01423Y00981*
X01422Y00975*
X01423Y00968*
X01427Y00962*
X01433Y00958*
X0144Y00957*
X01446Y00958*
X01452Y00962*
X01456Y00968*
X01457Y00975*
X01456Y00981*
X01452Y00987*
X01446Y00991*
X0144Y00992*
G37*
G36*
X01135Y00982D02*
X01128Y00981D01*
X01122Y00977*
X01118Y00971*
X01117Y00965*
X01118Y00958*
X01122Y00952*
X01128Y00948*
X01135Y00947*
X01141Y00948*
X01147Y00952*
X01151Y00958*
X01152Y00965*
X01151Y00971*
X01147Y00977*
X01141Y00981*
X01135Y00982*
G37*
G36*
X00698Y00972D02*
X00691Y00971D01*
X00685Y00967*
X00682Y00962*
X0068Y00955*
X00682Y00948*
X00685Y00943*
X00691Y00939*
X00698Y00938*
X00704Y00939*
X0071Y00943*
X00714Y00948*
X00715Y00955*
X00714Y00962*
X0071Y00967*
X00704Y00971*
X00698Y00972*
G37*
G36*
X02639Y00955D02*
X02633Y00954D01*
X02627Y0095*
X02623Y00945*
X02622Y00938*
X02623Y00931*
X02627Y00926*
X02633Y00922*
X02639Y00921*
X02646Y00922*
X02652Y00926*
X02655Y00931*
X02657Y00938*
X02655Y00945*
X02652Y0095*
X02646Y00954*
X02639Y00955*
G37*
G36*
X02039D02*
X02033Y00954D01*
X02027Y0095*
X02023Y00945*
X02022Y00938*
X02023Y00931*
X02027Y00926*
X02033Y00922*
X02039Y00921*
X02046Y00922*
X02052Y00926*
X02055Y00931*
X02057Y00938*
X02055Y00945*
X02052Y0095*
X02046Y00954*
X02039Y00955*
G37*
G36*
X01839D02*
X01833Y00954D01*
X01827Y0095*
X01823Y00945*
X01822Y00938*
X01823Y00931*
X01827Y00926*
X01833Y00922*
X01839Y00921*
X01846Y00922*
X01852Y00926*
X01855Y00931*
X01857Y00938*
X01855Y00945*
X01852Y0095*
X01846Y00954*
X01839Y00955*
G37*
G36*
X01739D02*
X01733Y00954D01*
X01727Y0095*
X01723Y00945*
X01722Y00938*
X01723Y00931*
X01727Y00926*
X01733Y00922*
X01739Y00921*
X01746Y00922*
X01752Y00926*
X01755Y00931*
X01757Y00938*
X01755Y00945*
X01752Y0095*
X01746Y00954*
X01739Y00955*
G37*
G36*
X00639D02*
X00633Y00954D01*
X00627Y0095*
X00623Y00945*
X00622Y00938*
X00623Y00931*
X00627Y00926*
X00633Y00922*
X00639Y00921*
X00646Y00922*
X00652Y00926*
X00655Y00931*
X00657Y00938*
X00655Y00945*
X00652Y0095*
X00646Y00954*
X00639Y00955*
G37*
G36*
X00339D02*
X00333Y00954D01*
X00327Y0095*
X00323Y00945*
X00322Y00938*
X00323Y00931*
X00327Y00926*
X00333Y00922*
X00339Y00921*
X00346Y00922*
X00352Y00926*
X00355Y00931*
X00357Y00938*
X00355Y00945*
X00352Y0095*
X00346Y00954*
X00339Y00955*
G37*
G36*
X0144Y00952D02*
X01433Y00951D01*
X01427Y00947*
X01423Y00941*
X01422Y00935*
X01423Y00928*
X01427Y00922*
X01433Y00918*
X0144Y00917*
X01446Y00918*
X01452Y00922*
X01456Y00928*
X01457Y00935*
X01456Y00941*
X01452Y00947*
X01446Y00951*
X0144Y00952*
G37*
G36*
X00751Y00935D02*
X00745Y00933D01*
X00739Y0093*
X00735Y00924*
X00734Y00917*
X00735Y00911*
X00739Y00905*
X00745Y00901*
X00751Y009*
X00758Y00901*
X00764Y00905*
X00767Y00911*
X00769Y00917*
X00767Y00924*
X00764Y0093*
X00758Y00933*
X00751Y00935*
G37*
G36*
X0209Y00927D02*
X02083Y00926D01*
X02077Y00922*
X02073Y00916*
X02072Y0091*
X02073Y00903*
X02077Y00897*
X02083Y00893*
X0209Y00892*
X02096Y00893*
X02102Y00897*
X02106Y00903*
X02107Y0091*
X02106Y00916*
X02102Y00922*
X02096Y00926*
X0209Y00927*
G37*
G36*
X00698Y00923D02*
X00691Y00922D01*
X00685Y00918*
X00682Y00913*
X0068Y00906*
X00682Y00899*
X00685Y00894*
X00691Y0089*
X00698Y00889*
X00704Y0089*
X0071Y00894*
X00714Y00899*
X00715Y00906*
X00714Y00913*
X0071Y00918*
X00704Y00922*
X00698Y00923*
G37*
G36*
X00345Y00892D02*
X00338Y00891D01*
X00332Y00887*
X00328Y00881*
X00327Y00875*
X00328Y00868*
X00332Y00862*
X00338Y00858*
X00345Y00857*
X00351Y00858*
X00357Y00862*
X00361Y00868*
X00362Y00875*
X00361Y00881*
X00357Y00887*
X00351Y00891*
X00345Y00892*
G37*
G36*
X00751Y00886D02*
X00745Y00884D01*
X00739Y00881*
X00735Y00875*
X00734Y00868*
X00735Y00862*
X00739Y00856*
X00745Y00852*
X00751Y00851*
X00758Y00852*
X00764Y00856*
X00767Y00862*
X00769Y00868*
X00767Y00875*
X00764Y00881*
X00758Y00884*
X00751Y00886*
G37*
G36*
X0164Y00877D02*
X01633Y00876D01*
X01627Y00872*
X01623Y00866*
X01622Y0086*
X01623Y00853*
X01627Y00847*
X01633Y00843*
X0164Y00842*
X01646Y00843*
X01652Y00847*
X01656Y00853*
X01657Y0086*
X01656Y00866*
X01652Y00872*
X01646Y00876*
X0164Y00877*
G37*
G36*
X00698Y00874D02*
X00691Y00873D01*
X00685Y00869*
X00682Y00864*
X0068Y00857*
X00682Y0085*
X00685Y00845*
X00691Y00841*
X00698Y0084*
X00704Y00841*
X0071Y00845*
X00714Y0085*
X00715Y00857*
X00714Y00864*
X0071Y00869*
X00704Y00873*
X00698Y00874*
G37*
G36*
X02589Y00855D02*
X02583Y00854D01*
X02577Y0085*
X02573Y00845*
X02572Y00838*
X02573Y00831*
X02577Y00826*
X02583Y00822*
X02589Y00821*
X02596Y00822*
X02602Y00826*
X02605Y00831*
X02607Y00838*
X02605Y00845*
X02602Y0085*
X02596Y00854*
X02589Y00855*
G37*
G36*
X01789D02*
X01783Y00854D01*
X01777Y0085*
X01773Y00845*
X01772Y00838*
X01773Y00831*
X01777Y00826*
X01783Y00822*
X01789Y00821*
X01796Y00822*
X01802Y00826*
X01805Y00831*
X01807Y00838*
X01805Y00845*
X01802Y0085*
X01796Y00854*
X01789Y00855*
G37*
G36*
X01689D02*
X01683Y00854D01*
X01677Y0085*
X01673Y00845*
X01672Y00838*
X01673Y00831*
X01677Y00826*
X01683Y00822*
X01689Y00821*
X01696Y00822*
X01702Y00826*
X01705Y00831*
X01707Y00838*
X01705Y00845*
X01702Y0085*
X01696Y00854*
X01689Y00855*
G37*
G36*
X00189D02*
X00183Y00854D01*
X00177Y0085*
X00173Y00845*
X00172Y00838*
X00173Y00831*
X00177Y00826*
X00183Y00822*
X00189Y00821*
X00196Y00822*
X00202Y00826*
X00205Y00831*
X00207Y00838*
X00205Y00845*
X00202Y0085*
X00196Y00854*
X00189Y00855*
G37*
G36*
X0013Y00812D02*
X00123Y00811D01*
X00117Y00807*
X00117Y00806*
X00112*
X00112Y00807*
X00106Y00811*
X001Y00812*
X00093Y00811*
X00088Y00807*
X00086Y00806*
X00083*
X00081Y00807*
X00076Y00811*
X0007Y00812*
X00063Y00811*
X00057Y00807*
X00053Y00801*
X00052Y00795*
X00053Y00788*
X00057Y00782*
X00063Y00778*
X0007Y00777*
X00076Y00778*
X00081Y00782*
X00083Y00783*
X00086*
X00088Y00782*
X00093Y00778*
X001Y00777*
X00106Y00778*
X00112Y00782*
X00112Y00783*
X00117*
X00117Y00782*
X00123Y00778*
X0013Y00777*
X00136Y00778*
X00142Y00782*
X00146Y00788*
X00147Y00795*
X00146Y00801*
X00142Y00807*
X00136Y00811*
X0013Y00812*
G37*
G36*
X0136Y00832D02*
X01353Y00831D01*
X01347Y00827*
X01343Y00821*
X01342Y00815*
X01343Y00808*
X01347Y00802*
X01353Y00798*
X0136Y00797*
X01366Y00798*
X01372Y00802*
X01376Y00808*
X01377Y00815*
X01376Y00821*
X01372Y00827*
X01366Y00831*
X0136Y00832*
G37*
G36*
X0013Y00772D02*
X00123Y00771D01*
X00118Y00767*
X00116Y00766*
X00113*
X00111Y00767*
X00106Y00771*
X001Y00772*
X00093Y00771*
X00088Y00767*
X00086Y00766*
X00083*
X00081Y00767*
X00076Y00771*
X0007Y00772*
X00063Y00771*
X00057Y00767*
X00053Y00761*
X00052Y00755*
X00053Y00748*
X00057Y00742*
X00063Y00738*
X0007Y00737*
X00076Y00738*
X00081Y00742*
X00083Y00743*
X00086*
X00088Y00742*
X00093Y00738*
X001Y00737*
X00106Y00738*
X00111Y00742*
X00113Y00743*
X00116*
X00118Y00742*
X00123Y00738*
X0013Y00737*
X00136Y00738*
X00142Y00742*
X00146Y00748*
X00147Y00755*
X00146Y00761*
X00142Y00767*
X00136Y00771*
X0013Y00772*
G37*
G36*
X00751Y00788D02*
X00745Y00786D01*
X00739Y00783*
X00735Y00777*
X00734Y0077*
X00735Y00764*
X00739Y00758*
X00745Y00754*
X00751Y00753*
X00758Y00754*
X00764Y00758*
X00767Y00764*
X00769Y0077*
X00767Y00777*
X00764Y00783*
X00758Y00786*
X00751Y00788*
G37*
G36*
X0036Y00787D02*
X00353Y00786D01*
X00347Y00782*
X00343Y00776*
X00342Y0077*
X00343Y00763*
X00347Y00757*
X00353Y00753*
X0036Y00752*
X00366Y00753*
X00372Y00757*
X00376Y00763*
X00377Y0077*
X00376Y00776*
X00372Y00782*
X00366Y00786*
X0036Y00787*
G37*
G36*
X0031D02*
X00303Y00786D01*
X00297Y00782*
X00293Y00776*
X00292Y0077*
X00293Y00763*
X00297Y00757*
X00303Y00753*
X0031Y00752*
X00316Y00753*
X00322Y00757*
X00326Y00763*
X00327Y0077*
X00326Y00776*
X00322Y00782*
X00316Y00786*
X0031Y00787*
G37*
G36*
X00698Y00776D02*
X00691Y00775D01*
X00685Y00771*
X00682Y00766*
X0068Y00759*
X00682Y00752*
X00685Y00747*
X00691Y00743*
X00698Y00742*
X00704Y00743*
X0071Y00747*
X00714Y00752*
X00715Y00759*
X00714Y00766*
X0071Y00771*
X00704Y00775*
X00698Y00776*
G37*
G36*
X02639Y00755D02*
X02633Y00754D01*
X02627Y0075*
X02623Y00745*
X02622Y00738*
X02623Y00731*
X02627Y00726*
X02633Y00722*
X02639Y00721*
X02646Y00722*
X02652Y00726*
X02655Y00731*
X02657Y00738*
X02655Y00745*
X02652Y0075*
X02646Y00754*
X02639Y00755*
G37*
G36*
X02139D02*
X02133Y00754D01*
X02127Y0075*
X02123Y00745*
X02122Y00738*
X02123Y00731*
X02127Y00726*
X02133Y00722*
X02139Y00721*
X02146Y00722*
X02152Y00726*
X02155Y00731*
X02157Y00738*
X02155Y00745*
X02152Y0075*
X02146Y00754*
X02139Y00755*
G37*
G36*
X01839D02*
X01833Y00754D01*
X01827Y0075*
X01823Y00745*
X01822Y00738*
X01823Y00731*
X01827Y00726*
X01833Y00722*
X01839Y00721*
X01846Y00722*
X01852Y00726*
X01855Y00731*
X01857Y00738*
X01855Y00745*
X01852Y0075*
X01846Y00754*
X01839Y00755*
G37*
G36*
X01739D02*
X01733Y00754D01*
X01727Y0075*
X01723Y00745*
X01722Y00738*
X01723Y00731*
X01727Y00726*
X01733Y00722*
X01739Y00721*
X01746Y00722*
X01752Y00726*
X01755Y00731*
X01757Y00738*
X01755Y00745*
X01752Y0075*
X01746Y00754*
X01739Y00755*
G37*
G36*
X01139D02*
X01133Y00754D01*
X01127Y0075*
X01123Y00745*
X01122Y00738*
X01123Y00731*
X01127Y00726*
X01133Y00722*
X01139Y00721*
X01146Y00722*
X01152Y00726*
X01155Y00731*
X01157Y00738*
X01155Y00745*
X01152Y0075*
X01146Y00754*
X01139Y00755*
G37*
G36*
X01039D02*
X01033Y00754D01*
X01027Y0075*
X01023Y00745*
X01022Y00738*
X01023Y00731*
X01027Y00726*
X01033Y00722*
X01039Y00721*
X01046Y00722*
X01052Y00726*
X01055Y00731*
X01057Y00738*
X01055Y00745*
X01052Y0075*
X01046Y00754*
X01039Y00755*
G37*
G36*
X00939D02*
X00933Y00754D01*
X00927Y0075*
X00923Y00745*
X00922Y00738*
X00923Y00731*
X00927Y00726*
X00933Y00722*
X00939Y00721*
X00946Y00722*
X00952Y00726*
X00955Y00731*
X00957Y00738*
X00955Y00745*
X00952Y0075*
X00946Y00754*
X00939Y00755*
G37*
G36*
X00839D02*
X00833Y00754D01*
X00827Y0075*
X00823Y00745*
X00822Y00738*
X00823Y00731*
X00827Y00726*
X00833Y00722*
X00839Y00721*
X00846Y00722*
X00852Y00726*
X00855Y00731*
X00857Y00738*
X00855Y00745*
X00852Y0075*
X00846Y00754*
X00839Y00755*
G37*
G36*
X00639D02*
X00633Y00754D01*
X00627Y0075*
X00623Y00745*
X00622Y00738*
X00623Y00731*
X00627Y00726*
X00633Y00722*
X00639Y00721*
X00646Y00722*
X00652Y00726*
X00655Y00731*
X00657Y00738*
X00655Y00745*
X00652Y0075*
X00646Y00754*
X00639Y00755*
G37*
G36*
X00439D02*
X00433Y00754D01*
X00427Y0075*
X00423Y00745*
X00422Y00738*
X00423Y00731*
X00427Y00726*
X00433Y00722*
X00439Y00721*
X00446Y00722*
X00452Y00726*
X00455Y00731*
X00457Y00738*
X00455Y00745*
X00452Y0075*
X00446Y00754*
X00439Y00755*
G37*
G36*
X00239D02*
X00233Y00754D01*
X00227Y0075*
X00223Y00745*
X00222Y00738*
X00223Y00731*
X00227Y00726*
X00233Y00722*
X00239Y00721*
X00246Y00722*
X00252Y00726*
X00255Y00731*
X00257Y00738*
X00255Y00745*
X00252Y0075*
X00246Y00754*
X00239Y00755*
G37*
G36*
X02Y00747D02*
X01993Y00746D01*
X01987Y00742*
X01983Y00736*
X01982Y0073*
X01983Y00723*
X01987Y00717*
X01993Y00713*
X02Y00712*
X02006Y00713*
X02012Y00717*
X02016Y00723*
X02017Y0073*
X02016Y00736*
X02012Y00742*
X02006Y00746*
X02Y00747*
G37*
G36*
X00751Y00739D02*
X00745Y00737D01*
X00739Y00734*
X00735Y00728*
X00734Y00721*
X00735Y00715*
X00739Y00709*
X00745Y00705*
X00751Y00704*
X00758Y00705*
X00764Y00709*
X00767Y00715*
X00769Y00721*
X00767Y00728*
X00764Y00734*
X00758Y00737*
X00751Y00739*
G37*
G36*
X0129Y00732D02*
X01283Y00731D01*
X01277Y00727*
X01273Y00721*
X01272Y00715*
X01273Y00708*
X01277Y00702*
X01283Y00698*
X0129Y00697*
X01296Y00698*
X01302Y00702*
X01306Y00708*
X01307Y00715*
X01306Y00721*
X01302Y00727*
X01296Y00731*
X0129Y00732*
G37*
G36*
X02045Y00731D02*
X02038Y00729D01*
X02033Y00726*
X02029Y0072*
X02027Y00713*
X02029Y00707*
X02033Y00701*
X02038Y00697*
X02045Y00696*
X02051Y00697*
X02057Y00701*
X02061Y00707*
X02062Y00713*
X02061Y0072*
X02057Y00726*
X02051Y00729*
X02045Y00731*
G37*
G36*
X00698Y00727D02*
X00691Y00726D01*
X00685Y00722*
X00682Y00717*
X0068Y0071*
X00682Y00703*
X00685Y00698*
X00691Y00694*
X00698Y00693*
X00704Y00694*
X0071Y00698*
X00714Y00703*
X00715Y0071*
X00714Y00717*
X0071Y00722*
X00704Y00726*
X00698Y00727*
G37*
G36*
X02092Y00719D02*
X02086Y00718D01*
X0208Y00714*
X02076Y00709*
X02075Y00702*
X02076Y00695*
X0208Y0069*
X02086Y00686*
X02092Y00685*
X02099Y00686*
X02105Y0069*
X02108Y00695*
X0211Y00702*
X02108Y00709*
X02105Y00714*
X02099Y00718*
X02092Y00719*
G37*
G36*
X0045Y00707D02*
X00443Y00706D01*
X00437Y00702*
X00433Y00696*
X00432Y0069*
X00433Y00683*
X00437Y00677*
X00443Y00673*
X0045Y00672*
X00456Y00673*
X00462Y00677*
X00466Y00683*
X00467Y0069*
X00466Y00696*
X00462Y00702*
X00456Y00706*
X0045Y00707*
G37*
G36*
X01877Y00698D02*
X0187Y00697D01*
X01864Y00693*
X01861Y00688*
X01859Y00681*
X01861Y00674*
X01864Y00669*
X0187Y00665*
X01877Y00664*
X01883Y00665*
X01889Y00669*
X01893Y00674*
X01894Y00681*
X01893Y00688*
X01889Y00693*
X01883Y00697*
X01877Y00698*
G37*
G36*
X00751Y0069D02*
X00745Y00688D01*
X00739Y00685*
X00735Y00679*
X00734Y00672*
X00735Y00666*
X00739Y0066*
X00745Y00656*
X00751Y00655*
X00758Y00656*
X00764Y0066*
X00767Y00666*
X00769Y00672*
X00767Y00679*
X00764Y00685*
X00758Y00688*
X00751Y0069*
G37*
G36*
X0213Y00688D02*
X02123Y00686D01*
X02118Y00683*
X02114Y00677*
X02113Y0067*
X02114Y00664*
X02118Y00658*
X02123Y00654*
X0213Y00653*
X02136Y00654*
X02142Y00658*
X02146Y00664*
X02147Y0067*
X02146Y00677*
X02142Y00683*
X02136Y00686*
X0213Y00688*
G37*
G36*
X00698Y00678D02*
X00691Y00677D01*
X00685Y00673*
X00682Y00668*
X0068Y00661*
X00682Y00654*
X00685Y00649*
X00691Y00645*
X00698Y00644*
X00704Y00645*
X0071Y00649*
X00714Y00654*
X00715Y00661*
X00714Y00668*
X0071Y00673*
X00704Y00677*
X00698Y00678*
G37*
G36*
X02059Y00675D02*
X02052Y00674D01*
X02046Y0067*
X02043Y00665*
X02041Y00658*
X02043Y00651*
X02046Y00646*
X02052Y00642*
X02059Y00641*
X02065Y00642*
X02071Y00646*
X02075Y00651*
X02076Y00658*
X02075Y00665*
X02071Y0067*
X02065Y00674*
X02059Y00675*
G37*
G36*
X02Y00657D02*
X01993Y00656D01*
X01987Y00652*
X01983Y00646*
X01982Y0064*
X01983Y00633*
X01987Y00627*
X01993Y00623*
X02Y00622*
X02006Y00623*
X02012Y00627*
X02016Y00633*
X02017Y0064*
X02016Y00646*
X02012Y00652*
X02006Y00656*
X02Y00657*
G37*
G36*
X02589Y00655D02*
X02583Y00654D01*
X02577Y0065*
X02573Y00645*
X02572Y00638*
X02573Y00631*
X02577Y00626*
X02583Y00622*
X02589Y00621*
X02596Y00622*
X02602Y00626*
X02605Y00631*
X02607Y00638*
X02605Y00645*
X02602Y0065*
X02596Y00654*
X02589Y00655*
G37*
G36*
X02189D02*
X02183Y00654D01*
X02177Y0065*
X02173Y00645*
X02172Y00638*
X02173Y00631*
X02177Y00626*
X02183Y00622*
X02189Y00621*
X02196Y00622*
X02202Y00626*
X02205Y00631*
X02207Y00638*
X02205Y00645*
X02202Y0065*
X02196Y00654*
X02189Y00655*
G37*
G36*
X01089D02*
X01083Y00654D01*
X01077Y0065*
X01073Y00645*
X01072Y00638*
X01073Y00631*
X01077Y00626*
X01083Y00622*
X01089Y00621*
X01096Y00622*
X01102Y00626*
X01105Y00631*
X01107Y00638*
X01105Y00645*
X01102Y0065*
X01096Y00654*
X01089Y00655*
G37*
G36*
X00989D02*
X00983Y00654D01*
X00977Y0065*
X00973Y00645*
X00972Y00638*
X00973Y00631*
X00977Y00626*
X00983Y00622*
X00989Y00621*
X00996Y00622*
X01002Y00626*
X01005Y00631*
X01007Y00638*
X01005Y00645*
X01002Y0065*
X00996Y00654*
X00989Y00655*
G37*
G36*
X00889D02*
X00883Y00654D01*
X00877Y0065*
X00873Y00645*
X00872Y00638*
X00873Y00631*
X00877Y00626*
X00883Y00622*
X00889Y00621*
X00896Y00622*
X00902Y00626*
X00905Y00631*
X00907Y00638*
X00905Y00645*
X00902Y0065*
X00896Y00654*
X00889Y00655*
G37*
G36*
X00789D02*
X00783Y00654D01*
X00777Y0065*
X00773Y00645*
X00772Y00638*
X00773Y00631*
X00777Y00626*
X00783Y00622*
X00789Y00621*
X00796Y00622*
X00802Y00626*
X00805Y00631*
X00807Y00638*
X00805Y00645*
X00802Y0065*
X00796Y00654*
X00789Y00655*
G37*
G36*
X00489D02*
X00483Y00654D01*
X00477Y0065*
X00473Y00645*
X00472Y00638*
X00473Y00631*
X00477Y00626*
X00483Y00622*
X00489Y00621*
X00496Y00622*
X00502Y00626*
X00505Y00631*
X00507Y00638*
X00505Y00645*
X00502Y0065*
X00496Y00654*
X00489Y00655*
G37*
G36*
X00089D02*
X00083Y00654D01*
X00077Y0065*
X00073Y00645*
X00072Y00638*
X00073Y00631*
X00077Y00626*
X00083Y00622*
X00089Y00621*
X00096Y00622*
X00102Y00626*
X00105Y00631*
X00107Y00638*
X00105Y00645*
X00102Y0065*
X00096Y00654*
X00089Y00655*
G37*
G36*
X02152Y00644D02*
X02145Y00642D01*
X02139Y00639*
X02136Y00633*
X02134Y00626*
X02136Y0062*
X02139Y00614*
X02145Y0061*
X02152Y00609*
X02158Y0061*
X02164Y00614*
X02168Y0062*
X02169Y00626*
X02168Y00633*
X02164Y00639*
X02158Y00642*
X02152Y00644*
G37*
G36*
X02095Y00643D02*
X02089Y00641D01*
X02083Y00637*
X02079Y00632*
X02078Y00625*
X02079Y00619*
X02083Y00613*
X02089Y00609*
X02095Y00608*
X02102Y00609*
X02107Y00613*
X02111Y00619*
X02113Y00625*
X02111Y00632*
X02107Y00637*
X02102Y00641*
X02095Y00643*
G37*
G36*
X00751Y00641D02*
X00745Y00639D01*
X00739Y00636*
X00735Y0063*
X00734Y00623*
X00735Y00617*
X00739Y00611*
X00745Y00607*
X00751Y00606*
X00758Y00607*
X00764Y00611*
X00767Y00617*
X00769Y00623*
X00767Y0063*
X00764Y00636*
X00758Y00639*
X00751Y00641*
G37*
G36*
X00698Y00629D02*
X00691Y00628D01*
X00685Y00624*
X00682Y00619*
X0068Y00612*
X00682Y00605*
X00685Y006*
X00691Y00596*
X00698Y00595*
X00704Y00596*
X0071Y006*
X00714Y00605*
X00715Y00612*
X00714Y00619*
X0071Y00624*
X00704Y00628*
X00698Y00629*
G37*
G36*
X0113Y00597D02*
X01123Y00596D01*
X01117Y00592*
X01113Y00586*
X01112Y0058*
X01113Y00573*
X01117Y00567*
X01123Y00563*
X0113Y00562*
X01136Y00563*
X01142Y00567*
X01146Y00573*
X01147Y0058*
X01146Y00586*
X01142Y00592*
X01136Y00596*
X0113Y00597*
G37*
G36*
X02156Y00595D02*
X0215Y00594D01*
X02144Y0059*
X0214Y00584*
X02139Y00578*
X0214Y00571*
X02144Y00565*
X0215Y00562*
X02156Y0056*
X02163Y00562*
X02169Y00565*
X02172Y00571*
X02174Y00578*
X02172Y00584*
X02169Y0059*
X02163Y00594*
X02156Y00595*
G37*
G36*
X02103Y00594D02*
X02096Y00593D01*
X0209Y00589*
X02087Y00583*
X02085Y00577*
X02087Y0057*
X0209Y00565*
X02096Y00561*
X02103Y00559*
X02109Y00561*
X02115Y00565*
X02119Y0057*
X0212Y00577*
X02119Y00583*
X02115Y00589*
X02109Y00593*
X02103Y00594*
G37*
G36*
X00751Y00592D02*
X00745Y0059D01*
X00739Y00587*
X00735Y00581*
X00734Y00574*
X00735Y00568*
X00739Y00562*
X00745Y00558*
X00751Y00557*
X00758Y00558*
X00764Y00562*
X00767Y00568*
X00769Y00574*
X00767Y00581*
X00764Y00587*
X00758Y0059*
X00751Y00592*
G37*
G36*
X0013Y00562D02*
X00123Y00561D01*
X00118Y00557*
X00116Y00556*
X00113*
X00111Y00557*
X00106Y00561*
X001Y00562*
X00093Y00561*
X00087Y00557*
X00087Y00556*
X00082*
X00082Y00557*
X00076Y00561*
X0007Y00562*
X00063Y00561*
X00057Y00557*
X00053Y00551*
X00052Y00545*
X00053Y00538*
X00057Y00532*
X00063Y00528*
X0007Y00527*
X00076Y00528*
X00082Y00532*
X00082Y00533*
X00087*
X00087Y00532*
X00093Y00528*
X001Y00527*
X00106Y00528*
X00112Y00532*
X00112Y00533*
X00117*
X00117Y00532*
X00123Y00528*
X0013Y00527*
X00136Y00528*
X00142Y00532*
X00146Y00538*
X00147Y00545*
X00146Y00551*
X00142Y00557*
X00136Y00561*
X0013Y00562*
G37*
G36*
X00698Y0058D02*
X00691Y00579D01*
X00685Y00575*
X00682Y0057*
X0068Y00563*
X00682Y00556*
X00685Y00551*
X00691Y00547*
X00698Y00546*
X00704Y00547*
X0071Y00551*
X00714Y00556*
X00715Y00563*
X00714Y0057*
X0071Y00575*
X00704Y00579*
X00698Y0058*
G37*
G36*
X0113Y00557D02*
X01123Y00556D01*
X01117Y00552*
X01113Y00546*
X01112Y0054*
X01113Y00533*
X01117Y00527*
X01123Y00523*
X0113Y00522*
X01136Y00523*
X01142Y00527*
X01146Y00533*
X01147Y0054*
X01146Y00546*
X01142Y00552*
X01136Y00556*
X0113Y00557*
G37*
G36*
X02639Y00555D02*
X02633Y00554D01*
X02627Y0055*
X02623Y00545*
X02622Y00538*
X02623Y00531*
X02627Y00526*
X02633Y00522*
X02639Y00521*
X02646Y00522*
X02652Y00526*
X02655Y00531*
X02657Y00538*
X02655Y00545*
X02652Y0055*
X02646Y00554*
X02639Y00555*
G37*
G36*
X02239D02*
X02233Y00554D01*
X02227Y0055*
X02223Y00545*
X02222Y00538*
X02223Y00531*
X02227Y00526*
X02233Y00522*
X02239Y00521*
X02246Y00522*
X02252Y00526*
X02255Y00531*
X02257Y00538*
X02255Y00545*
X02252Y0055*
X02246Y00554*
X02239Y00555*
G37*
G36*
X02039D02*
X02033Y00554D01*
X02027Y0055*
X02023Y00545*
X02022Y00538*
X02023Y00531*
X02027Y00526*
X02033Y00522*
X02039Y00521*
X02046Y00522*
X02052Y00526*
X02055Y00531*
X02057Y00538*
X02055Y00545*
X02052Y0055*
X02046Y00554*
X02039Y00555*
G37*
G36*
X01939D02*
X01933Y00554D01*
X01927Y0055*
X01923Y00545*
X01922Y00538*
X01923Y00531*
X01927Y00526*
X01933Y00522*
X01939Y00521*
X01946Y00522*
X01952Y00526*
X01955Y00531*
X01957Y00538*
X01955Y00545*
X01952Y0055*
X01946Y00554*
X01939Y00555*
G37*
G36*
X01839D02*
X01833Y00554D01*
X01827Y0055*
X01823Y00545*
X01822Y00538*
X01823Y00531*
X01827Y00526*
X01833Y00522*
X01839Y00521*
X01846Y00522*
X01852Y00526*
X01855Y00531*
X01857Y00538*
X01855Y00545*
X01852Y0055*
X01846Y00554*
X01839Y00555*
G37*
G36*
X01039D02*
X01033Y00554D01*
X01027Y0055*
X01023Y00545*
X01022Y00538*
X01023Y00531*
X01027Y00526*
X01033Y00522*
X01039Y00521*
X01046Y00522*
X01052Y00526*
X01055Y00531*
X01057Y00538*
X01055Y00545*
X01052Y0055*
X01046Y00554*
X01039Y00555*
G37*
G36*
X00939D02*
X00933Y00554D01*
X00927Y0055*
X00923Y00545*
X00922Y00538*
X00923Y00531*
X00927Y00526*
X00933Y00522*
X00939Y00521*
X00946Y00522*
X00952Y00526*
X00955Y00531*
X00957Y00538*
X00955Y00545*
X00952Y0055*
X00946Y00554*
X00939Y00555*
G37*
G36*
X00839D02*
X00833Y00554D01*
X00827Y0055*
X00823Y00545*
X00822Y00538*
X00823Y00531*
X00827Y00526*
X00833Y00522*
X00839Y00521*
X00846Y00522*
X00852Y00526*
X00855Y00531*
X00857Y00538*
X00855Y00545*
X00852Y0055*
X00846Y00554*
X00839Y00555*
G37*
G36*
X00639D02*
X00633Y00554D01*
X00627Y0055*
X00623Y00545*
X00622Y00538*
X00623Y00531*
X00627Y00526*
X00633Y00522*
X00639Y00521*
X00646Y00522*
X00652Y00526*
X00655Y00531*
X00657Y00538*
X00655Y00545*
X00652Y0055*
X00646Y00554*
X00639Y00555*
G37*
G36*
X00339D02*
X00333Y00554D01*
X00327Y0055*
X00323Y00545*
X00322Y00538*
X00323Y00531*
X00327Y00526*
X00333Y00522*
X00339Y00521*
X00346Y00522*
X00352Y00526*
X00355Y00531*
X00357Y00538*
X00355Y00545*
X00352Y0055*
X00346Y00554*
X00339Y00555*
G37*
G36*
X00239D02*
X00233Y00554D01*
X00227Y0055*
X00223Y00545*
X00222Y00538*
X00223Y00531*
X00227Y00526*
X00233Y00522*
X00239Y00521*
X00246Y00522*
X00252Y00526*
X00255Y00531*
X00257Y00538*
X00255Y00545*
X00252Y0055*
X00246Y00554*
X00239Y00555*
G37*
G36*
X0013Y00522D02*
X00123Y00521D01*
X00117Y00517*
X00117Y00516*
X00112*
X00112Y00517*
X00106Y00521*
X001Y00522*
X00093Y00521*
X00087Y00517*
X00087Y00516*
X00082*
X00082Y00517*
X00076Y00521*
X0007Y00522*
X00063Y00521*
X00057Y00517*
X00053Y00511*
X00052Y00505*
X00053Y00498*
X00057Y00492*
X00063Y00488*
X0007Y00487*
X00076Y00488*
X00082Y00492*
X00082Y00493*
X00087*
X00087Y00492*
X00093Y00488*
X001Y00487*
X00106Y00488*
X00112Y00492*
X00112Y00493*
X00117*
X00117Y00492*
X00123Y00488*
X0013Y00487*
X00136Y00488*
X00142Y00492*
X00146Y00498*
X00147Y00505*
X00146Y00511*
X00142Y00517*
X00136Y00521*
X0013Y00522*
G37*
G36*
X02156Y00546D02*
X0215Y00545D01*
X02144Y00541*
X0214Y00535*
X02139Y00529*
X0214Y00522*
X02144Y00516*
X0215Y00513*
X02156Y00511*
X02163Y00513*
X02169Y00516*
X02172Y00522*
X02174Y00529*
X02172Y00535*
X02169Y00541*
X02163Y00545*
X02156Y00546*
G37*
G36*
X02103Y00545D02*
X02096Y00544D01*
X0209Y0054*
X02087Y00534*
X02085Y00528*
X02087Y00521*
X0209Y00516*
X02096Y00512*
X02103Y0051*
X02109Y00512*
X02115Y00516*
X02119Y00521*
X0212Y00528*
X02119Y00534*
X02115Y0054*
X02109Y00544*
X02103Y00545*
G37*
G36*
X00751Y00543D02*
X00745Y00541D01*
X00739Y00538*
X00735Y00532*
X00734Y00525*
X00735Y00519*
X00739Y00513*
X00745Y00509*
X00751Y00508*
X00758Y00509*
X00764Y00513*
X00767Y00519*
X00769Y00525*
X00767Y00532*
X00764Y00538*
X00758Y00541*
X00751Y00543*
G37*
G36*
X00698Y00531D02*
X00691Y0053D01*
X00685Y00526*
X00682Y00521*
X0068Y00514*
X00682Y00507*
X00685Y00502*
X00691Y00498*
X00698Y00497*
X00704Y00498*
X0071Y00502*
X00714Y00507*
X00715Y00514*
X00714Y00521*
X0071Y00526*
X00704Y0053*
X00698Y00531*
G37*
G36*
X02515Y00527D02*
X02508Y00526D01*
X02502Y00522*
X02498Y00516*
X02497Y0051*
X02498Y00503*
X02502Y00497*
X02508Y00493*
X02515Y00492*
X02521Y00493*
X02527Y00497*
X02531Y00503*
X02532Y0051*
X02531Y00516*
X02527Y00522*
X02521Y00526*
X02515Y00527*
G37*
G36*
X02154Y00497D02*
X02148Y00496D01*
X02142Y00492*
X02138Y00486*
X02137Y0048*
X02138Y00473*
X02142Y00467*
X02148Y00464*
X02154Y00462*
X02161Y00464*
X02167Y00467*
X0217Y00473*
X02172Y0048*
X0217Y00486*
X02167Y00492*
X02161Y00496*
X02154Y00497*
G37*
G36*
X02099Y00496D02*
X02093Y00495D01*
X02087Y00491*
X02083Y00486*
X02082Y00479*
X02083Y00472*
X02087Y00467*
X02093Y00463*
X02099Y00462*
X02106Y00463*
X02111Y00467*
X02115Y00472*
X02117Y00479*
X02115Y00486*
X02111Y00491*
X02106Y00495*
X02099Y00496*
G37*
G36*
X00751Y00494D02*
X00745Y00492D01*
X00739Y00489*
X00735Y00483*
X00734Y00476*
X00735Y0047*
X00739Y00464*
X00745Y0046*
X00751Y00459*
X00758Y0046*
X00764Y00464*
X00767Y0047*
X00769Y00476*
X00767Y00483*
X00764Y00489*
X00758Y00492*
X00751Y00494*
G37*
G36*
X01605Y00472D02*
X01598Y00471D01*
X01592Y00467*
X01588Y00461*
X01587Y00455*
X01588Y00448*
X01589Y00447*
X01586Y00443*
X01582Y00444*
X01575Y00442*
X0157Y00439*
X01566Y00433*
X01565Y00426*
X01566Y0042*
X0157Y00414*
X01575Y0041*
X01582Y00409*
X01589Y0041*
X01594Y00414*
X01598Y0042*
X01599Y00426*
X01598Y00433*
X01598Y00433*
X01601Y00438*
X01605Y00437*
X01611Y00438*
X01614Y0044*
X01617Y00437*
X01615Y00433*
X01614Y00426*
X01615Y0042*
X01619Y00414*
X01624Y0041*
X01631Y00409*
X01638Y0041*
X01643Y00414*
X01647Y0042*
X01648Y00426*
X01647Y00433*
X01643Y00439*
X01638Y00442*
X01631Y00444*
X01624Y00442*
X01622Y0044*
X01618Y00444*
X01621Y00448*
X01622Y00455*
X01621Y00461*
X01617Y00467*
X01611Y00471*
X01605Y00472*
G37*
G36*
X01675D02*
X01668Y00471D01*
X01662Y00467*
X01658Y00461*
X01657Y00455*
X01658Y00448*
X01662Y00442*
X01668Y00438*
X01675Y00437*
X01681Y00438*
X01687Y00442*
X01691Y00448*
X01692Y00455*
X01691Y00461*
X01687Y00467*
X01681Y00471*
X01675Y00472*
G37*
G36*
X0018Y00459D02*
X00174Y00458D01*
X00168Y00454*
X00164Y00448*
X00163Y00442*
X00164Y00435*
X00168Y00429*
X00174Y00426*
X0018Y00424*
X00187Y00426*
X00193Y00429*
X00196Y00435*
X00198Y00442*
X00196Y00448*
X00193Y00454*
X00187Y00458*
X0018Y00459*
G37*
G36*
X0207Y00457D02*
X02063Y00455D01*
X02058Y00452*
X02054Y00446*
X02053Y00439*
X02054Y00433*
X02058Y00427*
X02063Y00423*
X0207Y00422*
X02077Y00423*
X02082Y00427*
X02086Y00433*
X02087Y00439*
X02086Y00446*
X02082Y00452*
X02077Y00455*
X0207Y00457*
G37*
G36*
X02589Y00455D02*
X02583Y00454D01*
X02577Y0045*
X02573Y00445*
X02572Y00438*
X02573Y00431*
X02577Y00426*
X02583Y00422*
X02589Y00421*
X02596Y00422*
X02602Y00426*
X02605Y00431*
X02607Y00438*
X02605Y00445*
X02602Y0045*
X02596Y00454*
X02589Y00455*
G37*
G36*
X02489D02*
X02483Y00454D01*
X02477Y0045*
X02473Y00445*
X02472Y00438*
X02473Y00431*
X02477Y00426*
X02483Y00422*
X02489Y00421*
X02496Y00422*
X02502Y00426*
X02505Y00431*
X02507Y00438*
X02505Y00445*
X02502Y0045*
X02496Y00454*
X02489Y00455*
G37*
G36*
X02389D02*
X02383Y00454D01*
X02377Y0045*
X02373Y00445*
X02372Y00438*
X02373Y00431*
X02377Y00426*
X02383Y00422*
X02389Y00421*
X02396Y00422*
X02402Y00426*
X02405Y00431*
X02407Y00438*
X02405Y00445*
X02402Y0045*
X02396Y00454*
X02389Y00455*
G37*
G36*
X02289D02*
X02283Y00454D01*
X02277Y0045*
X02273Y00445*
X02272Y00438*
X02273Y00431*
X02277Y00426*
X02283Y00422*
X02289Y00421*
X02296Y00422*
X02302Y00426*
X02305Y00431*
X02307Y00438*
X02305Y00445*
X02302Y0045*
X02296Y00454*
X02289Y00455*
G37*
G36*
X02189D02*
X02183Y00454D01*
X02177Y0045*
X02173Y00445*
X02172Y00438*
X02173Y00431*
X02177Y00426*
X02183Y00422*
X02189Y00421*
X02196Y00422*
X02202Y00426*
X02205Y00431*
X02207Y00438*
X02205Y00445*
X02202Y0045*
X02196Y00454*
X02189Y00455*
G37*
G36*
X02137Y00451D02*
X0213Y0045D01*
X02124Y00446*
X02121Y00441*
X02119Y00434*
X02121Y00427*
X02124Y00422*
X0213Y00418*
X02137Y00417*
X02143Y00418*
X02149Y00422*
X02153Y00427*
X02154Y00434*
X02153Y00441*
X02149Y00446*
X02143Y0045*
X02137Y00451*
G37*
G36*
X00749Y00445D02*
X00742Y00443D01*
X00737Y0044*
X00733Y00434*
X00732Y00427*
X00733Y00421*
X00737Y00415*
X00742Y00411*
X00749Y0041*
X00756Y00411*
X00761Y00415*
X00765Y00421*
X00766Y00427*
X00765Y00434*
X00761Y0044*
X00756Y00443*
X00749Y00445*
G37*
G36*
X02023Y00444D02*
X02016Y00442D01*
X02011Y00439*
X02007Y00433*
X02006Y00426*
X02007Y0042*
X02011Y00414*
X02016Y0041*
X02023Y00409*
X0203Y0041*
X02035Y00414*
X02039Y0042*
X0204Y00426*
X02039Y00433*
X02035Y00439*
X0203Y00442*
X02023Y00444*
G37*
G36*
X01974D02*
X01967Y00442D01*
X01962Y00439*
X01958Y00433*
X01957Y00426*
X01958Y0042*
X01962Y00414*
X01967Y0041*
X01974Y00409*
X01981Y0041*
X01986Y00414*
X0199Y0042*
X01991Y00426*
X0199Y00433*
X01986Y00439*
X01981Y00442*
X01974Y00444*
G37*
G36*
X01925D02*
X01918Y00442D01*
X01913Y00439*
X01909Y00433*
X01908Y00426*
X01909Y0042*
X01913Y00414*
X01918Y0041*
X01925Y00409*
X01932Y0041*
X01937Y00414*
X01941Y0042*
X01942Y00426*
X01941Y00433*
X01937Y00439*
X01932Y00442*
X01925Y00444*
G37*
G36*
X01876D02*
X01869Y00442D01*
X01864Y00439*
X0186Y00433*
X01859Y00426*
X0186Y0042*
X01864Y00414*
X01869Y0041*
X01876Y00409*
X01883Y0041*
X01888Y00414*
X01892Y0042*
X01893Y00426*
X01892Y00433*
X01888Y00439*
X01883Y00442*
X01876Y00444*
G37*
G36*
X01827D02*
X0182Y00442D01*
X01815Y00439*
X01811Y00433*
X0181Y00426*
X01811Y0042*
X01815Y00414*
X0182Y0041*
X01827Y00409*
X01834Y0041*
X01839Y00414*
X01843Y0042*
X01844Y00426*
X01843Y00433*
X01839Y00439*
X01834Y00442*
X01827Y00444*
G37*
G36*
X01484D02*
X01477Y00442D01*
X01472Y00439*
X01468Y00433*
X01467Y00426*
X01468Y0042*
X01472Y00414*
X01477Y0041*
X01484Y00409*
X01491Y0041*
X01496Y00414*
X015Y0042*
X01501Y00426*
X015Y00433*
X01496Y00439*
X01491Y00442*
X01484Y00444*
G37*
G36*
X01435D02*
X01428Y00442D01*
X01423Y00439*
X01419Y00433*
X01418Y00426*
X01419Y0042*
X01423Y00414*
X01428Y0041*
X01435Y00409*
X01442Y0041*
X01447Y00414*
X01451Y0042*
X01452Y00426*
X01451Y00433*
X01447Y00439*
X01442Y00442*
X01435Y00444*
G37*
G36*
X01386D02*
X01379Y00442D01*
X01374Y00439*
X0137Y00433*
X01369Y00426*
X0137Y0042*
X01374Y00414*
X01379Y0041*
X01386Y00409*
X01393Y0041*
X01398Y00414*
X01402Y0042*
X01403Y00426*
X01402Y00433*
X01398Y00439*
X01393Y00442*
X01386Y00444*
G37*
G36*
X01337D02*
X0133Y00442D01*
X01325Y00439*
X01321Y00433*
X0132Y00426*
X01321Y0042*
X01325Y00414*
X0133Y0041*
X01337Y00409*
X01344Y0041*
X01349Y00414*
X01353Y0042*
X01354Y00426*
X01353Y00433*
X01349Y00439*
X01344Y00442*
X01337Y00444*
G37*
G36*
X01288D02*
X01281Y00442D01*
X01276Y00439*
X01272Y00433*
X01271Y00426*
X01272Y0042*
X01276Y00414*
X01281Y0041*
X01288Y00409*
X01295Y0041*
X013Y00414*
X01304Y0042*
X01305Y00426*
X01304Y00433*
X013Y00439*
X01295Y00442*
X01288Y00444*
G37*
G36*
X01141D02*
X01134Y00442D01*
X01129Y00439*
X01125Y00433*
X01124Y00426*
X01125Y0042*
X01129Y00414*
X01134Y0041*
X01141Y00409*
X01148Y0041*
X01153Y00414*
X01157Y0042*
X01158Y00426*
X01157Y00433*
X01153Y00439*
X01148Y00442*
X01141Y00444*
G37*
G36*
X01092D02*
X01085Y00442D01*
X0108Y00439*
X01076Y00433*
X01075Y00426*
X01076Y0042*
X0108Y00414*
X01085Y0041*
X01092Y00409*
X01099Y0041*
X01104Y00414*
X01108Y0042*
X01109Y00426*
X01108Y00433*
X01104Y00439*
X01099Y00442*
X01092Y00444*
G37*
G36*
X01043D02*
X01036Y00442D01*
X01031Y00439*
X01027Y00433*
X01026Y00426*
X01027Y0042*
X01031Y00414*
X01036Y0041*
X01043Y00409*
X0105Y0041*
X01055Y00414*
X01059Y0042*
X0106Y00426*
X01059Y00433*
X01055Y00439*
X0105Y00442*
X01043Y00444*
G37*
G36*
X00994D02*
X00987Y00442D01*
X00982Y00439*
X00978Y00433*
X00977Y00426*
X00978Y0042*
X00982Y00414*
X00987Y0041*
X00994Y00409*
X01001Y0041*
X01006Y00414*
X0101Y0042*
X01011Y00426*
X0101Y00433*
X01006Y00439*
X01001Y00442*
X00994Y00444*
G37*
G36*
X00945D02*
X00938Y00442D01*
X00933Y00439*
X00929Y00433*
X00928Y00426*
X00929Y0042*
X00933Y00414*
X00938Y0041*
X00945Y00409*
X00952Y0041*
X00957Y00414*
X00961Y0042*
X00962Y00426*
X00961Y00433*
X00957Y00439*
X00952Y00442*
X00945Y00444*
G37*
G36*
X00896D02*
X00889Y00442D01*
X00884Y00439*
X0088Y00433*
X00879Y00426*
X0088Y0042*
X00884Y00414*
X00889Y0041*
X00896Y00409*
X00903Y0041*
X00908Y00414*
X00912Y0042*
X00913Y00426*
X00912Y00433*
X00908Y00439*
X00903Y00442*
X00896Y00444*
G37*
G36*
X00847D02*
X0084Y00442D01*
X00835Y00439*
X00831Y00433*
X0083Y00426*
X00831Y0042*
X00835Y00414*
X0084Y0041*
X00847Y00409*
X00854Y0041*
X00859Y00414*
X00863Y0042*
X00864Y00426*
X00863Y00433*
X00859Y00439*
X00854Y00442*
X00847Y00444*
G37*
G36*
X00798D02*
X00791Y00442D01*
X00786Y00439*
X00782Y00433*
X00781Y00426*
X00782Y0042*
X00786Y00414*
X00791Y0041*
X00798Y00409*
X00805Y0041*
X0081Y00414*
X00814Y0042*
X00815Y00426*
X00814Y00433*
X0081Y00439*
X00805Y00442*
X00798Y00444*
G37*
G36*
X00668D02*
X00661Y00442D01*
X00656Y00439*
X00652Y00433*
X00651Y00426*
X00652Y0042*
X00656Y00414*
X00661Y0041*
X00668Y00409*
X00674Y0041*
X0068Y00414*
X00684Y0042*
X00685Y00426*
X00684Y00433*
X0068Y00439*
X00674Y00442*
X00668Y00444*
G37*
G36*
X00635Y00472D02*
X00628Y00471D01*
X00622Y00467*
X00618Y00461*
X00617Y00455*
X00618Y00448*
X00618Y00448*
X00616Y00443*
X00612Y00442*
X00607Y00439*
X00603Y00433*
X00602Y00426*
X00603Y0042*
X00607Y00414*
X00612Y0041*
X00619Y00409*
X00625Y0041*
X00631Y00414*
X00635Y0042*
X00636Y00426*
X00635Y00433*
X00635Y00433*
X00638Y00438*
X00641Y00438*
X00647Y00442*
X00651Y00448*
X00652Y00455*
X00651Y00461*
X00647Y00467*
X00641Y00471*
X00635Y00472*
G37*
G36*
X00472Y00444D02*
X00465Y00442D01*
X0046Y00439*
X00456Y00433*
X00455Y00426*
X00456Y0042*
X0046Y00414*
X00465Y0041*
X00472Y00409*
X00478Y0041*
X00484Y00414*
X00488Y0042*
X00489Y00426*
X00488Y00433*
X00484Y00439*
X00478Y00442*
X00472Y00444*
G37*
G36*
X00423D02*
X00416Y00442D01*
X00411Y00439*
X00407Y00433*
X00406Y00426*
X00407Y0042*
X00411Y00414*
X00416Y0041*
X00423Y00409*
X00429Y0041*
X00435Y00414*
X00439Y0042*
X0044Y00426*
X00439Y00433*
X00435Y00439*
X00429Y00442*
X00423Y00444*
G37*
G36*
X00374D02*
X00367Y00442D01*
X00362Y00439*
X00358Y00433*
X00357Y00426*
X00358Y0042*
X00362Y00414*
X00367Y0041*
X00374Y00409*
X0038Y0041*
X00386Y00414*
X0039Y0042*
X00391Y00426*
X0039Y00433*
X00386Y00439*
X0038Y00442*
X00374Y00444*
G37*
G36*
X00325D02*
X00318Y00442D01*
X00313Y00439*
X00309Y00433*
X00308Y00426*
X00309Y0042*
X00313Y00414*
X00318Y0041*
X00325Y00409*
X00331Y0041*
X00337Y00414*
X00341Y0042*
X00342Y00426*
X00341Y00433*
X00337Y00439*
X00331Y00442*
X00325Y00444*
G37*
G36*
X00276D02*
X00269Y00442D01*
X00264Y00439*
X0026Y00433*
X00259Y00426*
X0026Y0042*
X00264Y00414*
X00269Y0041*
X00276Y00409*
X00282Y0041*
X00288Y00414*
X00292Y0042*
X00293Y00426*
X00292Y00433*
X00288Y00439*
X00282Y00442*
X00276Y00444*
G37*
G36*
X00227D02*
X0022Y00442D01*
X00215Y00439*
X00211Y00433*
X0021Y00426*
X00211Y0042*
X00215Y00414*
X0022Y0041*
X00227Y00409*
X00233Y0041*
X00239Y00414*
X00243Y0042*
X00244Y00426*
X00243Y00433*
X00239Y00439*
X00233Y00442*
X00227Y00444*
G37*
G36*
X02104Y00415D02*
X02097Y00414D01*
X02091Y0041*
X02088Y00404*
X02086Y00398*
X02088Y00391*
X02091Y00386*
X02097Y00382*
X02104Y0038*
X0211Y00382*
X02116Y00386*
X0212Y00391*
X02121Y00398*
X0212Y00404*
X02116Y0041*
X0211Y00414*
X02104Y00415*
G37*
G36*
X00116Y00411D02*
X0011Y00409D01*
X00104Y00406*
X001Y004*
X00099Y00393*
X001Y00387*
X00104Y00381*
X0011Y00377*
X00116Y00376*
X00123Y00377*
X00129Y00381*
X00132Y00387*
X00134Y00393*
X00132Y004*
X00129Y00406*
X00123Y00409*
X00116Y00411*
G37*
G36*
X02059Y00394D02*
X02053Y00393D01*
X02047Y00389*
X02043Y00384*
X02042Y00377*
X02043Y0037*
X02047Y00365*
X02053Y00361*
X02059Y0036*
X02066Y00361*
X02071Y00365*
X02075Y0037*
X02077Y00377*
X02075Y00384*
X02071Y00389*
X02066Y00393*
X02059Y00394*
G37*
G36*
X0201Y0039D02*
X02004Y00389D01*
X01998Y00385*
X01994Y00379*
X01993Y00373*
X01994Y00366*
X01998Y0036*
X02004Y00357*
X0201Y00355*
X02017Y00357*
X02023Y0036*
X02026Y00366*
X02028Y00373*
X02026Y00379*
X02023Y00385*
X02017Y00389*
X0201Y0039*
G37*
G36*
X01961D02*
X01955Y00389D01*
X01949Y00385*
X01945Y00379*
X01944Y00373*
X01945Y00366*
X01949Y0036*
X01955Y00357*
X01961Y00355*
X01968Y00357*
X01974Y0036*
X01977Y00366*
X01979Y00373*
X01977Y00379*
X01974Y00385*
X01968Y00389*
X01961Y0039*
G37*
G36*
X01912D02*
X01906Y00389D01*
X019Y00385*
X01896Y00379*
X01895Y00373*
X01896Y00366*
X019Y0036*
X01906Y00357*
X01912Y00355*
X01919Y00357*
X01925Y0036*
X01928Y00366*
X0193Y00373*
X01928Y00379*
X01925Y00385*
X01919Y00389*
X01912Y0039*
G37*
G36*
X01863D02*
X01857Y00389D01*
X01851Y00385*
X01847Y00379*
X01846Y00373*
X01847Y00366*
X01851Y0036*
X01857Y00357*
X01863Y00355*
X0187Y00357*
X01876Y0036*
X01879Y00366*
X01881Y00373*
X01879Y00379*
X01876Y00385*
X0187Y00389*
X01863Y0039*
G37*
G36*
X01814D02*
X01808Y00389D01*
X01802Y00385*
X01798Y00379*
X01797Y00373*
X01798Y00366*
X01802Y0036*
X01808Y00357*
X01814Y00355*
X01821Y00357*
X01827Y0036*
X0183Y00366*
X01832Y00373*
X0183Y00379*
X01827Y00385*
X01821Y00389*
X01814Y0039*
G37*
G36*
X01765D02*
X01759Y00389D01*
X01753Y00385*
X01749Y00379*
X01748Y00373*
X01749Y00366*
X01753Y0036*
X01759Y00357*
X01765Y00355*
X01772Y00357*
X01778Y0036*
X01781Y00366*
X01783Y00373*
X01781Y00379*
X01778Y00385*
X01772Y00389*
X01765Y0039*
G37*
G36*
X01716D02*
X0171Y00389D01*
X01704Y00385*
X017Y00379*
X01699Y00373*
X017Y00366*
X01704Y0036*
X0171Y00357*
X01716Y00355*
X01723Y00357*
X01729Y0036*
X01732Y00366*
X01734Y00373*
X01732Y00379*
X01729Y00385*
X01723Y00389*
X01716Y0039*
G37*
G36*
X01667D02*
X01661Y00389D01*
X01655Y00385*
X01651Y00379*
X0165Y00373*
X01651Y00366*
X01655Y0036*
X01661Y00357*
X01667Y00355*
X01674Y00357*
X0168Y0036*
X01683Y00366*
X01685Y00373*
X01683Y00379*
X0168Y00385*
X01674Y00389*
X01667Y0039*
G37*
G36*
X01618D02*
X01612Y00389D01*
X01606Y00385*
X01602Y00379*
X01601Y00373*
X01602Y00366*
X01606Y0036*
X01612Y00357*
X01618Y00355*
X01625Y00357*
X01631Y0036*
X01634Y00366*
X01636Y00373*
X01634Y00379*
X01631Y00385*
X01625Y00389*
X01618Y0039*
G37*
G36*
X01569D02*
X01563Y00389D01*
X01557Y00385*
X01553Y00379*
X01552Y00373*
X01553Y00366*
X01557Y0036*
X01563Y00357*
X01569Y00355*
X01576Y00357*
X01582Y0036*
X01585Y00366*
X01587Y00373*
X01585Y00379*
X01582Y00385*
X01576Y00389*
X01569Y0039*
G37*
G36*
X0152D02*
X01514Y00389D01*
X01508Y00385*
X01504Y00379*
X01503Y00373*
X01504Y00366*
X01508Y0036*
X01514Y00357*
X0152Y00355*
X01527Y00357*
X01533Y0036*
X01536Y00366*
X01538Y00373*
X01536Y00379*
X01533Y00385*
X01527Y00389*
X0152Y0039*
G37*
G36*
X01471D02*
X01465Y00389D01*
X01459Y00385*
X01455Y00379*
X01454Y00373*
X01455Y00366*
X01459Y0036*
X01465Y00357*
X01471Y00355*
X01478Y00357*
X01484Y0036*
X01487Y00366*
X01489Y00373*
X01487Y00379*
X01484Y00385*
X01478Y00389*
X01471Y0039*
G37*
G36*
X01373D02*
X01367Y00389D01*
X01361Y00385*
X01357Y00379*
X01356Y00373*
X01357Y00366*
X01361Y0036*
X01367Y00357*
X01373Y00355*
X0138Y00357*
X01386Y0036*
X01389Y00366*
X01391Y00373*
X01389Y00379*
X01386Y00385*
X0138Y00389*
X01373Y0039*
G37*
G36*
X01275D02*
X01269Y00389D01*
X01263Y00385*
X01259Y00379*
X01258Y00373*
X01259Y00366*
X01263Y0036*
X01269Y00357*
X01275Y00355*
X01282Y00357*
X01288Y0036*
X01291Y00366*
X01293Y00373*
X01291Y00379*
X01288Y00385*
X01282Y00389*
X01275Y0039*
G37*
G36*
X01177D02*
X01171Y00389D01*
X01165Y00385*
X01161Y00379*
X0116Y00373*
X01161Y00366*
X01165Y0036*
X01171Y00357*
X01177Y00355*
X01184Y00357*
X0119Y0036*
X01193Y00366*
X01195Y00373*
X01193Y00379*
X0119Y00385*
X01184Y00389*
X01177Y0039*
G37*
G36*
X01079D02*
X01073Y00389D01*
X01067Y00385*
X01063Y00379*
X01062Y00373*
X01063Y00366*
X01067Y0036*
X01073Y00357*
X01079Y00355*
X01086Y00357*
X01092Y0036*
X01095Y00366*
X01097Y00373*
X01095Y00379*
X01092Y00385*
X01086Y00389*
X01079Y0039*
G37*
G36*
X00981D02*
X00975Y00389D01*
X00969Y00385*
X00965Y00379*
X00964Y00373*
X00965Y00366*
X00969Y0036*
X00975Y00357*
X00981Y00355*
X00988Y00357*
X00994Y0036*
X00997Y00366*
X00999Y00373*
X00997Y00379*
X00994Y00385*
X00988Y00389*
X00981Y0039*
G37*
G36*
X00883D02*
X00877Y00389D01*
X00871Y00385*
X00867Y00379*
X00866Y00373*
X00867Y00366*
X00871Y0036*
X00877Y00357*
X00883Y00355*
X0089Y00357*
X00896Y0036*
X00899Y00366*
X00901Y00373*
X00899Y00379*
X00896Y00385*
X0089Y00389*
X00883Y0039*
G37*
G36*
X00785D02*
X00779Y00389D01*
X00773Y00385*
X00769Y00379*
X00768Y00373*
X00769Y00366*
X00773Y0036*
X00779Y00357*
X00785Y00355*
X00792Y00357*
X00798Y0036*
X00801Y00366*
X00803Y00373*
X00801Y00379*
X00798Y00385*
X00792Y00389*
X00785Y0039*
G37*
G36*
X00687D02*
X00681Y00389D01*
X00675Y00385*
X00671Y00379*
X0067Y00373*
X00671Y00366*
X00675Y0036*
X00681Y00357*
X00687Y00355*
X00694Y00357*
X007Y0036*
X00703Y00366*
X00705Y00373*
X00703Y00379*
X007Y00385*
X00694Y00389*
X00687Y0039*
G37*
G36*
X00589D02*
X00583Y00389D01*
X00577Y00385*
X00573Y00379*
X00572Y00373*
X00573Y00366*
X00577Y0036*
X00583Y00357*
X00589Y00355*
X00596Y00357*
X00602Y0036*
X00605Y00366*
X00607Y00373*
X00605Y00379*
X00602Y00385*
X00596Y00389*
X00589Y0039*
G37*
G36*
X00491D02*
X00485Y00389D01*
X00479Y00385*
X00475Y00379*
X00474Y00373*
X00475Y00366*
X00479Y0036*
X00485Y00357*
X00491Y00355*
X00498Y00357*
X00504Y0036*
X00507Y00366*
X00509Y00373*
X00507Y00379*
X00504Y00385*
X00498Y00389*
X00491Y0039*
G37*
G36*
X00393D02*
X00387Y00389D01*
X00381Y00385*
X00377Y00379*
X00376Y00373*
X00377Y00366*
X00381Y0036*
X00387Y00357*
X00393Y00355*
X004Y00357*
X00406Y0036*
X00409Y00366*
X00411Y00373*
X00409Y00379*
X00406Y00385*
X004Y00389*
X00393Y0039*
G37*
G36*
X00295D02*
X00289Y00389D01*
X00283Y00385*
X00279Y00379*
X00278Y00373*
X00279Y00366*
X00283Y0036*
X00289Y00357*
X00295Y00355*
X00302Y00357*
X00308Y0036*
X00311Y00366*
X00313Y00373*
X00311Y00379*
X00308Y00385*
X00302Y00389*
X00295Y0039*
G37*
G36*
X00198Y00384D02*
X00191Y00383D01*
X00186Y00379*
X00182Y00373*
X0018Y00367*
X00182Y0036*
X00186Y00354*
X00191Y0035*
X00198Y00349*
X00204Y0035*
X0021Y00354*
X00214Y0036*
X00215Y00367*
X00214Y00373*
X0021Y00379*
X00204Y00383*
X00198Y00384*
G37*
G36*
X02639Y00355D02*
X02633Y00354D01*
X02627Y0035*
X02623Y00345*
X02622Y00338*
X02623Y00331*
X02627Y00326*
X02633Y00322*
X02639Y00321*
X02646Y00322*
X02652Y00326*
X02655Y00331*
X02657Y00338*
X02655Y00345*
X02652Y0035*
X02646Y00354*
X02639Y00355*
G37*
G36*
X02539D02*
X02533Y00354D01*
X02527Y0035*
X02523Y00345*
X02522Y00338*
X02523Y00331*
X02527Y00326*
X02533Y00322*
X02539Y00321*
X02546Y00322*
X02552Y00326*
X02555Y00331*
X02557Y00338*
X02555Y00345*
X02552Y0035*
X02546Y00354*
X02539Y00355*
G37*
G36*
X02339D02*
X02333Y00354D01*
X02327Y0035*
X02323Y00345*
X02322Y00338*
X02323Y00331*
X02327Y00326*
X02333Y00322*
X02339Y00321*
X02346Y00322*
X02352Y00326*
X02355Y00331*
X02357Y00338*
X02355Y00345*
X02352Y0035*
X02346Y00354*
X02339Y00355*
G37*
G36*
X02239D02*
X02233Y00354D01*
X02227Y0035*
X02223Y00345*
X02222Y00338*
X02223Y00331*
X02227Y00326*
X02233Y00322*
X02239Y00321*
X02246Y00322*
X02252Y00326*
X02255Y00331*
X02257Y00338*
X02255Y00345*
X02252Y0035*
X02246Y00354*
X02239Y00355*
G37*
G36*
X02139D02*
X02133Y00354D01*
X02127Y0035*
X02123Y00345*
X02122Y00338*
X02123Y00331*
X02127Y00326*
X02133Y00322*
X02139Y00321*
X02146Y00322*
X02152Y00326*
X02155Y00331*
X02157Y00338*
X02155Y00345*
X02152Y0035*
X02146Y00354*
X02139Y00355*
G37*
G36*
X02039D02*
X02033Y00354D01*
X02027Y0035*
X02023Y00345*
X02022Y00338*
X02023Y00331*
X02027Y00326*
X02033Y00322*
X02039Y00321*
X02046Y00322*
X02052Y00326*
X02055Y00331*
X02057Y00338*
X02055Y00345*
X02052Y0035*
X02046Y00354*
X02039Y00355*
G37*
G36*
X01939D02*
X01933Y00354D01*
X01927Y0035*
X01923Y00345*
X01922Y00338*
X01923Y00331*
X01927Y00326*
X01933Y00322*
X01939Y00321*
X01946Y00322*
X01952Y00326*
X01955Y00331*
X01957Y00338*
X01955Y00345*
X01952Y0035*
X01946Y00354*
X01939Y00355*
G37*
G36*
X01839D02*
X01833Y00354D01*
X01827Y0035*
X01823Y00345*
X01822Y00338*
X01823Y00331*
X01827Y00326*
X01833Y00322*
X01839Y00321*
X01846Y00322*
X01852Y00326*
X01855Y00331*
X01857Y00338*
X01855Y00345*
X01852Y0035*
X01846Y00354*
X01839Y00355*
G37*
G36*
X01739D02*
X01733Y00354D01*
X01727Y0035*
X01723Y00345*
X01722Y00338*
X01723Y00331*
X01727Y00326*
X01733Y00322*
X01739Y00321*
X01746Y00322*
X01752Y00326*
X01755Y00331*
X01757Y00338*
X01755Y00345*
X01752Y0035*
X01746Y00354*
X01739Y00355*
G37*
G36*
X01639D02*
X01633Y00354D01*
X01627Y0035*
X01623Y00345*
X01622Y00338*
X01623Y00331*
X01627Y00326*
X01633Y00322*
X01639Y00321*
X01646Y00322*
X01652Y00326*
X01655Y00331*
X01657Y00338*
X01655Y00345*
X01652Y0035*
X01646Y00354*
X01639Y00355*
G37*
G36*
X01539D02*
X01533Y00354D01*
X01527Y0035*
X01523Y00345*
X01522Y00338*
X01523Y00331*
X01527Y00326*
X01533Y00322*
X01539Y00321*
X01546Y00322*
X01552Y00326*
X01555Y00331*
X01557Y00338*
X01555Y00345*
X01552Y0035*
X01546Y00354*
X01539Y00355*
G37*
G36*
X01422Y0039D02*
X01416Y00389D01*
X0141Y00385*
X01406Y00379*
X01405Y00373*
X01406Y00366*
X0141Y0036*
X01416Y00357*
X01422Y00355*
X01427Y00356*
X01429Y00352*
X01427Y0035*
X01423Y00345*
X01422Y00338*
X01423Y00331*
X01427Y00326*
X01433Y00322*
X01439Y00321*
X01446Y00322*
X01452Y00326*
X01455Y00331*
X01457Y00338*
X01455Y00345*
X01452Y0035*
X01446Y00354*
X01439Y00355*
X01435Y00355*
X01433Y00359*
X01435Y0036*
X01438Y00366*
X0144Y00373*
X01438Y00379*
X01435Y00385*
X01429Y00389*
X01422Y0039*
G37*
G36*
X01324D02*
X01318Y00389D01*
X01312Y00385*
X01308Y00379*
X01307Y00373*
X01308Y00366*
X01312Y0036*
X01318Y00357*
X01324Y00355*
X01326Y00356*
X01328Y00351*
X01327Y0035*
X01323Y00345*
X01322Y00338*
X01323Y00331*
X01327Y00326*
X01333Y00322*
X01339Y00321*
X01346Y00322*
X01352Y00326*
X01355Y00331*
X01357Y00338*
X01355Y00345*
X01352Y0035*
X01346Y00354*
X01339Y00355*
X01338Y00355*
X01336Y0036*
X01337Y0036*
X0134Y00366*
X01342Y00373*
X0134Y00379*
X01337Y00385*
X01331Y00389*
X01324Y0039*
G37*
G36*
X01226D02*
X0122Y00389D01*
X01214Y00385*
X0121Y00379*
X01209Y00373*
X0121Y00366*
X01214Y0036*
X0122Y00357*
X01226Y00356*
X01227Y00354*
X01227Y00351*
X01227Y0035*
X01223Y00345*
X01222Y00338*
X01223Y00331*
X01227Y00326*
X01233Y00322*
X01239Y00321*
X01246Y00322*
X01252Y00326*
X01255Y00331*
X01257Y00338*
X01255Y00345*
X01252Y0035*
X01246Y00354*
X0124Y00355*
X01239Y00357*
X01238Y0036*
X01239Y0036*
X01242Y00366*
X01244Y00373*
X01242Y00379*
X01239Y00385*
X01233Y00389*
X01226Y0039*
G37*
G36*
X01128D02*
X01122Y00389D01*
X01116Y00385*
X01112Y00379*
X01111Y00373*
X01112Y00366*
X01116Y0036*
X01122Y00357*
X01126Y00356*
X01127Y00351*
X01127Y0035*
X01123Y00345*
X01122Y00338*
X01123Y00331*
X01127Y00326*
X01133Y00322*
X01139Y00321*
X01146Y00322*
X01152Y00326*
X01155Y00331*
X01157Y00338*
X01155Y00345*
X01152Y0035*
X01146Y00354*
X01141Y00355*
X0114Y0036*
X01141Y0036*
X01144Y00366*
X01146Y00373*
X01144Y00379*
X01141Y00385*
X01135Y00389*
X01128Y0039*
G37*
G36*
X0103D02*
X01024Y00389D01*
X01018Y00385*
X01014Y00379*
X01013Y00373*
X01014Y00366*
X01018Y0036*
X01024Y00357*
X01027Y00356*
X01028Y00351*
X01027Y0035*
X01023Y00345*
X01022Y00338*
X01023Y00331*
X01027Y00326*
X01033Y00322*
X01039Y00321*
X01046Y00322*
X01052Y00326*
X01055Y00331*
X01057Y00338*
X01055Y00345*
X01052Y0035*
X01046Y00354*
X01043Y00355*
X01042Y0036*
X01043Y0036*
X01046Y00366*
X01048Y00373*
X01046Y00379*
X01043Y00385*
X01037Y00389*
X0103Y0039*
G37*
G36*
X00932D02*
X00926Y00389D01*
X0092Y00385*
X00916Y00379*
X00915Y00373*
X00916Y00366*
X0092Y0036*
X00926Y00357*
X00927Y00356*
X00928Y00351*
X00927Y0035*
X00923Y00345*
X00922Y00338*
X00923Y00331*
X00927Y00326*
X00933Y00322*
X00939Y00321*
X00946Y00322*
X00952Y00326*
X00955Y00331*
X00957Y00338*
X00955Y00345*
X00952Y0035*
X00946Y00354*
X00944Y00354*
X00943Y0036*
X00945Y0036*
X00948Y00366*
X0095Y00373*
X00948Y00379*
X00945Y00385*
X00939Y00389*
X00932Y0039*
G37*
G36*
X00834D02*
X00828Y00389D01*
X00822Y00385*
X00818Y00379*
X00817Y00373*
X00818Y00366*
X00822Y0036*
X00828Y00357*
X00829Y00351*
X00827Y0035*
X00823Y00345*
X00822Y00338*
X00823Y00331*
X00827Y00326*
X00833Y00322*
X00839Y00321*
X00846Y00322*
X00852Y00326*
X00855Y00331*
X00857Y00338*
X00855Y00345*
X00852Y0035*
X00846Y00354*
X00845Y00359*
X00847Y0036*
X0085Y00366*
X00852Y00373*
X0085Y00379*
X00847Y00385*
X00841Y00389*
X00834Y0039*
G37*
G36*
X00736D02*
X0073Y00389D01*
X00724Y00385*
X0072Y00379*
X00719Y00373*
X0072Y00366*
X00724Y0036*
X00729Y00357*
X00729Y00353*
X00729Y00352*
X00727Y0035*
X00723Y00345*
X00722Y00338*
X00723Y00331*
X00727Y00326*
X00733Y00322*
X00739Y00321*
X00746Y00322*
X00752Y00326*
X00755Y00331*
X00757Y00338*
X00755Y00345*
X00752Y0035*
X00747Y00353*
X00746Y00357*
X00747Y00359*
X00749Y0036*
X00752Y00366*
X00754Y00373*
X00752Y00379*
X00749Y00385*
X00743Y00389*
X00736Y0039*
G37*
G36*
X00638D02*
X00632Y00389D01*
X00626Y00385*
X00622Y00379*
X00621Y00373*
X00622Y00366*
X00626Y0036*
X0063Y00358*
X0063Y00352*
X0063Y00352*
X00627Y0035*
X00623Y00345*
X00622Y00338*
X00623Y00331*
X00627Y00326*
X00633Y00322*
X00639Y00321*
X00646Y00322*
X00652Y00326*
X00655Y00331*
X00657Y00338*
X00655Y00345*
X00652Y0035*
X00648Y00353*
X00648Y00358*
X00648Y00358*
X00651Y0036*
X00654Y00366*
X00656Y00373*
X00654Y00379*
X00651Y00385*
X00645Y00389*
X00638Y0039*
G37*
G36*
X0054D02*
X00534Y00389D01*
X00528Y00385*
X00524Y00379*
X00523Y00373*
X00524Y00366*
X00528Y0036*
X00531Y00359*
X00531Y00358*
X00531Y00353*
X00527Y0035*
X00523Y00345*
X00522Y00338*
X00523Y00331*
X00527Y00326*
X00533Y00322*
X00539Y00321*
X00546Y00322*
X00552Y00326*
X00555Y00331*
X00557Y00338*
X00555Y00345*
X00552Y0035*
X00549Y00352*
X00549Y00352*
X00549Y00358*
X00553Y0036*
X00556Y00366*
X00558Y00373*
X00556Y00379*
X00553Y00385*
X00547Y00389*
X0054Y0039*
G37*
G36*
X00442D02*
X00436Y00389D01*
X0043Y00385*
X00426Y00379*
X00425Y00373*
X00426Y00366*
X0043Y0036*
X00432Y00359*
X00432Y00357*
X00432Y00353*
X00427Y0035*
X00423Y00345*
X00422Y00338*
X00423Y00331*
X00427Y00326*
X00433Y00322*
X00439Y00321*
X00446Y00322*
X00452Y00326*
X00455Y00331*
X00457Y00338*
X00455Y00345*
X00452Y0035*
X00449Y00352*
X00449Y00354*
X0045Y00357*
X00455Y0036*
X00458Y00366*
X0046Y00373*
X00458Y00379*
X00455Y00385*
X00449Y00389*
X00442Y0039*
G37*
G36*
X00344D02*
X00338Y00389D01*
X00332Y00385*
X00328Y00379*
X00327Y00373*
X00328Y00366*
X00332Y0036*
X00334Y00359*
X00333Y00354*
X00333*
X00327Y0035*
X00323Y00345*
X00322Y00338*
X00323Y00331*
X00327Y00326*
X00333Y00322*
X00339Y00321*
X00346Y00322*
X00352Y00326*
X00355Y00331*
X00357Y00338*
X00355Y00345*
X00352Y0035*
X0035Y00351*
X00351Y00357*
X00351Y00357*
X00357Y0036*
X0036Y00366*
X00362Y00373*
X0036Y00379*
X00357Y00385*
X00351Y00389*
X00344Y0039*
G37*
G36*
X00246D02*
X0024Y00389D01*
X00234Y00385*
X0023Y00379*
X00229Y00373*
X0023Y00366*
X00234Y0036*
X00235Y0036*
X00234Y00354*
X00233Y00354*
X00227Y0035*
X00223Y00345*
X00222Y00338*
X00223Y00331*
X00227Y00326*
X00233Y00322*
X00239Y00321*
X00246Y00322*
X00252Y00326*
X00255Y00331*
X00257Y00338*
X00255Y00345*
X00252Y0035*
X0025Y00351*
X00251Y00356*
X00253Y00357*
X00259Y0036*
X00262Y00366*
X00264Y00373*
X00262Y00379*
X00259Y00385*
X00253Y00389*
X00246Y0039*
G37*
G36*
X0013Y00312D02*
X00123Y00311D01*
X00117Y00307*
X00117Y00306*
X00112*
X00112Y00307*
X00106Y00311*
X001Y00312*
X00093Y00311*
X00087Y00307*
X00087Y00306*
X00082*
X00082Y00307*
X00076Y00311*
X0007Y00312*
X00063Y00311*
X00057Y00307*
X00053Y00301*
X00052Y00295*
X00053Y00288*
X00057Y00282*
X00063Y00278*
X0007Y00277*
X00076Y00278*
X00082Y00282*
X00082Y00283*
X00087*
X00087Y00282*
X00093Y00278*
X001Y00277*
X00106Y00278*
X00112Y00282*
X00112Y00283*
X00117*
X00117Y00282*
X00123Y00278*
X0013Y00277*
X00136Y00278*
X00142Y00282*
X00146Y00288*
X00147Y00295*
X00146Y00301*
X00142Y00307*
X00136Y00311*
X0013Y00312*
G37*
G36*
X02468Y00335D02*
X02461Y00334D01*
X02456Y0033*
X02452Y00325*
X02451Y00318*
X02452Y00311*
X02456Y00306*
X02461Y00302*
X02468Y00301*
X02475Y00302*
X0248Y00306*
X02484Y00311*
X02485Y00318*
X02484Y00325*
X0248Y0033*
X02475Y00334*
X02468Y00335*
G37*
G36*
X01044Y00276D02*
X01038Y00274D01*
X01032Y0027*
X01029Y00266*
X01025Y00265*
X01023Y00265*
X01022Y00267*
X01016Y00271*
X0101Y00272*
X01003Y00271*
X00998Y00267*
X00995Y00263*
X0099Y00263*
X00989Y00263*
X00987Y00267*
X00981Y00271*
X00975Y00272*
X00968Y00271*
X00962Y00267*
X00958Y00261*
X00957Y00255*
X00958Y00252*
X00956Y00247*
X00954Y00246*
X0095Y00246*
X00949Y00246*
X00948Y00247*
X00946Y00249*
X00947Y00255*
X00946Y00261*
X00942Y00267*
X00936Y00271*
X0093Y00272*
X00923Y00271*
X00917Y00267*
X00913Y00261*
X00912Y00255*
X00913Y00251*
X0091Y00247*
X00909Y00247*
X00903Y00246*
X00899Y00243*
X00897Y00242*
X00893Y00245*
X00896Y00248*
X00897Y00255*
X00896Y00261*
X00892Y00267*
X00886Y00271*
X0088Y00272*
X00873Y00271*
X00867Y00267*
X00863Y00261*
X00862Y00255*
X00863Y00252*
X00859Y00246*
X00858Y00246*
X00854Y00243*
X00852Y00242*
X00848Y00245*
X00851Y00248*
X00852Y00255*
X00851Y00261*
X00847Y00267*
X00841Y00271*
X00835Y00272*
X00828Y00271*
X00822Y00267*
X00818Y00261*
X00817Y00255*
X00818Y00252*
X00814Y00246*
X00813Y00246*
X00807Y00242*
X00803Y00236*
X00802Y0023*
X00803Y00223*
X00807Y00217*
X00813Y00213*
X0082Y00212*
X00826Y00213*
X00832Y00217*
X00836Y00223*
X00837Y0023*
X00836Y00232*
X0084Y00238*
X00841Y00238*
X00845Y00241*
X00847Y00242*
X00851Y00239*
X00848Y00236*
X00847Y0023*
X00848Y00223*
X00852Y00217*
X00858Y00213*
X00865Y00212*
X00871Y00213*
X00877Y00217*
X00881Y00223*
X00882Y0023*
X00881Y00232*
X00885Y00238*
X00886Y00238*
X0089Y00241*
X00892Y00242*
X00896Y00239*
X00893Y00236*
X00892Y0023*
X00893Y00223*
X00897Y00217*
X00903Y00213*
X0091Y00212*
X00916Y00213*
X00922Y00217*
X00926Y00223*
X00927Y0023*
X00926Y00233*
X00929Y00237*
X0093Y00237*
X00936Y00238*
X00936Y00238*
X00937Y00237*
X0094Y00235*
X00939Y0023*
X0094Y00223*
X00944Y00217*
X00949Y00213*
X00956Y00212*
X00963Y00213*
X00968Y00217*
X00972Y00223*
X00973Y0023*
X00973Y00232*
X00973Y00233*
X00974Y00233*
X00978Y0023*
X00979Y00229*
X0098Y00223*
X00984Y00217*
X00989Y00213*
X00996Y00212*
X01003Y00213*
X01008Y00217*
X01012Y00223*
X01013Y0023*
X01013Y0023*
X01016Y00234*
X01019Y0023*
X01019Y0023*
X0102Y00223*
X01024Y00217*
X01029Y00213*
X01036Y00212*
X01043Y00213*
X01048Y00217*
X01052Y00223*
X01053Y0023*
X01052Y00236*
X01051Y00237*
X01053Y00244*
X01057Y00246*
X0106Y00252*
X01062Y00258*
X0106Y00265*
X01057Y0027*
X01051Y00274*
X01044Y00276*
G37*
G36*
X0113Y00273D02*
X01124Y00272D01*
X01118Y00268*
X01115Y00263*
X01111Y00263*
X01109Y00263*
X01107Y00267*
X01101Y00271*
X01095Y00272*
X01088Y00271*
X01082Y00267*
X01078Y00261*
X01077Y00255*
X01078Y00248*
X0108Y00246*
X0108Y00241*
X01079Y00239*
X01075Y00237*
X01071Y00231*
X0107Y00225*
X01071Y00218*
X01075Y00212*
X0108Y00208*
X01087Y00207*
X01094Y00208*
X01099Y00212*
X011Y00214*
X01106*
X01107Y00212*
X01113Y00208*
X0112Y00207*
X01126Y00208*
X01132Y00212*
X01136Y00218*
X01137Y00225*
X01136Y00231*
X01134Y00234*
X01136Y00239*
X01137Y0024*
X01142Y00243*
X01144Y00246*
X01149Y00246*
X01152Y00241*
X01149Y00238*
X01147Y00237*
X01143Y00231*
X01142Y00225*
X01143Y00218*
X01147Y00212*
X01153Y00208*
X0116Y00207*
X01166Y00208*
X01172Y00212*
X01176Y00218*
X01177Y00225*
X01176Y00231*
X01173Y00234*
X01172Y00237*
X01175Y00241*
X01177Y00242*
X01181Y00248*
X01182Y00255*
X01181Y00261*
X01177Y00267*
X01171Y00271*
X01165Y00272*
X01158Y00271*
X01152Y00267*
X01151Y00264*
X01145Y00264*
X01142Y00268*
X01137Y00272*
X0113Y00273*
G37*
G36*
X00785Y00272D02*
X00778Y00271D01*
X00772Y00267*
X00768Y00261*
X00767Y00255*
X00768Y00252*
X00764Y00246*
X00763Y00246*
X00759Y00243*
X00757Y00242*
X00753Y00245*
X00756Y00248*
X00757Y00255*
X00756Y00261*
X00752Y00267*
X00746Y00271*
X0074Y00272*
X00733Y00271*
X00727Y00267*
X00723Y00261*
X00722Y00255*
X00723Y00252*
X00719Y00246*
X00718Y00246*
X00712Y00242*
X00708Y00236*
X00707Y0023*
X00708Y00223*
X00712Y00217*
X00718Y00213*
X00725Y00212*
X00731Y00213*
X00737Y00217*
X00741Y00223*
X00742Y0023*
X00741Y00232*
X00745Y00238*
X00746Y00238*
X0075Y00241*
X00752Y00242*
X00756Y00239*
X00753Y00236*
X00752Y0023*
X00753Y00223*
X00757Y00217*
X00763Y00213*
X0077Y00212*
X00776Y00213*
X00782Y00217*
X00786Y00223*
X00787Y0023*
X00786Y00232*
X0079Y00238*
X00791Y00238*
X00797Y00242*
X00801Y00248*
X00802Y00255*
X00801Y00261*
X00797Y00267*
X00791Y00271*
X00785Y00272*
G37*
G36*
X0069D02*
X00683Y00271D01*
X00677Y00267*
X00673Y00261*
X00672Y00255*
X00673Y00252*
X00669Y00246*
X00668Y00246*
X00664Y00243*
X00662Y00242*
X00658Y00245*
X00661Y00248*
X00662Y00255*
X00661Y00261*
X00657Y00267*
X00651Y00271*
X00645Y00272*
X00638Y00271*
X00632Y00267*
X00628Y00261*
X00627Y00255*
X00628Y00252*
X00624Y00246*
X00623Y00246*
X00617Y00242*
X00616Y0024*
X00611Y00242*
X00612Y00245*
X00611Y00251*
X00607Y00257*
X00601Y00261*
X00595Y00262*
X00588Y00261*
X00582Y00257*
X00578Y00251*
X00577Y00245*
X00578Y00238*
X00582Y00232*
X00588Y00228*
X00595Y00227*
X00601Y00228*
X00607Y00232*
X00608Y00234*
X00613Y00232*
X00612Y0023*
X00613Y00223*
X00617Y00217*
X00623Y00213*
X0063Y00212*
X00636Y00213*
X00642Y00217*
X00646Y00223*
X00647Y0023*
X00646Y00232*
X0065Y00238*
X00651Y00238*
X00655Y00241*
X00657Y00242*
X00661Y00239*
X00658Y00236*
X00657Y0023*
X00658Y00223*
X00662Y00217*
X00668Y00213*
X00675Y00212*
X00681Y00213*
X00687Y00217*
X00691Y00223*
X00692Y0023*
X00691Y00232*
X00695Y00238*
X00696Y00238*
X00702Y00242*
X00706Y00248*
X00707Y00255*
X00706Y00261*
X00702Y00267*
X00696Y00271*
X0069Y00272*
G37*
G36*
X02589Y00255D02*
X02583Y00254D01*
X02577Y0025*
X02573Y00245*
X02572Y00238*
X02573Y00231*
X02577Y00226*
X02583Y00222*
X02589Y00221*
X02596Y00222*
X02602Y00226*
X02605Y00231*
X02607Y00238*
X02605Y00245*
X02602Y0025*
X02596Y00254*
X02589Y00255*
G37*
G36*
X02289D02*
X02283Y00254D01*
X02277Y0025*
X02273Y00245*
X02272Y00238*
X02273Y00231*
X02277Y00226*
X02283Y00222*
X02289Y00221*
X02296Y00222*
X02302Y00226*
X02305Y00231*
X02307Y00238*
X02305Y00245*
X02302Y0025*
X02296Y00254*
X02289Y00255*
G37*
G36*
X02189D02*
X02183Y00254D01*
X02177Y0025*
X02173Y00245*
X02172Y00238*
X02173Y00231*
X02177Y00226*
X02183Y00222*
X02189Y00221*
X02196Y00222*
X02202Y00226*
X02205Y00231*
X02207Y00238*
X02205Y00245*
X02202Y0025*
X02196Y00254*
X02189Y00255*
G37*
G36*
X02089D02*
X02083Y00254D01*
X02077Y0025*
X02073Y00245*
X02072Y00238*
X02073Y00231*
X02077Y00226*
X02083Y00222*
X02089Y00221*
X02096Y00222*
X02102Y00226*
X02105Y00231*
X02107Y00238*
X02105Y00245*
X02102Y0025*
X02096Y00254*
X02089Y00255*
G37*
G36*
X01989D02*
X01983Y00254D01*
X01977Y0025*
X01973Y00245*
X01972Y00238*
X01973Y00231*
X01977Y00226*
X01983Y00222*
X01989Y00221*
X01996Y00222*
X02002Y00226*
X02005Y00231*
X02007Y00238*
X02005Y00245*
X02002Y0025*
X01996Y00254*
X01989Y00255*
G37*
G36*
X01889D02*
X01883Y00254D01*
X01877Y0025*
X01873Y00245*
X01872Y00238*
X01873Y00231*
X01877Y00226*
X01883Y00222*
X01889Y00221*
X01896Y00222*
X01902Y00226*
X01905Y00231*
X01907Y00238*
X01905Y00245*
X01902Y0025*
X01896Y00254*
X01889Y00255*
G37*
G36*
X01789D02*
X01783Y00254D01*
X01777Y0025*
X01773Y00245*
X01772Y00238*
X01773Y00231*
X01777Y00226*
X01783Y00222*
X01789Y00221*
X01796Y00222*
X01802Y00226*
X01805Y00231*
X01807Y00238*
X01805Y00245*
X01802Y0025*
X01796Y00254*
X01789Y00255*
G37*
G36*
X01689D02*
X01683Y00254D01*
X01677Y0025*
X01673Y00245*
X01672Y00238*
X01673Y00231*
X01677Y00226*
X01683Y00222*
X01689Y00221*
X01696Y00222*
X01702Y00226*
X01705Y00231*
X01707Y00238*
X01705Y00245*
X01702Y0025*
X01696Y00254*
X01689Y00255*
G37*
G36*
X01589D02*
X01583Y00254D01*
X01577Y0025*
X01573Y00245*
X01572Y00238*
X01573Y00231*
X01577Y00226*
X01583Y00222*
X01589Y00221*
X01596Y00222*
X01602Y00226*
X01605Y00231*
X01607Y00238*
X01605Y00245*
X01602Y0025*
X01596Y00254*
X01589Y00255*
G37*
G36*
X01489D02*
X01483Y00254D01*
X01477Y0025*
X01473Y00245*
X01472Y00238*
X01473Y00231*
X01477Y00226*
X01483Y00222*
X01489Y00221*
X01496Y00222*
X01502Y00226*
X01505Y00231*
X01507Y00238*
X01505Y00245*
X01502Y0025*
X01496Y00254*
X01489Y00255*
G37*
G36*
X00489D02*
X00483Y00254D01*
X00477Y0025*
X00473Y00245*
X00472Y00238*
X00473Y00231*
X00477Y00226*
X00483Y00222*
X00489Y00221*
X00496Y00222*
X00502Y00226*
X00505Y00231*
X00507Y00238*
X00505Y00245*
X00502Y0025*
X00496Y00254*
X00489Y00255*
G37*
G36*
X00389D02*
X00383Y00254D01*
X00377Y0025*
X00373Y00245*
X00372Y00238*
X00373Y00231*
X00377Y00226*
X00383Y00222*
X00389Y00221*
X00396Y00222*
X00402Y00226*
X00405Y00231*
X00407Y00238*
X00405Y00245*
X00402Y0025*
X00396Y00254*
X00389Y00255*
G37*
G36*
X00289D02*
X00283Y00254D01*
X00277Y0025*
X00273Y00245*
X00272Y00238*
X00273Y00231*
X00277Y00226*
X00283Y00222*
X00289Y00221*
X00296Y00222*
X00302Y00226*
X00305Y00231*
X00307Y00238*
X00305Y00245*
X00302Y0025*
X00296Y00254*
X00289Y00255*
G37*
G36*
X00189D02*
X00183Y00254D01*
X00177Y0025*
X00173Y00245*
X00172Y00238*
X00173Y00231*
X00177Y00226*
X00183Y00222*
X00189Y00221*
X00196Y00222*
X00202Y00226*
X00205Y00231*
X00207Y00238*
X00205Y00245*
X00202Y0025*
X00196Y00254*
X00189Y00255*
G37*
G36*
X00089D02*
X00083Y00254D01*
X00077Y0025*
X00073Y00245*
X00072Y00238*
X00073Y00231*
X00077Y00226*
X00083Y00222*
X00089Y00221*
X00096Y00222*
X00102Y00226*
X00105Y00231*
X00107Y00238*
X00105Y00245*
X00102Y0025*
X00096Y00254*
X00089Y00255*
G37*
G36*
X01305Y00272D02*
X01298Y00271D01*
X01292Y00267*
X01288Y00261*
X01287Y00255*
X01288Y00252*
X01284Y00246*
X01283Y00246*
X01277Y00242*
X01273Y00236*
X01272Y0023*
X01273Y00223*
X01277Y00217*
X01283Y00213*
X0129Y00212*
X01296Y00213*
X01302Y00217*
X01306Y00223*
X01307Y0023*
X01306Y00232*
X0131Y00238*
X01311Y00238*
X01317Y00242*
X01321Y00248*
X01322Y00255*
X01321Y00261*
X01317Y00267*
X01311Y00271*
X01305Y00272*
G37*
G36*
X01255D02*
X01248Y00271D01*
X01242Y00267*
X01238Y00261*
X01237Y00255*
X01238Y00252*
X01234Y00246*
X01233Y00246*
X01227Y00242*
X01223Y00236*
X01222Y0023*
X01223Y00223*
X01227Y00217*
X01233Y00213*
X0124Y00212*
X01246Y00213*
X01252Y00217*
X01256Y00223*
X01257Y0023*
X01256Y00232*
X0126Y00238*
X01261Y00238*
X01267Y00242*
X01271Y00248*
X01272Y00255*
X01271Y00261*
X01267Y00267*
X01261Y00271*
X01255Y00272*
G37*
G36*
X0121Y00274D02*
X01204Y00272D01*
X01198Y00269*
X01194Y00263*
X01193Y00256*
X01194Y00251*
X01193Y00246*
X01187Y00242*
X01183Y00236*
X01182Y0023*
X01183Y00223*
X01187Y00217*
X01193Y00213*
X012Y00212*
X01206Y00213*
X01212Y00217*
X01216Y00223*
X01217Y0023*
X01216Y00236*
X01218Y00241*
X01223Y00244*
X01226Y0025*
X01228Y00256*
X01226Y00263*
X01223Y00269*
X01217Y00272*
X0121Y00274*
G37*
G36*
X01355Y00257D02*
X01348Y00256D01*
X01342Y00252*
X01338Y00246*
X01337Y0024*
X01338Y00233*
X01342Y00227*
X01348Y00223*
X01355Y00222*
X0136Y00223*
X01361Y00223*
X01362Y00216*
X01366Y0021*
X01372Y00206*
X01378Y00205*
X01385Y00206*
X01391Y0021*
X01394Y00216*
X01396Y00223*
X01394Y00229*
X01391Y00235*
X01385Y00239*
X01378Y0024*
X01373Y00239*
X01372Y0024*
X01371Y00246*
X01367Y00252*
X01361Y00256*
X01355Y00257*
G37*
G36*
X0132Y00172D02*
X01313Y0017D01*
X01307Y00167*
X01304Y00161*
X01302Y00154*
X01303Y00151*
X01301Y0015*
X01297Y00152*
X01297Y00153*
X01296Y00159*
X01292Y00165*
X01286Y00169*
X0128Y0017*
X01273Y00169*
X01267Y00165*
X01263Y00159*
X01262Y00153*
X01263Y0015*
X01258Y00146*
X01255Y00147*
X01248Y00146*
X01242Y00142*
X01238Y00136*
X01237Y0013*
X01238Y00126*
X01237Y00125*
X01234Y00124*
X01232Y00126*
X01231Y00127*
X01232Y0013*
X01231Y00136*
X01227Y00142*
X01221Y00146*
X01215Y00147*
X01208Y00146*
X01205Y00144*
X01201Y00147*
X01202Y00152*
X01201Y00158*
X01197Y00164*
X01191Y00168*
X01185Y00169*
X01178Y00168*
X01172Y00164*
X01168Y00158*
X01167Y00152*
X01168Y0015*
X01165Y00147*
X01158Y00146*
X01152Y00142*
X01148Y00136*
X01147Y0013*
X01148Y00127*
X01144Y00121*
X01143Y00121*
X01139Y00118*
X01137Y00117*
X01133Y0012*
X01136Y00123*
X01137Y0013*
X01136Y00136*
X01132Y00142*
X01126Y00146*
X0112Y00147*
X01113Y00146*
X01112Y00145*
X01107Y00148*
X01108Y00152*
X01107Y00158*
X01103Y00164*
X01097Y00168*
X01091Y00169*
X01084Y00168*
X01078Y00164*
X01074Y00158*
X01073Y00152*
X01073Y0015*
X0107Y00147*
X0107Y00147*
X01063Y00146*
X01057Y00142*
X01053Y00136*
X01052Y0013*
X01053Y00127*
X01049Y00121*
X01048Y00121*
X01042Y00117*
X01038Y00111*
X01037Y00105*
X01038Y00098*
X01042Y00092*
X01048Y00088*
X01055Y00087*
X01061Y00088*
X01067Y00092*
X01071Y00098*
X01072Y00105*
X01071Y00107*
X01075Y00113*
X01076Y00113*
X01082Y00117*
X01086Y00123*
X01087Y0013*
X01087Y00131*
X0109Y00134*
X01091Y00134*
X01097Y00135*
X01098Y00136*
X01103Y00133*
X01102Y0013*
X01103Y00127*
X01099Y00121*
X01098Y00121*
X01092Y00117*
X01088Y00111*
X01087Y00105*
X01088Y00098*
X01092Y00092*
X01098Y00088*
X01105Y00087*
X01111Y00088*
X01117Y00092*
X01121Y00098*
X01122Y00105*
X01121Y00107*
X01125Y00113*
X01126Y00113*
X0113Y00116*
X01132Y00117*
X01136Y00114*
X01133Y00111*
X01132Y00105*
X01133Y00098*
X01137Y00092*
X01143Y00088*
X0115Y00087*
X01156Y00088*
X01162Y00092*
X01166Y00098*
X01167Y00105*
X01166Y00107*
X0117Y00113*
X01171Y00113*
X01175Y00116*
X01177Y00117*
X01181Y00114*
X01178Y00111*
X01177Y00105*
X01178Y00098*
X01182Y00092*
X01188Y00088*
X01195Y00087*
X01201Y00088*
X01207Y00092*
X01211Y00098*
X01212Y00105*
X01211Y00108*
X01214Y00112*
X01215Y00112*
X01219Y00113*
X01219Y00113*
X01223Y00109*
X01222Y00105*
X01223Y00098*
X01227Y00092*
X01233Y00088*
X01239Y00087*
X01246Y00088*
X01252Y00092*
X01255Y00098*
X01257Y00105*
X01255Y00111*
X01256Y00112*
X01261Y00113*
X01267Y00117*
X01271Y00123*
X01272Y0013*
X01271Y00132*
X01276Y00136*
X0128Y00135*
X01283Y00136*
X01288Y00132*
X01287Y0013*
X01288Y00123*
X01289Y00122*
X01287Y00118*
X01286Y00118*
X0128Y00114*
X01276Y00108*
X01275Y00102*
X01276Y00095*
X0128Y00089*
X01286Y00085*
X01293Y00084*
X01299Y00085*
X01305Y00089*
X01309Y00095*
X0131Y00102*
X01309Y00108*
X01308Y00109*
X0131Y00113*
X01311Y00113*
X01317Y00117*
X01319Y00121*
X01325*
X01327Y00117*
X01329Y00116*
X01328Y00111*
X01326Y00111*
X0132Y00107*
X01316Y00101*
X01315Y00095*
X01316Y00088*
X0132Y00082*
X01326Y00078*
X01333Y00077*
X01339Y00078*
X01345Y00082*
X01349Y00088*
X0135Y00094*
X0135Y00095*
X01355Y00096*
X01357Y00092*
X01363Y00088*
X0137Y00087*
X01376Y00088*
X01382Y00092*
X01386Y00098*
X01387Y00105*
X01386Y00111*
X01382Y00117*
X01376Y00121*
X0137Y00122*
X01363Y00121*
X01359Y00118*
X01357Y00117*
X01353Y0012*
X01356Y00123*
X01357Y0013*
X01356Y00136*
X01352Y00142*
X01346Y00146*
X0134Y00147*
X0134Y00147*
X01336Y00151*
X01337Y00154*
X01336Y00161*
X01332Y00167*
X01326Y0017*
X0132Y00172*
G37*
G36*
X00949Y00168D02*
X00942Y00167D01*
X00937Y00163*
X00933Y00158*
X00932Y00152*
X0093Y00147*
X0093Y00147*
X00923Y00146*
X00921Y00144*
X00917Y00148*
X00917Y0015*
X00916Y00157*
X00912Y00162*
X00907Y00166*
X009Y00167*
X00893Y00166*
X00888Y00162*
X00884Y00157*
X00883Y00151*
X00881Y00149*
X00878Y00147*
X00877Y00146*
X00872Y0015*
X00871Y00157*
X00867Y00162*
X00862Y00166*
X00855Y00167*
X00848Y00166*
X00843Y00162*
X00839Y00157*
X00838Y00151*
X00836Y00149*
X00833Y00147*
X00828Y00146*
X00824Y00149*
X00824Y0015*
X00823Y00156*
X00819Y00162*
X00813Y00166*
X00807Y00167*
X008Y00166*
X00794Y00162*
X0079Y00156*
X00789Y0015*
X00786Y00147*
X00785Y00147*
X00783Y00147*
X00778Y00149*
X00778Y0015*
X00777Y00156*
X00773Y00161*
X00768Y00165*
X00761Y00166*
X00754Y00165*
X00749Y00161*
X00745Y00156*
X00744Y0015*
X0074Y00147*
X00739Y00147*
X00734Y0015*
X00734Y00155*
X0073Y00161*
X00724Y00164*
X00717Y00166*
X00711Y00164*
X00705Y00161*
X00701Y00155*
X00701Y00151*
X00696Y00147*
X00695Y00147*
X00693Y00147*
X00688Y00151*
X00688Y00154*
X00684Y0016*
X00678Y00164*
X00672Y00165*
X00665Y00164*
X00659Y0016*
X00655Y00154*
X00655Y00153*
X00651Y00151*
X00645Y00152*
X00638Y00151*
X00632Y00147*
X00628Y00141*
X00627Y00135*
X00627Y00133*
X00624Y00129*
X00622Y00133*
X00623Y0014*
X00622Y00146*
X00618Y00152*
X00612Y00156*
X00606Y00157*
X00599Y00156*
X00593Y00152*
X00589Y00146*
X00588Y0014*
X00589Y00133*
X00593Y00127*
X00599Y00123*
X00606Y00122*
X00612Y00123*
X00613Y00124*
X00616Y0012*
X00613Y00116*
X00612Y0011*
X00613Y00103*
X00617Y00097*
X00623Y00093*
X0063Y00092*
X00636Y00093*
X00642Y00097*
X00646Y00103*
X00647Y0011*
X00646Y00112*
X0065Y00118*
X00651Y00118*
X00657Y00122*
X00661Y00128*
X00661Y00129*
X00665Y00131*
X00672Y0013*
X00673Y0013*
X00678Y00126*
X00674Y00121*
X00673Y00121*
X00667Y00117*
X00663Y00111*
X00662Y00105*
X00663Y00098*
X00667Y00092*
X00673Y00088*
X0068Y00087*
X00686Y00088*
X00692Y00092*
X00696Y00098*
X00697Y00105*
X00696Y00107*
X007Y00113*
X00701Y00113*
X00705Y00116*
X00707Y00117*
X00711Y00114*
X00708Y00111*
X00707Y00105*
X00708Y00098*
X00712Y00092*
X00718Y00088*
X00725Y00087*
X00731Y00088*
X00737Y00092*
X00741Y00098*
X00742Y00105*
X00741Y00107*
X00745Y00113*
X00746Y00113*
X0075Y00116*
X00752Y00117*
X00756Y00114*
X00753Y00111*
X00752Y00105*
X00753Y00098*
X00757Y00092*
X00763Y00088*
X0077Y00087*
X00776Y00088*
X00782Y00092*
X00786Y00098*
X00787Y00105*
X00786Y00107*
X0079Y00113*
X00791Y00113*
X00797Y00117*
X00801Y00123*
X00802Y0013*
X00805Y00133*
X00807Y00132*
X00813Y00133*
X00817Y0013*
X00817Y0013*
X00818Y00127*
X00814Y00121*
X00813Y00121*
X00807Y00117*
X00803Y00111*
X00802Y00105*
X00803Y00098*
X00807Y00092*
X00813Y00088*
X0082Y00087*
X00826Y00088*
X00832Y00092*
X00836Y00098*
X00837Y00105*
X00836Y00107*
X0084Y00113*
X00841Y00113*
X00845Y00116*
X00847Y00117*
X00851Y00114*
X00848Y00111*
X00847Y00105*
X00848Y00098*
X00852Y00092*
X00858Y00088*
X00865Y00087*
X00871Y00088*
X00877Y00092*
X00881Y00098*
X00882Y00105*
X00881Y00107*
X00885Y00113*
X00886Y00113*
X00892Y00117*
X00896Y00123*
X00897Y00128*
X00899Y00131*
X00901Y00133*
X00907Y00134*
X00908Y00135*
X00913Y00132*
X00912Y0013*
X00913Y00127*
X00909Y00121*
X00908Y00121*
X00902Y00117*
X00898Y00111*
X00897Y00105*
X00898Y00098*
X00902Y00092*
X00908Y00088*
X00915Y00087*
X00921Y00088*
X00927Y00092*
X00931Y00098*
X00932Y00105*
X00931Y00107*
X00935Y00113*
X00936Y00113*
X0094Y00116*
X00942Y00117*
X00946Y00114*
X00943Y00111*
X00942Y00105*
X00943Y00098*
X00947Y00092*
X00953Y00088*
X0096Y00087*
X00966Y00088*
X00972Y00092*
X00976Y00098*
X00977Y00105*
X00976Y00108*
X00979Y00112*
X0098Y00112*
X00984Y00113*
X00984Y00113*
X00988Y00109*
X00988Y00109*
X00987Y00105*
X00988Y00098*
X00992Y00092*
X00998Y00088*
X01005Y00087*
X01011Y00088*
X01017Y00092*
X01021Y00098*
X01022Y00105*
X01021Y00107*
X01025Y00113*
X01026Y00113*
X01032Y00117*
X01036Y00123*
X01037Y0013*
X01036Y00136*
X01032Y00142*
X01026Y00146*
X0102Y00147*
X01013Y00146*
X01007Y00142*
X01003Y00136*
X01002Y0013*
X01002Y00129*
X01Y00126*
X00997Y00129*
X00997Y0013*
X00996Y00136*
X00992Y00142*
X00986Y00146*
X0098Y00147*
X00973Y00146*
X0097Y00143*
X00965Y00146*
X00966Y00151*
X00965Y00158*
X00961Y00163*
X00955Y00167*
X00949Y00168*
G37*
G36*
X02639Y00155D02*
X02633Y00154D01*
X02627Y0015*
X02623Y00145*
X02622Y00138*
X02623Y00131*
X02627Y00126*
X02633Y00122*
X02639Y00121*
X02646Y00122*
X02652Y00126*
X02655Y00131*
X02657Y00138*
X02655Y00145*
X02652Y0015*
X02646Y00154*
X02639Y00155*
G37*
G36*
X02539D02*
X02533Y00154D01*
X02527Y0015*
X02523Y00145*
X02522Y00138*
X02523Y00131*
X02527Y00126*
X02533Y00122*
X02539Y00121*
X02546Y00122*
X02552Y00126*
X02555Y00131*
X02557Y00138*
X02555Y00145*
X02552Y0015*
X02546Y00154*
X02539Y00155*
G37*
G36*
X02339D02*
X02333Y00154D01*
X02327Y0015*
X02323Y00145*
X02322Y00138*
X02323Y00131*
X02327Y00126*
X02333Y00122*
X02339Y00121*
X02346Y00122*
X02352Y00126*
X02355Y00131*
X02357Y00138*
X02355Y00145*
X02352Y0015*
X02346Y00154*
X02339Y00155*
G37*
G36*
X02239D02*
X02233Y00154D01*
X02227Y0015*
X02223Y00145*
X02222Y00138*
X02223Y00131*
X02227Y00126*
X02233Y00122*
X02239Y00121*
X02246Y00122*
X02252Y00126*
X02255Y00131*
X02257Y00138*
X02255Y00145*
X02252Y0015*
X02246Y00154*
X02239Y00155*
G37*
G36*
X02139D02*
X02133Y00154D01*
X02127Y0015*
X02123Y00145*
X02122Y00138*
X02123Y00131*
X02127Y00126*
X02133Y00122*
X02139Y00121*
X02146Y00122*
X02152Y00126*
X02155Y00131*
X02157Y00138*
X02155Y00145*
X02152Y0015*
X02146Y00154*
X02139Y00155*
G37*
G36*
X01939D02*
X01933Y00154D01*
X01927Y0015*
X01923Y00145*
X01922Y00138*
X01923Y00131*
X01927Y00126*
X01933Y00122*
X01939Y00121*
X01946Y00122*
X01952Y00126*
X01955Y00131*
X01957Y00138*
X01955Y00145*
X01952Y0015*
X01946Y00154*
X01939Y00155*
G37*
G36*
X01439D02*
X01433Y00154D01*
X01427Y0015*
X01423Y00145*
X01422Y00138*
X01423Y00131*
X01427Y00126*
X01433Y00122*
X01439Y00121*
X01446Y00122*
X01452Y00126*
X01455Y00131*
X01457Y00138*
X01455Y00145*
X01452Y0015*
X01446Y00154*
X01439Y00155*
G37*
G36*
X00539D02*
X00533Y00154D01*
X00527Y0015*
X00523Y00145*
X00522Y00138*
X00523Y00131*
X00527Y00126*
X00533Y00122*
X00539Y00121*
X00546Y00122*
X00552Y00126*
X00555Y00131*
X00557Y00138*
X00555Y00145*
X00552Y0015*
X00546Y00154*
X00539Y00155*
G37*
G36*
X00439D02*
X00433Y00154D01*
X00427Y0015*
X00423Y00145*
X00422Y00138*
X00423Y00131*
X00427Y00126*
X00433Y00122*
X00439Y00121*
X00446Y00122*
X00452Y00126*
X00455Y00131*
X00457Y00138*
X00455Y00145*
X00452Y0015*
X00446Y00154*
X00439Y00155*
G37*
G36*
X00339D02*
X00333Y00154D01*
X00327Y0015*
X00323Y00145*
X00322Y00138*
X00323Y00131*
X00327Y00126*
X00333Y00122*
X00339Y00121*
X00346Y00122*
X00352Y00126*
X00355Y00131*
X00357Y00138*
X00355Y00145*
X00352Y0015*
X00346Y00154*
X00339Y00155*
G37*
G36*
X00239D02*
X00233Y00154D01*
X00227Y0015*
X00223Y00145*
X00222Y00138*
X00223Y00131*
X00227Y00126*
X00233Y00122*
X00239Y00121*
X00246Y00122*
X00252Y00126*
X00255Y00131*
X00257Y00138*
X00255Y00145*
X00252Y0015*
X00246Y00154*
X00239Y00155*
G37*
G36*
X00575Y00127D02*
X00568Y00126D01*
X00562Y00122*
X00558Y00116*
X00557Y0011*
X00558Y00103*
X00562Y00097*
X00568Y00093*
X00575Y00092*
X00581Y00093*
X00587Y00097*
X00591Y00103*
X00592Y0011*
X00591Y00116*
X00587Y00122*
X00581Y00126*
X00575Y00127*
G37*
G36*
X02027Y00196D02*
X02016Y00195D01*
X02005Y00191*
X01995Y00186*
X01986Y00179*
X01978Y0017*
X01973Y0016*
X0197Y00149*
X01969Y00137*
X0197Y00126*
X01973Y00115*
X01978Y00105*
X01986Y00096*
X01995Y00089*
X02005Y00083*
X02016Y0008*
X02027Y00079*
X02038Y0008*
X02049Y00083*
X0206Y00089*
X02068Y00096*
X02076Y00105*
X02081Y00115*
X02084Y00126*
X02085Y00137*
X02084Y00149*
X02081Y0016*
X02076Y0017*
X02068Y00179*
X0206Y00186*
X02049Y00191*
X02038Y00195*
X02027Y00196*
G37*
G36*
X00137D02*
X00126Y00195D01*
X00115Y00191*
X00105Y00186*
X00096Y00179*
X00089Y0017*
X00083Y0016*
X0008Y00149*
X00079Y00137*
X0008Y00126*
X00083Y00115*
X00089Y00105*
X00096Y00096*
X00105Y00089*
X00115Y00083*
X00126Y0008*
X00137Y00079*
X00149Y0008*
X0016Y00083*
X0017Y00089*
X00179Y00096*
X00186Y00105*
X00191Y00115*
X00195Y00126*
X00196Y00137*
X00195Y00149*
X00191Y0016*
X00186Y0017*
X00179Y00179*
X0017Y00186*
X0016Y00191*
X00149Y00195*
X00137Y00196*
G37*
%LNtime4cm4_modular-3*%
%LPD*%
G36*
X01535Y0136D02*
X01534Y01354D01*
X01533Y01354*
X01527Y0135*
X01523Y01345*
X01522Y01338*
X01523Y01331*
X01527Y01326*
X01533Y01322*
X01539Y01321*
X01546Y01322*
X01552Y01326*
X01555Y01331*
X01555Y01332*
X01561Y01334*
X01572Y01323*
X01577Y01319*
X01583Y01318*
X02414*
X0245Y01282*
Y01263*
X02448Y01261*
X02447Y01255*
X02448Y01248*
X02449Y01247*
Y01148*
X0245Y01142*
X02454Y01137*
X02511Y01079*
Y00841*
X02506Y0084*
X02506Y00841*
X02505Y00845*
X02502Y0085*
X02496Y00854*
X02489Y00855*
X02483Y00854*
X02477Y0085*
X02473Y00845*
X02472Y00838*
X02473Y00831*
X02477Y00826*
X02483Y00822*
X02489Y00821*
X02496Y00822*
X02502Y00826*
X02505Y00831*
X02506Y00835*
X02506Y00836*
X02511Y00836*
Y00744*
X02509Y00743*
X02506Y00742*
X02501Y00746*
X02495Y00747*
X02488Y00746*
X02482Y00742*
X0248Y00738*
X02474*
X02472Y00742*
X02466Y00746*
X0246Y00747*
X02453Y00746*
X02447Y00742*
X02445Y00738*
X02439*
X02437Y00742*
X02431Y00746*
X02425Y00747*
X02418Y00746*
X02412Y00742*
X0241Y00738*
X02404*
X02402Y00742*
X02396Y00746*
X0239Y00747*
X02383Y00746*
X02377Y00742*
X02373Y00736*
X02372Y0073*
X02373Y00723*
X02377Y00717*
X02383Y00713*
X0239Y00712*
X02396Y00713*
X02402Y00717*
X02404Y00721*
X0241*
X02412Y00717*
X02418Y00713*
X02425Y00712*
X02431Y00713*
X02437Y00717*
X02439Y00721*
X02445*
X02447Y00717*
X02453Y00713*
X0246Y00712*
X02466Y00713*
X02472Y00717*
X02474Y00721*
X0248*
X02482Y00717*
X02488Y00713*
X02495Y00712*
X02501Y00713*
X02506Y00717*
X02509Y00716*
X02511Y00715*
Y0062*
X02459Y00567*
X02455Y00562*
X02455Y00559*
X0245Y0056*
Y00572*
X02449Y00577*
X02445Y00582*
X02363Y00665*
Y00851*
X02435Y00924*
X02439Y00929*
X0244Y00935*
Y01247*
X02441Y01248*
X02442Y01255*
X02441Y01261*
X02437Y01267*
X02431Y01271*
X0243Y01271*
X02398Y01302*
X02393Y01306*
X02388Y01307*
X01521*
X01445Y01383*
X01447Y01387*
X01508*
X01535Y0136*
G37*
%LNtime4cm4_modular-4*%
%LPC*%
G36*
X02469Y01086D02*
X02462Y01085D01*
X02457Y01081*
X02453Y01075*
X02451Y01069*
X02453Y01062*
X02457Y01057*
X02462Y01053*
X02469Y01051*
X02475Y01053*
X02481Y01057*
X02485Y01062*
X02486Y01069*
X02485Y01075*
X02481Y01081*
X02475Y01085*
X02469Y01086*
G37*
G36*
X02389Y00855D02*
X02383Y00854D01*
X02377Y0085*
X02373Y00845*
X02372Y00838*
X02373Y00831*
X02377Y00826*
X02383Y00822*
X02389Y00821*
X02396Y00822*
X02402Y00826*
X02405Y00831*
X02407Y00838*
X02405Y00845*
X02402Y0085*
X02396Y00854*
X02389Y00855*
G37*
G36*
X0244Y00647D02*
X02433Y00646D01*
X02427Y00642*
X02423Y00636*
X02422Y0063*
X02423Y00623*
X02427Y00617*
X02433Y00613*
X0244Y00612*
X02446Y00613*
X02452Y00617*
X02456Y00623*
X02457Y0063*
X02456Y00636*
X02452Y00642*
X02446Y00646*
X0244Y00647*
G37*
%LNtime4cm4_modular-5*%
%LPD*%
G54D59*
X00718Y01311D03*
X00719Y01455D03*
X00746D03*
X00684Y01311D03*
Y01284D03*
X00718D03*
X0045Y00535D03*
X00325Y0134D03*
X0247Y0051D03*
X02435D03*
X02395D03*
X02465Y01255D03*
X02425D03*
X0238D03*
G54D60*
X0131Y0099D03*
X01455Y00525D03*
X0175Y00635D03*
X0132Y00505D03*
G54D61*
X02348Y00659D02*
Y00858D01*
X02425Y00935D02*
Y01255D01*
X02348Y00858D02*
X02425Y00935D01*
X02527Y00614D02*
Y01086D01*
X02465Y01148D02*
X02527Y01086D01*
X02465Y01148D02*
Y01255D01*
X00798Y01403D02*
X01514D01*
X00746Y01454D02*
X00798Y01403D01*
X00684Y01321D02*
X00741Y01378D01*
X01429*
X00684Y01311D02*
X00684Y01311D01*
Y01321*
X01514Y01403D02*
X01583Y01334D01*
X01429Y01378D02*
X01515Y01292D01*
X02388*
X00684Y01284D02*
Y01311D01*
X00719Y01455D02*
X00746D01*
X02388Y01292D02*
X02425Y01255D01*
X02435Y0051D02*
Y00572D01*
X02348Y00659D02*
X02435Y00572D01*
X0247Y0051D02*
Y00557D01*
X02527Y00614*
X02465Y01255D02*
X02465Y01255D01*
Y01288*
X02466Y01289*
X02421Y01334D02*
X02466Y01289D01*
X01583Y01334D02*
X02421D01*
M02*