%FSTAX23Y23*%
%MOIN*%
%SFA1B1*%

%IPPOS*%
%AMD25*
4,1,8,0.006900,0.020700,-0.006900,0.020700,-0.008900,0.018700,-0.008900,-0.018700,-0.006900,-0.020700,0.006900,-0.020700,0.008900,-0.018700,0.008900,0.018700,0.006900,0.020700,0.0*
1,1,0.003900,0.006900,0.018700*
1,1,0.003900,-0.006900,0.018700*
1,1,0.003900,-0.006900,-0.018700*
1,1,0.003900,0.006900,-0.018700*
%
%ADD18R,0.025590X0.023620*%
%ADD19R,0.043310X0.031500*%
%ADD20R,0.033470X0.031500*%
%ADD21R,0.078740X0.035430*%
%ADD22R,0.055120X0.027560*%
%ADD23R,0.055120X0.031500*%
%ADD24R,0.055120X0.031500*%
G04~CAMADD=25~8~0.0~0.0~177.2~413.4~19.5~0.0~15~0.0~0.0~0.0~0.0~0~0.0~0.0~0.0~0.0~0~0.0~0.0~0.0~0.0~177.2~413.4*
%ADD25D25*%
%ADD26R,0.035430X0.027560*%
%ADD27R,0.035430X0.029530*%
%ADD28R,0.029530X0.035430*%
%ADD29R,0.031500X0.039370*%
%ADD30R,0.035430X0.025590*%
%ADD31R,0.035430X0.033470*%
%ADD32R,0.007870X0.027560*%
%ADD33R,0.035670X0.033790*%
%ADD34R,0.039850X0.052410*%
%ADD35R,0.020470X0.011810*%
%ADD36R,0.007090X0.014960*%
%ADD37R,0.052410X0.039850*%
%LNtime4cm4_modular-1*%
%LPD*%
G54D18*
X00563Y00452D03*
Y00539D03*
Y00582D03*
Y00625D03*
Y00669D03*
Y00712D03*
Y00755D03*
Y00496D03*
Y00905D03*
Y00948D03*
Y00992D03*
Y01035D03*
Y01122D03*
Y01078D03*
X01207Y00496D03*
Y01078D03*
Y01122D03*
Y01035D03*
Y00992D03*
Y00948D03*
Y00905D03*
Y00755D03*
Y00712D03*
Y00669D03*
Y00625D03*
Y00582D03*
Y00539D03*
Y00452D03*
G54D19*
X00529Y00452D03*
Y00496D03*
Y00539D03*
Y00582D03*
Y00625D03*
Y00669D03*
Y00712D03*
Y00755D03*
Y00905D03*
Y00948D03*
Y01035D03*
Y01078D03*
Y01122D03*
Y00992D03*
X01241D03*
Y01122D03*
Y01078D03*
Y01035D03*
Y00948D03*
Y00905D03*
Y00755D03*
Y00712D03*
Y00669D03*
Y00625D03*
Y00582D03*
Y00539D03*
Y00496D03*
Y00452D03*
G54D20*
X0016Y009D03*
X0016Y004D03*
X0016Y01158D03*
X0016Y0065D03*
G54D21*
X001Y0084D03*
Y00959D03*
Y0034D03*
Y00459D03*
Y01099D03*
Y01217D03*
Y0059D03*
Y00709D03*
G54D22*
X01935Y0099D03*
Y00643D03*
X01561D03*
Y0099D03*
G54D23*
X01935Y00946D03*
Y00903D03*
Y0073D03*
Y00687D03*
X01561D03*
Y0073D03*
Y00903D03*
Y00946D03*
G54D24*
X01935Y0086D03*
X01935Y00816D03*
X01935Y00773D03*
X01561Y00773D03*
X01561Y00816D03*
X01561Y0086D03*
G54D25*
X00386Y00711D03*
X0036D03*
X00335D03*
Y00615D03*
X00386D03*
X00324Y01116D03*
X0035D03*
X00375D03*
Y01213D03*
X00324D03*
G54D26*
X0027Y00652D03*
Y00597D03*
Y009D03*
Y00955D03*
G54D27*
X0045Y00645D03*
Y00597D03*
X01675Y00495D03*
Y00542D03*
X01605Y00496D03*
Y00543D03*
G54D28*
X00373Y01295D03*
X00326D03*
X01368Y00575D03*
X01321D03*
G54D29*
X01495Y0116D03*
X01435D03*
X01435Y0124D03*
X01494D03*
G54D30*
X02035Y00865D03*
Y00807D03*
X004Y00945D03*
Y01002D03*
G54D31*
X0209Y0081D03*
Y00861D03*
G54D32*
X0137Y01518D03*
Y01397D03*
X01354Y01518D03*
Y01397D03*
X01338Y01518D03*
Y01397D03*
X01322Y01518D03*
Y01397D03*
X01307Y01518D03*
Y01397D03*
X01291Y01518D03*
Y01397D03*
X01275Y01518D03*
Y01397D03*
X01259Y01518D03*
Y01397D03*
X01244Y01518D03*
Y01397D03*
X01228Y01518D03*
Y01397D03*
X01212Y01518D03*
Y01397D03*
X01196Y01518D03*
Y01397D03*
X01181Y01518D03*
Y01397D03*
X01165Y01518D03*
Y01397D03*
X01149Y01518D03*
Y01397D03*
X01133Y01518D03*
Y01397D03*
X01118Y01518D03*
Y01397D03*
X01102Y01518D03*
Y01397D03*
X01086Y01518D03*
Y01397D03*
X0107Y01518D03*
Y01397D03*
X01055Y01518D03*
Y01397D03*
X01039Y01518D03*
Y01397D03*
X01023Y01518D03*
Y01397D03*
X01007Y01518D03*
Y01397D03*
X00992Y01518D03*
Y01397D03*
X00976Y01518D03*
Y01397D03*
X0096Y01518D03*
Y01397D03*
X00944Y01518D03*
Y01397D03*
X00929Y01518D03*
Y01397D03*
X00913Y01518D03*
Y01397D03*
X00897Y01518D03*
Y01397D03*
X00881Y01518D03*
Y01397D03*
X00866Y01518D03*
Y01397D03*
X0085Y01518D03*
Y01397D03*
X00834Y01518D03*
Y01397D03*
X00818Y01518D03*
Y01397D03*
X00803Y01518D03*
Y01397D03*
X00787Y01518D03*
Y01397D03*
X00771Y01518D03*
Y01397D03*
X00755Y01518D03*
Y01397D03*
X0074Y01518D03*
Y01397D03*
X00724Y01518D03*
Y01397D03*
X00708Y01518D03*
Y01397D03*
X00692Y01518D03*
Y01397D03*
X00677Y01518D03*
Y01397D03*
X00661Y01518D03*
Y01397D03*
X00645Y01518D03*
Y01397D03*
X00629Y01518D03*
Y01397D03*
X00614Y01518D03*
Y01397D03*
X00598Y01518D03*
Y01397D03*
X0137Y00183D03*
Y00062D03*
X01354Y00183D03*
Y00062D03*
X01338Y00183D03*
Y00062D03*
X01322Y00183D03*
Y00062D03*
X01307Y00183D03*
Y00062D03*
X01291Y00183D03*
Y00062D03*
X01275Y00183D03*
Y00062D03*
X01259Y00183D03*
Y00062D03*
X01244Y00183D03*
Y00062D03*
X01228Y00183D03*
Y00062D03*
X01212Y00183D03*
Y00062D03*
X01196Y00183D03*
Y00062D03*
X01181Y00183D03*
Y00062D03*
X01165Y00183D03*
Y00062D03*
X01149Y00183D03*
Y00062D03*
X01133Y00183D03*
Y00062D03*
X01118Y00183D03*
Y00062D03*
X01102Y00183D03*
Y00062D03*
X01086Y00183D03*
Y00062D03*
X0107Y00183D03*
Y00062D03*
X01055Y00183D03*
Y00062D03*
X01039Y00183D03*
Y00062D03*
X01023Y00183D03*
Y00062D03*
X01007Y00183D03*
Y00062D03*
X00992Y00183D03*
Y00062D03*
X00976Y00183D03*
Y00062D03*
X0096Y00183D03*
Y00062D03*
X00944Y00183D03*
Y00062D03*
X00929Y00183D03*
Y00062D03*
X00913Y00183D03*
Y00062D03*
X00897Y00183D03*
Y00062D03*
X00881Y00183D03*
Y00062D03*
X00866Y00183D03*
Y00062D03*
X0085Y00183D03*
Y00062D03*
X00834Y00183D03*
Y00062D03*
X00818Y00183D03*
Y00062D03*
X00803Y00183D03*
Y00062D03*
X00787Y00183D03*
Y00062D03*
X00771Y00183D03*
Y00062D03*
X00755Y00183D03*
Y00062D03*
X0074Y00183D03*
Y00062D03*
X00724Y00183D03*
Y00062D03*
X00708Y00183D03*
Y00062D03*
X00692Y00183D03*
Y00062D03*
X00677Y00183D03*
Y00062D03*
X00661Y00183D03*
Y00062D03*
X00645Y00183D03*
Y00062D03*
X00629Y00183D03*
Y00062D03*
X00614Y00183D03*
Y00062D03*
X00598Y00183D03*
Y00062D03*
G54D33*
X01465Y00815D03*
X01419D03*
X00442Y00875D03*
X00397D03*
G54D34*
X0175Y00466D03*
Y00525D03*
X01535Y00466D03*
Y00525D03*
G54D35*
X02496Y00162D03*
X02385D03*
Y00237D03*
X02496D03*
X02385Y00663D03*
X02496D03*
Y00588D03*
X02385D03*
X02496Y00911D03*
X02385D03*
Y00985D03*
X02496D03*
X02385Y01411D03*
X02496D03*
Y01337D03*
X02385D03*
G54D36*
X02413Y00164D03*
Y00236D03*
X02427Y00164D03*
Y00236D03*
X0244Y00164D03*
Y00236D03*
X02454Y00164D03*
Y00236D03*
X02468Y00164D03*
Y00236D03*
Y00662D03*
Y0059D03*
X02454Y00662D03*
Y0059D03*
X0244Y00662D03*
Y0059D03*
X02427Y00662D03*
Y0059D03*
X02413Y00662D03*
Y0059D03*
Y00912D03*
Y00984D03*
X02427Y00912D03*
Y00984D03*
X0244Y00912D03*
Y00984D03*
X02454Y00912D03*
Y00984D03*
X02468Y00912D03*
Y00984D03*
Y0141D03*
Y01338D03*
X02454Y0141D03*
Y01338D03*
X0244Y0141D03*
Y01338D03*
X02427Y0141D03*
Y01338D03*
X02413Y0141D03*
Y01338D03*
G54D37*
X01394Y00645D03*
X01335D03*
M02*