%FSTAX23Y23*%
%MOIN*%
%SFA1B1*%

%IPPOS*%
%ADD32R,0.007870X0.027560*%
%LNtime4cm4_modular-1*%
%LPD*%
G54D32*
X00598Y00062D03*
Y00183D03*
X00614Y00062D03*
Y00183D03*
X00629Y00062D03*
Y00183D03*
X00645Y00062D03*
Y00183D03*
X00661Y00062D03*
Y00183D03*
X00677Y00062D03*
Y00183D03*
X00692Y00062D03*
Y00183D03*
X00708Y00062D03*
Y00183D03*
X00724Y00062D03*
Y00183D03*
X0074Y00062D03*
Y00183D03*
X00755Y00062D03*
Y00183D03*
X00771Y00062D03*
Y00183D03*
X00787Y00062D03*
Y00183D03*
X00803Y00062D03*
Y00183D03*
X00818Y00062D03*
Y00183D03*
X00834Y00062D03*
Y00183D03*
X0085Y00062D03*
Y00183D03*
X00866Y00062D03*
Y00183D03*
X00881Y00062D03*
Y00183D03*
X00897Y00062D03*
Y00183D03*
X00913Y00062D03*
Y00183D03*
X00929Y00062D03*
Y00183D03*
X00944Y00062D03*
Y00183D03*
X0096Y00062D03*
Y00183D03*
X00976Y00062D03*
Y00183D03*
X00992Y00062D03*
Y00183D03*
X01007Y00062D03*
Y00183D03*
X01023Y00062D03*
Y00183D03*
X01039Y00062D03*
Y00183D03*
X01055Y00062D03*
Y00183D03*
X0107Y00062D03*
Y00183D03*
X01086Y00062D03*
Y00183D03*
X01102Y00062D03*
Y00183D03*
X01118Y00062D03*
Y00183D03*
X01133Y00062D03*
Y00183D03*
X01149Y00062D03*
Y00183D03*
X01165Y00062D03*
Y00183D03*
X01181Y00062D03*
Y00183D03*
X01196Y00062D03*
Y00183D03*
X01212Y00062D03*
Y00183D03*
X01228Y00062D03*
Y00183D03*
X01244Y00062D03*
Y00183D03*
X01259Y00062D03*
Y00183D03*
X01275Y00062D03*
Y00183D03*
X01291Y00062D03*
Y00183D03*
X01307Y00062D03*
Y00183D03*
X01322Y00062D03*
Y00183D03*
X01338Y00062D03*
Y00183D03*
X01354Y00062D03*
Y00183D03*
X0137Y00062D03*
Y00183D03*
X00598Y01397D03*
Y01518D03*
X00614Y01397D03*
Y01518D03*
X00629Y01397D03*
Y01518D03*
X00645Y01397D03*
Y01518D03*
X00661Y01397D03*
Y01518D03*
X00677Y01397D03*
Y01518D03*
X00692Y01397D03*
Y01518D03*
X00708Y01397D03*
Y01518D03*
X00724Y01397D03*
Y01518D03*
X0074Y01397D03*
Y01518D03*
X00755Y01397D03*
Y01518D03*
X00771Y01397D03*
Y01518D03*
X00787Y01397D03*
Y01518D03*
X00803Y01397D03*
Y01518D03*
X00818Y01397D03*
Y01518D03*
X00834Y01397D03*
Y01518D03*
X0085Y01397D03*
Y01518D03*
X00866Y01397D03*
Y01518D03*
X00881Y01397D03*
Y01518D03*
X00897Y01397D03*
Y01518D03*
X00913Y01397D03*
Y01518D03*
X00929Y01397D03*
Y01518D03*
X00944Y01397D03*
Y01518D03*
X0096Y01397D03*
Y01518D03*
X00976Y01397D03*
Y01518D03*
X00992Y01397D03*
Y01518D03*
X01007Y01397D03*
Y01518D03*
X01023Y01397D03*
Y01518D03*
X01039Y01397D03*
Y01518D03*
X01055Y01397D03*
Y01518D03*
X0107Y01397D03*
Y01518D03*
X01086Y01397D03*
Y01518D03*
X01102Y01397D03*
Y01518D03*
X01118Y01397D03*
Y01518D03*
X01133Y01397D03*
Y01518D03*
X01149Y01397D03*
Y01518D03*
X01165Y01397D03*
Y01518D03*
X01181Y01397D03*
Y01518D03*
X01196Y01397D03*
Y01518D03*
X01212Y01397D03*
Y01518D03*
X01228Y01397D03*
Y01518D03*
X01244Y01397D03*
Y01518D03*
X01259Y01397D03*
Y01518D03*
X01275Y01397D03*
Y01518D03*
X01291Y01397D03*
Y01518D03*
X01307Y01397D03*
Y01518D03*
X01322Y01397D03*
Y01518D03*
X01338Y01397D03*
Y01518D03*
X01354Y01397D03*
Y01518D03*
X0137Y01397D03*
Y01518D03*
M02*