%FSTAX23Y23*%
%MOIN*%
%SFA1B1*%

%IPPOS*%
%ADD61C,0.020000*%
%ADD63C,0.001970*%
%LNtime4cm4_modular-1*%
%LPD*%
G54D61*
X00008Y00072D02*
X00019Y00052D01*
X00034Y00034*
X00052Y00019*
X00072Y00008*
X00095Y00002*
X00118Y0*
X02608*
X02631Y00002*
X02653Y00008*
X02673Y00019*
X02691Y00034*
X02706Y00052*
X02717Y00072*
X02724Y00095*
X02726Y00118*
Y01456*
X02724Y01479D02*
X02726Y01456D01*
X02717Y01501D02*
X02724Y01479D01*
X02706Y01522D02*
X02717Y01501D01*
X02691Y0154D02*
X02706Y01522D01*
X02673Y01554D02*
X02691Y0154D01*
X02653Y01565D02*
X02673Y01554D01*
X02631Y01572D02*
X02653Y01565D01*
X02608Y01574D02*
X02631Y01572D01*
X00118Y01574D02*
X02608D01*
X00095Y01572D02*
X00118Y01574D01*
X00072Y01565D02*
X00095Y01572D01*
X00052Y01554D02*
X00072Y01565D01*
X00034Y0154D02*
X00052Y01554D01*
X00019Y01522D02*
X00034Y0154D01*
X00008Y01501D02*
X00019Y01522D01*
X00002Y01479D02*
X00008Y01501D01*
X0Y01456D02*
X00002Y01479D01*
X0Y00118D02*
Y01456D01*
Y00118D02*
X00002Y00095D01*
X00008Y00072*
X00095Y00002D02*
X00118Y0D01*
X00072Y00008D02*
X00095Y00002D01*
X00052Y00019D02*
X00072Y00008D01*
X00034Y00034D02*
X00052Y00019D01*
X00019Y00052D02*
X00034Y00034D01*
X00008Y00072D02*
X00019Y00052D01*
X00002Y00095D02*
X00008Y00072D01*
X0Y00118D02*
X00002Y00095D01*
X0Y00118D02*
Y01456D01*
X00002Y01479*
X00008Y01501*
X00019Y01522*
X00034Y0154*
X00052Y01554*
X00072Y01565*
X00095Y01572*
X00118Y01574*
X02608*
X02631Y01572*
X02653Y01565*
X02673Y01554*
X02691Y0154*
X02706Y01522*
X02717Y01501*
X02724Y01479*
X02726Y01456*
Y00118D02*
Y01456D01*
X02724Y00095D02*
X02726Y00118D01*
X02717Y00072D02*
X02724Y00095D01*
X02706Y00052D02*
X02717Y00072D01*
X02691Y00034D02*
X02706Y00052D01*
X02673Y00019D02*
X02691Y00034D01*
X02653Y00008D02*
X02673Y00019D01*
X02631Y00002D02*
X02653Y00008D01*
X02608Y0D02*
X02631Y00002D01*
X00118Y0D02*
X02618D01*
G54D63*
X00367Y00683D02*
X00357D01*
X00355Y00681*
Y00677*
X00357Y00675*
X00367*
X00365Y00671D02*
X00367Y00669D01*
Y00665*
X00365Y00663*
X00363*
X00361Y00665*
Y00667*
Y00665*
X00359Y00663*
X00357*
X00355Y00665*
Y00669*
X00357Y00671*
X00343Y01145D02*
X00353D01*
X00355Y01146*
Y0115*
X00353Y01152*
X00343*
X00355Y01162D02*
X00343D01*
X00349Y01156*
Y01164*
M02*