<svg xmlns="http://www.w3.org/2000/svg" viewBox="0 0 547.98 285.49"><defs><style>.cls-1{fill:#80bc00;}.cls-2{fill:none;stroke:#fff;stroke-miterlimit:10;stroke-width:3px;}.cls-3{fill:#fff;}</style></defs><g id="Layer_2" data-name="Layer 2"><g id="color_logo" data-name="color logo"><path d="M411.09,16.29h0A16.29,16.29,0,0,1,427.38,0h19.15a16.29,16.29,0,0,1,16.29,16.29h0a16.29,16.29,0,0,1-16.29,16.3H427.38A16.3,16.3,0,0,1,411.09,16.29Zm91,114.06a16.29,16.29,0,1,0,16.59,16.29A16.44,16.44,0,0,0,502.09,130.35Zm-446.24,121H93v-21A2.24,2.24,0,0,1,95.21,228h37.45a2.24,2.24,0,0,1,2.24,2.24v13.93a2.24,2.24,0,0,0,2.24,2.24h14.18a2.24,2.24,0,0,0,2.24-2.24V232.7a4.66,4.66,0,0,1,4.66-4.66h0a4.66,4.66,0,0,1,4.66,4.66v21a2.24,2.24,0,0,0,2.24,2.24h23.44a2.24,2.24,0,0,0,2.25-2.24V239.67a2.32,2.32,0,0,1,2.32-2.32h0a2.32,2.32,0,0,1,2.33,2.32v14.05A2.24,2.24,0,0,0,197.7,256h46.71a2.24,2.24,0,0,0,2.24-2.24V230.47a2.33,2.33,0,0,1,2.43-2.43l46.49.06H426.3c6.33,0,13.76-7.29,13.76-16.29h0a16.44,16.44,0,0,0-16.59-16.29H375.21a16.45,16.45,0,0,1-16.59-16.29h0a16.45,16.45,0,0,1,16.59-16.3h74.48a16.44,16.44,0,0,0,16.59-16.29h0a16.44,16.44,0,0,0-16.59-16.29H405.77a16.45,16.45,0,0,1-16.59-16.3h0a16.44,16.44,0,0,1,16.59-16.29H531.39a16.3,16.3,0,1,0,0-32.59H337.28a16.44,16.44,0,0,1-16.59-16.29h0a16.44,16.44,0,0,1,16.59-16.29h34a16.44,16.44,0,0,0,16.59-16.3A16.44,16.44,0,0,0,371.3,0H55.85V251.31Z"/><path d="M0,0V9.31H30.64a6.59,6.59,0,0,1,6.59,6.59V285.49h9.31V15a15,15,0,0,0-15-15Z"/><rect class="cls-1" x="52.29" y="99.76" width="27.72" height="27.72"/><circle cx="66.15" cy="113.62" r="9.24"/><rect class="cls-1" x="26.12" y="104.38" width="11.11" height="18.48"/><rect class="cls-1" x="46.54" y="104.38" width="5.75" height="18.48"/><rect class="cls-1" x="52.29" y="133.58" width="27.72" height="27.72"/><circle cx="66.15" cy="147.43" r="9.24"/><rect class="cls-1" x="26.12" y="138.2" width="11.11" height="18.48"/><rect class="cls-1" x="46.54" y="138.2" width="5.75" height="18.48"/><rect class="cls-1" x="52.29" y="167.39" width="27.72" height="27.72"/><circle cx="66.15" cy="181.25" r="9.24"/><rect class="cls-1" x="26.12" y="172.01" width="11.11" height="18.48"/><rect class="cls-1" x="46.54" y="172.01" width="5.75" height="18.48"/><rect class="cls-1" x="52.29" y="201.2" width="27.72" height="27.72"/><circle cx="66.15" cy="215.06" r="9.24"/><rect class="cls-1" x="26.12" y="205.82" width="11.11" height="18.48"/><rect class="cls-1" x="46.54" y="205.82" width="5.75" height="18.48"/><circle class="cls-2" cx="210.11" cy="117.23" r="95.12"/><rect x="86.7" y="56.8" width="183.62" height="63.16"/><rect x="174.12" y="116.2" width="170.03" height="63.16"/><path class="cls-3" d="M134.82,72.69a1.45,1.45,0,0,1-1.47,1.47h-11a1.48,1.48,0,0,0-1,.39,1.31,1.31,0,0,0-.43,1v38.26a1.56,1.56,0,0,1-.38,1.05,1.32,1.32,0,0,1-1,.42H108.67a1.44,1.44,0,0,1-1-.42,1.47,1.47,0,0,1-.43-1.05V75.56a1.39,1.39,0,0,0-.38-1,1.37,1.37,0,0,0-1-.39h-11a1.47,1.47,0,0,1-1.48-1.47V62.44A1.3,1.3,0,0,1,94.78,61h38.57a1.44,1.44,0,0,1,1.47,1.47Z"/><path class="cls-3" d="M151.8,113.82a1.3,1.3,0,0,1-1.47,1.47H139.62a1.31,1.31,0,0,1-1.48-1.47V62.44A1.31,1.31,0,0,1,139.62,61h10.71a1.3,1.3,0,0,1,1.47,1.47Z"/><path class="cls-3" d="M235.05,74v8.45c0,.21.13.32.39.32h22.12A1.45,1.45,0,0,1,259,84.25V92a1.31,1.31,0,0,1-1.47,1.48H235.44a.34.34,0,0,0-.39.38v8.39c0,.26.13.38.39.38h26a1.43,1.43,0,0,1,1,.43,1.41,1.41,0,0,1,.43,1.05v9.7a1.45,1.45,0,0,1-1.47,1.47H231.87a7.43,7.43,0,0,1-1.4-.15,4.17,4.17,0,0,1-1.32-.47L222,107.53a4.44,4.44,0,0,1-.47-1.32,7.34,7.34,0,0,1-.15-1.39V71.44a7.34,7.34,0,0,1,.15-1.39,4.44,4.44,0,0,1,.47-1.32l7.14-7.14a8.19,8.19,0,0,1,1.32-.43,5.77,5.77,0,0,1,1.4-.19h29.57a1.45,1.45,0,0,1,1.47,1.47v9.78a1.29,1.29,0,0,1-.43,1,1.48,1.48,0,0,1-1,.39h-26A.34.34,0,0,0,235.05,74Z"/><path class="cls-3" d="M153.58,133.55a1.31,1.31,0,0,0-.42,1V159.7a1.42,1.42,0,0,0,.42,1.05,1.47,1.47,0,0,0,1,.43h24.91a1.52,1.52,0,0,1,1.05.38,1.29,1.29,0,0,1,.43,1v10.25a1.45,1.45,0,0,1-1.48,1.47H150a7.34,7.34,0,0,1-1.39-.15,4.44,4.44,0,0,1-1.32-.47l-7.14-7.14a4.17,4.17,0,0,1-.47-1.32,7.35,7.35,0,0,1-.15-1.4V130.44a7.52,7.52,0,0,1,.15-1.4,4.2,4.2,0,0,1,.47-1.31l7.14-7.14c.36-.16.74-.3,1.12-.43a3.15,3.15,0,0,1,.9-.2h30.26a1.47,1.47,0,0,1,1.48,1.48v10.24a1.47,1.47,0,0,1-1.48,1.48H154.63A1.52,1.52,0,0,0,153.58,133.55Z"/><path class="cls-3" d="M285.76,173.05a.82.82,0,0,1,.08.89.94.94,0,0,1-.85.35H272.65a2.47,2.47,0,0,1-1.25-.35,2.42,2.42,0,0,1-.93-.89l-8.69-14.75a.57.57,0,0,0-.54-.31h-8.77a.34.34,0,0,0-.39.39v14.44a1.3,1.3,0,0,1-1.48,1.47H239.89a1.3,1.3,0,0,1-1.47-1.47V121.44a1.47,1.47,0,0,1,1.47-1.48H273.5a6.26,6.26,0,0,1,1.43.2,7.85,7.85,0,0,1,1.36.43l7.14,7.14a8.39,8.39,0,0,1,.43,1.31,5.83,5.83,0,0,1,.19,1.4v16.92a3.38,3.38,0,0,1-.23,1.13,7.37,7.37,0,0,1-.54,1.2l-7.14,7.3Zm-15.44-40.43H251.54v13.19h18.78V132.62Z"/><path class="cls-3" d="M336.58,127.73A8.39,8.39,0,0,1,337,129a5.83,5.83,0,0,1,.19,1.4v33.37a5.7,5.7,0,0,1-.19,1.4,8.19,8.19,0,0,1-.43,1.32l-7.14,7.14a4.41,4.41,0,0,1-1.36.47,8,8,0,0,1-1.43.15H293a1.3,1.3,0,0,1-1.47-1.47V121.44A1.45,1.45,0,0,1,293,120h33.61a6.26,6.26,0,0,1,1.43.2,7.85,7.85,0,0,1,1.36.43Zm-24.68,5.43h-6.67v28h18.23v-28H311.9Z"/><path class="cls-3" d="M197.45,61h-38A1.44,1.44,0,0,0,158,62.44v51.38a1.3,1.3,0,0,0,1.47,1.47h10.71a1.31,1.31,0,0,0,1.48-1.47V74.16h8.69v39.66a1.45,1.45,0,0,0,1.47,1.47h9.78a1.31,1.31,0,0,0,1-.42,1.52,1.52,0,0,0,.39-1.05V74.16h4.45Z"/><path class="cls-1" d="M215.16,40a8.19,8.19,0,0,0-.43-1.32l-7.14-7.14a8.82,8.82,0,0,0-1.36-.43A6.79,6.79,0,0,0,204.8,31h-3.11v82.67l-22.58,22.26-2.8,2.79a5.55,5.55,0,0,0-.85,1.13,8,8,0,0,0-.63,1.23v10.1a7.62,7.62,0,0,0,.65,1.26,7,7,0,0,0,.88,1.16l2.2,2.19,34.52-34.11a7.74,7.74,0,0,0,2.27-5.47V41.43A5.77,5.77,0,0,0,215.16,40Z"/><path class="cls-3" d="M232.73,129a7.85,7.85,0,0,0-.43-1.36l-7.14-7.14a7.85,7.85,0,0,0-1.36-.43,6.19,6.19,0,0,0-1.43-.19H220.1l-12.3,12.18h11.46v13.74H201v-5.53l-13.66,13.54v19a1.29,1.29,0,0,0,.43,1,1.48,1.48,0,0,0,1,.39h10.79a1.34,1.34,0,0,0,1.4-1.4v-14a1.28,1.28,0,0,1,.43-1,1.48,1.48,0,0,1,1-.39h15.37a1.52,1.52,0,0,1,1.05.39,1.31,1.31,0,0,1,.42,1v14a1.34,1.34,0,0,0,1.4,1.4h10.79a1.52,1.52,0,0,0,1.05-.39,1.32,1.32,0,0,0,.42-1V130.44A6.19,6.19,0,0,0,232.73,129Z"/></g></g></svg>