%FSTAX23Y23*%
%MOIN*%
%SFA1B1*%

%IPPOS*%
%AMD25*
4,1,8,0.006900,0.020700,-0.006900,0.020700,-0.008900,0.018700,-0.008900,-0.018700,-0.006900,-0.020700,0.006900,-0.020700,0.008900,-0.018700,0.008900,0.018700,0.006900,0.020700,0.0*
1,1,0.003900,0.006900,0.018700*
1,1,0.003900,-0.006900,0.018700*
1,1,0.003900,-0.006900,-0.018700*
1,1,0.003900,0.006900,-0.018700*
%
%ADD17C,0.008000*%
G04~CAMADD=25~8~0.0~0.0~177.2~413.4~19.5~0.0~15~0.0~0.0~0.0~0.0~0~0.0~0.0~0.0~0.0~0~0.0~0.0~0.0~0.0~177.2~413.4*
%ADD25D25*%
%ADD26R,0.035430X0.027560*%
%ADD27R,0.035430X0.029530*%
%ADD28R,0.029530X0.035430*%
%ADD29R,0.031500X0.039370*%
%ADD30R,0.035430X0.025590*%
%ADD31R,0.035430X0.033470*%
%ADD32R,0.007870X0.027560*%
%ADD33R,0.035670X0.033790*%
%ADD34R,0.039850X0.052410*%
%ADD35R,0.020470X0.011810*%
%ADD36R,0.007090X0.014960*%
%ADD37R,0.052410X0.039850*%
%ADD38C,0.040000*%
%ADD45R,0.041340X0.039370*%
%ADD46R,0.086610X0.041340*%
%ADD47R,0.070870X0.027560*%
%ADD48R,0.070870X0.031500*%
%ADD54C,0.006000*%
%ADD55C,0.006000*%
%ADD56C,0.015000*%
%ADD57C,0.007000*%
%ADD58C,0.106300*%
%ADD59C,0.024000*%
%ADD60C,0.048000*%
%LNtime4cm4_modular-1*%
%LPD*%
G36*
X02626Y01547D02*
X02643Y01542D01*
X02659Y01533*
X02673Y01522*
X02685Y01508*
X02693Y01492*
X02698Y01474*
X027Y01455*
Y00119*
X02698Y001*
X02693Y00082*
X02685Y00066*
X02673Y00052*
X02659Y00041*
X02643Y00032*
X02626Y00027*
X02607Y00025*
X00119*
X001Y00027*
X00082Y00032*
X00066Y00041*
X00052Y00052*
X00041Y00066*
X00032Y00082*
X00027Y001*
X00025Y00119*
Y01455*
X00027Y01474*
X00032Y01492*
X00041Y01508*
X00052Y01522*
X00066Y01533*
X00082Y01542*
X001Y01547*
X00119Y01549*
X02607*
X02626Y01547*
G37*
%LNtime4cm4_modular-2*%
%LPC*%
G36*
X00776Y01538D02*
X00689D01*
X00687Y01537*
X00589*
Y015*
X00588Y01495*
X00584Y01491*
X0058Y01492*
X00573Y01491*
X00567Y01487*
X00563Y01481*
X00562Y01475*
X00563Y01468*
X00567Y01462*
X00573Y01458*
X0058Y01457*
X00586Y01458*
X00591Y01462*
X00593Y01463*
X00596*
X00598Y01462*
X00603Y01458*
X00608Y01457*
X00608Y01456*
X00607Y0145*
X00608Y01443*
X00609Y01442*
X00607Y01438*
X00564*
X00561Y01437*
X00559Y01435*
X00504Y01381*
X00504*
X00504Y01381*
X00501Y01376*
X005Y01371*
X005Y01371*
X005Y01366*
X00501Y01249*
X00497Y01247*
X00493Y01241*
X00492Y01235*
X00493Y01228*
X00494Y01227*
X00491Y01222*
X00483*
X0048Y01227*
X00481Y01228*
X00482Y01235*
X00481Y01241*
X00477Y01247*
X00473Y0125*
Y0141*
X00477Y01412*
X00481Y01418*
X00482Y01425*
X00481Y01431*
X00477Y01437*
X00471Y01441*
X00465Y01442*
X00458Y01441*
X00452Y01437*
X00448Y01431*
X00447Y01425*
X00448Y01418*
X00452Y01412*
X00456Y0141*
Y0125*
X00452Y01247*
X00448Y01241*
X00447Y01235*
X00448Y01228*
X00449Y01227*
X00446Y01222*
X00389*
Y01231*
X00389Y01234*
X00387Y01236*
X00385Y01238*
X00382Y01239*
X00368*
X00365Y01238*
X00363Y01236*
X00362Y01234*
X00361Y01231*
Y01194*
X00362Y01191*
X00363Y01189*
X00365Y01187*
X00368Y01187*
X00382*
X00385Y01187*
X00387Y01189*
X00389Y01191*
X00389Y01194*
Y01204*
X01047*
X01138Y01113*
X01137Y0111*
X01138Y01103*
X01142Y01097*
X01148Y01093*
X01155Y01092*
X01161Y01093*
X01167Y01097*
X01171Y01103*
X01172Y0111*
X01171Y01116*
X01167Y01122*
X01161Y01126*
X01155Y01127*
X01151Y01126*
X01131Y01146*
X01132Y01148*
X01134Y0115*
X01136Y0115*
X01268*
X01326Y01091*
X0133Y01088*
X0133Y01088*
X0133Y01088*
X0133Y01087*
X01333Y01084*
X01334Y01084*
X0134Y01079*
X01351Y01075*
X01364Y01073*
Y01073*
X01439*
X01441Y01069*
X01353Y00981*
X01351Y00978*
X0135Y00975*
Y00829*
X01347Y00827*
X01343Y00821*
X01342Y00815*
X01343Y00808*
X01347Y00802*
X01353Y00798*
X0136Y00797*
X01366Y00798*
X01372Y00802*
X01374Y00805*
X01396*
Y00793*
X01487*
Y00803*
X01517*
X0152Y00799*
Y00796*
Y00791*
Y00752*
Y00751*
Y00712*
Y00709*
Y00704*
Y00667*
Y00666*
Y00662*
Y00661*
Y00652*
X0148*
X01479Y00653*
X01319Y00813*
Y0092*
X01318Y00923*
X01316Y00926*
X01287Y00955*
X01284Y00957*
X01281Y00957*
X01262*
X01258Y00961*
Y00969*
Y00974*
X01262Y00978*
X01283*
X01284Y00975*
X01289Y00969*
X01295Y00964*
X01302Y00961*
X0131Y0096*
X01317Y00961*
X01324Y00964*
X0133Y00969*
X01335Y00975*
X01338Y00982*
X01339Y0099*
X01338Y00997*
X01335Y01004*
X0133Y0101*
X01324Y01015*
X01317Y01018*
X0131Y01019*
X01302Y01018*
X01295Y01015*
X01289Y0101*
X01284Y01004*
X01284Y01003*
X01262*
X01258Y01007*
Y01012*
Y01017*
Y01056*
X01177*
Y01017*
Y01014*
Y01009*
Y00974*
Y00971*
Y00966*
Y00957*
X01156*
X01151Y00962*
X01152Y00965*
X01151Y00971*
X01147Y00977*
X01141Y00981*
X01135Y00982*
X01128Y00981*
X01122Y00977*
X01118Y00971*
X01117Y00965*
X01118Y00958*
X01122Y00952*
X01128Y00948*
X01135Y00947*
X01139Y00948*
X01146Y00942*
X01149Y0094*
X01152Y00939*
X01174*
X01177Y00936*
Y00928*
Y00923*
Y00884*
X01258*
Y00923*
Y00926*
Y00931*
Y00939*
X01277*
X013Y00916*
Y0081*
X01301Y00806*
X01303Y00803*
X01467Y00639*
X01467Y00639*
X01472Y00635*
X01479Y00634*
Y00634*
X0152*
Y00624*
X01601*
Y00661*
Y00662*
Y00666*
Y00667*
Y00674*
X0161*
X01612Y00672*
Y006*
X01595Y00584*
X01593Y00579*
X01592Y00575*
Y00563*
X01582*
Y00556*
X01547*
X01546Y00556*
X0151*
Y00537*
X01481*
X0148Y00539*
X01475Y00545*
X01469Y0055*
X01462Y00553*
X01455Y00554*
X01447Y00553*
X0144Y0055*
X01434Y00545*
X01429Y00539*
X01426Y00532*
X01425Y00525*
X01426Y00517*
X01429Y0051*
X01434Y00504*
X0144Y00499*
X01447Y00496*
X01455Y00495*
X01462Y00496*
X01469Y00499*
X01475Y00504*
X0148Y0051*
X01481Y00512*
X0151*
Y00493*
X01559*
Y0053*
X01582*
Y00523*
X01627*
Y00563*
X01617*
Y00569*
X01634Y00585*
X01636Y0059*
X01637Y00595*
Y00678*
X01636Y00683*
X01634Y00687*
X01625Y00696*
X01621Y00698*
X01616Y00699*
X01605*
X01601Y00703*
Y00707*
Y00712*
X01601Y00717*
X01629*
X01662Y00684*
Y00562*
X01652*
Y00522*
X01697*
Y00529*
X01725*
Y00493*
X01774*
Y00556*
X01762*
Y00608*
X01764Y00609*
X0177Y00614*
X01775Y0062*
X01778Y00627*
X01779Y00635*
X01778Y00642*
X01775Y00649*
X0177Y00655*
X01764Y0066*
X01757Y00663*
X0175Y00664*
X01742Y00663*
X01735Y0066*
X01729Y00655*
X01724Y00649*
X01721Y00642*
X0172Y00635*
X01721Y00627*
X01724Y0062*
X01729Y00614*
X01735Y00609*
X01737Y00608*
Y00556*
X01725*
Y00554*
X01697*
Y00562*
X01687*
Y0069*
X01686Y00694*
X01684Y00699*
X01643Y00739*
X01639Y00742*
X01634Y00743*
X01601*
Y00751*
Y00752*
Y00791*
Y00794*
Y00799*
Y00834*
Y00837*
Y00842*
Y0085*
X01625*
X01627Y00847*
X01633Y00843*
X0164Y00842*
X01646Y00843*
X01652Y00847*
X01656Y00853*
X01657Y0086*
X01656Y00866*
X01652Y00872*
X01646Y00876*
X0164Y00877*
X01633Y00876*
X01627Y00872*
X01625Y00869*
X01605*
X01601Y00872*
Y0088*
Y00885*
Y00924*
Y00926*
Y00967*
X0152*
Y00959*
X01473*
X01457Y00975*
X01456Y00981*
X01452Y00987*
X01446Y00991*
X0144Y00992*
X01433Y00991*
X01427Y00987*
X01423Y00981*
X01422Y00975*
X01423Y00968*
X01427Y00962*
X01433Y00958*
X01435Y00958*
X01436Y00956*
X01433Y00951*
X01433Y00951*
X01427Y00947*
X01423Y00941*
X01422Y00935*
X01423Y00928*
X01427Y00922*
X01433Y00918*
X01439Y00917*
X01462Y00894*
X01466Y00891*
X01471Y0089*
X01517*
X0152Y00887*
Y00882*
Y00877*
Y00842*
Y00839*
Y00834*
Y00828*
X01487*
Y00836*
X01396*
Y00824*
X01374*
X01372Y00827*
X01369Y00829*
Y00971*
X01458Y0106*
X02454*
X02457Y01057*
X0246Y01054*
X0246Y01048*
X02459Y01043*
X02459Y01043*
X02459*
Y01038*
Y00996*
X02404*
Y00971*
X02477*
Y00983*
X02477Y00984*
Y01038*
X02477Y01043*
X02477Y01043*
X02477Y01048*
X02477Y01054*
X02481Y01057*
X02485Y01062*
X02486Y01069*
X02485Y01075*
X02481Y01081*
X02475Y01085*
X02469Y01086*
X02462Y01085*
X02457Y01081*
X02454Y01078*
X02341*
X02339Y01083*
X02496Y0124*
X02501Y01239*
X02508Y0124*
X02513Y01244*
X02517Y01249*
X02518Y01256*
X02517Y01263*
X02513Y01268*
X02508Y01272*
X02501Y01273*
X02494Y01272*
X02494Y01272*
X02476Y01289*
Y01326*
X02477*
Y01351*
X02432*
Y01339*
X02432Y01338*
Y01275*
X02428Y01271*
X02425Y01272*
X02418Y01271*
X02412Y01267*
X02408Y01261*
X02407Y01255*
X02408Y01248*
X02412Y01242*
X02418Y01238*
X02425Y01237*
X02431Y01238*
X02437Y01242*
X02441Y01248*
X02442Y01255*
X02441Y01257*
X02443Y01257*
X02447Y01255*
X02447Y01255*
X02448Y01248*
X02452Y01242*
X02458Y01238*
X02464Y01237*
X02465Y01235*
X02466Y01232*
X02323Y0109*
X022*
X02198Y01094*
X0225Y01147*
X02252Y01149*
X02253Y01153*
Y01175*
X02257Y01177*
X02261Y01183*
X02262Y0119*
X02261Y01196*
X02257Y01202*
X02251Y01206*
X02245Y01207*
X02238Y01206*
X02233Y01202*
X02231Y01201*
X02228*
X02226Y01202*
X02221Y01206*
X02215Y01207*
X02208Y01206*
X02202Y01202*
X02198Y01196*
X02197Y0119*
X02198Y01183*
X02202Y01177*
X02206Y01175*
Y01162*
X02156Y01112*
X02145*
X02143Y01116*
X02175Y01149*
X02177Y01151*
X02178Y01155*
Y01175*
X02182Y01177*
X02186Y01183*
X02187Y0119*
X02186Y01196*
X02182Y01202*
X02176Y01206*
X0217Y01207*
X02163Y01206*
X02157Y01202*
X02155Y01198*
X02149*
X02147Y01202*
X02141Y01206*
X02135Y01207*
X02128Y01206*
X02122Y01202*
X02118Y01196*
X02117Y0119*
X02118Y01183*
X02122Y01177*
X02126Y01175*
Y01159*
X02101Y01134*
X0152*
X01515Y01135*
Y01139*
Y0115*
X01545*
X01547Y01147*
X01553Y01143*
X0156Y01142*
X01566Y01143*
X01572Y01147*
X01576Y01153*
X01577Y0116*
X01576Y01166*
X01572Y01172*
X01566Y01176*
X0156Y01177*
X01553Y01176*
X01547Y01172*
X01545Y01169*
X01515*
Y01184*
X01474*
Y01135*
X01469Y01134*
X01461*
X01456Y01135*
Y01184*
X01444*
Y01215*
X01456*
Y01264*
X01444*
Y01276*
X01453Y01285*
X02087*
Y01285*
X02093Y01286*
X02098Y0129*
X02098Y0129*
X02098Y0129*
X02303Y01495*
X02304Y01495*
X02375*
X02378Y01491*
X02378Y0149*
X02372Y01487*
X0237Y01484*
X02338*
X02333Y01484*
X02326Y01483*
X02321Y01479*
X02321Y01479*
X02091Y01249*
X0209Y01249*
X01564*
X01562Y01252*
X01556Y01256*
X0155Y01257*
X01543Y01256*
X01537Y01252*
X01535Y01249*
X01515*
Y01264*
X01473*
Y01215*
X01515*
Y0123*
X01535*
X01537Y01227*
X01543Y01223*
X0155Y01222*
X01556Y01223*
X01562Y01227*
X01564Y0123*
X02091*
Y0123*
X02098Y01231*
X02103Y01235*
X02103Y01235*
Y01235*
X02333Y01465*
X02334Y01465*
X0237*
X02372Y01462*
X02378Y01458*
X02385Y01457*
X02389Y01458*
X02404Y01443*
Y0141*
X02404Y01409*
Y01397*
X02435*
Y01407*
X02436Y0141*
Y01462*
X02435Y01466*
X02435Y01467*
X02436Y01468*
X02437Y01474*
X02439Y01475*
X02442Y01476*
X02446Y01471*
Y01422*
X02446*
Y01397*
X02477*
Y01422*
X02476*
Y0145*
X02485Y01458*
X0249Y01457*
X02496Y01458*
X02502Y01462*
X02506Y01468*
X02507Y01475*
X02506Y01481*
X02502Y01487*
X02496Y01491*
X0249Y01492*
X02483Y01491*
X02477Y01487*
X02473Y01481*
X02472Y01475*
X02473Y0147*
X02467Y01464*
X02463Y01466*
Y01474*
X02463Y01475*
X02462Y01478*
X0246Y0148*
X02407Y01534*
X02407Y01534*
X02402Y01537*
X02397Y01538*
Y01538*
X01972*
Y01538*
X01967Y01537*
X01962Y01534*
X01958Y0153*
X01866Y01438*
X01357*
X01355Y01442*
X01356Y01443*
X01357Y0145*
X01356Y01453*
X01359Y01457*
X0136Y01457*
X01366Y01458*
X01372Y01462*
X01376Y01468*
X01377Y01475*
X01376Y01481*
X01372Y01487*
X01366Y01491*
X01362Y01491*
Y015*
X01363*
Y01537*
X01329*
Y015*
X01331*
Y0149*
X0133Y01489*
X01326Y01488*
X01321Y01491*
X01315Y01492*
Y015*
X01316*
Y01537*
X01282*
Y015*
X01284*
Y01492*
X01279Y01489*
X01276Y01491*
X0127Y01492*
X01268Y01495*
Y015*
Y01537*
X01203*
Y015*
X01204*
Y01491*
X012Y01489*
X01198Y01489*
X01196Y01491*
X0119Y01492*
X01189Y01492*
Y015*
X0119*
Y01537*
X01124*
Y015*
X01125*
Y01493*
X01121Y01489*
X01118Y01489*
X01116Y01491*
X0111Y01492*
Y015*
X01111*
Y01537*
X01046*
Y015*
X01046*
Y01491*
X01044Y01489*
X01042Y01486*
X01041Y01483*
Y01478*
X01037Y01477*
X01037*
X01036Y01481*
X01035Y01481*
X01032Y01487*
X0103Y01488*
Y015*
X01032*
Y01537*
X00967*
Y015*
X00968*
Y01491*
X00963Y01491*
X00958Y01487*
X00956Y01487*
X00953Y01489*
Y015*
X00953*
Y01537*
X0092*
Y01518*
X0092Y01517*
Y01491*
X00918Y01491*
X00912Y01487*
X00909Y01483*
X00904Y01484*
Y015*
X00906*
Y01537*
X00872*
Y015*
X00873*
Y01492*
X00868Y01491*
X00863Y01487*
X0086Y01488*
X00858Y01489*
Y015*
X00859*
Y01537*
X00825*
Y015*
X00825Y01495*
X00825Y01492*
X00818Y01491*
X00815Y01489*
X0081Y01491*
Y015*
X00812*
Y01537*
X00777*
X00776Y01538*
G37*
G36*
X00137Y01495D02*
X00126Y01494D01*
X00115Y0149*
X00105Y01485*
X00096Y01478*
X00089Y01469*
X00083Y01459*
X0008Y01448*
X00079Y01437*
X0008Y01425*
X00083Y01414*
X00089Y01404*
X00096Y01395*
X00105Y01388*
X00115Y01383*
X00126Y01379*
X00137Y01378*
X00149Y01379*
X0016Y01383*
X0017Y01388*
X00179Y01395*
X00186Y01404*
X00191Y01414*
X00195Y01425*
X00196Y01437*
X00195Y01448*
X00191Y01459*
X00186Y01469*
X00179Y01478*
X0017Y01485*
X0016Y0149*
X00149Y01494*
X00137Y01495*
G37*
G36*
X0013Y0128D02*
X00123Y01279D01*
X00117Y01275*
X00117Y01274*
X00112*
X00112Y01275*
X00106Y01279*
X001Y0128*
X00093Y01279*
X00088Y01275*
X00086Y01274*
X00083*
X00081Y01275*
X00076Y01279*
X0007Y0128*
X00063Y01279*
X00057Y01275*
X00053Y01269*
X00052Y01263*
X00053Y01256*
X00057Y0125*
X00063Y01247*
X0007Y01245*
X00076Y01247*
X00081Y0125*
X00083Y01251*
X00086*
X00088Y0125*
X00093Y01247*
X001Y01245*
X00106Y01247*
X00112Y0125*
X00112Y01251*
X00117*
X00117Y0125*
X00123Y01247*
X0013Y01245*
X00136Y01247*
X00142Y0125*
X00146Y01256*
X00147Y01263*
X00146Y01269*
X00142Y01275*
X00136Y01279*
X0013Y0128*
G37*
G36*
X02421Y01351D02*
X02404D01*
Y01339*
X02404Y01338*
Y01291*
X02384Y01271*
X0238Y01272*
X02373Y01271*
X02367Y01267*
X02363Y01261*
X02362Y01255*
X02363Y01248*
X02367Y01242*
X02373Y01238*
X0238Y01237*
X02386Y01238*
X02392Y01242*
X02396Y01248*
X02397Y01255*
X02396Y01259*
X02419Y01282*
X02421Y01285*
X02422Y01288*
Y01338*
X02421Y01339*
Y01351*
G37*
G36*
X00325Y01357D02*
X00318Y01356D01*
X00312Y01352*
X00308Y01346*
X00307Y0134*
X00308Y01333*
X00312Y01327*
X00312Y01327*
Y01317*
X00306*
Y01272*
X00315*
Y01238*
X00314Y01238*
X00312Y01236*
X0031Y01234*
X0031Y01231*
Y01194*
X0031Y01191*
X00312Y01189*
X00314Y01187*
X00317Y01187*
X00331*
X00334Y01187*
X00336Y01189*
X00337Y01191*
X00338Y01194*
Y01231*
X00337Y01234*
X00336Y01236*
X00334Y01238*
X00333Y01238*
Y01272*
X00346*
Y01317*
X00338*
Y01329*
X00341Y01333*
X00342Y0134*
X00341Y01346*
X00337Y01352*
X00331Y01356*
X00325Y01357*
G37*
G36*
X00185Y01182D02*
X00134D01*
Y01133*
X00185*
Y01148*
X00246*
X00247Y01147*
X00253Y01143*
X0026Y01142*
X00266Y01143*
X00272Y01147*
X00276Y01153*
X00277Y0116*
X00276Y01166*
X00272Y01172*
X00266Y01176*
X0026Y01177*
X00253Y01176*
X00247Y01172*
X00244Y01167*
X00185*
Y01182*
G37*
G36*
X00356Y01142D02*
X00343D01*
X0034Y01142*
X00337Y0114*
X00334Y01142*
X00331Y01142*
X00317*
X00314Y01142*
X00312Y0114*
X0031Y01138*
X0031Y01135*
Y01098*
X0031Y01095*
X00312Y01093*
X00314Y01091*
X00317Y0109*
X00331*
X00334Y01091*
X00336Y01092*
X0034Y01089*
Y01078*
X00263Y01001*
X00261Y00998*
X0026Y00995*
Y00973*
X00247*
Y00936*
X00292*
Y00973*
X00279*
Y00991*
X00356Y01068*
X00358Y01071*
X00359Y01075*
Y01091*
X00359Y01091*
X00361Y01093*
X00363Y01095*
X00363Y01098*
Y01135*
X00363Y01138*
X00361Y0114*
X00359Y01142*
X00356Y01142*
G37*
G36*
X0013Y0107D02*
X00123Y01069D01*
X00117Y01065*
X00117Y01064*
X00112*
X00112Y01065*
X00106Y01069*
X001Y0107*
X00093Y01069*
X00088Y01065*
X00086Y01064*
X00083*
X00081Y01065*
X00076Y01069*
X0007Y0107*
X00063Y01069*
X00057Y01065*
X00053Y01059*
X00052Y01053*
X00053Y01046*
X00057Y0104*
X00063Y01037*
X0007Y01035*
X00076Y01037*
X00081Y0104*
X00083Y01041*
X00086*
X00088Y0104*
X00093Y01037*
X001Y01035*
X00106Y01037*
X00112Y0104*
X00112Y01041*
X00117*
X00117Y0104*
X00123Y01037*
X0013Y01035*
X00136Y01037*
X00142Y0104*
X00146Y01046*
X00147Y01053*
X00146Y01059*
X00142Y01065*
X00136Y01069*
X0013Y0107*
G37*
G36*
Y01022D02*
X00123Y01021D01*
X00118Y01017*
X00116Y01016*
X00113*
X00111Y01017*
X00106Y01021*
X001Y01022*
X00093Y01021*
X00087Y01017*
X00087Y01016*
X00082*
X00082Y01017*
X00076Y01021*
X0007Y01022*
X00063Y01021*
X00057Y01017*
X00053Y01011*
X00052Y01005*
X00053Y00998*
X00057Y00992*
X00063Y00988*
X0007Y00987*
X00076Y00988*
X00082Y00992*
X00082Y00993*
X00087*
X00087Y00992*
X00093Y00988*
X001Y00987*
X00106Y00988*
X00111Y00992*
X00113Y00993*
X00116*
X00118Y00992*
X00123Y00988*
X0013Y00987*
X00136Y00988*
X00142Y00992*
X00146Y00998*
X00147Y01005*
X00146Y01011*
X00142Y01017*
X00136Y01021*
X0013Y01022*
G37*
G36*
X00422Y01019D02*
X00377D01*
Y00984*
X00422*
Y00987*
X00429*
X00433Y00983*
X00438Y0098*
X00442Y00979*
X00509*
X00512Y00975*
Y00971*
Y00966*
Y00959*
X00422*
Y00962*
X00377*
Y00927*
X00422*
Y00934*
X00509*
X00512Y0093*
Y00928*
Y00923*
Y0091*
X00497*
X00492Y00909*
X00488Y00906*
X0047Y00888*
X00465Y00888*
Y00897*
X00374*
Y00885*
X00358*
X00357Y00887*
X00351Y00891*
X00345Y00892*
X00338Y00891*
X00332Y00887*
X00328Y00881*
X00327Y00875*
X00328Y00868*
X00332Y00862*
X00338Y00858*
X00345Y00857*
X00351Y00858*
X00357Y00862*
X00359Y00866*
X00374*
Y00854*
X00465*
Y00863*
X00475*
X0048Y00864*
X00485Y00866*
X00502Y00884*
X00545*
X00546Y00884*
X00593*
Y00923*
Y00926*
Y00931*
Y00966*
Y00969*
Y00974*
Y01012*
X00512*
Y01004*
X00448*
X00444Y01009*
X00439Y01011*
X00435Y01012*
X00422*
Y01019*
G37*
G36*
X02477Y00925D02*
X02404D01*
Y009*
X02477*
Y00925*
G37*
G36*
X00185Y00924D02*
X00134D01*
Y00875*
X00185*
Y0089*
X00247*
Y00881*
X00292*
Y00918*
X00247*
Y00909*
X00185*
Y00924*
G37*
G36*
X01975Y01008D02*
X01894D01*
Y00972*
Y00971*
Y00967*
Y00966*
Y00929*
Y00926*
Y00921*
Y00885*
Y00882*
Y00877*
Y00842*
Y00839*
Y00834*
Y00799*
Y00796*
Y00791*
Y00752*
X01975*
Y00791*
Y00794*
Y00799*
X01975Y00804*
X01987*
X01995Y00795*
X02Y00793*
X02005Y00792*
X02012*
Y0079*
X02057*
Y00796*
X02067*
Y00788*
X02112*
Y00831*
X02067*
Y00821*
X02057*
Y00825*
X02012*
Y00822*
X02007Y0082*
X02002Y00825*
X01997Y00828*
X01993Y00829*
X01979*
X01975Y00833*
Y00837*
Y00842*
Y00849*
X02012*
Y00847*
X02057*
Y00882*
X02012*
Y00875*
X01979*
X01975Y00878*
Y0088*
Y00885*
Y00921*
Y00924*
Y00929*
Y00966*
Y00967*
Y00971*
Y00972*
Y01008*
G37*
G36*
X0013Y00812D02*
X00123Y00811D01*
X00118Y00807*
X00116Y00806*
X00113*
X00111Y00807*
X00106Y00811*
X001Y00812*
X00093Y00811*
X00088Y00807*
X00086Y00806*
X00083*
X00081Y00807*
X00076Y00811*
X0007Y00812*
X00063Y00811*
X00057Y00807*
X00053Y00801*
X00052Y00795*
X00053Y00788*
X00057Y00782*
X00063Y00778*
X0007Y00777*
X00076Y00778*
X00082Y00782*
X00082Y00783*
X00087*
X00087Y00782*
X00093Y00778*
X001Y00777*
X00106Y00778*
X00112Y00782*
X00112Y00783*
X00117*
X00117Y00782*
X00123Y00778*
X0013Y00777*
X00136Y00778*
X00142Y00782*
X00146Y00788*
X00147Y00795*
X00146Y00801*
X00142Y00807*
X00136Y00811*
X0013Y00812*
G37*
G36*
Y00772D02*
X00123Y00771D01*
X00117Y00767*
X00117Y00766*
X00112*
X00112Y00767*
X00106Y00771*
X001Y00772*
X00093Y00771*
X00088Y00767*
X00086Y00766*
X00083*
X00081Y00767*
X00076Y00771*
X0007Y00772*
X00063Y00771*
X00057Y00767*
X00053Y00761*
X00052Y00755*
X00053Y00748*
X00057Y00742*
X00063Y00738*
X0007Y00737*
X00076Y00738*
X00081Y00742*
X00083Y00743*
X00086*
X00088Y00742*
X00093Y00738*
X001Y00737*
X00106Y00738*
X00112Y00742*
X00112Y00743*
X00117*
X00117Y00742*
X00123Y00738*
X0013Y00737*
X00136Y00738*
X00142Y00742*
X00146Y00748*
X00147Y00755*
X00146Y00761*
X00142Y00767*
X00136Y00771*
X0013Y00772*
G37*
G36*
X02495Y00747D02*
X02488Y00746D01*
X02482Y00742*
X0248Y00738*
X02474*
X02472Y00742*
X02466Y00746*
X0246Y00747*
X02453Y00746*
X02447Y00742*
X02445Y00738*
X02439*
X02437Y00742*
X02431Y00746*
X02425Y00747*
X02418Y00746*
X02412Y00742*
X0241Y00738*
X02404*
X02402Y00742*
X02396Y00746*
X0239Y00747*
X02383Y00746*
X02377Y00742*
X02373Y00736*
X02372Y0073*
X02373Y00723*
X02377Y00717*
X02383Y00713*
X0239Y00712*
X02394Y00713*
X02404Y00703*
Y00662*
X02404Y00661*
Y00649*
X02435*
Y00661*
X02435Y00662*
Y00716*
X02437Y00717*
X02439Y00721*
X02445*
X02447Y00717*
X02448Y00717*
X02449Y0071*
X02448Y0071*
X02447Y00707*
X02446Y00704*
Y00674*
X02446*
Y00649*
X02477*
Y00674*
X02476*
Y00699*
X0249Y00713*
X02495Y00712*
X02501Y00713*
X02507Y00717*
X02511Y00723*
X02512Y0073*
X02511Y00736*
X02507Y00742*
X02501Y00746*
X02495Y00747*
G37*
G36*
X01258Y00776D02*
X01177D01*
Y00735*
X01258*
Y00776*
G37*
G36*
X0036Y00787D02*
X00353Y00786D01*
X00347Y00782*
X00343Y00776*
X00342Y0077*
X00343Y00763*
X00347Y00757*
X00351Y00755*
Y00736*
X0035Y00736*
X00348Y00735*
X00347Y00732*
X00346Y0073*
Y00692*
X00347Y0069*
X00348Y00687*
X0035Y00686*
X00353Y00685*
X00367*
X0037Y00686*
X00373Y00687*
X00376Y00686*
X00379Y00685*
X00393*
X00395Y00686*
X00398Y00687*
X00399Y0069*
X004Y00692*
Y0073*
X00399Y00732*
X00398Y00735*
X00395Y00736*
X00393Y00737*
X00379*
X00376Y00736*
X00374Y00735*
X00369Y00738*
Y00755*
X00372Y00757*
X00376Y00763*
X00377Y0077*
X00376Y00776*
X00372Y00782*
X00366Y00786*
X0036Y00787*
G37*
G36*
X00185Y00674D02*
X00134D01*
Y00625*
X00185*
Y0064*
X00247*
Y00633*
X00292*
Y00671*
X00247*
Y00659*
X00185*
Y00674*
G37*
G36*
X00341Y0064D02*
X00328D01*
X00325Y0064*
X00323Y00638*
X00321Y00636*
X00321Y00633*
Y00624*
X00315*
X00311Y00623*
X00308Y00621*
X00297Y0061*
X00292Y00612*
Y00616*
X00247*
Y00578*
X00292*
Y00588*
X00297*
X003Y00588*
X00303Y0059*
X00316Y00603*
X00321Y006*
Y00596*
X00321Y00593*
X00323Y00591*
X00325Y00589*
X00328Y00589*
X00341*
X00344Y00589*
X00346Y00591*
X00348Y00593*
X00348Y00596*
Y00633*
X00348Y00636*
X00346Y00638*
X00344Y0064*
X00341Y0064*
G37*
G36*
X0013Y00562D02*
X00123Y00561D01*
X00117Y00557*
X00117Y00556*
X00112*
X00112Y00557*
X00106Y00561*
X001Y00562*
X00093Y00561*
X00088Y00557*
X00086Y00556*
X00083*
X00081Y00557*
X00076Y00561*
X0007Y00562*
X00063Y00561*
X00057Y00557*
X00053Y00551*
X00052Y00545*
X00053Y00538*
X00057Y00532*
X00063Y00528*
X0007Y00527*
X00076Y00528*
X00082Y00532*
X00082Y00533*
X00087*
X00087Y00532*
X00093Y00528*
X001Y00527*
X00106Y00528*
X00112Y00532*
X00112Y00533*
X00117*
X00117Y00532*
X00123Y00528*
X0013Y00527*
X00136Y00528*
X00142Y00532*
X00146Y00538*
X00147Y00545*
X00146Y00551*
X00142Y00557*
X00136Y00561*
X0013Y00562*
G37*
G36*
X02477Y00603D02*
X02432D01*
Y00591*
X02432Y0059*
Y00526*
X02428Y00526*
X02426Y00524*
X02421Y00527*
X02422Y00528*
Y0059*
X02421Y00591*
Y00603*
X02404*
Y00591*
X02404Y0059*
Y00531*
X02399Y00526*
X02395Y00527*
X02388Y00526*
X02382Y00522*
X02378Y00516*
X02377Y0051*
X02378Y00503*
X02382Y00497*
X02388Y00493*
X02395Y00492*
X02401Y00493*
X02407Y00497*
X02411Y00503*
X02412Y0051*
X02411Y00512*
X02413Y00512*
X02417Y0051*
X02417Y0051*
X02418Y00503*
X02422Y00497*
X02428Y00493*
X02435Y00492*
X02441Y00493*
X02447Y00497*
X02449Y00501*
X02455*
X02457Y00497*
X02463Y00493*
X0247Y00492*
X02476Y00493*
X02482Y00497*
X02486Y00503*
X02487Y0051*
X02486Y00516*
X02482Y00522*
X02476Y00526*
X0247Y00527*
X02466Y00526*
X02463Y0053*
Y00543*
X02468Y00545*
X02498Y00514*
X02497Y0051*
X02498Y00503*
X02502Y00497*
X02508Y00493*
X02515Y00492*
X02521Y00493*
X02527Y00497*
X02531Y00503*
X02532Y0051*
X02531Y00516*
X02527Y00522*
X02521Y00526*
X02515Y00527*
X0251Y00526*
X02476Y00559*
Y00578*
X02477*
Y00603*
G37*
G36*
X00393Y0064D02*
X00379D01*
X00376Y0064*
X00374Y00638*
X00372Y00636*
X00372Y00633*
Y00596*
X00372Y00593*
X00374Y00591*
X00376Y00589*
X00379Y00589*
X00393*
X00395Y00589*
X00398Y00591*
X00399Y00593*
X004Y00596*
Y00599*
X00405Y00601*
X00415Y00591*
X00418Y00589*
X00422Y00588*
X00427*
Y00577*
X00437*
Y00546*
X00433Y00541*
X00432Y00535*
X00433Y00528*
X00437Y00522*
X00443Y00518*
X0045Y00517*
X00456Y00518*
X00462Y00522*
X00466Y00528*
X00467Y00535*
X00466Y00541*
X00462Y00546*
Y00577*
X00472*
Y00617*
X00427*
Y00612*
X00422Y0061*
X00411Y00621*
X00408Y00623*
X00405Y00624*
X004*
Y00633*
X00399Y00636*
X00398Y00638*
X00395Y0064*
X00393Y0064*
G37*
G36*
X01258Y0069D02*
X01177D01*
Y00651*
Y00648*
Y00643*
Y00608*
Y00605*
Y006*
X01177Y00595*
X01137*
X01136Y00596*
X0113Y00597*
X01123Y00596*
X01117Y00592*
X01113Y00586*
X01112Y0058*
X01113Y00573*
X01117Y00567*
X01123Y00563*
X0113Y00562*
X01136Y00563*
X01142Y00567*
X01143Y00569*
X01174*
X01177Y00566*
Y00561*
Y00557*
X01177Y00552*
X01142*
X01142Y00552*
X01136Y00556*
X0113Y00557*
X01123Y00556*
X01117Y00552*
X01113Y00546*
X01112Y0054*
X01113Y00533*
X01117Y00527*
X01123Y00523*
X0113Y00522*
X01136Y00523*
X0114Y00526*
X01174*
X01177Y00523*
Y00518*
Y00513*
Y00478*
Y00475*
Y0047*
Y00432*
X01258*
Y0047*
Y00473*
Y00478*
Y00513*
Y00516*
Y00521*
Y00556*
Y0056*
Y00565*
Y006*
Y00603*
Y00608*
Y00643*
Y00646*
Y00651*
X01259Y00656*
X0127*
X0129Y00635*
X01295Y00633*
X013Y00632*
X01304*
Y0062*
X01308*
Y00597*
X01301*
Y00552*
X01308*
Y00531*
X01305Y0053*
X01299Y00525*
X01294Y00519*
X01291Y00512*
X0129Y00505*
X01291Y00497*
X01294Y0049*
X01299Y00484*
X01305Y00479*
X01312Y00476*
X0132Y00475*
X01327Y00476*
X01334Y00479*
X0134Y00484*
X01345Y0049*
X01348Y00497*
X01349Y00505*
X01348Y00512*
X01345Y00519*
X0134Y00525*
X01334Y0053*
X01334Y0053*
Y00552*
X01341*
Y00597*
X01334*
Y0062*
X01367*
Y00669*
X01304*
Y00664*
X013Y00663*
X01284Y00678*
X0128Y00681*
X01275Y00682*
X01258*
Y0069*
G37*
G36*
X00593Y00776D02*
X00512D01*
Y00738*
Y00735*
Y0073*
Y00695*
Y00691*
Y00686*
Y00651*
Y00648*
Y00643*
Y00608*
Y00605*
Y006*
Y00565*
Y00561*
Y00556*
Y00521*
Y00518*
Y00513*
Y00478*
Y00475*
Y0047*
Y00432*
X00593*
Y00445*
X0062*
X00622Y00442*
X00628Y00438*
X00635Y00437*
X00641Y00438*
X00647Y00442*
X00651Y00448*
X00652Y00455*
X00651Y00461*
X00647Y00467*
X00641Y00471*
X00635Y00472*
X00628Y00471*
X00622Y00467*
X0062Y00464*
X00597*
X00593Y00467*
Y00473*
Y00478*
Y00513*
Y00516*
Y00521*
Y00556*
Y0056*
Y00565*
Y006*
Y00603*
Y00608*
Y00643*
Y00646*
Y00651*
Y00686*
Y0069*
Y00695*
Y0073*
Y00733*
Y00738*
Y00776*
G37*
G36*
Y01099D02*
X00512D01*
Y01057*
X00593*
Y01069*
X00648*
X00649Y01069*
X00663Y01067*
X00677Y01062*
X00688Y01053*
X00689Y01052*
X00689Y01052*
X007Y01039*
X00709Y01023*
X00714Y01006*
X00715Y00988*
X00715Y00988*
Y00448*
X00715*
X00714Y00436*
X00711Y00425*
X00705Y00415*
X007Y00409*
X00185*
Y00424*
X00134*
Y00375*
X00185*
Y0039*
X02028*
Y0039*
X02045Y00392*
X02062Y00396*
X02078Y00402*
X02092Y00411*
X02103Y0042*
X02105Y00422*
X02107Y00424*
X02118Y00437*
X02127Y00451*
X02133Y00467*
X02137Y00484*
X02139Y00501*
X02139*
Y00593*
X02139*
X02137Y0061*
X02133Y00627*
X02127Y00643*
X02118Y00657*
X02109Y00667*
X02107Y0067*
X02106Y00671*
X02103Y00674*
X02093Y00682*
X02079Y00689*
X02063Y00694*
X02046Y00696*
Y00696*
X01975*
Y00707*
X01894*
Y00666*
X01975*
Y00677*
X02046*
Y00677*
X02059Y00676*
X02072Y00672*
X02083Y00666*
X02093Y00658*
X02096Y00654*
X02105Y00644*
X02114Y00628*
X02119Y00611*
X0212Y00593*
X0212Y00593*
Y00501*
X0212Y00501*
X02119Y00483*
X02114Y00466*
X02105Y0045*
X02094Y00437*
X02094Y00437*
X02092Y00435*
X02092Y00435*
X02079Y00424*
X02063Y00415*
X02046Y0041*
X02028Y00409*
X02028Y00409*
X00728*
X00725Y00413*
X00728Y00418*
X00732Y00433*
X00734Y00448*
X00734*
Y00988*
X00734*
X00732Y01005*
X00728Y01022*
X00722Y01038*
X00713Y01052*
X00702Y01065*
X00702Y01065*
X0069Y01075*
X00677Y01082*
X00663Y01086*
X00648Y01088*
Y01087*
X00593*
Y01099*
G37*
G36*
X0013Y00312D02*
X00123Y00311D01*
X00117Y00307*
X00117Y00306*
X00112*
X00112Y00307*
X00106Y00311*
X001Y00312*
X00093Y00311*
X00087Y00307*
X00087Y00306*
X00082*
X00082Y00307*
X00076Y00311*
X0007Y00312*
X00063Y00311*
X00057Y00307*
X00053Y00301*
X00052Y00295*
X00053Y00288*
X00057Y00282*
X00063Y00278*
X0007Y00277*
X00076Y00278*
X00082Y00282*
X00082Y00283*
X00087*
X00087Y00282*
X00093Y00278*
X001Y00277*
X00106Y00278*
X00112Y00282*
X00112Y00283*
X00117*
X00117Y00282*
X00123Y00278*
X0013Y00277*
X00136Y00278*
X00142Y00282*
X00146Y00288*
X00147Y00295*
X00146Y00301*
X00142Y00307*
X00136Y00311*
X0013Y00312*
G37*
G36*
X01044Y00276D02*
X01038Y00274D01*
X01032Y0027*
X01029Y00266*
X01025Y00265*
X01023Y00265*
X01022Y00267*
X01016Y00271*
X0101Y00272*
X01003Y00271*
X00998Y00267*
X00995Y00263*
X0099Y00263*
X00989Y00263*
X00987Y00267*
X00981Y00271*
X00975Y00272*
X00968Y00271*
X00962Y00267*
X00958Y00261*
X00957Y00255*
X00958Y00252*
X00956Y00247*
X00954Y00246*
X0095Y00246*
X00949Y00246*
X00948Y00247*
X00946Y00249*
X00947Y00255*
X00946Y00261*
X00942Y00267*
X00936Y00271*
X0093Y00272*
X00923Y00271*
X00917Y00267*
X00913Y00261*
X00912Y00255*
X00913Y00251*
X0091Y00247*
X00909Y00247*
X00903Y00246*
X00902Y00245*
X00895Y00246*
X00895Y00247*
X00896Y00248*
X00897Y00255*
X00896Y00261*
X00892Y00267*
X00886Y00271*
X0088Y00272*
X00873Y00271*
X00867Y00267*
X00863Y00261*
X00862Y00255*
X00863Y00252*
X00859Y00246*
X00858Y00246*
X00857Y00245*
X0085Y00246*
X0085Y00247*
X00851Y00248*
X00852Y00255*
X00851Y00261*
X00847Y00267*
X00841Y00271*
X00835Y00272*
X00828Y00271*
X00822Y00267*
X00818Y00261*
X00817Y00255*
X00818Y00252*
X00814Y00246*
X00813Y00246*
X00807Y00242*
X00804Y00236*
X00803Y00236*
X00802Y00232*
X00802*
X00798Y00233*
Y00244*
X00801Y00248*
X00802Y00255*
X00801Y00261*
X00797Y00267*
X00791Y00271*
X00785Y00272*
X00778Y00271*
X00772Y00267*
X00768Y00261*
X00767Y00255*
X00768Y00252*
X00764Y00246*
X00763Y00246*
X00762Y00245*
X00755Y00246*
X00755Y00247*
X00756Y00248*
X00757Y00255*
X00756Y00261*
X00752Y00267*
X00746Y00271*
X0074Y00272*
X00733Y00271*
X00727Y00267*
X00723Y00261*
X00722Y00255*
X00723Y00252*
X00719Y00246*
X00718Y00246*
X00712Y00242*
X00709Y00236*
X00708Y00236*
X00707Y00232*
X00707*
X00703Y00233*
Y00244*
X00706Y00248*
X00707Y00255*
X00706Y00261*
X00702Y00267*
X00696Y00271*
X0069Y00272*
X00683Y00271*
X00677Y00267*
X00673Y00261*
X00672Y00255*
X00673Y00252*
X00669Y00246*
X00668Y00246*
X00667Y00245*
X0066Y00246*
X0066Y00247*
X00661Y00248*
X00662Y00255*
X00661Y00261*
X00657Y00267*
X00651Y00271*
X00645Y00272*
X00638Y00271*
X00632Y00267*
X00628Y00261*
X00627Y00255*
X00628Y00252*
X00624Y00246*
X00623Y00246*
X00617Y00242*
X00616Y0024*
X00611Y00242*
X00612Y00245*
X00611Y00251*
X00607Y00257*
X00601Y00261*
X00595Y00262*
X00588Y00261*
X00582Y00257*
X00578Y00251*
X00577Y00245*
X00578Y00238*
X00582Y00232*
X00588Y00228*
X00589Y00228*
Y00184*
X00589Y00183*
Y00164*
X00607*
Y00202*
X00605*
Y0023*
X00608Y00232*
X00612Y0023*
X00612Y0023*
X00613Y00223*
X00617Y00217*
X00621Y00215*
Y00202*
X0062*
Y00164*
X00654*
Y00202*
X00653*
Y0021*
X00655Y00212*
X00657Y00215*
X00657Y00216*
X00662Y00217*
X00668Y00214*
Y00184*
X00668Y00183*
Y00164*
X00701*
Y00202*
X00701*
Y00211*
X00702Y00214*
X00703Y00217*
Y00226*
X00707Y00227*
X00707*
X00708Y00223*
X00709Y00223*
X00712Y00217*
X00716Y00215*
Y00202*
X00715*
Y00164*
X00749*
Y00202*
X00748*
Y0021*
X0075Y00212*
X00752Y00215*
X00752Y00216*
X00757Y00217*
X00762Y00214*
Y00184*
X00762Y00184*
Y00164*
X00796*
Y00202*
X00795*
Y00211*
X00795Y00211*
X00797Y00214*
X00798Y00217*
Y00226*
X00802Y00227*
X00802*
X00803Y00223*
X00804Y00223*
X00807Y00217*
X00811Y00215*
Y00202*
X00809*
Y00164*
X00843*
Y00202*
X00842*
Y0021*
X00845Y00213*
X00847Y00215*
X00847Y00216*
X00852Y00217*
X00857Y00214*
Y00202*
X00857*
Y00164*
X0089*
Y00202*
X0089*
Y00211*
X0089Y00212*
X00892Y00214*
X00892Y00216*
X00896Y00217*
X00897Y00217*
X00898Y00217*
X00903Y00213*
X00904Y00213*
Y00184*
X00904Y00183*
Y00164*
X00938*
Y00202*
X00937*
Y00217*
X00937Y00217*
X00937Y00218*
X00942Y00219*
X00944Y00217*
X00949Y00213*
X00951Y00213*
Y00184*
X00951Y00183*
Y00164*
X01079*
Y00202*
X01083Y00205*
X01085Y00208*
X01087Y00207*
X01089Y00208*
X01089Y00208*
X01091Y00206*
X01093Y00202*
Y00164*
X01127*
Y00192*
X01129Y00197*
X01131Y00198*
X01134Y002*
X01134Y002*
X01139Y00199*
X0114Y00198*
Y00164*
X01174*
Y00183*
X01174Y00184*
Y00199*
X01184Y00209*
X01189Y00208*
X01189Y00207*
Y00202*
X01187*
Y00164*
X01268*
Y00202*
X01268*
Y00215*
X01268Y00216*
Y00226*
X01272Y00227*
X01272*
X01273Y00223*
X01274Y00223*
X01277Y00217*
X01282Y00214*
Y00202*
X01282*
Y00164*
X01316*
Y00202*
X01315*
Y00211*
X01315Y00211*
X01317Y00214*
X01318Y00217*
Y00244*
X01321Y00248*
X01322Y00255*
X01321Y00261*
X01317Y00267*
X01311Y00271*
X01305Y00272*
X01298Y00271*
X01292Y00267*
X01288Y00261*
X01287Y00255*
X01288Y00252*
X01284Y00246*
X01283Y00246*
X01277Y00242*
X01274Y00236*
X01273Y00236*
X01272Y00232*
X01272*
X01268Y00233*
Y00244*
X01271Y00248*
X01272Y00255*
X01271Y00261*
X01267Y00267*
X01261Y00271*
X01255Y00272*
X01248Y00271*
X01242Y00267*
X01238Y00261*
X01237Y00255*
X01238Y00252*
X01234Y00246*
X0123Y00246*
X01226Y0025*
X01228Y00256*
X01226Y00263*
X01223Y00269*
X01217Y00272*
X0121Y00274*
X01204Y00272*
X01198Y00269*
X01194Y00263*
X01193Y00256*
X01194Y00251*
X01193Y00246*
X01191Y00245*
X01185Y00245*
X01185Y00246*
X01181Y0025*
X01182Y00255*
X01181Y00261*
X01177Y00267*
X01171Y00271*
X01165Y00272*
X01158Y00271*
X01152Y00267*
X01151Y00264*
X01145Y00264*
X01142Y00268*
X01137Y00272*
X0113Y00273*
X01124Y00272*
X01118Y00268*
X01115Y00263*
X01111Y00263*
X01109Y00263*
X01107Y00267*
X01101Y00271*
X01095Y00272*
X01088Y00271*
X01082Y00267*
X01079Y00262*
X01077Y00262*
X01072Y00259*
X01072Y00259*
X01067Y00253*
X01065Y00253*
X01065Y00253*
X01061Y00256*
X01062Y00258*
X0106Y00265*
X01057Y0027*
X01051Y00274*
X01044Y00276*
G37*
G36*
X02468Y00335D02*
X02461Y00334D01*
X02456Y0033*
X02452Y00325*
X02451Y00318*
X02452Y00311*
X02456Y00306*
X02459Y00303*
Y00248*
X02404*
Y00223*
X02477*
Y00235*
X02477Y00236*
Y00303*
X0248Y00306*
X02484Y00311*
X02485Y00318*
X02484Y00325*
X0248Y0033*
X02475Y00334*
X02468Y00335*
G37*
G36*
X02477Y00177D02*
X02404D01*
Y00152*
X02477*
Y00177*
G37*
G36*
X01355Y00257D02*
X01348Y00256D01*
X01342Y00252*
X01338Y00246*
X01337Y0024*
X01338Y00233*
X01342Y00227*
X01346Y00225*
Y00202*
X01329*
Y00164*
X01331*
X01331Y00162*
Y00146*
X01331Y00145*
X01327Y00142*
X01325Y00138*
X01319*
X01317Y00142*
X01311Y00146*
X01305Y00147*
X01298Y00146*
X01292Y00142*
X01288Y00136*
X01287Y0013*
X01288Y00123*
X01289Y00122*
X01287Y00118*
X01286Y00118*
X0128Y00114*
X01276Y00108*
X01275Y00102*
X01276Y00095*
X0128Y00089*
X01282Y00086*
X01282Y00083*
X01282Y0008*
Y00078*
Y00043*
X01316*
Y0008*
X01316Y00085*
X01318Y00087*
X0132Y0009*
X01321Y00093*
Y00117*
X0132Y00119*
X01325Y00121*
X01327Y00117*
X01333Y00113*
X0134Y00112*
X01346Y00113*
X0135Y00116*
X01352Y00117*
X01356Y00114*
X01353Y00111*
X01352Y00105*
X01353Y00098*
X01357Y00092*
X01361Y00089*
Y0008*
X01329*
Y00043*
X01379*
Y0008*
X01378*
Y0009*
X01382Y00092*
X01386Y00098*
X01387Y00105*
X01386Y00111*
X01382Y00117*
X01376Y00121*
X0137Y00122*
X01363Y00121*
X01359Y00118*
X01357Y00117*
X01353Y0012*
X01356Y00123*
X01357Y0013*
X01356Y00136*
X01352Y00142*
X01348Y00144*
X01348Y00146*
X01348Y00146*
X01348Y00146*
Y00163*
X01352Y00164*
X01379*
Y00202*
X01381Y00206*
X01385Y00206*
X01391Y0021*
X01394Y00216*
X01396Y00223*
X01394Y00229*
X01391Y00235*
X01385Y00239*
X01378Y0024*
X01373Y00239*
X01372Y0024*
X01371Y00246*
X01367Y00252*
X01361Y00256*
X01355Y00257*
G37*
G36*
X02027Y00196D02*
X02016Y00195D01*
X02005Y00191*
X01995Y00186*
X01986Y00179*
X01978Y0017*
X01973Y0016*
X0197Y00149*
X01969Y00137*
X0197Y00126*
X01973Y00115*
X01978Y00105*
X01986Y00096*
X01995Y00089*
X02005Y00083*
X02016Y0008*
X02027Y00079*
X02038Y0008*
X02049Y00083*
X0206Y00089*
X02068Y00096*
X02076Y00105*
X02081Y00115*
X02084Y00126*
X02085Y00137*
X02084Y00149*
X02081Y0016*
X02076Y0017*
X02068Y00179*
X0206Y00186*
X02049Y00191*
X02038Y00195*
X02027Y00196*
G37*
G36*
X00137D02*
X00126Y00195D01*
X00115Y00191*
X00105Y00186*
X00096Y00179*
X00089Y0017*
X00083Y0016*
X0008Y00149*
X00079Y00137*
X0008Y00126*
X00083Y00115*
X00089Y00105*
X00096Y00096*
X00105Y00089*
X00115Y00083*
X00126Y0008*
X00137Y00079*
X00149Y0008*
X0016Y00083*
X0017Y00089*
X00179Y00096*
X00186Y00105*
X00191Y00115*
X00195Y00126*
X00196Y00137*
X00195Y00149*
X00191Y0016*
X00186Y0017*
X00179Y00179*
X0017Y00186*
X0016Y00191*
X00149Y00195*
X00137Y00196*
G37*
G36*
X01729Y00181D02*
X0148D01*
Y0013*
Y00055*
X01898*
Y00137*
X01729*
Y00181*
G37*
G36*
X00645Y00152D02*
X00638Y00151D01*
X00632Y00147*
X00628Y00141*
X00627Y00135*
X00628Y00132*
X00624Y00126*
X00623Y00126*
X00617Y00122*
X00613Y00116*
X00612Y0011*
X00613Y00103*
X00617Y00097*
X00621Y00095*
Y0008*
X0062*
Y00043*
X00654*
Y0008*
X00653*
Y00089*
X00655Y00091*
X00657Y00094*
X00658Y00097*
Y00101*
X00662Y00102*
X00662*
X00663Y00098*
X00664Y00098*
X00667Y00092*
X00671Y0009*
Y00087*
X0067Y00085*
X0067Y00085*
X00668Y0008*
Y00043*
X00701*
Y0008*
X00701*
X00701Y00085*
X00705Y0009*
X00707Y00092*
X0071Y00093*
X00712Y00092*
X00712Y00092*
X00716Y0009*
Y0008*
X00715*
Y00043*
X00749*
Y0008*
X00748*
Y00087*
X0075Y00089*
X00752Y00091*
X00754Y00092*
X00757Y00092*
X00757Y00092*
X00761Y0009*
Y00084*
X00762Y0008*
X00762Y0008*
Y00063*
X00762Y00062*
Y00043*
X00796*
Y0008*
X00795*
Y00088*
X00795Y00088*
X00797Y00091*
X00798Y00094*
Y00101*
X00802Y00102*
X00802*
X00803Y00098*
X00804Y00098*
X00807Y00092*
X00811Y0009*
Y00085*
X00809Y0008*
Y00043*
X00843*
Y0008*
X00842*
Y00086*
X00845Y00089*
X00847Y00092*
X00852Y00092*
Y00092*
X00856Y0009*
Y00084*
X00857Y00082*
Y00063*
X00857Y00062*
Y00043*
X0089*
Y0008*
X0089*
Y00088*
X0089Y00088*
X00892Y00091*
X00893Y00094*
Y00101*
X00897Y00102*
X00897*
X00898Y00098*
X00899Y00098*
X00902Y00092*
X00906Y0009*
Y00086*
X00906Y00086*
X00906Y00085*
X00904Y0008*
Y00043*
X00938*
Y0008*
X00937*
Y00086*
X0094Y00089*
X00942Y00092*
X00944Y00092*
X00947Y00092*
X00947Y00092*
X00952Y00089*
Y0008*
X00951*
Y00043*
X00985*
Y0008*
X00984*
Y00089*
X00985Y0009*
X00986Y00092*
X0099Y00093*
X00992Y00093*
X00992Y00092*
X00996Y0009*
Y00084*
X00997Y0008*
X00998Y00078*
Y00063*
X00998Y00062*
Y00043*
X01032*
Y0008*
X01031*
Y00089*
X01032Y0009*
X01033Y00093*
Y00101*
X01037Y00102*
X01037*
X01038Y00098*
X01039Y00098*
X01042Y00092*
X01046Y00089*
Y0008*
X01046*
Y00043*
X01079*
Y0008*
X01079*
Y00087*
X0108Y00088*
X01082Y00091*
X01083Y00094*
Y00101*
X01087Y00102*
X01087*
X01088Y00098*
X01089Y00098*
X01092Y00092*
X01096Y0009*
Y00087*
X01095Y00085*
X01095Y00085*
X01093Y0008*
Y00043*
X01127*
Y0008*
X01126*
X01126Y00085*
X0113Y0009*
X01132Y00092*
X01135Y00092*
X01137Y00092*
X01137Y00092*
X01141Y0009*
Y0008*
X0114*
Y00043*
X01174*
Y0008*
X01173*
Y00087*
X01175Y00089*
X01177Y00091*
X01179Y00092*
X01182Y00092*
X01182Y00092*
X01183Y00092*
X01184Y00091*
X01187Y00088*
X01187Y00083*
Y00072*
X01187Y00072*
X01187Y00072*
X01187Y0007*
Y00043*
X01221*
Y0008*
X0122*
Y00088*
X0122Y00088*
X01222Y00092*
X01227Y00092*
X01227Y00092*
X01233Y00088*
X01233Y00088*
X01235Y00085*
X01235Y0008*
Y00043*
X01268*
Y0008*
X01268*
Y00117*
X01267Y00118*
X01271Y00123*
X01272Y0013*
X01271Y00136*
X01267Y00142*
X01261Y00146*
X01255Y00147*
X01248Y00146*
X01242Y00142*
X01238Y00136*
X01237Y0013*
X01238Y00126*
X01237Y00125*
X01234Y00124*
X01232Y00126*
X01231Y00127*
X01232Y0013*
X01231Y00136*
X01227Y00142*
X01221Y00146*
X01215Y00147*
X01208Y00146*
X01202Y00142*
X01198Y00136*
X01197Y0013*
X01198Y00126*
X01195Y00122*
X01194Y00122*
X01188Y00121*
X01187Y0012*
X0118Y00121*
X0118Y00122*
X01181Y00123*
X01182Y0013*
X01181Y00136*
X01177Y00142*
X01171Y00146*
X01165Y00147*
X01158Y00146*
X01152Y00142*
X01148Y00136*
X01147Y0013*
X01148Y00127*
X01144Y00121*
X01143Y00121*
X01142Y0012*
X01135Y00121*
X01135Y00122*
X01136Y00123*
X01137Y0013*
X01136Y00136*
X01132Y00142*
X01126Y00146*
X0112Y00147*
X01113Y00146*
X01107Y00142*
X01103Y00136*
X01102Y0013*
X01103Y00127*
X01099Y00121*
X01098Y00121*
X01092Y00117*
X01089Y00111*
X01088Y00111*
X01087Y00107*
X01087*
X01083Y00108*
Y00119*
X01086Y00123*
X01087Y0013*
X01086Y00136*
X01082Y00142*
X01076Y00146*
X0107Y00147*
X01063Y00146*
X01057Y00142*
X01053Y00136*
X01052Y0013*
X01053Y00127*
X01049Y00121*
X01048Y00121*
X01042Y00117*
X01039Y00111*
X01038Y00111*
X01037Y00107*
X01037*
X01033Y00108*
Y00119*
X01036Y00123*
X01037Y0013*
X01036Y00136*
X01032Y00142*
X01026Y00146*
X0102Y00147*
X01013Y00146*
X01007Y00142*
X01003Y00136*
X01002Y0013*
X01002Y00129*
X01Y00126*
X00997Y00129*
X00997Y0013*
X00996Y00136*
X00992Y00142*
X00986Y00146*
X0098Y00147*
X00973Y00146*
X00967Y00142*
X00963Y00136*
X00962Y0013*
X00963Y00126*
X0096Y00122*
X00959Y00122*
X00953Y00121*
X00952Y0012*
X00945Y00121*
X00945Y00122*
X00946Y00123*
X00947Y0013*
X00946Y00136*
X00942Y00142*
X00936Y00146*
X0093Y00147*
X00923Y00146*
X00917Y00142*
X00913Y00136*
X00912Y0013*
X00913Y00127*
X00909Y00121*
X00908Y00121*
X00902Y00117*
X00899Y00111*
X00898Y00111*
X00897Y00107*
X00897*
X00893Y00108*
Y00119*
X00896Y00123*
X00897Y0013*
X00896Y00136*
X00892Y00142*
X00886Y00146*
X0088Y00147*
X00873Y00146*
X00867Y00142*
X00863Y00136*
X00862Y0013*
X00863Y00127*
X00859Y00121*
X00858Y00121*
X00857Y0012*
X0085Y00121*
X0085Y00122*
X00851Y00123*
X00852Y0013*
X00851Y00136*
X00847Y00142*
X00841Y00146*
X00835Y00147*
X00828Y00146*
X00822Y00142*
X00818Y00136*
X00817Y0013*
X00818Y00127*
X00814Y00121*
X00813Y00121*
X00807Y00117*
X00804Y00111*
X00803Y00111*
X00802Y00107*
X00802*
X00798Y00108*
Y00119*
X00801Y00123*
X00802Y0013*
X00801Y00136*
X00797Y00142*
X00791Y00146*
X00785Y00147*
X00778Y00146*
X00772Y00142*
X00768Y00136*
X00767Y0013*
X00768Y00127*
X00764Y00121*
X00763Y00121*
X00762Y0012*
X00755Y00121*
X00755Y00122*
X00756Y00123*
X00757Y0013*
X00756Y00136*
X00752Y00142*
X00746Y00146*
X0074Y00147*
X00733Y00146*
X00727Y00142*
X00723Y00136*
X00722Y0013*
X00723Y00127*
X00719Y00121*
X00718Y00121*
X00717Y0012*
X0071Y00121*
X0071Y00122*
X00711Y00123*
X00712Y0013*
X00711Y00136*
X00707Y00142*
X00701Y00146*
X00695Y00147*
X00688Y00146*
X00682Y00142*
X00678Y00136*
X00677Y0013*
X00678Y00127*
X00674Y00121*
X00673Y00121*
X00667Y00117*
X00664Y00111*
X00663Y00111*
X00662Y00107*
X00662*
X00658Y00108*
Y00124*
X00661Y00128*
X00662Y00135*
X00661Y00141*
X00657Y00147*
X00651Y00151*
X00645Y00152*
G37*
G36*
X00575Y00127D02*
X00568Y00126D01*
X00562Y00122*
X00558Y00116*
X00557Y0011*
X00558Y00103*
X00562Y00097*
X00568Y00093*
X00575Y00092*
X00579Y00093*
X00588Y00085*
X00589Y0008*
Y00043*
X00607*
Y0008*
X00606*
Y00086*
X00605Y00089*
X00604Y00092*
X00591Y00105*
X00592Y0011*
X00591Y00116*
X00587Y00122*
X00581Y00126*
X00575Y00127*
G37*
%LNtime4cm4_modular-3*%
%LPD*%
G36*
X02396Y01521D02*
X02397Y01519D01*
X02397Y01518*
X02394Y01514*
X02303*
Y01514*
X02296Y01513*
X02291Y01509*
X02291Y01509*
X02086Y01304*
X02085Y01304*
X0145*
X01446Y01303*
X01443Y01301*
X01428Y01286*
X01427Y01283*
X01426Y0128*
Y01264*
X01414*
Y01249*
X01273*
X01243Y01279*
X01242Y0128*
Y01288*
X01247Y0129*
X01251Y01287*
X01258Y01286*
X01264Y01287*
X0127Y01291*
X01274Y01297*
X01275Y01304*
X01274Y0131*
X0127Y01316*
X01267Y01318*
Y01378*
X01268*
Y01416*
X01257*
X01255Y01421*
X01256Y01422*
X01283*
X01283Y01422*
X01286Y01421*
X0187*
X01873Y01422*
X01875Y01424*
X01973Y01521*
X01973Y01521*
X02395*
X02396Y01521*
G37*
G36*
X00776Y01499D02*
X00769Y01492D01*
Y01488*
X00765Y01484*
X00763Y01478*
Y01471*
X00765Y01465*
X00769Y01461*
Y01452*
X00756Y01439*
X00712*
X00696Y01454*
X00698Y01459*
X00699Y0146*
X00704Y01465*
X00707Y01471*
Y01478*
X00704Y01484*
X00699Y01489*
X00693Y01492*
X00689*
Y01533*
X00776*
Y01499*
G37*
G36*
X00913Y01419D02*
D01*
X00915Y01418*
X00916Y01417*
X00919Y01414*
X0092Y01412*
Y01389*
X0092Y01387*
X0092Y01386*
Y01378*
X00918Y01374*
X00914Y01369*
X00913Y01368*
X00908Y01368*
X00906Y0137*
X00906Y01375*
Y01396*
X00906Y01397*
Y01416*
X00872*
Y01382*
X00872Y01378*
X00872Y01378*
X00871Y01373*
X00871Y01373*
X00871Y01373*
X00871Y01364*
X00866Y01362*
X00861Y01366*
X00858Y01366*
Y01378*
X00859*
Y01416*
X00809*
Y01378*
X0081Y01378*
X00808Y01366*
X00808Y01366*
X00802Y01362*
X00798Y01356*
X00797Y0135*
X00798Y01343*
X00802Y01337*
X00808Y01333*
X00814Y01332*
X00815Y01332*
X00818Y01328*
X00817Y01325*
X00818Y01318*
X00822Y01312*
X00828Y01308*
X00835Y01307*
X00841Y01308*
X00847Y01312*
X00851Y01318*
X00852Y01325*
X00851Y01328*
X00854Y01332*
X00855Y01332*
X00859Y01333*
X00859Y01333*
X00863Y01329*
X00863Y01329*
X00862Y01325*
X00863Y01318*
X00867Y01312*
X00873Y01308*
X0088Y01307*
X00886Y01308*
X00892Y01312*
X00896Y01318*
X00897Y01325*
X00899Y01328*
X00902Y01325*
X00902Y01325*
X00903Y01318*
X00907Y01312*
X00913Y01308*
X0092Y01307*
X00926Y01308*
X00932Y01312*
X00936Y01318*
X00937Y01325*
X00936Y01329*
X00936Y01329*
X0094Y01333*
X0094Y01333*
X00944Y01332*
X00945Y01332*
X00948Y01328*
X00947Y01325*
X00948Y01318*
X00952Y01312*
X00958Y01308*
X00965Y01307*
X00971Y01308*
X00971Y01309*
X00977Y01306*
X00979Y01304*
X01057Y01225*
X01056Y01223*
X01054Y01221*
X01051Y01222*
X00528*
X00525Y01227*
X00526Y01228*
X00527Y01235*
X00526Y01241*
X00522Y01247*
X00518Y0125*
X00516Y0137*
X00517Y0137*
X00568Y01421*
X00739*
X00741Y01422*
X0091*
X00913Y01419*
G37*
G36*
X00991Y01472D02*
Y0146D01*
X00988Y01456*
X00987Y0145*
X00988Y01443*
X00992Y01437*
X00998Y01433*
X01005Y01432*
X01011Y01433*
X01017Y01437*
X01021Y01443*
X01022Y0145*
X01021Y01452*
X01025Y01458*
X01026Y01458*
X0103Y01461*
X01033Y01457*
X01033Y01457*
X01032Y0145*
X01033Y01443*
X01037Y01438*
X01042Y01434*
X01049Y01433*
X01056Y01434*
X01061Y01438*
X01065Y01443*
X01066Y0145*
X0107Y01452*
X01073Y0145*
X01074Y01443*
X01078Y01438*
X01083Y01434*
X0109Y01433*
X01097Y01434*
X01102Y01438*
X01106Y01443*
X01107Y01448*
X01112*
X01113Y01443*
X01117Y01438*
X01122Y01434*
X01129Y01433*
X01136Y01434*
X01141Y01438*
X01145Y01443*
X01146Y0145*
X01149Y01452*
X01152Y01451*
X01153Y01444*
X01157Y01438*
X01163Y01434*
X0117Y01433*
X01176Y01434*
X01182Y01438*
X01186Y01444*
X01187Y01451*
X01189Y01452*
X01192Y0145*
X01193Y01443*
X01197Y01437*
X01199Y01436*
X01198Y01431*
X0119*
X01187Y0143*
X01184Y01429*
X01177Y01421*
X01177*
X01176Y01421*
X01173Y01416*
X01173Y01416*
X0114*
Y01378*
X01141*
Y01367*
X01137Y01365*
X01133Y01366*
X0113Y0137*
Y0137*
X01127Y01374*
X01127Y01378*
Y01416*
X01061*
Y01378*
X0106Y01375*
X01059Y01373*
X01059Y01369*
X01059Y01369*
X01057Y01368*
X01052Y01367*
X01049Y01372*
X01047Y01375*
X01048Y01378*
Y01416*
X00983*
Y01378*
X00983*
Y01367*
X00978Y01366*
X00977Y01365*
X00973Y01368*
X00972Y01372*
X00971Y01374*
X00969Y01378*
Y01382*
Y01416*
X00958*
X00956Y01421*
X00965Y0143*
X00967Y01433*
Y01433*
X00975Y01441*
X00977Y01444*
X00978Y01447*
Y0146*
X00982Y01462*
X00986Y01468*
X00986Y01472*
X00991Y01472*
G37*
G36*
X01219Y01378D02*
X01234D01*
Y01347*
X0123Y01347*
X01225Y01343*
X01221Y01337*
X0122Y01331*
X01221Y01324*
X01223Y01321*
Y01277*
X01224Y01273*
X01226Y0127*
X0123Y01266*
X01263Y01233*
X01266Y01231*
X0127Y0123*
X01414*
Y01215*
X01426*
Y01184*
X01415*
Y01135*
X0141Y01134*
X01369*
X01293Y01209*
X01291Y01211*
X01288Y01212*
X01174*
X01174Y01212*
X01153Y01233*
X01153Y01233*
Y01274*
X01158Y01276*
X01159Y01275*
X01166Y01274*
X01172Y01275*
X01178Y01279*
X01182Y01285*
X01183Y01292*
X01182Y01296*
X01212Y01326*
X01214Y01329*
X01214Y01332*
Y01332*
Y01358*
X01214Y01361*
X01212Y01364*
X01205Y01371*
Y01378*
X01205*
Y01415*
X01219*
Y01378*
G37*
G36*
X01562Y00171D02*
X01558D01*
Y00176*
X01562*
Y00171*
G37*
G36*
X01661Y00144D02*
X01658D01*
Y00147*
X01658Y00147*
X01658Y00147*
X01657Y00147*
X01657Y00146*
X01657Y00146*
X01657Y00146*
X01656Y00145*
X01656Y00145*
X01656Y00145*
X01655Y00144*
X01655Y00144*
X01654Y00144*
X01653Y00144*
X01653Y00144*
X01652Y00143*
X01651Y00143*
X01651*
X01651Y00143*
X0165*
X0165Y00143*
X0165Y00144*
X0165Y00144*
X01649Y00144*
X01648Y00144*
X01647Y00144*
X01647Y00145*
X01646Y00145*
X01646Y00145*
X01646Y00145*
X01646Y00145*
X01646Y00145*
X01645Y00145*
X01645Y00146*
X01645Y00146*
X01644Y00147*
X01644Y00147*
X01643Y00148*
X01642Y00149*
Y00149*
X01642Y00149*
X01642Y00149*
X01642Y0015*
X01642Y0015*
X01642Y0015*
X01642Y00151*
X01642Y00151*
X01642Y00151*
X01642Y00152*
X01641Y00152*
X01641Y00153*
X01641Y00154*
X01641Y00155*
Y00155*
Y00156*
Y00156*
X01641Y00156*
Y00156*
X01641Y00157*
X01641Y00157*
X01641Y00158*
X01641Y00159*
X01642Y0016*
X01642Y00161*
X01642Y00162*
Y00162*
X01642Y00162*
X01642Y00162*
X01643Y00162*
X01643Y00162*
X01643Y00163*
X01643Y00163*
X01644Y00164*
X01644Y00165*
X01645Y00165*
X01646Y00166*
X01646Y00166*
X01646Y00166*
X01646Y00166*
X01646Y00166*
X01646Y00166*
X01647Y00167*
X01647Y00167*
X01647Y00167*
X01648Y00167*
X01649Y00167*
X0165Y00168*
X0165Y00168*
X01651*
X01652Y00168*
X01652Y00168*
X01653Y00167*
X01653Y00167*
X01654Y00167*
X01655Y00167*
X01655*
X01655Y00167*
X01655Y00167*
X01655Y00166*
X01656Y00166*
X01656Y00166*
X01657Y00165*
X01657Y00165*
X01657Y00164*
Y00176*
X01661*
Y00144*
G37*
G36*
X01505D02*
X01501D01*
Y00147*
X01501Y00147*
X01501Y00147*
X01501Y00147*
X01501Y00146*
X015Y00146*
X015Y00146*
X015Y00145*
X01499Y00145*
X01499Y00145*
X01498Y00144*
X01498Y00144*
X01497Y00144*
X01497Y00144*
X01496Y00144*
X01495Y00143*
X01494Y00143*
X01494*
X01494Y00143*
X01494*
X01493Y00143*
X01493Y00144*
X01493Y00144*
X01492Y00144*
X01491Y00144*
X0149Y00144*
X0149Y00145*
X01489Y00145*
X01489Y00145*
X01489Y00145*
X01489Y00145*
X01489Y00145*
X01489Y00145*
X01489Y00146*
X01488Y00146*
X01487Y00147*
X01487Y00147*
X01486Y00148*
X01486Y00149*
Y00149*
X01486Y00149*
X01486Y00149*
X01486Y0015*
X01485Y0015*
X01485Y0015*
X01485Y00151*
X01485Y00151*
X01485Y00151*
X01485Y00152*
X01485Y00152*
X01485Y00153*
X01485Y00154*
X01485Y00155*
Y00155*
Y00156*
Y00156*
X01485Y00156*
Y00156*
X01485Y00157*
X01485Y00157*
X01485Y00158*
X01485Y00159*
X01485Y0016*
X01485Y00161*
X01486Y00162*
Y00162*
X01486Y00162*
X01486Y00162*
X01486Y00162*
X01486Y00162*
X01486Y00163*
X01487Y00163*
X01487Y00164*
X01488Y00165*
X01488Y00165*
X01489Y00166*
X01489Y00166*
X01489Y00166*
X01489Y00166*
X0149Y00166*
X0149Y00166*
X0149Y00167*
X0149Y00167*
X01491Y00167*
X01491Y00167*
X01492Y00167*
X01493Y00168*
X01494Y00168*
X01495*
X01495Y00168*
X01496Y00168*
X01496Y00167*
X01497Y00167*
X01497Y00167*
X01498Y00167*
X01498*
X01498Y00167*
X01498Y00167*
X01499Y00166*
X01499Y00166*
X01499Y00166*
X015Y00165*
X015Y00165*
X01501Y00164*
Y00176*
X01505*
Y00144*
G37*
G36*
X01604Y00168D02*
X01605D01*
X01605Y00168*
X01606Y00167*
X01606Y00167*
X01607Y00167*
X01608Y00167*
X01608*
X01608Y00167*
X01608Y00167*
X01608Y00167*
X01609Y00166*
X01609Y00166*
X0161Y00166*
X0161Y00165*
X0161Y00165*
X0161Y00165*
X0161Y00165*
X01611Y00164*
X01611Y00164*
X01611Y00164*
X01611Y00163*
X01611Y00163*
X01612Y00162*
Y00162*
X01612Y00162*
X01612Y00162*
X01612Y00161*
X01612Y00161*
Y0016*
X01612Y0016*
Y0016*
X01612Y00159*
Y00159*
Y00158*
Y00144*
X01608*
Y00158*
Y00158*
Y00158*
Y00158*
Y00158*
Y00159*
X01608Y00159*
X01608Y00159*
X01608Y0016*
X01608Y00161*
X01608Y00161*
X01607Y00162*
X01607Y00162*
X01607Y00162*
X01607Y00162*
X01607Y00162*
X01607Y00163*
X01606Y00163*
X01606Y00163*
X01606Y00164*
X01606Y00164*
X01606Y00164*
X01605Y00164*
X01605Y00164*
X01605Y00164*
X01604Y00164*
X01604Y00164*
X01603Y00164*
X01603*
X01603Y00164*
X01602*
X01602Y00164*
X01601Y00164*
X01601Y00164*
X016Y00164*
X01599Y00163*
X01599Y00163*
X01599Y00163*
X01599Y00163*
X01599Y00163*
X01598Y00162*
X01598Y00162*
X01598Y00162*
X01598Y00162*
X01598Y00162*
X01598Y00161*
X01598Y00161*
X01597Y0016*
X01597Y0016*
X01597Y00159*
X01597Y00159*
X01597Y00158*
X01597Y00157*
X01597Y00157*
Y00144*
X01593*
Y00167*
X01596*
Y00164*
X01596Y00164*
X01597Y00164*
X01597Y00164*
X01597Y00164*
X01597Y00165*
X01597Y00165*
X01598Y00165*
X01598Y00166*
X01599Y00166*
X01599Y00166*
X016Y00167*
X01601Y00167*
X01601Y00167*
X01602Y00167*
X01603Y00168*
X01604Y00168*
X01604*
X01604Y00168*
G37*
G36*
X01544D02*
X01544D01*
X01545Y00168*
X01546Y00167*
X01547Y00167*
X01547Y00167*
X01548Y00167*
X01548*
X01548Y00167*
X01548Y00167*
X01548Y00167*
X01549Y00167*
X01549Y00166*
X0155Y00166*
X0155Y00166*
X01551Y00165*
X01551Y00165*
X01551Y00165*
X01551Y00164*
X01552Y00164*
X01552Y00164*
X01552Y00163*
X01552Y00163*
X01552Y00162*
X01553Y00161*
X01549Y00161*
Y00161*
Y00161*
X01549Y00161*
X01549Y00161*
X01548Y00162*
X01548Y00162*
X01548Y00163*
X01548Y00163*
X01547Y00163*
X01547Y00163*
X01547Y00164*
X01547Y00164*
X01546Y00164*
X01546Y00164*
X01545Y00164*
X01544Y00164*
X01544Y00164*
X01543*
X01543Y00164*
X01543*
X01542Y00164*
X01542Y00164*
X01541Y00164*
X0154Y00164*
X0154Y00164*
X0154Y00164*
X0154Y00163*
X0154Y00163*
X01539Y00163*
X01539Y00163*
X01539Y00163*
X01539Y00162*
X01539Y00162*
X01539Y00161*
Y00161*
Y00161*
X01539Y00161*
X01539Y00161*
X01539Y0016*
X01539Y0016*
X01539Y0016*
X01539Y0016*
X01539Y0016*
X01539Y0016*
X01539Y0016*
X0154Y00159*
X0154Y00159*
X0154Y00159*
X01541Y00159*
X01541*
X01541Y00159*
X01541Y00159*
X01541Y00159*
X01541Y00159*
X01542Y00159*
X01542Y00159*
X01542Y00158*
X01543Y00158*
X01543Y00158*
X01544Y00158*
X01544Y00158*
X01544*
X01544Y00158*
X01544Y00158*
X01545Y00158*
X01545Y00158*
X01545Y00158*
X01546Y00157*
X01546Y00157*
X01547Y00157*
X01548Y00157*
X01549Y00157*
X01549Y00156*
X0155Y00156*
X0155Y00156*
X0155*
X0155Y00156*
X0155Y00156*
X0155Y00156*
X01551Y00156*
X01551Y00155*
X01552Y00155*
X01552Y00155*
X01552Y00154*
X01553Y00154*
X01553Y00154*
X01553Y00154*
X01553Y00153*
X01553Y00153*
X01553Y00152*
X01553Y00151*
X01553Y00151*
Y00151*
Y00151*
Y00151*
Y0015*
X01553Y0015*
X01553Y00149*
X01553Y00149*
X01553Y00148*
X01553Y00148*
X01552Y00147*
Y00147*
X01552Y00147*
X01552Y00147*
X01552Y00146*
X01551Y00146*
X01551Y00146*
X0155Y00145*
X0155Y00145*
X01549Y00144*
X01549*
X01549Y00144*
X01549Y00144*
X01549Y00144*
X01548Y00144*
X01548Y00144*
X01548Y00144*
X01548Y00144*
X01547Y00144*
X01546Y00144*
X01545Y00143*
X01544Y00143*
X01544*
X01543Y00143*
X01543Y00143*
X01543Y00143*
X01542Y00144*
X01542Y00144*
X0154Y00144*
X01539Y00144*
X01539Y00144*
X01538Y00145*
X01538Y00145*
X01537Y00145*
X01537Y00145*
X01537Y00145*
X01537Y00145*
X01537Y00146*
X01537Y00146*
X01536Y00146*
X01536Y00146*
X01536Y00147*
X01536Y00147*
X01535Y00147*
X01535Y00148*
X01535Y00148*
X01535Y00149*
X01534Y00149*
X01534Y0015*
X01534Y00151*
X01538Y00151*
Y00151*
X01538Y00151*
Y00151*
X01538Y00151*
X01538Y00151*
X01538Y00151*
X01538Y0015*
X01539Y0015*
X01539Y00149*
X01539Y00148*
X0154Y00148*
X0154*
X0154Y00148*
X0154Y00148*
X0154Y00147*
X01541Y00147*
X01542Y00147*
X01542Y00147*
X01543Y00147*
X01544Y00147*
X01544*
X01545Y00147*
X01545*
X01545Y00147*
X01546Y00147*
X01546Y00147*
X01547Y00147*
X01548Y00147*
X01548Y00148*
X01548Y00148*
X01548Y00148*
X01549Y00148*
X01549Y00148*
X01549Y00149*
X01549Y00149*
X01549Y0015*
X01549Y0015*
Y0015*
Y00151*
X01549Y00151*
X01549Y00151*
X01549Y00151*
X01549Y00152*
X01549Y00152*
X01548Y00152*
X01548Y00152*
X01548Y00153*
X01548Y00153*
X01548Y00153*
X01547Y00153*
X01547Y00153*
X01547Y00153*
X01547Y00153*
X01546Y00153*
X01546Y00153*
X01545Y00153*
X01545Y00154*
X01544Y00154*
X01544*
X01544Y00154*
X01544Y00154*
X01544Y00154*
X01543Y00154*
X01543Y00154*
X01542Y00154*
X01542Y00154*
X01541Y00155*
X0154Y00155*
X01539Y00155*
X01539Y00155*
X01539Y00155*
X01538Y00156*
X01538*
X01538Y00156*
X01538Y00156*
X01538Y00156*
X01537Y00156*
X01537Y00157*
X01536Y00157*
X01536Y00157*
X01536Y00158*
X01536Y00158*
X01536Y00158*
X01535Y00158*
X01535Y00159*
X01535Y00159*
X01535Y0016*
X01535Y0016*
X01535Y00161*
Y00161*
Y00161*
Y00161*
X01535Y00162*
X01535Y00162*
X01535Y00162*
X01535Y00163*
X01535Y00163*
X01536Y00164*
X01536Y00164*
X01536Y00164*
X01536Y00164*
X01536Y00165*
X01536Y00165*
X01537Y00165*
X01537Y00166*
X01537Y00166*
X01537Y00166*
X01538Y00166*
X01538Y00166*
X01538Y00166*
X01538Y00167*
X01539Y00167*
X01539Y00167*
X0154Y00167*
X0154*
X0154Y00167*
X0154Y00167*
X01541Y00167*
X01541Y00167*
X01541Y00168*
X01542Y00168*
X01543Y00168*
X01543Y00168*
X01544*
X01544Y00168*
G37*
G36*
X01715Y00144D02*
Y00143D01*
X01715Y00143*
X01715Y00143*
X01715Y00143*
X01715Y00143*
X01715Y00142*
X01714Y00142*
X01714Y00141*
X01714Y00141*
X01714Y0014*
X01713Y00139*
X01713Y00139*
X01713Y00139*
X01713Y00138*
Y00138*
X01713Y00138*
X01713Y00138*
X01713Y00138*
X01712Y00138*
X01712Y00137*
X01712Y00137*
X01711Y00136*
X01711Y00136*
X0171Y00135*
X0171Y00135*
X0171Y00135*
X0171Y00135*
X0171Y00135*
X01709Y00135*
X01708Y00135*
X01708Y00135*
X01707Y00135*
X01707*
X01707Y00135*
X01706Y00135*
X01706Y00135*
X01706Y00135*
X01705Y00135*
X01705Y00135*
X01704Y00139*
X01704*
X01704Y00139*
X01705Y00139*
X01705Y00138*
X01705Y00138*
X01706Y00138*
X01706Y00138*
X01706Y00138*
X01707*
X01707Y00138*
X01707Y00138*
X01708Y00138*
X01708Y00138*
X01708Y00139*
X01709Y00139*
X01709Y00139*
X01709Y00139*
X01709Y00139*
X01709Y00139*
X01709Y00139*
X01709Y00139*
X0171Y0014*
X0171Y0014*
X0171Y0014*
X0171Y0014*
X0171Y00141*
X0171Y00141*
X01711Y00141*
X01711Y00142*
X01711Y00142*
X01711Y00142*
X01711Y00143*
X01711Y00143*
X01711Y00143*
X01711Y00143*
X01711Y00144*
X01703Y00167*
X01707*
X01712Y00154*
Y00154*
X01712Y00154*
X01712Y00153*
X01712Y00153*
X01712Y00153*
X01712Y00153*
X01712Y00152*
X01712Y00152*
X01712Y00151*
X01713Y0015*
X01713Y00149*
X01713Y00148*
Y00148*
X01713Y00148*
X01713Y00149*
X01713Y00149*
X01713Y00149*
X01714Y00149*
X01714Y0015*
X01714Y0015*
X01714Y00151*
X01714Y00152*
X01715Y00153*
X01715Y00154*
X0172Y00167*
X01724*
X01715Y00144*
G37*
G36*
X01562Y00144D02*
X01558D01*
Y00167*
X01562*
Y00144*
G37*
G36*
X01684Y00165D02*
X01684Y00165D01*
X01684Y00165*
X01684Y00165*
X01684Y00165*
X01685Y00165*
X01685Y00166*
X01685Y00166*
X01686Y00166*
X01686Y00166*
X01686Y00167*
X01687Y00167*
X01688Y00167*
X01688Y00167*
X01689Y00168*
X0169Y00168*
X0169Y00168*
X01691*
X01691Y00168*
X01691*
X01692Y00168*
X01692Y00167*
X01693Y00167*
X01694Y00167*
X01694Y00167*
X01694*
X01694Y00167*
X01694Y00167*
X01695Y00167*
X01695Y00166*
X01695Y00166*
X01696Y00166*
X01696Y00165*
X01697Y00165*
X01697Y00164*
X01697Y00164*
X01698Y00164*
X01698Y00164*
X01698Y00163*
X01698Y00163*
X01699Y00162*
X01699Y00161*
X01699Y00161*
Y00161*
X01699Y0016*
X01699Y0016*
X01699Y0016*
X017Y0016*
X017Y0016*
X017Y00159*
X017Y00159*
X017Y00158*
X017Y00158*
X017Y00157*
X017Y00156*
Y00156*
Y00156*
X017Y00155*
Y00155*
X017Y00154*
X017Y00154*
X017Y00153*
X017Y00152*
X017Y00152*
X01699Y00151*
X01699Y0015*
X01699Y00149*
X01698Y00149*
X01698Y00148*
X01698Y00147*
X01697Y00147*
X01697Y00147*
X01697Y00146*
X01697Y00146*
X01697Y00146*
X01696Y00146*
X01696Y00146*
X01696Y00145*
X01695Y00145*
X01695Y00145*
X01694Y00144*
X01693Y00144*
X01693Y00144*
X01692Y00144*
X01691Y00144*
X01691Y00143*
X0169Y00143*
X0169*
X0169Y00143*
X01689Y00143*
X01689Y00143*
X01689Y00144*
X01688Y00144*
X01688Y00144*
X01687Y00144*
X01687Y00144*
X01686Y00144*
X01686Y00145*
X01685Y00145*
X01685Y00146*
X01684Y00146*
X01684Y00147*
Y00144*
X0168*
Y00176*
X01684*
Y00165*
G37*
G36*
X01628Y00168D02*
X01628D01*
X01628Y00168*
X01629Y00167*
X01629Y00167*
X0163Y00167*
X01631Y00167*
X01631Y00167*
X01632Y00167*
X01632Y00166*
X01633Y00166*
X01634Y00165*
X01634Y00165*
X01635Y00164*
X01635Y00164*
X01635Y00164*
X01635Y00164*
X01635Y00164*
X01636Y00164*
X01636Y00163*
X01636Y00163*
X01636Y00162*
X01637Y00162*
X01637Y00161*
X01637Y0016*
X01637Y00159*
X01638Y00159*
X01638Y00158*
X01638Y00157*
X01638Y00156*
Y00155*
Y00155*
Y00155*
X01638Y00155*
X0162*
Y00154*
Y00154*
X01621Y00154*
X01621Y00154*
X01621Y00154*
X01621Y00153*
X01621Y00153*
X01621Y00152*
X01621Y00151*
X01622Y0015*
X01622Y0015*
X01622Y00149*
X01622Y00149*
X01623Y00149*
X01623Y00149*
X01623Y00149*
X01623Y00148*
X01623Y00148*
X01623Y00148*
X01623Y00148*
X01624Y00148*
X01624Y00148*
X01625Y00147*
X01626Y00147*
X01626Y00147*
X01626Y00147*
X01627Y00147*
X01628Y00147*
X01628*
X01628Y00147*
X01628Y00147*
X01629Y00147*
X01629Y00147*
X0163Y00147*
X01631Y00147*
X01631Y00148*
X01631*
X01631Y00148*
X01631Y00148*
X01632Y00148*
X01632Y00149*
X01632Y00149*
X01633Y0015*
X01633Y00151*
X01634Y00151*
X01638Y00151*
Y00151*
X01638Y00151*
X01638Y00151*
X01637Y0015*
X01637Y0015*
X01637Y0015*
X01637Y00149*
X01637Y00149*
X01636Y00148*
X01636Y00147*
X01635Y00147*
X01635Y00146*
X01635Y00146*
X01634Y00145*
X01634Y00145*
X01634Y00145*
X01634Y00145*
X01634Y00145*
X01633Y00145*
X01633Y00145*
X01633Y00145*
X01632Y00144*
X01632Y00144*
X01631Y00144*
X01631Y00144*
X0163Y00144*
X0163Y00144*
X01629Y00143*
X01628Y00143*
X01628Y00143*
X01627*
X01627Y00143*
X01627*
X01626Y00143*
X01626Y00144*
X01625Y00144*
X01625Y00144*
X01624Y00144*
X01623Y00144*
X01623Y00144*
X01622Y00145*
X01621Y00145*
X01621Y00145*
X0162Y00146*
X01619Y00147*
X01619Y00147*
X01619Y00147*
X01619Y00147*
X01619Y00147*
X01619Y00147*
X01618Y00148*
X01618Y00148*
X01618Y00149*
X01618Y00149*
X01617Y0015*
X01617Y00151*
X01617Y00152*
X01617Y00152*
X01617Y00153*
X01617Y00154*
X01616Y00155*
Y00155*
Y00156*
X01617Y00156*
Y00156*
X01617Y00157*
X01617Y00157*
X01617Y00158*
X01617Y00159*
X01617Y00159*
X01617Y0016*
X01617Y00161*
X01618Y00162*
X01618Y00162*
X01618Y00163*
X01619Y00164*
X01619Y00164*
X01619Y00164*
X0162Y00165*
X0162Y00165*
X0162Y00165*
X0162Y00165*
X01621Y00165*
X01621Y00166*
X01622Y00166*
X01622Y00166*
X01623Y00167*
X01623Y00167*
X01624Y00167*
X01625Y00167*
X01626Y00168*
X01626Y00168*
X01627Y00168*
X01628*
X01628Y00168*
G37*
G36*
X01521D02*
X01521D01*
X01522Y00168*
X01522Y00167*
X01523Y00167*
X01523Y00167*
X01524Y00167*
X01524Y00167*
X01525Y00167*
X01526Y00166*
X01526Y00166*
X01527Y00165*
X01527Y00165*
X01528Y00164*
X01528Y00164*
X01528Y00164*
X01528Y00164*
X01528Y00164*
X01529Y00164*
X01529Y00163*
X01529Y00163*
X01529Y00162*
X0153Y00162*
X0153Y00161*
X0153Y0016*
X0153Y00159*
X01531Y00159*
X01531Y00158*
X01531Y00157*
X01531Y00156*
Y00155*
Y00155*
Y00155*
X01531Y00155*
X01514*
Y00154*
Y00154*
X01514Y00154*
X01514Y00154*
X01514Y00154*
X01514Y00153*
X01514Y00153*
X01514Y00152*
X01514Y00151*
X01515Y0015*
X01515Y0015*
X01515Y00149*
X01515Y00149*
X01516Y00149*
X01516Y00149*
X01516Y00149*
X01516Y00148*
X01516Y00148*
X01516Y00148*
X01516Y00148*
X01517Y00148*
X01517Y00148*
X01518Y00147*
X01519Y00147*
X01519Y00147*
X0152Y00147*
X0152Y00147*
X01521Y00147*
X01521*
X01521Y00147*
X01521Y00147*
X01522Y00147*
X01522Y00147*
X01523Y00147*
X01524Y00147*
X01524Y00148*
X01524*
X01524Y00148*
X01524Y00148*
X01525Y00148*
X01525Y00149*
X01525Y00149*
X01526Y0015*
X01526Y00151*
X01527Y00151*
X01531Y00151*
Y00151*
X01531Y00151*
X01531Y00151*
X01531Y0015*
X0153Y0015*
X0153Y0015*
X0153Y00149*
X0153Y00149*
X01529Y00148*
X01529Y00147*
X01528Y00147*
X01528Y00146*
X01528Y00146*
X01527Y00145*
X01527Y00145*
X01527Y00145*
X01527Y00145*
X01527Y00145*
X01526Y00145*
X01526Y00145*
X01526Y00145*
X01525Y00144*
X01525Y00144*
X01524Y00144*
X01524Y00144*
X01523Y00144*
X01523Y00144*
X01522Y00143*
X01521Y00143*
X01521Y00143*
X0152*
X0152Y00143*
X0152*
X01519Y00143*
X01519Y00144*
X01518Y00144*
X01518Y00144*
X01517Y00144*
X01516Y00144*
X01516Y00144*
X01515Y00145*
X01514Y00145*
X01514Y00145*
X01513Y00146*
X01512Y00147*
X01512Y00147*
X01512Y00147*
X01512Y00147*
X01512Y00147*
X01512Y00147*
X01512Y00148*
X01511Y00148*
X01511Y00149*
X01511Y00149*
X0151Y0015*
X0151Y00151*
X0151Y00152*
X0151Y00152*
X0151Y00153*
X0151Y00154*
X0151Y00155*
Y00155*
Y00156*
X0151Y00156*
Y00156*
X0151Y00157*
X0151Y00157*
X0151Y00158*
X0151Y00159*
X0151Y00159*
X0151Y0016*
X0151Y00161*
X01511Y00162*
X01511Y00162*
X01512Y00163*
X01512Y00164*
X01513Y00164*
X01513Y00164*
X01513Y00165*
X01513Y00165*
X01513Y00165*
X01513Y00165*
X01514Y00165*
X01514Y00166*
X01515Y00166*
X01515Y00166*
X01516Y00167*
X01516Y00167*
X01517Y00167*
X01518Y00167*
X01519Y00168*
X01519Y00168*
X0152Y00168*
X01521*
X01521Y00168*
G37*
G36*
X01577D02*
X01577D01*
X01578Y00168*
X01578Y00167*
X01578Y00167*
X01579Y00167*
X01579Y00167*
X0158Y00167*
X01581Y00167*
X01581Y00166*
X01582Y00166*
X01582Y00165*
X01583Y00165*
X01583Y00164*
Y00167*
X01587*
Y00147*
Y00147*
Y00147*
Y00147*
Y00146*
X01587Y00146*
X01587Y00145*
X01587Y00145*
X01587Y00144*
X01587Y00143*
X01586Y00142*
X01586Y00141*
X01586Y0014*
X01586Y0014*
X01586Y00139*
Y00139*
X01586Y00139*
X01586Y00139*
X01586Y00139*
X01585Y00139*
X01585Y00138*
X01584Y00138*
X01584Y00137*
X01583Y00136*
X01582Y00136*
X01582*
X01582Y00136*
X01582Y00136*
X01582Y00136*
X01582Y00136*
X01581Y00135*
X01581Y00135*
X01581Y00135*
X0158Y00135*
X0158Y00135*
X01579Y00135*
X01579Y00135*
X01578Y00135*
X01576Y00135*
X01576*
X01576Y00135*
X01575Y00135*
X01575Y00135*
X01575Y00135*
X01574Y00135*
X01573Y00135*
X01572Y00135*
X01571Y00136*
X01571Y00136*
X0157Y00136*
X0157Y00136*
X0157Y00136*
X0157Y00136*
X01569Y00137*
X01569Y00137*
X01569Y00137*
X01569Y00137*
X01569Y00137*
X01568Y00138*
X01568Y00138*
X01568Y00139*
X01568Y00139*
X01568Y0014*
X01567Y0014*
X01567Y00141*
X01567Y00141*
Y00142*
X01571Y00141*
Y00141*
Y00141*
X01571Y00141*
X01571Y00141*
X01571Y00141*
X01572Y0014*
X01572Y0014*
X01572Y00139*
X01572Y00139*
X01573Y00139*
X01573Y00139*
X01573Y00139*
X01573Y00138*
X01574Y00138*
X01575Y00138*
X01576Y00138*
X01576Y00138*
X01577*
X01577Y00138*
X01577*
X01577Y00138*
X01578Y00138*
X01579Y00138*
X01579Y00138*
X0158Y00138*
X01581Y00139*
X01581*
X01581Y00139*
X01581Y00139*
X01581Y00139*
X01581Y0014*
X01582Y0014*
X01582Y00141*
X01582Y00141*
X01583Y00142*
Y00142*
X01583Y00142*
Y00142*
X01583Y00142*
X01583Y00143*
Y00143*
X01583Y00143*
X01583Y00143*
X01583Y00144*
Y00144*
X01583Y00145*
Y00145*
X01583Y00146*
Y00146*
Y00147*
X01583Y00147*
X01583Y00147*
X01583Y00147*
X01582Y00146*
X01582Y00146*
X01582Y00146*
X01582Y00146*
X01581Y00145*
X01581Y00145*
X0158Y00145*
X0158Y00145*
X01579Y00144*
X01579Y00144*
X01578Y00144*
X01577Y00144*
X01577Y00144*
X01576*
X01576Y00144*
X01576Y00144*
X01575Y00144*
X01575Y00144*
X01574Y00144*
X01574Y00144*
X01573Y00145*
X01573Y00145*
X01572Y00145*
X01571Y00145*
X01571Y00146*
X0157Y00146*
X0157Y00147*
X01569Y00147*
X01569Y00147*
X01569Y00148*
X01569Y00148*
X01569Y00148*
X01569Y00148*
X01568Y00149*
X01568Y00149*
X01568Y0015*
X01568Y0015*
X01567Y00151*
X01567Y00152*
X01567Y00152*
X01567Y00153*
X01567Y00154*
X01567Y00155*
X01567Y00156*
Y00156*
Y00156*
Y00156*
X01567Y00156*
Y00157*
X01567Y00157*
X01567Y00157*
X01567Y00158*
X01567Y00159*
X01567Y0016*
X01567Y00161*
X01568Y00162*
Y00162*
X01568Y00162*
X01568Y00162*
X01568Y00162*
X01568Y00162*
X01568Y00163*
X01569Y00163*
X01569Y00164*
X0157Y00165*
X0157Y00165*
X01571Y00166*
X01571Y00166*
X01571Y00166*
X01571Y00166*
X01572Y00166*
X01572Y00166*
X01572Y00167*
X01572Y00167*
X01573Y00167*
X01573Y00167*
X01574Y00167*
X01574Y00167*
X01575Y00168*
X01576Y00168*
X01577*
X01577Y00168*
G37*
G36*
X01704Y00118D02*
X01704D01*
X01705Y00118*
X01705Y00118*
X01706Y00118*
X01707Y00118*
X01709Y00117*
X01711Y00116*
X01711Y00116*
X01712Y00115*
X01712*
X01712Y00115*
X01713Y00115*
X01713Y00115*
X01714Y00114*
X01715Y00113*
X01716Y00112*
X01717Y00111*
X01718Y00109*
X01718Y00108*
Y00108*
X01718Y00107*
X01719Y00107*
X01719Y00107*
X01719Y00106*
X01719Y00106*
X01719Y00105*
X01719Y00104*
X0172Y00104*
X0172Y00103*
X0172Y00101*
X0172Y00099*
X01721Y00097*
Y00097*
Y00096*
Y00096*
X0172Y00096*
Y00095*
X0172Y00094*
X0172Y00094*
X0172Y00093*
X0172Y00091*
X0172Y00089*
X01719Y00087*
X01718Y00085*
Y00085*
X01718Y00085*
X01718Y00085*
X01718Y00084*
X01718Y00084*
X01717Y00083*
X01717Y00082*
X01716Y00081*
X01714Y0008*
X01713Y00078*
X01712Y00077*
X01711*
X01711Y00077*
X01711Y00077*
X01711Y00077*
X0171Y00077*
X0171Y00076*
X01709Y00076*
X01709Y00076*
X01707Y00075*
X01706Y00075*
X01704Y00075*
X01703Y00075*
X01702Y00075*
X01702*
X01701Y00075*
X017Y00075*
X01699Y00075*
X01698Y00075*
X01697Y00076*
X01696Y00076*
X01696Y00076*
X01695Y00076*
X01695Y00077*
X01694Y00077*
X01694Y00078*
X01693Y00078*
X01692Y00079*
X01691Y0008*
Y0006*
X01684*
Y00117*
X01691*
Y00112*
X01691Y00112*
X01691Y00112*
X01692Y00113*
X01692Y00114*
X01693Y00114*
X01694Y00115*
X01695Y00116*
X01696Y00117*
X01696*
X01696Y00117*
X01696Y00117*
X01697Y00117*
X01698Y00117*
X01699Y00118*
X017Y00118*
X01701Y00118*
X01703Y00118*
X01703*
X01704Y00118*
G37*
G36*
X01592D02*
X01592D01*
X01593Y00118*
X01593Y00118*
X01594Y00118*
X01595Y00118*
X01597Y00117*
X01599Y00116*
X01599Y00116*
X016Y00115*
X016*
X016Y00115*
X01601Y00115*
X01601Y00115*
X01602Y00114*
X01603Y00113*
X01604Y00112*
X01605Y00111*
X01606Y00109*
X01606Y00108*
Y00108*
X01606Y00107*
X01607Y00107*
X01607Y00107*
X01607Y00106*
X01607Y00106*
X01607Y00105*
X01607Y00104*
X01608Y00104*
X01608Y00103*
X01608Y00101*
X01608Y00099*
X01609Y00097*
Y00097*
Y00096*
Y00096*
X01608Y00096*
Y00095*
X01608Y00094*
X01608Y00094*
X01608Y00093*
X01608Y00091*
X01608Y00089*
X01607Y00087*
X01606Y00085*
Y00085*
X01606Y00085*
X01606Y00085*
X01606Y00084*
X01606Y00084*
X01605Y00083*
X01605Y00082*
X01604Y00081*
X01602Y0008*
X01601Y00078*
X016Y00077*
X01599*
X01599Y00077*
X01599Y00077*
X01599Y00077*
X01598Y00077*
X01598Y00076*
X01597Y00076*
X01597Y00076*
X01595Y00075*
X01594Y00075*
X01592Y00075*
X01591Y00075*
X0159Y00075*
X0159*
X01589Y00075*
X01588Y00075*
X01587Y00075*
X01586Y00075*
X01585Y00076*
X01584Y00076*
X01584Y00076*
X01583Y00076*
X01583Y00077*
X01582Y00077*
X01582Y00078*
X01581Y00078*
X0158Y00079*
X01579Y0008*
Y0006*
X01572*
Y00117*
X01579*
Y00112*
X01579Y00112*
X01579Y00112*
X0158Y00113*
X0158Y00114*
X01581Y00114*
X01582Y00115*
X01583Y00116*
X01584Y00117*
X01584*
X01584Y00117*
X01584Y00117*
X01585Y00117*
X01586Y00117*
X01587Y00118*
X01588Y00118*
X01589Y00118*
X01591Y00118*
X01591*
X01592Y00118*
G37*
G36*
X01881D02*
X01882Y00118D01*
X01882Y00118*
X01883Y00118*
X01884Y00118*
X01885Y00117*
X01887Y00117*
X01888Y00116*
X01888Y00116*
X01889Y00115*
X0189Y00115*
X0189Y00115*
X0189Y00115*
X0189Y00114*
X0189Y00114*
X01891Y00114*
X01891Y00113*
X01891Y00113*
X01892Y00112*
X01892Y00111*
X01892Y00111*
X01892Y0011*
X01893Y00109*
X01893Y00108*
X01893Y00107*
X01893Y00106*
X01893Y00104*
Y00076*
X01886*
Y00102*
Y00102*
Y00102*
Y00102*
Y00103*
X01886Y00103*
Y00104*
X01886Y00105*
X01886Y00106*
X01886Y00107*
X01885Y00108*
Y00108*
X01885Y00108*
X01885Y00109*
X01885Y00109*
X01885Y0011*
X01884Y0011*
X01884Y00111*
X01883Y00111*
X01883Y00111*
X01883Y00111*
X01882Y00111*
X01882Y00112*
X01881Y00112*
X0188Y00112*
X0188Y00112*
X01879Y00112*
X01878*
X01878Y00112*
X01878*
X01877Y00112*
X01876Y00112*
X01875Y00111*
X01874Y00111*
X01873Y0011*
X01872Y0011*
X01871Y00109*
Y00109*
X01871Y00109*
X01871Y00109*
X01871Y00109*
X01871Y00108*
X0187Y00108*
X0187Y00107*
X0187Y00107*
X0187Y00106*
X01869Y00106*
X01869Y00105*
X01869Y00104*
X01869Y00103*
X01869Y00102*
X01868Y00101*
X01868Y001*
Y00076*
X01861*
Y00103*
Y00103*
Y00103*
Y00103*
Y00103*
X01861Y00104*
Y00104*
X01861Y00105*
X01861Y00106*
X01861Y00108*
X0186Y00109*
X0186Y0011*
X0186Y0011*
X01859Y0011*
X01859Y00111*
X01858Y00111*
X01857Y00111*
X01857Y00112*
X01855Y00112*
X01854Y00112*
X01853*
X01853Y00112*
X01852Y00112*
X01851Y00112*
X0185Y00111*
X01849Y00111*
X01848Y00111*
X01848Y0011*
X01848Y0011*
X01848Y0011*
X01847Y00109*
X01846Y00109*
X01846Y00108*
X01845Y00107*
X01845Y00106*
Y00106*
X01845Y00106*
X01845Y00106*
X01845Y00105*
X01844Y00105*
X01844Y00105*
X01844Y00104*
X01844Y00104*
X01844Y00103*
X01844Y00102*
X01844Y00102*
X01844Y00101*
X01844Y001*
X01844Y00099*
X01844Y00098*
Y00097*
Y00076*
X01837*
Y00117*
X01843*
Y00112*
X01843Y00112*
X01843Y00112*
X01844Y00113*
X01844Y00113*
X01845Y00114*
X01846Y00115*
X01847Y00116*
X01848Y00116*
X01848*
X01848Y00116*
X01848Y00117*
X01849Y00117*
X01849Y00117*
X01849Y00117*
X0185Y00117*
X01851Y00118*
X01853Y00118*
X01854Y00118*
X01856Y00118*
X01856*
X01857Y00118*
X01857Y00118*
X01858Y00118*
X01859Y00118*
X01861Y00117*
X01862Y00117*
X01863Y00116*
X01863*
X01863Y00116*
X01864Y00116*
X01864Y00116*
X01865Y00115*
X01865Y00114*
X01866Y00113*
X01867Y00112*
X01867Y00111*
X01867Y00111*
X01868Y00111*
X01868Y00112*
X01868Y00112*
X01869Y00113*
X01869Y00113*
X0187Y00114*
X01871Y00115*
X01872Y00115*
X01873Y00116*
X01874Y00117*
X01875Y00117*
X01876Y00118*
X01877Y00118*
X01879Y00118*
X0188Y00118*
X01881*
X01881Y00118*
G37*
G36*
X01769D02*
X0177Y00118D01*
X01771Y00118*
X01771Y00118*
X01772Y00118*
X01774Y00117*
X01776Y00117*
X01777Y00116*
X01778Y00116*
X01779Y00115*
X01779Y00115*
X0178Y00115*
X0178Y00115*
X0178Y00114*
X0178Y00114*
X01781Y00114*
X01781Y00113*
X01781Y00113*
X01782Y00112*
X01782Y00112*
X01783Y00111*
X01783Y0011*
X01784Y00109*
X01784Y00108*
X01784Y00107*
X01785Y00106*
X01785Y00105*
X01778Y00104*
Y00104*
X01778Y00104*
X01778Y00104*
X01778Y00105*
X01778Y00105*
X01777Y00106*
X01777Y00107*
X01776Y00108*
X01776Y00109*
X01775Y0011*
X01775Y0011*
X01774Y00111*
X01774Y00111*
X01773Y00111*
X01772Y00112*
X01771Y00112*
X0177Y00112*
X01769Y00112*
X01768*
X01768Y00112*
X01767Y00112*
X01767Y00112*
X01766Y00112*
X01764Y00112*
X01763Y00111*
X01763Y00111*
X01762Y0011*
X01761Y0011*
X01761Y00109*
X0176Y00109*
X0176Y00109*
X0176Y00108*
X0176Y00108*
X01759Y00108*
X01759Y00107*
X01759Y00107*
X01759Y00106*
X01758Y00106*
X01758Y00105*
X01758Y00104*
X01757Y00103*
X01757Y00102*
X01757Y00101*
X01757Y00099*
X01757Y00098*
X01757Y00096*
Y00096*
Y00096*
Y00096*
X01757Y00095*
X01757Y00094*
X01757Y00094*
X01757Y00093*
X01757Y00092*
X01757Y0009*
X01758Y00088*
X01758Y00087*
X01759Y00086*
X01759Y00085*
X0176Y00084*
X0176Y00084*
X0176Y00084*
X0176Y00084*
X0176Y00084*
X01761Y00083*
X01761Y00083*
X01762Y00083*
X01762Y00082*
X01763Y00082*
X01765Y00081*
X01766Y00081*
X01766Y00081*
X01767Y0008*
X01768Y0008*
X01769*
X01769Y0008*
X01769*
X0177Y00081*
X01771Y00081*
X01772Y00081*
X01773Y00081*
X01774Y00082*
X01775Y00083*
X01775Y00083*
X01775Y00083*
X01776Y00083*
X01776Y00084*
X01776Y00084*
X01777Y00085*
X01777Y00085*
X01777Y00086*
X01778Y00087*
X01778Y00087*
X01778Y00088*
X01778Y00089*
X01779Y0009*
X01779Y00091*
X01786Y0009*
Y0009*
X01786Y0009*
X01786Y00089*
X01785Y00089*
X01785Y00088*
X01785Y00087*
X01785Y00087*
X01785Y00086*
X01784Y00084*
X01783Y00083*
X01783Y00082*
X01782Y00081*
X01781Y0008*
X01781Y00079*
X0178Y00079*
X0178Y00079*
X0178Y00078*
X01779Y00078*
X01779Y00078*
X01779Y00078*
X01778Y00077*
X01777Y00077*
X01777Y00077*
X01776Y00076*
X01775Y00076*
X01774Y00076*
X01773Y00075*
X01772Y00075*
X01771Y00075*
X0177Y00075*
X01768Y00075*
X01768*
X01768Y00075*
X01767*
X01766Y00075*
X01765Y00075*
X01764Y00075*
X01763Y00075*
X01762Y00076*
X01761Y00076*
X0176Y00076*
X01759Y00077*
X01758Y00078*
X01757Y00078*
X01756Y00079*
X01755Y0008*
X01755Y0008*
X01754Y0008*
X01754Y00081*
X01754Y00081*
X01753Y00082*
X01753Y00082*
X01752Y00083*
X01752Y00084*
X01752Y00085*
X01751Y00087*
X01751Y00088*
X0175Y00089*
X0175Y00091*
X0175Y00093*
X01749Y00094*
X01749Y00096*
Y00096*
Y00097*
Y00097*
X01749Y00097*
Y00098*
X0175Y00099*
X0175Y00099*
X0175Y001*
X0175Y00102*
X0175Y00104*
X01751Y00106*
X01752Y00108*
Y00108*
X01752Y00108*
X01752Y00109*
X01752Y00109*
X01752Y00109*
X01753Y0011*
X01753Y00111*
X01754Y00112*
X01755Y00113*
X01757Y00115*
X01758Y00116*
X01758*
X01759Y00116*
X01759Y00116*
X01759Y00116*
X0176Y00116*
X0176Y00117*
X01761Y00117*
X01761Y00117*
X01762Y00117*
X01763Y00117*
X01765Y00118*
X01766Y00118*
X01768Y00118*
X01769*
X01769Y00118*
G37*
G36*
X0155D02*
X01551Y00118D01*
X01551Y00118*
X01552Y00118*
X01553Y00118*
X01555Y00117*
X01556Y00117*
X01557Y00116*
X01558Y00116*
X01559Y00115*
X0156Y00115*
X0156Y00115*
X0156Y00115*
X0156Y00114*
X01561Y00114*
X01561Y00114*
X01561Y00113*
X01562Y00113*
X01562Y00112*
X01563Y00112*
X01563Y00111*
X01564Y0011*
X01564Y00109*
X01565Y00108*
X01565Y00107*
X01565Y00106*
X01566Y00105*
X01559Y00104*
Y00104*
X01559Y00104*
X01559Y00104*
X01558Y00105*
X01558Y00105*
X01558Y00106*
X01557Y00107*
X01557Y00108*
X01556Y00109*
X01555Y0011*
X01555Y0011*
X01555Y00111*
X01554Y00111*
X01553Y00111*
X01553Y00112*
X01552Y00112*
X0155Y00112*
X01549Y00112*
X01549*
X01548Y00112*
X01548Y00112*
X01547Y00112*
X01546Y00112*
X01545Y00112*
X01544Y00111*
X01543Y00111*
X01543Y0011*
X01542Y0011*
X01541Y00109*
X0154Y00109*
X0154Y00109*
X0154Y00108*
X0154Y00108*
X0154Y00108*
X0154Y00107*
X01539Y00107*
X01539Y00106*
X01539Y00106*
X01539Y00105*
X01538Y00104*
X01538Y00103*
X01538Y00102*
X01537Y00101*
X01537Y00099*
X01537Y00098*
X01537Y00096*
Y00096*
Y00096*
Y00096*
X01537Y00095*
X01537Y00094*
X01537Y00094*
X01537Y00093*
X01538Y00092*
X01538Y0009*
X01539Y00088*
X01539Y00087*
X01539Y00086*
X0154Y00085*
X0154Y00084*
X0154Y00084*
X0154Y00084*
X01541Y00084*
X01541Y00084*
X01541Y00083*
X01542Y00083*
X01542Y00083*
X01543Y00082*
X01544Y00082*
X01545Y00081*
X01546Y00081*
X01547Y00081*
X01548Y0008*
X01549Y0008*
X01549*
X01549Y0008*
X0155*
X0155Y00081*
X01551Y00081*
X01552Y00081*
X01553Y00081*
X01555Y00082*
X01556Y00083*
X01556Y00083*
X01556Y00083*
X01556Y00083*
X01557Y00084*
X01557Y00084*
X01557Y00085*
X01558Y00085*
X01558Y00086*
X01558Y00087*
X01558Y00087*
X01559Y00088*
X01559Y00089*
X01559Y0009*
X01559Y00091*
X01566Y0009*
Y0009*
X01566Y0009*
X01566Y00089*
X01566Y00089*
X01566Y00088*
X01566Y00087*
X01565Y00087*
X01565Y00086*
X01564Y00084*
X01564Y00083*
X01563Y00082*
X01563Y00081*
X01562Y0008*
X01561Y00079*
X0156Y00079*
X0156Y00079*
X0156Y00078*
X0156Y00078*
X0156Y00078*
X01559Y00078*
X01559Y00077*
X01558Y00077*
X01557Y00077*
X01556Y00076*
X01555Y00076*
X01555Y00076*
X01554Y00075*
X01552Y00075*
X01551Y00075*
X0155Y00075*
X01549Y00075*
X01548*
X01548Y00075*
X01547*
X01547Y00075*
X01546Y00075*
X01545Y00075*
X01544Y00075*
X01543Y00076*
X01542Y00076*
X01541Y00076*
X01539Y00077*
X01538Y00078*
X01537Y00078*
X01536Y00079*
X01535Y0008*
X01535Y0008*
X01535Y0008*
X01535Y00081*
X01534Y00081*
X01534Y00082*
X01533Y00082*
X01533Y00083*
X01533Y00084*
X01532Y00085*
X01532Y00087*
X01531Y00088*
X01531Y00089*
X0153Y00091*
X0153Y00093*
X0153Y00094*
X0153Y00096*
Y00096*
Y00097*
Y00097*
X0153Y00097*
Y00098*
X0153Y00099*
X0153Y00099*
X0153Y001*
X0153Y00102*
X01531Y00104*
X01531Y00106*
X01532Y00108*
Y00108*
X01532Y00108*
X01532Y00109*
X01533Y00109*
X01533Y00109*
X01533Y0011*
X01534Y00111*
X01535Y00112*
X01536Y00113*
X01537Y00115*
X01539Y00116*
X01539*
X01539Y00116*
X01539Y00116*
X0154Y00116*
X0154Y00116*
X01541Y00117*
X01541Y00117*
X01542Y00117*
X01543Y00117*
X01543Y00117*
X01545Y00118*
X01547Y00118*
X01549Y00118*
X0155*
X0155Y00118*
G37*
G36*
X01739Y00076D02*
X01731D01*
Y00084*
X01739*
Y00076*
G37*
G36*
X01658Y00118D02*
X01659D01*
X0166Y00118*
X01662Y00118*
X01663Y00118*
X01664Y00117*
X01666Y00117*
X01666*
X01666Y00117*
X01666Y00117*
X01666Y00117*
X01667Y00116*
X01668Y00116*
X01668Y00116*
X01669Y00115*
X0167Y00114*
X01671Y00114*
X01671Y00114*
X01671Y00113*
X01671Y00113*
X01672Y00112*
X01672Y00112*
X01672Y00111*
X01673Y0011*
X01673Y00109*
Y00109*
X01673Y00109*
X01673Y00108*
X01673Y00107*
X01673Y00107*
X01673Y00105*
Y00105*
X01673Y00104*
Y00103*
Y00102*
Y00093*
Y00093*
Y00093*
Y00092*
Y00091*
Y00091*
Y0009*
X01673Y00089*
Y00088*
X01673Y00086*
Y00085*
X01674Y00084*
X01674Y00083*
X01674Y00082*
X01674Y00081*
X01674Y00081*
Y0008*
X01674Y0008*
X01674Y0008*
X01674Y00079*
X01674Y00078*
X01675Y00077*
X01675Y00076*
X01676Y00076*
X01668*
X01668Y00076*
X01668Y00076*
X01668Y00076*
X01668Y00077*
X01667Y00078*
X01667Y00079*
X01667Y0008*
X01667Y00081*
X01667Y00081*
X01667Y00081*
X01666Y0008*
X01666Y0008*
X01666Y0008*
X01665Y0008*
X01664Y00079*
X01663Y00078*
X01662Y00077*
X01661Y00077*
X01659Y00076*
X01659*
X01659Y00076*
X01659Y00076*
X01659Y00076*
X01658Y00076*
X01658Y00076*
X01657Y00075*
X01656Y00075*
X01654Y00075*
X01653Y00075*
X01651Y00075*
X01651*
X0165Y00075*
X0165Y00075*
X01649Y00075*
X01648Y00075*
X01647Y00075*
X01646Y00075*
X01644Y00076*
X01643Y00076*
X01642Y00077*
X01642Y00077*
X01641Y00078*
X01641Y00078*
X01641Y00078*
X0164Y00078*
X0164Y00079*
X0164Y00079*
X0164Y00079*
X01639Y0008*
X01639Y0008*
X01638Y00081*
X01638Y00083*
X01637Y00084*
X01637Y00085*
X01637Y00086*
X01637Y00087*
Y00087*
Y00087*
Y00087*
X01637Y00088*
X01637Y00088*
X01637Y00089*
X01638Y0009*
X01638Y00091*
X01638Y00092*
X01639Y00092*
X01639Y00093*
X01639Y00093*
X01639Y00094*
X0164Y00094*
X01641Y00095*
X01641Y00096*
X01642Y00096*
X01642Y00096*
X01643Y00096*
X01643Y00097*
X01644Y00097*
X01644Y00097*
X01645Y00098*
X01646Y00098*
X01647Y00099*
X01647*
X01648Y00099*
X01648Y00099*
X01649Y00099*
X0165Y00099*
X01651Y00099*
X01652Y00099*
X01654Y001*
X01654*
X01654Y001*
X01654Y001*
X01655Y001*
X01656Y001*
X01656Y001*
X01657Y001*
X01658Y001*
X0166Y00101*
X01662Y00101*
X01663Y00101*
X01664Y00102*
X01665Y00102*
X01666Y00102*
Y00102*
Y00102*
Y00103*
X01666Y00103*
Y00103*
Y00104*
Y00104*
Y00104*
Y00104*
Y00104*
Y00105*
X01666Y00105*
X01666Y00106*
X01666Y00107*
X01665Y00108*
X01665Y00109*
X01664Y0011*
X01664Y0011*
X01664Y0011*
X01664Y0011*
X01663Y00111*
X01663Y00111*
X01662Y00111*
X01661Y00112*
X0166Y00112*
X01658Y00112*
X01656Y00112*
X01655*
X01655Y00112*
X01654*
X01653Y00112*
X01652Y00112*
X01651Y00112*
X0165Y00111*
X01649Y00111*
X01649Y00111*
X01648Y0011*
X01648Y0011*
X01647Y00109*
X01647Y00108*
X01646Y00107*
X01646Y00106*
X01646Y00105*
X01645Y00104*
X01638Y00105*
Y00105*
X01638Y00106*
X01638Y00106*
X01639Y00106*
X01639Y00107*
X01639Y00107*
X01639Y00108*
X0164Y00109*
X0164Y0011*
X01641Y00111*
X01641Y00113*
Y00113*
X01642Y00113*
X01642Y00113*
X01642Y00113*
X01643Y00114*
X01644Y00115*
X01645Y00115*
X01646Y00116*
X01648Y00117*
X01648*
X01648Y00117*
X01648Y00117*
X01648Y00117*
X01649Y00117*
X01649Y00117*
X0165Y00117*
X0165Y00118*
X01651Y00118*
X01652Y00118*
X01653Y00118*
X01655Y00118*
X01657Y00118*
X01658*
X01658Y00118*
G37*
G36*
X01625Y00117D02*
X01633D01*
Y00112*
X01625*
Y00087*
Y00087*
Y00087*
Y00087*
Y00086*
X01625Y00086*
Y00085*
X01626Y00084*
X01626Y00084*
X01626Y00083*
Y00083*
X01626Y00083*
X01626Y00083*
X01626Y00083*
X01627Y00082*
X01627*
X01627Y00082*
X01627Y00082*
X01628Y00082*
X01628Y00082*
X01628Y00082*
X01629Y00082*
X0163*
X0163Y00082*
X01631*
X01631Y00082*
X01632Y00082*
X01633Y00082*
X01633Y00076*
X01633*
X01633Y00075*
X01632Y00075*
X01632Y00075*
X01631Y00075*
X0163Y00075*
X01628Y00075*
X01627*
X01627Y00075*
X01626Y00075*
X01625Y00075*
X01624Y00075*
X01623Y00076*
X01622Y00076*
X01622Y00076*
X01622Y00076*
X01621Y00077*
X01621Y00077*
X0162Y00077*
X0162Y00078*
X01619Y00079*
X01619Y00079*
X01619Y00079*
X01619Y0008*
X01619Y0008*
X01619Y0008*
X01619Y00081*
X01619Y00081*
X01619Y00082*
X01619Y00082*
X01618Y00083*
X01618Y00084*
X01618Y00085*
Y00086*
X01618Y00087*
Y00088*
Y00112*
X01613*
Y00117*
X01618*
Y00128*
X01625Y00132*
Y00117*
G37*
G36*
X0181Y00118D02*
X0181D01*
X01811Y00118*
X01812Y00118*
X01813Y00118*
X01814Y00118*
X01815Y00117*
X01816Y00117*
X01817Y00116*
X01818Y00116*
X01819Y00115*
X01821Y00114*
X01822Y00114*
X01823Y00113*
X01823Y00113*
X01823Y00112*
X01823Y00112*
X01824Y00112*
X01824Y00111*
X01825Y0011*
X01825Y00109*
X01826Y00109*
X01826Y00107*
X01827Y00106*
X01827Y00105*
X01827Y00104*
X01828Y00102*
X01828Y00101*
X01828Y00099*
X01828Y00097*
Y00097*
Y00097*
Y00096*
X01828Y00096*
Y00095*
X01828Y00094*
X01828Y00093*
X01828Y00092*
X01828Y0009*
X01827Y00088*
X01827Y00086*
X01826Y00085*
X01826Y00084*
Y00084*
X01826Y00084*
X01826Y00084*
X01825Y00084*
X01825Y00083*
X01825Y00083*
X01824Y00082*
X01823Y0008*
X01822Y00079*
X0182Y00078*
X01819Y00077*
X01819*
X01819Y00077*
X01818Y00077*
X01818Y00077*
X01818Y00077*
X01817Y00076*
X01816Y00076*
X01816Y00076*
X01815Y00076*
X01814Y00075*
X01813Y00075*
X01811Y00075*
X01809Y00075*
X01808*
X01808Y00075*
X01807*
X01807Y00075*
X01806Y00075*
X01805Y00075*
X01804Y00075*
X01803Y00076*
X01801Y00076*
X018Y00076*
X01799Y00077*
X01798Y00078*
X01797Y00078*
X01796Y00079*
X01795Y0008*
X01794Y0008*
X01794Y0008*
X01794Y00081*
X01794Y00081*
X01793Y00082*
X01793Y00083*
X01792Y00083*
X01792Y00084*
X01791Y00085*
X01791Y00087*
X0179Y00088*
X0179Y00089*
X0179Y00091*
X01789Y00093*
X01789Y00094*
X01789Y00096*
Y00096*
Y00097*
Y00097*
X01789Y00098*
X01789Y00098*
X01789Y00099*
X01789Y001*
X0179Y00102*
X0179Y00103*
X0179Y00104*
X01791Y00106*
X01791Y00107*
X01792Y00109*
X01793Y0011*
X01793Y00111*
X01794Y00112*
X01796Y00114*
X01796Y00114*
X01796Y00114*
X01796Y00114*
X01797Y00114*
X01797Y00115*
X01798Y00115*
X01798Y00116*
X01799Y00116*
X018Y00116*
X01801Y00117*
X01802Y00117*
X01803Y00118*
X01805Y00118*
X01806Y00118*
X01807Y00118*
X01809Y00118*
X01809*
X0181Y00118*
G37*
G36*
X01505D02*
X01506D01*
X01506Y00118*
X01507Y00118*
X01508Y00118*
X01509Y00118*
X0151Y00117*
X01511Y00117*
X01512Y00116*
X01514Y00116*
X01515Y00115*
X01516Y00114*
X01517Y00114*
X01518Y00113*
X01518Y00113*
X01518Y00112*
X01519Y00112*
X01519Y00112*
X01519Y00111*
X0152Y0011*
X0152Y00109*
X01521Y00109*
X01521Y00107*
X01522Y00106*
X01522Y00105*
X01523Y00104*
X01523Y00102*
X01523Y00101*
X01524Y00099*
X01524Y00097*
Y00097*
Y00097*
Y00096*
X01524Y00096*
Y00095*
X01524Y00094*
X01523Y00093*
X01523Y00092*
X01523Y0009*
X01523Y00088*
X01522Y00086*
X01522Y00085*
X01521Y00084*
Y00084*
X01521Y00084*
X01521Y00084*
X01521Y00084*
X01521Y00083*
X0152Y00083*
X01519Y00082*
X01518Y0008*
X01517Y00079*
X01516Y00078*
X01514Y00077*
X01514*
X01514Y00077*
X01514Y00077*
X01513Y00077*
X01513Y00077*
X01512Y00076*
X01512Y00076*
X01511Y00076*
X0151Y00076*
X0151Y00075*
X01508Y00075*
X01506Y00075*
X01504Y00075*
X01504*
X01503Y00075*
X01503*
X01502Y00075*
X01501Y00075*
X015Y00075*
X01499Y00075*
X01498Y00076*
X01497Y00076*
X01496Y00076*
X01494Y00077*
X01493Y00078*
X01492Y00078*
X01491Y00079*
X0149Y0008*
X0149Y0008*
X0149Y0008*
X01489Y00081*
X01489Y00081*
X01489Y00082*
X01488Y00083*
X01488Y00083*
X01487Y00084*
X01487Y00085*
X01486Y00087*
X01486Y00088*
X01485Y00089*
X01485Y00091*
X01485Y00093*
X01485Y00094*
X01485Y00096*
Y00096*
Y00097*
Y00097*
X01485Y00098*
X01485Y00098*
X01485Y00099*
X01485Y001*
X01485Y00102*
X01485Y00103*
X01486Y00104*
X01486Y00106*
X01487Y00107*
X01487Y00109*
X01488Y0011*
X01489Y00111*
X0149Y00112*
X01491Y00114*
X01491Y00114*
X01491Y00114*
X01492Y00114*
X01492Y00114*
X01492Y00115*
X01493Y00115*
X01494Y00116*
X01495Y00116*
X01496Y00116*
X01497Y00117*
X01498Y00117*
X01499Y00118*
X015Y00118*
X01501Y00118*
X01503Y00118*
X01504Y00118*
X01504*
X01505Y00118*
G37*
%LNtime4cm4_modular-4*%
%LPC*%
G36*
X02027Y01495D02*
X02016Y01494D01*
X02005Y01491*
X01995Y01485*
X01986Y01478*
X01978Y01469*
X01973Y01459*
X0197Y01448*
X01969Y01437*
X0197Y01425*
X01973Y01414*
X01978Y01404*
X01986Y01395*
X01995Y01388*
X02005Y01383*
X02016Y01379*
X02027Y01378*
X02038Y01379*
X02049Y01383*
X0206Y01388*
X02068Y01395*
X02076Y01404*
X02081Y01414*
X02084Y01425*
X02085Y01437*
X02084Y01448*
X02081Y01459*
X02076Y01469*
X02068Y01478*
X0206Y01485*
X02049Y01491*
X02038Y01494*
X02027Y01495*
G37*
G36*
X01363Y01416D02*
X01329D01*
Y01378*
X0133*
Y01354*
X01331Y01351*
X01332Y01348*
X01336Y01345*
X01335Y01344*
X01334Y01338*
X01335Y01331*
X01339Y01325*
X01345Y01321*
X01352Y0132*
X01358Y01321*
X0136Y01322*
X01364Y01321*
X01364Y01319*
X01368Y01313*
X01374Y01309*
X01381Y01308*
X01387Y01309*
X01393Y01313*
X01397Y01319*
X01398Y01326*
X01397Y01332*
X01393Y01338*
X01387Y01341*
Y01347*
X01387Y0135*
X01385Y01352*
X01363Y01374*
X01363Y01378*
Y01416*
G37*
G36*
X01316D02*
X01282D01*
Y01378*
X01282*
Y01365*
X01277Y01362*
X01273Y01356*
X01272Y0135*
X01273Y01343*
X01277Y01337*
X01283Y01333*
X01289Y01332*
X0129Y01332*
X01293Y01328*
X01292Y01325*
X01293Y01318*
X01297Y01312*
X01303Y01308*
X0131Y01307*
X01316Y01308*
X01322Y01312*
X01326Y01318*
X01327Y01325*
X01326Y01331*
X01322Y01337*
X01318Y0134*
Y01358*
X01317Y01361*
X01315Y01364*
X01315Y01364*
Y01378*
X01316*
Y01416*
G37*
G36*
X00728Y01416D02*
X00704D01*
X00703Y01416*
X00699*
X00699Y01416*
X00673*
X00672Y01416*
X0062*
Y01378*
X00621*
Y01366*
X00618Y01366*
X00612Y01362*
X00608Y01356*
X00607Y0135*
X00608Y01343*
X00612Y01337*
X00618Y01333*
X00624Y01332*
X00625Y01332*
X00628Y01328*
X00627Y01325*
X00628Y01318*
X00632Y01312*
X00638Y01308*
X00645Y01307*
X00651Y01308*
X00657Y01312*
X00658Y01314*
X00663Y01313*
Y01276*
X00665Y01272*
X00673Y01264*
X00677Y01262*
X00694*
X00697Y01264*
X00702Y01265*
X00703Y01264*
X00707Y01262*
X00724*
X00728Y01264*
X00736Y01272*
X00737Y01276*
X00739Y01279*
X00744Y0128*
X00747Y01278*
X00754Y01277*
X0076Y01278*
X00766Y01282*
X0077Y01288*
X00771Y01295*
X0077Y01301*
X00768Y01304*
X00767Y01308*
X00769Y0131*
X00772Y01312*
X00776Y01318*
X00777Y01325*
X00776Y01328*
X0078Y01333*
X00781Y01333*
X00787Y01337*
X00791Y01343*
X00792Y0135*
X00791Y01356*
X00787Y01362*
X00781Y01366*
X0078Y01366*
Y01378*
X00796*
Y01416*
X00729*
X00728Y01416*
G37*
G36*
X00607Y01416D02*
X00589D01*
Y01378*
X00586Y01374*
X00577Y01365*
X00576Y01366*
X0057Y01367*
X00563Y01366*
X00557Y01362*
X00553Y01356*
X00552Y0135*
X00553Y01343*
X00557Y01337*
X00563Y01333*
X0057Y01332*
X00576Y01333*
X00582Y01337*
X00586Y01343*
X00587Y0135*
X00586Y01351*
X00604Y01369*
X00605Y01371*
X00606Y01374*
X00606Y01374*
Y01374*
X00606Y01374*
X00607Y01378*
Y01416*
G37*
G36*
X01651Y00164D02*
X01651D01*
X01651Y00164*
X01651Y00164*
X0165Y00164*
X0165Y00164*
X01649Y00164*
X01649Y00164*
X01648Y00163*
X01648Y00163*
X01648Y00163*
X01647Y00163*
X01647Y00162*
X01647Y00162*
X01647Y00162*
X01647Y00162*
X01647Y00162*
X01647Y00162*
X01646Y00161*
X01646Y00161*
X01646Y00161*
X01646Y0016*
X01646Y0016*
X01646Y00159*
X01646Y00158*
X01645Y00158*
X01645Y00157*
X01645Y00156*
X01645Y00155*
Y00155*
Y00155*
Y00155*
X01645Y00155*
X01645Y00154*
X01645Y00154*
X01645Y00153*
X01645Y00153*
X01646Y00152*
X01646Y00151*
X01646Y0015*
X01646Y0015*
X01647Y00149*
X01647Y00149*
X01647Y00149*
X01647Y00149*
X01647Y00149*
X01647Y00148*
X01648Y00148*
X01648Y00148*
X01648Y00148*
X01649Y00147*
X0165Y00147*
X0165Y00147*
X01651Y00147*
X01651Y00147*
X01652Y00147*
X01652*
X01652Y00147*
X01652Y00147*
X01652Y00147*
X01653Y00147*
X01654Y00147*
X01654Y00147*
X01654Y00147*
X01655Y00148*
X01655Y00148*
X01656Y00148*
X01656Y00149*
X01656Y00149*
X01656Y00149*
X01656Y00149*
X01656Y00149*
X01656Y00149*
X01657Y0015*
X01657Y0015*
X01657Y0015*
X01657Y00151*
X01657Y00151*
X01657Y00152*
X01658Y00152*
X01658Y00153*
X01658Y00154*
X01658Y00154*
X01658Y00155*
Y00155*
Y00155*
Y00156*
X01658Y00156*
X01658Y00156*
X01658Y00157*
X01658Y00157*
X01658Y00158*
X01657Y00159*
X01657Y0016*
X01657Y00161*
X01657Y00161*
X01656Y00162*
X01656Y00162*
X01656Y00162*
X01656Y00162*
X01656Y00162*
X01656Y00162*
X01655Y00163*
X01655Y00163*
X01655Y00163*
X01654Y00164*
X01653Y00164*
X01653Y00164*
X01652Y00164*
X01652Y00164*
X01651Y00164*
G37*
G36*
X01495D02*
X01494D01*
X01494Y00164*
X01494Y00164*
X01494Y00164*
X01493Y00164*
X01492Y00164*
X01492Y00164*
X01492Y00163*
X01491Y00163*
X01491Y00163*
X01491Y00163*
X0149Y00162*
X0149Y00162*
X0149Y00162*
X0149Y00162*
X0149Y00162*
X0149Y00162*
X0149Y00161*
X0149Y00161*
X01489Y00161*
X01489Y0016*
X01489Y0016*
X01489Y00159*
X01489Y00158*
X01489Y00158*
X01489Y00157*
X01489Y00156*
X01489Y00155*
Y00155*
Y00155*
Y00155*
X01489Y00155*
X01489Y00154*
X01489Y00154*
X01489Y00153*
X01489Y00153*
X01489Y00152*
X01489Y00151*
X0149Y0015*
X0149Y0015*
X0149Y00149*
X0149Y00149*
X0149Y00149*
X0149Y00149*
X01491Y00149*
X01491Y00148*
X01491Y00148*
X01491Y00148*
X01492Y00148*
X01492Y00147*
X01493Y00147*
X01493Y00147*
X01494Y00147*
X01494Y00147*
X01495Y00147*
X01495*
X01495Y00147*
X01496Y00147*
X01496Y00147*
X01496Y00147*
X01497Y00147*
X01497Y00147*
X01498Y00147*
X01498Y00148*
X01499Y00148*
X01499Y00148*
X01499Y00149*
X01499Y00149*
X01499Y00149*
X01499Y00149*
X015Y00149*
X015Y00149*
X015Y0015*
X015Y0015*
X015Y0015*
X015Y00151*
X01501Y00151*
X01501Y00152*
X01501Y00152*
X01501Y00153*
X01501Y00154*
X01501Y00154*
X01501Y00155*
Y00155*
Y00155*
Y00156*
X01501Y00156*
X01501Y00156*
X01501Y00157*
X01501Y00157*
X01501Y00158*
X01501Y00159*
X015Y0016*
X015Y00161*
X015Y00161*
X015Y00162*
X01499Y00162*
X01499Y00162*
X01499Y00162*
X01499Y00162*
X01499Y00162*
X01499Y00163*
X01498Y00163*
X01498Y00163*
X01497Y00164*
X01497Y00164*
X01496Y00164*
X01496Y00164*
X01495Y00164*
X01495Y00164*
G37*
G36*
X0169Y00164D02*
X0169D01*
X01689Y00164*
X01689Y00164*
X01689Y00164*
X01688Y00164*
X01688Y00164*
X01687Y00164*
X01687Y00163*
X01687Y00163*
X01686Y00163*
X01686Y00163*
X01685Y00162*
X01685Y00162*
X01685Y00162*
X01685Y00162*
X01685Y00162*
X01685Y00162*
X01685Y00161*
X01685Y00161*
X01684Y0016*
X01684Y0016*
X01684Y0016*
X01684Y00159*
X01684Y00158*
X01684Y00158*
X01684Y00157*
X01684Y00156*
X01684Y00156*
Y00156*
Y00155*
Y00155*
X01684Y00155*
Y00155*
X01684Y00154*
X01684Y00154*
X01684Y00153*
X01684Y00152*
X01684Y00151*
X01684Y00151*
X01684Y0015*
X01684Y0015*
X01685Y0015*
X01685Y0015*
X01685Y00149*
X01685Y00149*
X01685Y00149*
X01685Y00149*
X01685Y00149*
X01686Y00148*
X01686Y00148*
X01686Y00148*
X01687Y00148*
X01687Y00147*
X01688Y00147*
X01688Y00147*
X01689Y00147*
X01689Y00147*
X0169Y00147*
X0169*
X0169Y00147*
X0169Y00147*
X01691Y00147*
X01691Y00147*
X01692Y00147*
X01692Y00147*
X01693Y00148*
X01693Y00148*
X01693Y00148*
X01694Y00148*
X01694Y00149*
X01694Y00149*
X01694Y00149*
X01694Y00149*
X01694Y00149*
X01695Y00149*
X01695Y0015*
X01695Y0015*
X01695Y00151*
X01695Y00151*
X01695Y00151*
X01696Y00152*
X01696Y00153*
X01696Y00153*
X01696Y00154*
X01696Y00155*
X01696Y00156*
Y00156*
Y00156*
Y00156*
X01696Y00156*
X01696Y00157*
X01696Y00157*
X01696Y00158*
X01696Y00158*
X01696Y00159*
X01695Y0016*
X01695Y00161*
X01695Y00161*
X01695Y00162*
X01694Y00162*
X01694Y00162*
X01694Y00162*
X01694Y00162*
X01694Y00163*
X01694Y00163*
X01694Y00163*
X01693Y00163*
X01692Y00164*
X01692Y00164*
X01691Y00164*
X01691Y00164*
X0169Y00164*
X0169Y00164*
G37*
G36*
X01627D02*
X01627D01*
X01627Y00164*
X01627Y00164*
X01626Y00164*
X01626Y00164*
X01625Y00164*
X01624Y00164*
X01624Y00163*
X01623Y00163*
X01623Y00163*
X01623Y00163*
X01623Y00163*
X01623Y00163*
X01623Y00162*
X01622Y00162*
X01622Y00162*
X01622Y00162*
X01622Y00162*
X01622Y00161*
X01622Y00161*
X01621Y00161*
X01621Y0016*
X01621Y00159*
X01621Y00158*
X01621Y00158*
X01634*
Y00158*
Y00158*
X01634Y00158*
X01634Y00158*
X01634Y00158*
X01634Y00159*
X01633Y00159*
X01633Y0016*
X01633Y00161*
X01633Y00162*
X01632Y00162*
X01632Y00162*
X01632Y00162*
X01632Y00162*
X01632Y00162*
X01632Y00163*
X01631Y00163*
X01631Y00163*
X01631Y00163*
X01631Y00163*
X0163Y00164*
X01629Y00164*
X01629Y00164*
X01628Y00164*
X01628Y00164*
X01627Y00164*
G37*
G36*
X0152D02*
X0152D01*
X0152Y00164*
X0152Y00164*
X01519Y00164*
X01519Y00164*
X01518Y00164*
X01517Y00164*
X01517Y00163*
X01516Y00163*
X01516Y00163*
X01516Y00163*
X01516Y00163*
X01516Y00163*
X01516Y00162*
X01515Y00162*
X01515Y00162*
X01515Y00162*
X01515Y00162*
X01515Y00161*
X01515Y00161*
X01514Y00161*
X01514Y0016*
X01514Y00159*
X01514Y00158*
X01514Y00158*
X01527*
Y00158*
Y00158*
X01527Y00158*
X01527Y00158*
X01527Y00158*
X01527Y00159*
X01526Y00159*
X01526Y0016*
X01526Y00161*
X01526Y00162*
X01525Y00162*
X01525Y00162*
X01525Y00162*
X01525Y00162*
X01525Y00162*
X01525Y00163*
X01524Y00163*
X01524Y00163*
X01524Y00163*
X01524Y00163*
X01523Y00164*
X01522Y00164*
X01522Y00164*
X01521Y00164*
X01521Y00164*
X0152Y00164*
G37*
G36*
X01577Y00164D02*
X01577D01*
X01576Y00164*
X01576Y00164*
X01576Y00164*
X01575Y00164*
X01575Y00164*
X01574Y00164*
X01574Y00163*
X01573Y00163*
X01573Y00163*
X01573Y00163*
X01572Y00162*
X01572Y00162*
X01572Y00162*
X01572Y00162*
X01572Y00162*
X01572Y00162*
X01572Y00161*
X01572Y00161*
X01571Y00161*
X01571Y0016*
X01571Y0016*
X01571Y00159*
X01571Y00159*
X01571Y00158*
X01571Y00157*
X01571Y00157*
X01571Y00156*
Y00156*
Y00156*
Y00155*
X01571Y00155*
X01571Y00155*
X01571Y00154*
X01571Y00154*
X01571Y00153*
X01571Y00152*
X01571Y00151*
X01571Y00151*
X01572Y0015*
X01572Y0015*
X01572Y00149*
X01572Y00149*
X01572Y00149*
X01573Y00149*
X01573Y00149*
X01573Y00149*
X01573Y00149*
X01574Y00148*
X01574Y00148*
X01575Y00147*
X01575Y00147*
X01576Y00147*
X01576Y00147*
X01577Y00147*
X01577*
X01577Y00147*
X01578Y00147*
X01578Y00147*
X01578Y00147*
X01579Y00148*
X0158Y00148*
X0158Y00148*
X0158Y00148*
X01581Y00149*
X01581Y00149*
X01581Y00149*
X01581Y00149*
X01581Y00149*
X01582Y00149*
X01582Y0015*
X01582Y0015*
X01582Y0015*
X01582Y0015*
X01582Y00151*
X01582Y00151*
X01583Y00152*
X01583Y00152*
X01583Y00153*
X01583Y00154*
X01583Y00154*
X01583Y00155*
X01583Y00156*
Y00156*
Y00156*
Y00156*
X01583Y00156*
X01583Y00157*
X01583Y00157*
X01583Y00158*
X01583Y00158*
X01583Y00159*
X01582Y0016*
X01582Y00161*
X01582Y00161*
X01582Y00162*
X01581Y00162*
X01581Y00162*
X01581Y00162*
X01581Y00162*
X01581Y00163*
X01581Y00163*
X01581Y00163*
X0158Y00163*
X01579Y00164*
X01579Y00164*
X01578Y00164*
X01578Y00164*
X01577Y00164*
X01577Y00164*
G37*
G36*
X01702Y00113D02*
X01702D01*
X01701Y00113*
X01701Y00113*
X017Y00112*
X01699Y00112*
X01698Y00112*
X01698Y00111*
X01697Y00111*
X01696Y0011*
X01695Y0011*
X01695Y00109*
X01694Y00108*
X01694Y00108*
X01694Y00108*
X01694Y00108*
X01694Y00108*
X01693Y00107*
X01693Y00107*
X01693Y00106*
X01692Y00105*
X01692Y00105*
X01692Y00104*
X01691Y00103*
X01691Y00101*
X01691Y001*
X01691Y00099*
X01691Y00098*
X01691Y00096*
Y00096*
Y00096*
Y00095*
X01691Y00095*
X01691Y00094*
X01691Y00093*
X01691Y00093*
X01691Y00092*
X01691Y0009*
X01692Y00088*
X01692Y00087*
X01693Y00086*
X01693Y00085*
X01694Y00084*
X01694Y00084*
X01694Y00084*
X01694Y00084*
X01694Y00084*
X01695Y00083*
X01695Y00083*
X01696Y00082*
X01697Y00082*
X01699Y00081*
X01699Y00081*
X017Y00081*
X01701Y0008*
X01702Y0008*
X01702*
X01703Y0008*
X01703Y00081*
X01703Y00081*
X01705Y00081*
X01706Y00081*
X01707Y00082*
X01707Y00082*
X01708Y00083*
X01709Y00083*
X01709Y00084*
X0171Y00084*
X0171Y00084*
X0171Y00085*
X0171Y00085*
X0171Y00085*
X01711Y00086*
X01711Y00086*
X01711Y00087*
X01712Y00087*
X01712Y00088*
X01712Y00089*
X01713Y0009*
X01713Y00091*
X01713Y00092*
X01713Y00094*
X01713Y00095*
X01713Y00097*
Y00097*
Y00097*
Y00097*
X01713Y00098*
X01713Y00099*
X01713Y00099*
X01713Y001*
X01713Y00101*
X01712Y00103*
X01712Y00105*
X01712Y00106*
X01711Y00107*
X01711Y00108*
X0171Y00109*
X0171Y00109*
X0171Y00109*
X0171Y00109*
X01709Y00109*
X01709Y0011*
X01709Y0011*
X01708Y00111*
X01707Y00111*
X01705Y00112*
X01705Y00112*
X01704Y00113*
X01703Y00113*
X01702Y00113*
G37*
G36*
X0159D02*
X0159D01*
X01589Y00113*
X01589Y00113*
X01588Y00112*
X01587Y00112*
X01586Y00112*
X01586Y00111*
X01585Y00111*
X01584Y0011*
X01583Y0011*
X01583Y00109*
X01582Y00108*
X01582Y00108*
X01582Y00108*
X01582Y00108*
X01582Y00108*
X01581Y00107*
X01581Y00107*
X01581Y00106*
X0158Y00105*
X0158Y00105*
X0158Y00104*
X01579Y00103*
X01579Y00101*
X01579Y001*
X01579Y00099*
X01579Y00098*
X01579Y00096*
Y00096*
Y00096*
Y00095*
X01579Y00095*
X01579Y00094*
X01579Y00093*
X01579Y00093*
X01579Y00092*
X01579Y0009*
X0158Y00088*
X0158Y00087*
X01581Y00086*
X01581Y00085*
X01582Y00084*
X01582Y00084*
X01582Y00084*
X01582Y00084*
X01582Y00084*
X01583Y00083*
X01583Y00083*
X01584Y00082*
X01585Y00082*
X01587Y00081*
X01587Y00081*
X01588Y00081*
X01589Y0008*
X0159Y0008*
X0159*
X01591Y0008*
X01591Y00081*
X01591Y00081*
X01593Y00081*
X01594Y00081*
X01595Y00082*
X01595Y00082*
X01596Y00083*
X01597Y00083*
X01597Y00084*
X01598Y00084*
X01598Y00084*
X01598Y00085*
X01598Y00085*
X01598Y00085*
X01599Y00086*
X01599Y00086*
X01599Y00087*
X016Y00087*
X016Y00088*
X016Y00089*
X01601Y0009*
X01601Y00091*
X01601Y00092*
X01601Y00094*
X01601Y00095*
X01601Y00097*
Y00097*
Y00097*
Y00097*
X01601Y00098*
X01601Y00099*
X01601Y00099*
X01601Y001*
X01601Y00101*
X016Y00103*
X016Y00105*
X016Y00106*
X01599Y00107*
X01599Y00108*
X01598Y00109*
X01598Y00109*
X01598Y00109*
X01598Y00109*
X01597Y00109*
X01597Y0011*
X01597Y0011*
X01596Y00111*
X01595Y00111*
X01593Y00112*
X01593Y00112*
X01592Y00113*
X01591Y00113*
X0159Y00113*
G37*
G36*
X01666Y00097D02*
X01666D01*
X01666Y00096*
X01666Y00096*
X01665Y00096*
X01665Y00096*
X01665Y00096*
X01664Y00096*
X01663Y00096*
X01663Y00095*
X01662Y00095*
X01661Y00095*
X0166Y00095*
X01659Y00094*
X01657Y00094*
X01656Y00094*
X01655Y00094*
X01654*
X01654Y00094*
X01654Y00094*
X01653Y00094*
X01652Y00093*
X01651Y00093*
X0165Y00093*
X01649Y00093*
X01648Y00092*
X01648Y00092*
X01648Y00092*
X01648Y00092*
X01647Y00092*
X01647Y00091*
X01646Y00091*
X01646Y00091*
X01646Y0009*
X01646Y0009*
X01645Y0009*
X01645Y0009*
X01645Y00089*
X01645Y00089*
X01645Y00088*
X01645Y00087*
X01645Y00087*
Y00087*
X01645Y00086*
X01645Y00086*
X01645Y00085*
X01645Y00084*
X01646Y00084*
X01646Y00083*
X01647Y00082*
X01647Y00082*
X01647Y00082*
X01648Y00081*
X01648Y00081*
X01649Y00081*
X0165Y0008*
X01652Y0008*
X01653Y0008*
X01654*
X01654Y0008*
X01655Y0008*
X01655Y0008*
X01657Y00081*
X01658Y00081*
X01659Y00081*
X0166Y00082*
X0166*
X0166Y00082*
X01661Y00082*
X01661Y00083*
X01662Y00083*
X01663Y00084*
X01664Y00085*
X01664Y00086*
X01665Y00087*
X01665Y00087*
X01665Y00087*
X01665Y00088*
X01666Y00089*
X01666Y0009*
X01666Y00091*
X01666Y00092*
X01666Y00094*
X01666Y00097*
G37*
G36*
X01809Y00112D02*
X01808D01*
X01808Y00112*
X01807Y00112*
X01807Y00112*
X01806Y00112*
X01804Y00111*
X01804Y00111*
X01803Y00111*
X01802Y0011*
X01801Y0011*
X01801Y00109*
X018Y00108*
X018Y00108*
X018Y00108*
X018Y00108*
X01799Y00108*
X01799Y00107*
X01799Y00107*
X01798Y00106*
X01798Y00105*
X01798Y00105*
X01798Y00104*
X01797Y00103*
X01797Y00102*
X01797Y001*
X01797Y00099*
X01796Y00098*
X01796Y00096*
Y00096*
Y00096*
Y00096*
X01796Y00095*
X01797Y00094*
X01797Y00094*
X01797Y00093*
X01797Y00092*
X01797Y0009*
X01798Y00088*
X01798Y00087*
X01799Y00086*
X01799Y00085*
X018Y00084*
X018Y00084*
X018Y00084*
X018Y00084*
X01801Y00084*
X01801Y00083*
X01801Y00083*
X01802Y00083*
X01802Y00082*
X01804Y00082*
X01805Y00081*
X01806Y00081*
X01807Y00081*
X01808Y0008*
X01809Y0008*
X01809*
X0181Y0008*
X0181Y00081*
X01811Y00081*
X01812Y00081*
X01813Y00081*
X01814Y00082*
X01815Y00082*
X01815Y00083*
X01816Y00083*
X01817Y00084*
X01817Y00084*
X01818Y00084*
X01818Y00085*
X01818Y00085*
X01818Y00085*
X01818Y00086*
X01819Y00086*
X01819Y00087*
X01819Y00087*
X0182Y00088*
X0182Y00089*
X0182Y0009*
X0182Y00091*
X01821Y00092*
X01821Y00094*
X01821Y00095*
X01821Y00097*
Y00097*
Y00097*
Y00097*
X01821Y00098*
X01821Y00099*
X01821Y00099*
X01821Y001*
X01821Y00101*
X0182Y00103*
X0182Y00104*
X0182Y00105*
X01819Y00106*
X01819Y00107*
X01818Y00108*
X01817Y00108*
X01817Y00108*
X01817Y00109*
X01817Y00109*
X01817Y00109*
X01816Y00109*
X01816Y0011*
X01816Y0011*
X01815Y0011*
X01814Y00111*
X01812Y00112*
X01811Y00112*
X01811Y00112*
X0181Y00112*
X01809Y00112*
G37*
G36*
X01504D02*
X01504D01*
X01503Y00112*
X01503Y00112*
X01502Y00112*
X01501Y00112*
X015Y00111*
X01499Y00111*
X01498Y00111*
X01497Y0011*
X01497Y0011*
X01496Y00109*
X01495Y00108*
X01495Y00108*
X01495Y00108*
X01495Y00108*
X01495Y00108*
X01494Y00107*
X01494Y00107*
X01494Y00106*
X01494Y00105*
X01493Y00105*
X01493Y00104*
X01493Y00103*
X01492Y00102*
X01492Y001*
X01492Y00099*
X01492Y00098*
X01492Y00096*
Y00096*
Y00096*
Y00096*
X01492Y00095*
X01492Y00094*
X01492Y00094*
X01492Y00093*
X01492Y00092*
X01493Y0009*
X01493Y00088*
X01494Y00087*
X01494Y00086*
X01495Y00085*
X01495Y00084*
X01495Y00084*
X01495Y00084*
X01496Y00084*
X01496Y00084*
X01496Y00083*
X01497Y00083*
X01497Y00083*
X01498Y00082*
X01499Y00082*
X015Y00081*
X01501Y00081*
X01502Y00081*
X01503Y0008*
X01504Y0008*
X01505*
X01505Y0008*
X01505Y00081*
X01506Y00081*
X01507Y00081*
X01509Y00081*
X01509Y00082*
X0151Y00082*
X01511Y00083*
X01511Y00083*
X01512Y00084*
X01513Y00084*
X01513Y00084*
X01513Y00085*
X01513Y00085*
X01513Y00085*
X01514Y00086*
X01514Y00086*
X01514Y00087*
X01515Y00087*
X01515Y00088*
X01515Y00089*
X01516Y0009*
X01516Y00091*
X01516Y00092*
X01516Y00094*
X01516Y00095*
X01516Y00097*
Y00097*
Y00097*
Y00097*
X01516Y00098*
X01516Y00099*
X01516Y00099*
X01516Y001*
X01516Y00101*
X01516Y00103*
X01515Y00104*
X01515Y00105*
X01514Y00106*
X01514Y00107*
X01513Y00108*
X01513Y00108*
X01513Y00108*
X01513Y00109*
X01512Y00109*
X01512Y00109*
X01512Y00109*
X01511Y0011*
X01511Y0011*
X0151Y0011*
X01509Y00111*
X01508Y00112*
X01507Y00112*
X01506Y00112*
X01505Y00112*
X01504Y00112*
G37*
%LNtime4cm4_modular-5*%
%LPD*%
G36*
X00728Y01361D02*
X00732Y01357D01*
Y01308*
X00732Y01305*
Y01276*
X00724Y01268*
X00707*
X00703Y01271*
X00704Y01273*
Y01411*
X00728*
Y01361*
G37*
G36*
X00699Y01273D02*
X00694Y01268D01*
X00677*
X00669Y01276*
Y01333*
X00674Y01335*
X00679Y0134*
X00682Y01346*
Y01353*
X00679Y01359*
X00674Y01364*
X00673Y01365*
Y01411*
X00699*
Y01273*
G37*
G54D17*
X02402Y01502D02*
D01*
X02401Y01503*
X02401Y01503*
X02401Y01503*
X024Y01504*
X024Y01504*
X02399Y01504*
X02399Y01504*
X02398Y01504*
X02397Y01504*
X02397Y01504*
X02396Y01505*
X02396Y01505*
X02087Y01295D02*
D01*
X02087Y01295*
X02088Y01295*
X02088Y01295*
X02089Y01295*
X02089Y01295*
X02089Y01295*
X0209Y01295*
X0209Y01296*
X02091Y01296*
X02091Y01296*
X02091Y01296*
X02092Y01297*
X01435Y01161D02*
D01*
X01435Y01161*
X01435Y0116*
X01435Y0116*
X01435Y0116*
X01435Y0116*
X01435Y0116*
X01435Y0116*
X01435Y0116*
X01435Y0116*
X01435Y0116*
X01435Y0116*
X01435Y0116*
X02028Y004D02*
D01*
X02035Y004*
X02042Y004*
X02049Y00402*
X02056Y00403*
X02062Y00406*
X02069Y00408*
X02075Y00411*
X02081Y00415*
X02087Y00419*
X02092Y00423*
X02098Y00428*
X02099Y00429*
X01473Y00646D02*
D01*
X01474Y00645*
X01474Y00645*
X01475Y00644*
X01475Y00644*
X01476Y00644*
X01476Y00644*
X01477Y00644*
X01477Y00643*
X01478Y00643*
X01478Y00643*
X01479Y00643*
X01479Y00643*
X02303Y01505D02*
D01*
X02302Y01504*
X02302Y01504*
X02301Y01504*
X02301Y01504*
X023Y01504*
X023Y01504*
X02299Y01504*
X02299Y01503*
X02298Y01503*
X02298Y01503*
X02297Y01502*
X02297Y01502*
X00725Y00988D02*
D01*
X00724Y00995*
X00724Y01002*
X00722Y01009*
X00721Y01016*
X00718Y01022*
X00716Y01029*
X00713Y01035*
X00709Y01041*
X00705Y01047*
X00701Y01052*
X00696Y01058*
X00695Y01059*
X00705Y004D02*
D01*
X00708Y00403*
X00711Y00407*
X00713Y00411*
X00716Y00415*
X00718Y00419*
X0072Y00423*
X00722Y00428*
X00723Y00432*
X00724Y00437*
X00724Y00442*
X00724Y00447*
X00725Y00448*
X02333Y01475D02*
D01*
X02332Y01474*
X02332Y01474*
X02331Y01474*
X02331Y01474*
X0233Y01474*
X0233Y01474*
X02329Y01474*
X02329Y01473*
X02328Y01473*
X02328Y01473*
X02327Y01472*
X02327Y01472*
X02091Y0124D02*
D01*
X02092Y0124*
X02092Y0124*
X02093Y0124*
X02093Y0124*
X02094Y0124*
X02094Y0124*
X02095Y0124*
X02095Y01241*
X02096Y01241*
X02096Y01241*
X02097Y01242*
X02097Y01242*
X021Y00665D02*
D01*
X02096Y00668*
X02092Y00671*
X02087Y00674*
X02083Y00677*
X02078Y00679*
X02073Y00682*
X02068Y00683*
X02063Y00685*
X02058Y00686*
X02053Y00686*
X02048Y00686*
X02046Y00687*
X0213Y00593D02*
D01*
X02129Y006*
X02129Y00607*
X02127Y00614*
X02126Y00621*
X02123Y00627*
X02121Y00634*
X02118Y0064*
X02114Y00646*
X0211Y00652*
X02106Y00657*
X02101Y00663*
X021Y00664*
Y0043D02*
D01*
X02105Y00435*
X02109Y00441*
X02113Y00446*
X02117Y00452*
X0212Y00459*
X02123Y00465*
X02125Y00472*
X02127Y00478*
X02128Y00485*
X02129Y00492*
X02129Y00499*
X0213Y00501*
X00695Y01059D02*
D01*
X00692Y01062*
X00688Y01065*
X00684Y01068*
X0068Y0107*
X00676Y01072*
X00672Y01074*
X00668Y01075*
X00663Y01077*
X00659Y01077*
X00654Y01078*
X00649Y01078*
X00648Y01078*
X02327Y01472D02*
D01*
X01494Y0124D02*
X0155D01*
X01233Y01331D02*
X01233D01*
X01233Y01277D02*
Y01331D01*
X01237Y01335D02*
X01244Y01341D01*
X01233Y01331D02*
X01237Y01335D01*
Y01331D02*
Y01335D01*
X01244Y01341D02*
Y01397D01*
X02303Y01505D02*
X02396D01*
X02092Y01297D02*
X02297Y01502D01*
X0145Y01295D02*
X02087D01*
X01435Y01161D02*
Y0124D01*
X01233Y01277D02*
X01237Y01272D01*
X01244Y01397D02*
X01244Y01397D01*
X01237Y01272D02*
D01*
X02417Y01487D02*
X02419Y01481D01*
X0242Y01481*
X01237Y01272D02*
X0127Y0124D01*
X0242Y01481D02*
Y01475D01*
X00705Y004D02*
X02028D01*
X00386Y00615D02*
X00405D01*
X00422Y00597D02*
X0045D01*
X00405Y00615D02*
X00422Y00597D01*
X0131Y0081D02*
X01473Y00646D01*
X01479Y00643D02*
X01561D01*
X0131Y0081D02*
Y0092D01*
X01281Y00948D02*
X0131Y0092D01*
X01218Y00948D02*
X01281D01*
X0127Y0124D02*
X01435D01*
X01051Y01213D02*
X01155Y0111D01*
X00375Y01213D02*
X01051D01*
X01454Y01069D02*
X02469D01*
X0136Y00975D02*
X01454Y01069D01*
X0136Y00815D02*
Y00975D01*
X0155Y0124D02*
X02091D01*
X01152Y00948D02*
X01218D01*
X01136Y00965D02*
X01152Y00948D01*
X01135Y00965D02*
X01136D01*
X02402Y01502D02*
X02417Y01487D01*
X00725Y00448D02*
Y00988D01*
X0036Y00711D02*
Y00769D01*
Y00711D02*
X0036Y00711D01*
X0036Y0077D02*
X0036Y00769D01*
X00555Y00455D02*
X00635D01*
X00553Y00452D02*
X00555Y00455D01*
X01495Y0116D02*
X0156D01*
X01561Y0086D02*
X01561Y0086D01*
X0164*
X02097Y01242D02*
X02327Y01472D01*
X02333Y01475D02*
X02333D01*
X02385*
X01435Y0124D02*
Y0128D01*
X0145Y01295*
X02427Y0141D02*
Y01462D01*
X0242Y0147D02*
X02427Y01462D01*
X0242Y0147D02*
Y01475D01*
X00345Y00875D02*
X00397D01*
X0136Y00815D02*
X01419D01*
X0016Y01158D02*
X0026D01*
X00345Y00875D02*
Y00875D01*
X0026Y01158D02*
Y0116D01*
X0016Y004D02*
X00705D01*
X021Y00665D02*
X021Y00664D01*
X01935Y00687D02*
X02046D01*
X0213Y00501D02*
Y00593D01*
X02099Y00429D02*
X021Y0043D01*
X00553Y01078D02*
X00648D01*
X00324Y01213D02*
Y01293D01*
X0027Y00955D02*
Y00995D01*
X0035Y01075*
Y01116*
X0016Y009D02*
X0027D01*
X00267Y0065D02*
X0027Y00652D01*
X0016Y0065D02*
X00267D01*
X00297Y00597D02*
X00315Y00615D01*
X0027Y00597D02*
X00297D01*
X00315Y00615D02*
X00335D01*
G54D25*
X00386Y00711D03*
X0036D03*
X00335D03*
Y00615D03*
X00386D03*
X00324Y01116D03*
X0035D03*
X00375D03*
Y01213D03*
X00324D03*
G54D26*
X0027Y00652D03*
Y00597D03*
Y009D03*
Y00955D03*
G54D27*
X0045Y00645D03*
Y00597D03*
X01675Y00495D03*
Y00542D03*
X01605Y00496D03*
Y00543D03*
G54D28*
X00373Y01295D03*
X00326D03*
X01368Y00575D03*
X01321D03*
G54D29*
X01495Y0116D03*
X01435D03*
X01435Y0124D03*
X01494D03*
G54D30*
X02035Y00865D03*
Y00807D03*
X004Y00945D03*
Y01002D03*
G54D31*
X0209Y0081D03*
Y00861D03*
G54D32*
X0137Y01518D03*
Y01397D03*
X01354Y01518D03*
Y01397D03*
X01338Y01518D03*
Y01397D03*
X01322Y01518D03*
Y01397D03*
X01307Y01518D03*
Y01397D03*
X01291Y01518D03*
Y01397D03*
X01275Y01518D03*
Y01397D03*
X01259Y01518D03*
Y01397D03*
X01244Y01518D03*
Y01397D03*
X01228Y01518D03*
Y01397D03*
X01212Y01518D03*
Y01397D03*
X01196Y01518D03*
Y01397D03*
X01181Y01518D03*
Y01397D03*
X01165Y01518D03*
Y01397D03*
X01149Y01518D03*
Y01397D03*
X01133Y01518D03*
Y01397D03*
X01118Y01518D03*
Y01397D03*
X01102Y01518D03*
Y01397D03*
X01086Y01518D03*
Y01397D03*
X0107Y01518D03*
Y01397D03*
X01055Y01518D03*
Y01397D03*
X01039Y01518D03*
Y01397D03*
X01023Y01518D03*
Y01397D03*
X01007Y01518D03*
Y01397D03*
X00992Y01518D03*
Y01397D03*
X00976Y01518D03*
Y01397D03*
X0096Y01518D03*
Y01397D03*
X00944Y01518D03*
Y01397D03*
X00929Y01518D03*
Y01397D03*
X00913Y01518D03*
Y01397D03*
X00897Y01518D03*
Y01397D03*
X00881Y01518D03*
Y01397D03*
X00866Y01518D03*
Y01397D03*
X0085Y01518D03*
Y01397D03*
X00834Y01518D03*
Y01397D03*
X00818Y01518D03*
Y01397D03*
X00803Y01518D03*
Y01397D03*
X00787Y01518D03*
Y01397D03*
X00771Y01518D03*
Y01397D03*
X00755Y01518D03*
Y01397D03*
X0074Y01518D03*
Y01397D03*
X00724Y01518D03*
Y01397D03*
X00708Y01518D03*
Y01397D03*
X00692Y01518D03*
Y01397D03*
X00677Y01518D03*
Y01397D03*
X00661Y01518D03*
Y01397D03*
X00645Y01518D03*
Y01397D03*
X00629Y01518D03*
Y01397D03*
X00614Y01518D03*
Y01397D03*
X00598Y01518D03*
Y01397D03*
X0137Y00183D03*
Y00062D03*
X01354Y00183D03*
Y00062D03*
X01338Y00183D03*
Y00062D03*
X01322Y00183D03*
Y00062D03*
X01307Y00183D03*
Y00062D03*
X01291Y00183D03*
Y00062D03*
X01275Y00183D03*
Y00062D03*
X01259Y00183D03*
Y00062D03*
X01244Y00183D03*
Y00062D03*
X01228Y00183D03*
Y00062D03*
X01212Y00183D03*
Y00062D03*
X01196Y00183D03*
Y00062D03*
X01181Y00183D03*
Y00062D03*
X01165Y00183D03*
Y00062D03*
X01149Y00183D03*
Y00062D03*
X01133Y00183D03*
Y00062D03*
X01118Y00183D03*
Y00062D03*
X01102Y00183D03*
Y00062D03*
X01086Y00183D03*
Y00062D03*
X0107Y00183D03*
Y00062D03*
X01055Y00183D03*
Y00062D03*
X01039Y00183D03*
Y00062D03*
X01023Y00183D03*
Y00062D03*
X01007Y00183D03*
Y00062D03*
X00992Y00183D03*
Y00062D03*
X00976Y00183D03*
Y00062D03*
X0096Y00183D03*
Y00062D03*
X00944Y00183D03*
Y00062D03*
X00929Y00183D03*
Y00062D03*
X00913Y00183D03*
Y00062D03*
X00897Y00183D03*
Y00062D03*
X00881Y00183D03*
Y00062D03*
X00866Y00183D03*
Y00062D03*
X0085Y00183D03*
Y00062D03*
X00834Y00183D03*
Y00062D03*
X00818Y00183D03*
Y00062D03*
X00803Y00183D03*
Y00062D03*
X00787Y00183D03*
Y00062D03*
X00771Y00183D03*
Y00062D03*
X00755Y00183D03*
Y00062D03*
X0074Y00183D03*
Y00062D03*
X00724Y00183D03*
Y00062D03*
X00708Y00183D03*
Y00062D03*
X00692Y00183D03*
Y00062D03*
X00677Y00183D03*
Y00062D03*
X00661Y00183D03*
Y00062D03*
X00645Y00183D03*
Y00062D03*
X00629Y00183D03*
Y00062D03*
X00614Y00183D03*
Y00062D03*
X00598Y00183D03*
Y00062D03*
G54D33*
X01465Y00815D03*
X01419D03*
X00442Y00875D03*
X00397D03*
G54D34*
X0175Y00466D03*
Y00525D03*
X01535Y00466D03*
Y00525D03*
G54D35*
X02496Y00162D03*
X02385D03*
Y00237D03*
X02496D03*
X02385Y00663D03*
X02496D03*
Y00588D03*
X02385D03*
X02496Y00911D03*
X02385D03*
Y00985D03*
X02496D03*
X02385Y01411D03*
X02496D03*
Y01337D03*
X02385D03*
G54D36*
X02413Y00164D03*
Y00236D03*
X02427Y00164D03*
Y00236D03*
X0244Y00164D03*
Y00236D03*
X02454Y00164D03*
Y00236D03*
X02468Y00164D03*
Y00236D03*
Y00662D03*
Y0059D03*
X02454Y00662D03*
Y0059D03*
X0244Y00662D03*
Y0059D03*
X02427Y00662D03*
Y0059D03*
X02413Y00662D03*
Y0059D03*
Y00912D03*
Y00984D03*
X02427Y00912D03*
Y00984D03*
X0244Y00912D03*
Y00984D03*
X02454Y00912D03*
Y00984D03*
X02468Y00912D03*
Y00984D03*
Y0141D03*
Y01338D03*
X02454Y0141D03*
Y01338D03*
X0244Y0141D03*
Y01338D03*
X02427Y0141D03*
Y01338D03*
X02413Y0141D03*
Y01338D03*
G54D37*
X01394Y00645D03*
X01335D03*
G54D38*
X00008Y00072D02*
X00019Y00052D01*
X00034Y00034*
X00052Y00019*
X00072Y00008*
X00095Y00002*
X00118Y0*
X02608*
X02631Y00002*
X02653Y00008*
X02673Y00019*
X02691Y00034*
X02706Y00052*
X02717Y00072*
X02724Y00095*
X02726Y00118*
Y01456*
X02724Y01479D02*
X02726Y01456D01*
X02717Y01501D02*
X02724Y01479D01*
X02706Y01522D02*
X02717Y01501D01*
X02691Y0154D02*
X02706Y01522D01*
X02673Y01554D02*
X02691Y0154D01*
X02653Y01565D02*
X02673Y01554D01*
X02631Y01572D02*
X02653Y01565D01*
X02608Y01574D02*
X02631Y01572D01*
X00118Y01574D02*
X02608D01*
X00095Y01572D02*
X00118Y01574D01*
X00072Y01565D02*
X00095Y01572D01*
X00052Y01554D02*
X00072Y01565D01*
X00034Y0154D02*
X00052Y01554D01*
X00019Y01522D02*
X00034Y0154D01*
X00008Y01501D02*
X00019Y01522D01*
X00002Y01479D02*
X00008Y01501D01*
X0Y01456D02*
X00002Y01479D01*
X0Y00118D02*
Y01456D01*
Y00118D02*
X00002Y00095D01*
X00008Y00072*
G54D45*
X0016Y009D03*
Y004D03*
Y01158D03*
Y0065D03*
G54D46*
X001Y00841D03*
Y00958D03*
Y00341D03*
Y00458D03*
Y011D03*
Y01216D03*
Y00591D03*
Y00708D03*
G54D47*
X01935Y0099D03*
Y00643D03*
X01561D03*
Y0099D03*
G54D48*
X00553Y00452D03*
Y00496D03*
Y00539D03*
Y00582D03*
Y00625D03*
Y00669D03*
Y00712D03*
Y00755D03*
Y00905D03*
Y00948D03*
Y00992D03*
Y01035D03*
Y01078D03*
Y01122D03*
X01218D03*
Y01078D03*
Y01035D03*
Y00992D03*
Y00948D03*
Y00905D03*
Y00755D03*
Y00712D03*
Y00669D03*
Y00625D03*
Y00582D03*
Y00539D03*
Y00496D03*
Y00452D03*
X01935Y00946D03*
Y00903D03*
Y0086D03*
Y00816D03*
Y00773D03*
Y0073D03*
Y00687D03*
X01561D03*
Y0073D03*
Y00773D03*
Y00816D03*
Y0086D03*
Y00903D03*
Y00946D03*
G54D54*
X0129Y00087D02*
D01*
X0129Y00086*
X0129Y00086*
X01291Y00083D02*
D01*
X01291Y00083*
X01291Y00083*
X00944Y01458D02*
D01*
X00944Y01459*
X00944Y01459*
X00944Y01459*
X00944Y0146*
X00944Y0146*
X01972Y0153D02*
D01*
X01972Y01529*
X01971Y01529*
X01971Y01529*
X0197Y01529*
X0197Y01529*
X0197Y01529*
X01969Y01529*
X01969Y01529*
X01968Y01528*
X01968Y01528*
X01968Y01528*
X01968Y01528*
X02401D02*
D01*
X02401Y01528*
X02401Y01528*
X024Y01529*
X024Y01529*
X024Y01529*
X02399Y01529*
X02399Y01529*
X02398Y01529*
X02398Y01529*
X02398Y01529*
X02397Y01529*
X02397Y0153*
X0051Y01375D02*
D01*
X0051Y01375*
X00509Y01374*
X00509Y01374*
X00509Y01374*
X00509Y01373*
X00509Y01373*
X00509Y01373*
X00508Y01372*
X00508Y01372*
X00508Y01371*
X00508Y01371*
X00508Y01371*
X01359Y01116D02*
D01*
X0136Y01116*
X0136Y01116*
X0136Y01115*
X01361Y01115*
X01361Y01115*
X01362Y01115*
X01362Y01115*
X01362Y01115*
X01363Y01115*
X01363Y01115*
X01364Y01115*
X01364Y01115*
X0116Y01194D02*
D01*
X0116Y01194*
X0116Y01194*
X01161Y01193*
X01161Y01193*
X01161Y01193*
X01162Y01193*
X01162Y01193*
X01163Y01193*
X01163Y01193*
X01163Y01193*
X01164Y01193*
X01164Y01193*
X01125Y01232D02*
D01*
X01125Y01232*
X01125Y01231*
X01125Y01231*
X01125Y0123*
X01125Y0123*
X01125Y0123*
X01125Y01229*
X01125Y01229*
X01126Y01228*
X01126Y01228*
X01126Y01228*
X01126Y01228*
X01124Y01365D02*
D01*
X01124Y01365*
X01124Y01365*
X01124Y01365*
X01124Y01365*
X01124Y01365*
X01124Y01365*
X01146Y0135D02*
D01*
X01147Y0135*
X01147Y01351*
X01147Y01351*
X01148Y01352*
X01148Y01352*
X01148Y01353*
X01149Y01354*
X01149Y01354*
X01149Y01355*
X01149Y01356*
X01149Y01357*
X01149Y01357*
X01169Y01205D02*
D01*
X01169Y01205*
X01169Y01205*
X0117Y01204*
X0117Y01204*
X0117Y01204*
X01171Y01204*
X01171Y01204*
X01172Y01204*
X01172Y01204*
X01172Y01204*
X01173Y01203*
X01173Y01204*
X01145Y01232D02*
D01*
X01145Y01232*
X01145Y01231*
X01145Y01231*
X01145Y0123*
X01145Y0123*
X01145Y0123*
X01145Y01229*
X01145Y01229*
X01146Y01228*
X01146Y01228*
X01146Y01228*
X01146Y01228*
X01352Y01108D02*
D01*
X01353Y01108*
X01353Y01107*
X01354Y01106*
X01355Y01106*
X01357Y01105*
X01358Y01105*
X01359Y01104*
X0136Y01104*
X01361Y01104*
X01362Y01104*
X01363Y01104*
X01364Y01104*
X01151Y01183D02*
D01*
X01151Y01183*
X01151Y01183*
X01152Y01182*
X01152Y01182*
X01152Y01182*
X01153Y01182*
X01153Y01182*
X01154Y01182*
X01154Y01182*
X01154Y01182*
X01155Y01182*
X01155Y01182*
X0109Y01247D02*
D01*
X0109Y01247*
X0109Y01246*
X0109Y01246*
X0109Y01245*
X0109Y01245*
X0109Y01245*
X0109Y01244*
X0109Y01244*
X01091Y01243*
X01091Y01243*
X01091Y01243*
X01091Y01243*
X01142Y01172D02*
D01*
X01142Y01172*
X01142Y01172*
X01143Y01171*
X01143Y01171*
X01143Y01171*
X01144Y01171*
X01144Y01171*
X01145Y01171*
X01145Y01171*
X01145Y01171*
X01146Y01171*
X01146Y01171*
X01025Y01292D02*
D01*
X01025Y01292*
X01025Y01291*
X01025Y01291*
X01025Y0129*
X01025Y0129*
X01025Y0129*
X01025Y01289*
X01025Y01289*
X01026Y01288*
X01026Y01288*
X01026Y01288*
X01026Y01288*
X01336Y01093D02*
D01*
X01338Y01091*
X0134Y01089*
X01342Y01088*
X01345Y01086*
X01347Y01085*
X0135Y01084*
X01352Y01083*
X01355Y01082*
X01358Y01082*
X0136Y01082*
X01363Y01082*
X01364*
X01336Y01093D02*
D01*
X01336Y01093*
X01336Y01093*
X01336Y01093*
X01336Y01093*
X01336Y01093*
X01336Y01093*
X01344Y01101D02*
D01*
X01345Y01099*
X01347Y01098*
X01348Y01097*
X0135Y01096*
X01352Y01095*
X01354Y01094*
X01356Y01094*
X01357Y01093*
X01359Y01093*
X01361Y01093*
X01363Y01093*
X01364Y01093*
X01118Y01374D02*
D01*
X01118Y01373*
X01118Y01373*
X01118Y01373*
X01118Y01372*
X01118Y01372*
X01118Y01371*
X01118Y01371*
X01119Y01371*
X01119Y0137*
X01119Y0137*
X01119Y0137*
X01119Y0137*
X01126Y0136D02*
D01*
X01126Y01361*
X01126Y01361*
X01126Y01362*
X01126Y01362*
X01126Y01362*
X01126Y01363*
X01125Y01363*
X01125Y01364*
X01125Y01364*
X01125Y01364*
X01124Y01365*
X01124Y01365*
X01006Y01371D02*
D01*
X01005Y0137*
X01005Y0137*
X01005Y01369*
X01005Y01369*
X01005Y01369*
X01005Y01368*
X01005Y01368*
X01005Y01367*
X01004Y01367*
X01005Y01367*
X01182Y01415D02*
D01*
X01182Y01415*
X01182Y01414*
X01182Y01414*
X01181Y01414*
X01181Y01413*
X01181Y01413*
X01181Y01413*
X01181Y01412*
X01181Y01412*
X01181Y01411*
X01181Y01411*
X01181Y01411*
X00918Y01329D02*
D01*
X00918Y01329*
X00918Y01328*
X00918Y01328*
X00918Y01328*
X00918Y01327*
X00918Y01327*
X00918Y01327*
X0088Y01374D02*
D01*
X0088Y01374*
X0088Y01374*
X0088Y01373*
X0088Y01373*
X0088Y01372*
X0088Y01372*
X00878Y0135D02*
D01*
Y0135*
Y0135*
X00878Y0135*
Y0135*
X00878Y0135*
X00878*
Y01352D02*
D01*
X00878Y01351*
X00878Y01351*
X00465Y01235D02*
D01*
X00465Y01236*
X00466Y01236*
X00466Y01236*
X00466Y01237*
X00466Y01237*
X00467Y01237*
X00467Y01238*
X00467Y01238*
X00467Y01239*
X00467Y01239*
X00467Y01239*
X00467Y0124*
X00645Y01485D02*
D01*
X00645Y01484*
X00645Y01483*
X00645Y01482*
X00646Y01481*
X00646Y0148*
X00646Y01479*
X00647Y01478*
X00647Y01477*
X00648Y01476*
X00649Y01475*
X00649Y01474*
X0065Y01474*
X00963Y01371D02*
D01*
X00963Y01371*
X00963Y01371*
X00963Y01371*
X00963Y01371*
X00963Y01371*
X01354Y00194D02*
D01*
X01354Y00194*
X01354Y00194*
X01354Y00194*
X01354Y00194*
X01355Y00194*
X01242Y0009D02*
D01*
X01242Y0009*
X01242Y0009*
X01242Y0009*
X01242Y0009*
X01242Y0009*
X01244Y00086D02*
D01*
X01244Y00086*
X01244Y00087*
X01243Y00087*
X01243Y00088*
X01243Y00088*
X01243Y00088*
X01243Y00089*
X01243Y00089*
X01242Y00089*
X01242Y0009*
X01242Y0009*
X01242Y0009*
X0124Y00095D02*
D01*
X0124Y00095*
X0124Y00094*
X0124Y00094*
X0124Y00093*
X0124Y00093*
X0124Y00093*
X0124Y00092*
X0124Y00092*
X01241Y00091*
X01241Y00091*
X01241Y00091*
X01241Y00091*
X0124Y00103D02*
D01*
X01239Y00104*
X01239Y00104*
X01239Y00104*
X01239Y00104*
X01214Y00094D02*
D01*
X01214Y00094*
X01214Y00095*
X01214Y00095*
X01214Y00096*
X01214Y00096*
X01214Y00096*
X01214Y00097*
X01215Y00097*
X01213Y00093D02*
D01*
X01213Y00092*
X01213Y00092*
X01212Y00091*
X01212Y00091*
X01212Y00091*
X01212Y0009*
X01212Y0009*
X01212Y0009*
X01195Y00088D02*
D01*
X01195Y00089*
X01195Y00089*
X01195Y00089*
X01195Y00089*
X01195Y00094D02*
D01*
X01195Y00093*
X01195Y00093*
X01195Y00092*
X01195Y00092*
X00677Y01493D02*
D01*
X00677Y01493*
X00677Y01493*
X00677Y01492*
X00677Y01492*
X00677Y01491*
X00677Y01491*
X00677Y01491*
X00678Y0149*
X00678Y0149*
X00678Y0149*
X00678Y01489*
X00678Y01489*
X01138Y00248D02*
D01*
X01138Y00248*
X01138Y00248*
X01138Y00248*
X01138Y00248*
X01138Y00248*
X0114Y00244D02*
D01*
X01139Y00244*
X01139Y00245*
X01139Y00245*
X01139Y00245*
X01139Y00246*
X01139Y00246*
X01139Y00247*
X01139Y00247*
X01138Y00247*
X01138Y00248*
X01138Y00248*
X01138Y00248*
X01126Y00205D02*
D01*
X01125Y00204*
X01125Y00204*
X01124Y00204*
X01124Y00204*
X01124Y00204*
X01123Y00204*
X01123Y00203*
X01123Y00203*
X01119Y002D02*
D01*
X01119Y00199*
X01119Y00199*
X01119Y00199*
X01118Y00198*
X01118Y00198*
X01118Y00197*
X01118Y00197*
X01118Y00197*
X01118Y00196*
X01118Y00196*
X01118Y00195*
X01118Y00195*
X01082Y00255D02*
D01*
X01082Y00254*
X01081Y00254*
X01081Y00254*
X0108Y00254*
X0108Y00254*
X0108Y00254*
X01079Y00254*
X01079Y00254*
X01078Y00253*
X01078Y00253*
X01078Y00253*
X01078Y00253*
X01069Y00244D02*
D01*
X01068Y00243*
X01068Y00243*
X01068Y00243*
X01068Y00242*
X01067Y00242*
X01067Y00241*
X01067Y00241*
X01067Y00241*
X01067Y0024*
X01067Y0024*
X01067Y00239*
X01067Y00239*
X01034Y00228D02*
D01*
X01034Y00228*
X01034Y00227*
X01033Y00227*
X01033Y00226*
X01033Y00226*
X01033Y00226*
X01033Y00225*
X01033Y00225*
X01033Y00225*
X01032Y00224*
X01032Y00224*
X01032Y00224*
X01056Y00244D02*
D01*
X01056Y00244*
X01056Y00245*
X01056Y00245*
X01056Y00246*
X01056Y00246*
X01055Y00246*
X01055Y00247*
X01055Y00247*
X01055Y00247*
X01068Y01373D02*
D01*
X01068Y01373*
X01068Y01372*
X01068Y01372*
X01067Y01372*
X01067Y01371*
X01067Y01371*
X01067Y01371*
X01067Y0137*
X01067Y0137*
X01067Y01369*
X01066Y0135D02*
D01*
X01066Y0135*
X01066Y0135*
X01067Y01351*
X01067Y01351*
X01067Y01351*
X01067Y01352*
X01067Y01352*
X01067Y01352*
X01043Y01366D02*
D01*
X01043Y01366*
X01043Y01366*
X01043Y01366*
X01043Y01366*
X01043Y01366*
X01045Y01362D02*
D01*
X01044Y01362*
X01044Y01363*
X01044Y01363*
X01044Y01364*
X01044Y01364*
X01044Y01364*
X01044Y01365*
X01044Y01365*
X01043Y01366*
X01043Y01366*
X01043Y01366*
X01043Y01366*
X01039Y01373D02*
D01*
X01039Y01372*
X01039Y01372*
X01039Y01371*
X01039Y01371*
X01039Y01371*
X01039Y0137*
X0104Y0137*
X0104Y01369*
X0104Y01369*
X0104Y01369*
X01041Y01368*
X01041Y01368*
X01006Y01371D02*
D01*
X01006Y01372*
X01007Y01372*
X01007Y01372*
X01007Y01373*
X01007Y01373*
X01007Y01374*
X01007Y01374*
X01007Y01374*
X01007Y01375*
X01007Y01375*
X00965Y01367D02*
D01*
X00964Y01367*
X00964Y01368*
X00964Y01368*
X00964Y01369*
X00964Y01369*
X00964Y01369*
X00964Y0137*
X00964Y0137*
X00963Y01371*
X00963Y01371*
X00963Y01371*
X00963Y01371*
X0096Y01376D02*
D01*
X0096Y01376*
X0096Y01376*
X0096Y01375*
X0096Y01375*
X0096Y01374*
X00961Y01374*
X00961Y01374*
X00961Y01373*
X00961Y01373*
X00962Y01373*
X00962Y01372*
X00962Y01372*
X01127Y00205D02*
D01*
X01127Y00205*
X01128Y00205*
X01128Y00205*
X01129Y00206*
X01129Y00206*
X01129Y00206*
X01054Y00248D02*
D01*
X01054Y00249*
X01054Y00249*
X01053Y00249*
X01069Y01374D02*
D01*
X01069Y01374*
X01069Y01374*
X01069Y01375*
X01069Y01375*
X0107Y01376*
X0107Y01376*
X0107Y01376*
X0107Y01377*
X0107Y01377*
X0107Y01377*
X00818Y0138D02*
D01*
X00818Y01381*
X00818Y01381*
X00881Y01377D02*
D01*
X00881Y01377*
X00881Y01377*
X00881Y01378*
X00881Y01378*
X00881Y01379*
X00881Y01379*
X00662Y01352D02*
Y01396D01*
Y01352D02*
X00665Y0135D01*
X00645Y01325D02*
Y01386D01*
X0113Y01451D02*
Y01483D01*
X01129Y0145D02*
X0113Y01451D01*
X0115Y01428D02*
Y0143D01*
X0117Y01451D02*
Y01483D01*
X01134Y01413D02*
X0115Y01428D01*
X0096Y01436D02*
Y01437D01*
X00948Y01425D02*
X0096Y01436D01*
X00919Y01425D02*
X00948D01*
X00977Y01398D02*
Y01426D01*
X0105Y01451D02*
Y01483D01*
X0109Y01451D02*
Y01483D01*
X00977Y01426D02*
X0098Y0143D01*
X0096Y01437D02*
X0097Y01447D01*
X01049Y0145D02*
X0105Y01451D01*
X0109D02*
X0109Y0145D01*
X0097Y01447D02*
Y01475D01*
X00898Y01351D02*
Y01351D01*
X00898Y01351D02*
X00898Y01351D01*
X00898Y01371D02*
X00898Y01351D01*
X00898Y01375D02*
Y01396D01*
Y01375D02*
X00898Y01371D01*
X00815Y0135D02*
D01*
X00945D02*
Y01386D01*
X00814Y0135D02*
X00815D01*
X01379Y01327D02*
X01381Y01326D01*
X01379Y01327D02*
Y01347D01*
X0129Y0135D02*
X0129Y0135D01*
Y01396*
X00985Y0131D02*
X01136Y01158D01*
X02327Y01082D02*
X02501Y01256D01*
X01271Y01158D02*
X01271Y01158D01*
X00985Y0131D02*
Y01354D01*
X01136Y01158D02*
X01271D01*
X02495Y00729D02*
Y0073D01*
X02468Y00702D02*
X02495Y00729D01*
X01201Y01293D02*
Y0131D01*
X01217Y01326D02*
Y01362D01*
X01201Y01293D02*
X01201Y01293D01*
Y0131D02*
X01217Y01326D01*
X01166Y01292D02*
X01206Y01332D01*
Y01358*
X01212Y01367D02*
Y01397D01*
Y01367D02*
X01217Y01362D01*
X01196Y01368D02*
X01206Y01358D01*
X01196Y01368D02*
Y01397D01*
X01275D02*
Y01407D01*
X01249Y01431D02*
X01285D01*
X01286Y0143D02*
X0187D01*
X01285Y01431D02*
X01286Y0143D01*
X01241Y01423D02*
X01249Y01431D01*
X0119Y01423D02*
X01241D01*
X0124Y01452D02*
X0125Y01462D01*
X0124Y01448D02*
Y01452D01*
X01229Y01476D02*
Y01518D01*
Y01476D02*
X0123Y01475D01*
X0187Y0143D02*
X01968Y01528D01*
X01182Y01415D02*
X0119Y01423D01*
X01313Y00093D02*
Y00117D01*
X01307Y00062D02*
Y00087D01*
X0131Y0012D02*
X01313Y00117D01*
X0129Y00087D02*
Y00099D01*
X01307Y00087D02*
X01313Y00093D01*
X0129Y00099D02*
X01293Y00102D01*
X0129Y00086D02*
X01291Y00083D01*
X01291Y00062D02*
Y00083D01*
X01133Y01397D02*
X01134Y01398D01*
Y01413*
X00976Y01397D02*
X00977Y01398D01*
X00866Y01397D02*
Y01411D01*
X00874Y01419*
X00909*
X00857D02*
X00865Y01411D01*
X00866Y01397D02*
X00866Y01397D01*
X00806Y01419D02*
X00857D01*
X00739Y0143D02*
X00914D01*
X00802Y01452D02*
Y01517D01*
X00803Y01397D02*
Y01415D01*
X00564Y01429D02*
X00739D01*
X008Y0145D02*
X00802Y01452D01*
X00739Y01429D02*
X00739Y0143D01*
X00803Y01397D02*
X00803Y01397D01*
Y01415D02*
X00806Y01419D01*
X00914Y0143D02*
X00919Y01425D01*
X00909Y01419D02*
X00913Y01415D01*
Y01397D02*
Y01415D01*
Y01397D02*
X00913Y01397D01*
X0051Y01375D02*
X00564Y01429D01*
X00895Y0145D02*
X00896Y01452D01*
Y01517*
X00897Y01518*
X00593Y01318D02*
Y01346D01*
X00614Y01367*
Y01397*
X00598Y01374D02*
Y01397D01*
X00573Y0135D02*
X00598Y01374D01*
X0057Y0135D02*
X00573D01*
X01307Y01361D02*
X0131Y01358D01*
Y01325D02*
Y01358D01*
X0127Y0132D02*
Y01358D01*
X01275Y01363*
X01307Y01361D02*
Y01397D01*
X0127Y0132D02*
X01287Y01303D01*
X01259Y01305D02*
Y01396D01*
X01322Y01351D02*
X0133Y01344D01*
Y01302D02*
Y01344D01*
X01322Y01351D02*
Y01397D01*
X01329Y01301D02*
X0133Y01302D01*
X01287Y01301D02*
Y01303D01*
X01275Y01363D02*
Y01397D01*
X01354Y01372D02*
Y01397D01*
Y01372D02*
X01379Y01347D01*
X01338Y01354D02*
X01352Y0134D01*
Y01338D02*
Y0134D01*
X01338Y01354D02*
Y01397D01*
X01259Y01396D02*
X01259Y01397D01*
X01258Y01304D02*
X01259Y01305D01*
X01181Y01397D02*
Y01411D01*
Y0136D02*
Y01397D01*
X0107Y01475D02*
X0107Y01475D01*
Y01518D02*
X0107Y01518D01*
X0107Y01475D02*
Y01518D01*
X01339Y00172D02*
X0134Y00163D01*
Y00146D02*
Y00163D01*
X0134Y0013D02*
X0134Y00146D01*
X00661Y01491D02*
X0067Y01483D01*
Y01459D02*
Y01483D01*
X00661Y01491D02*
Y01518D01*
X00665Y01454D02*
X0067Y01459D01*
X00665Y01449D02*
Y01454D01*
X00755Y01335D02*
Y01363D01*
X00755Y01364*
Y01397*
X00795Y01325D02*
Y01358D01*
X00803Y01366*
X0074Y01308D02*
X00754Y01295D01*
X0074Y01308D02*
Y01397D01*
X00803Y01366D02*
Y01397D01*
X00834Y01325D02*
X00835D01*
X00814Y0135D02*
X00817Y01371D01*
X00835Y01325D02*
Y01386D01*
X00834D02*
X00835D01*
X00817Y01371D02*
X00818Y0138D01*
X00943Y01455D02*
X00944Y01458D01*
X00944Y0146D02*
Y01518D01*
X01972Y0153D02*
X02397D01*
X02401Y01528D02*
X02455Y01475D01*
X00508Y01371D02*
X0051Y01235D01*
X02468Y01453D02*
X0249Y01475D01*
X02468Y0141D02*
Y01453D01*
X01125Y01232D02*
Y01325D01*
X01124Y01365D02*
X01124D01*
X01164Y01193D02*
X01283D01*
X01126Y01228D02*
X0116Y01194D01*
X01164Y01193D02*
D01*
X0217Y01155D02*
Y0119D01*
X01119Y0137D02*
X01124Y01365D01*
X01364Y01115D02*
X0213D01*
X0217Y01155*
X01366Y01126D02*
X02105D01*
X02135Y01156*
Y0119*
X02185Y01093D02*
X02245Y01153D01*
Y0119*
X01364Y01082D02*
X02327D01*
X01364Y01093D02*
X02185D01*
X01364Y01104D02*
X0216D01*
X02215Y01159*
Y0119*
X01173Y01204D02*
X01288D01*
X01173D02*
D01*
X01145Y01348D02*
X01146Y0135D01*
X01146Y01228D02*
X01169Y01205D01*
X01169Y01205*
X01145Y01232D02*
D01*
Y01348*
X01155Y01182D02*
X01279D01*
X0135Y01111D02*
X01352Y01108D01*
X01091Y01243D02*
X01151Y01183D01*
X01155Y01182D02*
D01*
X0109Y01247D02*
Y01325D01*
X01142Y01172D02*
X01142Y01172D01*
X01026Y01288D02*
X01142Y01172D01*
X01283Y01193D02*
X01359Y01116D01*
X01359Y01116*
X01336Y01094D02*
X01336Y01093D01*
X01336D02*
X01336Y01093D01*
X01146Y01171D02*
X01274D01*
X01146D02*
D01*
X01025Y01292D02*
Y0135D01*
X01126Y01326D02*
Y0136D01*
X01118Y01374D02*
Y01397D01*
X01005Y01325D02*
Y01367D01*
X01288Y01204D02*
X01366Y01126D01*
X01274Y01171D02*
X01343Y01101D01*
X01279Y01182D02*
X0135Y01111D01*
X01271Y01158D02*
X01336Y01094D01*
X01343Y01101D02*
X01344Y01101D01*
X00918Y01327D02*
X0092Y01325D01*
Y01363*
X00929Y01373*
Y01397*
X00928Y01386D02*
X00928Y01387D01*
X00929Y01397*
X00965Y01325D02*
Y01367D01*
X00944Y01397D02*
X00945Y01386D01*
X00878Y0135D02*
Y0135D01*
Y01352D02*
X0088Y01372D01*
X00878Y0135D02*
X0088Y01325D01*
X00878Y01351D02*
X00878Y0135D01*
X00465Y01235D02*
D01*
X00465Y01235D02*
X00465Y01235D01*
X00465Y01235D02*
Y01425D01*
X00645Y01485D02*
Y01518D01*
X00924Y01475D02*
X00928Y01478D01*
Y01517*
X00929Y01518*
X00976Y01486D02*
Y01518D01*
X01208Y01451D02*
X0121Y0145D01*
X01208Y01451D02*
Y01465D01*
X02468Y00556D02*
Y0059D01*
Y00556D02*
X02515Y0051D01*
X0246Y0071D02*
Y0073D01*
X02454Y00704D02*
X0246Y0071D01*
X02454Y00662D02*
Y00704D01*
X02468Y00662D02*
Y00702D01*
Y01286D02*
Y01338D01*
Y01286D02*
X025Y01255D01*
X02454Y0141D02*
X02454Y0141D01*
Y01474*
X02455Y01475*
X01354Y00194D02*
Y00194D01*
X01339Y00172D02*
Y00172D01*
X01259Y00062D02*
Y00117D01*
X01242Y0009D02*
X01242Y0009D01*
X01241Y00091D02*
X01242Y0009D01*
X01244Y00062D02*
Y00086D01*
X01239Y00105D02*
X01239Y00104D01*
X0124Y00095D02*
Y00103D01*
X01213Y00093D02*
X01214Y00094D01*
X01212Y00062D02*
Y0009D01*
X01195Y00072D02*
Y00088D01*
X01195Y00092D02*
X01195Y00089D01*
X01195Y00094D02*
Y00105D01*
Y00094D02*
D01*
X00681Y01487D02*
X0069Y01478D01*
X00678Y01489D02*
X00681Y01487D01*
X00677Y01493D02*
Y01518D01*
X0069Y01475D02*
Y01478D01*
X01149Y01357D02*
Y01397D01*
X01338Y00183D02*
X01339Y00172D01*
X01354Y00183D02*
X01354Y00194D01*
X01355Y00194D02*
Y0024D01*
X0137Y00209D02*
X01378Y00218D01*
X0137Y00183D02*
Y00209D01*
X01378Y00218D02*
Y00223D01*
X0116Y0022D02*
Y00225D01*
X01149Y00209D02*
X0116Y0022D01*
X0113Y00256D02*
X01138Y00248D01*
X01138Y00248*
X0114Y00216D02*
Y00244D01*
X01123Y00203D02*
D01*
X01119Y002D02*
X01123Y00203D01*
X01118Y00183D02*
Y00195D01*
X01082Y00255D02*
X01095D01*
X01067Y00217D02*
Y00239D01*
X01078Y00253D02*
D01*
X01069Y00244D02*
X01078Y00253D01*
X01069Y00244D02*
D01*
X01032Y00215D02*
Y00224D01*
X01034Y00228D02*
X01036Y0023D01*
X01056Y00221D02*
Y00244D01*
X01067Y01352D02*
Y01369D01*
Y01352D02*
D01*
X01066Y0135D02*
D01*
X01043Y01366D02*
X01043Y01366D01*
X01041Y01368D02*
X01043Y01366D01*
X01039Y01373D02*
Y01397D01*
X01045Y01326D02*
Y01362D01*
X01006Y01371D02*
X01006Y01371D01*
X00963Y01371D02*
X00963Y01371D01*
X00962Y01372D02*
X00963Y01371D01*
X0096Y01376D02*
Y01397D01*
X0088Y01374D02*
X00881Y01377D01*
X00772Y01352D02*
Y01396D01*
Y01352D02*
X00775Y0135D01*
X01045Y01326D02*
X01046Y01325D01*
X01165D02*
X01166Y01326D01*
Y01359*
X01215Y00097D02*
Y0013D01*
X01195Y00072D02*
X01196Y00062D01*
X0137Y00105D02*
X0137Y00104D01*
Y00062D02*
X0137Y00062D01*
X0137Y00062D02*
Y00104D01*
X0117Y00095D02*
Y0012D01*
X01165Y0009D02*
X0117Y00095D01*
X01165Y00062D02*
Y0009D01*
X01149Y00062D02*
Y00104D01*
X01149Y00062D02*
X01149Y00062D01*
Y00104D02*
X0115Y00105D01*
X01125Y00096D02*
Y0012D01*
X01118Y00089D02*
X01125Y00096D01*
X01118Y00062D02*
Y00089D01*
X01103Y00082D02*
X01105Y00084D01*
Y00105*
X01103Y00063D02*
Y00082D01*
X01102Y00062D02*
X01103Y00063D01*
X01075Y00094D02*
Y0012D01*
X0107Y0009D02*
X01075Y00094D01*
X0107Y00062D02*
Y0009D01*
X01055Y00062D02*
X01055Y00062D01*
X01055Y00062D02*
Y00104D01*
X01055Y00105D02*
X01055Y00104D01*
X01025Y00093D02*
Y0012D01*
X01023Y00062D02*
Y00091D01*
X01025Y00093*
X01005Y00084D02*
X01006Y00082D01*
Y00063D02*
X01007Y00062D01*
X01006Y00063D02*
Y00082D01*
X01005Y00084D02*
Y00105D01*
X00976Y00062D02*
Y00093D01*
X0098Y00096*
Y0013*
X0096Y00062D02*
Y00104D01*
X0096Y00105D02*
X0096Y00104D01*
Y00062D02*
X0096Y00062D01*
X00935Y00095D02*
Y0012D01*
X00929Y00089D02*
X00935Y00095D01*
X00929Y00062D02*
Y00089D01*
X00914Y00063D02*
Y00083D01*
X00915Y00084*
X00913Y00062D02*
X00914Y00063D01*
X00915Y00084D02*
Y00105D01*
X00881Y00091D02*
X00885Y00094D01*
Y0012*
X00881Y00062D02*
Y00091D01*
X00865Y00084D02*
X00865Y00083D01*
X00865Y00084D02*
Y00105D01*
X00865Y00063D02*
X00866Y00062D01*
X00865Y00063D02*
Y00083D01*
X0084Y00095D02*
Y0012D01*
X00834Y00089D02*
X0084Y00095D01*
X00834Y00062D02*
Y00089D01*
X0082Y00084D02*
Y00105D01*
X00818Y00062D02*
X00819Y00063D01*
Y00083*
X0082Y00084*
X0079Y00094D02*
Y0012D01*
X00787Y00062D02*
Y00091D01*
X0079Y00094*
X0077Y00063D02*
Y00083D01*
X0077Y00084D02*
X0077Y00083D01*
Y00063D02*
X00771Y00062D01*
X0077Y00084D02*
Y00105D01*
X0074Y0009D02*
X00745Y00095D01*
Y0012*
X0074Y00062D02*
Y0009D01*
X00724Y00062D02*
X00724Y00062D01*
Y00104*
X00725Y00105*
X00692Y00062D02*
Y00089D01*
X007Y00096*
Y0012*
X00678Y00063D02*
Y00082D01*
X0068Y00084*
Y00105*
X00677Y00062D02*
X00678Y00063D01*
X0065Y00097D02*
Y00125D01*
X00645Y00093D02*
X0065Y00097D01*
X00645Y00062D02*
Y00093D01*
X00629Y00062D02*
Y00109D01*
X0063Y0011*
X00629Y00062D02*
X00629Y00062D01*
X00575Y0011D02*
X00598Y00086D01*
Y00062D02*
Y00086D01*
X0131Y00217D02*
Y00245D01*
X01307Y00183D02*
Y00214D01*
X0131Y00217*
X0129Y00184D02*
Y00229D01*
X0129Y0023D02*
X0129Y00229D01*
Y00184D02*
X01291Y00183D01*
X01259Y00216D02*
X0126Y00216D01*
Y00245*
X01259Y00183D02*
Y00216D01*
X0124Y0023D02*
X01243Y00226D01*
Y00184D02*
X01244Y00183D01*
X01243Y00184D02*
Y00226D01*
X0121Y00252D02*
X0122Y00242D01*
X0121Y00252D02*
Y00256D01*
X01212Y00183D02*
Y00212D01*
X0122Y00219*
Y00242*
X01197Y00184D02*
Y00227D01*
X012Y0023*
X01196Y00183D02*
X01197Y00184D01*
X01166Y00203D02*
X0118Y00216D01*
X01166Y00184D02*
Y00203D01*
X01149Y00183D02*
Y00209D01*
X01165Y00255D02*
X0118Y0024D01*
Y00216D02*
Y0024D01*
X01165Y00183D02*
X01166Y00184D01*
X01129Y00206D02*
X0114Y00216D01*
X01126Y00205D02*
X01127Y00205D01*
X01102Y00183D02*
Y00207D01*
X0112Y00225*
X01087Y00221D02*
Y00225D01*
X0107Y00183D02*
Y00205D01*
X01087Y00221*
X01044Y00258D02*
X01053Y00249D01*
X01054Y00248D02*
X01055Y00247D01*
X01039Y00183D02*
Y00204D01*
X01056Y00221*
X01055Y00204D02*
X01067Y00217D01*
X01055Y00183D02*
Y00204D01*
X01023Y00183D02*
Y00206D01*
X01032Y00215*
X01007Y00183D02*
Y00212D01*
X01016Y0022D02*
Y00244D01*
X01007Y00212D02*
X01016Y0022D01*
X00993Y00184D02*
Y00226D01*
X00996Y0023*
X00992Y00183D02*
X00993Y00184D01*
X00959D02*
X0096Y00183D01*
X00956Y0023D02*
X00959Y00226D01*
X00975Y00255D02*
X00976Y00253D01*
X00959Y00184D02*
Y00226D01*
X00976Y00183D02*
Y00253D01*
X00929Y0022D02*
X0093Y0022D01*
Y00255*
X00929Y00183D02*
Y0022D01*
X0091Y0023D02*
X00912Y00227D01*
Y00184D02*
X00913Y00183D01*
X00912Y00184D02*
Y00227D01*
X00881Y00214D02*
X00885Y00217D01*
X00881Y00183D02*
Y00214D01*
X00885Y00217D02*
Y00245D01*
X00865Y00184D02*
Y00229D01*
X00865Y0023D02*
X00865Y00229D01*
Y00184D02*
X00866Y00183D01*
X00834Y00213D02*
X0084Y00218D01*
X00834Y00183D02*
Y00213D01*
X0084Y00218D02*
Y00245D01*
X00819Y00184D02*
Y00229D01*
X00818Y00183D02*
X00819Y00184D01*
Y00229D02*
X0082Y0023D01*
X00787Y00214D02*
X0079Y00217D01*
X00787Y00183D02*
Y00214D01*
X0079Y00217D02*
Y00245D01*
X0077Y00184D02*
Y00229D01*
X0077Y0023D02*
X0077Y00229D01*
Y00184D02*
X00771Y00183D01*
X0074Y00213D02*
X00745Y00218D01*
X0074Y00183D02*
Y00213D01*
X00745Y00218D02*
Y00245D01*
X00724Y00229D02*
X00725Y0023D01*
X00724Y00183D02*
X00724Y00183D01*
Y00229*
X00692Y00215D02*
X00695Y00217D01*
X00692Y00183D02*
Y00215D01*
X00695Y00217D02*
Y00245D01*
X00676Y00184D02*
Y00228D01*
X00675Y0023D02*
X00676Y00228D01*
Y00184D02*
X00677Y00183D01*
X00645Y00214D02*
X0065Y00218D01*
X00645Y00183D02*
Y00214D01*
X0065Y00218D02*
Y00245D01*
X00629Y00183D02*
X00629Y00183D01*
Y00229*
X0063Y0023*
X00597Y00184D02*
Y00242D01*
X00595Y00245D02*
X00597Y00242D01*
Y00184D02*
X00598Y00183D01*
X01165Y0136D02*
X01166Y01359D01*
X01165Y0136D02*
Y01397D01*
X01068Y01373D02*
X01069Y01374D01*
X0107Y01377D02*
Y01386D01*
X0107Y01397*
X01024Y0135D02*
X01025Y0135D01*
X01024Y0135D02*
Y01396D01*
X01007Y01375D02*
Y01397D01*
X00818Y01381D02*
Y01397D01*
X00881Y01379D02*
Y01397D01*
X00645Y01386D02*
X00645Y01397D01*
X0129Y01396D02*
X01291Y01397D01*
X01125Y01325D02*
X01126Y01326D01*
X01103Y01353D02*
Y01396D01*
Y01353D02*
X01106Y0135D01*
X01102Y01397D02*
X01103Y01396D01*
X01086Y01328D02*
Y01397D01*
Y01328D02*
X0109Y01325D01*
X01023Y01397D02*
X01024Y01396D01*
X00985Y01354D02*
X00992Y01362D01*
Y01397*
X00897D02*
X00898Y01396D01*
X0085Y01359D02*
Y01397D01*
X00771D02*
X00772Y01396D01*
X00661Y01397D02*
X00662Y01396D01*
X00629Y01359D02*
Y01397D01*
X01354Y01485D02*
Y01518D01*
X01339Y0145D02*
Y01518D01*
X01338Y01518D02*
X01339Y01518D01*
Y0145D02*
X0134Y0145D01*
X01307Y01487D02*
X01315Y01479D01*
X01307Y01487D02*
Y01518D01*
X01315Y01475D02*
Y01479D01*
X01292Y01452D02*
X01295Y0145D01*
X01291Y01518D02*
X01292Y01517D01*
Y01452D02*
Y01517D01*
X01259Y0149D02*
Y01518D01*
Y0149D02*
X0127Y01479D01*
Y01475D02*
Y01479D01*
X01244Y0149D02*
X0125Y01484D01*
X01244Y0149D02*
Y01518D01*
X0125Y01462D02*
Y01484D01*
X01228Y01518D02*
X01229Y01518D01*
X01208Y01465D02*
X0121Y01466D01*
Y01483*
X01212Y01485*
Y01518*
X01181Y01488D02*
X0119Y01479D01*
X01181Y01488D02*
Y01518D01*
X0119Y01475D02*
Y01479D01*
X01165Y01487D02*
Y01518D01*
Y01487D02*
X0117Y01483D01*
X01149Y01518D02*
X01149Y01518D01*
Y01475D02*
Y01518D01*
Y01475D02*
X0115Y01475D01*
X0113Y01483D02*
X01133Y01487D01*
Y01518*
X01102Y01487D02*
X0111Y01479D01*
X01102Y01487D02*
Y01518D01*
X0111Y01475D02*
Y01479D01*
X01086Y01486D02*
X0109Y01483D01*
X01086Y01486D02*
Y01518D01*
X01055Y01488D02*
Y01518D01*
X0105Y01483D02*
X01055Y01488D01*
X01022Y01517D02*
X01023Y01518D01*
X01022Y01477D02*
Y01517D01*
X0102Y01475D02*
X01022Y01477D01*
X01Y01483D02*
X01007Y01491D01*
X01005Y0145D02*
Y01454D01*
X01007Y01491D02*
Y01518D01*
X01Y01459D02*
Y01483D01*
Y01459D02*
X01005Y01454D01*
X00875Y01479D02*
X00881Y01486D01*
X00875Y01475D02*
Y01479D01*
X00881Y01486D02*
Y01518D01*
X0085Y0146D02*
Y01518D01*
X00834Y01489D02*
Y01518D01*
X00825Y01479D02*
X00834Y01489D01*
X00825Y01475D02*
Y01479D01*
X00802Y01517D02*
X00803Y01518D01*
X0078Y01479D02*
X00787Y01487D01*
X0078Y01475D02*
Y01479D01*
X00787Y01487D02*
Y01518D01*
X00609Y01475D02*
Y01479D01*
X00614Y01484*
X00629Y01459D02*
Y01518D01*
X00614Y01484D02*
Y01518D01*
X00598Y01493D02*
Y01518D01*
X0058Y01475D02*
X00598Y01493D01*
G54D55*
X00465Y01235D03*
G54D56*
X0113Y0054D02*
D01*
X0113Y00539*
X0113Y00539*
X0113Y00539*
X0113Y00539*
X0113Y00539*
X0113Y00539*
X0113Y00539*
X01131Y00539*
X01131Y00539*
X01131Y00539*
X01131Y00539*
X01131*
X01136Y00582D02*
D01*
X01135Y00582*
X01135Y00582*
X01134Y00582*
X01133Y00582*
X01133Y00582*
X01132Y00581*
X01132Y00581*
X01131Y00581*
X01131Y0058*
X0113Y0058*
X0113Y0058*
X0113Y0058*
X0132Y00505D02*
D01*
X0132Y00505*
X0132Y00505*
X0132Y00505*
X0132Y00506*
X0132Y00506*
X01321Y00506*
X01321Y00506*
X01321Y00507*
X01321Y00507*
X01321Y00507*
X01321Y00508*
X01321Y00508*
X01308Y00991D02*
X0131Y0099D01*
X01218Y00992D02*
X01219Y00991D01*
X01308*
X0045Y00535D02*
Y00597D01*
X00325Y01294D02*
Y01339D01*
X00324Y01293D02*
X00325Y01294D01*
X00325Y0134D02*
X00325Y01339D01*
X01605Y00575D02*
X01625Y00595D01*
X01605Y00543D02*
Y00575D01*
X01625Y00595D02*
Y00678D01*
X01616Y00687D02*
X01625Y00678D01*
X01131Y00539D02*
X01218D01*
X01136Y00582D02*
X01218D01*
X01455Y00525D02*
X01535D01*
X004Y01002D02*
X00402Y01D01*
X00435*
X00442Y00992*
X00553*
X00551Y00946D02*
X00553Y00948D01*
X00401Y00946D02*
X00551D01*
X004Y00945D02*
X00401Y00946D01*
X01937Y00862D02*
X02032D01*
X01935Y0086D02*
X01937Y00862D01*
X02032D02*
X02035Y00865D01*
X02036Y00808D02*
X02088D01*
X0209Y0081*
X02035Y00807D02*
X02036Y00808D01*
X02032Y00805D02*
X02035Y00807D01*
X02005Y00805D02*
X02032D01*
X01993Y00816D02*
X02005Y00805D01*
X01935Y00816D02*
X01993D01*
X0175Y00529D02*
Y00635D01*
Y00525D02*
Y00529D01*
X01321Y00508D02*
Y00575D01*
X01471Y00903D02*
X01561D01*
X0144Y00935D02*
X01471Y00903D01*
X01468Y00946D02*
X01561D01*
X0144Y00975D02*
X01468Y00946D01*
X01561Y0073D02*
Y00773D01*
X01737Y00542D02*
X0175Y00529D01*
X01675Y00542D02*
X01737D01*
X01675D02*
Y0069D01*
X01634Y0073D02*
X01675Y0069D01*
X01561Y0073D02*
X01634D01*
X01547Y00543D02*
X01605D01*
X01535Y00531D02*
X01547Y00543D01*
X01535Y00525D02*
Y00531D01*
X01561Y00687D02*
X01616D01*
X01465Y00815D02*
X0156D01*
X01465Y00815D02*
X01465Y00815D01*
X0156D02*
X01561Y00816D01*
X01322Y00634D02*
X01325D01*
X01321Y00632D02*
X01322Y00634D01*
X01321Y00575D02*
Y00632D01*
X01325Y00634D02*
X01335Y00645D01*
X013D02*
X01335D01*
X01275Y00669D02*
X013Y00645D01*
X01218Y00669D02*
X01275D01*
X00442Y00875D02*
X00475D01*
X00497Y00897*
X00545*
X00553Y00905*
G54D57*
X02468Y01043D02*
D01*
X02468Y01043*
Y01043*
X02468Y01043*
Y01043*
X02468Y01043*
X02429Y01364D02*
D01*
X02428Y01363*
X02428Y01363*
X02428Y01363*
X02428Y01362*
X02427Y01362*
X02427Y01361*
X02427Y01361*
X02427Y0136*
X02427Y0136*
X02427Y01359*
X02427Y01359*
X02427Y01359*
X0239Y0073D02*
X02413Y00706D01*
Y00662D02*
Y00706D01*
X02427Y00662D02*
Y00725D01*
X02468Y01043D02*
X02469Y01069D01*
X02468Y00236D02*
Y00318D01*
X02468Y00236D02*
X02468Y00236D01*
X02468Y00984D02*
X02468Y00984D01*
Y01043*
X02385Y01475D02*
X02413Y01446D01*
Y0141D02*
Y01446D01*
X02454Y01269D02*
Y01338D01*
Y01269D02*
X02465Y01259D01*
X02454Y00526D02*
Y0059D01*
Y00526D02*
X0247Y00511D01*
X02427Y0059D02*
Y00612D01*
X0244Y00625*
Y0063*
X0244Y0063*
Y00662D02*
X0244Y00662D01*
X0244Y0063D02*
Y00662D01*
X02427Y01338D02*
Y01359D01*
X02429Y01364D02*
X0244Y01375D01*
Y0141*
X0244Y0141*
X02465Y01255D02*
Y01259D01*
X0244Y0127D02*
Y01338D01*
X02425Y01255D02*
X0244Y0127D01*
X0238Y01255D02*
X02413Y01288D01*
Y01338*
X0247Y0051D02*
Y00511D01*
X02435Y00514D02*
X0244Y0052D01*
X02435Y0051D02*
Y00514D01*
X0244Y0052D02*
Y0059D01*
X02395Y0051D02*
X02413Y00528D01*
Y0059*
G54D58*
X02027Y01437D03*
X00137Y01437D03*
X02027Y00137D03*
X00137D03*
G54D59*
X02589Y01438D03*
X02639Y01338D03*
X02589Y01238D03*
X02639Y01138D03*
X02589Y01038D03*
X02639Y00938D03*
X02589Y00838D03*
X02639Y00738D03*
X02589Y00638D03*
X02639Y00538D03*
X02589Y00438D03*
X02639Y00338D03*
X02589Y00238D03*
X02639Y00138D03*
X02539Y01338D03*
Y01138D03*
X02489Y00838D03*
Y00438D03*
X02539Y00338D03*
Y00138D03*
X02389Y00838D03*
Y00438D03*
X02289D03*
X02339Y00338D03*
X02289Y00238D03*
X02339Y00138D03*
X02189Y00638D03*
X02239Y00538D03*
X02189Y00438D03*
X02239Y00338D03*
X02189Y00238D03*
X02239Y00138D03*
X02139Y00738D03*
Y00338D03*
X02089Y00238D03*
X02139Y00138D03*
X02039Y00938D03*
Y00538D03*
Y00338D03*
X01989Y00238D03*
X01939Y00538D03*
Y00338D03*
X01889Y00238D03*
X01939Y00138D03*
X01839Y00938D03*
X01789Y00838D03*
X01839Y00738D03*
Y00538D03*
Y00338D03*
X01789Y00238D03*
X01739Y00938D03*
X01689Y00838D03*
X01739Y00738D03*
Y00338D03*
X01689Y00238D03*
X01639Y00338D03*
X01589Y00238D03*
X01539Y01338D03*
Y00338D03*
X01489Y00238D03*
X01439Y00338D03*
Y00138D03*
X01289Y01038D03*
X01339Y00338D03*
X01239D03*
X01089Y01038D03*
X01139Y00738D03*
X01089Y00638D03*
X01139Y00338D03*
X01039Y01138D03*
X00989Y01038D03*
X01039Y00738D03*
X00989Y00638D03*
X01039Y00538D03*
Y00338D03*
X00939Y01138D03*
X00889Y01038D03*
X00939Y00738D03*
X00889Y00638D03*
X00939Y00538D03*
Y00338D03*
X00839Y01138D03*
X00789Y01038D03*
X00839Y00738D03*
X00789Y00638D03*
X00839Y00538D03*
Y00338D03*
X00739Y01138D03*
Y00338D03*
X00639Y00938D03*
Y00738D03*
Y00538D03*
Y00338D03*
X00489Y00638D03*
X00539Y00338D03*
X00489Y00238D03*
X00539Y00138D03*
X00389Y01438D03*
X00439Y01138D03*
Y00738D03*
Y00338D03*
X00389Y00238D03*
X00439Y00138D03*
X00289Y01438D03*
X00339Y00938D03*
Y00538D03*
Y00338D03*
X00289Y00238D03*
X00339Y00138D03*
X00239Y01338D03*
X00189Y01238D03*
Y01038D03*
Y00838D03*
X00239Y00738D03*
Y00538D03*
Y00338D03*
X00189Y00238D03*
X00239Y00138D03*
X00139Y01338D03*
X00089Y00638D03*
Y00238D03*
X00495Y01079D03*
X00698Y00955D03*
Y00906D03*
Y00857D03*
Y00759D03*
Y0071D03*
Y00661D03*
Y00612D03*
Y00563D03*
Y00514D03*
X00668Y00426D03*
X00619D03*
X00472D03*
X00423D03*
X00374D03*
X00325D03*
X00276D03*
X00227D03*
X0018Y00442D03*
X00116Y00393D03*
X00198Y00367D03*
X00246Y00373D03*
X00295D03*
X00344D03*
X00393D03*
X00442D03*
X00491D03*
X0054D03*
X00589D03*
X00638D03*
X00687D03*
X00736D03*
X00785D03*
X00834D03*
X00883D03*
X00932D03*
X00981D03*
X0103D03*
X01079D03*
X01128D03*
X01177D03*
X01226D03*
X01275D03*
X01324D03*
X01373D03*
X01422D03*
X01471D03*
X0152D03*
X01569D03*
X01618D03*
X01667D03*
X01716D03*
X01765D03*
X01814D03*
X01863D03*
X01912D03*
X01961D03*
X0201D03*
X02059Y00377D03*
X02104Y00398D03*
X02137Y00434D03*
X02154Y0048D03*
X02156Y00529D03*
Y00578D03*
X02152Y00626D03*
X0213Y0067D03*
X02092Y00702D03*
X02045Y00713D03*
X01877Y00681D03*
X02059Y00658D03*
X02095Y00625D03*
X02103Y00577D03*
Y00528D03*
X02099Y00479D03*
X0207Y00439D03*
X02023Y00426D03*
X01974D03*
X01925D03*
X01876D03*
X01827D03*
X01631D03*
X01582D03*
X01484D03*
X01435D03*
X01386D03*
X01337D03*
X01288D03*
X01141D03*
X01092D03*
X01043D03*
X00994D03*
X00945D03*
X00896D03*
X00847D03*
X00798D03*
X00749Y00427D03*
X00751Y00476D03*
Y00525D03*
Y00574D03*
Y00623D03*
Y00672D03*
Y00721D03*
Y0077D03*
Y00868D03*
Y00917D03*
X00729Y0106D03*
X00692Y01093D03*
X00718Y01311D03*
X00665Y0135D03*
X00645Y01325D03*
X0115Y0143D03*
X0117Y01451D03*
X01129Y0145D03*
X01049D03*
X0107Y0143D03*
X0109Y0145D03*
X0098Y0143D03*
X00898Y01351D03*
X00945Y0135D03*
X00985D03*
X00855D03*
X00815D03*
X01186D03*
X01381Y01326D03*
X0129Y0135D03*
X0155Y0124D03*
X0239Y0073D03*
X02425D03*
X02501Y01256D03*
X02495Y0073D03*
X01237Y01331D03*
X01201Y01293D03*
X01166Y01292D03*
X0123Y01475D03*
X0124Y01448D03*
X01333Y00095D03*
X01293Y00102D03*
X008Y0145D03*
X00845D03*
X00895D03*
X00593Y01318D03*
X0057Y0135D03*
X01258Y01304D03*
X01352Y01338D03*
X01329Y01301D03*
X01287D03*
X0131Y01325D03*
X0107Y01475D03*
X0132Y00154D03*
X01305Y0013D03*
X0128Y00153D03*
X01185Y00152D03*
X01091D03*
X00949Y00151D03*
X009Y0015D03*
X00855D03*
X0088Y0013D03*
X00807Y0015D03*
X00761Y00149D03*
X00717Y00148D03*
X00672Y00148D03*
X00606Y0014D03*
X00719Y01455D03*
X00746D03*
X00775Y0135D03*
X0076Y01325D03*
X00754Y01295D03*
X00684Y01311D03*
Y01284D03*
X00718D03*
X00795Y01325D03*
X0013Y01263D03*
X001D03*
X0007D03*
Y01053D03*
X001D03*
X0013D03*
Y01005D03*
X001D03*
X0007D03*
Y00795D03*
X001D03*
X0013D03*
Y00755D03*
X001D03*
X0007D03*
Y00545D03*
X001D03*
X0013D03*
X0007Y00295D03*
X001D03*
X0013D03*
X0007Y00505D03*
X001D03*
X0013D03*
X0209Y0091D03*
X02Y0064D03*
Y0073D03*
X01675Y00455D03*
X01605D03*
X0129Y00715D03*
X01495Y0099D03*
X0128Y0108D03*
X00375Y0134D03*
X0031Y0077D03*
X0045Y0069D03*
X00375Y0106D03*
X00485Y01035D03*
X0049Y01125D03*
X0045Y00535D03*
X00325Y0134D03*
X01155Y0111D03*
X0217Y0119D03*
X02135D03*
X02245D03*
X02215D03*
X01005Y01325D03*
X0092D03*
X00965D03*
X01135Y00965D03*
X00465Y01235D03*
Y01425D03*
X0094Y01445D03*
X00665Y01449D03*
X0065Y01474D03*
X0051Y01235D03*
X0088Y01325D03*
X00924Y01475D03*
X0097D03*
X0121Y0145D03*
X0036Y0077D03*
X00635Y00455D03*
X0164Y0086D03*
X0156Y0116D03*
X02468Y00318D03*
X02469Y01069D03*
X02385Y01475D03*
X0242D03*
X0249D03*
X0246Y0073D03*
X02515Y0051D03*
X0136Y00815D03*
X00345Y00875D03*
X0026Y0116D03*
X0134Y0013D03*
X01355Y0024D03*
X01378Y00223D03*
X0116Y00225D03*
X01036Y0023D03*
X01046Y01325D03*
X01165D03*
X0113Y0054D03*
Y0058D03*
X0144Y00935D03*
Y00975D03*
X01239Y00105D03*
X01195D03*
X012Y0023D03*
X0121Y00256D03*
X01044Y00258D03*
X0112Y00225D03*
X0113Y00256D03*
X01087Y00225D03*
X01095Y00255D03*
X00956Y0023D03*
X00996D03*
X0101Y00255D03*
X00835Y0013D03*
X00865Y00105D03*
X0082D03*
X00595Y00245D03*
X0137Y00105D03*
X01255Y0013D03*
X01215D03*
X01165D03*
X0115Y00105D03*
X0112Y0013D03*
X01105Y00105D03*
X0107Y0013D03*
X01055Y00105D03*
X0102Y0013D03*
X01005Y00105D03*
X0098Y0013D03*
X0096Y00105D03*
X0093Y0013D03*
X00915Y00105D03*
X00785Y0013D03*
X0077Y00105D03*
X00725D03*
X0074Y0013D03*
X00695D03*
X0068Y00105D03*
X00645Y00135D03*
X0063Y0011D03*
X00575D03*
X01305Y00255D03*
X0129Y0023D03*
X01255Y00255D03*
X0124Y0023D03*
X01165Y00255D03*
X00975D03*
X0093D03*
X0091Y0023D03*
X0088Y00255D03*
X00865Y0023D03*
X00835Y00255D03*
X0082Y0023D03*
X00785Y00255D03*
X0077Y0023D03*
X0074Y00255D03*
X00725Y0023D03*
X0069Y00255D03*
X00675Y0023D03*
X00645Y00255D03*
X0063Y0023D03*
X0244Y0063D03*
Y01375D03*
X0247Y0051D03*
X02435D03*
X02395D03*
X02465Y01255D03*
X02425D03*
X0238D03*
X01025Y0135D03*
X01146D03*
X01066D03*
X01106D03*
X01315Y01475D03*
X0127D03*
X0119D03*
X0111D03*
X00609D03*
X0069Y01475D03*
X0058Y01475D03*
X00625Y0145D03*
X0136Y01475D03*
X0134Y0145D03*
X01295D03*
X0115Y01475D03*
X0102D03*
X01005Y0145D03*
X00825Y01475D03*
X00875D03*
X0078D03*
X01125Y01325D03*
X0109D03*
X00835D03*
X00625Y0135D03*
G54D60*
X0131Y0099D03*
X01455Y00525D03*
X0175Y00635D03*
X0132Y00505D03*
M02*