%FSTAX23Y23*%
%MOIN*%
%SFA1B1*%

%IPPOS*%
%ADD9500C,0.012000*%
%ADD9501C,0.024000*%
%ADD9502C,0.106300*%
%LNtime4cm4_modular-1*%
%LPD*%
G54D9500*
X00089Y00238D03*
X001Y00295D03*
X0007D03*
X0013D03*
X00116Y00393D03*
X00198Y00367D03*
X00246Y00373D03*
X00239Y00338D03*
X00295Y00373D03*
X00344D03*
X00339Y00338D03*
X00393Y00373D03*
X00442D03*
X00439Y00338D03*
X00491Y00373D03*
X0054D03*
X00539Y00338D03*
X00589Y00373D03*
X00638D03*
X00619Y00426D03*
X00635Y00455D03*
X00472Y00426D03*
X00423D03*
X00374D03*
X00325D03*
X00276D03*
X00227D03*
X0018Y00442D03*
X0013Y00505D03*
X001D03*
X0007D03*
Y00545D03*
X001D03*
X0013D03*
X00239Y00538D03*
X00339D03*
X0045Y00535D03*
X00489Y00638D03*
X0045Y0069D03*
X00439Y00738D03*
X0036Y0077D03*
X0031D03*
X00239Y00738D03*
X0013Y00755D03*
X001D03*
X0007D03*
Y00795D03*
X001D03*
X0013D03*
X00189Y00838D03*
X00345Y00875D03*
X00339Y00938D03*
X00375Y0106D03*
X00485Y01035D03*
X00495Y01079D03*
X0049Y01125D03*
X00439Y01138D03*
X00465Y01235D03*
X0051D03*
X00593Y01318D03*
X0057Y0135D03*
X00625D03*
Y0145D03*
X00609Y01475D03*
X0058D03*
X00465Y01425D03*
X00389Y01438D03*
X00289D03*
X00325Y0134D03*
X00375D03*
X00239Y01338D03*
X00139D03*
X0013Y01263D03*
X001D03*
X0007D03*
X00189Y01238D03*
X0026Y0116D03*
X00189Y01038D03*
X0013Y01053D03*
X001D03*
X0007D03*
Y01005D03*
X001D03*
X0013D03*
X00089Y00638D03*
X00189Y00238D03*
X00289D03*
X00389D03*
X00489D03*
X00595Y00245D03*
X0063Y0023D03*
X00606Y0014D03*
X0063Y0011D03*
X00575D03*
X00539Y00138D03*
X00439D03*
X00339D03*
X00239D03*
X00645Y00135D03*
X00672Y00148D03*
X00695Y0013D03*
X0068Y00105D03*
X00725D03*
X0074Y0013D03*
X00717Y00148D03*
X00761Y00149D03*
X00785Y0013D03*
X0077Y00105D03*
X0082D03*
X00835Y0013D03*
X00855Y0015D03*
X009D03*
X0088Y0013D03*
X00865Y00105D03*
X00915D03*
X0093Y0013D03*
X00949Y00151D03*
X0098Y0013D03*
X0102D03*
X01005Y00105D03*
X0096D03*
X01055D03*
X0107Y0013D03*
X01091Y00152D03*
X0112Y0013D03*
X01105Y00105D03*
X0115D03*
X01165Y0013D03*
X01185Y00152D03*
X01215Y0013D03*
X01255D03*
X01239Y00105D03*
X01195D03*
X01293Y00102D03*
X01305Y0013D03*
X0134D03*
X01333Y00095D03*
X0137Y00105D03*
X0132Y00154D03*
X0128Y00153D03*
X0129Y0023D03*
X01305Y00255D03*
X01255D03*
X0124Y0023D03*
X012D03*
X0121Y00256D03*
X01165Y00255D03*
X0116Y00225D03*
X0112D03*
X01087D03*
X01095Y00255D03*
X0113Y00256D03*
X01044Y00258D03*
X01036Y0023D03*
X00996D03*
X0101Y00255D03*
X00975Y00255D03*
X00956Y0023D03*
X0091D03*
X0093Y00255D03*
X0088D03*
X00865Y0023D03*
X0082D03*
X00835Y00255D03*
X00785D03*
X0077Y0023D03*
X00725D03*
X0074Y00255D03*
X0069D03*
X00675Y0023D03*
X00645Y00255D03*
X00639Y00338D03*
X00687Y00373D03*
X00736D03*
X00739Y00338D03*
X00785Y00373D03*
X00834D03*
X00839Y00338D03*
X00883Y00373D03*
X00932D03*
X00939Y00338D03*
X00981Y00373D03*
X0103D03*
X01039Y00338D03*
X01079Y00373D03*
X01128D03*
X01139Y00338D03*
X01177Y00373D03*
X01226D03*
X01239Y00338D03*
X01275Y00373D03*
X01324D03*
X01373D03*
X01422D03*
X01471D03*
X0152D03*
X01569D03*
X01618D03*
X01667D03*
X01716D03*
X01765D03*
X01814D03*
X01863D03*
X01912D03*
X01961D03*
X0201D03*
X02059Y00377D03*
X02039Y00338D03*
X02139D03*
X02104Y00398D03*
X02137Y00434D03*
X02189Y00438D03*
X02154Y0048D03*
X02156Y00529D03*
Y00578D03*
X02152Y00626D03*
X02189Y00638D03*
X0213Y0067D03*
X02092Y00702D03*
X02045Y00713D03*
X02Y0073D03*
Y0064D03*
X02059Y00658D03*
X02095Y00625D03*
X02103Y00577D03*
Y00528D03*
X02099Y00479D03*
X0207Y00439D03*
X02023Y00426D03*
X01974D03*
X01925D03*
X01876D03*
X01827D03*
X01839Y00338D03*
X01939D03*
X01989Y00238D03*
X02089D03*
X02189D03*
X02139Y00138D03*
X01939D03*
X01889Y00238D03*
X01789D03*
X01689D03*
X01589D03*
X01489D03*
X01378Y00223D03*
X01355Y0024D03*
X01339Y00338D03*
X01337Y00426D03*
X01386D03*
X01435D03*
X01484D03*
X01582D03*
X01631D03*
X01605Y00455D03*
X01675D03*
X01639Y00338D03*
X01739D03*
X01539D03*
X01439D03*
Y00138D03*
X01288Y00426D03*
X01141D03*
X01092D03*
X01043D03*
X00994D03*
X00945D03*
X00896D03*
X00847D03*
X00798D03*
X00749Y00427D03*
X00751Y00476D03*
Y00525D03*
Y00574D03*
Y00623D03*
Y00672D03*
Y00721D03*
Y0077D03*
X00698Y00759D03*
Y0071D03*
Y00661D03*
Y00612D03*
Y00563D03*
Y00514D03*
X00639Y00538D03*
X00668Y00426D03*
X00839Y00538D03*
X00939D03*
X01039D03*
X0113Y0054D03*
Y0058D03*
X01089Y00638D03*
X00989D03*
X00889D03*
X00789D03*
X00839Y00738D03*
X00939D03*
X01039D03*
X01139D03*
X0129Y00715D03*
X0136Y00815D03*
X0144Y00935D03*
Y00975D03*
X01495Y0099D03*
X0156Y0116D03*
X0155Y0124D03*
X01539Y01338D03*
X01381Y01326D03*
X01352Y01338D03*
X0131Y01325D03*
X01329Y01301D03*
X01287D03*
X01258Y01304D03*
X01237Y01331D03*
X01186Y0135D03*
X01146D03*
X01106D03*
X01066D03*
X01025D03*
X00985D03*
X00945D03*
X00965Y01325D03*
X01005D03*
X01046D03*
X0109D03*
X01125D03*
X01165D03*
X01166Y01292D03*
X01201Y01293D03*
X0129Y0135D03*
X01295Y0145D03*
X01315Y01475D03*
X0127D03*
X0123Y01475D03*
X0124Y01448D03*
X0121Y0145D03*
X0117Y01451D03*
X0115Y0143D03*
X01129Y0145D03*
X0109D03*
X0107Y0143D03*
X01049Y0145D03*
X01005Y0145D03*
X0102Y01475D03*
X0107D03*
X0111D03*
X0115D03*
X0119D03*
X0136D03*
X0134Y0145D03*
X0098Y0143D03*
X0094Y01445D03*
X00924Y01475D03*
X0097D03*
X00875D03*
X00895Y0145D03*
X00845D03*
X00825Y01475D03*
X0078D03*
X008Y0145D03*
X00746Y01455D03*
X00719D03*
X0069Y01475D03*
X0065Y01474D03*
X00665Y01449D03*
X00665Y0135D03*
X00645Y01325D03*
X00684Y01311D03*
Y01284D03*
X00718D03*
Y01311D03*
X00754Y01295D03*
X0076Y01325D03*
X00795D03*
X00835D03*
X00855Y0135D03*
X00815D03*
X00775D03*
X00898Y01351D03*
X0088Y01325D03*
X0092D03*
X00939Y01138D03*
X01039D03*
X01155Y0111D03*
X01089Y01038D03*
X00989D03*
X00889D03*
X00789D03*
X00729Y0106D03*
X00692Y01093D03*
X00739Y01138D03*
X00839D03*
X00751Y00917D03*
Y00868D03*
X00698Y00857D03*
Y00906D03*
Y00955D03*
X00639Y00938D03*
Y00738D03*
X01135Y00965D03*
X01289Y01038D03*
X0128Y0108D03*
X0164Y0086D03*
X01689Y00838D03*
X01789D03*
X01839Y00938D03*
X01739D03*
Y00738D03*
X01839D03*
X01877Y00681D03*
X01839Y00538D03*
X01939D03*
X02039D03*
X02139Y00738D03*
X0209Y0091D03*
X02039Y00938D03*
X02135Y0119D03*
X0217D03*
X00807Y0015D03*
X02239Y00138D03*
X02339D03*
X02289Y00238D03*
X02339Y00338D03*
X02239D03*
X02289Y00438D03*
X02389D03*
X02395Y0051D03*
X02435D03*
X0247D03*
X02515D03*
X02489Y00438D03*
X02589D03*
X02639Y00538D03*
X02589Y00638D03*
X02639Y00738D03*
X02589Y00838D03*
X02489D03*
X02389D03*
X0239Y0073D03*
X02425D03*
X0246D03*
X02495D03*
X0244Y0063D03*
X02239Y00538D03*
X02468Y00318D03*
X02539Y00338D03*
X02639D03*
X02589Y00238D03*
X02639Y00138D03*
X02539D03*
X02639Y00938D03*
X02589Y01038D03*
X02639Y01138D03*
X02539D03*
X02469Y01069D03*
X02465Y01255D03*
X02501Y01256D03*
X02425Y01255D03*
X0238D03*
X0244Y01375D03*
X0242Y01475D03*
X02385D03*
X0249D03*
X02589Y01438D03*
X02639Y01338D03*
X02539D03*
X02589Y01238D03*
X02245Y0119D03*
X02215D03*
G54D9501*
X0132Y00505D03*
X01455Y00525D03*
X0175Y00635D03*
X0131Y0099D03*
G54D9502*
X00137Y00137D03*
Y01437D03*
X02027Y01437D03*
Y00137D03*
M02*