G04*
G04 #@! TF.GenerationSoftware,Altium Limited,Altium Designer,22.5.1 (42)*
G04*
G04 Layer_Color=65535*
%FSLAX44Y44*%
%MOMM*%
G71*
G04*
G04 #@! TF.SameCoordinates,16E258D9-83B2-4854-9FD3-66D1B54B03FA*
G04*
G04*
G04 #@! TF.FilePolarity,Positive*
G04*
G01*
G75*
%ADD10C,0.2500*%
%ADD11C,0.7620*%
%ADD12C,0.2000*%
%ADD13C,0.5080*%
%ADD14C,0.1778*%
%ADD15C,0.1000*%
%ADD16C,0.1499*%
%ADD17C,0.1500*%
D10*
X142190Y152580D02*
G03*
X142190Y152580I-1250J0D01*
G01*
X193530Y180870D02*
G03*
X193530Y180870I-1250J0D01*
G01*
X132060Y177908D02*
G03*
X132060Y177908I-1250J0D01*
G01*
X526270Y152930D02*
G03*
X526270Y152930I-1250J0D01*
G01*
D11*
X220192Y207820D02*
G03*
X220192Y207820I-762J0D01*
G01*
D12*
X142130Y58470D02*
G03*
X142130Y58470I-1000J0D01*
G01*
X615804Y204005D02*
Y217127D01*
X629304Y204005D02*
Y217127D01*
X486010Y27729D02*
Y40851D01*
X499510Y27729D02*
Y40851D01*
X143940Y166830D02*
X165940D01*
X143940Y160830D02*
X165940D01*
Y166830D01*
X143940Y160830D02*
Y166830D01*
X534459Y92310D02*
X547581D01*
X534459Y105810D02*
X547581D01*
X534459Y123590D02*
X547581D01*
X534459Y110090D02*
X547581D01*
X332090Y254850D02*
Y265850D01*
X346090Y254850D02*
Y265850D01*
X202188Y150372D02*
X216912D01*
X202188Y136648D02*
X216912D01*
X200280Y155870D02*
X216280D01*
X200280Y176870D02*
X216280D01*
Y155870D02*
Y176870D01*
X200280Y155870D02*
Y176870D01*
X545563Y168152D02*
X560288D01*
X545563Y154428D02*
X560288D01*
X102220Y183730D02*
Y194730D01*
X116120Y183630D02*
Y194630D01*
X137672Y184408D02*
Y199132D01*
X123948Y184408D02*
Y199132D01*
X194568Y203712D02*
X209292D01*
X194568Y189988D02*
X209292D01*
X121686Y170914D02*
X132314D01*
X121686Y159286D02*
X132314D01*
X142498Y142752D02*
X157222D01*
X142498Y129028D02*
X157222D01*
X150919Y42780D02*
X164041D01*
X150919Y56280D02*
X164041D01*
X168699Y123590D02*
X181821D01*
X168699Y110090D02*
X181821D01*
X150710Y109840D02*
X161710D01*
X150710Y123840D02*
X161710D01*
X533020Y127930D02*
X549020D01*
X533020Y148930D02*
X549020D01*
Y127930D02*
Y148930D01*
X533020Y127930D02*
Y148930D01*
X524110Y26459D02*
Y39581D01*
X537610Y26459D02*
Y39581D01*
D13*
X656212Y82800D02*
G03*
X656212Y82800I-762J0D01*
G01*
D14*
X19900Y236000D02*
X95900D01*
X19900Y160000D02*
X95900D01*
Y236000D01*
X19900Y160000D02*
Y236000D01*
D15*
X642922Y221740D02*
X648922D01*
X506270Y22100D02*
X512270D01*
X148130Y68470D02*
X154130D01*
X158130Y86470D02*
X168130D01*
Y70470D02*
Y86470D01*
X134130D02*
X144130D01*
X134130Y70470D02*
Y86470D01*
X544370Y54100D02*
X550370D01*
D16*
X641669Y226573D02*
X649667D01*
Y230571D01*
X648334Y231904D01*
X643002D01*
X641669Y230571D01*
Y226573D01*
X643002Y239902D02*
X641669Y238569D01*
Y235903D01*
X643002Y234570D01*
X644335D01*
X645668Y235903D01*
Y238569D01*
X647001Y239902D01*
X648334D01*
X649667Y238569D01*
Y235903D01*
X648334Y234570D01*
X643002Y242568D02*
X641669Y243901D01*
Y246566D01*
X643002Y247899D01*
X644335D01*
X645668Y246566D01*
Y245233D01*
Y246566D01*
X647001Y247899D01*
X648334D01*
X649667Y246566D01*
Y243901D01*
X648334Y242568D01*
X625791Y222921D02*
X617793D01*
Y226920D01*
X619126Y228253D01*
X621792D01*
X623125Y226920D01*
Y222921D01*
Y225587D02*
X625791Y228253D01*
Y230919D02*
Y233584D01*
Y232252D01*
X617793D01*
X619126Y230919D01*
Y237583D02*
X617793Y238916D01*
Y241582D01*
X619126Y242915D01*
X624458D01*
X625791Y241582D01*
Y238916D01*
X624458Y237583D01*
X619126D01*
D17*
X214315Y189419D02*
Y182754D01*
X215648Y181421D01*
X218314D01*
X219647Y182754D01*
Y189419D01*
X222313Y188086D02*
X223646Y189419D01*
X226312D01*
X227645Y188086D01*
Y186753D01*
X226312Y185420D01*
X224979D01*
X226312D01*
X227645Y184087D01*
Y182754D01*
X226312Y181421D01*
X223646D01*
X222313Y182754D01*
X515305Y95061D02*
Y103059D01*
X519304D01*
X520637Y101726D01*
Y99060D01*
X519304Y97727D01*
X515305D01*
X517971D02*
X520637Y95061D01*
X528634Y103059D02*
X523303D01*
Y99060D01*
X525969Y100393D01*
X527302D01*
X528634Y99060D01*
Y96394D01*
X527302Y95061D01*
X524636D01*
X523303Y96394D01*
X515305Y112841D02*
Y120839D01*
X519304D01*
X520637Y119506D01*
Y116840D01*
X519304Y115507D01*
X515305D01*
X517971D02*
X520637Y112841D01*
X528634D02*
X523303D01*
X528634Y118173D01*
Y119506D01*
X527302Y120839D01*
X524636D01*
X523303Y119506D01*
X433007Y169036D02*
X431674Y170369D01*
X429008D01*
X427676Y169036D01*
Y163704D01*
X429008Y162371D01*
X431674D01*
X433007Y163704D01*
X439672Y162371D02*
Y170369D01*
X435673Y166370D01*
X441004D01*
X433070Y119506D02*
X431737Y120839D01*
X429071D01*
X427738Y119506D01*
Y114174D01*
X429071Y112841D01*
X431737D01*
X433070Y114174D01*
X435736Y112841D02*
X438402D01*
X437069D01*
Y120839D01*
X435736Y119506D01*
X145736Y191197D02*
Y184532D01*
X147068Y183199D01*
X149734D01*
X151067Y184532D01*
Y191197D01*
X157732Y183199D02*
Y191197D01*
X153733Y187198D01*
X159065D01*
X520108Y169946D02*
Y163281D01*
X521441Y161949D01*
X524107D01*
X525440Y163281D01*
Y169946D01*
X533438Y161949D02*
X528106D01*
X533438Y167280D01*
Y168613D01*
X532105Y169946D01*
X529439D01*
X528106Y168613D01*
X220728Y246569D02*
Y239904D01*
X222061Y238571D01*
X224727D01*
X226060Y239904D01*
Y246569D01*
X228726Y238571D02*
X231392D01*
X230059D01*
Y246569D01*
X228726Y245236D01*
X441517Y50297D02*
Y55628D01*
Y52963D01*
X449515D01*
Y58294D02*
X441517D01*
Y62293D01*
X442850Y63626D01*
X445516D01*
X446849Y62293D01*
Y58294D01*
X442850Y66292D02*
X441517Y67625D01*
Y70290D01*
X442850Y71623D01*
X444183D01*
X445516Y70290D01*
X446849Y71623D01*
X448182D01*
X449515Y70290D01*
Y67625D01*
X448182Y66292D01*
X446849D01*
X445516Y67625D01*
X444183Y66292D01*
X442850D01*
X445516Y67625D02*
Y70290D01*
X427039Y51567D02*
Y56898D01*
Y54233D01*
X435037D01*
Y59564D02*
X427039D01*
Y63563D01*
X428372Y64896D01*
X431038D01*
X432371Y63563D01*
Y59564D01*
X427039Y67562D02*
Y72893D01*
X428372D01*
X433704Y67562D01*
X435037D01*
X411799Y52075D02*
Y57406D01*
Y54741D01*
X419797D01*
Y60072D02*
X411799D01*
Y64071D01*
X413132Y65404D01*
X415798D01*
X417131Y64071D01*
Y60072D01*
X411799Y73401D02*
X413132Y70735D01*
X415798Y68070D01*
X418464D01*
X419797Y69402D01*
Y72068D01*
X418464Y73401D01*
X417131D01*
X415798Y72068D01*
Y68070D01*
X353887Y271785D02*
Y277116D01*
Y274451D01*
X361885D01*
Y279782D02*
X353887D01*
Y283781D01*
X355220Y285114D01*
X357886D01*
X359219Y283781D01*
Y279782D01*
X353887Y293111D02*
Y287780D01*
X357886D01*
X356553Y290445D01*
Y291778D01*
X357886Y293111D01*
X360552D01*
X361885Y291778D01*
Y289112D01*
X360552Y287780D01*
X368873Y271277D02*
Y276608D01*
Y273943D01*
X376871D01*
Y279274D02*
X368873D01*
Y283273D01*
X370206Y284606D01*
X372872D01*
X374205Y283273D01*
Y279274D01*
X376871Y291270D02*
X368873D01*
X372872Y287272D01*
Y292603D01*
X263463Y270007D02*
Y275338D01*
Y272673D01*
X271461D01*
Y278004D02*
X263463D01*
Y282003D01*
X264796Y283336D01*
X267462D01*
X268795Y282003D01*
Y278004D01*
X264796Y286002D02*
X263463Y287334D01*
Y290000D01*
X264796Y291333D01*
X266129D01*
X267462Y290000D01*
Y288667D01*
Y290000D01*
X268795Y291333D01*
X270128D01*
X271461Y290000D01*
Y287334D01*
X270128Y286002D01*
X277941Y271785D02*
Y277116D01*
Y274451D01*
X285939D01*
Y279782D02*
X277941D01*
Y283781D01*
X279274Y285114D01*
X281940D01*
X283273Y283781D01*
Y279782D01*
X285939Y293111D02*
Y287780D01*
X280607Y293111D01*
X279274D01*
X277941Y291778D01*
Y289112D01*
X279274Y287780D01*
X294705Y271340D02*
Y276671D01*
Y274006D01*
X302703D01*
Y279337D02*
X294705D01*
Y283336D01*
X296038Y284669D01*
X298704D01*
X300037Y283336D01*
Y279337D01*
X302703Y287334D02*
Y290000D01*
Y288667D01*
X294705D01*
X296038Y287334D01*
X124145Y97601D02*
Y105599D01*
X128144D01*
X129477Y104266D01*
Y101600D01*
X128144Y100267D01*
X124145D01*
X126811D02*
X129477Y97601D01*
X132143Y98934D02*
X133476Y97601D01*
X136142D01*
X137474Y98934D01*
Y104266D01*
X136142Y105599D01*
X133476D01*
X132143Y104266D01*
Y102933D01*
X133476Y101600D01*
X137474D01*
X168088Y96839D02*
Y104837D01*
X172086D01*
X173419Y103504D01*
Y100838D01*
X172086Y99505D01*
X168088D01*
X170753D02*
X173419Y96839D01*
X176085Y103504D02*
X177418Y104837D01*
X180084D01*
X181416Y103504D01*
Y102171D01*
X180084Y100838D01*
X181416Y99505D01*
Y98172D01*
X180084Y96839D01*
X177418D01*
X176085Y98172D01*
Y99505D01*
X177418Y100838D01*
X176085Y102171D01*
Y103504D01*
X177418Y100838D02*
X180084D01*
X148275Y97093D02*
Y105091D01*
X152274D01*
X153607Y103758D01*
Y101092D01*
X152274Y99759D01*
X148275D01*
X150941D02*
X153607Y97093D01*
X156273Y105091D02*
X161604D01*
Y103758D01*
X156273Y98426D01*
Y97093D01*
X176215Y45531D02*
Y53529D01*
X180214D01*
X181547Y52196D01*
Y49530D01*
X180214Y48197D01*
X176215D01*
X178881D02*
X181547Y45531D01*
X189545Y53529D02*
X186879Y52196D01*
X184213Y49530D01*
Y46864D01*
X185546Y45531D01*
X188212D01*
X189545Y46864D01*
Y48197D01*
X188212Y49530D01*
X184213D01*
X524680Y48156D02*
Y56154D01*
X528679D01*
X530012Y54821D01*
Y52155D01*
X528679Y50822D01*
X524680D01*
X527346D02*
X530012Y48156D01*
X536677D02*
Y56154D01*
X532678Y52155D01*
X538009D01*
X466283Y30799D02*
Y38797D01*
X470282D01*
X471615Y37464D01*
Y34798D01*
X470282Y33465D01*
X466283D01*
X468949D02*
X471615Y30799D01*
X474281Y37464D02*
X475614Y38797D01*
X478280D01*
X479613Y37464D01*
Y36131D01*
X478280Y34798D01*
X476947D01*
X478280D01*
X479613Y33465D01*
Y32132D01*
X478280Y30799D01*
X475614D01*
X474281Y32132D01*
X344359Y274068D02*
X336361D01*
Y278067D01*
X337694Y279400D01*
X340360D01*
X341693Y278067D01*
Y274068D01*
Y276734D02*
X344359Y279400D01*
Y282066D02*
Y284732D01*
Y283399D01*
X336361D01*
X337694Y282066D01*
X179070Y72264D02*
Y77596D01*
X177737Y78929D01*
X175071D01*
X173738Y77596D01*
Y72264D01*
X175071Y70931D01*
X177737D01*
X176404Y73597D02*
X179070Y70931D01*
X177737D02*
X179070Y72264D01*
X181736Y70931D02*
X184402D01*
X183069D01*
Y78929D01*
X181736Y77596D01*
X125478Y214819D02*
Y206821D01*
X130810D01*
X133476D02*
X136142D01*
X134809D01*
Y214819D01*
X133476Y213486D01*
X85027Y249109D02*
X82361D01*
X83694D01*
Y242444D01*
X82361Y241111D01*
X81028D01*
X79696Y242444D01*
X93025Y241111D02*
X87693D01*
X93025Y246443D01*
Y247776D01*
X91692Y249109D01*
X89026D01*
X87693Y247776D01*
X579542Y167914D02*
X576876D01*
X578209D01*
Y161249D01*
X576876Y159916D01*
X575543D01*
X574211Y161249D01*
X582208Y159916D02*
X584874D01*
X583541D01*
Y167914D01*
X582208Y166581D01*
X541445Y70124D02*
Y62126D01*
X545443D01*
X546776Y63459D01*
Y68791D01*
X545443Y70124D01*
X541445D01*
X554773Y68791D02*
X553441Y70124D01*
X550775D01*
X549442Y68791D01*
Y67458D01*
X550775Y66125D01*
X553441D01*
X554773Y64792D01*
Y63459D01*
X553441Y62126D01*
X550775D01*
X549442Y63459D01*
X562771Y62126D02*
X557439D01*
X562771Y67458D01*
Y68791D01*
X561438Y70124D01*
X558772D01*
X557439Y68791D01*
X503344Y70124D02*
Y62126D01*
X507343D01*
X508676Y63459D01*
Y68791D01*
X507343Y70124D01*
X503344D01*
X516674Y68791D02*
X515341Y70124D01*
X512675D01*
X511342Y68791D01*
Y67458D01*
X512675Y66125D01*
X515341D01*
X516674Y64792D01*
Y63459D01*
X515341Y62126D01*
X512675D01*
X511342Y63459D01*
X519339Y62126D02*
X522005D01*
X520672D01*
Y70124D01*
X519339Y68791D01*
X103888Y214819D02*
Y206821D01*
X107887D01*
X109220Y208154D01*
Y213486D01*
X107887Y214819D01*
X103888D01*
X111886Y206821D02*
X114552D01*
X113219D01*
Y214819D01*
X111886Y213486D01*
X104047Y168020D02*
X102714Y169353D01*
X100048D01*
X98715Y168020D01*
Y162688D01*
X100048Y161355D01*
X102714D01*
X104047Y162688D01*
X106713Y161355D02*
X109378D01*
X108046D01*
Y169353D01*
X106713Y168020D01*
X113377D02*
X114710Y169353D01*
X117376D01*
X118709Y168020D01*
Y162688D01*
X117376Y161355D01*
X114710D01*
X113377Y162688D01*
Y168020D01*
X209233Y129412D02*
X207900Y130745D01*
X205234D01*
X203902Y129412D01*
Y124080D01*
X205234Y122747D01*
X207900D01*
X209233Y124080D01*
X211899D02*
X213232Y122747D01*
X215898D01*
X217230Y124080D01*
Y129412D01*
X215898Y130745D01*
X213232D01*
X211899Y129412D01*
Y128079D01*
X213232Y126746D01*
X217230D01*
X200597Y214756D02*
X199264Y216089D01*
X196598D01*
X195266Y214756D01*
Y209424D01*
X196598Y208091D01*
X199264D01*
X200597Y209424D01*
X203263Y214756D02*
X204596Y216089D01*
X207262D01*
X208594Y214756D01*
Y213423D01*
X207262Y212090D01*
X208594Y210757D01*
Y209424D01*
X207262Y208091D01*
X204596D01*
X203263Y209424D01*
Y210757D01*
X204596Y212090D01*
X203263Y213423D01*
Y214756D01*
X204596Y212090D02*
X207262D01*
X167577Y138556D02*
X166244Y139889D01*
X163578D01*
X162246Y138556D01*
Y133224D01*
X163578Y131891D01*
X166244D01*
X167577Y133224D01*
X170243Y139889D02*
X175574D01*
Y138556D01*
X170243Y133224D01*
Y131891D01*
X550863Y179450D02*
X549530Y180783D01*
X546864D01*
X545532Y179450D01*
Y174118D01*
X546864Y172785D01*
X549530D01*
X550863Y174118D01*
X558861Y180783D02*
X556195Y179450D01*
X553529Y176784D01*
Y174118D01*
X554862Y172785D01*
X557528D01*
X558861Y174118D01*
Y175451D01*
X557528Y176784D01*
X553529D01*
X321184Y279337D02*
X319851Y278004D01*
Y275338D01*
X321184Y274006D01*
X326516D01*
X327849Y275338D01*
Y278004D01*
X326516Y279337D01*
X319851Y287334D02*
Y282003D01*
X323850D01*
X322517Y284669D01*
Y286002D01*
X323850Y287334D01*
X326516D01*
X327849Y286002D01*
Y283336D01*
X326516Y282003D01*
X433007Y153796D02*
X431674Y155129D01*
X429008D01*
X427676Y153796D01*
Y148464D01*
X429008Y147131D01*
X431674D01*
X433007Y148464D01*
X435673Y153796D02*
X437006Y155129D01*
X439672D01*
X441004Y153796D01*
Y152463D01*
X439672Y151130D01*
X438339D01*
X439672D01*
X441004Y149797D01*
Y148464D01*
X439672Y147131D01*
X437006D01*
X435673Y148464D01*
X433007Y133476D02*
X431674Y134809D01*
X429008D01*
X427676Y133476D01*
Y128144D01*
X429008Y126811D01*
X431674D01*
X433007Y128144D01*
X441004Y126811D02*
X435673D01*
X441004Y132143D01*
Y133476D01*
X439672Y134809D01*
X437006D01*
X435673Y133476D01*
M02*
