G04*
G04 #@! TF.GenerationSoftware,Altium Limited,Altium Designer,22.5.1 (42)*
G04*
G04 Layer_Color=32896*
%FSLAX44Y44*%
%MOMM*%
G71*
G04*
G04 #@! TF.SameCoordinates,16E258D9-83B2-4854-9FD3-66D1B54B03FA*
G04*
G04*
G04 #@! TF.FilePolarity,Positive*
G04*
G01*
G75*
%ADD59C,0.5588*%
D59*
X296418Y73914D02*
D03*
X317754D02*
D03*
X339090D02*
D03*
X359918D02*
D03*
X317754Y94742D02*
D03*
X339090D02*
D03*
X359918D02*
D03*
X296926Y115824D02*
D03*
X318262D02*
D03*
X339598D02*
D03*
X360426D02*
D03*
X296672Y137414D02*
D03*
X318008D02*
D03*
X339344D02*
D03*
X360172D02*
D03*
X275844Y199898D02*
D03*
X296672D02*
D03*
X339344D02*
D03*
X360172D02*
D03*
X318008D02*
D03*
X308610Y257810D02*
D03*
X318516Y157734D02*
D03*
X339852D02*
D03*
X360680D02*
D03*
X318008Y179324D02*
D03*
X339344D02*
D03*
X360172D02*
D03*
X297180Y157734D02*
D03*
X276098Y115824D02*
D03*
X275844Y137414D02*
D03*
X275590Y73914D02*
D03*
X296418Y94742D02*
D03*
X275590D02*
D03*
X276352Y157734D02*
D03*
X296672Y179324D02*
D03*
X275844D02*
D03*
X252398Y252723D02*
D03*
X259762Y252885D02*
D03*
X566420Y102870D02*
D03*
X565150Y123190D02*
D03*
M02*
