G04*
G04 #@! TF.GenerationSoftware,Altium Limited,Altium Designer,22.5.1 (42)*
G04*
G04 Layer_Color=16711935*
%FSLAX44Y44*%
%MOMM*%
G71*
G04*
G04 #@! TF.SameCoordinates,16E258D9-83B2-4854-9FD3-66D1B54B03FA*
G04*
G04*
G04 #@! TF.FilePolarity,Positive*
G04*
G01*
G75*
%ADD14C,0.1778*%
%ADD52C,0.0127*%
%ADD61C,0.0500*%
%ADD62C,0.0800*%
D14*
X-52844Y237624D02*
X96465D01*
X-52844Y158376D02*
X96465D01*
Y237624D01*
X-52844Y158376D02*
Y237624D01*
D52*
X44010Y288960D02*
G03*
X44010Y288960I-15500J0D01*
G01*
X649010Y28960D02*
G03*
X649010Y28960I-15500J0D01*
G01*
X44010D02*
G03*
X44010Y28960I-15500J0D01*
G01*
X649010Y288960D02*
G03*
X649010Y288960I-15500J0D01*
G01*
X661530Y-40D02*
G03*
X671710Y10150I-10J10190D01*
G01*
X671740Y306700D02*
G03*
X660940Y317490I-10800J-10D01*
G01*
X10680Y317470D02*
G03*
X-20Y306760I10J-10710D01*
G01*
X0Y10450D02*
G03*
X10450Y0I10450J0D01*
G01*
X10630Y314460D02*
G03*
X3010Y306849I0J-7620D01*
G01*
X45090Y248760D02*
G03*
X68410Y269810I0J23442D01*
G01*
X3010Y10247D02*
G03*
X10660Y2960I7650J372D01*
G01*
X68410Y56010D02*
G03*
X55010Y68660I-13400J-772D01*
G01*
X611060D02*
G03*
X593410Y51910I0J-17674D01*
G01*
X661020Y2960D02*
G03*
X668710Y10043I0J7716D01*
G01*
X593410Y266830D02*
G03*
X612290Y248760I18880J828D01*
G01*
X668710Y307528D02*
G03*
X661080Y314460I-7630J-733D01*
G01*
X671710Y10150D02*
X671740Y306700D01*
X10680Y317470D02*
X660940Y317490D01*
X-20Y306760D02*
X0Y10450D01*
X10450Y0D02*
X661530Y-40D01*
X68410Y2960D02*
Y56010D01*
X3010Y68660D02*
X55010D01*
X611060D02*
X668710D01*
X593410Y2960D02*
Y51910D01*
Y2960D02*
X661020D01*
X0Y-2560D02*
Y10449D01*
X-3790Y0D02*
X10449D01*
X10630Y314460D02*
X68410D01*
X3010Y248760D02*
X45090D01*
X68410Y269810D02*
Y314460D01*
X3010Y248760D02*
Y306849D01*
X10660Y2960D02*
X68410D01*
X3010Y10247D02*
Y68660D01*
X668710Y10043D02*
Y68660D01*
X593410Y314460D02*
X661080D01*
X593410Y266830D02*
Y314460D01*
X612290Y248760D02*
X668710D01*
Y307528D01*
D61*
X153211Y157480D02*
X155710D01*
X156210Y157980D01*
Y158980D01*
X155710Y159479D01*
X153211D01*
X156210Y161978D02*
X153211D01*
X154711Y160479D01*
Y162478D01*
D62*
X198120Y170098D02*
Y165933D01*
X198953Y165100D01*
X200619D01*
X201452Y165933D01*
Y170098D01*
X203118Y169265D02*
X203951Y170098D01*
X205618D01*
X206451Y169265D01*
Y168432D01*
X205618Y167599D01*
X204785D01*
X205618D01*
X206451Y166766D01*
Y165933D01*
X205618Y165100D01*
X203951D01*
X203118Y165933D01*
X530860Y142158D02*
Y137993D01*
X531693Y137160D01*
X533359D01*
X534192Y137993D01*
Y142158D01*
X539191Y137160D02*
X535858D01*
X539191Y140492D01*
Y141325D01*
X538358Y142158D01*
X536691D01*
X535858Y141325D01*
M02*
