G04*
G04 #@! TF.GenerationSoftware,Altium Limited,Altium Designer,22.5.1 (42)*
G04*
G04 Layer_Color=16711935*
%FSLAX44Y44*%
%MOMM*%
G71*
G04*
G04 #@! TF.SameCoordinates,16E258D9-83B2-4854-9FD3-66D1B54B03FA*
G04*
G04*
G04 #@! TF.FilePolarity,Negative*
G04*
G01*
G75*
%ADD51C,0.6604*%
G36*
X58784Y68181D02*
X61151Y67241D01*
X63298Y65872D01*
X65150Y64124D01*
X66640Y62059D01*
X67715Y59750D01*
X68337Y57281D01*
X68410Y56010D01*
X68410Y2960D01*
X10660D01*
X9929Y2960D01*
X8494Y3236D01*
X7137Y3779D01*
X5907Y4569D01*
X4848Y5577D01*
X4000Y6768D01*
X3391Y8097D01*
X3045Y9517D01*
X3010Y10247D01*
Y68660D01*
X55010D01*
X55010Y68660D01*
X55010Y68660D01*
X56283Y68660D01*
X58784Y68181D01*
D02*
G37*
G36*
X68410Y269810D02*
X68190Y267663D01*
X66973Y263523D01*
X65021Y259674D01*
X62399Y256247D01*
X59196Y253355D01*
X55518Y251097D01*
X51491Y249548D01*
X47248Y248760D01*
X45090Y248760D01*
X3010D01*
Y306849D01*
X3011Y307598D01*
X3305Y309069D01*
X3880Y310455D01*
X4714Y311701D01*
X5775Y312761D01*
X7023Y313594D01*
X8409Y314167D01*
X9880Y314460D01*
X10630Y314460D01*
X10630Y314460D01*
X68410D01*
X68410Y269810D01*
D02*
G37*
G36*
X668710Y10043D02*
X668651Y9326D01*
X668269Y7937D01*
X667637Y6643D01*
X666777Y5488D01*
X665718Y4513D01*
X664497Y3750D01*
X663155Y3226D01*
X662250Y3056D01*
X661020Y2960D01*
X593410Y2960D01*
X593410Y51910D01*
X593498Y53590D01*
X594305Y56857D01*
X595713Y59913D01*
X597673Y62648D01*
X600114Y64964D01*
X602948Y66778D01*
X606073Y68025D01*
X609378Y68660D01*
X611060D01*
X611060Y68660D01*
X668710D01*
X668710Y10043D01*
D02*
G37*
G36*
X661080Y314460D02*
X661080Y314460D01*
X661080D01*
X662250Y314374D01*
X663182Y314200D01*
X664504Y313689D01*
X665710Y312945D01*
X666759Y311992D01*
X667615Y310863D01*
X668250Y309595D01*
X668642Y308233D01*
X668710Y307528D01*
X668710Y248760D01*
X612290Y248760D01*
X610481D01*
X606929Y249446D01*
X603571Y250794D01*
X600530Y252755D01*
X597916Y255256D01*
X595824Y258208D01*
X594331Y261504D01*
X593489Y265023D01*
X593410Y266830D01*
X593410Y314460D01*
X661080D01*
X661080Y314460D01*
D02*
G37*
%LPC*%
G36*
X30037Y47050D02*
X26983D01*
X26733Y47000D01*
X26478D01*
X23484Y46404D01*
X23248Y46307D01*
X22998Y46257D01*
X20177Y45089D01*
X19965Y44947D01*
X19729Y44849D01*
X17191Y43153D01*
X17010Y42973D01*
X16798Y42831D01*
X14639Y40672D01*
X14497Y40460D01*
X14317Y40279D01*
X12621Y37741D01*
X12523Y37505D01*
X12381Y37293D01*
X11213Y34472D01*
X11163Y34222D01*
X11066Y33986D01*
X10470Y30992D01*
Y30737D01*
X10420Y30487D01*
Y27433D01*
X10470Y27183D01*
Y26928D01*
X11066Y23934D01*
X11163Y23698D01*
X11213Y23448D01*
X12381Y20627D01*
X12523Y20415D01*
X12621Y20179D01*
X14317Y17641D01*
X14497Y17460D01*
X14639Y17248D01*
X16798Y15089D01*
X17010Y14947D01*
X17191Y14767D01*
X19729Y13071D01*
X19965Y12973D01*
X20177Y12831D01*
X22998Y11663D01*
X23248Y11613D01*
X23484Y11516D01*
X26478Y10920D01*
X26733D01*
X26983Y10870D01*
X30037D01*
X30287Y10920D01*
X30542D01*
X33536Y11516D01*
X33772Y11613D01*
X34022Y11663D01*
X36843Y12831D01*
X37055Y12973D01*
X37291Y13071D01*
X39829Y14767D01*
X40010Y14947D01*
X40222Y15089D01*
X42381Y17248D01*
X42523Y17460D01*
X42703Y17641D01*
X44399Y20179D01*
X44497Y20415D01*
X44639Y20627D01*
X45807Y23448D01*
X45857Y23698D01*
X45954Y23934D01*
X46550Y26928D01*
Y27183D01*
X46600Y27433D01*
Y30487D01*
X46550Y30737D01*
Y30992D01*
X45954Y33986D01*
X45857Y34222D01*
X45807Y34472D01*
X44639Y37293D01*
X44497Y37505D01*
X44399Y37741D01*
X42703Y40279D01*
X42523Y40460D01*
X42381Y40672D01*
X40222Y42831D01*
X40010Y42973D01*
X39829Y43153D01*
X37291Y44849D01*
X37055Y44947D01*
X36843Y45089D01*
X34022Y46257D01*
X33772Y46307D01*
X33536Y46404D01*
X30542Y47000D01*
X30287D01*
X30037Y47050D01*
D02*
G37*
G36*
Y307050D02*
X26983D01*
X26733Y307000D01*
X26478D01*
X23484Y306404D01*
X23248Y306307D01*
X22998Y306257D01*
X20177Y305089D01*
X19965Y304947D01*
X19729Y304849D01*
X17191Y303153D01*
X17010Y302973D01*
X16798Y302831D01*
X14639Y300672D01*
X14497Y300460D01*
X14317Y300280D01*
X12621Y297741D01*
X12523Y297505D01*
X12381Y297293D01*
X11213Y294472D01*
X11163Y294222D01*
X11066Y293986D01*
X10470Y290992D01*
Y290737D01*
X10420Y290487D01*
Y288960D01*
Y287433D01*
X10470Y287183D01*
Y286928D01*
X11066Y283934D01*
X11163Y283698D01*
X11213Y283448D01*
X12381Y280627D01*
X12523Y280415D01*
X12621Y280179D01*
X14317Y277640D01*
X14497Y277460D01*
X14639Y277248D01*
X16798Y275089D01*
X17010Y274947D01*
X17191Y274767D01*
X19729Y273071D01*
X19965Y272973D01*
X20177Y272831D01*
X22998Y271663D01*
X23248Y271613D01*
X23484Y271516D01*
X26478Y270920D01*
X26733D01*
X26983Y270870D01*
X30037D01*
X30287Y270920D01*
X30542D01*
X33536Y271516D01*
X33772Y271613D01*
X34022Y271663D01*
X36843Y272831D01*
X37055Y272973D01*
X37291Y273071D01*
X39829Y274767D01*
X40010Y274947D01*
X40222Y275089D01*
X42381Y277248D01*
X42523Y277460D01*
X42703Y277640D01*
X44399Y280179D01*
X44497Y280415D01*
X44639Y280627D01*
X45807Y283448D01*
X45857Y283698D01*
X45954Y283934D01*
X46550Y286928D01*
Y287183D01*
X46600Y287433D01*
Y288960D01*
Y290487D01*
X46550Y290737D01*
Y290992D01*
X45954Y293986D01*
X45857Y294222D01*
X45807Y294472D01*
X44639Y297293D01*
X44497Y297505D01*
X44399Y297741D01*
X42703Y300280D01*
X42523Y300460D01*
X42381Y300672D01*
X40222Y302831D01*
X40010Y302973D01*
X39829Y303153D01*
X37291Y304849D01*
X37055Y304947D01*
X36843Y305089D01*
X34022Y306257D01*
X33772Y306307D01*
X33536Y306404D01*
X30542Y307000D01*
X30287D01*
X30037Y307050D01*
D02*
G37*
G36*
X635037Y47050D02*
X631983D01*
X631733Y47000D01*
X631478D01*
X628484Y46404D01*
X628248Y46307D01*
X627998Y46257D01*
X625177Y45089D01*
X624965Y44947D01*
X624729Y44849D01*
X622191Y43153D01*
X622010Y42973D01*
X621798Y42831D01*
X619639Y40672D01*
X619497Y40460D01*
X619317Y40279D01*
X617621Y37741D01*
X617523Y37505D01*
X617381Y37293D01*
X616213Y34472D01*
X616163Y34222D01*
X616066Y33986D01*
X615470Y30992D01*
Y30737D01*
X615420Y30487D01*
Y27433D01*
X615470Y27183D01*
Y26928D01*
X616066Y23934D01*
X616163Y23698D01*
X616213Y23448D01*
X617381Y20627D01*
X617523Y20415D01*
X617621Y20179D01*
X619317Y17641D01*
X619497Y17460D01*
X619639Y17248D01*
X621798Y15089D01*
X622010Y14947D01*
X622191Y14767D01*
X624729Y13071D01*
X624965Y12973D01*
X625177Y12831D01*
X627998Y11663D01*
X628248Y11613D01*
X628484Y11516D01*
X631478Y10920D01*
X631733D01*
X631983Y10870D01*
X635037D01*
X635287Y10920D01*
X635542D01*
X638536Y11516D01*
X638772Y11613D01*
X639022Y11663D01*
X641843Y12831D01*
X642055Y12973D01*
X642291Y13071D01*
X644829Y14767D01*
X645010Y14947D01*
X645222Y15089D01*
X647381Y17248D01*
X647523Y17460D01*
X647703Y17641D01*
X649399Y20179D01*
X649497Y20415D01*
X649639Y20627D01*
X650807Y23448D01*
X650857Y23698D01*
X650954Y23934D01*
X651550Y26928D01*
Y27183D01*
X651600Y27433D01*
Y30487D01*
X651550Y30737D01*
Y30992D01*
X650954Y33986D01*
X650857Y34222D01*
X650807Y34472D01*
X649639Y37293D01*
X649497Y37505D01*
X649399Y37741D01*
X647703Y40279D01*
X647523Y40460D01*
X647381Y40672D01*
X645222Y42831D01*
X645010Y42973D01*
X644829Y43153D01*
X642291Y44849D01*
X642055Y44947D01*
X641843Y45089D01*
X639022Y46257D01*
X638772Y46307D01*
X638536Y46404D01*
X635542Y47000D01*
X635287D01*
X635037Y47050D01*
D02*
G37*
G36*
Y307050D02*
X631983D01*
X631733Y307000D01*
X631478D01*
X628484Y306404D01*
X628248Y306307D01*
X627998Y306257D01*
X625177Y305089D01*
X624965Y304947D01*
X624729Y304849D01*
X622191Y303153D01*
X622010Y302973D01*
X621798Y302831D01*
X619639Y300672D01*
X619497Y300460D01*
X619317Y300280D01*
X617621Y297741D01*
X617523Y297505D01*
X617381Y297293D01*
X616213Y294472D01*
X616163Y294222D01*
X616066Y293986D01*
X615470Y290992D01*
Y290737D01*
X615420Y290487D01*
Y287433D01*
X615470Y287183D01*
Y286928D01*
X616066Y283934D01*
X616163Y283698D01*
X616213Y283448D01*
X617381Y280627D01*
X617523Y280415D01*
X617621Y280179D01*
X619317Y277640D01*
X619497Y277460D01*
X619639Y277248D01*
X621798Y275089D01*
X622010Y274947D01*
X622191Y274767D01*
X624729Y273071D01*
X624965Y272973D01*
X625177Y272831D01*
X627998Y271663D01*
X628248Y271613D01*
X628484Y271516D01*
X631478Y270920D01*
X631733D01*
X631983Y270870D01*
X635037D01*
X635287Y270920D01*
X635542D01*
X638536Y271516D01*
X638772Y271613D01*
X639022Y271663D01*
X641843Y272831D01*
X642055Y272973D01*
X642291Y273071D01*
X644829Y274767D01*
X645010Y274947D01*
X645222Y275089D01*
X647381Y277248D01*
X647523Y277460D01*
X647703Y277640D01*
X649399Y280179D01*
X649497Y280415D01*
X649639Y280627D01*
X650807Y283448D01*
X650857Y283698D01*
X650954Y283934D01*
X651550Y286928D01*
Y287183D01*
X651600Y287433D01*
Y290487D01*
X651550Y290737D01*
Y290992D01*
X650954Y293986D01*
X650857Y294222D01*
X650807Y294472D01*
X649639Y297293D01*
X649497Y297505D01*
X649399Y297741D01*
X647703Y300280D01*
X647523Y300460D01*
X647381Y300672D01*
X645222Y302831D01*
X645010Y302973D01*
X644829Y303153D01*
X642291Y304849D01*
X642055Y304947D01*
X641843Y305089D01*
X639022Y306257D01*
X638772Y306307D01*
X638536Y306404D01*
X635542Y307000D01*
X635287D01*
X635037Y307050D01*
D02*
G37*
%LPD*%
D51*
X208280Y173990D02*
D03*
M02*
