G04*
G04 #@! TF.GenerationSoftware,Altium Limited,Altium Designer,22.5.1 (42)*
G04*
G04 Layer_Color=8421504*
%FSLAX44Y44*%
%MOMM*%
G71*
G04*
G04 #@! TF.SameCoordinates,16E258D9-83B2-4854-9FD3-66D1B54B03FA*
G04*
G04*
G04 #@! TF.FilePolarity,Positive*
G04*
G01*
G75*
%ADD18R,5.0000X1.0000*%
%ADD19C,1.0000*%
%ADD20R,0.8000X0.8000*%
%ADD21R,0.4725X0.5811*%
G04:AMPARAMS|DCode=22|XSize=0.4mm|YSize=0.85mm|CornerRadius=0.05mm|HoleSize=0mm|Usage=FLASHONLY|Rotation=180.000|XOffset=0mm|YOffset=0mm|HoleType=Round|Shape=RoundedRectangle|*
%AMROUNDEDRECTD22*
21,1,0.4000,0.7500,0,0,180.0*
21,1,0.3000,0.8500,0,0,180.0*
1,1,0.1000,-0.1500,0.3750*
1,1,0.1000,0.1500,0.3750*
1,1,0.1000,0.1500,-0.3750*
1,1,0.1000,-0.1500,-0.3750*
%
%ADD22ROUNDEDRECTD22*%
%ADD23R,0.5811X0.4725*%
%ADD24R,0.8000X1.5000*%
%ADD25R,1.5000X0.8000*%
%ADD26R,1.1000X1.1000*%
%ADD27R,0.6200X0.6000*%
%ADD28R,0.6000X0.5000*%
%ADD29R,0.6153X0.5725*%
G04:AMPARAMS|DCode=30|XSize=0.3mm|YSize=0.8mm|CornerRadius=0.0495mm|HoleSize=0mm|Usage=FLASHONLY|Rotation=90.000|XOffset=0mm|YOffset=0mm|HoleType=Round|Shape=RoundedRectangle|*
%AMROUNDEDRECTD30*
21,1,0.3000,0.7010,0,0,90.0*
21,1,0.2010,0.8000,0,0,90.0*
1,1,0.0990,0.3505,0.1005*
1,1,0.0990,0.3505,-0.1005*
1,1,0.0990,-0.3505,-0.1005*
1,1,0.0990,-0.3505,0.1005*
%
%ADD30ROUNDEDRECTD30*%
%ADD31R,0.8000X0.9000*%
%ADD32R,0.6500X0.8500*%
%ADD33R,0.5725X0.6153*%
%ADD34R,0.4541X0.3627*%
%ADD35R,0.5000X0.6000*%
%ADD36R,1.0000X0.9000*%
%ADD37R,0.6000X0.6200*%
%ADD38R,2.9500X1.0200*%
G36*
X40923Y183315D02*
X40935Y183301D01*
X40946Y183286D01*
X41000Y183228D01*
X41053Y183168D01*
X41067Y183155D01*
X41079Y183142D01*
X43342Y180918D01*
X43385Y180880D01*
X43426Y180840D01*
X43458Y180815D01*
X43489Y180788D01*
X43535Y180754D01*
X43580Y180718D01*
X46160Y178872D01*
X46208Y178841D01*
X46255Y178808D01*
X46290Y178788D01*
X46325Y178765D01*
X46376Y178739D01*
X46426Y178711D01*
X49260Y177285D01*
X49313Y177262D01*
X49364Y177237D01*
X49403Y177222D01*
X49440Y177206D01*
X49494Y177188D01*
X49548Y177168D01*
X52569Y176198D01*
X52624Y176183D01*
X52679Y176166D01*
X52719Y176158D01*
X52759Y176147D01*
X52815Y176138D01*
X52871Y176126D01*
X56006Y175635D01*
X56063Y175629D01*
X56119Y175621D01*
X56160Y175619D01*
X56201Y175615D01*
X56258Y175614D01*
X56315Y175611D01*
X59488D01*
X59545Y175614D01*
X59602Y175615D01*
X59643Y175619D01*
X59684Y175621D01*
X59741Y175629D01*
X59798Y175635D01*
X62932Y176126D01*
X62988Y176138D01*
X63045Y176147D01*
X63085Y176158D01*
X63125Y176166D01*
X63179Y176183D01*
X63235Y176198D01*
X66256Y177168D01*
X66309Y177188D01*
X66364Y177206D01*
X66401Y177222D01*
X66439Y177237D01*
X66491Y177262D01*
X66543Y177285D01*
X69378Y178711D01*
X69427Y178739D01*
X69478Y178765D01*
X69513Y178787D01*
X69549Y178808D01*
X69595Y178840D01*
X69644Y178872D01*
X72223Y180718D01*
X72268Y180754D01*
X72314Y180788D01*
X72345Y180815D01*
X72377Y180840D01*
X72418Y180880D01*
X72461Y180918D01*
X74724Y183142D01*
X74737Y183155D01*
X74750Y183168D01*
X74803Y183228D01*
X74858Y183286D01*
X74869Y183301D01*
X74881Y183315D01*
X75275Y183805D01*
X91459Y183805D01*
Y164188D01*
X24344D01*
Y183805D01*
X40528D01*
X40923Y183315D01*
D02*
G37*
G36*
X59837Y204378D02*
X61044Y203878D01*
X62130Y203152D01*
X63054Y202228D01*
X63780Y201141D01*
X64280Y199934D01*
X64535Y198652D01*
Y197999D01*
Y197346D01*
X64280Y196064D01*
X63780Y194857D01*
X63054Y193771D01*
X62130Y192846D01*
X61044Y192120D01*
X59837Y191620D01*
X58555Y191366D01*
X57248D01*
X55967Y191620D01*
X54760Y192120D01*
X53673Y192846D01*
X52749Y193770D01*
X52023Y194857D01*
X51523Y196064D01*
X51268Y197346D01*
Y197999D01*
Y198652D01*
X51523Y199934D01*
X52023Y201141D01*
X52749Y202228D01*
X53673Y203152D01*
X54760Y203878D01*
X55967Y204378D01*
X57248Y204633D01*
X58555D01*
X59837Y204378D01*
D02*
G37*
G36*
X91459Y212194D02*
X75275D01*
X74881Y212683D01*
X74869Y212697D01*
X74858Y212712D01*
X74803Y212771D01*
X74750Y212830D01*
X74737Y212843D01*
X74724Y212856D01*
X72461Y215080D01*
X72418Y215118D01*
X72377Y215158D01*
X72345Y215183D01*
X72315Y215210D01*
X72268Y215244D01*
X72223Y215280D01*
X69644Y217127D01*
X69595Y217158D01*
X69549Y217190D01*
X69513Y217211D01*
X69478Y217233D01*
X69427Y217259D01*
X69378Y217287D01*
X66543Y218713D01*
X66491Y218736D01*
X66439Y218761D01*
X66401Y218776D01*
X66364Y218792D01*
X66309Y218810D01*
X66256Y218830D01*
X63235Y219800D01*
X63179Y219815D01*
X63125Y219832D01*
X63085Y219840D01*
X63045Y219851D01*
X62989Y219860D01*
X62932Y219872D01*
X59798Y220363D01*
X59741Y220369D01*
X59684Y220377D01*
X59643Y220379D01*
X59602Y220384D01*
X59545Y220384D01*
X59488Y220387D01*
X56315D01*
X56258Y220384D01*
X56201Y220384D01*
X56160Y220379D01*
X56119Y220377D01*
X56063Y220369D01*
X56006Y220363D01*
X52871Y219872D01*
X52815Y219860D01*
X52759Y219851D01*
X52719Y219840D01*
X52679Y219832D01*
X52624Y219815D01*
X52569Y219800D01*
X49548Y218830D01*
X49494Y218810D01*
X49440Y218792D01*
X49403Y218776D01*
X49364Y218761D01*
X49313Y218736D01*
X49260Y218713D01*
X46426Y217287D01*
X46376Y217259D01*
X46325Y217233D01*
X46291Y217211D01*
X46255Y217190D01*
X46208Y217158D01*
X46160Y217127D01*
X43580Y215280D01*
X43535Y215244D01*
X43489Y215210D01*
X43458Y215183D01*
X43426Y215158D01*
X43385Y215118D01*
X43342Y215080D01*
X41079Y212856D01*
X41067Y212843D01*
X41053Y212830D01*
X41000Y212771D01*
X40946Y212712D01*
X40935Y212697D01*
X40923Y212683D01*
X40528Y212194D01*
X24344D01*
Y231811D01*
X91459D01*
Y212194D01*
D02*
G37*
D18*
X57900Y168838D02*
D03*
X55360Y225940D02*
D03*
D19*
X57902Y197999D02*
D03*
X370840Y257810D02*
D03*
X356870D02*
D03*
X295910D02*
D03*
X281940D02*
D03*
X267970D02*
D03*
X443230Y38100D02*
D03*
X429260D02*
D03*
X415290D02*
D03*
D20*
X645922Y213990D02*
D03*
Y197490D02*
D03*
X509270Y46350D02*
D03*
Y29850D02*
D03*
X547370Y46350D02*
D03*
Y29850D02*
D03*
D21*
X622554Y214221D02*
D03*
Y206911D02*
D03*
X492760Y37945D02*
D03*
Y30635D02*
D03*
X530860Y36675D02*
D03*
Y29365D02*
D03*
D22*
X148440Y175080D02*
D03*
X161440D02*
D03*
Y152580D02*
D03*
X154940D02*
D03*
X148440D02*
D03*
D23*
X537365Y99060D02*
D03*
X544675D02*
D03*
Y116840D02*
D03*
X537365D02*
D03*
X153825Y49530D02*
D03*
X161135D02*
D03*
X178915Y116840D02*
D03*
X171605D02*
D03*
D24*
X383930Y236320D02*
D03*
X372930D02*
D03*
X361930D02*
D03*
X350930D02*
D03*
X339930D02*
D03*
X328930D02*
D03*
X317930D02*
D03*
X284930D02*
D03*
X273930D02*
D03*
X262930D02*
D03*
X295930D02*
D03*
X306930D02*
D03*
X251930D02*
D03*
Y37320D02*
D03*
X262930D02*
D03*
X273930D02*
D03*
X284930D02*
D03*
X295930D02*
D03*
X306930D02*
D03*
X317930D02*
D03*
X328930D02*
D03*
X339930D02*
D03*
X350930D02*
D03*
X361930D02*
D03*
X372930D02*
D03*
X383930D02*
D03*
D25*
X243430Y208320D02*
D03*
Y197320D02*
D03*
Y186320D02*
D03*
Y175320D02*
D03*
Y164320D02*
D03*
Y153320D02*
D03*
Y142320D02*
D03*
Y131320D02*
D03*
Y120320D02*
D03*
Y109320D02*
D03*
Y98320D02*
D03*
Y87320D02*
D03*
Y76320D02*
D03*
Y65320D02*
D03*
X392430D02*
D03*
Y76320D02*
D03*
Y87320D02*
D03*
Y98320D02*
D03*
Y109320D02*
D03*
Y120320D02*
D03*
Y131320D02*
D03*
Y142320D02*
D03*
Y153320D02*
D03*
Y164320D02*
D03*
Y175320D02*
D03*
Y186320D02*
D03*
Y197320D02*
D03*
Y208320D02*
D03*
D26*
X265430Y63320D02*
D03*
Y84320D02*
D03*
Y105320D02*
D03*
Y126320D02*
D03*
Y147320D02*
D03*
Y168320D02*
D03*
Y189320D02*
D03*
X265430Y210320D02*
D03*
X286430Y63320D02*
D03*
Y84320D02*
D03*
Y105320D02*
D03*
Y126320D02*
D03*
Y147320D02*
D03*
Y168320D02*
D03*
Y189320D02*
D03*
X286430Y210320D02*
D03*
X307430Y63320D02*
D03*
Y84320D02*
D03*
Y105320D02*
D03*
Y126320D02*
D03*
Y147320D02*
D03*
Y168320D02*
D03*
Y189320D02*
D03*
X307430Y210320D02*
D03*
X328430Y63320D02*
D03*
Y84320D02*
D03*
Y105320D02*
D03*
Y126320D02*
D03*
Y147320D02*
D03*
Y168320D02*
D03*
Y189320D02*
D03*
X328430Y210320D02*
D03*
X349430Y63320D02*
D03*
Y84320D02*
D03*
Y105320D02*
D03*
Y126320D02*
D03*
Y147320D02*
D03*
Y168320D02*
D03*
Y189320D02*
D03*
X349430Y210320D02*
D03*
X370430Y63320D02*
D03*
Y84320D02*
D03*
Y105320D02*
D03*
Y126320D02*
D03*
Y147320D02*
D03*
Y168320D02*
D03*
Y189320D02*
D03*
X370430Y210320D02*
D03*
D27*
X323850Y264950D02*
D03*
Y255750D02*
D03*
D28*
X339090Y255350D02*
D03*
Y265350D02*
D03*
D29*
X213836Y143510D02*
D03*
X205264D02*
D03*
X557211Y161290D02*
D03*
X548640D02*
D03*
X206216Y196850D02*
D03*
X197644D02*
D03*
X154146Y135890D02*
D03*
X145574D02*
D03*
D30*
X224280Y158870D02*
D03*
Y163870D02*
D03*
Y168870D02*
D03*
Y173870D02*
D03*
X192280Y158870D02*
D03*
Y163870D02*
D03*
Y168870D02*
D03*
Y173870D02*
D03*
X557020Y130930D02*
D03*
Y135930D02*
D03*
Y140930D02*
D03*
Y145930D02*
D03*
X525020Y130930D02*
D03*
Y135930D02*
D03*
Y140930D02*
D03*
Y145930D02*
D03*
D31*
X141630Y67470D02*
D03*
X160630D02*
D03*
X151130Y87470D02*
D03*
D32*
X109220Y182980D02*
D03*
Y195480D02*
D03*
D33*
X130810Y187484D02*
D03*
Y196056D02*
D03*
D34*
X130043Y165100D02*
D03*
X123957D02*
D03*
D35*
X161210Y116840D02*
D03*
X151210D02*
D03*
D36*
X130810Y116460D02*
D03*
Y132460D02*
D03*
D37*
X410690Y116840D02*
D03*
X419890D02*
D03*
Y130810D02*
D03*
X410690D02*
D03*
X419890Y152400D02*
D03*
X410690D02*
D03*
Y166370D02*
D03*
X419890D02*
D03*
D38*
X633450Y82800D02*
D03*
Y102800D02*
D03*
Y122800D02*
D03*
Y142800D02*
D03*
X587950Y82800D02*
D03*
Y102800D02*
D03*
Y122800D02*
D03*
Y142800D02*
D03*
M02*
