G04*
G04 #@! TF.GenerationSoftware,Altium Limited,Altium Designer,22.5.1 (42)*
G04*
G04 Layer_Color=8388736*
%FSLAX44Y44*%
%MOMM*%
G71*
G04*
G04 #@! TF.SameCoordinates,16E258D9-83B2-4854-9FD3-66D1B54B03FA*
G04*
G04*
G04 #@! TF.FilePolarity,Positive*
G04*
G01*
G75*
%ADD15C,0.1000*%
D15*
X617554Y210566D02*
X627554D01*
X622554Y205566D02*
Y215566D01*
X492760Y29290D02*
Y39290D01*
X487760Y34290D02*
X497760D01*
X541020Y94060D02*
Y104060D01*
X536020Y99060D02*
X546020D01*
X541020Y111840D02*
Y121840D01*
X536020Y116840D02*
X546020D01*
X339090Y255350D02*
Y265350D01*
X334090Y260350D02*
X344090D01*
X204550Y143510D02*
X214550D01*
X209550Y138510D02*
Y148510D01*
X547926Y161290D02*
X557926D01*
X552926Y156290D02*
Y166290D01*
X109220Y184230D02*
Y194230D01*
X104220Y189230D02*
X114220D01*
X130810Y186770D02*
Y196770D01*
X125810Y191770D02*
X135810D01*
X196930Y196850D02*
X206930D01*
X201930Y191850D02*
Y201850D01*
X122000Y165100D02*
X132000D01*
X127000Y160100D02*
Y170100D01*
X144860Y135890D02*
X154860D01*
X149860Y130890D02*
Y140890D01*
X152480Y49530D02*
X162480D01*
X157480Y44530D02*
Y54530D01*
X170260Y116840D02*
X180260D01*
X175260Y111840D02*
Y121840D01*
X151210Y116840D02*
X161210D01*
X156210Y111840D02*
Y121840D01*
X525860Y33020D02*
X535860D01*
X530860Y28020D02*
Y38020D01*
M02*
