M48
;Layer_Color=9474304
;FILE_FORMAT=4:4
METRIC,LZ
;TYPE=PLATED
T1F00S00C0.2000
T2F00S00C0.3500
T3F00S00C0.4000
T6F00S00C1.1000
T8F00S00C3.0988
;TYPE=NON_PLATED
T9F00S00C0.9000
T10F00S00C0.9906
T11F00S00C2.3749
%
T01
X000635Y000127
X000762
X000889
X001016
X001143
X00127
X001397
X001524
X001651
X001778
X001905
Y000254
Y000381
X002032
Y000508
Y000635
X001905
Y000762
Y000889
X002032
X002286
X0024Y0009
X00247565Y00088121
X00256851Y00080833
X0025145Y0007295
X0026283Y000725
X002695Y00074
X002745Y000885
Y000935
Y000985
Y001035
X002795
Y000985
Y000935
Y000885
X00310328Y00089428
X003105Y001045
X003048Y001143
X003175
X003429
X003556Y00127
Y001016
Y000762
Y000635
X003683
Y000508
X00381
Y000381
X003937
Y000254
Y000127
X00381
Y000254
X003683
Y000381
X003556
Y000508
X003429
Y000635
Y000762
Y000889
X003302Y000762
Y000635
Y000508
Y000381
X00335Y00036
X003429Y000381
X003556Y000254
Y000127
X003683
X003429
X003302
X003175
X003145Y00038
X003048Y000381
Y000508
X003175
Y000635
Y000762
X003048Y000635
Y00127
X003302
X003429Y001397
X003302Y001524
X003175Y001651
Y001397
X003048Y001524
Y001778
X003Y00183
X0029
X002795Y001785
X0027961Y00160012
X002921Y001651
Y001397
X00265Y00144
X00254Y001524
Y001651
Y001778
X002413
X00235Y001775
X0023
X002245
Y00172
X0023
X00235
Y001665
X0023
X002245
X002413Y001651
Y001905
Y002032
Y002159
Y002286
Y002413
X00228Y00241
Y00236
Y00231
Y00226
Y00221
Y00216
Y00211
X002225
Y00216
Y00221
Y00226
Y00231
Y00236
Y00241
X002032Y00254
X00197Y00219
Y00214
Y00209
Y00204
X001915
Y00209
Y00214
Y00219
X001855
Y00214
Y00209
Y00204
X001885Y0019
X001935
X001985
X002286Y001905
Y002032
X002667
X002794
Y002159
X002667
X00261Y00218
X002667Y002286
Y001905
X00314Y00187
X0032175Y0019625
X003302Y001905
Y002032
X003429
X00381
X003937
Y001905
Y001778
Y001651
X003815Y00172
X00377Y001455
X00385892Y00138108
X003775Y00117
X00379Y00097
X00378Y00092076
X003705Y000855
X003937Y000635
X00240075Y00074043
X0024Y001
Y0011
X0023
Y0012
X0022
Y0011
X0021Y0012
Y0013
X0022
X0023
X002413Y00127
X0023Y001
X001778Y000889
Y000762
Y000635
Y000508
X001905
X001778Y000381
Y000254
X001651
Y000381
Y000508
Y000635
X001524
Y000508
Y000381
Y000254
X001397
Y000381
Y000508
Y000635
X00127
Y000508
Y000381
Y000254
X001143
Y000381
Y000508
Y000635
Y000762
Y000889
X001016Y000762
Y000635
Y000508
Y000381
Y000254
X000889
Y000381
X000915Y000445
X00085
X000785
X000762Y000381
Y000254
X000635
Y000381
Y000508
Y000635
Y000762
X000508
Y000635
Y000508
Y000381
Y000254
X000381Y000381
Y000508
Y000635
Y000762
Y000889
Y001016
X000508
X000635
X000889Y001143
Y00127
Y001778
Y001905
X001016
X001143Y002032
Y002159
Y002286
Y002413
Y003048
X00127
X001397
X001016
X000889
X000762
X000635
Y003429
X000762
X000889
X001016
X000889Y003556
X000762
Y003683
X000635
Y00381
Y003937
Y003556
X000254
Y003683
Y00381
Y003937
X000127
Y00381
Y003683
Y003556
Y003429
X000254
Y003302
Y003175
X000127
Y003302
Y002794
X000254
Y002286
Y002159
Y002032
Y001905
X000381
X000508
X000635
Y001778
Y001651
X000508
Y001778
X000381
Y001651
X000254
Y001778
X000127
Y001905
Y002032
Y002159
Y002286
Y001651
Y001524
Y001397
Y00127
Y001143
Y001016
X000254
Y000889
Y000762
Y000635
Y000508
X000127Y000635
Y000762
Y000889
X001143Y001651
X00127
X001397
Y001778
X001524
Y001905
X001651
X001397
X00127Y001778
X001678Y00165
X003048Y002159
X00309Y002215
X00382192Y00228843
X003937Y002413
X00396Y002815
X0039Y00287
X00381Y003048
Y003175
Y003429
Y003556
Y003683
X00340774Y00366726
X00339Y003725
X00340661Y00378816
X003385Y003905
X003205Y0039
X00318075Y0037554
Y003695
X003175Y00345
Y00316
X003255Y003165
X00335103Y00317156
X0031Y00315
X002794Y003175
Y003302
X002667Y003429
Y003175
Y003048
Y002921
X00254
Y003048
Y003175
X002413Y003048
Y002921
X002286Y003048
Y003683
X00235Y00374
X002413Y003683
X00254Y003556
X00262Y00389
X002667Y003937
X00274732Y00380732
X002286Y00381
X00225767Y00388768
X002159Y00381
Y003683
X002032
Y00381
Y003937
X001905
Y00381
Y003683
Y003556
X002032
X001905Y003429
X001778Y003556
Y003683
Y00381
Y003937
X001651
Y003683
X003535Y00274
Y00269
Y00264
X00353509Y00259009
X00359Y00259
Y00264
Y00269
Y00274
X00365
Y00269
Y00264
Y00259
X004155Y002645
Y0025
X00412Y002345
X004335Y002305
X00424823Y00219977
X004318Y002032
X004699
X004826
X004953
X00508
X005207
Y002159
Y002286
Y002413
X005334
X005461
X005588
X005715
X005842
X005969
X006096
X006223
X00635
Y002286
Y002159
Y002032
Y001905
Y001778
Y001651
Y001524
Y001397
Y00127
Y001143
Y001016
X00629Y00097
Y000915
X006235
Y00086
X0062907Y00086022
X00635Y000889
X006235Y00097
X006223Y000762
Y000635
Y000508
X006096
Y000635
Y000762
Y000889
X005969
Y000762
Y000508
Y000381
X006096
X005969Y000254
X005842
X005715
Y000381
X00578Y00039
X005842Y000508
Y000635
X005715Y000508
X005588
Y000635
Y000762
Y000889
X005461Y000635
Y000508
X005588Y000381
Y000254
Y000127
X005715
X005461
X005334
X005207
Y000254
X00513Y0004
X00508Y000381
X004995Y00041
X005025Y00068
X005065Y000725
X005215Y000735
X005334Y000635
X004795Y00056
X00452Y00054
X004445Y000508
Y000635
X004318
Y000254
X004191Y000381
Y000127
X004064
Y000254
Y000508
X00408Y000955
X00410668Y0010106
X004191Y001143
X004318
X00434Y001215
X004445Y001143
X004699Y00127
Y001397
X004826
X004953
X00508
X005207
X005334
X005461
X005588
X005715
X005842
X005969
X006096
X006223
Y001524
Y001651
Y001778
Y001905
Y002032
Y002159
Y002286
X006096
Y002159
Y002032
Y001905
Y001778
Y001651
Y001524
X005969
Y001651
Y001778
Y001905
Y002032
Y002159
Y002286
X005842
Y002159
Y002032
Y001905
Y001778
Y001651
Y001524
X005715
Y001651
Y001778
Y001905
Y002032
X00563Y00207
X00556Y00214
X00549Y00207
X00556Y002
X005588Y001905
Y001778
Y001651
Y001524
X005461
Y001651
Y001778
Y001905
X005334
Y001778
Y001651
Y001524
X005207
Y001651
Y001778
Y001905
X00508
Y001778
Y001651
Y001524
X004953
Y001651
Y001778
Y001905
X004826
Y001778
Y001651
Y001524
X004699
Y001651
Y001778
Y001905
Y002159
X004826
X004953
X00508
Y002286
Y002413
X004953
Y002286
X004826
Y002413
X004699
Y002286
X00535Y00221
X00542Y00228
X00556
X00549Y00221
X00563
X005715Y002159
Y002286
X00542Y00214
Y002
X00535Y00207
X005375Y00121821
X00486Y001245
X004953Y000889
X00508Y000127
X006Y00124
X006135
X006223Y00127
X0062Y003
X0061
X0063
X00622Y00327
X00616
X0061
X005969Y003556
X005872Y003555
X005842Y003429
X00569Y003585
X005627Y003597
X005625Y0037183
X00558Y00383
X00545Y003825
X005334Y003937
X005207
Y00381
X005245Y0036
X005165Y00358
X00506Y003595
X00490184Y00354316
X00485182Y00341819
X00488Y00319
X004953Y003175
X00501Y00319
X004953Y003048
X005207
X00554Y002985
X005334Y003429
X005365Y003543
X005715Y00381
X005842
X005969
X006096
X006223
Y003937
X005969
X005715
X00507Y003945
X004935Y0039
X0048275Y003855
X004826Y003683
X004699
Y003556
X004572
Y003683
X004445
Y003556
X004572Y003429
X004645Y003205
X004425Y00307
X004318Y003175
X004191
Y003302
X004318Y003683
X00445Y00387
X0045725Y003855
X004699Y003937
X004215Y003955
X004145Y00388924
X00404Y003845
X004045Y00288325
X00409Y00282
X00416678Y002805
X004064Y001905
Y001778
X004191
Y001651
X004318
X004315Y0015463
X004064Y001651
Y00127
X004065Y001195
X004064Y004064
X004191
X004064Y004191
Y004318
Y004445
Y004699
Y004826
X004065Y0049
X004064Y00508
X004191
X004445
X004572
X004654Y00509945
X0047731Y00507278
X004995Y00506766
X005075Y005055
X005055Y004835
X004826Y004826
X004845Y0049
X004826Y004699
Y004445
X004745Y004383
X004699Y004572
Y004826
X004645Y00483
X004445Y004826
X004465Y0049
X004445Y004699
Y004445
Y004318
Y004191
X004345Y004383
X00424879Y00435302
X004243Y004832
X004318Y004826
Y005461
X004572
Y005715
X004699
X004826
X004953
X00508
X0051Y005935
X00524Y006005
X0053Y006195
X00541Y00619
X00568Y00623
X006096Y006223
X006223
X00635
Y006096
Y005969
Y005842
Y005715
Y005588
Y005461
Y005334
Y005207
Y00508
Y004953
Y004826
Y004699
X006223
X006165Y00471
X006096Y004699
Y004826
X006223
X006096Y004953
X005969
Y00508
Y005207
X006096
X006105Y00511
X005842Y00508
Y005207
Y005334
X005969
Y005588
X006096Y005715
X005842
Y004953
X00584Y004765
X00581Y004705
X005842Y004572
X0058Y004495
X00565358Y00459833
X005461Y004191
Y004064
X005334
Y004191
X005207
Y004064
X00514816Y0044379
X004826Y004191
X005969Y004064
X006223
X00623253Y00420023
X006223Y004318
X006096
X0063Y004555
X005207Y005207
X00491Y006005
X004826Y006096
X004699
Y005842
X004572
X004445
Y006096
X004318
X004572Y006223
X004605Y00626
Y00635
Y00645
Y006545
X004572Y006604
X00445Y00655
X004365Y00669
X004445Y006858
X00454Y006895
X004425Y007095
Y007205
X00445936Y00730695
X00444Y007495
X00434
X004191Y007493
X00411581Y00750026
X004064Y007493
X004075Y007335
X004105Y007215
X004191Y007112
Y006858
X004064
X004953
X00508
Y006731
Y006477
X005207
X004953Y006604
Y00635
Y006223
Y007112
X00508
X00512Y006995
X004953Y007239
X004826
Y007112
X004699
X004735Y007295
X004765Y007395
X00469Y0075
X00460925Y00744575
X004572Y00762
X00454Y00776
X004425Y00785
X004191Y00762
X00489Y007495
X00493381Y00745119
X005005Y007415
X00499Y0075135
X00507Y0076713
X00501174Y00783037
X0049085Y0078503
X005275Y007785
X005285Y007935
X00546703Y00783
X005285Y0073913
X00581Y0074
X005842Y007239
X005969
X006096
X006223
X00635
Y007112
Y006985
X006223
Y007112
X006096
Y006985
X005969
Y007112
X005842
Y006985
Y006858
X005969Y006731
X006096
X006223
X00635
Y006477
X006223
X006096
X004318Y005715
X004064
X003937Y006096
X00381
Y006223
Y006477
Y006604
X003937
Y006858
X00381
Y007239
X003937
Y007366
Y007493
Y00762
X00396Y007695
X00381Y00762
Y007493
Y007366
X003429
Y007493
Y00762
Y007747
X003435Y007895
X00305Y0079
X003048Y007747
Y00762
Y007493
Y007366
Y007239
Y007112
Y006985
Y006858
X002921
Y006985
Y007112
Y007239
Y007366
Y007493
Y007747
Y007874
X002794
X002413
X002286
Y007747
Y00762
Y007493
X002413Y007366
X00254Y007239
X002667
X002794
Y007366
Y007112
Y006985
X002667Y007112
X00254Y006985
Y006858
Y006731
Y006604
Y006477
Y00635
Y006223
Y006096
Y005969
Y005842
Y005715
Y005588
Y005461
Y005334
Y005207
Y00508
Y004953
Y004826
Y004699
Y004572
Y004445
Y004318
Y004191
Y004064
X002413
Y004191
Y004318
Y004445
Y004572
Y004699
Y004826
Y004953
Y00508
Y005207
Y005334
Y005461
Y005588
Y005715
Y005842
Y005969
Y006096
Y006223
Y00635
Y006477
Y006604
Y006731
Y006858
Y006985
Y007112
X002286
Y007239
X002159
Y007366
X002032
Y007493
X001905
Y00762
X001778
Y007747
Y007874
X001905
X002032
X002159
X002032Y007747
Y007239
Y007112
X002159
Y006985
X002286
Y006858
Y006731
Y006604
Y006477
Y00635
Y006223
Y006096
Y005969
Y005842
Y005715
Y005588
Y005461
Y005334
Y005207
Y00508
Y004953
Y004826
Y004699
Y004572
Y004445
Y004318
Y004191
X002159Y004318
Y004445
Y004572
Y004699
Y004826
Y004953
Y00508
Y005207
Y005334
Y005461
Y005588
Y005715
Y005842
Y005969
Y006096
Y006223
Y00635
Y006477
Y006604
Y006731
Y006858
X002032
Y006985
X001905
Y007112
Y007239
Y007366
X001778
Y007493
X001651
Y00762
X001524
Y007747
X001651Y007874
X001397
Y00762
Y007493
X001524
Y007366
X001651
Y007239
X001778
Y007112
Y006985
Y006858
X001905
Y006731
X002032
Y006604
Y006477
Y00635
Y006223
Y006096
Y005969
Y005842
Y005715
Y005588
Y005461
Y005334
Y005207
Y00508
Y004953
Y004826
Y004699
Y004572
Y004445
X001905Y004572
Y004699
Y004826
Y004953
Y00508
Y005207
Y005334
Y005461
Y005588
Y005715
Y005842
Y005969
Y006096
X001778Y005969
Y005842
Y005715
Y005588
Y005461
Y005334
Y005207
Y00508
Y004953
Y004826
Y004699
X001651Y004826
Y004953
Y00508
Y005207
Y005334
Y005461
Y005588
Y005715
Y005842
Y005969
X001524
Y006096
X001397
Y006223
Y00635
Y006477
Y006604
X001524
Y006731
X001651
X001778
X001905Y006604
X001651Y006858
Y006985
Y007112
X001524
Y007239
X001397
Y007366
Y007112
Y006985
X001524
Y006858
X001397
Y006731
Y005969
Y005842
X001524
Y005715
Y005588
Y005461
Y005334
Y005207
Y00508
Y004953
X001397Y00508
Y005207
Y005334
Y005461
Y005588
Y005715
Y004572
Y004445
X001524
Y004318
X001651
Y004191
X001778
Y004064
X001905
X001651
X001524
Y004191
X001397
Y004318
X00127
Y004445
Y004572
Y004699
X001143
Y004826
Y004572
Y004445
X000635Y004318
Y004191
Y004064
X000254
Y004191
Y004318
Y004445
Y004572
Y004699
Y004826
Y004953
Y00508
Y005207
Y005334
Y005461
Y005588
Y005715
Y005842
Y005969
Y006096
Y006223
Y00635
Y006477
Y006604
Y006731
Y006858
Y006985
Y007112
Y007239
Y007366
Y007493
Y00762
Y007747
Y007874
X000127
Y007747
Y00762
Y007493
Y007366
Y007239
Y007112
Y006985
Y006858
Y006731
Y006604
Y006477
Y00635
Y006223
Y006096
Y005969
Y005842
Y005715
Y005588
Y005461
Y005334
Y005207
Y00508
Y004953
Y004826
Y004699
Y004572
Y004445
Y004318
Y004191
Y004064
X00281821Y004135
X00275184Y00420816
X00312Y00421
X003205Y004135
X003395
X003175Y004318
Y004445
X00324517Y00487
X0033703Y00484
X00337867Y00490635
X00312Y00495
X003175Y00508
Y005207
X003125Y0054813
X003048Y005461
Y005588
Y005715
X003175
Y005842
Y005969
Y006096
Y006223
Y00635
X003048
Y006477
Y006223
Y006096
Y005969
Y005842
X00342977Y00585153
X00343Y0057713
X00341075Y00568
X003425Y00555
X003435Y0054663
X00381Y005461
Y005207
Y00508
X003937
Y004826
Y004699
X00381
Y004826
Y004445
X003937
Y004318
Y004191
X00381
Y004318
Y004064
X003429Y005969
Y006096
Y006223
Y00635
Y006477
Y006604
Y006731
Y006858
X003405Y007015
X00343Y00712
X003429Y007239
X003805Y007785
X00381Y007874
X003795Y007935
X002921Y006731
Y008001
Y008128
X002794
Y008255
X002667
Y008382
X00254
Y008255
Y008128
X002667
Y008001
X002794
X00254
X002413
Y008128
Y008255
X002286
X00216
X002159Y008128
X002286
Y008001
X002159
X002032
Y008128
X001905
Y008001
X001778
Y008128
Y008255
X001651
Y008382
Y008509
Y008636
Y008763
X001524
Y008636
Y008509
Y008382
Y008255
Y008128
X001651
Y008001
X001524
X001397Y008128
Y008255
X001175Y00881
X001016Y009017
X000889Y009271
X000762
X00063301Y00922377
X000635Y009017
Y00889
X000381
Y009017
X00038Y00921
X000381Y009271
Y009398
Y009525
X000245
Y009575
Y009625
Y009675
X00019
Y009625
Y009575
Y009525
X00013
Y009575
Y009625
Y009675
X00019Y01003
X000381Y010033
Y01016
Y010414
X00045Y01065
X000508Y010668
X000605Y010755
X000675
X0007454
X00081461Y01073009
X000875Y01072907
X00093Y010755
X00104564Y01078564
X00113936Y01088275
X00112881Y01094729
X00112951Y01101269
X001085Y011025
X00093
X000835Y01112535
X00084Y011385
X00094132Y01140086
X00100672
X00106903Y01138099
X00113439Y01137889
X00119979Y01137881
X00125866Y01140729
X00126119Y01147264
X00132424Y01137035
X001385Y01134615
X00144922Y01135852
X00151344Y01137089
X001524Y01143
X00157766Y01138326
X00164188Y01139563
X0017061Y011408
X00177032Y01142037
X00183454Y01143274
X00189876Y01144511
X00196298Y01145748
X0020272Y01146985
X00209142Y01148222
X00215564Y01149458
X00221986Y01150695
X0021989Y01140284
X00213468Y01139047
X00207046Y0113781
X00200624Y01136573
X00194202Y01135336
X0018778Y01134099
X001905Y011303
X00181359Y01132862
X00174937Y01131625
X00168515Y01130388
X00162093Y01129151
X00155671Y01127914
X00149249Y01126677
X00142827Y0112544
X00136405Y01124203
X001397Y01143
Y011557
X001435Y011625
Y011685
X00147853Y01170088
X00154393
X00160933
X00167148Y0116805
X00173687Y01167938
X00180226Y01167881
X00186383Y01170086
X00192923
X00199463
X00206003
X00202917Y01179914
X00196377
X00189837
X00183576Y01181806
X0017488Y01181825
X00168347Y01182119
X00162189Y01179915
X00155649
X00149109
X001445Y011825
Y011875
X001245Y011815
Y01175001
X00118
Y011815
X001115
Y01175001
Y011685
X00118
X001245
X00109725Y01152119
X00103568Y01149914
X00097029
X00090489
X00084286Y01157286
X00100498Y01158237
X000925Y01175001
X00085Y01181
X000765Y011855
X00046976Y01183805
X00049519Y0117778
X00051385Y01171512
X00056395Y01167309
X00053126Y01157175
X00058161Y01153001
X000508Y01143
X0004814Y01161407
X00043129Y0116561
X00036595Y01165881
X00030055
X00023515
X00016975
X00010435
X00011596Y01184119
X00018136
X00024676
X00031216
X00037756
X00005057Y01184051
X000135Y011035
X000254Y010922
X00036Y01095
X00041
X00046
X00063035Y01105
X00038Y011185
X00106Y011195
X00113881Y01120327
X00113907Y01126867
X00111Y01133
X001016Y011303
X00115302Y01113944
X00127119Y01097881
X001295Y01093
X001365Y01053
X00105Y01055976
X00096581Y01057812
X00081Y01057
Y010025
X000889Y010033
X001016
X001143
X00148Y01011
X001651Y010033
X001725Y010065
X001778Y009906
X001524
X00165535Y00975
X001675Y00965
Y009555
X00167Y00945
X001524Y009271
X001535Y00912
X00154Y00893
X001705Y008935
X002Y008855
X002015Y008775
X002159Y008763
X00229272Y00878805
X00227935Y008855
X002413Y00889
X00254
X002667
Y009017
Y009144
Y009271
X002794
Y009398
X002921
Y009525
X002794
X002667
Y009398
X00254
Y009525
X002585Y009605
X002413Y009652
X002286
X00216Y00975
X002159Y009906
X002286
X0025Y00976
X002794Y009779
X00281Y00969249
X002794Y009906
X002921
X00289525Y01003475
X003175Y010033
X003302
X003429
X003556
Y01016
Y010287
Y010414
Y010541
X003683Y010668
X003556Y010795
X003429
Y010668
X003302
Y010795
X00318Y01072
X003175Y010541
X003302
X003429Y010414
Y010287
Y01016
X003302
Y010287
X003175Y010414
X003048
Y010287
X003175Y01016
X003302Y009906
X003429
X003556
X00367Y00981
X00381Y009906
X00367Y00956
X003683Y009271
X003556
X003355Y0093
X003302Y009398
X00344249Y009485
X003429Y009779
X003302
X003065Y00968
Y00963
X003175Y009525
X00315Y00885
X00317157Y00876
X003155Y008655
X003048Y008763
X002921
X002667
Y008636
X00254Y008763
Y009271
X002413
Y009398
X002286
X00211Y0093
X002165Y00922
X001925Y009295
X00199Y009805
X002667Y009906
Y010287
X00266Y010335
X002665Y01043
X002794Y010414
Y010287
X00251Y01024
X002413Y010287
Y01016
Y010668
Y010795
X002667
X002794
Y010668
X002667
X003048
Y010795
Y011049
X00303Y011145
X003048Y011303
X002921
Y01143
X00303Y011435
Y011485
Y01153476
X003035Y011655
X0032Y0116489
Y01156
Y0114711
X003305
Y01156
Y0116489
X00341
Y01156
Y0114711
X0035035Y0113585
X003556Y011303
X003683
Y011176
X003556
Y011049
X003429
Y011176
X003302
Y011049
X003178Y01125
X003135Y01176
X00323Y01184
X00294914Y01180923
Y01187463
X00285086Y01189877
Y01183337
Y01176797
X00271859Y01179707
X00272119Y01173172
X00267184Y01168881
X00272119Y01186242
X00237001Y01180999
Y011745
X00230501
Y01180999
X00224001
Y011745
Y01167999
X00230501
X00237001
X00241Y01148
X002507Y011488
X00226292Y01141618
X002159Y011303
X002032
Y011176
X001905
X001778
X001651
X001524
Y011557
X001651
X001778
X001905
X002032
X00221Y01107
X00235Y011085
X002425Y011045
X002667Y011049
X002794
X002667Y011176
X002286Y010668
X002159
X002032
X001905
X00174Y010755
X001645Y01070818
Y01080668
X001895Y010935
X00182Y010495
X001645Y01038462
X00163154Y01029944
X00056Y009955
X00031075Y00994575
X00060854Y00974444
X0007Y00954
X000255Y009115
X000254Y008382
Y008255
Y008128
Y008001
X000127
Y008128
Y008255
Y008382
Y008509
X002155Y008515
X00328Y008525
X003302Y008255
X003175Y008128
X00342Y008715
Y008855
X003556Y00889
X003683
Y009017
X00383847Y01078653
Y01092153
X003937Y011049
Y01143
X00393917Y01153586
X00387377
X003871Y01163414
X0039364
X003937Y011684
Y011811
X00381
Y011684
X0038056Y01163414
X0037402
X0036748
X003683Y011684
X0036094Y01163414
X00358498Y01153432
X0035935Y011397
X00377Y011345
X003683Y011811
X003556
X00019Y01066
X004015Y01057
Y01052
X0041815Y0105085
X004235Y010585
X004295Y0106
X004318Y010668
X00417653Y01067347
X00423486Y01092014
X00429352Y01091334
X00432Y011
X004405Y010955
X004465
X00452
X00462Y01087714
X00465081Y01081904
X00468Y01071473
X00490576Y01078761
X00488881Y01085077
X0048816Y01091578
X004826Y010922
X00487881Y01098111
Y01104651
X004826Y011049
Y011176
X00488881Y01117121
X00487531Y0112352
X00482907Y01128144
X00478282Y01132769
X00473512Y01137243
X00467003Y01137881
X00460469Y01138153
X00463168Y01152119
X00456628
X00445163Y01147584
X00439336Y01150553
X004318Y01143
X004325Y01125
X004275
X004225
Y011195
X004275
X004325
X00400325Y0111086
X00401043Y01083505
X00428679Y01042821
X00452551Y01056674
X00443Y0100879
X00442974Y0100275
X004345Y009955
X00438758Y00988
X00441894Y0096339
X00431536Y00963063
X00433265Y0094701
X004393Y00946758
X00439209Y00952797
X00423Y00953
X00427247Y00947522
X0043Y00931
X0042396
X004318Y009144
X00424Y009055
X00428817Y0089799
X00434Y008925
X004315Y008845
X00425Y00867
X00433Y00852
X004318Y008382
X004425Y0083606
X00422Y00830549
X00421Y00813
X00406Y008085
X00399418Y0082494
X004064Y008382
X004135Y008445
X00399897Y00868882
X00398Y00877
X00401Y008945
X004605Y00895
X004515Y00905358
X00454Y0086613
X00452932Y00852431
X0046456Y00846
X00485Y008515
X00486Y0086063
X0049085Y0083606
X004953Y008382
X005Y008305
X0051776Y0083824
X00522Y008495
X005115Y00849
X005335Y008495
X00544
X005461Y008636
Y008763
Y00889
X005334
Y009017
X00521Y00899
X005207Y00889
X005334Y008763
X00537679Y00835
X0052332Y00825
Y008045
X00506Y008055
X00477Y0080839
Y0081728
X004665
Y0080839
Y007995
X00477
X00456
Y0080839
Y0081728
X004845Y008905
X004826Y009271
X00492Y009615
X00498492Y00962179
X00505Y009625
X005205Y009515
X00538Y00963
X00530924Y00974
X005375Y009815
X00527601Y00995399
X00530066Y01008525
X0054947Y01009
X00546076Y010015
X0054947Y00995
X00564Y009965
Y009835
X005842Y009779
X005969
X006096
X006223
X00635
Y010033
X006223
X006096
X005969
X005842
Y01016
Y010287
X005969
X006096
X006223
X00635
Y010414
Y010541
X006223
Y010414
X006096
Y010541
X005969
Y010414
X005842
Y010541
Y010668
Y010795
X005625Y010765
X00558Y010645
X00546676Y01054624
X0054Y0106
X00513Y01059
X00500914Y01075321
X00509847Y01085153
X00508Y010922
X00502119Y01094747
X00502053Y01101287
X00501959Y01107826
X005025Y01113
X00508Y011049
X005207
X005334
X005461
X005588
X005715
X005842
Y011176
Y011303
X005715
Y011176
X005588
Y011303
X005461
Y011176
X005334
Y011303
Y01143
Y011557
Y011684
Y011811
X005207Y011557
Y01143
Y011303
Y011176
X00509847Y01120153
X00508Y011303
X00499933Y01126814
X00494498Y01130451
X00489874Y01135076
X00490286Y01110733
X005207Y010922
X005334
X005461
X005588
X005715
X0054947Y0103503
X005334Y010287
X00512Y01023424
Y01016
X0049692Y01018943
X004965Y010285
X004953Y010414
X0049425Y01010074
X00495Y010035
X00486Y010035
X00476
X004675
X00401348Y01008152
X00401185Y00986
X00398Y00955
X00544Y009445
X0054947Y009305
X00555Y009265
X00564Y00921
X005461Y009144
X005715Y009017
Y00889
X005842Y009271
X005969
X006096
X006223
X00635
Y009398
Y009525
X006223
Y009398
X006096
Y009525
X005969
Y009398
X005842
Y009525
Y009652
X005969Y008382
X006096
X006223
X00635
Y008255
Y008128
X006223
Y008255
X006096
Y008128
X005969
Y008255
X00568Y00817
X00567858Y00797365
X00508Y01143
X0049188Y01167881
X00485344Y01168131
X00478809Y01167881
X00472652Y01170086
X00466131Y01170577
X00459808Y01172249
X004572Y011684
X00453864Y01174977
X00448474Y01178682
X00456368Y01184976
X00462152Y01181922
X00468462Y01180203
X00474979Y0118075
X00481374Y01182119
X00496183Y011794
X00496239Y0118594
X00496119Y01172861
X004445Y011684
X00432836Y01162555
X004318Y011811
X004191
Y011684
X0041326Y01163414
X0040672
X004064Y011684
X0040018Y01163414
X00400457Y01153586
X00420077
X004064Y011811
X00439972Y01188557
X0043711Y01194438
X004318Y011938
X00435296Y01200721
X00434583Y01207222
X00434586Y01213762
Y01220302
Y01226842
Y01233382
X00434498Y01239922
X00432582Y01246175
X00428091Y01250929
X00430546Y01260767
X00424308Y01262729
X004318Y0127
X004445
X004572
Y012827
Y012954
Y013081
X004445
Y012954
Y012827
X004318
Y012954
Y013081
X004191
Y012954
X004064
Y013081
Y012827
X00415Y0128545
X004064Y0127
X0039973Y01244403
X00397119Y01238407
Y01231867
X004064Y012319
X004152Y0123165
X00408058Y01217542
X004191Y012065
Y011938
X004064
X00445389Y01200803
X00444443Y01207274
X00444414Y01213814
Y01220354
Y01226894
Y01233434
X00444373Y01239974
X00443187Y01246405
X00440376Y0125231
X004445Y012573
X00436022Y0125719
X004572Y012573
X004699
X00479319Y01257834
X0047619Y01252091
X00473061Y01246348
X00469932Y01240605
X00466803Y01234863
X00463674Y0122912
X00460545Y01223377
X00454746Y01220353
X00452881Y01214084
Y01207544
X00466027Y01200259
X004699Y011938
X004855Y012035
X00492Y01203501
X004985
Y01210003
Y01216501
X00492
Y01210003
X004855
Y01216501
X00473274Y012262
X00479532Y01237685
X00482662Y01243428
X0048579Y01249171
X0048892Y01254914
X004953Y012573
X00492049Y01260657
X00497858Y01263661
X0050383Y01266327
X00504119Y0127286
Y012794
Y0128594
Y0129248
Y0129902
Y0130556
X00508Y013081
Y012954
Y012827
Y0127
Y012573
X005207
X005334
Y0127
Y012827
Y012954
Y013081
X00486034Y01308551
X00485881Y01302013
Y01295473
Y01288933
Y01282393
Y01275853
X00485577Y0126932
X00482448Y01263577
X00497Y012385
X00504Y012395
X00516Y01248
X005334Y012446
Y012319
X00534568Y01217119
X00528028
X0052936Y01203072
X00522822Y01202916
X00535897Y01202881
X0054206Y01205069
X005334Y011938
X004572Y012319
Y012446
X00388832Y01246119
X00383081Y01243006
X00382907Y01236468
X00381Y012319
X003683
Y012446
Y012573
X00369055Y01265086
X00362515
X00355975
X00349435
X00342895
X00336355
X00329815
X00323275
X00316735
X00310196
X00303655Y01265079
X00297163Y01264293
X00290926Y01262326
X002921Y012573
X00285157Y01259244
X00280054Y01255155
X0027591Y01250095
X00272788Y01244348
X002794Y012446
X00284Y012475
X00264284Y01249516
X00261933Y01243413
X00260504Y01237031
X00260073Y01230505
X00260086Y01223965
Y01217425
X00254Y012192
Y012319
Y012446
Y012573
Y0127
X002667
Y012827
X002794
X002921
X00293698Y01273574
X002995Y01275
X00306
X00311103Y01274914
X00317643
X00324183
X00330723
X00337263
X00343803
X00350343
X00356883
X00363423
X00369963
X00376503
X00383043
X00389583
X00396101Y01274375
X003937Y012827
Y012954
Y013081
X00381
Y012954
Y012827
X003683
Y012954
Y013081
X003556
Y012954
Y012827
X003429
Y012954
Y013081
X003302
Y012954
Y012827
X003175
Y012954
Y013081
X003048
Y012954
Y012827
Y012573
X00306Y012475
X00317115Y01250094
X003175Y012573
X003302
X003429
X003403Y0125
X003429Y012446
X003556
Y012573
X00381
X00382135Y01265086
X00375595
X00388675
X0039509Y01263811
X003957Y0125815
X0038995
X00392494Y01251538
X003937Y012192
X00383671Y01221503
X00377712Y01218807
X00371754Y01216111
X00365795Y01213416
X00359836Y0121072
X00357Y012055
X003683Y012065
X00381
X00395358Y01204843
X003405Y01206
X003405Y01215
Y0122389
X0033
Y01215
Y0120611
X003195
Y01215
Y0122389
X003048Y012319
X002921
X002955Y012205
X00295545Y01212709
X0029081Y01208197
X00287315Y01202669
X00285425Y01196408
X00295069Y01194001
X00297146Y01200202
X00302911Y01199963
X003048Y011938
X0031Y01196
X00269914Y01198939
Y01192399
Y01205479
Y01212019
Y01218559
Y01225099
X00269944Y01231639
X00270776Y01238125
X00267509Y01255205
X00271536Y01260358
X00276278Y01264862
X00281633Y01268617
X00287482Y01271543
X002921Y012954
Y013081
X002794
Y012954
X002667
Y013081
X00254
Y012954
Y012827
X002413
Y012954
Y013081
X002286
Y012954
Y012827
Y0127
X002413
Y012573
Y012446
Y012319
X002286
Y012446
Y012573
X002159
Y0127
Y012827
Y012954
Y013081
X002032
Y012954
Y012827
Y0127
Y012573
Y012446
X002159
Y012319
Y012192
X002032
Y012319
X001905
Y012446
Y012573
Y0127
Y012827
Y012954
Y013081
Y012192
Y012065
X002032
X002135Y01208
X002298Y01214786
X002365Y01217
X002405Y01209
X002032Y011938
X001905
X001778
Y012065
X001651
Y011938
X001524
Y012065
X001397
Y011938
X00128003Y01200501
X00123001
X00121119Y01206679
X00127Y012065
X00117379Y01212044
X00110914Y01213032
X00101086Y01212121
X00098881Y01205964
X00099817Y01199492
X00100498Y01193001
X000855Y01193
X000889Y012065
X000762
X000635
Y011938
X000508
Y012065
X003495Y012335
X003556Y012319
T02
X00025Y001115
Y001265
Y001415
Y001565
X00013453Y002225
Y002375
Y002525
Y002675
X001555Y002705
X00125Y00219
X002345Y001575
X00244
X002185Y000955
X00223Y00091
X00221Y000845
X002135Y000905
X00207Y000935
X002135Y001
X00290112Y00094113
X002955Y000985
X00301236Y00096152
T03
X000875Y01015
X0008Y010225
X00095
X0011
X001025Y01015
Y0103
Y01045
X0011Y010375
X00095
X0008
X000875Y01045
Y0103
X00455Y010375
X004625Y01045
X0047Y010375
X004775Y01045
X00485Y010375
X004775Y0103
X00485Y010225
X004775Y01015
X0047Y010225
X004625Y01015
X00455Y010225
X004625Y0103
T06
X004146Y005296
Y00555
X0044
X004654
X004908
Y005296
X004654
X0044
X0054Y005258
Y005004
Y00475
Y004496
X003892Y005296
Y00555
X002149Y007745
X001895
X001641
X001387
T08
X00227Y003375
X004085Y006345
X001745Y006345
X002645Y007615
T09
X006165Y005555
Y005855
T10
X004619Y0004485
Y0006515
X005381Y00055
X003388Y008342
X003185
X0032865Y009104
X0021635
X002062Y008342
X002265
T11
X0048095Y000296
Y000804
X005381
Y000296
X0035405Y0085325
X0030325
Y009104
X0035405
X0024175
X0019095
Y0085325
X0024175
M30
