M48
;Layer_Color=9474304
;FILE_FORMAT=4:4
METRIC,LZ
;TYPE=PLATED
T1F00S00C0.3302
%
T01
X00012337Y00014743
X00006752Y00030192
X00013727Y00045067
X0000635Y00052832
Y00065532
Y00078232
Y00090932
Y00103632
Y00116332
Y00129032
Y00141732
X00024046Y00128167
X00049447
X00074847
X00100246
X00122523Y00125107
X00121407Y00117527
X00125408Y00107637
X00136076Y0010761
X00139741Y00076373
X00133227Y00067924
X00138352Y00058567
X00125646Y00051967
Y00077366
X00100246
Y00102767
X00074847
Y00077366
Y00051967
X00100246
Y00026567
X00098044Y0000508
X00085344
X00072644
X00059944
X00042661Y00013353
X00027212Y00007768
X00049636Y00028228
X00044051Y00043677
X00049447Y00051967
X00029176Y00050652
X00024046Y00077366
X00049447
Y00102767
X00024046
X00074847Y00026567
X00125646
X00123444Y0000508
X00136144
X00110744
X00121407Y00135716
X00137802Y00141881
X00151996Y00128625
X00158122Y00109527
Y00098859
X00164433Y00096103
X00171976Y00103646
X00179112Y00111576
Y00122244
Y00132912
Y0014358
X00190117Y00137432
Y00126764
Y00116096
X00189084Y00105478
X00181685Y00097793
X00174142Y00090249
X00166598Y00082706
X00161845Y00076373
X00169033Y0006849
X00167622Y00057915
X00172251Y00048303
X00179794Y0004076
X00187337Y00033217
X00194881Y00025673
X00204452Y00020962
X0021512
X0021336Y0003429
X00206343Y00035903
X00206843Y0004656
X00201847Y00051967
X00206843Y00057228
Y00067896
Y00078564
Y00089232
Y000999
Y00110568
Y00121236
Y00131904
X00220828Y00135983
Y00125315
X00227246Y00128167
X00220828Y00114647
Y00103979
Y00093311
Y00082643
Y00071975
Y00061307
Y00050639
Y00039971
X00225632Y00030446
X00233176Y00022903
X00243823Y00022232
X00254491
X00265159
X00275827
X00286495
X00297163
X00295366Y00006978
X00284698
X0027403
X00263362
X00252694
X00242026
X00231358
X0022069
X00210022
X00199354
X00189563Y00011214
X0018202Y00018757
X00174476Y00026301
X00166933Y00033844
X00159389Y00041387
X00152343Y00042765
X00146517Y00051702
X00151512Y00067619
X00142727Y00090049
X00144138Y00100623
X00176446Y00077366
X00227246
X00252647Y00051967
X00278046
X0027559Y00073914
Y00094742
X00296418
Y00073914
X00317754
Y00094742
X0033909
X00359918
Y00073914
X0033909
X00328847Y00051967
X00354246
X00379646
X00415932Y00047824
Y00058492
Y0006916
Y00079828
X0040894Y0009144
X00413735Y001009
X00421278Y00093356
X00428822Y00085813
X00436365Y0007827
X00445577Y00072888
X00456245
X00466912
X00476814Y00068917
X00484357Y00061374
X00481246Y00051967
X00491901Y00053831
X00499444Y00046287
X0050293Y00062579
X00513357Y00060326
X005209Y00067869
X00528444Y00075413
X00535987Y00082956
X00536857Y00064049
X00529314Y00056505
X00521771Y00048962
X00516634Y00039612
X00513824Y00020962
X00524492
X00519394Y00006978
X00508726
X00498058
X0048739
X00476722
X00466054
X00455386
X00444718
X0043405
X00423382
X00412714
X00402046
X00391378
X0038071
X00370042
X00359374
X00348706
X00338038
X0032737
X00316702
X00306034
X00303447Y00051967
X00296926Y00115824
X00276098
X00275844Y00137414
X00296672
X00318008
X00339344
X00360172
X00360426Y00115824
X00339598
X00318262
X00425339Y00109073
X00432882Y0010153
X00440426Y00093986
X00448376Y00086873
X00459044
X00469712
X0048024Y00085149
X00487843Y00077666
X00495386Y00070122
X00506646Y00077366
Y00102767
X00521772Y00105845
X00528809Y00097827
X00481246Y00102767
Y00128167
X00493282Y00138314
X00500931Y00130878
X0050737Y00142718
X00455846Y00128167
Y00102767
Y00051967
Y00026567
X00460484Y00020962
X00471152
X0048182
X00492488
X00503156
X00530062Y00006978
X00449816Y00020962
X00439148
X00430447Y00051967
Y00128167
X00174244Y0000508
X00161544
X00148844
X00151046Y00026567
X00539451Y00012042
X00542544Y0000508
X00555244
X00567944
X00580644
X00593344
X00606044
X00618744
X00618487Y00013411
X00634018Y00007006
X00649529Y00013459
X00663448Y00010668
Y00023368
Y00036068
Y00048768
Y00061468
Y00074168
Y00086868
X00656828Y00090332
X00652603Y00081651
X00645968Y00073297
X006353
X00624632Y00073248
X0061536Y00067972
X00605007Y00065398
X00596247Y00059309
X00588704Y00051765
X00581161Y00044222
X00573617Y00036679
X00566074Y00029135
X00556555Y00024318
X00546994Y00019586
X00559418Y00042257
X00557447Y00051967
X00566962Y000498
X00574505Y00057344
X00582048Y00064887
X00585905Y00073297
X00575237
X00564869Y00075808
X00554201
X00544401Y00071592
X00544332Y00089602
X00554998Y00089792
X0056642Y0010287
X0056515Y0012319
X00547657Y00123816
X0056769Y00143256
X0066332Y00141533
Y00130865
Y00120197
Y00109529
X00663236Y00098862
X00649481Y00044501
X0063395Y00050906
X00618439Y00044453
X00608246Y00051967
X00612034Y00028922
X00582846Y00026567
X00655934Y0002899
X00662392Y00152161
X00663448Y00163068
X00655058Y00159908
X00647515Y00167452
X00639642Y0017465
X00629Y00175394
X00619252Y00175514
X00619706Y00183095
X00612163Y00190639
X00604619Y00198182
X00597076Y00205725
X00589533Y00213269
X00581989Y00220812
X00574446Y00228356
X00566902Y00235899
X00559359Y00243443
X00551815Y00250986
X00544272Y00258529
X0054139Y00245848
X00548933Y00238305
X00556477Y00230762
X0056402Y00223218
X00571564Y00215675
X00579107Y00208131
X00586651Y00200588
X00594194Y00193044
X00601738Y00185501
X00596996Y00175394
X00607664
X00603068Y0016141
X005924
X00581732
X00582846Y00153567
X00563556Y00153831
X00571064Y0016141
X0057566Y00175394
X00586328
X00564992
X00554506Y00177358
X00546963Y00184902
X00539419Y00192445
X00543783Y00168305
X00548989Y00148807
X00608246Y00153567
X00613736Y0016141
X00624404
X0063373Y0016129
X00642545Y00152644
X00622912Y00152303
X00614297Y00146011
X00622346Y0019685
X00633647Y00229767
Y00255166
X00632748Y00264308
X00650024Y00271071
X00663448Y00277368
Y00264668
Y00251968
Y00239268
Y00226568
Y00213868
Y00201168
Y00188468
Y00175768
X00608246Y00229767
Y00255166
X00615749Y00271742
X00608986Y00289018
X006062Y0030988
X005935
X005808
X005681
X005554
X005427
X00557447Y0029845
Y00280567
X00582846
Y0029845
X0061642Y00306017
X00633696Y0031278
X00650695Y00305346
X00657458Y0028807
X00582846Y00255166
X00557447Y00204366
X00531876Y00199988
X00524333Y00207532
X00516789Y00215075
X00509246Y00222619
X00501702Y00230162
X00494159Y00237705
X00486615Y00245249
X00479072Y00252792
X00483742Y00262468
X0049441
X00505078
X00506646Y00255166
X00515746Y00262468
X00526303Y00260935
X00528735Y00273137
X00532047Y00280567
Y0029845
X0053Y0030988
X005173
X005046
X004919
X004792
X004665
X004538
X004411
X004284
X004157
X00403
X003903
X003776
X003649
X003522
X003395
X003268
X003141
X003014
X002887
X00276
X002633
X002506
X002379
X002252
X002125
X001998
X001871
X001744
X001617
X00149
X00151046Y0029845
Y00280567
X00176446
Y0029845
X00201847
Y00280567
X00227246
Y0029845
X00252647
Y00280567
X00262143Y00270951
X00272509Y00273472
X00283177
X00293845
X00304513
X00303447Y00280567
Y0029845
X00328847
Y00280567
X00325849Y00273472
X00315181
X0030861Y0025781
X0034036Y0027432
X00352103Y00274026
X00354246Y00280567
X00362771Y0027412
X00373438
X00384106
X00394775
X00405443
X0041611
X00426778
X00430447Y00280567
X00437447Y0027412
X00448115
X00455273Y00274036
X00464533Y00273472
X00475201
X00485869
X00496537
X00507205
X00506646Y00280567
Y0029845
X00481246
Y00280567
X00471529Y00260336
X00453261Y00258825
X00442674Y00260136
X00432006
X00436775Y00252971
X00444319Y00245427
X00451862Y00237884
X00459406Y0023034
X00466949Y00222797
X00474492Y00215253
X00482036Y0020771
X00489579Y00200167
X00497123Y00192623
X00504666Y0018508
X0051221Y00177536
X00519753Y00169993
X00527296Y00162449
X0053484Y00154906
X00518998Y00152255
X00506646Y00153567
X00499827Y00150262
X00492283Y00157805
X0048474Y00165349
X00477196Y00172892
X00481246Y00178967
X00481281Y00189972
X00473737Y00197516
X00466194Y00205059
X00455846Y00204366
X00454566Y00195522
X00462109Y00187979
X00469653Y00180436
X00455564Y00176031
X00448021Y00183575
X00440478Y00191118
X00432934Y00198661
X00425391Y00206205
X00417847Y00213748
X00410304Y00221292
X00402761Y00228835
X00416849Y00233239
X0041837Y00246126
X00428477Y00242776
X00430447Y00229767
X00424392Y00225696
X00431936Y00218153
X00439479Y00210609
X00447023Y00203066
X00451107Y00220146
X00443564Y00227689
X0043602Y00235233
X00409305Y00240783
X00407385Y0025686
X00399257
X00379646Y00280567
Y0029845
X00405047
X00430447
X00455846
X00460805Y00251282
X00468348Y00243739
X00475892Y00236195
X00483435Y00228652
X00490979Y00221108
X00498522Y00213565
X00506065Y00206022
X00513609Y00198478
X00521152Y00190935
X00528696Y00183391
X00536239Y00175848
X00496367Y00174886
X00488824Y00182429
X00503911Y00167342
X00511454Y00159799
X00478195Y00153401
X00470651Y00160944
X00463108Y00168488
X00455846Y00153567
X00430447
Y00178967
X00405047
Y00204366
X00360172Y00199898
Y00179324
X00379646Y00178967
X0036068Y00157734
X00339852
X00318516
X0029718
X00276352
X00275844Y00179324
Y00199898
X00296672
Y00179324
X00318008
Y00199898
X00339344
Y00179324
X00225462Y00179813
X00214843Y00180844
X00204215Y00179929
X0020828Y0017399
X0020733Y00188549
X00199559Y00189585
X00189191Y00192
X00178523
X00167855
X00157187
X00146519
X00142715Y00204
X00153383
X00164051
X00174719
X00185387
X0019594Y00204115
X00210381Y00204934
X00221026Y00204238
X00231689Y00204574
X00228576Y00189932
X00217908
X00185746Y00184195
X00175079
X0016441
X00176191Y00168442
X0017526Y0016129
X00174905Y00154123
X00190117Y001481
X00206843Y00153217
X00221261Y00146642
X00227246Y00229767
Y00255166
X00246357Y00256635
X00252398Y00252723
X00259762Y00252885
X002546Y00263407
X00278046Y00280567
Y0029845
X00354246
X00517873Y00273472
X00536729Y00266073
X00533847Y00253392
X00532047Y00229767
X0045865Y00212603
X00485738Y00145857
X00201847Y00229767
Y00255166
X00176446
Y00229767
X00151046
Y00255166
X00125646
Y00280567
Y0029845
X001236Y0030988
X001109
X000982
X000855
X000728
X000601
X00043543Y00303624
X00049382Y0028807
X00042512Y00272941
X00026958Y00267102
X00024046Y00255166
X0000635Y00256032
Y00268732
X00011829Y00273972
X0000599Y00289526
X0001286Y00304655
X00028414Y00310494
X00074847Y0029845
Y00280567
X00100246
Y0029845
Y00255166
Y00229767
X00125646
X00121428Y00204
X00132092
X00110797Y00204133
X00100168Y00204
X000895
X00078832
X00068449Y00205681
X00059176Y00210954
X00045817Y002029
X00046174Y00192238
X0005439Y00185433
X00049447Y00178967
X00064939Y00187022
X00073924Y00192
X00084592
X0009526
X00100246Y00178967
X00123818Y00178102
X00123545Y00188766
X00137802Y00173885
Y00163217
Y00152549
X00123818Y00156777
Y00146109
X00100246Y00153567
X00074847
Y00178967
Y00229767
Y00255166
X00049447
X00024046Y00229767
X0000635Y00230632
Y00243332
Y00217932
Y00205232
Y00192532
Y00179832
Y00167132
Y00154432
X00024046Y00153567
X00049447
X00024046Y00178967
Y00204366
X001363Y0030988
M30
